<svg width="24" height="24" viewBox="0 0 24 24" fill="none" xmlns="http://www.w3.org/2000/svg">
<rect width="24" height="24" fill="#A6A6A6"/>
<path d="M-462 -1160C-462 -1161.1 -461.105 -1162 -460 -1162H1024C1025.1 -1162 1026 -1161.1 1026 -1160V390C1026 391.105 1025.1 392 1024 392H-460C-461.105 392 -462 391.105 -462 390V-1160Z" fill="white"/>
<path d="M-460 -1161H1024V-1163H-460V-1161ZM1025 -1160V390H1027V-1160H1025ZM1024 391H-460V393H1024V391ZM-461 390V-1160H-463V390H-461ZM-460 391C-460.552 391 -461 390.552 -461 390H-463C-463 391.657 -461.657 393 -460 393V391ZM1025 390C1025 390.552 1024.55 391 1024 391V393C1025.66 393 1027 391.657 1027 390H1025ZM1024 -1161C1024.55 -1161 1025 -1160.55 1025 -1160H1027C1027 -1161.66 1025.66 -1163 1024 -1163V-1161ZM-460 -1163C-461.657 -1163 -463 -1161.66 -463 -1160H-461C-461 -1160.55 -460.552 -1161 -460 -1161V-1163Z" fill="black" fill-opacity="0.1"/>
<path d="M22 12C22 14.2091 20.2091 16 18 16V16C15.7909 16 14 14.2091 14 12V12C14 9.79086 15.7909 8 18 8V8C20.2091 8 22 9.79086 22 12V12Z" stroke="#1A1A1A" stroke-width="1.5" stroke-linejoin="round"/>
<path d="M4 12H10" stroke="#1A1A1A" stroke-width="1.5" stroke-linecap="round"/>
<path d="M2 16L7 4L12 16" stroke="#1A1A1A" stroke-width="1.5" stroke-linecap="round" stroke-linejoin="round"/>
<path d="M22 8V16" stroke="#1A1A1A" stroke-width="1.5" stroke-linecap="round"/>
</svg>
