<svg width="24" height="24" viewBox="0 0 24 24" fill="none" xmlns="http://www.w3.org/2000/svg">
<rect width="24" height="24" fill="#A6A6A6"/>
<path d="M-1154 -1160C-1154 -1161.1 -1153.1 -1162 -1152 -1162H332C333.105 -1162 334 -1161.1 334 -1160V390C334 391.105 333.105 392 332 392H-1152C-1153.1 392 -1154 391.105 -1154 390V-1160Z" fill="white"/>
<path d="M-1152 -1161H332V-1163H-1152V-1161ZM333 -1160V390H335V-1160H333ZM332 391H-1152V393H332V391ZM-1153 390V-1160H-1155V390H-1153ZM-1152 391C-1152.55 391 -1153 390.552 -1153 390H-1155C-1155 391.657 -1153.66 393 -1152 393V391ZM333 390C333 390.552 332.552 391 332 391V393C333.657 393 335 391.657 335 390H333ZM332 -1161C332.552 -1161 333 -1160.55 333 -1160H335C335 -1161.66 333.657 -1163 332 -1163V-1161ZM-1152 -1163C-1153.66 -1163 -1155 -1161.66 -1155 -1160H-1153C-1153 -1160.55 -1152.55 -1161 -1152 -1161V-1163Z" fill="black" fill-opacity="0.1"/>
<path fill-rule="evenodd" clip-rule="evenodd" d="M7.0002 3.25C7.30297 3.25 7.57605 3.43205 7.6925 3.71154L12.6925 15.7115C12.8518 16.0939 12.671 16.533 12.2887 16.6923C11.9063 16.8516 11.4672 16.6708 11.3079 16.2885L9.83353 12.75H4.16686L2.6925 16.2885C2.53319 16.6708 2.09409 16.8516 1.71173 16.6923C1.32938 16.533 1.14858 16.0939 1.30789 15.7115L6.30789 3.71154C6.42434 3.43205 6.69742 3.25 7.0002 3.25ZM7.0002 5.95L9.20853 11.25H4.79186L7.0002 5.95ZM22.7502 12V16C22.7502 16.4142 22.4144 16.75 22.0002 16.75C21.586 16.75 21.2502 16.4142 21.2502 16V15.4641C20.4005 16.2616 19.2574 16.75 18.0002 16.75C15.3768 16.75 13.2502 14.6234 13.2502 12C13.2502 9.37665 15.3768 7.25 18.0002 7.25C19.2574 7.25 20.4005 7.73843 21.2502 8.53588V8C21.2502 7.58579 21.586 7.25 22.0002 7.25C22.4144 7.25 22.7502 7.58579 22.7502 8V12ZM21.2502 12C21.2502 13.7949 19.7951 15.25 18.0002 15.25C16.2053 15.25 14.7502 13.7949 14.7502 12C14.7502 10.2051 16.2053 8.75 18.0002 8.75C19.7951 8.75 21.2502 10.2051 21.2502 12Z" fill="#1A1A1A"/>
</svg>
