<svg width="24" height="24" viewBox="0 0 24 24" fill="none" xmlns="http://www.w3.org/2000/svg">
<rect width="24" height="24" fill="#A6A6A6"/>
<path d="M-636 -805C-636 -806.105 -635.105 -807 -634 -807H850C851.105 -807 852 -806.105 852 -805V745C852 746.105 851.105 747 850 747H-634C-635.105 747 -636 746.105 -636 745V-805Z" fill="white"/>
<path d="M-634 -806H850V-808H-634V-806ZM851 -805V745H853V-805H851ZM850 746H-634V748H850V746ZM-635 745V-805H-637V745H-635ZM-634 746C-634.552 746 -635 745.552 -635 745H-637C-637 746.657 -635.657 748 -634 748V746ZM851 745C851 745.552 850.552 746 850 746V748C851.657 748 853 746.657 853 745H851ZM850 -806C850.552 -806 851 -805.552 851 -805H853C853 -806.657 851.657 -808 850 -808V-806ZM-634 -808C-635.657 -808 -637 -806.657 -637 -805H-635C-635 -805.552 -634.552 -806 -634 -806V-808Z" fill="black" fill-opacity="0.1"/>
<path d="M16 16C16 12 12 10 8 10M8 10L10 13M8 10L11 8M6 22H18C20.2091 22 22 20.2091 22 18V6C22 3.79086 20.2091 2 18 2H6C3.79086 2 2 3.79086 2 6V18C2 20.2091 3.79086 22 6 22Z" stroke="#1A1A1A" stroke-width="1.5" stroke-linecap="round" stroke-linejoin="round"/>
</svg>
