<svg width="16" height="16" viewBox="0 0 25 24" fill="none" xmlns="http://www.w3.org/2000/svg">
<g id="Icon_Component">
<path id="Vector" d="M16.9444 2H18.5C20.7091 2 22.5 3.79086 22.5 6V7.55556M8.05556 2H6.5C4.29086 2 2.5 3.79086 2.5 6V7.55556M22.5 16.4444V18C22.5 20.2091 20.7091 22 18.5 22H16.9444M8.05556 22H6.5C4.29086 22 2.5 20.2091 2.5 18V16.4444M17.5 12C17.5 14.7614 15.2614 17 12.5 17C9.73858 17 7.5 14.7614 7.5 12C7.5 9.23858 9.73858 7 12.5 7C15.2614 7 17.5 9.23858 17.5 12Z" stroke="current" stroke-width="1.5" stroke-linecap="round"/>
</g>
</svg>
