<svg width="25" height="24" viewBox="0 0 25 24" fill="none" xmlns="http://www.w3.org/2000/svg">
<g id="Group">
<path id="Vector"  fill="current" fill-rule="evenodd" clip-rule="evenodd" d="M11.753 11.79L11.979 11.84L15.695 12.768C16.866 13.061 17.455 14.296 17.085 15.408L17.405 15.188L18.051 14.726C18.376 14.496 18.708 14.278 19.053 14.106C20.589 13.338 22.387 14.397 22.495 16.077L22.5 16.237V16.292C22.5 16.989 22.2 17.649 21.68 18.106L21.533 18.226L18.463 20.528C18.164 20.752 17.827 20.918 17.469 21.018L17.251 21.07L14.041 21.712C13.0441 21.9111 12.0101 21.8016 11.077 21.398L10.825 21.281L8.475 20.106C8.37131 20.0537 8.2593 20.0199 8.144 20.006L8.028 20H7.232C7.07081 20.2793 6.8445 20.5154 6.57235 20.6883C6.30019 20.8612 5.99028 20.9657 5.669 20.993L5.5 21H4.5C3.99542 21.0002 3.50943 20.8096 3.13945 20.4665C2.76947 20.1234 2.54284 19.6532 2.505 19.15L2.5 19V15C2.50009 14.4956 2.69077 14.0099 3.03384 13.6401C3.3769 13.2703 3.84702 13.0438 4.35 13.006L4.5 13H5.5C5.984 13 6.428 13.172 6.774 13.459L6.899 13.571L8.889 12.328C9.67456 11.8369 10.6063 11.6336 11.525 11.753L11.753 11.789V11.79ZM9.949 14.024L7.5 15.554V18H8.028C8.49388 18 8.95335 18.1086 9.37 18.317L11.72 19.492C12.3168 19.7902 12.9959 19.881 13.65 19.75L16.859 19.108C17.0054 19.079 17.1435 19.0175 17.263 18.928L20.333 16.625C20.461 16.529 20.5 16.388 20.5 16.236C20.5 15.967 20.231 15.787 19.987 15.877L17.559 17.497C17.0658 17.8254 16.4865 18.0004 15.894 18H12.5V16H14.059C14.2688 15.9998 14.4732 15.9337 14.6434 15.811C14.8135 15.6882 14.9407 15.515 15.007 15.316L15.21 14.708L11.494 13.78C11.2333 13.7148 10.9621 13.7028 10.6967 13.7447C10.4312 13.7866 10.1769 13.8816 9.949 14.024ZM5.5 15H4.5V19H5.5V15ZM16.5 3.47C17.53 2.826 18.712 2.877 19.666 3.433C20.778 4.081 21.532 5.375 21.499 6.855C21.458 8.69 20.089 10.199 18.061 11.455L17.663 11.694C17.305 11.906 16.923 12.112 16.5 12.112C16.077 12.112 15.695 11.906 15.337 11.694L14.939 11.454C12.91 10.198 11.542 8.69 11.5 6.854C11.467 5.374 12.221 4.08 13.333 3.432C14.287 2.876 15.468 2.825 16.499 3.469L16.5 3.47ZM18.659 5.161C18.28 4.941 17.829 4.915 17.381 5.297L17.175 5.487C16.9831 5.63968 16.7452 5.72281 16.5 5.72281C16.2548 5.72281 16.0169 5.63968 15.825 5.487L15.619 5.297C15.17 4.915 14.719 4.94 14.341 5.161C13.88 5.43 13.483 6.031 13.501 6.811C13.518 7.589 14.119 8.591 15.969 9.74L16.207 9.884L16.5 10.055L16.793 9.885C18.83 8.673 19.481 7.62 19.5 6.808C19.518 6.029 19.121 5.428 18.66 5.159L18.659 5.161Z"/>
</g>
</svg>
