<svg width="25" height="24" viewBox="0 0 25 24" fill="none" xmlns="http://www.w3.org/2000/svg">
<g id="Icon_Component">
<path id="&#244;&#128;&#140;&#178;" d="M8.08076 22C7.76618 22 7.52117 21.8929 7.34574 21.6786C7.17635 21.4704 7.09165 21.1888 7.09165 20.8337V18.4461H6.65608C5.75469 18.4461 4.99546 18.2839 4.3784 17.9594C3.76134 17.6288 3.2925 17.1513 2.97187 16.5268C2.65729 15.9024 2.5 15.1402 2.5 14.2402V7.2059C2.5 6.30594 2.65729 5.54374 2.97187 4.91928C3.2925 4.29483 3.76134 3.82036 4.3784 3.49589C4.99546 3.1653 5.75469 3 6.65608 3H18.3439C19.2453 3 20.0045 3.1653 20.6216 3.49589C21.2387 3.82036 21.7045 4.29483 22.0191 4.91928C22.3397 5.54374 22.5 6.30594 22.5 7.2059V14.2402C22.5 15.1402 22.3397 15.9024 22.0191 16.5268C21.7045 17.1513 21.2387 17.6288 20.6216 17.9594C20.0045 18.2839 19.2453 18.4461 18.3439 18.4461H12.5181L9.38748 21.2653C9.11524 21.5102 8.88536 21.6939 8.69782 21.8163C8.51028 21.9388 8.3046 22 8.08076 22ZM8.45281 20.3195L11.3566 17.3992C11.526 17.2217 11.6894 17.1054 11.8466 17.0503C12.0039 16.9952 12.2096 16.9676 12.4637 16.9676H18.3439C19.2574 16.9676 19.935 16.738 20.3766 16.2789C20.8182 15.8136 21.039 15.131 21.039 14.231V7.2059C21.039 6.31207 20.8182 5.63557 20.3766 5.17641C19.935 4.71113 19.2574 4.47849 18.3439 4.47849H6.65608C5.73654 4.47849 5.05596 4.71113 4.61434 5.17641C4.17877 5.63557 3.96098 6.31207 3.96098 7.2059V14.231C3.96098 15.131 4.17877 15.8136 4.61434 16.2789C5.05596 16.738 5.73654 16.9676 6.65608 16.9676H7.77223C8.02027 16.9676 8.1957 17.0197 8.29855 17.1237C8.40139 17.2278 8.45281 17.4053 8.45281 17.6564V20.3195ZM7.82668 8.1885C7.67544 8.1885 7.5484 8.13646 7.44555 8.03238C7.34876 7.92831 7.30036 7.8028 7.30036 7.65587C7.30036 7.50894 7.34876 7.3865 7.44555 7.28855C7.5484 7.18447 7.67544 7.13243 7.82668 7.13243H17.0554C17.2066 7.13243 17.3306 7.18447 17.4274 7.28855C17.5302 7.3865 17.5817 7.50894 17.5817 7.65587C17.5817 7.8028 17.5302 7.92831 17.4274 8.03238C17.3306 8.13646 17.2066 8.1885 17.0554 8.1885H7.82668ZM7.82668 11.173C7.67544 11.173 7.5484 11.1241 7.44555 11.0261C7.34876 10.922 7.30036 10.7935 7.30036 10.6404C7.30036 10.4996 7.34876 10.3772 7.44555 10.2731C7.5484 10.1629 7.67544 10.1078 7.82668 10.1078H17.0554C17.2066 10.1078 17.3306 10.1629 17.4274 10.2731C17.5302 10.3772 17.5817 10.4996 17.5817 10.6404C17.5817 10.7935 17.5302 10.922 17.4274 11.0261C17.3306 11.1241 17.2066 11.173 17.0554 11.173H7.82668ZM7.82668 14.1667C7.67544 14.1667 7.5484 14.1178 7.44555 14.0198C7.34876 13.9157 7.30036 13.7902 7.30036 13.6433C7.30036 13.4903 7.34876 13.3617 7.44555 13.2576C7.5484 13.1535 7.67544 13.1015 7.82668 13.1015H13.8249C13.9701 13.1015 14.0941 13.1535 14.1969 13.2576C14.2998 13.3617 14.3512 13.4903 14.3512 13.6433C14.3512 13.7902 14.2998 13.9157 14.1969 14.0198C14.0941 14.1178 13.9701 14.1667 13.8249 14.1667H7.82668Z" fill="current"/>
</g>
</svg>
