<svg width="25" height="24" viewBox="0 0 25 24" fill="none" xmlns="http://www.w3.org/2000/svg">
<g id="Icon_Component">
<path id="Vector" d="M8.5 16.5H7.75C7.75 16.7625 7.88724 17.0059 8.11184 17.1417C8.33645 17.2776 8.61574 17.2861 8.84822 17.1643L8.5 16.5ZM1.75 22C1.75 22.4142 2.08579 22.75 2.5 22.75C2.91421 22.75 3.25 22.4142 3.25 22H1.75ZM11.7428 14.8L12.091 15.4643L12.1189 15.4497L12.1455 15.4328L11.7428 14.8ZM13.2913 17.2554L13.6435 17.9176L13.6666 17.9053L13.6888 17.8914L13.2913 17.2554ZM9.26426 19.3973L8.91207 18.7352L8.88896 18.7475L8.86677 18.7613L9.26426 19.3973ZM6.46778 18.6936L7.11896 18.3215L6.46778 18.6936ZM6.15118 16.6279C5.94567 16.2683 5.48753 16.1433 5.1279 16.3488C4.76826 16.5543 4.64331 17.0125 4.84882 17.3721L6.15118 16.6279ZM13.7667 15.2778L14.4098 14.8919L13.7667 15.2778ZM9.25 20C9.25 19.5858 8.91421 19.25 8.5 19.25C8.08579 19.25 7.75 19.5858 7.75 20H9.25ZM7.75 22C7.75 22.4142 8.08579 22.75 8.5 22.75C8.91421 22.75 9.25 22.4142 9.25 22H7.75ZM13.3673 14.0973L12.9646 14.7301L14.2301 15.5354L14.6327 14.9027L13.3673 14.0973ZM18.1327 9.40266C18.3551 9.0532 18.2521 8.58963 17.9027 8.36725C17.5532 8.14487 17.0896 8.24789 16.8673 8.59734L18.1327 9.40266ZM5.75 4.5C5.75 4.91421 6.08579 5.25 6.5 5.25C6.91421 5.25 7.25 4.91421 7.25 4.5H5.75ZM19.5 11.25C19.0858 11.25 18.75 11.5858 18.75 12C18.75 12.4142 19.0858 12.75 19.5 12.75V11.25ZM10.5 5.25C10.0858 5.25 9.75 5.58579 9.75 6C9.75 6.41421 10.0858 6.75 10.5 6.75V5.25ZM18.5 6.75C18.9142 6.75 19.25 6.41421 19.25 6C19.25 5.58579 18.9142 5.25 18.5 5.25V6.75ZM10.5 8.25C10.0858 8.25 9.75 8.58579 9.75 9C9.75 9.41421 10.0858 9.75 10.5 9.75V8.25ZM14.5 9.75C14.9142 9.75 15.25 9.41421 15.25 9C15.25 8.58579 14.9142 8.25 14.5 8.25V9.75ZM6.75 9C6.75 9.69036 6.19036 10.25 5.5 10.25V11.75C7.01878 11.75 8.25 10.5188 8.25 9H6.75ZM5.5 10.25C4.80964 10.25 4.25 9.69036 4.25 9H2.75C2.75 10.5188 3.98122 11.75 5.5 11.75V10.25ZM4.25 9C4.25 8.30964 4.80964 7.75 5.5 7.75V6.25C3.98122 6.25 2.75 7.48122 2.75 9H4.25ZM5.5 7.75C6.19036 7.75 6.75 8.30964 6.75 9H8.25C8.25 7.48122 7.01878 6.25 5.5 6.25V7.75ZM9.25 16.5V16H7.75V16.5H9.25ZM1.75 16V22H3.25V16H1.75ZM8.84822 17.1643L12.091 15.4643L11.3946 14.1358L8.15178 15.8357L8.84822 17.1643ZM12.9391 16.5933L8.91207 18.7352L9.61646 20.0595L13.6435 17.9176L12.9391 16.5933ZM7.11896 18.3215L6.15118 16.6279L4.84882 17.3721L5.8166 19.0657L7.11896 18.3215ZM12.1455 15.4328C12.4784 15.2209 12.9205 15.3253 13.1236 15.6637L14.4098 14.8919C13.7726 13.8299 12.385 13.5024 11.3401 14.1673L12.1455 15.4328ZM8.86677 18.7613C8.26495 19.1375 7.47107 18.9377 7.11896 18.3215L5.8166 19.0657C6.59123 20.4213 8.33776 20.8608 9.66176 20.0333L8.86677 18.7613ZM3.25 16C3.25 14.7574 4.25736 13.75 5.5 13.75V12.25C3.42893 12.25 1.75 13.9289 1.75 16H3.25ZM13.1236 15.6637C13.3203 15.9916 13.2181 16.4167 12.8938 16.6194L13.6888 17.8914C14.7066 17.2553 15.0273 15.9211 14.4098 14.8919L13.1236 15.6637ZM9.25 16C9.25 13.9289 7.57107 12.25 5.5 12.25V13.75C6.74264 13.75 7.75 14.7574 7.75 16H9.25ZM7.75 20V22H9.25V20H7.75ZM14.6327 14.9027L18.1327 9.40266L16.8673 8.59734L13.3673 14.0973L14.6327 14.9027ZM7.25 4.5V4H5.75V4.5H7.25ZM8.5 2.75H20.5V1.25H8.5V2.75ZM21.75 4V10H23.25V4H21.75ZM20.5 11.25H19.5V12.75H20.5V11.25ZM21.75 10C21.75 10.6904 21.1904 11.25 20.5 11.25V12.75C22.0188 12.75 23.25 11.5188 23.25 10H21.75ZM20.5 2.75C21.1904 2.75 21.75 3.30964 21.75 4H23.25C23.25 2.48122 22.0188 1.25 20.5 1.25V2.75ZM7.25 4C7.25 3.30964 7.80964 2.75 8.5 2.75V1.25C6.98122 1.25 5.75 2.48122 5.75 4H7.25ZM10.5 6.75H18.5V5.25H10.5V6.75ZM10.5 9.75H14.5V8.25H10.5V9.75Z" fill="current"/>
</g>
</svg>
