<svg width="current" height="current" viewBox="0 0 21 20" fill="none" xmlns="http://www.w3.org/2000/svg">
<g id="Frame 26085680">
<path id="&#244;&#128;&#137;&#158;" fill="current" d="M4.17953 20C3.80861 20 3.51929 19.9055 3.31157 19.7165C3.10386 19.5276 3 19.2618 3 18.9193V3.54219C3 2.69775 3.26335 2.06294 3.79006 1.63776C4.31677 1.21259 5.10312 1 6.14911 1H14.8509C15.8969 1 16.6832 1.21259 17.2099 1.63776C17.7366 2.06294 18 2.69775 18 3.54219V18.9193C18 19.2618 17.8961 19.5276 17.6884 19.7165C17.4807 19.9055 17.1914 20 16.8205 20C16.546 20 16.2901 19.9262 16.0527 19.7786C15.8227 19.6309 15.4555 19.3652 14.951 18.9814L10.6001 15.5711C10.5334 15.512 10.4666 15.512 10.3999 15.5711L6.04896 18.9814C5.54451 19.3711 5.17359 19.6368 4.9362 19.7786C4.69881 19.9262 4.44659 20 4.17953 20ZM5.09199 17.6084L9.91024 13.8881C10.0883 13.7523 10.2849 13.6844 10.5 13.6844C10.7151 13.6844 10.9117 13.7523 11.0898 13.8881L15.908 17.6084C15.9896 17.6674 16.0638 17.6881 16.1306 17.6704C16.2047 17.6586 16.2418 17.6084 16.2418 17.5198V3.55991C16.2418 3.17607 16.1157 2.88671 15.8635 2.69184C15.6187 2.49697 15.2552 2.39953 14.773 2.39953H6.23813C5.74852 2.39953 5.3776 2.49697 5.12537 2.69184C4.88056 2.88671 4.75816 3.17607 4.75816 3.55991V17.5198C4.75816 17.6084 4.79154 17.6586 4.85831 17.6704C4.93249 17.6881 5.01039 17.6674 5.09199 17.6084Z" />
</g>
</svg>
