<svg width="24" height="24" viewBox="0 0 24 24" fill="none" xmlns="http://www.w3.org/2000/svg">
<rect width="24" height="24" fill="#A6A6A6"/>
<path d="M-462 -325C-462 -326.105 -461.105 -327 -460 -327H1024C1025.1 -327 1026 -326.105 1026 -325V1225C1026 1226.1 1025.1 1227 1024 1227H-460C-461.105 1227 -462 1226.1 -462 1225V-325Z" fill="white"/>
<path d="M-460 -326H1024V-328H-460V-326ZM1025 -325V1225H1027V-325H1025ZM1024 1226H-460V1228H1024V1226ZM-461 1225V-325H-463V1225H-461ZM-460 1226C-460.552 1226 -461 1225.55 -461 1225H-463C-463 1226.66 -461.657 1228 -460 1228V1226ZM1025 1225C1025 1225.55 1024.55 1226 1024 1226V1228C1025.66 1228 1027 1226.66 1027 1225H1025ZM1024 -326C1024.55 -326 1025 -325.552 1025 -325H1027C1027 -326.657 1025.66 -328 1024 -328V-326ZM-460 -328C-461.657 -328 -463 -326.657 -463 -325H-461C-461 -325.552 -460.552 -326 -460 -326V-328Z" fill="black" fill-opacity="0.1"/>
<path d="M12 8V16M16 12H8M12 22C17.5228 22 22 17.5228 22 12C22 6.47715 17.5228 2 12 2C6.47715 2 2 6.47715 2 12C2 17.5228 6.47715 22 12 22Z" stroke="#1A1A1A" stroke-width="1.5" stroke-linecap="round" stroke-linejoin="round"/>
</svg>
