<svg width="24" height="24" viewBox="0 0 24 24" fill="none" xmlns="http://www.w3.org/2000/svg">
<rect width="24" height="24" fill="#A6A6A6"/>
<path d="M-1154 -325C-1154 -326.105 -1153.1 -327 -1152 -327H332C333.105 -327 334 -326.105 334 -325V1225C334 1226.1 333.105 1227 332 1227H-1152C-1153.1 1227 -1154 1226.1 -1154 1225V-325Z" fill="white"/>
<path d="M-1152 -326H332V-328H-1152V-326ZM333 -325V1225H335V-325H333ZM332 1226H-1152V1228H332V1226ZM-1153 1225V-325H-1155V1225H-1153ZM-1152 1226C-1152.55 1226 -1153 1225.55 -1153 1225H-1155C-1155 1226.66 -1153.66 1228 -1152 1228V1226ZM333 1225C333 1225.55 332.552 1226 332 1226V1228C333.657 1228 335 1226.66 335 1225H333ZM332 -326C332.552 -326 333 -325.552 333 -325H335C335 -326.657 333.657 -328 332 -328V-326ZM-1152 -328C-1153.66 -328 -1155 -326.657 -1155 -325H-1153C-1153 -325.552 -1152.55 -326 -1152 -326V-328Z" fill="black" fill-opacity="0.1"/>
<path fill-rule="evenodd" clip-rule="evenodd" d="M22 12C22 17.5228 17.5228 22 12 22C6.47715 22 2 17.5228 2 12C2 6.47715 6.47715 2 12 2C17.5228 2 22 6.47715 22 12ZM12 7.25C12.4142 7.25 12.75 7.58579 12.75 8V11.25H16C16.4142 11.25 16.75 11.5858 16.75 12C16.75 12.4142 16.4142 12.75 16 12.75H12.75V16C12.75 16.4142 12.4142 16.75 12 16.75C11.5858 16.75 11.25 16.4142 11.25 16V12.75H8C7.58579 12.75 7.25 12.4142 7.25 12C7.25 11.5858 7.58579 11.25 8 11.25H11.25V8C11.25 7.58579 11.5858 7.25 12 7.25Z" fill="#1A1A1A"/>
</svg>
