<svg width="24" height="24" viewBox="0 0 24 24" fill="none" xmlns="http://www.w3.org/2000/svg">
<rect width="24" height="24" fill="#A6A6A6"/>
<path d="M-404 -1208C-404 -1209.1 -403.105 -1210 -402 -1210H1082C1083.1 -1210 1084 -1209.1 1084 -1208V342C1084 343.105 1083.1 344 1082 344H-402C-403.105 344 -404 343.105 -404 342V-1208Z" fill="white"/>
<path d="M-402 -1209H1082V-1211H-402V-1209ZM1083 -1208V342H1085V-1208H1083ZM1082 343H-402V345H1082V343ZM-403 342V-1208H-405V342H-403ZM-402 343C-402.552 343 -403 342.552 -403 342H-405C-405 343.657 -403.657 345 -402 345V343ZM1083 342C1083 342.552 1082.55 343 1082 343V345C1083.66 345 1085 343.657 1085 342H1083ZM1082 -1209C1082.55 -1209 1083 -1208.55 1083 -1208H1085C1085 -1209.66 1083.66 -1211 1082 -1211V-1209ZM-402 -1211C-403.657 -1211 -405 -1209.66 -405 -1208H-403C-403 -1208.55 -402.552 -1209 -402 -1209V-1211Z" fill="black" fill-opacity="0.1"/>
<path d="M4 6C4 3.79086 5.79086 2 8 2H15.3431C16.404 2 17.4214 2.42143 18.1716 3.17157L20.8284 5.82843C21.5786 6.57857 22 7.59599 22 8.65685V18C22 20.2091 20.2091 22 18 22H8C5.79086 22 4 20.2091 4 18V6Z" stroke="#1A1A1A" stroke-width="1.5" stroke-linejoin="round"/>
<path d="M9 7L17 7" stroke="#1A1A1A" stroke-width="1.5" stroke-linecap="round"/>
<path d="M9 12H17" stroke="#1A1A1A" stroke-width="1.5" stroke-linecap="round"/>
<path d="M9 17H13" stroke="#1A1A1A" stroke-width="1.5" stroke-linecap="round"/>
</svg>
