<svg width="24" height="24" viewBox="0 0 24 24" fill="none" xmlns="http://www.w3.org/2000/svg">
<rect width="24" height="24" fill="#A6A6A6"/>
<path d="M-114 -1352C-114 -1353.1 -113.105 -1354 -112 -1354H1372C1373.1 -1354 1374 -1353.1 1374 -1352V198C1374 199.105 1373.1 200 1372 200H-112C-113.105 200 -114 199.105 -114 198V-1352Z" fill="white"/>
<path d="M-112 -1353H1372V-1355H-112V-1353ZM1373 -1352V198H1375V-1352H1373ZM1372 199H-112V201H1372V199ZM-113 198V-1352H-115V198H-113ZM-112 199C-112.552 199 -113 198.552 -113 198H-115C-115 199.657 -113.657 201 -112 201V199ZM1373 198C1373 198.552 1372.55 199 1372 199V201C1373.66 201 1375 199.657 1375 198H1373ZM1372 -1353C1372.55 -1353 1373 -1352.55 1373 -1352H1375C1375 -1353.66 1373.66 -1355 1372 -1355V-1353ZM-112 -1355C-113.657 -1355 -115 -1353.66 -115 -1352H-113C-113 -1352.55 -112.552 -1353 -112 -1353V-1355Z" fill="black" fill-opacity="0.1"/>
<rect x="2" y="2" width="20" height="20" rx="4" stroke="#1A1A1A" stroke-width="1.5"/>
<path d="M17 19L19 17" stroke="#1A1A1A" stroke-width="1.5" stroke-linecap="round"/>
<path d="M19 13L13 19" stroke="#1A1A1A" stroke-width="1.5" stroke-linecap="round"/>
</svg>
