<svg width="24" height="24" viewBox="0 0 24 24" fill="none" xmlns="http://www.w3.org/2000/svg">
<rect width="24" height="24" fill="#A6A6A6"/>
<path d="M-806 -1352C-806 -1353.1 -805.105 -1354 -804 -1354H680C681.105 -1354 682 -1353.1 682 -1352V198C682 199.105 681.105 200 680 200H-804C-805.105 200 -806 199.105 -806 198V-1352Z" fill="white"/>
<path d="M-804 -1353H680V-1355H-804V-1353ZM681 -1352V198H683V-1352H681ZM680 199H-804V201H680V199ZM-805 198V-1352H-807V198H-805ZM-804 199C-804.552 199 -805 198.552 -805 198H-807C-807 199.657 -805.657 201 -804 201V199ZM681 198C681 198.552 680.552 199 680 199V201C681.657 201 683 199.657 683 198H681ZM680 -1353C680.552 -1353 681 -1352.55 681 -1352H683C683 -1353.66 681.657 -1355 680 -1355V-1353ZM-804 -1355C-805.657 -1355 -807 -1353.66 -807 -1352H-805C-805 -1352.55 -804.552 -1353 -804 -1353V-1355Z" fill="black" fill-opacity="0.1"/>
<path fill-rule="evenodd" clip-rule="evenodd" d="M2 6C2 3.79086 3.79086 2 6 2H18C20.2091 2 22 3.79086 22 6V18C22 20.2091 20.2091 22 18 22H6C3.79086 22 2 20.2091 2 18V6ZM19.5303 16.4697C19.8232 16.7626 19.8232 17.2374 19.5303 17.5303L17.5303 19.5303C17.2374 19.8232 16.7626 19.8232 16.4697 19.5303C16.1768 19.2374 16.1768 18.7626 16.4697 18.4697L18.4697 16.4697C18.7626 16.1768 19.2374 16.1768 19.5303 16.4697ZM19.5303 13.5303C19.8232 13.2374 19.8232 12.7626 19.5303 12.4697C19.2374 12.1768 18.7626 12.1768 18.4697 12.4697L12.4697 18.4697C12.1768 18.7626 12.1768 19.2374 12.4697 19.5303C12.7626 19.8232 13.2374 19.8232 13.5303 19.5303L19.5303 13.5303Z" fill="#1A1A1A"/>
</svg>
