<svg width="24" height="24" viewBox="0 0 24 24" fill="none" xmlns="http://www.w3.org/2000/svg">
<rect width="24" height="24" fill="#A6A6A6"/>
<path d="M-288 -133C-288 -134.105 -287.105 -135 -286 -135H1198C1199.1 -135 1200 -134.105 1200 -133V1417C1200 1418.1 1199.1 1419 1198 1419H-286C-287.105 1419 -288 1418.1 -288 1417V-133Z" fill="white"/>
<path d="M-286 -134H1198V-136H-286V-134ZM1199 -133V1417H1201V-133H1199ZM1198 1418H-286V1420H1198V1418ZM-287 1417V-133H-289V1417H-287ZM-286 1418C-286.552 1418 -287 1417.55 -287 1417H-289C-289 1418.66 -287.657 1420 -286 1420V1418ZM1199 1417C1199 1417.55 1198.55 1418 1198 1418V1420C1199.66 1420 1201 1418.66 1201 1417H1199ZM1198 -134C1198.55 -134 1199 -133.552 1199 -133H1201C1201 -134.657 1199.66 -136 1198 -136V-134ZM-286 -136C-287.657 -136 -289 -134.657 -289 -133H-287C-287 -133.552 -286.552 -134 -286 -134V-136Z" fill="black" fill-opacity="0.1"/>
<path d="M7.81965 22H16.1804C18.4891 22 20.3607 20.214 20.3607 18.0108V13.133C20.3607 12.4248 20.6555 11.7456 21.1803 11.2448C22.3962 10.0845 22.2381 8.16205 20.8475 7.19691L14.4588 2.763C12.9929 1.74567 11.0071 1.74567 9.54124 2.763L3.15251 7.19692C1.76187 8.16205 1.60381 10.0845 2.81969 11.2448C3.34447 11.7456 3.6393 12.4248 3.6393 13.133V18.0108C3.6393 20.214 5.5109 22 7.81965 22Z" stroke="#1A1A1A" stroke-width="1.5"/>
<path d="M14 16C14 17.1046 13.1046 18 12 18C10.8954 18 10 17.1046 10 16C10 14.8954 10.8954 14 12 14C13.1046 14 14 14.8954 14 16Z" stroke="#1A1A1A" stroke-width="1.5"/>
</svg>
