<svg width="24" height="24" viewBox="0 0 24 24" fill="none" xmlns="http://www.w3.org/2000/svg">
<rect width="24" height="24" fill="#A6A6A6"/>
<path d="M-980 -133C-980 -134.105 -979.105 -135 -978 -135H506C507.105 -135 508 -134.105 508 -133V1417C508 1418.1 507.105 1419 506 1419H-978C-979.105 1419 -980 1418.1 -980 1417V-133Z" fill="white"/>
<path d="M-978 -134H506V-136H-978V-134ZM507 -133V1417H509V-133H507ZM506 1418H-978V1420H506V1418ZM-979 1417V-133H-981V1417H-979ZM-978 1418C-978.552 1418 -979 1417.55 -979 1417H-981C-981 1418.66 -979.657 1420 -978 1420V1418ZM507 1417C507 1417.55 506.552 1418 506 1418V1420C507.657 1420 509 1418.66 509 1417H507ZM506 -134C506.552 -134 507 -133.552 507 -133H509C509 -134.657 507.657 -136 506 -136V-134ZM-978 -136C-979.657 -136 -981 -134.657 -981 -133H-979C-979 -133.552 -978.552 -134 -978 -134V-136Z" fill="black" fill-opacity="0.1"/>
<path fill-rule="evenodd" clip-rule="evenodd" d="M20.3607 18.0108C20.3607 20.214 18.4891 22 16.1804 22H7.81965C5.5109 22 3.6393 20.214 3.6393 18.0108V13.133C3.6393 12.4248 3.34447 11.7456 2.81969 11.2448C1.60381 10.0845 1.76187 8.16205 3.15251 7.19692L9.54124 2.763C11.0071 1.74567 12.9929 1.74567 14.4588 2.763L20.8475 7.19691C22.2381 8.16205 22.3962 10.0845 21.1803 11.2448C20.6555 11.7456 20.3607 12.4248 20.3607 13.133V18.0108ZM12 18C13.1046 18 14 17.1046 14 16C14 14.8954 13.1046 14 12 14C10.8954 14 10 14.8954 10 16C10 17.1046 10.8954 18 12 18Z" fill="#1A1A1A"/>
</svg>
