<svg width="24" height="24" viewBox="0 0 24 24" fill="none" xmlns="http://www.w3.org/2000/svg">
<rect width="24" height="24" fill="#A6A6A6"/>
<path d="M-346 -661C-346 -662.105 -345.105 -663 -344 -663H1140C1141.1 -663 1142 -662.105 1142 -661V889C1142 890.105 1141.1 891 1140 891H-344C-345.105 891 -346 890.105 -346 889V-661Z" fill="white"/>
<path d="M-344 -662H1140V-664H-344V-662ZM1141 -661V889H1143V-661H1141ZM1140 890H-344V892H1140V890ZM-345 889V-661H-347V889H-345ZM-344 890C-344.552 890 -345 889.552 -345 889H-347C-347 890.657 -345.657 892 -344 892V890ZM1141 889C1141 889.552 1140.55 890 1140 890V892C1141.66 892 1143 890.657 1143 889H1141ZM1140 -662C1140.55 -662 1141 -661.552 1141 -661H1143C1143 -662.657 1141.66 -664 1140 -664V-662ZM-344 -664C-345.657 -664 -347 -662.657 -347 -661H-345C-345 -661.552 -344.552 -662 -344 -662V-664Z" fill="black" fill-opacity="0.1"/>
<path d="M3 5H10M10 5C10 6.10457 10.8954 7 12 7C13.1046 7 14 6.10457 14 5M10 5C10 3.89543 10.8954 3 12 3C13.1046 3 14 3.89543 14 5M3 12H12M19 12H21M19 12C19 13.1046 18.1046 14 17 14C15.8954 14 15 13.1046 15 12C15 10.8954 15.8954 10 17 10C18.1046 10 19 10.8954 19 12ZM14 5H21M12 19H21M3 19H5M5 19C5 20.1046 5.89543 21 7 21C8.10457 21 9 20.1046 9 19C9 17.8954 8.10457 17 7 17C5.89543 17 5 17.8954 5 19Z" stroke="#1A1A1A" stroke-width="1.5" stroke-linecap="round"/>
</svg>
