<svg width="24" height="24" viewBox="0 0 24 24" fill="none" xmlns="http://www.w3.org/2000/svg">
<rect width="24" height="24" fill="#A6A6A6"/>
<path d="M-1038 -661C-1038 -662.105 -1037.1 -663 -1036 -663H448C449.105 -663 450 -662.105 450 -661V889C450 890.105 449.105 891 448 891H-1036C-1037.1 891 -1038 890.105 -1038 889V-661Z" fill="white"/>
<path d="M-1036 -662H448V-664H-1036V-662ZM449 -661V889H451V-661H449ZM448 890H-1036V892H448V890ZM-1037 889V-661H-1039V889H-1037ZM-1036 890C-1036.55 890 -1037 889.552 -1037 889H-1039C-1039 890.657 -1037.66 892 -1036 892V890ZM449 889C449 889.552 448.552 890 448 890V892C449.657 892 451 890.657 451 889H449ZM448 -662C448.552 -662 449 -661.552 449 -661H451C451 -662.657 449.657 -664 448 -664V-662ZM-1036 -664C-1037.66 -664 -1039 -662.657 -1039 -661H-1037C-1037 -661.552 -1036.55 -662 -1036 -662V-664Z" fill="black" fill-opacity="0.1"/>
<path fill-rule="evenodd" clip-rule="evenodd" d="M3 5.75H9.35352C9.67998 6.90425 10.7412 7.75 12 7.75C13.2588 7.75 14.32 6.90425 14.6465 5.75H21C21.4142 5.75 21.75 5.41421 21.75 5C21.75 4.58579 21.4142 4.25 21 4.25H14.6465C14.32 3.09575 13.2588 2.25 12 2.25C10.7412 2.25 9.67998 3.09575 9.35352 4.25H3C2.58579 4.25 2.25 4.58579 2.25 5C2.25 5.41421 2.58579 5.75 3 5.75ZM17 9.25C15.4812 9.25 14.25 10.4812 14.25 12C14.25 13.5188 15.4812 14.75 17 14.75C18.2588 14.75 19.32 13.9043 19.6465 12.75H21C21.4142 12.75 21.75 12.4142 21.75 12C21.75 11.5858 21.4142 11.25 21 11.25H19.6465C19.32 10.0957 18.2588 9.25 17 9.25ZM2.25 12C2.25 11.5858 2.58579 11.25 3 11.25H12C12.4142 11.25 12.75 11.5858 12.75 12C12.75 12.4142 12.4142 12.75 12 12.75H3C2.58579 12.75 2.25 12.4142 2.25 12ZM4.35352 19.75H3C2.58579 19.75 2.25 19.4142 2.25 19C2.25 18.5858 2.58579 18.25 3 18.25H4.35352C4.67998 17.0957 5.74122 16.25 7 16.25C8.51878 16.25 9.75 17.4812 9.75 19C9.75 20.5188 8.51878 21.75 7 21.75C5.74122 21.75 4.67998 20.9043 4.35352 19.75ZM11.25 19C11.25 18.5858 11.5858 18.25 12 18.25H21C21.4142 18.25 21.75 18.5858 21.75 19C21.75 19.4142 21.4142 19.75 21 19.75H12C11.5858 19.75 11.25 19.4142 11.25 19Z" fill="#1A1A1A"/>
</svg>
