<svg width="24" height="24" viewBox="0 0 24 24" fill="none" xmlns="http://www.w3.org/2000/svg">
<rect width="24" height="24" fill="#A6A6A6"/>
<path d="M-230 -805C-230 -806.105 -229.105 -807 -228 -807H1256C1257.1 -807 1258 -806.105 1258 -805V745C1258 746.105 1257.1 747 1256 747H-228C-229.105 747 -230 746.105 -230 745V-805Z" fill="white"/>
<path d="M-228 -806H1256V-808H-228V-806ZM1257 -805V745H1259V-805H1257ZM1256 746H-228V748H1256V746ZM-229 745V-805H-231V745H-229ZM-228 746C-228.552 746 -229 745.552 -229 745H-231C-231 746.657 -229.657 748 -228 748V746ZM1257 745C1257 745.552 1256.55 746 1256 746V748C1257.66 748 1259 746.657 1259 745H1257ZM1256 -806C1256.55 -806 1257 -805.552 1257 -805H1259C1259 -806.657 1257.66 -808 1256 -808V-806ZM-228 -808C-229.657 -808 -231 -806.657 -231 -805H-229C-229 -805.552 -228.552 -806 -228 -806V-808Z" fill="black" fill-opacity="0.1"/>
<path d="M6.3436 14.8284C5.56255 15.6094 5.56255 16.8758 6.3436 17.6568C7.12465 18.4379 8.39098 18.4379 9.17203 17.6568L12.0005 14.8284L14.8289 17.6568C15.6099 18.4379 16.8763 18.4379 17.6573 17.6568C18.4384 16.8758 18.4384 15.6094 17.6573 14.8284L14.8289 12L17.6573 9.17154C18.4384 8.39049 18.4384 7.12416 17.6573 6.34311C16.8763 5.56206 15.6099 5.56206 14.8289 6.34311L12.0005 9.17154L9.17203 6.34311C8.39098 5.56206 7.12465 5.56206 6.3436 6.34311C5.56255 7.12416 5.56255 8.39049 6.3436 9.17154L9.17203 12L6.3436 14.8284Z" stroke="#1A1A1A" stroke-width="1.5" stroke-linejoin="round"/>
</svg>
