<svg width="24" height="24" viewBox="0 0 24 24" fill="none" xmlns="http://www.w3.org/2000/svg">
<rect width="24" height="24" fill="#A6A6A6"/>
<path d="M-922 -805C-922 -806.105 -921.105 -807 -920 -807H564C565.105 -807 566 -806.105 566 -805V745C566 746.105 565.105 747 564 747H-920C-921.105 747 -922 746.105 -922 745V-805Z" fill="white"/>
<path d="M-920 -806H564V-808H-920V-806ZM565 -805V745H567V-805H565ZM564 746H-920V748H564V746ZM-921 745V-805H-923V745H-921ZM-920 746C-920.552 746 -921 745.552 -921 745H-923C-923 746.657 -921.657 748 -920 748V746ZM565 745C565 745.552 564.552 746 564 746V748C565.657 748 567 746.657 567 745H565ZM564 -806C564.552 -806 565 -805.552 565 -805H567C567 -806.657 565.657 -808 564 -808V-806ZM-920 -808C-921.657 -808 -923 -806.657 -923 -805H-921C-921 -805.552 -920.552 -806 -920 -806V-808Z" fill="black" fill-opacity="0.1"/>
<path d="M6.3436 14.8284C5.56255 15.6094 5.56255 16.8758 6.3436 17.6568C7.12465 18.4379 8.39098 18.4379 9.17203 17.6568L12.0005 14.8284L14.8289 17.6568C15.6099 18.4379 16.8763 18.4379 17.6573 17.6568C18.4384 16.8758 18.4384 15.6094 17.6573 14.8284L14.8289 12L17.6573 9.17154C18.4384 8.39049 18.4384 7.12416 17.6573 6.34311C16.8763 5.56206 15.6099 5.56206 14.8289 6.34311L12.0005 9.17154L9.17203 6.34311C8.39098 5.56206 7.12465 5.56206 6.3436 6.34311C5.56255 7.12416 5.56255 8.39049 6.3436 9.17154L9.17203 12L6.3436 14.8284Z" fill="#1A1A1A"/>
</svg>
