<svg width="24" height="24" viewBox="0 0 24 24" fill="none" xmlns="http://www.w3.org/2000/svg">
<rect width="24" height="24" fill="#A6A6A6"/>
<path d="M-288 -229C-288 -230.105 -287.105 -231 -286 -231H1198C1199.1 -231 1200 -230.105 1200 -229V1321C1200 1322.1 1199.1 1323 1198 1323H-286C-287.105 1323 -288 1322.1 -288 1321V-229Z" fill="white"/>
<path d="M-286 -230H1198V-232H-286V-230ZM1199 -229V1321H1201V-229H1199ZM1198 1322H-286V1324H1198V1322ZM-287 1321V-229H-289V1321H-287ZM-286 1322C-286.552 1322 -287 1321.55 -287 1321H-289C-289 1322.66 -287.657 1324 -286 1324V1322ZM1199 1321C1199 1321.55 1198.55 1322 1198 1322V1324C1199.66 1324 1201 1322.66 1201 1321H1199ZM1198 -230C1198.55 -230 1199 -229.552 1199 -229H1201C1201 -230.657 1199.66 -232 1198 -232V-230ZM-286 -232C-287.657 -232 -289 -230.657 -289 -229H-287C-287 -229.552 -286.552 -230 -286 -230V-232Z" fill="black" fill-opacity="0.1"/>
<path d="M21 21L19.5 19.5M17 15H13M8.625 21H7C4.79086 21 3 19.2091 3 17V7C3 4.79086 4.79086 3 7 3H17C19.2091 3 21 4.79086 21 7V8.625M21 15C21 18.3137 18.3137 21 15 21C11.6863 21 9 18.3137 9 15C9 11.6863 11.6863 9 15 9C18.3137 9 21 11.6863 21 15Z" stroke="#1A1A1A" stroke-width="1.5" stroke-linecap="round"/>
</svg>
