<svg width="24" height="24" viewBox="0 0 24 24" fill="none" xmlns="http://www.w3.org/2000/svg">
<rect width="24" height="24" fill="#A6A6A6"/>
<path d="M-980 -229C-980 -230.105 -979.105 -231 -978 -231H506C507.105 -231 508 -230.105 508 -229V1321C508 1322.1 507.105 1323 506 1323H-978C-979.105 1323 -980 1322.1 -980 1321V-229Z" fill="white"/>
<path d="M-978 -230H506V-232H-978V-230ZM507 -229V1321H509V-229H507ZM506 1322H-978V1324H506V1322ZM-979 1321V-229H-981V1321H-979ZM-978 1322C-978.552 1322 -979 1321.55 -979 1321H-981C-981 1322.66 -979.657 1324 -978 1324V1322ZM507 1321C507 1321.55 506.552 1322 506 1322V1324C507.657 1324 509 1322.66 509 1321H507ZM506 -230C506.552 -230 507 -229.552 507 -229H509C509 -230.657 507.657 -232 506 -232V-230ZM-978 -232C-979.657 -232 -981 -230.657 -981 -229H-979C-979 -229.552 -978.552 -230 -978 -230V-232Z" fill="black" fill-opacity="0.1"/>
<path fill-rule="evenodd" clip-rule="evenodd" d="M7 2.25C4.37665 2.25 2.25 4.37665 2.25 7V17C2.25 19.6234 4.37665 21.75 7 21.75H8.625C9.03921 21.75 9.375 21.4142 9.375 21C9.375 20.5858 9.03921 20.25 8.625 20.25H7C5.20507 20.25 3.75 18.7949 3.75 17V7C3.75 5.20507 5.20507 3.75 7 3.75H17C18.7949 3.75 20.25 5.20507 20.25 7V8.625C20.25 9.03921 20.5858 9.375 21 9.375C21.4142 9.375 21.75 9.03921 21.75 8.625V7C21.75 4.37665 19.6234 2.25 17 2.25H7ZM9.75 15C9.75 12.1005 12.1005 9.75 15 9.75C17.8995 9.75 20.25 12.1005 20.25 15C20.25 17.8995 17.8995 20.25 15 20.25C12.1005 20.25 9.75 17.8995 9.75 15ZM15 8.25C11.2721 8.25 8.25 11.2721 8.25 15C8.25 18.7279 11.2721 21.75 15 21.75C16.5938 21.75 18.0585 21.1976 19.2133 20.2739L20.4697 21.5303C20.7626 21.8232 21.2374 21.8232 21.5303 21.5303C21.8232 21.2374 21.8232 20.7626 21.5303 20.4697L20.2739 19.2133C21.1976 18.0585 21.75 16.5938 21.75 15C21.75 11.2721 18.7279 8.25 15 8.25ZM17.75 15C17.75 15.4142 17.4142 15.75 17 15.75H13C12.5858 15.75 12.25 15.4142 12.25 15C12.25 14.5858 12.5858 14.25 13 14.25H17C17.4142 14.25 17.75 14.5858 17.75 15Z" fill="#1A1A1A"/>
</svg>
