<svg width="24" height="24" viewBox="0 0 24 24" fill="none" xmlns="http://www.w3.org/2000/svg">
<rect width="24" height="24" fill="#A6A6A6"/>
<path d="M-887 -38C-887 -39.1046 -886.105 -40 -885 -40H599C600.105 -40 601 -39.1046 601 -38V1512C601 1513.1 600.105 1514 599 1514H-885C-886.105 1514 -887 1513.1 -887 1512V-38Z" fill="white"/>
<path d="M-885 -39H599V-41H-885V-39ZM600 -38V1512H602V-38H600ZM599 1513H-885V1515H599V1513ZM-886 1512V-38H-888V1512H-886ZM-885 1513C-885.552 1513 -886 1512.55 -886 1512H-888C-888 1513.66 -886.657 1515 -885 1515V1513ZM600 1512C600 1512.55 599.552 1513 599 1513V1515C600.657 1515 602 1513.66 602 1512H600ZM599 -39C599.552 -39 600 -38.5523 600 -38H602C602 -39.6569 600.657 -41 599 -41V-39ZM-885 -41C-886.657 -41 -888 -39.6569 -888 -38H-886C-886 -38.5523 -885.552 -39 -885 -39V-41Z" fill="black" fill-opacity="0.1"/>
<path fill-rule="evenodd" clip-rule="evenodd" d="M6.22281 18H17.7772C19.6056 18 20.6492 16.1609 19.5522 14.8721C19.0666 14.3016 18.7673 13.6249 18.6867 12.9153L18.5227 11.4697C18.3512 11.4896 18.1767 11.4998 17.9999 11.4998C15.5147 11.4998 13.4999 9.48504 13.4999 6.99976C13.4999 6.02889 13.8074 5.12982 14.3303 4.39463C14.3102 4.38755 14.2901 4.38056 14.2699 4.37366V4.26995C14.2699 3.01629 13.2537 2 12 2C10.7463 2 9.73005 3.01629 9.73005 4.26995V4.37366C7.58766 5.10719 6.0016 6.85063 5.76046 8.97519L5.31328 12.9153C5.23274 13.6249 4.93344 14.3016 4.44779 14.8721C3.35076 16.1609 4.39443 18 6.22281 18ZM21 7C21 8.65685 19.6569 10 18 10C16.3431 10 15 8.65685 15 7C15 5.34315 16.3431 4 18 4C19.6569 4 21 5.34315 21 7ZM12 22.0002C13.3565 22.0002 14.5147 21.1995 14.9721 20.0718C14.9912 20.0247 15 19.9742 15 19.9235C15 19.6896 14.8104 19.5 14.5765 19.5H9.42349C9.1896 19.5 9 19.6896 9 19.9235C9 19.9742 9.00883 20.0247 9.0279 20.0718C9.48528 21.1995 10.6435 22.0002 12 22.0002Z" fill="#1A1A1A"/>
</svg>
