<svg width="24" height="24" viewBox="0 0 24 24" fill="none" xmlns="http://www.w3.org/2000/svg">
<rect width="24" height="24" fill="#A6A6A6"/>
<path d="M-462 -517C-462 -518.105 -461.105 -519 -460 -519H1024C1025.1 -519 1026 -518.105 1026 -517V1033C1026 1034.1 1025.1 1035 1024 1035H-460C-461.105 1035 -462 1034.1 -462 1033V-517Z" fill="white"/>
<path d="M-460 -518H1024V-520H-460V-518ZM1025 -517V1033H1027V-517H1025ZM1024 1034H-460V1036H1024V1034ZM-461 1033V-517H-463V1033H-461ZM-460 1034C-460.552 1034 -461 1033.55 -461 1033H-463C-463 1034.66 -461.657 1036 -460 1036V1034ZM1025 1033C1025 1033.55 1024.55 1034 1024 1034V1036C1025.66 1036 1027 1034.66 1027 1033H1025ZM1024 -518C1024.55 -518 1025 -517.552 1025 -517H1027C1027 -518.657 1025.66 -520 1024 -520V-518ZM-460 -520C-461.657 -520 -463 -518.657 -463 -517H-461C-461 -517.552 -460.552 -518 -460 -518V-520Z" fill="black" fill-opacity="0.1"/>
<path d="M8 9H12M8 13H16M8 17H16M15.9995 2V5M7.99951 2V5M7 3.5H17C19.2091 3.5 21 5.29086 21 7.5V18C21 20.2091 19.2091 22 17 22H7C4.79086 22 3 20.2091 3 18V7.5C3 5.29086 4.79086 3.5 7 3.5Z" stroke="#1A1A1A" stroke-width="1.5" stroke-linecap="round" stroke-linejoin="round"/>
</svg>
