<svg width="24" height="24" viewBox="0 0 24 24" fill="none" xmlns="http://www.w3.org/2000/svg">
<rect width="24" height="24" fill="#A6A6A6"/>
<path d="M-230 -1208C-230 -1209.1 -229.105 -1210 -228 -1210H1256C1257.1 -1210 1258 -1209.1 1258 -1208V342C1258 343.105 1257.1 344 1256 344H-228C-229.105 344 -230 343.105 -230 342V-1208Z" fill="white"/>
<path d="M-228 -1209H1256V-1211H-228V-1209ZM1257 -1208V342H1259V-1208H1257ZM1256 343H-228V345H1256V343ZM-229 342V-1208H-231V342H-229ZM-228 343C-228.552 343 -229 342.552 -229 342H-231C-231 343.657 -229.657 345 -228 345V343ZM1257 342C1257 342.552 1256.55 343 1256 343V345C1257.66 345 1259 343.657 1259 342H1257ZM1256 -1209C1256.55 -1209 1257 -1208.55 1257 -1208H1259C1259 -1209.66 1257.66 -1211 1256 -1211V-1209ZM-228 -1211C-229.657 -1211 -231 -1209.66 -231 -1208H-229C-229 -1208.55 -228.552 -1209 -228 -1209V-1211Z" fill="black" fill-opacity="0.1"/>
<path d="M6 12H12" stroke="#1A1A1A" stroke-width="1.5" stroke-linecap="round"/>
<path d="M4 16L9 4L14 16" stroke="#1A1A1A" stroke-width="1.5" stroke-linecap="round" stroke-linejoin="round"/>
<path d="M11 17L13.6077 19.3469C14.0112 19.7101 14.6309 19.685 15.0037 19.2902L20 14" stroke="#1A1A1A" stroke-width="1.5" stroke-linecap="round" stroke-linejoin="round"/>
</svg>
