<svg width="24" height="24" viewBox="0 0 24 24" fill="none" xmlns="http://www.w3.org/2000/svg">
<rect width="24" height="24" fill="#A6A6A6"/>
<path d="M-1096 -1160C-1096 -1161.1 -1095.1 -1162 -1094 -1162H390C391.105 -1162 392 -1161.1 392 -1160V390C392 391.105 391.105 392 390 392H-1094C-1095.1 392 -1096 391.105 -1096 390V-1160Z" fill="white"/>
<path d="M-1094 -1161H390V-1163H-1094V-1161ZM391 -1160V390H393V-1160H391ZM390 391H-1094V393H390V391ZM-1095 390V-1160H-1097V390H-1095ZM-1094 391C-1094.55 391 -1095 390.552 -1095 390H-1097C-1097 391.657 -1095.66 393 -1094 393V391ZM391 390C391 390.552 390.552 391 390 391V393C391.657 393 393 391.657 393 390H391ZM390 -1161C390.552 -1161 391 -1160.55 391 -1160H393C393 -1161.66 391.657 -1163 390 -1163V-1161ZM-1094 -1163C-1095.66 -1163 -1097 -1161.66 -1097 -1160H-1095C-1095 -1160.55 -1094.55 -1161 -1094 -1161V-1163Z" fill="black" fill-opacity="0.1"/>
<path fill-rule="evenodd" clip-rule="evenodd" d="M7.75 4C7.75 3.58579 7.41421 3.25 7 3.25C6.58579 3.25 6.25 3.58579 6.25 4V11C6.25 14.1756 8.82436 16.75 12 16.75C15.1756 16.75 17.75 14.1756 17.75 11V4C17.75 3.58579 17.4142 3.25 17 3.25C16.5858 3.25 16.25 3.58579 16.25 4V11C16.25 13.3472 14.3472 15.25 12 15.25C9.65279 15.25 7.75 13.3472 7.75 11V4ZM5 19.25C4.58579 19.25 4.25 19.5858 4.25 20C4.25 20.4142 4.58579 20.75 5 20.75H19C19.4142 20.75 19.75 20.4142 19.75 20C19.75 19.5858 19.4142 19.25 19 19.25H5Z" fill="#1A1A1A"/>
</svg>
