<svg width="24" height="24" viewBox="0 0 24 24" fill="none" xmlns="http://www.w3.org/2000/svg">
<rect width="24" height="24" fill="#A6A6A6"/>
<path d="M-114 -1072C-114 -1073.1 -113.105 -1074 -112 -1074H1372C1373.1 -1074 1374 -1073.1 1374 -1072V478C1374 479.105 1373.1 480 1372 480H-112C-113.105 480 -114 479.105 -114 478V-1072Z" fill="white"/>
<path d="M-112 -1073H1372V-1075H-112V-1073ZM1373 -1072V478H1375V-1072H1373ZM1372 479H-112V481H1372V479ZM-113 478V-1072H-115V478H-113ZM-112 479C-112.552 479 -113 478.552 -113 478H-115C-115 479.657 -113.657 481 -112 481V479ZM1373 478C1373 478.552 1372.55 479 1372 479V481C1373.66 481 1375 479.657 1375 478H1373ZM1372 -1073C1372.55 -1073 1373 -1072.55 1373 -1072H1375C1375 -1073.66 1373.66 -1075 1372 -1075V-1073ZM-112 -1075C-113.657 -1075 -115 -1073.66 -115 -1072H-113C-113 -1072.55 -112.552 -1073 -112 -1073V-1075Z" fill="black" fill-opacity="0.1"/>
<path d="M7 15C9.94583 13.6802 11.6997 13.6532 15 15" stroke="#1A1A1A" stroke-width="1.5" stroke-linecap="round" stroke-linejoin="round"/>
<circle cx="3" cy="3" r="3" transform="matrix(1 0 0 -1 8 11)" stroke="#1A1A1A" stroke-width="1.5" stroke-linejoin="round"/>
<path d="M19.777 13C19.9229 12.3568 20 11.6874 20 11C20 6.02944 15.9706 2 11 2C6.02944 2 2 6.02944 2 11C2 15.9706 6.02944 20 11 20C11.6874 20 12.3568 19.9229 13 19.777" stroke="#1A1A1A" stroke-width="1.5" stroke-linecap="round" stroke-linejoin="round"/>
<path d="M18 16V20" stroke="#1A1A1A" stroke-width="1.5" stroke-linecap="round"/>
<path d="M20 18L16 18" stroke="#1A1A1A" stroke-width="1.5" stroke-linecap="round"/>
</svg>
