<svg width="24" height="24" viewBox="0 0 24 24" fill="none" xmlns="http://www.w3.org/2000/svg">
<rect width="24" height="24" fill="#A6A6A6"/>
<path d="M-806 -1072C-806 -1073.1 -805.105 -1074 -804 -1074H680C681.105 -1074 682 -1073.1 682 -1072V478C682 479.105 681.105 480 680 480H-804C-805.105 480 -806 479.105 -806 478V-1072Z" fill="white"/>
<path d="M-804 -1073H680V-1075H-804V-1073ZM681 -1072V478H683V-1072H681ZM680 479H-804V481H680V479ZM-805 478V-1072H-807V478H-805ZM-804 479C-804.552 479 -805 478.552 -805 478H-807C-807 479.657 -805.657 481 -804 481V479ZM681 478C681 478.552 680.552 479 680 479V481C681.657 481 683 479.657 683 478H681ZM680 -1073C680.552 -1073 681 -1072.55 681 -1072H683C683 -1073.66 681.657 -1075 680 -1075V-1073ZM-804 -1075C-805.657 -1075 -807 -1073.66 -807 -1072H-805C-805 -1072.55 -804.552 -1073 -804 -1073V-1075Z" fill="black" fill-opacity="0.1"/>
<path fill-rule="evenodd" clip-rule="evenodd" d="M12.5815 17.9185C12.5815 18.5781 12.6977 19.2107 12.9106 19.7968C12.2949 19.9299 11.6556 20 11 20C6.02944 20 2 15.9706 2 11C2 6.02944 6.02944 2 11 2C15.9706 2 20 6.02944 20 11C20 11.583 19.9446 12.153 19.8387 12.7051C19.2869 12.5192 18.696 12.4185 18.0815 12.4185C15.044 12.4185 12.5815 14.8809 12.5815 17.9185ZM11 13.75C9.54938 13.75 8.18828 14.1238 7.00546 14.7797C6.64321 14.9805 6.18671 14.8497 5.98584 14.4875C5.78496 14.1252 5.91578 13.6687 6.27802 13.4679C7.67773 12.6917 9.28842 12.25 11 12.25C11.3656 12.25 11.7268 12.2702 12.0824 12.3095C12.4941 12.355 12.791 12.7256 12.7455 13.1373C12.7 13.549 12.3293 13.8459 11.9176 13.8004C11.6166 13.7671 11.3104 13.75 11 13.75ZM11 5C12.6569 5 14 6.34315 14 8C14 9.65685 12.6569 11 11 11C9.34315 11 8 9.65685 8 8C8 6.34315 9.34315 5 11 5ZM22 18C22 16.2816 20.9164 14.8163 19.3953 14.2501C18.9609 14.0884 18.4907 14 18 14C15.7909 14 14 15.7909 14 18C14 18.4907 14.0884 18.9609 14.2501 19.3953C14.8163 20.9164 16.2816 22 18 22C20.2091 22 22 20.2091 22 18ZM18.75 16C18.75 15.5858 18.4142 15.25 18 15.25C17.5858 15.25 17.25 15.5858 17.25 16V17.25H16C15.5858 17.25 15.25 17.5858 15.25 18C15.25 18.4142 15.5858 18.75 16 18.75H17.25V20C17.25 20.4142 17.5858 20.75 18 20.75C18.4142 20.75 18.75 20.4142 18.75 20V18.75H20C20.4142 18.75 20.75 18.4142 20.75 18C20.75 17.5858 20.4142 17.25 20 17.25H18.75V16Z" fill="#1A1A1A"/>
</svg>
