<svg width="24" height="24" viewBox="0 0 24 24" fill="none" xmlns="http://www.w3.org/2000/svg">
<rect width="24" height="24" fill="#A6A6A6"/>
<path d="M-462 -373C-462 -374.105 -461.105 -375 -460 -375H1024C1025.1 -375 1026 -374.105 1026 -373V1177C1026 1178.1 1025.1 1179 1024 1179H-460C-461.105 1179 -462 1178.1 -462 1177V-373Z" fill="white"/>
<path d="M-460 -374H1024V-376H-460V-374ZM1025 -373V1177H1027V-373H1025ZM1024 1178H-460V1180H1024V1178ZM-461 1177V-373H-463V1177H-461ZM-460 1178C-460.552 1178 -461 1177.55 -461 1177H-463C-463 1178.66 -461.657 1180 -460 1180V1178ZM1025 1177C1025 1177.55 1024.55 1178 1024 1178V1180C1025.66 1180 1027 1178.66 1027 1177H1025ZM1024 -374C1024.55 -374 1025 -373.552 1025 -373H1027C1027 -374.657 1025.66 -376 1024 -376V-374ZM-460 -376C-461.657 -376 -463 -374.657 -463 -373H-461C-461 -373.552 -460.552 -374 -460 -374V-376Z" fill="black" fill-opacity="0.1"/>
<path d="M3.98535 17.2308L4.67766 17.5192L3.98535 17.2308ZM3.15202 19.2308L3.84433 19.5192L3.15202 19.2308ZM20.8443 19.2308L20.152 19.5192L20.8443 19.2308ZM20.011 17.2308L20.7033 16.9423V16.9423L20.011 17.2308ZM15.9982 15.25C15.584 15.25 15.2482 15.5858 15.2482 16C15.2482 16.4142 15.584 16.75 15.9982 16.75V15.25ZM7.99817 16.75C8.41239 16.75 8.74817 16.4142 8.74817 16C8.74817 15.5858 8.41239 15.25 7.99817 15.25V16.75ZM18.2482 9.11111C18.2482 10.8311 17.2693 12.8886 15.903 14.5523C15.229 15.373 14.4881 16.0632 13.7795 16.5419C13.0548 17.0316 12.4386 17.25 11.9982 17.25V18.75C12.8702 18.75 13.7853 18.3483 14.6192 17.7849C15.4692 17.2106 16.3143 16.4149 17.0621 15.5043C18.5395 13.7054 19.7482 11.3185 19.7482 9.11111H18.2482ZM11.9982 17.25C11.5577 17.25 10.9416 17.0316 10.2169 16.5419C9.50828 16.0632 8.76739 15.373 8.09339 14.5523C6.72703 12.8886 5.74817 10.8311 5.74817 9.11111H4.24817C4.24817 11.3185 5.45682 13.7054 6.93421 15.5043C7.68208 16.4149 8.52713 17.2106 9.37713 17.7849C10.211 18.3483 11.1261 18.75 11.9982 18.75V17.25ZM5.74817 9.11111C5.74817 5.58679 8.55748 2.75 11.9982 2.75V1.25C7.70687 1.25 4.24817 4.78072 4.24817 9.11111H5.74817ZM11.9982 2.75C15.4389 2.75 18.2482 5.58679 18.2482 9.11111H19.7482C19.7482 4.78072 16.2895 1.25 11.9982 1.25V2.75ZM13.7482 9C13.7482 9.9665 12.9647 10.75 11.9982 10.75V12.25C13.7931 12.25 15.2482 10.7949 15.2482 9H13.7482ZM11.9982 10.75C11.0317 10.75 10.2482 9.9665 10.2482 9H8.74817C8.74817 10.7949 10.2032 12.25 11.9982 12.25V10.75ZM10.2482 9C10.2482 8.0335 11.0317 7.25 11.9982 7.25V5.75C10.2032 5.75 8.74817 7.20507 8.74817 9H10.2482ZM11.9982 7.25C12.9647 7.25 13.7482 8.0335 13.7482 9H15.2482C15.2482 7.20507 13.7931 5.75 11.9982 5.75V7.25ZM3.29304 16.9423L2.45971 18.9423L3.84433 19.5192L4.67766 17.5192L3.29304 16.9423ZM4.99817 22.75H18.9982V21.25H4.99817V22.75ZM21.5366 18.9423L20.7033 16.9423L19.3187 17.5192L20.152 19.5192L21.5366 18.9423ZM18.1648 15.25H15.9982V16.75H18.1648V15.25ZM5.83151 16.75H7.99817V15.25H5.83151V16.75ZM20.7033 16.9423C20.2763 15.9175 19.275 15.25 18.1648 15.25V16.75C18.6695 16.75 19.1246 17.0534 19.3187 17.5192L20.7033 16.9423ZM18.9982 22.75C20.9605 22.75 22.2914 20.7537 21.5366 18.9423L20.152 19.5192C20.4951 20.3426 19.8901 21.25 18.9982 21.25V22.75ZM2.45971 18.9423C1.70496 20.7537 3.03583 22.75 4.99817 22.75V21.25C4.1062 21.25 3.50126 20.3426 3.84433 19.5192L2.45971 18.9423ZM4.67766 17.5192C4.87175 17.0534 5.32688 16.75 5.83151 16.75V15.25C4.72133 15.25 3.72004 15.9175 3.29304 16.9423L4.67766 17.5192Z" fill="#1A1A1A"/>
</svg>
