<svg width="24" height="24" viewBox="0 0 24 24" fill="none" xmlns="http://www.w3.org/2000/svg">
<rect width="24" height="24" fill="#A6A6A6"/>
<path d="M-1154 -373C-1154 -374.105 -1153.1 -375 -1152 -375H332C333.105 -375 334 -374.105 334 -373V1177C334 1178.1 333.105 1179 332 1179H-1152C-1153.1 1179 -1154 1178.1 -1154 1177V-373Z" fill="white"/>
<path d="M-1152 -374H332V-376H-1152V-374ZM333 -373V1177H335V-373H333ZM332 1178H-1152V1180H332V1178ZM-1153 1177V-373H-1155V1177H-1153ZM-1152 1178C-1152.55 1178 -1153 1177.55 -1153 1177H-1155C-1155 1178.66 -1153.66 1180 -1152 1180V1178ZM333 1177C333 1177.55 332.552 1178 332 1178V1180C333.657 1180 335 1178.66 335 1177H333ZM332 -374C332.552 -374 333 -373.552 333 -373H335C335 -374.657 333.657 -376 332 -376V-374ZM-1152 -376C-1153.66 -376 -1155 -374.657 -1155 -373H-1153C-1153 -373.552 -1152.55 -374 -1152 -374V-376Z" fill="black" fill-opacity="0.1"/>
<path fill-rule="evenodd" clip-rule="evenodd" d="M18 9.22222C18 12.6587 14.25 17 12 17C9.75 17 6 12.6587 6 9.22222C6 5.78578 8.68629 3 12 3C15.3137 3 18 5.78578 18 9.22222ZM14 9C14 10.1046 13.1046 11 12 11C10.8954 11 10 10.1046 10 9C10 7.89543 10.8954 7 12 7C13.1046 7 14 7.89543 14 9ZM5.83541 16H7.17229C8.73937 17.7664 10.5917 19 12.0021 19C13.4124 19 15.2648 17.7664 16.8319 16H18.1687C18.9761 16 19.7044 16.4855 20.0149 17.2308L20.8482 19.2308C21.3971 20.5481 20.4292 22 19.0021 22H5.00208C3.57492 22 2.60702 20.5481 3.15593 19.2308L3.98926 17.2308C4.2998 16.4855 5.02801 16 5.83541 16Z" fill="#1A1A1A"/>
</svg>
