<svg width="24" height="24" viewBox="0 0 24 24" fill="none" xmlns="http://www.w3.org/2000/svg">
<rect width="24" height="24" fill="#A6A6A6"/>
<path d="M-1096 -1256C-1096 -1257.1 -1095.1 -1258 -1094 -1258H390C391.105 -1258 392 -1257.1 392 -1256V294C392 295.105 391.105 296 390 296H-1094C-1095.1 296 -1096 295.105 -1096 294V-1256Z" fill="white"/>
<path d="M-1094 -1257H390V-1259H-1094V-1257ZM391 -1256V294H393V-1256H391ZM390 295H-1094V297H390V295ZM-1095 294V-1256H-1097V294H-1095ZM-1094 295C-1094.55 295 -1095 294.552 -1095 294H-1097C-1097 295.657 -1095.66 297 -1094 297V295ZM391 294C391 294.552 390.552 295 390 295V297C391.657 297 393 295.657 393 294H391ZM390 -1257C390.552 -1257 391 -1256.55 391 -1256H393C393 -1257.66 391.657 -1259 390 -1259V-1257ZM-1094 -1259C-1095.66 -1259 -1097 -1257.66 -1097 -1256H-1095C-1095 -1256.55 -1094.55 -1257 -1094 -1257V-1259Z" fill="black" fill-opacity="0.1"/>
<path fill-rule="evenodd" clip-rule="evenodd" d="M8.53033 16.5303L6.53033 18.5303C6.23744 18.8232 5.76256 18.8232 5.46967 18.5303L3.46967 16.5303C3.17678 16.2374 3.17678 15.7626 3.46967 15.4697C3.76256 15.1768 4.23744 15.1768 4.53033 15.4697L5.25 16.1893V7.81066L4.53033 8.53033C4.23744 8.82322 3.76256 8.82322 3.46967 8.53033C3.17678 8.23744 3.17678 7.76256 3.46967 7.46967L5.46967 5.46967C5.61032 5.32902 5.80109 5.25 6 5.25C6.19891 5.25 6.38968 5.32902 6.53033 5.46967L8.53033 7.46967C8.82322 7.76256 8.82322 8.23744 8.53033 8.53033C8.23744 8.82322 7.76256 8.82322 7.46967 8.53033L6.75 7.81066V16.1893L7.46967 15.4697C7.76256 15.1768 8.23744 15.1768 8.53033 15.4697C8.82322 15.7626 8.82322 16.2374 8.53033 16.5303ZM12 6.25C11.5858 6.25 11.25 6.58579 11.25 7C11.25 7.41421 11.5858 7.75 12 7.75H20C20.4142 7.75 20.75 7.41421 20.75 7C20.75 6.58579 20.4142 6.25 20 6.25H12ZM11.25 12C11.25 11.5858 11.5858 11.25 12 11.25H20C20.4142 11.25 20.75 11.5858 20.75 12C20.75 12.4142 20.4142 12.75 20 12.75H12C11.5858 12.75 11.25 12.4142 11.25 12ZM12 16.25C11.5858 16.25 11.25 16.5858 11.25 17C11.25 17.4142 11.5858 17.75 12 17.75H20C20.4142 17.75 20.75 17.4142 20.75 17C20.75 16.5858 20.4142 16.25 20 16.25H12Z" fill="#1A1A1A"/>
</svg>
