<svg width="24" height="24" viewBox="0 0 24 24" fill="none" xmlns="http://www.w3.org/2000/svg">
<rect width="24" height="24" fill="#A6A6A6"/>
<path d="M-520 -1256C-520 -1257.1 -519.105 -1258 -518 -1258H966C967.105 -1258 968 -1257.1 968 -1256V294C968 295.105 967.105 296 966 296H-518C-519.105 296 -520 295.105 -520 294V-1256Z" fill="white"/>
<path d="M-518 -1257H966V-1259H-518V-1257ZM967 -1256V294H969V-1256H967ZM966 295H-518V297H966V295ZM-519 294V-1256H-521V294H-519ZM-518 295C-518.552 295 -519 294.552 -519 294H-521C-521 295.657 -519.657 297 -518 297V295ZM967 294C967 294.552 966.552 295 966 295V297C967.657 297 969 295.657 969 294H967ZM966 -1257C966.552 -1257 967 -1256.55 967 -1256H969C969 -1257.66 967.657 -1259 966 -1259V-1257ZM-518 -1259C-519.657 -1259 -521 -1257.66 -521 -1256H-519C-519 -1256.55 -518.552 -1257 -518 -1257V-1259Z" fill="black" fill-opacity="0.1"/>
<path d="M8 5L8 15M8 15L10 13M8 15L6 13" stroke="#1A1A1A" stroke-width="1.5" stroke-linecap="round" stroke-linejoin="round"/>
<path d="M16 5L16 15M16 15L18 13M16 15L14 13" stroke="#1A1A1A" stroke-width="1.5" stroke-linecap="round" stroke-linejoin="round"/>
<path d="M5 19H19" stroke="#1A1A1A" stroke-width="1.5" stroke-linecap="round"/>
</svg>
