<svg width="24" height="24" viewBox="0 0 24 24" fill="none" xmlns="http://www.w3.org/2000/svg">
<rect width="24" height="24" fill="#A6A6A6"/>
<path d="M-288 -1160C-288 -1161.1 -287.105 -1162 -286 -1162H1198C1199.1 -1162 1200 -1161.1 1200 -1160V390C1200 391.105 1199.1 392 1198 392H-286C-287.105 392 -288 391.105 -288 390V-1160Z" fill="white"/>
<path d="M-286 -1161H1198V-1163H-286V-1161ZM1199 -1160V390H1201V-1160H1199ZM1198 391H-286V393H1198V391ZM-287 390V-1160H-289V390H-287ZM-286 391C-286.552 391 -287 390.552 -287 390H-289C-289 391.657 -287.657 393 -286 393V391ZM1199 390C1199 390.552 1198.55 391 1198 391V393C1199.66 393 1201 391.657 1201 390H1199ZM1198 -1161C1198.55 -1161 1199 -1160.55 1199 -1160H1201C1201 -1161.66 1199.66 -1163 1198 -1163V-1161ZM-286 -1163C-287.657 -1163 -289 -1161.66 -289 -1160H-287C-287 -1160.55 -286.552 -1161 -286 -1161V-1163Z" fill="black" fill-opacity="0.1"/>
<path d="M6 5H18" stroke="#1A1A1A" stroke-width="1.5" stroke-linecap="round"/>
<path d="M12 5V19" stroke="#1A1A1A" stroke-width="1.5" stroke-linecap="round"/>
</svg>
