<svg width="24" height="24" viewBox="0 0 24 24" fill="none" xmlns="http://www.w3.org/2000/svg">
<rect width="24" height="24" fill="#A6A6A6"/>
<path d="M-980 -1160C-980 -1161.1 -979.105 -1162 -978 -1162H506C507.105 -1162 508 -1161.1 508 -1160V390C508 391.105 507.105 392 506 392H-978C-979.105 392 -980 391.105 -980 390V-1160Z" fill="white"/>
<path d="M-978 -1161H506V-1163H-978V-1161ZM507 -1160V390H509V-1160H507ZM506 391H-978V393H506V391ZM-979 390V-1160H-981V390H-979ZM-978 391C-978.552 391 -979 390.552 -979 390H-981C-981 391.657 -979.657 393 -978 393V391ZM507 390C507 390.552 506.552 391 506 391V393C507.657 393 509 391.657 509 390H507ZM506 -1161C506.552 -1161 507 -1160.55 507 -1160H509C509 -1161.66 507.657 -1163 506 -1163V-1161ZM-978 -1163C-979.657 -1163 -981 -1161.66 -981 -1160H-979C-979 -1160.55 -978.552 -1161 -978 -1161V-1163Z" fill="black" fill-opacity="0.1"/>
<path fill-rule="evenodd" clip-rule="evenodd" d="M6 4.25C5.58579 4.25 5.25 4.58579 5.25 5C5.25 5.41421 5.58579 5.75 6 5.75H11.25V19C11.25 19.4142 11.5858 19.75 12 19.75C12.4142 19.75 12.75 19.4142 12.75 19V5.75H18C18.4142 5.75 18.75 5.41421 18.75 5C18.75 4.58579 18.4142 4.25 18 4.25H12H6Z" fill="#1A1A1A"/>
</svg>
