<svg width="24" height="24" viewBox="0 0 24 24" fill="none" xmlns="http://www.w3.org/2000/svg">
<rect width="24" height="24" fill="#A6A6A6"/>
<path d="M-462 -805C-462 -806.105 -461.105 -807 -460 -807H1024C1025.1 -807 1026 -806.105 1026 -805V745C1026 746.105 1025.1 747 1024 747H-460C-461.105 747 -462 746.105 -462 745V-805Z" fill="white"/>
<path d="M-460 -806H1024V-808H-460V-806ZM1025 -805V745H1027V-805H1025ZM1024 746H-460V748H1024V746ZM-461 745V-805H-463V745H-461ZM-460 746C-460.552 746 -461 745.552 -461 745H-463C-463 746.657 -461.657 748 -460 748V746ZM1025 745C1025 745.552 1024.55 746 1024 746V748C1025.66 748 1027 746.657 1027 745H1025ZM1024 -806C1024.55 -806 1025 -805.552 1025 -805H1027C1027 -806.657 1025.66 -808 1024 -808V-806ZM-460 -808C-461.657 -808 -463 -806.657 -463 -805H-461C-461 -805.552 -460.552 -806 -460 -806V-808Z" fill="black" fill-opacity="0.1"/>
<path d="M16.6379 10.1283C15.897 8.29416 14.0996 7 12 7C9.23858 7 7 9.23858 7 12C7 14.0996 8.29416 15.897 10.1283 16.6379M11.9156 21.9997C6.43159 21.9543 2 17.4947 2 12C2 6.47715 6.47715 2 12 2C17.4947 2 21.9543 6.43159 21.9997 11.9156M12.0573 13.4235L14.6699 21.2614C14.9982 22.2462 16.3911 22.2462 16.7193 21.2614L17.6841 18.3672C17.7916 18.0447 18.0447 17.7916 18.3672 17.6841L21.2614 16.7193C22.2462 16.3911 22.2462 14.9982 21.2614 14.6699L13.4235 12.0573C12.5792 11.7758 11.7758 12.5792 12.0573 13.4235Z" stroke="#1A1A1A" stroke-width="1.5" stroke-linecap="round" stroke-linejoin="round"/>
</svg>
