<svg width="24" height="24" viewBox="0 0 24 24" fill="none" xmlns="http://www.w3.org/2000/svg">
<rect width="24" height="24" fill="#A6A6A6"/>
<path d="M-1154 -805C-1154 -806.105 -1153.1 -807 -1152 -807H332C333.105 -807 334 -806.105 334 -805V745C334 746.105 333.105 747 332 747H-1152C-1153.1 747 -1154 746.105 -1154 745V-805Z" fill="white"/>
<path d="M-1152 -806H332V-808H-1152V-806ZM333 -805V745H335V-805H333ZM332 746H-1152V748H332V746ZM-1153 745V-805H-1155V745H-1153ZM-1152 746C-1152.55 746 -1153 745.552 -1153 745H-1155C-1155 746.657 -1153.66 748 -1152 748V746ZM333 745C333 745.552 332.552 746 332 746V748C333.657 748 335 746.657 335 745H333ZM332 -806C332.552 -806 333 -805.552 333 -805H335C335 -806.657 333.657 -808 332 -808V-806ZM-1152 -808C-1153.66 -808 -1155 -806.657 -1155 -805H-1153C-1153 -805.552 -1152.55 -806 -1152 -806V-808Z" fill="black" fill-opacity="0.1"/>
<path fill-rule="evenodd" clip-rule="evenodd" d="M2.75 12C2.75 6.89137 6.89137 2.75 12 2.75C17.0825 2.75 21.2077 6.84923 21.2497 11.9218C21.2531 12.336 21.5917 12.669 22.0059 12.6655C22.4201 12.6621 22.7531 12.3236 22.7496 11.9094C22.7009 6.01395 17.9068 1.25 12 1.25C6.06294 1.25 1.25 6.06294 1.25 12C1.25 17.9068 6.01395 22.7009 11.9094 22.7496C12.3236 22.7531 12.6621 22.4201 12.6655 22.0059C12.669 21.5917 12.336 21.2531 11.9218 21.2497C6.84923 21.2077 2.75 17.0825 2.75 12ZM12 7.75C9.65279 7.75 7.75 9.65279 7.75 12C7.75 13.7835 8.84882 15.3122 10.4092 15.9425C10.7933 16.0976 10.9789 16.5347 10.8237 16.9188C10.6686 17.3029 10.2315 17.4884 9.84739 17.3333C7.7395 16.4818 6.25 14.4157 6.25 12C6.25 8.82436 8.82436 6.25 12 6.25C14.4157 6.25 16.4818 7.7395 17.3333 9.84739C17.4884 10.2315 17.3029 10.6686 16.9188 10.8237C16.5347 10.9789 16.0976 10.7933 15.9425 10.4092C15.3122 8.84882 13.7835 7.75 12 7.75ZM14.6699 21.2614L12.0573 13.4235C11.7758 12.5792 12.5792 11.7758 13.4235 12.0573L21.2614 14.6699C22.2462 14.9982 22.2462 16.3911 21.2614 16.7193L18.3672 17.6841C18.0447 17.7916 17.7916 18.0447 17.6841 18.3672L16.7193 21.2614C16.3911 22.2462 14.9982 22.2462 14.6699 21.2614Z" fill="#1A1A1A"/>
</svg>
