<svg width="24" height="24" viewBox="0 0 24 24" fill="none" xmlns="http://www.w3.org/2000/svg">
<rect width="24" height="24" fill="#A6A6A6"/>
<path d="M-746 -38C-746 -39.1046 -745.105 -40 -744 -40H740C741.105 -40 742 -39.1046 742 -38V1512C742 1513.1 741.105 1514 740 1514H-744C-745.105 1514 -746 1513.1 -746 1512V-38Z" fill="white"/>
<path d="M-744 -39H740V-41H-744V-39ZM741 -38V1512H743V-38H741ZM740 1513H-744V1515H740V1513ZM-745 1512V-38H-747V1512H-745ZM-744 1513C-744.552 1513 -745 1512.55 -745 1512H-747C-747 1513.66 -745.657 1515 -744 1515V1513ZM741 1512C741 1512.55 740.552 1513 740 1513V1515C741.657 1515 743 1513.66 743 1512H741ZM740 -39C740.552 -39 741 -38.5523 741 -38H743C743 -39.6569 741.657 -41 740 -41V-39ZM-744 -41C-745.657 -41 -747 -39.6569 -747 -38H-745C-745 -38.5523 -744.552 -39 -744 -39V-41Z" fill="black" fill-opacity="0.1"/>
<path d="M16.5 11.5L7.5 2.5" stroke="#1A1A1A" stroke-width="1.5" stroke-linecap="round"/>
<path d="M16.5 11.5L7.5 20.5" stroke="#1A1A1A" stroke-width="1.5" stroke-linecap="round"/>
</svg>
