<svg width="24" height="24" viewBox="0 0 24 24" fill="none" xmlns="http://www.w3.org/2000/svg">
<rect width="24" height="24" fill="#A6A6A6"/>
<path d="M-288 -853C-288 -854.105 -287.105 -855 -286 -855H1198C1199.1 -855 1200 -854.105 1200 -853V697C1200 698.105 1199.1 699 1198 699H-286C-287.105 699 -288 698.105 -288 697V-853Z" fill="white"/>
<path d="M-286 -854H1198V-856H-286V-854ZM1199 -853V697H1201V-853H1199ZM1198 698H-286V700H1198V698ZM-287 697V-853H-289V697H-287ZM-286 698C-286.552 698 -287 697.552 -287 697H-289C-289 698.657 -287.657 700 -286 700V698ZM1199 697C1199 697.552 1198.55 698 1198 698V700C1199.66 700 1201 698.657 1201 697H1199ZM1198 -854C1198.55 -854 1199 -853.552 1199 -853H1201C1201 -854.657 1199.66 -856 1198 -856V-854ZM-286 -856C-287.657 -856 -289 -854.657 -289 -853H-287C-287 -853.552 -286.552 -854 -286 -854V-856Z" fill="black" fill-opacity="0.1"/>
<path d="M12 5V2M12 22V19M7.05028 7.05024L4.92896 4.92892M19.0711 19.0711L16.9498 16.9497M19 12H22M2 12H5M16.9497 7.05024L19.071 4.92892M4.92891 19.0711L7.05023 16.9497" stroke="#1A1A1A" stroke-width="1.5" stroke-linecap="round" stroke-linejoin="round"/>
</svg>
