<svg width="24" height="24" viewBox="0 0 24 24" fill="none" xmlns="http://www.w3.org/2000/svg">
<rect width="24" height="24" fill="#A6A6A6"/>
<path d="M-980 -853C-980 -854.105 -979.105 -855 -978 -855H506C507.105 -855 508 -854.105 508 -853V697C508 698.105 507.105 699 506 699H-978C-979.105 699 -980 698.105 -980 697V-853Z" fill="white"/>
<path d="M-978 -854H506V-856H-978V-854ZM507 -853V697H509V-853H507ZM506 698H-978V700H506V698ZM-979 697V-853H-981V697H-979ZM-978 698C-978.552 698 -979 697.552 -979 697H-981C-981 698.657 -979.657 700 -978 700V698ZM507 697C507 697.552 506.552 698 506 698V700C507.657 700 509 698.657 509 697H507ZM506 -854C506.552 -854 507 -853.552 507 -853H509C509 -854.657 507.657 -856 506 -856V-854ZM-978 -856C-979.657 -856 -981 -854.657 -981 -853H-979C-979 -853.552 -978.552 -854 -978 -854V-856Z" fill="black" fill-opacity="0.1"/>
<path fill-rule="evenodd" clip-rule="evenodd" d="M12.75 2.75C12.75 2.33579 12.4142 2 12 2C11.5858 2 11.25 2.33579 11.25 2.75V5.25C11.25 5.66421 11.5858 6 12 6C12.4142 6 12.75 5.66421 12.75 5.25V2.75ZM12.75 19C12.75 18.5858 12.4142 18.25 12 18.25C11.5858 18.25 11.25 18.5858 11.25 19V21.25C11.25 21.6642 11.5858 22 12 22C12.4142 22 12.75 21.6642 12.75 21.25V19ZM19.0694 4.92877C19.3623 5.22166 19.3623 5.69653 19.0694 5.98943L17.3016 7.75719C17.0087 8.05009 16.5339 8.05009 16.241 7.75719C15.9481 7.4643 15.9481 6.98943 16.241 6.69653L18.0087 4.92877C18.3016 4.63587 18.7765 4.63587 19.0694 4.92877ZM7.58111 17.4802C7.874 17.1873 7.874 16.7124 7.58111 16.4195C7.28822 16.1266 6.81334 16.1266 6.52045 16.4195L4.92946 18.0105C4.63657 18.3034 4.63657 18.7782 4.92946 19.0711C5.22235 19.364 5.69723 19.364 5.99012 19.0711L7.58111 17.4802ZM22 12C22 12.4142 21.6642 12.75 21.25 12.75H18.75C18.3358 12.75 18 12.4142 18 12C18 11.5858 18.3358 11.25 18.75 11.25H21.25C21.6642 11.25 22 11.5858 22 12ZM5 12.75C5.41421 12.75 5.75 12.4142 5.75 12C5.75 11.5858 5.41421 11.25 5 11.25H2.75C2.33579 11.25 2 11.5858 2 12C2 12.4142 2.33579 12.75 2.75 12.75H5ZM19.0712 19.0713C18.7783 19.3642 18.3035 19.3642 18.0106 19.0713L16.2428 17.3036C15.9499 17.0107 15.9499 16.5358 16.2428 16.2429C16.5357 15.95 17.0106 15.95 17.3035 16.2429L19.0712 18.0107C19.3641 18.3036 19.3641 18.7785 19.0712 19.0713ZM6.51838 7.58062C6.81128 7.87352 7.28615 7.87352 7.57904 7.58062C7.87194 7.28773 7.87194 6.81286 7.57904 6.51996L5.98805 4.92897C5.69516 4.63608 5.22029 4.63608 4.92739 4.92897C4.6345 5.22187 4.6345 5.69674 4.92739 5.98963L6.51838 7.58062Z" fill="#1A1A1A"/>
</svg>
