<svg width="24" height="24" viewBox="0 0 24 24" fill="none" xmlns="http://www.w3.org/2000/svg">
<rect width="24" height="24" fill="#A6A6A6"/>
<path d="M-806 -469C-806 -470.105 -805.105 -471 -804 -471H680C681.105 -471 682 -470.105 682 -469V1081C682 1082.1 681.105 1083 680 1083H-804C-805.105 1083 -806 1082.1 -806 1081V-469Z" fill="white"/>
<path d="M-804 -470H680V-472H-804V-470ZM681 -469V1081H683V-469H681ZM680 1082H-804V1084H680V1082ZM-805 1081V-469H-807V1081H-805ZM-804 1082C-804.552 1082 -805 1081.55 -805 1081H-807C-807 1082.66 -805.657 1084 -804 1084V1082ZM681 1081C681 1081.55 680.552 1082 680 1082V1084C681.657 1084 683 1082.66 683 1081H681ZM680 -470C680.552 -470 681 -469.552 681 -469H683C683 -470.657 681.657 -472 680 -472V-470ZM-804 -472C-805.657 -472 -807 -470.657 -807 -469H-805C-805 -469.552 -804.552 -470 -804 -470V-472Z" fill="black" fill-opacity="0.1"/>
<path fill-rule="evenodd" clip-rule="evenodd" d="M6 21C3.79086 21 2 19.2091 2 17V16C2 15.4477 2.46 15.0163 2.98189 14.8356C4.15653 14.4289 5 13.313 5 12C5 10.687 4.15653 9.57105 2.98189 9.16437C2.46 8.98368 2 8.55228 2 8V7C2 4.79086 3.79086 3 6 3H18C20.2091 3 22 4.79086 22 7V8C22 8.55228 21.54 8.98368 21.0181 9.16437C19.8435 9.57105 19 10.687 19 12C19 13.313 19.8435 14.4289 21.0181 14.8356C21.54 15.0163 22 15.4477 22 16V17C22 19.2091 20.2091 21 18 21H6ZM9 10C9.55228 10 10 9.55228 10 9C10 8.44772 9.55228 8 9 8C8.44772 8 8 8.44772 8 9C8 9.55228 8.44772 10 9 10ZM16 15C16 15.5523 15.5523 16 15 16C14.4477 16 14 15.5523 14 15C14 14.4477 14.4477 14 15 14C15.5523 14 16 14.4477 16 15ZM15.5303 9.53033C15.8232 9.23744 15.8232 8.76256 15.5303 8.46967C15.2374 8.17678 14.7626 8.17678 14.4697 8.46967L8.46967 14.4697C8.17678 14.7626 8.17678 15.2374 8.46967 15.5303C8.76256 15.8232 9.23744 15.8232 9.53033 15.5303L15.5303 9.53033Z" fill="#1A1A1A"/>
</svg>
