<svg width="24" height="24" viewBox="0 0 24 24" fill="none" xmlns="http://www.w3.org/2000/svg">
<rect width="24" height="24" fill="#A6A6A6"/>
<path d="M-578 -709C-578 -710.105 -577.105 -711 -576 -711H908C909.105 -711 910 -710.105 910 -709V841C910 842.105 909.105 843 908 843H-576C-577.105 843 -578 842.105 -578 841V-709Z" fill="white"/>
<path d="M-576 -710H908V-712H-576V-710ZM909 -709V841H911V-709H909ZM908 842H-576V844H908V842ZM-577 841V-709H-579V841H-577ZM-576 842C-576.552 842 -577 841.552 -577 841H-579C-579 842.657 -577.657 844 -576 844V842ZM909 841C909 841.552 908.552 842 908 842V844C909.657 844 911 842.657 911 841H909ZM908 -710C908.552 -710 909 -709.552 909 -709H911C911 -710.657 909.657 -712 908 -712V-710ZM-576 -712C-577.657 -712 -579 -710.657 -579 -709H-577C-577 -709.552 -576.552 -710 -576 -710V-712Z" fill="black" fill-opacity="0.1"/>
<path d="M17 9L14 12M14 12L11 15M14 12L11 9M14 12L17 15M3.52405 15.4403L7.34938 18.8689C8.16293 19.5981 9.2072 20 10.2882 20H17.5371C20.0019 20 22 17.9533 22 15.4286V8.57143C22 6.0467 20.0019 4 17.5371 4H10.2882C9.2072 4 8.16293 4.40191 7.34939 5.13108L3.52406 8.55965C1.49198 10.381 1.49198 13.619 3.52405 15.4403Z" stroke="#1A1A1A" stroke-width="1.5" stroke-linecap="round"/>
</svg>
