<svg width="24" height="24" viewBox="0 0 24 24" fill="none" xmlns="http://www.w3.org/2000/svg">
<rect width="24" height="24" fill="#A6A6A6"/>
<path d="M-1270 -709C-1270 -710.105 -1269.1 -711 -1268 -711H216C217.105 -711 218 -710.105 218 -709V841C218 842.105 217.105 843 216 843H-1268C-1269.1 843 -1270 842.105 -1270 841V-709Z" fill="white"/>
<path d="M-1268 -710H216V-712H-1268V-710ZM217 -709V841H219V-709H217ZM216 842H-1268V844H216V842ZM-1269 841V-709H-1271V841H-1269ZM-1268 842C-1268.55 842 -1269 841.552 -1269 841H-1271C-1271 842.657 -1269.66 844 -1268 844V842ZM217 841C217 841.552 216.552 842 216 842V844C217.657 844 219 842.657 219 841H217ZM216 -710C216.552 -710 217 -709.552 217 -709H219C219 -710.657 217.657 -712 216 -712V-710ZM-1268 -712C-1269.66 -712 -1271 -710.657 -1271 -709H-1269C-1269 -709.552 -1268.55 -710 -1268 -710V-712Z" fill="black" fill-opacity="0.1"/>
<path fill-rule="evenodd" clip-rule="evenodd" d="M10.2882 4C9.2072 4 8.16293 4.40191 7.34939 5.13108L3.52406 8.55965C1.49198 10.381 1.49198 13.619 3.52405 15.4403L7.34938 18.8689C8.16293 19.5981 9.2072 20 10.2882 20H17.5371C20.0019 20 22 17.9533 22 15.4286V8.57143C22 6.0467 20.0019 4 17.5371 4H10.2882ZM11.5303 8.46967C11.2374 8.17678 10.7626 8.17678 10.4697 8.46967C10.1768 8.76256 10.1768 9.23744 10.4697 9.53033L12.9393 12L10.4697 14.4697C10.1768 14.7626 10.1768 15.2374 10.4697 15.5303C10.7626 15.8232 11.2374 15.8232 11.5303 15.5303L14 13.0607L16.4697 15.5303C16.7626 15.8232 17.2374 15.8232 17.5303 15.5303C17.8232 15.2374 17.8232 14.7626 17.5303 14.4697L15.0607 12L17.5303 9.53033C17.8232 9.23744 17.8232 8.76256 17.5303 8.46967C17.2374 8.17678 16.7626 8.17678 16.4697 8.46967L14 10.9393L11.5303 8.46967Z" fill="#1A1A1A"/>
</svg>
