<svg width="24" height="24" viewBox="0 0 24 24" fill="none" xmlns="http://www.w3.org/2000/svg">
<rect width="24" height="24" fill="#A6A6A6"/>
<path d="M-230 -901C-230 -902.105 -229.105 -903 -228 -903H1256C1257.1 -903 1258 -902.105 1258 -901V649C1258 650.105 1257.1 651 1256 651H-228C-229.105 651 -230 650.105 -230 649V-901Z" fill="white"/>
<path d="M-228 -902H1256V-904H-228V-902ZM1257 -901V649H1259V-901H1257ZM1256 650H-228V652H1256V650ZM-229 649V-901H-231V649H-229ZM-228 650C-228.552 650 -229 649.552 -229 649H-231C-231 650.657 -229.657 652 -228 652V650ZM1257 649C1257 649.552 1256.55 650 1256 650V652C1257.66 652 1259 650.657 1259 649H1257ZM1256 -902C1256.55 -902 1257 -901.552 1257 -901H1259C1259 -902.657 1257.66 -904 1256 -904V-902ZM-228 -904C-229.657 -904 -231 -902.657 -231 -901H-229C-229 -901.552 -228.552 -902 -228 -902V-904Z" fill="black" fill-opacity="0.1"/>
<circle cx="12" cy="17" r="1" transform="rotate(-180 12 17)" fill="#1A1A1A"/>
<path d="M12 14L12 6.99997M3 9.13192V14.8681C3 16.3914 3.7923 17.799 5.07846 18.5607L9.92154 21.4288C11.2077 22.1904 12.7923 22.1904 14.0785 21.4288L18.9215 18.5607C20.2077 17.799 21 16.3914 21 14.8681V9.13192C21 7.6086 20.2077 6.20099 18.9215 5.43932L14.0785 2.57125C12.7923 1.80958 11.2077 1.80958 9.92154 2.57125L5.07846 5.43932C3.7923 6.20099 3 7.6086 3 9.13192Z" stroke="#1A1A1A" stroke-width="1.5" stroke-linecap="round"/>
</svg>
