<svg width="24" height="24" viewBox="0 0 24 24" fill="none" xmlns="http://www.w3.org/2000/svg">
<rect width="24" height="24" fill="#A6A6A6"/>
<path d="M-922 -901C-922 -902.105 -921.105 -903 -920 -903H564C565.105 -903 566 -902.105 566 -901V649C566 650.105 565.105 651 564 651H-920C-921.105 651 -922 650.105 -922 649V-901Z" fill="white"/>
<path d="M-920 -902H564V-904H-920V-902ZM565 -901V649H567V-901H565ZM564 650H-920V652H564V650ZM-921 649V-901H-923V649H-921ZM-920 650C-920.552 650 -921 649.552 -921 649H-923C-923 650.657 -921.657 652 -920 652V650ZM565 649C565 649.552 564.552 650 564 650V652C565.657 652 567 650.657 567 649H565ZM564 -902C564.552 -902 565 -901.552 565 -901H567C567 -902.657 565.657 -904 564 -904V-902ZM-920 -904C-921.657 -904 -923 -902.657 -923 -901H-921C-921 -901.552 -920.552 -902 -920 -902V-904Z" fill="black" fill-opacity="0.1"/>
<path fill-rule="evenodd" clip-rule="evenodd" d="M9.92154 2.57125C11.2077 1.80958 12.7923 1.80958 14.0785 2.57125L18.9215 5.43932C20.2077 6.20099 21 7.6086 21 9.13192V14.8681C21 16.3914 20.2077 17.799 18.9215 18.5607L14.0785 21.4288C12.7923 22.1904 11.2077 22.1904 9.92154 21.4288L5.07846 18.5607C3.7923 17.799 3 16.3914 3 14.8681V9.13192C3 7.6086 3.7923 6.20099 5.07846 5.43932L9.92154 2.57125ZM11 17C11 16.4477 11.4477 16 12 16C12.5523 16 13 16.4477 13 17C13 17.5523 12.5523 18 12 18C11.4477 18 11 17.5523 11 17ZM11.25 14C11.25 14.4142 11.5858 14.75 12 14.75C12.4142 14.75 12.75 14.4142 12.75 14L12.75 7C12.75 6.58579 12.4142 6.25 12 6.25C11.5858 6.25 11.25 6.58579 11.25 7L11.25 14Z" fill="#1A1A1A"/>
</svg>
