<svg width="24" height="24" viewBox="0 0 24 24" fill="none" xmlns="http://www.w3.org/2000/svg">
<rect width="24" height="24" fill="#A6A6A6"/>
<path d="M-172 -1208C-172 -1209.1 -171.105 -1210 -170 -1210H1314C1315.1 -1210 1316 -1209.1 1316 -1208V342C1316 343.105 1315.1 344 1314 344H-170C-171.105 344 -172 343.105 -172 342V-1208Z" fill="white"/>
<path d="M-170 -1209H1314V-1211H-170V-1209ZM1315 -1208V342H1317V-1208H1315ZM1314 343H-170V345H1314V343ZM-171 342V-1208H-173V342H-171ZM-170 343C-170.552 343 -171 342.552 -171 342H-173C-173 343.657 -171.657 345 -170 345V343ZM1315 342C1315 342.552 1314.55 343 1314 343V345C1315.66 345 1317 343.657 1317 342H1315ZM1314 -1209C1314.55 -1209 1315 -1208.55 1315 -1208H1317C1317 -1209.66 1315.66 -1211 1314 -1211V-1209ZM-170 -1211C-171.657 -1211 -173 -1209.66 -173 -1208H-171C-171 -1208.55 -170.552 -1209 -170 -1209V-1211Z" fill="black" fill-opacity="0.1"/>
<path d="M2 6C2 3.79086 3.79086 2 6 2H18C20.2091 2 22 3.79086 22 6V18C22 20.2091 20.2091 22 18 22H6C3.79086 22 2 20.2091 2 18V6Z" stroke="#1A1A1A" stroke-width="1.5" stroke-linejoin="round"/>
<path d="M9 14H15" stroke="#1A1A1A" stroke-width="1.5" stroke-linecap="round"/>
<path d="M7 18L12 6L17 18" stroke="#1A1A1A" stroke-width="1.5" stroke-linecap="round" stroke-linejoin="round"/>
</svg>
