<svg width="24" height="24" viewBox="0 0 24 24" fill="none" xmlns="http://www.w3.org/2000/svg">
<rect width="24" height="24" fill="#A6A6A6"/>
<path d="M-864 -1208C-864 -1209.1 -863.105 -1210 -862 -1210H622C623.105 -1210 624 -1209.1 624 -1208V342C624 343.105 623.105 344 622 344H-862C-863.105 344 -864 343.105 -864 342V-1208Z" fill="white"/>
<path d="M-862 -1209H622V-1211H-862V-1209ZM623 -1208V342H625V-1208H623ZM622 343H-862V345H622V343ZM-863 342V-1208H-865V342H-863ZM-862 343C-862.552 343 -863 342.552 -863 342H-865C-865 343.657 -863.657 345 -862 345V343ZM623 342C623 342.552 622.552 343 622 343V345C623.657 345 625 343.657 625 342H623ZM622 -1209C622.552 -1209 623 -1208.55 623 -1208H625C625 -1209.66 623.657 -1211 622 -1211V-1209ZM-862 -1211C-863.657 -1211 -865 -1209.66 -865 -1208H-863C-863 -1208.55 -862.552 -1209 -862 -1209V-1211Z" fill="black" fill-opacity="0.1"/>
<path fill-rule="evenodd" clip-rule="evenodd" d="M6 2C3.79086 2 2 3.79086 2 6V18C2 20.2091 3.79086 22 6 22H18C20.2091 22 22 20.2091 22 18V6C22 3.79086 20.2091 2 18 2H6ZM12 5.25C12.3028 5.25 12.5759 5.43205 12.6923 5.71154L17.6923 17.7115C17.8516 18.0939 17.6708 18.533 17.2885 18.6923C16.9061 18.8516 16.467 18.6708 16.3077 18.2885L14.8333 14.75H9.16668L7.69232 18.2885C7.53301 18.6708 7.0939 18.8516 6.71155 18.6923C6.3292 18.533 6.14839 18.0939 6.3077 17.7115L11.3077 5.71154C11.4242 5.43205 11.6972 5.25 12 5.25ZM12 7.95L14.2083 13.25H9.79168L12 7.95Z" fill="#1A1A1A"/>
</svg>
