<svg width="24" height="24" viewBox="0 0 24 24" fill="none" xmlns="http://www.w3.org/2000/svg">
<rect width="24" height="24" fill="#A6A6A6"/>
<path d="M-404 -805C-404 -806.105 -403.105 -807 -402 -807H1082C1083.1 -807 1084 -806.105 1084 -805V745C1084 746.105 1083.1 747 1082 747H-402C-403.105 747 -404 746.105 -404 745V-805Z" fill="white"/>
<path d="M-402 -806H1082V-808H-402V-806ZM1083 -805V745H1085V-805H1083ZM1082 746H-402V748H1082V746ZM-403 745V-805H-405V745H-403ZM-402 746C-402.552 746 -403 745.552 -403 745H-405C-405 746.657 -403.657 748 -402 748V746ZM1083 745C1083 745.552 1082.55 746 1082 746V748C1083.66 748 1085 746.657 1085 745H1083ZM1082 -806C1082.55 -806 1083 -805.552 1083 -805H1085C1085 -806.657 1083.66 -808 1082 -808V-806ZM-402 -808C-403.657 -808 -405 -806.657 -405 -805H-403C-403 -805.552 -402.552 -806 -402 -806V-808Z" fill="black" fill-opacity="0.1"/>
<path d="M21 17.9998L12.8123 21.6388C12.2951 21.8686 11.7049 21.8686 11.1877 21.6388L3 17.9998M21 12.9998L12.8123 16.6388C12.2951 16.8686 11.7049 16.8686 11.1877 16.6388L3 12.9998M3.78885 7.8942L11.1056 11.5526C11.6686 11.8341 12.3314 11.8341 12.8944 11.5526L20.2111 7.8942C20.9482 7.52568 20.9482 6.47387 20.2111 6.10534L12.8944 2.44699C12.3314 2.16546 11.6686 2.16546 11.1056 2.44699L3.78886 6.10534C3.05181 6.47387 3.05181 7.52567 3.78885 7.8942Z" stroke="#1A1A1A" stroke-width="1.5" stroke-linecap="round" stroke-linejoin="round"/>
</svg>
