<svg width="24" height="24" viewBox="0 0 24 24" fill="none" xmlns="http://www.w3.org/2000/svg">
<rect width="24" height="24" fill="#A6A6A6"/>
<path d="M-1096 -805C-1096 -806.105 -1095.1 -807 -1094 -807H390C391.105 -807 392 -806.105 392 -805V745C392 746.105 391.105 747 390 747H-1094C-1095.1 747 -1096 746.105 -1096 745V-805Z" fill="white"/>
<path d="M-1094 -806H390V-808H-1094V-806ZM391 -805V745H393V-805H391ZM390 746H-1094V748H390V746ZM-1095 745V-805H-1097V745H-1095ZM-1094 746C-1094.55 746 -1095 745.552 -1095 745H-1097C-1097 746.657 -1095.66 748 -1094 748V746ZM391 745C391 745.552 390.552 746 390 746V748C391.657 748 393 746.657 393 745H391ZM390 -806C390.552 -806 391 -805.552 391 -805H393C393 -806.657 391.657 -808 390 -808V-806ZM-1094 -808C-1095.66 -808 -1097 -806.657 -1097 -805H-1095C-1095 -805.552 -1094.55 -806 -1094 -806V-808Z" fill="black" fill-opacity="0.1"/>
<path fill-rule="evenodd" clip-rule="evenodd" d="M10.7685 2.27665C11.5427 1.88955 12.4539 1.88955 13.2281 2.27665L20.5449 5.93501C21.8347 6.57993 21.8347 8.42059 20.5449 9.06551L13.2281 12.7239C12.4539 13.111 11.5427 13.111 10.7685 12.7239L3.45175 9.06551C2.16191 8.42059 2.16192 6.57993 3.45175 5.93501L10.7685 2.27665ZM2.31483 17.1956C2.48306 16.8171 2.92628 16.6466 3.30479 16.8148L11.4925 20.4538C11.8157 20.5975 12.1847 20.5975 12.5079 20.4538L20.6956 16.8148C21.0741 16.6466 21.5173 16.8171 21.6855 17.1956C21.8538 17.5741 21.6833 18.0173 21.3048 18.1855L13.1171 21.8245C12.406 22.1406 11.5944 22.1406 10.8833 21.8245L2.69558 18.1855C2.31707 18.0173 2.1466 17.5741 2.31483 17.1956ZM3.30479 12.3148C2.92628 12.1466 2.48306 12.3171 2.31483 12.6956C2.1466 13.0741 2.31707 13.5173 2.69558 13.6855L10.8833 17.3245C11.5944 17.6406 12.406 17.6406 13.1171 17.3245L21.3048 13.6855C21.6833 13.5173 21.8538 13.0741 21.6855 12.6956C21.5173 12.3171 21.0741 12.1466 20.6956 12.3148L12.5079 15.9538C12.1847 16.0975 11.8157 16.0975 11.4925 15.9538L3.30479 12.3148Z" fill="#1A1A1A"/>
</svg>
