<svg width="24" height="24" viewBox="0 0 24 24" fill="none" xmlns="http://www.w3.org/2000/svg">
<rect width="24" height="24" fill="#A6A6A6"/>
<path d="M-346 -901C-346 -902.105 -345.105 -903 -344 -903H1140C1141.1 -903 1142 -902.105 1142 -901V649C1142 650.105 1141.1 651 1140 651H-344C-345.105 651 -346 650.105 -346 649V-901Z" fill="white"/>
<path d="M-344 -902H1140V-904H-344V-902ZM1141 -901V649H1143V-901H1141ZM1140 650H-344V652H1140V650ZM-345 649V-901H-347V649H-345ZM-344 650C-344.552 650 -345 649.552 -345 649H-347C-347 650.657 -345.657 652 -344 652V650ZM1141 649C1141 649.552 1140.55 650 1140 650V652C1141.66 652 1143 650.657 1143 649H1141ZM1140 -902C1140.55 -902 1141 -901.552 1141 -901H1143C1143 -902.657 1141.66 -904 1140 -904V-902ZM-344 -904C-345.657 -904 -347 -902.657 -347 -901H-345C-345 -901.552 -344.552 -902 -344 -902V-904Z" fill="black" fill-opacity="0.1"/>
<path d="M12 19V22M12 19C8.13401 19 5 15.866 5 12V11M12 19C14.0327 19 15.863 18.1336 17.1418 16.75M12 22H15M12 22H9M3 2.75L21 20.75M19 11V12C19 12.8232 18.8579 13.6132 18.5969 14.3469M16 11.75V6C16 3.79086 14.2091 2 12 2C10.4444 2 9.09624 2.88797 8.43469 4.18469M8 8V12C8 14.2091 9.79086 16 12 16C13.1484 16 14.1838 15.516 14.9133 14.741" stroke="#1A1A1A" stroke-width="1.5" stroke-linecap="round" stroke-linejoin="round"/>
</svg>
