<svg width="24" height="24" viewBox="0 0 24 24" fill="none" xmlns="http://www.w3.org/2000/svg">
<rect width="24" height="24" fill="#A6A6A6"/>
<path d="M-1038 -901C-1038 -902.105 -1037.1 -903 -1036 -903H448C449.105 -903 450 -902.105 450 -901V649C450 650.105 449.105 651 448 651H-1036C-1037.1 651 -1038 650.105 -1038 649V-901Z" fill="white"/>
<path d="M-1036 -902H448V-904H-1036V-902ZM449 -901V649H451V-901H449ZM448 650H-1036V652H448V650ZM-1037 649V-901H-1039V649H-1037ZM-1036 650C-1036.55 650 -1037 649.552 -1037 649H-1039C-1039 650.657 -1037.66 652 -1036 652V650ZM449 649C449 649.552 448.552 650 448 650V652C449.657 652 451 650.657 451 649H449ZM448 -902C448.552 -902 449 -901.552 449 -901H451C451 -902.657 449.657 -904 448 -904V-902ZM-1036 -904C-1037.66 -904 -1039 -902.657 -1039 -901H-1037C-1037 -901.552 -1036.55 -902 -1036 -902V-904Z" fill="black" fill-opacity="0.1"/>
<path fill-rule="evenodd" clip-rule="evenodd" d="M2.46967 2.21967C2.17678 2.51256 2.17678 2.98744 2.46967 3.28033L8 8.81066V12C8 14.2091 9.79086 16 12 16C12.8978 16 13.7266 15.7042 14.3941 15.2047L15.2849 16.0956C14.3856 16.8179 13.2432 17.25 12 17.25C9.1005 17.25 6.75 14.8995 6.75 12V11C6.75 10.5858 6.41421 10.25 6 10.25C5.58579 10.25 5.25 10.5858 5.25 11V12C5.25 15.4744 7.87504 18.3357 11.25 18.7088V20.5H9C8.58579 20.5 8.25 20.8358 8.25 21.25C8.25 21.6642 8.58579 22 9 22H15C15.4142 22 15.75 21.6642 15.75 21.25C15.75 20.8358 15.4142 20.5 15 20.5H12.75V18.7088C14.1139 18.558 15.3553 18.0009 16.3505 17.1612L20.4697 21.2803C20.7626 21.5732 21.2374 21.5732 21.5303 21.2803C21.8232 20.9874 21.8232 20.5126 21.5303 20.2197L3.53033 2.21967C3.23744 1.92678 2.76256 1.92678 2.46967 2.21967ZM18.1333 14.8226L16.9793 13.6686C17.1549 13.1444 17.25 12.5833 17.25 12V11C17.25 10.5858 17.5858 10.25 18 10.25C18.4142 10.25 18.75 10.5858 18.75 11V12C18.75 13.0077 18.5292 13.9638 18.1333 14.8226ZM8.16614 4.85548L15.9493 12.6386C15.9827 12.4307 16 12.2174 16 12V6C16 3.79086 14.2091 2 12 2C10.1886 2 8.65841 3.20405 8.16614 4.85548Z" fill="#1A1A1A"/>
</svg>
