<svg width="24" height="24" viewBox="0 0 24 24" fill="none" xmlns="http://www.w3.org/2000/svg">
<rect width="24" height="24" fill="#A6A6A6"/>
<path d="M-114 -325C-114 -326.105 -113.105 -327 -112 -327H1372C1373.1 -327 1374 -326.105 1374 -325V1225C1374 1226.1 1373.1 1227 1372 1227H-112C-113.105 1227 -114 1226.1 -114 1225V-325Z" fill="white"/>
<path d="M-112 -326H1372V-328H-112V-326ZM1373 -325V1225H1375V-325H1373ZM1372 1226H-112V1228H1372V1226ZM-113 1225V-325H-115V1225H-113ZM-112 1226C-112.552 1226 -113 1225.55 -113 1225H-115C-115 1226.66 -113.657 1228 -112 1228V1226ZM1373 1225C1373 1225.55 1372.55 1226 1372 1226V1228C1373.66 1228 1375 1226.66 1375 1225H1373ZM1372 -326C1372.55 -326 1373 -325.552 1373 -325H1375C1375 -326.657 1373.66 -328 1372 -328V-326ZM-112 -328C-113.657 -328 -115 -326.657 -115 -325H-113C-113 -325.552 -112.552 -326 -112 -326V-328Z" fill="black" fill-opacity="0.1"/>
<path d="M8 12L10.5347 14.2812C10.9662 14.6696 11.6366 14.6101 11.993 14.1519L16 9M18 2H6C3.79086 2 2 3.79086 2 6V18C2 20.2091 3.79086 22 6 22H18C20.2091 22 22 20.2091 22 18V6C22 3.79086 20.2091 2 18 2Z" stroke="#1A1A1A" stroke-width="1.5" stroke-linecap="round" stroke-linejoin="round"/>
</svg>
