<svg width="24" height="24" viewBox="0 0 24 24" fill="none" xmlns="http://www.w3.org/2000/svg">
<rect width="24" height="24" fill="#A6A6A6"/>
<path d="M-806 -325C-806 -326.105 -805.105 -327 -804 -327H680C681.105 -327 682 -326.105 682 -325V1225C682 1226.1 681.105 1227 680 1227H-804C-805.105 1227 -806 1226.1 -806 1225V-325Z" fill="white"/>
<path d="M-804 -326H680V-328H-804V-326ZM681 -325V1225H683V-325H681ZM680 1226H-804V1228H680V1226ZM-805 1225V-325H-807V1225H-805ZM-804 1226C-804.552 1226 -805 1225.55 -805 1225H-807C-807 1226.66 -805.657 1228 -804 1228V1226ZM681 1225C681 1225.55 680.552 1226 680 1226V1228C681.657 1228 683 1226.66 683 1225H681ZM680 -326C680.552 -326 681 -325.552 681 -325H683C683 -326.657 681.657 -328 680 -328V-326ZM-804 -328C-805.657 -328 -807 -326.657 -807 -325H-805C-805 -325.552 -804.552 -326 -804 -326V-328Z" fill="black" fill-opacity="0.1"/>
<path fill-rule="evenodd" clip-rule="evenodd" d="M18 2H6C3.79086 2 2 3.79086 2 6V18C2 20.2091 3.79086 22 6 22H18C20.2091 22 22 20.2091 22 18V6C22 3.79086 20.2091 2 18 2ZM16.592 9.46049C16.8463 9.13353 16.7874 8.66232 16.4605 8.40802C16.1335 8.15372 15.6623 8.21262 15.408 8.53958L11.401 13.6914C11.3119 13.806 11.1443 13.8209 11.0364 13.7238L8.50173 11.4426C8.19385 11.1655 7.71963 11.1904 7.44254 11.4983C7.16544 11.8062 7.1904 12.2804 7.49828 12.5575L10.033 14.8387C10.7881 15.5183 11.9613 15.4143 12.585 14.6123L16.592 9.46049Z" fill="#1A1A1A"/>
</svg>
