<svg width="24" height="24" viewBox="0 0 24 24" fill="none" xmlns="http://www.w3.org/2000/svg">
<rect width="24" height="24" fill="#A6A6A6"/>
<path d="M-922 -277C-922 -278.105 -921.105 -279 -920 -279H564C565.105 -279 566 -278.105 566 -277V1273C566 1274.1 565.105 1275 564 1275H-920C-921.105 1275 -922 1274.1 -922 1273V-277Z" fill="white"/>
<path d="M-920 -278H564V-280H-920V-278ZM565 -277V1273H567V-277H565ZM564 1274H-920V1276H564V1274ZM-921 1273V-277H-923V1273H-921ZM-920 1274C-920.552 1274 -921 1273.55 -921 1273H-923C-923 1274.66 -921.657 1276 -920 1276V1274ZM565 1273C565 1273.55 564.552 1274 564 1274V1276C565.657 1276 567 1274.66 567 1273H565ZM564 -278C564.552 -278 565 -277.552 565 -277H567C567 -278.657 565.657 -280 564 -280V-278ZM-920 -280C-921.657 -280 -923 -278.657 -923 -277H-921C-921 -277.552 -920.552 -278 -920 -278V-280Z" fill="black" fill-opacity="0.1"/>
<path fill-rule="evenodd" clip-rule="evenodd" d="M11.0455 3H12.9545C14.0089 3 14.8636 3.80589 14.8636 4.8C14.8636 5.93762 16.0808 6.66088 17.08 6.11698L17.1815 6.06174C18.0946 5.56468 19.2622 5.85966 19.7894 6.72058L20.7439 8.27943C21.2711 9.14036 20.9582 10.2412 20.0451 10.7383C19.0455 11.2824 19.0455 12.7176 20.0451 13.2617C20.9582 13.7588 21.2711 14.8596 20.7439 15.7206L19.7894 17.2794C19.2622 18.1403 18.0946 18.4353 17.1815 17.9383L17.08 17.883C16.0808 17.3391 14.8636 18.0624 14.8636 19.2C14.8636 20.1941 14.0089 21 12.9545 21H11.0455C9.99109 21 9.13635 20.1941 9.13635 19.2C9.13635 18.0624 7.91917 17.3391 6.92 17.883L6.81851 17.9383C5.90541 18.4353 4.73782 18.1404 4.21064 17.2794L3.25609 15.7206C2.72891 14.8597 3.04176 13.7588 3.95487 13.2617C4.95451 12.7176 4.95451 11.2824 3.95487 10.7383C3.04176 10.2412 2.72891 9.14034 3.25609 8.27942L4.21064 6.72057C4.73782 5.85964 5.90541 5.56467 6.81852 6.06172L6.92 6.11697C7.91917 6.66087 9.13635 5.93761 9.13635 4.8C9.13635 3.80589 9.99109 3 11.0455 3ZM12 15C13.6569 15 15 13.6569 15 12C15 10.3431 13.6569 9 12 9C10.3432 9 9.00001 10.3431 9.00001 12C9.00001 13.6569 10.3432 15 12 15Z" fill="#1A1A1A"/>
</svg>
