<svg width="24" height="24" viewBox="0 0 24 24" fill="none" xmlns="http://www.w3.org/2000/svg">
<rect width="24" height="24" fill="#A6A6A6"/>
<path d="M-578 -1024C-578 -1025.1 -577.105 -1026 -576 -1026H908C909.105 -1026 910 -1025.1 910 -1024V526C910 527.105 909.105 528 908 528H-576C-577.105 528 -578 527.105 -578 526V-1024Z" fill="white"/>
<path d="M-576 -1025H908V-1027H-576V-1025ZM909 -1024V526H911V-1024H909ZM908 527H-576V529H908V527ZM-577 526V-1024H-579V526H-577ZM-576 527C-576.552 527 -577 526.552 -577 526H-579C-579 527.657 -577.657 529 -576 529V527ZM909 526C909 526.552 908.552 527 908 527V529C909.657 529 911 527.657 911 526H909ZM908 -1025C908.552 -1025 909 -1024.55 909 -1024H911C911 -1025.66 909.657 -1027 908 -1027V-1025ZM-576 -1027C-577.657 -1027 -579 -1025.66 -579 -1024H-577C-577 -1024.55 -576.552 -1025 -576 -1025V-1027Z" fill="black" fill-opacity="0.1"/>
<circle cx="3" cy="3" r="3" transform="matrix(1 0 0 -1 9 12)" stroke="#1A1A1A" stroke-width="1.5" stroke-linejoin="round"/>
<path d="M18.9989 21.8743C20.7247 21.4306 22 19.8642 22 18V6C22 3.79086 20.2091 2 18 2H6C3.79086 2 2 3.79086 2 6V18C2 19.8642 3.27532 21.4306 5.00111 21.8743M18.9989 21.8743C18.6796 21.9563 18.3449 22 18 22H6C5.6551 22 5.32039 21.9563 5.00111 21.8743M18.9989 21.8743C18.9318 18.0663 15.824 15 12 15C8.17601 15 5.06818 18.0663 5.00111 21.8743" stroke="#1A1A1A" stroke-width="1.5"/>
</svg>
