<svg width="24" height="24" viewBox="0 0 24 24" fill="none" xmlns="http://www.w3.org/2000/svg">
<rect width="24" height="24" fill="#A6A6A6"/>
<path d="M-1270 -1024C-1270 -1025.1 -1269.1 -1026 -1268 -1026H216C217.105 -1026 218 -1025.1 218 -1024V526C218 527.105 217.105 528 216 528H-1268C-1269.1 528 -1270 527.105 -1270 526V-1024Z" fill="white"/>
<path d="M-1268 -1025H216V-1027H-1268V-1025ZM217 -1024V526H219V-1024H217ZM216 527H-1268V529H216V527ZM-1269 526V-1024H-1271V526H-1269ZM-1268 527C-1268.55 527 -1269 526.552 -1269 526H-1271C-1271 527.657 -1269.66 529 -1268 529V527ZM217 526C217 526.552 216.552 527 216 527V529C217.657 529 219 527.657 219 526H217ZM216 -1025C216.552 -1025 217 -1024.55 217 -1024H219C219 -1025.66 217.657 -1027 216 -1027V-1025ZM-1268 -1027C-1269.66 -1027 -1271 -1025.66 -1271 -1024H-1269C-1269 -1024.55 -1268.55 -1025 -1268 -1025V-1027Z" fill="black" fill-opacity="0.1"/>
<path fill-rule="evenodd" clip-rule="evenodd" d="M18 2H6C3.79086 2 2 3.79086 2 6V18C2 19.8642 3.27532 21.4306 5.00111 21.8743C5.32039 21.9563 5.6551 22 6 22H18C18.3449 22 18.6796 21.9563 18.9989 21.8743C20.7247 21.4306 22 19.8642 22 18V6C22 3.79086 20.2091 2 18 2ZM15 9C15 7.34315 13.6569 6 12 6C10.3431 6 9 7.34315 9 9C9 10.6569 10.3431 12 12 12C13.6569 12 15 10.6569 15 9ZM7.15257 17.0155C7.70085 15.2824 9.66322 14 12 14C14.3368 14 16.2991 15.2824 16.8474 17.0155C17.014 17.5421 16.5523 18 16 18H8C7.44772 18 6.98599 17.5421 7.15257 17.0155Z" fill="#1A1A1A"/>
</svg>
