<svg width="24" height="24" viewBox="0 0 24 24" fill="none" xmlns="http://www.w3.org/2000/svg">
<rect width="24" height="24" fill="#A6A6A6"/>
<path d="M-114 -1208C-114 -1209.1 -113.105 -1210 -112 -1210H1372C1373.1 -1210 1374 -1209.1 1374 -1208V342C1374 343.105 1373.1 344 1372 344H-112C-113.105 344 -114 343.105 -114 342V-1208Z" fill="white"/>
<path d="M-112 -1209H1372V-1211H-112V-1209ZM1373 -1208V342H1375V-1208H1373ZM1372 343H-112V345H1372V343ZM-113 342V-1208H-115V342H-113ZM-112 343C-112.552 343 -113 342.552 -113 342H-115C-115 343.657 -113.657 345 -112 345V343ZM1373 342C1373 342.552 1372.55 343 1372 343V345C1373.66 345 1375 343.657 1375 342H1373ZM1372 -1209C1372.55 -1209 1373 -1208.55 1373 -1208H1375C1375 -1209.66 1373.66 -1211 1372 -1211V-1209ZM-112 -1211C-113.657 -1211 -115 -1209.66 -115 -1208H-113C-113 -1208.55 -112.552 -1209 -112 -1209V-1211Z" fill="black" fill-opacity="0.1"/>
<path d="M5 5L19 19" stroke="#1A1A1A" stroke-width="1.5" stroke-linecap="round"/>
<path fill-rule="evenodd" clip-rule="evenodd" d="M10.5796 9.64026L9.25763 18.894C9.19905 19.3041 9.48398 19.684 9.89403 19.7426C10.3041 19.8011 10.684 19.5162 10.7426 19.1062L11.9054 10.9661L10.5796 9.64026ZM12.1706 9.10993L12.7426 5.10616C12.8011 4.69611 12.5162 4.31621 12.1062 4.25763C11.6961 4.19905 11.3162 4.48398 11.2576 4.89403L10.8448 7.78411L12.1706 9.10993Z" fill="#1A1A1A"/>
<path fill-rule="evenodd" clip-rule="evenodd" d="M5.4402 4.50086C5.3219 4.63345 5.25 4.80833 5.25 5C5.25 5.41421 5.58579 5.75 6 5.75H6.68934L5.4402 4.50086ZM8.81066 5.75H18C18.4142 5.75 18.75 5.41421 18.75 5C18.75 4.58579 18.4142 4.25 18 4.25H7.31066L8.81066 5.75Z" fill="#1A1A1A"/>
</svg>
