<svg width="24" height="24" viewBox="0 0 24 24" fill="none" xmlns="http://www.w3.org/2000/svg">
<rect width="24" height="24" fill="#A6A6A6"/>
<path d="M-806 -1208C-806 -1209.1 -805.105 -1210 -804 -1210H680C681.105 -1210 682 -1209.1 682 -1208V342C682 343.105 681.105 344 680 344H-804C-805.105 344 -806 343.105 -806 342V-1208Z" fill="white"/>
<path d="M-804 -1209H680V-1211H-804V-1209ZM681 -1208V342H683V-1208H681ZM680 343H-804V345H680V343ZM-805 342V-1208H-807V342H-805ZM-804 343C-804.552 343 -805 342.552 -805 342H-807C-807 343.657 -805.657 345 -804 345V343ZM681 342C681 342.552 680.552 343 680 343V345C681.657 345 683 343.657 683 342H681ZM680 -1209C680.552 -1209 681 -1208.55 681 -1208H683C683 -1209.66 681.657 -1211 680 -1211V-1209ZM-804 -1211C-805.657 -1211 -807 -1209.66 -807 -1208H-805C-805 -1208.55 -804.552 -1209 -804 -1209V-1211Z" fill="black" fill-opacity="0.1"/>
<path fill-rule="evenodd" clip-rule="evenodd" d="M18.4697 19.5306L11.6553 12.7162L10.7424 19.1062C10.6839 19.5162 10.304 19.8011 9.89391 19.7426C9.48386 19.684 9.19893 19.3041 9.25751 18.894L10.3295 11.3904L4.46967 5.53057C4.17678 5.23768 4.17678 4.76281 4.46967 4.46991C4.76256 4.17702 5.23744 4.17702 5.53033 4.46991L19.5303 18.4699C19.8232 18.7628 19.8232 19.2377 19.5303 19.5306C19.2374 19.8235 18.7626 19.8235 18.4697 19.5306ZM12.0182 4.25024H18C18.4142 4.25024 18.75 4.58603 18.75 5.00024C18.75 5.41446 18.4142 5.75024 18 5.75024H12.6504L12.1705 9.10993L10.8446 7.78411L11.1352 5.75024H8.81066L7.31066 4.25024H11.9799C11.9926 4.24992 12.0054 4.24992 12.0182 4.25024Z" fill="#1A1A1A"/>
</svg>
