<svg width="24" height="24" viewBox="0 0 24 24" fill="none" xmlns="http://www.w3.org/2000/svg">
<rect width="24" height="24" fill="#A6A6A6"/>
<path d="M-636 -373C-636 -374.105 -635.105 -375 -634 -375H850C851.105 -375 852 -374.105 852 -373V1177C852 1178.1 851.105 1179 850 1179H-634C-635.105 1179 -636 1178.1 -636 1177V-373Z" fill="white"/>
<path d="M-634 -374H850V-376H-634V-374ZM851 -373V1177H853V-373H851ZM850 1178H-634V1180H850V1178ZM-635 1177V-373H-637V1177H-635ZM-634 1178C-634.552 1178 -635 1177.55 -635 1177H-637C-637 1178.66 -635.657 1180 -634 1180V1178ZM851 1177C851 1177.55 850.552 1178 850 1178V1180C851.657 1180 853 1178.66 853 1177H851ZM850 -374C850.552 -374 851 -373.552 851 -373H853C853 -374.657 851.657 -376 850 -376V-374ZM-634 -376C-635.657 -376 -637 -374.657 -637 -373H-635C-635 -373.552 -634.552 -374 -634 -374V-376Z" fill="black" fill-opacity="0.1"/>
<path d="M19 17H17M19 7H17M7 7H5M7 17H5M6 20H18C20.2091 20 22 18.2091 22 16V8C22 5.79086 20.2091 4 18 4H6C3.79086 4 2 5.79086 2 8V16C2 18.2091 3.79086 20 6 20ZM14 12C14 13.1046 13.1046 14 12 14C10.8954 14 10 13.1046 10 12C10 10.8954 10.8954 10 12 10C13.1046 10 14 10.8954 14 12Z" stroke="#1A1A1A" stroke-width="1.5" stroke-linecap="round"/>
</svg>
