<svg width="24" height="24" viewBox="0 0 24 24" fill="none" xmlns="http://www.w3.org/2000/svg">
<rect width="24" height="24" fill="#A6A6A6"/>
<path d="M-1328 -373C-1328 -374.105 -1327.1 -375 -1326 -375H158C159.105 -375 160 -374.105 160 -373V1177C160 1178.1 159.105 1179 158 1179H-1326C-1327.1 1179 -1328 1178.1 -1328 1177V-373Z" fill="white"/>
<path d="M-1326 -374H158V-376H-1326V-374ZM159 -373V1177H161V-373H159ZM158 1178H-1326V1180H158V1178ZM-1327 1177V-373H-1329V1177H-1327ZM-1326 1178C-1326.55 1178 -1327 1177.55 -1327 1177H-1329C-1329 1178.66 -1327.66 1180 -1326 1180V1178ZM159 1177C159 1177.55 158.552 1178 158 1178V1180C159.657 1180 161 1178.66 161 1177H159ZM158 -374C158.552 -374 159 -373.552 159 -373H161C161 -374.657 159.657 -376 158 -376V-374ZM-1326 -376C-1327.66 -376 -1329 -374.657 -1329 -373H-1327C-1327 -373.552 -1326.55 -374 -1326 -374V-376Z" fill="black" fill-opacity="0.1"/>
<path fill-rule="evenodd" clip-rule="evenodd" d="M6 4C3.79086 4 2 5.79086 2 8V16C2 18.2091 3.79086 20 6 20H18C20.2091 20 22 18.2091 22 16V8C22 5.79086 20.2091 4 18 4H6ZM12 14C13.1046 14 14 13.1046 14 12C14 10.8954 13.1046 10 12 10C10.8954 10 10 10.8954 10 12C10 13.1046 10.8954 14 12 14ZM16.25 17C16.25 16.5858 16.5858 16.25 17 16.25H19C19.4142 16.25 19.75 16.5858 19.75 17C19.75 17.4142 19.4142 17.75 19 17.75H17C16.5858 17.75 16.25 17.4142 16.25 17ZM17 6.25C16.5858 6.25 16.25 6.58579 16.25 7C16.25 7.41421 16.5858 7.75 17 7.75H19C19.4142 7.75 19.75 7.41421 19.75 7C19.75 6.58579 19.4142 6.25 19 6.25H17ZM4.25 7C4.25 6.58579 4.58579 6.25 5 6.25H7C7.41421 6.25 7.75 6.58579 7.75 7C7.75 7.41421 7.41421 7.75 7 7.75H5C4.58579 7.75 4.25 7.41421 4.25 7ZM5 16.25C4.58579 16.25 4.25 16.5858 4.25 17C4.25 17.4142 4.58579 17.75 5 17.75H7C7.41421 17.75 7.75 17.4142 7.75 17C7.75 16.5858 7.41421 16.25 7 16.25H5Z" fill="#1A1A1A"/>
</svg>
