<svg width="24" height="24" viewBox="0 0 24 24" fill="none" xmlns="http://www.w3.org/2000/svg">
<rect width="24" height="24" fill="#A6A6A6"/>
<path d="M-288 -181C-288 -182.105 -287.105 -183 -286 -183H1198C1199.1 -183 1200 -182.105 1200 -181V1369C1200 1370.1 1199.1 1371 1198 1371H-286C-287.105 1371 -288 1370.1 -288 1369V-181Z" fill="white"/>
<path d="M-286 -182H1198V-184H-286V-182ZM1199 -181V1369H1201V-181H1199ZM1198 1370H-286V1372H1198V1370ZM-287 1369V-181H-289V1369H-287ZM-286 1370C-286.552 1370 -287 1369.55 -287 1369H-289C-289 1370.66 -287.657 1372 -286 1372V1370ZM1199 1369C1199 1369.55 1198.55 1370 1198 1370V1372C1199.66 1372 1201 1370.66 1201 1369H1199ZM1198 -182C1198.55 -182 1199 -181.552 1199 -181H1201C1201 -182.657 1199.66 -184 1198 -184V-182ZM-286 -184C-287.657 -184 -289 -182.657 -289 -181H-287C-287 -181.552 -286.552 -182 -286 -182V-184Z" fill="black" fill-opacity="0.1"/>
<path d="M3 21H21M13.7844 5.31171C13.7844 5.31171 13.7844 6.94634 15.419 8.58096C17.0537 10.2156 18.6883 10.2156 18.6883 10.2156M7.31963 17.9881L10.7523 17.4977C11.2475 17.4269 11.7064 17.1975 12.06 16.8438L20.3229 8.58096C21.2257 7.67818 21.2257 6.21449 20.3229 5.31171L18.6883 3.67708C17.7855 2.77431 16.3218 2.77431 15.419 3.67708L7.15616 11.94C6.80248 12.2936 6.57305 12.7525 6.50231 13.2477L6.01193 16.6804C5.90295 17.4432 6.5568 18.097 7.31963 17.9881Z" stroke="#1A1A1A" stroke-width="1.5" stroke-linecap="round"/>
</svg>
