<svg width="24" height="24" viewBox="0 0 24 24" fill="none" xmlns="http://www.w3.org/2000/svg">
<rect width="24" height="24" fill="#A6A6A6"/>
<path d="M-114 -38C-114 -39.1046 -113.105 -40 -112 -40H1372C1373.1 -40 1374 -39.1046 1374 -38V1512C1374 1513.1 1373.1 1514 1372 1514H-112C-113.105 1514 -114 1513.1 -114 1512V-38Z" fill="white"/>
<path d="M-112 -39H1372V-41H-112V-39ZM1373 -38V1512H1375V-38H1373ZM1372 1513H-112V1515H1372V1513ZM-113 1512V-38H-115V1512H-113ZM-112 1513C-112.552 1513 -113 1512.55 -113 1512H-115C-115 1513.66 -113.657 1515 -112 1515V1513ZM1373 1512C1373 1512.55 1372.55 1513 1372 1513V1515C1373.66 1515 1375 1513.66 1375 1512H1373ZM1372 -39C1372.55 -39 1373 -38.5523 1373 -38H1375C1375 -39.6569 1373.66 -41 1372 -41V-39ZM-112 -41C-113.657 -41 -115 -39.6569 -115 -38H-113C-113 -38.5523 -112.552 -39 -112 -39V-41Z" fill="black" fill-opacity="0.1"/>
<path fill-rule="evenodd" clip-rule="evenodd" d="M15.419 3.67708C16.3218 2.77431 17.7855 2.77431 18.6883 3.67708L20.3229 5.31171C21.2257 6.21449 21.2257 7.67818 20.3229 8.58096L18.8736 10.0303C18.7598 9.97394 18.6401 9.91302 18.516 9.84767C17.6806 9.40786 16.6892 8.79057 15.9493 8.05069C15.2095 7.31082 14.5922 6.31945 14.1524 5.48403C14.087 5.35989 14.0261 5.24018 13.9697 5.12639L15.419 3.67708ZM14.8887 9.11135C15.7642 9.98687 16.8777 10.6759 17.7595 11.1444L12.06 16.8438C11.7064 17.1975 11.2475 17.4269 10.7523 17.4977L7.31963 17.9881C6.5568 18.097 5.90295 17.4432 6.01193 16.6804L6.50231 13.2477C6.57305 12.7525 6.80248 12.2936 7.15616 11.94L12.8556 6.24053C13.3241 7.12234 14.0131 8.23582 14.8887 9.11135ZM3.75 19.5C3.33579 19.5 3 19.8358 3 20.25C3 20.6642 3.33579 21 3.75 21H20.25C20.6642 21 21 20.6642 21 20.25C21 19.8358 20.6642 19.5 20.25 19.5H3.75Z" fill="#1A1A1A"/>
</svg>
