<svg width="24" height="24" viewBox="0 0 24 24" fill="none" xmlns="http://www.w3.org/2000/svg">
<rect width="24" height="24" fill="#A6A6A6"/>
<path d="M-346 -709C-346 -710.105 -345.105 -711 -344 -711H1140C1141.1 -711 1142 -710.105 1142 -709V841C1142 842.105 1141.1 843 1140 843H-344C-345.105 843 -346 842.105 -346 841V-709Z" fill="white"/>
<path d="M-344 -710H1140V-712H-344V-710ZM1141 -709V841H1143V-709H1141ZM1140 842H-344V844H1140V842ZM-345 841V-709H-347V841H-345ZM-344 842C-344.552 842 -345 841.552 -345 841H-347C-347 842.657 -345.657 844 -344 844V842ZM1141 841C1141 841.552 1140.55 842 1140 842V844C1141.66 844 1143 842.657 1143 841H1141ZM1140 -710C1140.55 -710 1141 -709.552 1141 -709H1143C1143 -710.657 1141.66 -712 1140 -712V-710ZM-344 -712C-345.657 -712 -347 -710.657 -347 -709H-345C-345 -709.552 -344.552 -710 -344 -710V-712Z" fill="black" fill-opacity="0.1"/>
<path d="M16 8H8M16 8C18.2091 8 20 9.79086 20 12V18C20 20.2091 18.2091 22 16 22H8C5.79086 22 4 20.2091 4 18V12C4 9.79086 5.79086 8 8 8M16 8V6C16 3.79086 14.2091 2 12 2C9.79086 2 8 3.79086 8 6V8M12 16V14" stroke="#1A1A1A" stroke-width="1.5" stroke-linecap="round"/>
</svg>
