<svg width="24" height="24" viewBox="0 0 24 24" fill="none" xmlns="http://www.w3.org/2000/svg">
<rect width="24" height="24" fill="#A6A6A6"/>
<path d="M-1038 -709C-1038 -710.105 -1037.1 -711 -1036 -711H448C449.105 -711 450 -710.105 450 -709V841C450 842.105 449.105 843 448 843H-1036C-1037.1 843 -1038 842.105 -1038 841V-709Z" fill="white"/>
<path d="M-1036 -710H448V-712H-1036V-710ZM449 -709V841H451V-709H449ZM448 842H-1036V844H448V842ZM-1037 841V-709H-1039V841H-1037ZM-1036 842C-1036.55 842 -1037 841.552 -1037 841H-1039C-1039 842.657 -1037.66 844 -1036 844V842ZM449 841C449 841.552 448.552 842 448 842V844C449.657 844 451 842.657 451 841H449ZM448 -710C448.552 -710 449 -709.552 449 -709H451C451 -710.657 449.657 -712 448 -712V-710ZM-1036 -712C-1037.66 -712 -1039 -710.657 -1039 -709H-1037C-1037 -709.552 -1036.55 -710 -1036 -710V-712Z" fill="black" fill-opacity="0.1"/>
<path fill-rule="evenodd" clip-rule="evenodd" d="M8.75 6.75C8.75 4.95507 10.2051 3.5 12 3.5C13.7949 3.5 15.25 4.95507 15.25 6.75V8H8.75V6.75ZM7.25 8.0702V6.75C7.25 4.12665 9.37665 2 12 2C14.6234 2 16.75 4.12665 16.75 6.75V8.0702C18.6006 8.42125 20 10.0472 20 12V18C20 20.2091 18.2091 22 16 22H8C5.79086 22 4 20.2091 4 18V12C4 10.0472 5.39935 8.42125 7.25 8.0702ZM12 13.25C12.4142 13.25 12.75 13.5858 12.75 14V16C12.75 16.4142 12.4142 16.75 12 16.75C11.5858 16.75 11.25 16.4142 11.25 16V14C11.25 13.5858 11.5858 13.25 12 13.25Z" fill="#1A1A1A"/>
</svg>
