<svg width="24" height="24" viewBox="0 0 24 24" fill="none" xmlns="http://www.w3.org/2000/svg">
<rect width="24" height="24" fill="#A6A6A6"/>
<path d="M-980 -1256C-980 -1257.1 -979.105 -1258 -978 -1258H506C507.105 -1258 508 -1257.1 508 -1256V294C508 295.105 507.105 296 506 296H-978C-979.105 296 -980 295.105 -980 294V-1256Z" fill="white"/>
<path d="M-978 -1257H506V-1259H-978V-1257ZM507 -1256V294H509V-1256H507ZM506 295H-978V297H506V295ZM-979 294V-1256H-981V294H-979ZM-978 295C-978.552 295 -979 294.552 -979 294H-981C-981 295.657 -979.657 297 -978 297V295ZM507 294C507 294.552 506.552 295 506 295V297C507.657 297 509 295.657 509 294H507ZM506 -1257C506.552 -1257 507 -1256.55 507 -1256H509C509 -1257.66 507.657 -1259 506 -1259V-1257ZM-978 -1259C-979.657 -1259 -981 -1257.66 -981 -1256H-979C-979 -1256.55 -978.552 -1257 -978 -1257V-1259Z" fill="black" fill-opacity="0.1"/>
<path fill-rule="evenodd" clip-rule="evenodd" d="M9 5.25C8.58579 5.25 8.25 5.58579 8.25 6C8.25 6.41421 8.58579 6.75 9 6.75H15C15.4142 6.75 15.75 6.41421 15.75 6C15.75 5.58579 15.4142 5.25 15 5.25H9ZM6 9.25C5.58579 9.25 5.25 9.58579 5.25 10C5.25 10.4142 5.58579 10.75 6 10.75H18C18.4142 10.75 18.75 10.4142 18.75 10C18.75 9.58579 18.4142 9.25 18 9.25H6ZM8.25 14C8.25 13.5858 8.58579 13.25 9 13.25H15C15.4142 13.25 15.75 13.5858 15.75 14C15.75 14.4142 15.4142 14.75 15 14.75H9C8.58579 14.75 8.25 14.4142 8.25 14ZM6 17.25C5.58579 17.25 5.25 17.5858 5.25 18C5.25 18.4142 5.58579 18.75 6 18.75H18C18.4142 18.75 18.75 18.4142 18.75 18C18.75 17.5858 18.4142 17.25 18 17.25H6Z" fill="#1A1A1A"/>
</svg>
