<svg width="24" height="24" viewBox="0 0 24 24" fill="none" xmlns="http://www.w3.org/2000/svg">
<rect width="24" height="24" fill="#A6A6A6"/>
<path d="M-230 -421C-230 -422.105 -229.105 -423 -228 -423H1256C1257.1 -423 1258 -422.105 1258 -421V1129C1258 1130.1 1257.1 1131 1256 1131H-228C-229.105 1131 -230 1130.1 -230 1129V-421Z" fill="white"/>
<path d="M-228 -422H1256V-424H-228V-422ZM1257 -421V1129H1259V-421H1257ZM1256 1130H-228V1132H1256V1130ZM-229 1129V-421H-231V1129H-229ZM-228 1130C-228.552 1130 -229 1129.55 -229 1129H-231C-231 1130.66 -229.657 1132 -228 1132V1130ZM1257 1129C1257 1129.55 1256.55 1130 1256 1130V1132C1257.66 1132 1259 1130.66 1259 1129H1257ZM1256 -422C1256.55 -422 1257 -421.552 1257 -421H1259C1259 -422.657 1257.66 -424 1256 -424V-422ZM-228 -424C-229.657 -424 -231 -422.657 -231 -421H-229C-229 -421.552 -228.552 -422 -228 -422V-424Z" fill="black" fill-opacity="0.1"/>
<path d="M8 7H12M8 11H16M8 15H16M5 2H19C20.1046 2 21 2.89543 21 4V19.1543C21 20.5396 19.6259 21.5053 18.3226 21.0361L16.7608 20.4739C16.2728 20.2982 15.7356 20.319 15.2626 20.5318L12.8207 21.6307C12.2988 21.8655 11.7012 21.8655 11.1793 21.6307L8.73737 20.5318C8.26439 20.319 7.72721 20.2982 7.2392 20.4739L5.67744 21.0361C4.37412 21.5053 3 20.5396 3 19.1543V4C3 2.89543 3.89543 2 5 2Z" stroke="#1A1A1A" stroke-width="1.5" stroke-linecap="round"/>
</svg>
