<svg width="24" height="24" viewBox="0 0 24 24" fill="none" xmlns="http://www.w3.org/2000/svg">
<rect width="24" height="24" fill="#A6A6A6"/>
<path d="M-922 -421C-922 -422.105 -921.105 -423 -920 -423H564C565.105 -423 566 -422.105 566 -421V1129C566 1130.1 565.105 1131 564 1131H-920C-921.105 1131 -922 1130.1 -922 1129V-421Z" fill="white"/>
<path d="M-920 -422H564V-424H-920V-422ZM565 -421V1129H567V-421H565ZM564 1130H-920V1132H564V1130ZM-921 1129V-421H-923V1129H-921ZM-920 1130C-920.552 1130 -921 1129.55 -921 1129H-923C-923 1130.66 -921.657 1132 -920 1132V1130ZM565 1129C565 1129.55 564.552 1130 564 1130V1132C565.657 1132 567 1130.66 567 1129H565ZM564 -422C564.552 -422 565 -421.552 565 -421H567C567 -422.657 565.657 -424 564 -424V-422ZM-920 -424C-921.657 -424 -923 -422.657 -923 -421H-921C-921 -421.552 -920.552 -422 -920 -422V-424Z" fill="black" fill-opacity="0.1"/>
<path fill-rule="evenodd" clip-rule="evenodd" d="M5 2H19C20.1046 2 21 2.89543 21 4V19.1543C21 20.5396 19.6259 21.5053 18.3226 21.0361L16.7608 20.4739C16.2728 20.2982 15.7356 20.319 15.2626 20.5318L12.8207 21.6307C12.2988 21.8655 11.7012 21.8655 11.1793 21.6307L8.73737 20.5318C8.26439 20.319 7.72721 20.2982 7.2392 20.4739L5.67744 21.0361C4.37412 21.5053 3 20.5396 3 19.1543V4C3 2.89543 3.89543 2 5 2ZM8 6.25C7.58579 6.25 7.25 6.58579 7.25 7C7.25 7.41421 7.58579 7.75 8 7.75H12C12.4142 7.75 12.75 7.41421 12.75 7C12.75 6.58579 12.4142 6.25 12 6.25H8ZM8 10.25C7.58579 10.25 7.25 10.5858 7.25 11C7.25 11.4142 7.58579 11.75 8 11.75H16C16.4142 11.75 16.75 11.4142 16.75 11C16.75 10.5858 16.4142 10.25 16 10.25H8ZM8 14.25C7.58579 14.25 7.25 14.5858 7.25 15C7.25 15.4142 7.58579 15.75 8 15.75H16C16.4142 15.75 16.75 15.4142 16.75 15C16.75 14.5858 16.4142 14.25 16 14.25H8Z" fill="#1A1A1A"/>
</svg>
