<svg width="24" height="24" viewBox="0 0 24 24" fill="none" xmlns="http://www.w3.org/2000/svg">
<rect width="24" height="24" fill="#A6A6A6"/>
<path d="M-462 -133C-462 -134.105 -461.105 -135 -460 -135H1024C1025.1 -135 1026 -134.105 1026 -133V1417C1026 1418.1 1025.1 1419 1024 1419H-460C-461.105 1419 -462 1418.1 -462 1417V-133Z" fill="white"/>
<path d="M-460 -134H1024V-136H-460V-134ZM1025 -133V1417H1027V-133H1025ZM1024 1418H-460V1420H1024V1418ZM-461 1417V-133H-463V1417H-461ZM-460 1418C-460.552 1418 -461 1417.55 -461 1417H-463C-463 1418.66 -461.657 1420 -460 1420V1418ZM1025 1417C1025 1417.55 1024.55 1418 1024 1418V1420C1025.66 1420 1027 1418.66 1027 1417H1025ZM1024 -134C1024.55 -134 1025 -133.552 1025 -133H1027C1027 -134.657 1025.66 -136 1024 -136V-134ZM-460 -136C-461.657 -136 -463 -134.657 -463 -133H-461C-461 -133.552 -460.552 -134 -460 -134V-136Z" fill="black" fill-opacity="0.1"/>
<circle cx="12" cy="12" r="1" fill="#1A1A1A"/>
<path d="M17 12C17 14.7614 14.7614 17 12 17C9.23858 17 7 14.7614 7 12C7 9.23858 9.23858 7 12 7C14.7614 7 17 9.23858 17 12Z" stroke="#1A1A1A" stroke-width="1.5"/>
<path d="M22 12C22 17.5228 17.5228 22 12 22C6.47715 22 2 17.5228 2 12C2 6.47715 6.47715 2 12 2C17.5228 2 22 6.47715 22 12Z" stroke="#1A1A1A" stroke-width="1.5"/>
</svg>
