<svg width="24" height="24" viewBox="0 0 24 24" fill="none" xmlns="http://www.w3.org/2000/svg">
<rect width="24" height="24" fill="#A6A6A6"/>
<path d="M-1154 -133C-1154 -134.105 -1153.1 -135 -1152 -135H332C333.105 -135 334 -134.105 334 -133V1417C334 1418.1 333.105 1419 332 1419H-1152C-1153.1 1419 -1154 1418.1 -1154 1417V-133Z" fill="white"/>
<path d="M-1152 -134H332V-136H-1152V-134ZM333 -133V1417H335V-133H333ZM332 1418H-1152V1420H332V1418ZM-1153 1417V-133H-1155V1417H-1153ZM-1152 1418C-1152.55 1418 -1153 1417.55 -1153 1417H-1155C-1155 1418.66 -1153.66 1420 -1152 1420V1418ZM333 1417C333 1417.55 332.552 1418 332 1418V1420C333.657 1420 335 1418.66 335 1417H333ZM332 -134C332.552 -134 333 -133.552 333 -133H335C335 -134.657 333.657 -136 332 -136V-134ZM-1152 -136C-1153.66 -136 -1155 -134.657 -1155 -133H-1153C-1153 -133.552 -1152.55 -134 -1152 -134V-136Z" fill="black" fill-opacity="0.1"/>
<path fill-rule="evenodd" clip-rule="evenodd" d="M22 12C22 17.5228 17.5228 22 12 22C6.47715 22 2 17.5228 2 12C2 6.47715 6.47715 2 12 2C17.5228 2 22 6.47715 22 12ZM12 7.75C9.65279 7.75 7.75 9.65279 7.75 12C7.75 14.3472 9.65279 16.25 12 16.25C14.3472 16.25 16.25 14.3472 16.25 12C16.25 9.65279 14.3472 7.75 12 7.75ZM6.25 12C6.25 8.82436 8.82436 6.25 12 6.25C15.1756 6.25 17.75 8.82436 17.75 12C17.75 15.1756 15.1756 17.75 12 17.75C8.82436 17.75 6.25 15.1756 6.25 12ZM12 13C12.5523 13 13 12.5523 13 12C13 11.4477 12.5523 11 12 11C11.4477 11 11 11.4477 11 12C11 12.5523 11.4477 13 12 13Z" fill="#1A1A1A"/>
</svg>
