<svg width="24" height="24" viewBox="0 0 24 24" fill="none" xmlns="http://www.w3.org/2000/svg">
<rect width="24" height="24" fill="#A6A6A6"/>
<path d="M-1154 -565C-1154 -566.105 -1153.1 -567 -1152 -567H332C333.105 -567 334 -566.105 334 -565V985C334 986.105 333.105 987 332 987H-1152C-1153.1 987 -1154 986.105 -1154 985V-565Z" fill="white"/>
<path d="M-1152 -566H332V-568H-1152V-566ZM333 -565V985H335V-565H333ZM332 986H-1152V988H332V986ZM-1153 985V-565H-1155V985H-1153ZM-1152 986C-1152.55 986 -1153 985.552 -1153 985H-1155C-1155 986.657 -1153.66 988 -1152 988V986ZM333 985C333 985.552 332.552 986 332 986V988C333.657 988 335 986.657 335 985H333ZM332 -566C332.552 -566 333 -565.552 333 -565H335C335 -566.657 333.657 -568 332 -568V-566ZM-1152 -568C-1153.66 -568 -1155 -566.657 -1155 -565H-1153C-1153 -565.552 -1152.55 -566 -1152 -566V-568Z" fill="black" fill-opacity="0.1"/>
<path fill-rule="evenodd" clip-rule="evenodd" d="M12.8805 19.0636L4.7103 10.8935C3.41744 9.60061 3.9799 7.56217 5.66691 7.42659C6.41375 7.36658 7.10388 7.09971 7.66261 6.65488L10.7649 4.18504C12.4377 2.85325 14.792 2.74197 16.8256 3.73819L16.8989 3.66485C17.7854 2.77838 19.2226 2.77838 20.1091 3.66485C20.9956 4.55132 20.9956 5.98857 20.1091 6.87504L20.0358 6.94838C21.032 8.98197 20.9207 11.3363 19.5889 13.0091L17.1191 16.1113C16.6742 16.6701 16.4074 17.3602 16.3474 18.107C16.2118 19.794 14.1733 20.3565 12.8805 19.0636ZM11.4263 20.7164C10.3293 21.1204 9.0111 20.8517 8.0877 19.9284C7.16053 19.0012 6.89344 17.676 7.3047 16.5763C7.35008 16.4549 7.43885 16.3559 7.54824 16.2864C7.81195 16.1191 8.15647 16.1572 8.37732 16.378L11.6279 19.6286C11.8465 19.8472 11.8893 20.1862 11.7317 20.4523C11.6611 20.5715 11.5564 20.6685 11.4263 20.7164Z" fill="#1A1A1A"/>
</svg>
