<svg width="24" height="24" viewBox="0 0 24 24" fill="none" xmlns="http://www.w3.org/2000/svg">
<rect width="24" height="24" fill="#A6A6A6"/>
<path d="M-172 -229C-172 -230.105 -171.105 -231 -170 -231H1314C1315.1 -231 1316 -230.105 1316 -229V1321C1316 1322.1 1315.1 1323 1314 1323H-170C-171.105 1323 -172 1322.1 -172 1321V-229Z" fill="white"/>
<path d="M-170 -230H1314V-232H-170V-230ZM1315 -229V1321H1317V-229H1315ZM1314 1322H-170V1324H1314V1322ZM-171 1321V-229H-173V1321H-171ZM-170 1322C-170.552 1322 -171 1321.55 -171 1321H-173C-173 1322.66 -171.657 1324 -170 1324V1322ZM1315 1321C1315 1321.55 1314.55 1322 1314 1322V1324C1315.66 1324 1317 1322.66 1317 1321H1315ZM1314 -230C1314.55 -230 1315 -229.552 1315 -229H1317C1317 -230.657 1315.66 -232 1314 -232V-230ZM-170 -232C-171.657 -232 -173 -230.657 -173 -229H-171C-171 -229.552 -170.552 -230 -170 -230V-232Z" fill="black" fill-opacity="0.1"/>
<path d="M14.4042 9.59584L18.8 5.2M5.2 18.8L9.59583 14.4042M14.4042 14.4042L18.8 18.8M5.2 5.2L9.59583 9.59583M8.6 3.5H15.4C18.2167 3.5 20.5 5.78335 20.5 8.6V15.4C20.5 18.2167 18.2167 20.5 15.4 20.5H8.6C5.78335 20.5 3.5 18.2167 3.5 15.4V8.6C3.5 5.78335 5.78335 3.5 8.6 3.5ZM15.4 12C15.4 13.8778 13.8778 15.4 12 15.4C10.1222 15.4 8.6 13.8778 8.6 12C8.6 10.1222 10.1222 8.6 12 8.6C13.8778 8.6 15.4 10.1222 15.4 12Z" stroke="#1A1A1A" stroke-width="1.5" stroke-linecap="round"/>
</svg>
