<svg width="24" height="24" viewBox="0 0 24 24" fill="none" xmlns="http://www.w3.org/2000/svg">
<rect width="24" height="24" fill="#A6A6A6"/>
<path d="M-864 -229C-864 -230.105 -863.105 -231 -862 -231H622C623.105 -231 624 -230.105 624 -229V1321C624 1322.1 623.105 1323 622 1323H-862C-863.105 1323 -864 1322.1 -864 1321V-229Z" fill="white"/>
<path d="M-862 -230H622V-232H-862V-230ZM623 -229V1321H625V-229H623ZM622 1322H-862V1324H622V1322ZM-863 1321V-229H-865V1321H-863ZM-862 1322C-862.552 1322 -863 1321.55 -863 1321H-865C-865 1322.66 -863.657 1324 -862 1324V1322ZM623 1321C623 1321.55 622.552 1322 622 1322V1324C623.657 1324 625 1322.66 625 1321H623ZM622 -230C622.552 -230 623 -229.552 623 -229H625C625 -230.657 623.657 -232 622 -232V-230ZM-862 -232C-863.657 -232 -865 -230.657 -865 -229H-863C-863 -229.552 -862.552 -230 -862 -230V-232Z" fill="black" fill-opacity="0.1"/>
<path fill-rule="evenodd" clip-rule="evenodd" d="M16 2H8C6.61347 2 5.33678 2.47031 4.32077 3.26011L9.75178 8.69112C10.3925 8.25495 11.1665 8 12 8C12.8335 8 13.6075 8.25495 14.2482 8.69112L19.6792 3.26011C18.6632 2.47031 17.3865 2 16 2ZM20.7399 4.32077L15.3089 9.75178C15.745 10.3925 16 11.1665 16 12C16 12.8335 15.745 13.6075 15.3089 14.2482L20.7399 19.6792C21.5297 18.6632 22 17.3865 22 16V8C22 6.61347 21.5297 5.33678 20.7399 4.32077ZM19.6792 20.7399L14.2482 15.3089C13.6075 15.745 12.8335 16 12 16C11.1665 16 10.3925 15.745 9.75178 15.3089L4.32077 20.7399C5.33678 21.5297 6.61347 22 8 22H16C17.3865 22 18.6632 21.5297 19.6792 20.7399ZM3.26011 19.6792L8.69112 14.2482C8.25495 13.6075 8 12.8335 8 12C8 11.1665 8.25495 10.3925 8.69112 9.75178L3.26011 4.32077C2.47031 5.33678 2 6.61347 2 8V16C2 17.3865 2.47031 18.6632 3.26011 19.6792Z" fill="#1A1A1A"/>
</svg>
