<svg width="24" height="24" viewBox="0 0 24 24" fill="none" xmlns="http://www.w3.org/2000/svg">
<rect width="24" height="24" fill="#A6A6A6"/>
<path d="M-404 -613C-404 -614.105 -403.105 -615 -402 -615H1082C1083.1 -615 1084 -614.105 1084 -613V937C1084 938.105 1083.1 939 1082 939H-402C-403.105 939 -404 938.105 -404 937V-613Z" fill="white"/>
<path d="M-402 -614H1082V-616H-402V-614ZM1083 -613V937H1085V-613H1083ZM1082 938H-402V940H1082V938ZM-403 937V-613H-405V937H-403ZM-402 938C-402.552 938 -403 937.552 -403 937H-405C-405 938.657 -403.657 940 -402 940V938ZM1083 937C1083 937.552 1082.55 938 1082 938V940C1083.66 940 1085 938.657 1085 937H1083ZM1082 -614C1082.55 -614 1083 -613.552 1083 -613H1085C1085 -614.657 1083.66 -616 1082 -616V-614ZM-402 -616C-403.657 -616 -405 -614.657 -405 -613H-403C-403 -613.552 -402.552 -614 -402 -614V-616Z" fill="black" fill-opacity="0.1"/>
<path d="M19.5 16.7076L21.4217 18.6292C22.1928 19.4004 22.1928 20.6506 21.4217 21.4217C20.6506 22.1928 19.4004 22.1928 18.6293 21.4217L16.7076 19.5M2 10.5C2 5.80558 5.80558 2 10.5 2C15.1944 2 19 5.80558 19 10.5C19 15.1944 15.1944 19 10.5 19C5.80558 19 2 15.1944 2 10.5Z" stroke="#1A1A1A" stroke-width="1.5" stroke-linecap="round"/>
</svg>
