<svg width="24" height="24" viewBox="0 0 24 24" fill="none" xmlns="http://www.w3.org/2000/svg">
<rect width="24" height="24" fill="#A6A6A6"/>
<path d="M-1096 -613C-1096 -614.105 -1095.1 -615 -1094 -615H390C391.105 -615 392 -614.105 392 -613V937C392 938.105 391.105 939 390 939H-1094C-1095.1 939 -1096 938.105 -1096 937V-613Z" fill="white"/>
<path d="M-1094 -614H390V-616H-1094V-614ZM391 -613V937H393V-613H391ZM390 938H-1094V940H390V938ZM-1095 937V-613H-1097V937H-1095ZM-1094 938C-1094.55 938 -1095 937.552 -1095 937H-1097C-1097 938.657 -1095.66 940 -1094 940V938ZM391 937C391 937.552 390.552 938 390 938V940C391.657 940 393 938.657 393 937H391ZM390 -614C390.552 -614 391 -613.552 391 -613H393C393 -614.657 391.657 -616 390 -616V-614ZM-1094 -616C-1095.66 -616 -1097 -614.657 -1097 -613H-1095C-1095 -613.552 -1094.55 -614 -1094 -614V-616Z" fill="black" fill-opacity="0.1"/>
<path fill-rule="evenodd" clip-rule="evenodd" d="M18.25 10.5C18.25 14.7802 14.7802 18.25 10.5 18.25C6.21979 18.25 2.75 14.7802 2.75 10.5C2.75 6.21979 6.21979 2.75 10.5 2.75C14.7802 2.75 18.25 6.21979 18.25 10.5ZM10.5 19.75C15.6086 19.75 19.75 15.6086 19.75 10.5C19.75 5.39137 15.6086 1.25 10.5 1.25C5.39137 1.25 1.25 5.39137 1.25 10.5C1.25 15.6086 5.39137 19.75 10.5 19.75ZM21.4232 21.4217C20.6521 22.1928 19.4018 22.1928 18.6307 21.4217L16.7578 19.5488C17.848 18.7936 18.7951 17.8465 19.5502 16.7563L21.4232 18.6292C22.1943 19.4003 22.1943 20.6506 21.4232 21.4217Z" fill="#1A1A1A"/>
</svg>
