<svg width="24" height="24" viewBox="0 0 24 24" fill="none" xmlns="http://www.w3.org/2000/svg">
<rect width="24" height="24" fill="#A6A6A6"/>
<path d="M-864 -901C-864 -902.105 -863.105 -903 -862 -903H622C623.105 -903 624 -902.105 624 -901V649C624 650.105 623.105 651 622 651H-862C-863.105 651 -864 650.105 -864 649V-901Z" fill="white"/>
<path d="M-862 -902H622V-904H-862V-902ZM623 -901V649H625V-901H623ZM622 650H-862V652H622V650ZM-863 649V-901H-865V649H-863ZM-862 650C-862.552 650 -863 649.552 -863 649H-865C-865 650.657 -863.657 652 -862 652V650ZM623 649C623 649.552 622.552 650 622 650V652C623.657 652 625 650.657 625 649H623ZM622 -902C622.552 -902 623 -901.552 623 -901H625C625 -902.657 623.657 -904 622 -904V-902ZM-862 -904C-863.657 -904 -865 -902.657 -865 -901H-863C-863 -901.552 -862.552 -902 -862 -902V-904Z" fill="black" fill-opacity="0.1"/>
<path fill-rule="evenodd" clip-rule="evenodd" d="M9.92154 2.57125C11.2077 1.80958 12.7923 1.80958 14.0785 2.57125L18.9215 5.43932C20.2077 6.20099 21 7.6086 21 9.13192V14.8681C21 16.3914 20.2077 17.799 18.9215 18.5607L14.0785 21.4288C12.7923 22.1904 11.2077 22.1904 9.92154 21.4288L5.07846 18.5607C3.7923 17.799 3 16.3914 3 14.8681V9.13192C3 7.6086 3.7923 6.20099 5.07846 5.43932L9.92154 2.57125ZM13 7C13 7.55228 12.5523 8 12 8C11.4477 8 11 7.55228 11 7C11 6.44772 11.4477 6 12 6C12.5523 6 13 6.44772 13 7ZM11 9.25C10.5858 9.25 10.25 9.58579 10.25 10C10.25 10.4142 10.5858 10.75 11 10.75H11.25V17C11.25 17.4142 11.5858 17.75 12 17.75C12.4142 17.75 12.75 17.4142 12.75 17V10C12.75 9.58579 12.4142 9.25 12 9.25H11Z" fill="#1A1A1A"/>
</svg>
