<svg width="24" height="24" viewBox="0 0 24 24" fill="none" xmlns="http://www.w3.org/2000/svg">
<rect width="24" height="24" fill="#A6A6A6"/>
<path d="M-520 -277C-520 -278.105 -519.105 -279 -518 -279H966C967.105 -279 968 -278.105 968 -277V1273C968 1274.1 967.105 1275 966 1275H-518C-519.105 1275 -520 1274.1 -520 1273V-277Z" fill="white"/>
<path d="M-518 -278H966V-280H-518V-278ZM967 -277V1273H969V-277H967ZM966 1274H-518V1276H966V1274ZM-519 1273V-277H-521V1273H-519ZM-518 1274C-518.552 1274 -519 1273.55 -519 1273H-521C-521 1274.66 -519.657 1276 -518 1276V1274ZM967 1273C967 1273.55 966.552 1274 966 1274V1276C967.657 1276 969 1274.66 969 1273H967ZM966 -278C966.552 -278 967 -277.552 967 -277H969C969 -278.657 967.657 -280 966 -280V-278ZM-518 -280C-519.657 -280 -521 -278.657 -521 -277H-519C-519 -277.552 -518.552 -278 -518 -278V-280Z" fill="black" fill-opacity="0.1"/>
<path d="M15 16C15 16 13.875 15 12 15C10.125 15 9 16 9 16M17 10C17 10.5523 16.5523 11 16 11C15.4477 11 15 10.5523 15 10C15 9.44772 15.4477 9 16 9C16.5523 9 17 9.44772 17 10ZM9 10C9 10.5523 8.55228 11 8 11C7.44772 11 7 10.5523 7 10C7 9.44772 7.44772 9 8 9C8.55228 9 9 9.44772 9 10ZM22 12C22 17.5228 17.5228 22 12 22C6.47715 22 2 17.5228 2 12C2 6.47715 6.47715 2 12 2C17.5228 2 22 6.47715 22 12Z" stroke="#1A1A1A" stroke-width="1.5" stroke-linecap="round"/>
</svg>
