<svg width="24" height="24" viewBox="0 0 24 24" fill="none" xmlns="http://www.w3.org/2000/svg">
<rect width="24" height="24" fill="#A6A6A6"/>
<path d="M-520 -229C-520 -230.105 -519.105 -231 -518 -231H966C967.105 -231 968 -230.105 968 -229V1321C968 1322.1 967.105 1323 966 1323H-518C-519.105 1323 -520 1322.1 -520 1321V-229Z" fill="white"/>
<path d="M-518 -230H966V-232H-518V-230ZM967 -229V1321H969V-229H967ZM966 1322H-518V1324H966V1322ZM-519 1321V-229H-521V1321H-519ZM-518 1322C-518.552 1322 -519 1321.55 -519 1321H-521C-521 1322.66 -519.657 1324 -518 1324V1322ZM967 1321C967 1321.55 966.552 1322 966 1322V1324C967.657 1324 969 1322.66 969 1321H967ZM966 -230C966.552 -230 967 -229.552 967 -229H969C969 -230.657 967.657 -232 966 -232V-230ZM-518 -232C-519.657 -232 -521 -230.657 -521 -229H-519C-519 -229.552 -518.552 -230 -518 -230V-232Z" fill="black" fill-opacity="0.1"/>
<path d="M17 8V7C17 4.23858 14.7614 2 12 2C9.23858 2 7 4.23858 7 7V14C7 16.7614 9.23858 19 12 19C14.7614 19 17 16.7614 17 14V13M17 8H13M17 8V13M17 13H13M20 12V14C20 18.4183 16.4183 22 12 22C7.58172 22 4 18.4183 4 14V12" stroke="#1A1A1A" stroke-width="1.5" stroke-linecap="round"/>
</svg>
