<svg width="24" height="24" viewBox="0 0 24 24" fill="none" xmlns="http://www.w3.org/2000/svg">
<rect width="24" height="24" fill="#A6A6A6"/>
<path d="M-1212 -229C-1212 -230.105 -1211.1 -231 -1210 -231H274C275.105 -231 276 -230.105 276 -229V1321C276 1322.1 275.105 1323 274 1323H-1210C-1211.1 1323 -1212 1322.1 -1212 1321V-229Z" fill="white"/>
<path d="M-1210 -230H274V-232H-1210V-230ZM275 -229V1321H277V-229H275ZM274 1322H-1210V1324H274V1322ZM-1211 1321V-229H-1213V1321H-1211ZM-1210 1322C-1210.55 1322 -1211 1321.55 -1211 1321H-1213C-1213 1322.66 -1211.66 1324 -1210 1324V1322ZM275 1321C275 1321.55 274.552 1322 274 1322V1324C275.657 1324 277 1322.66 277 1321H275ZM274 -230C274.552 -230 275 -229.552 275 -229H277C277 -230.657 275.657 -232 274 -232V-230ZM-1210 -232C-1211.66 -232 -1213 -230.657 -1213 -229H-1211C-1211 -229.552 -1210.55 -230 -1210 -230V-232Z" fill="black" fill-opacity="0.1"/>
<path fill-rule="evenodd" clip-rule="evenodd" d="M7 7V14C7 16.7614 9.23858 19 12 19C14.7614 19 17 16.7614 17 14V13.75H13C12.5858 13.75 12.25 13.4142 12.25 13C12.25 12.5858 12.5858 12.25 13 12.25H17V8.75H13C12.5858 8.75 12.25 8.41421 12.25 8C12.25 7.58579 12.5858 7.25 13 7.25H17V7C17 4.23858 14.7614 2 12 2C9.23858 2 7 4.23858 7 7ZM4.75 12C4.75 11.5858 4.41421 11.25 4 11.25C3.58579 11.25 3.25 11.5858 3.25 12V14C3.25 18.8325 7.16751 22.75 12 22.75C16.8325 22.75 20.75 18.8325 20.75 14V12C20.75 11.5858 20.4142 11.25 20 11.25C19.5858 11.25 19.25 11.5858 19.25 12V14C19.25 18.0041 16.0041 21.25 12 21.25C7.99594 21.25 4.75 18.0041 4.75 14V12Z" fill="#1A1A1A"/>
</svg>
