<svg width="24" height="24" viewBox="0 0 24 24" fill="none" xmlns="http://www.w3.org/2000/svg">
<rect width="24" height="24" fill="#A6A6A6"/>
<path d="M-230 -181C-230 -182.105 -229.105 -183 -228 -183H1256C1257.1 -183 1258 -182.105 1258 -181V1369C1258 1370.1 1257.1 1371 1256 1371H-228C-229.105 1371 -230 1370.1 -230 1369V-181Z" fill="white"/>
<path d="M-228 -182H1256V-184H-228V-182ZM1257 -181V1369H1259V-181H1257ZM1256 1370H-228V1372H1256V1370ZM-229 1369V-181H-231V1369H-229ZM-228 1370C-228.552 1370 -229 1369.55 -229 1369H-231C-231 1370.66 -229.657 1372 -228 1372V1370ZM1257 1369C1257 1369.55 1256.55 1370 1256 1370V1372C1257.66 1372 1259 1370.66 1259 1369H1257ZM1256 -182C1256.55 -182 1257 -181.552 1257 -181H1259C1259 -182.657 1257.66 -184 1256 -184V-182ZM-228 -184C-229.657 -184 -231 -182.657 -231 -181H-229C-229 -181.552 -228.552 -182 -228 -182V-184Z" fill="black" fill-opacity="0.1"/>
<path d="M18.8188 2H5.18117C3.442 2 2.40466 3.91555 3.36937 5.34564L9.09107 12.8274C9.56799 13.5344 9.82249 14.3651 9.82249 15.2148V20.9219C9.82249 21.8805 10.9952 22.3605 11.6811 21.6827L13.8586 19.5307C14.0628 19.329 14.1775 19.0553 14.1775 18.7699V15.2148C14.1775 14.3651 14.432 13.5344 14.9089 12.8274L20.6306 5.34564C21.5953 3.91555 20.558 2 18.8188 2Z" stroke="#1A1A1A" stroke-width="1.5" stroke-linecap="round" stroke-linejoin="round"/>
</svg>
