<svg width="24" height="24" viewBox="0 0 24 24" fill="none" xmlns="http://www.w3.org/2000/svg">
<rect width="24" height="24" fill="#A6A6A6"/>
<path d="M-922 -181C-922 -182.105 -921.105 -183 -920 -183H564C565.105 -183 566 -182.105 566 -181V1369C566 1370.1 565.105 1371 564 1371H-920C-921.105 1371 -922 1370.1 -922 1369V-181Z" fill="white"/>
<path d="M-920 -182H564V-184H-920V-182ZM565 -181V1369H567V-181H565ZM564 1370H-920V1372H564V1370ZM-921 1369V-181H-923V1369H-921ZM-920 1370C-920.552 1370 -921 1369.55 -921 1369H-923C-923 1370.66 -921.657 1372 -920 1372V1370ZM565 1369C565 1369.55 564.552 1370 564 1370V1372C565.657 1372 567 1370.66 567 1369H565ZM564 -182C564.552 -182 565 -181.552 565 -181H567C567 -182.657 565.657 -184 564 -184V-182ZM-920 -184C-921.657 -184 -923 -182.657 -923 -181H-921C-921 -181.552 -920.552 -182 -920 -182V-184Z" fill="black" fill-opacity="0.1"/>
<path d="M18.8188 2H5.18117C3.442 2 2.40466 3.91555 3.36937 5.34564L9.09107 12.8274C9.56799 13.5344 9.82249 14.3651 9.82249 15.2148V20.9219C9.82249 21.8805 10.9952 22.3605 11.6811 21.6827L13.8586 19.5307C14.0628 19.329 14.1775 19.0553 14.1775 18.7699V15.2148C14.1775 14.3651 14.432 13.5344 14.9089 12.8274L20.6306 5.34564C21.5953 3.91555 20.558 2 18.8188 2Z" fill="#1A1A1A"/>
</svg>
