<svg width="84" height="72" viewBox="0 0 84 72" fill="none" xmlns="http://www.w3.org/2000/svg">
<circle cx="27.7328" cy="27.7328" r="27.2328" transform="matrix(0.978932 0.204187 0.312635 0.949873 0 7.19067)" fill="#E5EEFF" stroke="#1A1A1A"/>
<circle cx="27.7328" cy="27.7328" r="27.2328" transform="matrix(0.978932 0.204187 0.312635 0.949873 6.83398 0.798706)" fill="#E5EEFF" stroke="#1A1A1A"/>
<circle cx="20.5513" cy="20.5513" r="20.0513" transform="matrix(0.978932 0.204187 0.312635 0.949873 16.0996 9.18738)" fill="white" stroke="#1A1A1A"/>
<circle cx="14.3366" cy="14.3366" r="13.8366" transform="matrix(0.978932 0.204187 0.312635 0.949873 24.1113 16.3239)" fill="#E5EEFF" stroke="#1A1A1A"/>
<circle cx="8.95485" cy="8.95485" r="8.45485" transform="matrix(0.978932 0.204187 0.312635 0.949873 31.123 22.4589)" fill="white" stroke="#1A1A1A"/>
<path d="M75.7569 6.67823L75.7094 7.16055L76.19 7.22307L78.5231 7.52657L78.1082 7.85639L75.286 7.49709L75.5726 4.6666L75.9875 4.33677L75.7569 6.67823Z" fill="#669BFF" stroke="#1A1A1A"/>
<path d="M74.2842 7.84864L74.2367 8.33096L74.7173 8.39348L77.0505 8.69698L76.6355 9.0268L73.8133 8.6675L74.1 5.83701L74.5149 5.50718L74.2842 7.84864Z" fill="#669BFF" stroke="#1A1A1A"/>
<path d="M72.8116 9.01905L72.7641 9.50137L73.2447 9.56389L75.5778 9.86739L75.1629 10.1972L72.3407 9.83791L72.6273 7.00742L73.0422 6.67759L72.8116 9.01905Z" fill="#669BFF" stroke="#1A1A1A"/>
<rect x="77.6113" y="5.85284" width="41.429" height="0.347563" rx="0.173781" transform="rotate(141.519 77.6113 5.85284)" fill="#E5EEFF" stroke="#1A1A1A" stroke-width="0.347563"/>
<path d="M43.021 27.9774L42.4447 32.9614C42.4075 33.283 42.6378 33.5736 42.9587 33.6098L47.9308 34.1712C48.5848 34.245 49.2436 34.0541 49.759 33.6433C50.8299 32.7896 51.0136 31.2234 50.1629 30.1501C49.7536 29.6338 49.1561 29.3021 48.5023 29.2283L47.9187 29.1624C47.8973 29.16 47.8819 29.1406 47.8844 29.1192L47.952 28.5341C48.0278 27.8787 47.8404 27.2202 47.4311 26.7039C46.5803 25.6307 45.0172 25.4568 43.9462 26.3105C43.4309 26.7213 43.0968 27.3218 43.021 27.9774Z" fill="#669BFF" stroke="#1A1A1A"/>
<path d="M42.9987 28.0848L42.6471 31.8144L43.2506 28.9924C43.7865 26.4869 47.3764 26.5576 47.8107 29.0823C47.8152 29.1088 47.8535 29.1077 47.8566 29.0809L47.9102 28.6176C47.986 27.9622 47.7963 27.3009 47.387 26.7846C46.5405 25.7166 44.9849 25.5327 43.9192 26.3822C43.3942 26.8006 43.0618 27.4155 42.9987 28.0848Z" fill="#337AFF"/>
</svg>
