<svg width="24" height="24" viewBox="0 0 24 24" fill="none" xmlns="http://www.w3.org/2000/svg">
<rect width="24" height="24" fill="#A6A6A6"/>
<path d="M-578 -133C-578 -134.105 -577.105 -135 -576 -135H908C909.105 -135 910 -134.105 910 -133V1417C910 1418.1 909.105 1419 908 1419H-576C-577.105 1419 -578 1418.1 -578 1417V-133Z" fill="white"/>
<path d="M-576 -134H908V-136H-576V-134ZM909 -133V1417H911V-133H909ZM908 1418H-576V1420H908V1418ZM-577 1417V-133H-579V1417H-577ZM-576 1418C-576.552 1418 -577 1417.55 -577 1417H-579C-579 1418.66 -577.657 1420 -576 1420V1418ZM909 1417C909 1417.55 908.552 1418 908 1418V1420C909.657 1420 911 1418.66 911 1417H909ZM908 -134C908.552 -134 909 -133.552 909 -133H911C911 -134.657 909.657 -136 908 -136V-134ZM-576 -136C-577.657 -136 -579 -134.657 -579 -133H-577C-577 -133.552 -576.552 -134 -576 -134V-136Z" fill="black" fill-opacity="0.1"/>
<path d="M8 8V6C8 3.79086 9.79086 2 12 2L18 2C20.2091 2 22 3.79086 22 6V12C22 14.2091 20.2091 16 18 16H16M8 8H6C3.79086 8 2 9.79086 2 12V18C2 20.2091 3.79086 22 6 22H12C14.2091 22 16 20.2091 16 18V16M8 8H12C14.2091 8 16 9.79086 16 12V16M6 15L7.75282 16.4023C8.1707 16.7366 8.7777 16.6826 9.13009 16.2799L12 13" stroke="#1A1A1A" stroke-width="1.5" stroke-linecap="round" stroke-linejoin="round"/>
</svg>
