<svg width="24" height="24" viewBox="0 0 24 24" fill="none" xmlns="http://www.w3.org/2000/svg">
<rect width="24" height="24" fill="#A6A6A6"/>
<path d="M-1270 -133C-1270 -134.105 -1269.1 -135 -1268 -135H216C217.105 -135 218 -134.105 218 -133V1417C218 1418.1 217.105 1419 216 1419H-1268C-1269.1 1419 -1270 1418.1 -1270 1417V-133Z" fill="white"/>
<path d="M-1268 -134H216V-136H-1268V-134ZM217 -133V1417H219V-133H217ZM216 1418H-1268V1420H216V1418ZM-1269 1417V-133H-1271V1417H-1269ZM-1268 1418C-1268.55 1418 -1269 1417.55 -1269 1417H-1271C-1271 1418.66 -1269.66 1420 -1268 1420V1418ZM217 1417C217 1417.55 216.552 1418 216 1418V1420C217.657 1420 219 1418.66 219 1417H217ZM216 -134C216.552 -134 217 -133.552 217 -133H219C219 -134.657 217.657 -136 216 -136V-134ZM-1268 -136C-1269.66 -136 -1271 -134.657 -1271 -133H-1269C-1269 -133.552 -1268.55 -134 -1268 -134V-136Z" fill="black" fill-opacity="0.1"/>
<path fill-rule="evenodd" clip-rule="evenodd" d="M12.6429 6.5H8V6C8 3.79086 9.79086 2 12 2H18C20.2091 2 22 3.79086 22 6V12C22 14.2091 20.2091 16 18 16H17.5V11.3571C17.5 8.67462 15.3254 6.5 12.6429 6.5ZM6 22H12C14.2091 22 16 20.2091 16 18V12C16 9.79086 14.2091 8 12 8H6C3.79086 8 2 9.79086 2 12V18C2 20.2091 3.79086 22 6 22ZM12.4939 12.4356C12.8056 12.7083 12.8372 13.1822 12.5644 13.4939L9.69452 16.7738C9.07783 17.4786 8.01558 17.5729 7.2843 16.9879L5.53148 15.5857C5.20803 15.3269 5.15559 14.8549 5.41435 14.5315C5.6731 14.208 6.14507 14.1556 6.46852 14.4144L8.22134 15.8166C8.32581 15.9002 8.47756 15.8867 8.56566 15.786L11.4356 12.5061C11.7083 12.1944 12.1821 12.1628 12.4939 12.4356Z" fill="#1A1A1A"/>
</svg>
