<svg width="24" height="24" viewBox="0 0 24 24" fill="none" xmlns="http://www.w3.org/2000/svg">
<rect width="24" height="24" fill="#A6A6A6"/>
<path d="M-578 -565C-578 -566.105 -577.105 -567 -576 -567H908C909.105 -567 910 -566.105 910 -565V985C910 986.105 909.105 987 908 987H-576C-577.105 987 -578 986.105 -578 985V-565Z" fill="white"/>
<path d="M-576 -566H908V-568H-576V-566ZM909 -565V985H911V-565H909ZM908 986H-576V988H908V986ZM-577 985V-565H-579V985H-577ZM-576 986C-576.552 986 -577 985.552 -577 985H-579C-579 986.657 -577.657 988 -576 988V986ZM909 985C909 985.552 908.552 986 908 986V988C909.657 988 911 986.657 911 985H909ZM908 -566C908.552 -566 909 -565.552 909 -565H911C911 -566.657 909.657 -568 908 -568V-566ZM-576 -568C-577.657 -568 -579 -566.657 -579 -565H-577C-577 -565.552 -576.552 -566 -576 -566V-568Z" fill="black" fill-opacity="0.1"/>
<path d="M2 13L5.52642 15.8211C6.35374 16.483 7.55365 16.3848 8.2624 15.5973L16 7M8 13L11.5264 15.8211C12.3537 16.483 13.5536 16.3848 14.2624 15.5973L22 7" stroke="#1A1A1A" stroke-width="1.5" stroke-linecap="round" stroke-linejoin="round"/>
</svg>
