<svg width="24" height="24" viewBox="0 0 24 24" fill="none" xmlns="http://www.w3.org/2000/svg">
<rect width="24" height="24" fill="#A6A6A6"/>
<path d="M-1270 -565C-1270 -566.105 -1269.1 -567 -1268 -567H216C217.105 -567 218 -566.105 218 -565V985C218 986.105 217.105 987 216 987H-1268C-1269.1 987 -1270 986.105 -1270 985V-565Z" fill="white"/>
<path d="M-1268 -566H216V-568H-1268V-566ZM217 -565V985H219V-565H217ZM216 986H-1268V988H216V986ZM-1269 985V-565H-1271V985H-1269ZM-1268 986C-1268.55 986 -1269 985.552 -1269 985H-1271C-1271 986.657 -1269.66 988 -1268 988V986ZM217 985C217 985.552 216.552 986 216 986V988C217.657 988 219 986.657 219 985H217ZM216 -566C216.552 -566 217 -565.552 217 -565H219C219 -566.657 217.657 -568 216 -568V-566ZM-1268 -568C-1269.66 -568 -1271 -566.657 -1271 -565H-1269C-1269 -565.552 -1268.55 -566 -1268 -566V-568Z" fill="black" fill-opacity="0.1"/>
<path fill-rule="evenodd" clip-rule="evenodd" d="M16.5575 7.50173C16.8346 7.19385 16.8096 6.71963 16.5018 6.44254C16.1939 6.16544 15.7197 6.1904 15.4426 6.49828L9.42759 13.1816L8.46855 12.4144C8.1451 12.1556 7.67313 12.208 7.41438 12.5315C7.15562 12.8549 7.20806 13.3269 7.53151 13.5857L8.42244 14.2984L7.70496 15.0956C7.26199 15.5878 6.51204 15.6492 5.99497 15.2355L2.46855 12.4144C2.1451 12.1556 1.67313 12.208 1.41438 12.5315C1.15562 12.8549 1.20806 13.3269 1.53151 13.5857L5.05793 16.4068C6.19549 17.3168 7.84536 17.1819 8.8199 16.0991L9.59573 15.237L11.0579 16.4068C12.1955 17.3168 13.8454 17.1819 14.8199 16.0991L22.5575 7.50173C22.8346 7.19385 22.8096 6.71963 22.5018 6.44254C22.1939 6.16544 21.7197 6.1904 21.4426 6.49828L13.705 15.0956C13.262 15.5878 12.512 15.6492 11.995 15.2355L10.6009 14.1202L16.5575 7.50173Z" fill="#1A1A1A"/>
</svg>
