<svg width="24" height="24" viewBox="0 0 24 24" fill="none" xmlns="http://www.w3.org/2000/svg">
<rect width="24" height="24" fill="#A6A6A6"/>
<path d="M-636 -1160C-636 -1161.1 -635.105 -1162 -634 -1162H850C851.105 -1162 852 -1161.1 852 -1160V390C852 391.105 851.105 392 850 392H-634C-635.105 392 -636 391.105 -636 390V-1160Z" fill="white"/>
<path d="M-634 -1161H850V-1163H-634V-1161ZM851 -1160V390H853V-1160H851ZM850 391H-634V393H850V391ZM-635 390V-1160H-637V390H-635ZM-634 391C-634.552 391 -635 390.552 -635 390H-637C-637 391.657 -635.657 393 -634 393V391ZM851 390C851 390.552 850.552 391 850 391V393C851.657 393 853 391.657 853 390H851ZM850 -1161C850.552 -1161 851 -1160.55 851 -1160H853C853 -1161.66 851.657 -1163 850 -1163V-1161ZM-634 -1163C-635.657 -1163 -637 -1161.66 -637 -1160H-635C-635 -1160.55 -634.552 -1161 -634 -1161V-1163Z" fill="black" fill-opacity="0.1"/>
<path d="M6 5H18" stroke="#1A1A1A" stroke-width="1.5" stroke-linecap="round"/>
<path d="M4 12H20" stroke="#1A1A1A" stroke-width="1.5" stroke-linecap="round"/>
<path fill-rule="evenodd" clip-rule="evenodd" d="M12.75 5C12.75 4.58579 12.4142 4.25 12 4.25C11.5858 4.25 11.25 4.58579 11.25 5V10.25H12.75V5ZM12.75 11.75H11.25V19C11.25 19.4142 11.5858 19.75 12 19.75C12.4142 19.75 12.75 19.4142 12.75 19V11.75Z" fill="#1A1A1A"/>
</svg>
