<svg width="24" height="24" viewBox="0 0 24 24" fill="none" xmlns="http://www.w3.org/2000/svg">
<rect width="24" height="24" fill="#A6A6A6"/>
<path d="M-1328 -1160C-1328 -1161.1 -1327.1 -1162 -1326 -1162H158C159.105 -1162 160 -1161.1 160 -1160V390C160 391.105 159.105 392 158 392H-1326C-1327.1 392 -1328 391.105 -1328 390V-1160Z" fill="white"/>
<path d="M-1326 -1161H158V-1163H-1326V-1161ZM159 -1160V390H161V-1160H159ZM158 391H-1326V393H158V391ZM-1327 390V-1160H-1329V390H-1327ZM-1326 391C-1326.55 391 -1327 390.552 -1327 390H-1329C-1329 391.657 -1327.66 393 -1326 393V391ZM159 390C159 390.552 158.552 391 158 391V393C159.657 393 161 391.657 161 390H159ZM158 -1161C158.552 -1161 159 -1160.55 159 -1160H161C161 -1161.66 159.657 -1163 158 -1163V-1161ZM-1326 -1163C-1327.66 -1163 -1329 -1161.66 -1329 -1160H-1327C-1327 -1160.55 -1326.55 -1161 -1326 -1161V-1163Z" fill="black" fill-opacity="0.1"/>
<path fill-rule="evenodd" clip-rule="evenodd" d="M5.25 5C5.25 4.58579 5.58579 4.25 6 4.25H12H18C18.4142 4.25 18.75 4.58579 18.75 5C18.75 5.41421 18.4142 5.75 18 5.75H12.75V10.25H11.25V5.75H6C5.58579 5.75 5.25 5.41421 5.25 5ZM3.25 12C3.25 11.5858 3.58579 11.25 4 11.25H20C20.4142 11.25 20.75 11.5858 20.75 12C20.75 12.4142 20.4142 12.75 20 12.75H12.75V19C12.75 19.4142 12.4142 19.75 12 19.75C11.5858 19.75 11.25 19.4142 11.25 19V12.75H4C3.58579 12.75 3.25 12.4142 3.25 12Z" fill="#1A1A1A"/>
</svg>
