<svg width="24" height="24" viewBox="0 0 24 24" fill="none" xmlns="http://www.w3.org/2000/svg">
<rect width="24" height="24" fill="#A6A6A6"/>
<path d="M-288 -565C-288 -566.105 -287.105 -567 -286 -567H1198C1199.1 -567 1200 -566.105 1200 -565V985C1200 986.105 1199.1 987 1198 987H-286C-287.105 987 -288 986.105 -288 985V-565Z" fill="white"/>
<path d="M-286 -566H1198V-568H-286V-566ZM1199 -565V985H1201V-565H1199ZM1198 986H-286V988H1198V986ZM-287 985V-565H-289V985H-287ZM-286 986C-286.552 986 -287 985.552 -287 985H-289C-289 986.657 -287.657 988 -286 988V986ZM1199 985C1199 985.552 1198.55 986 1198 986V988C1199.66 988 1201 986.657 1201 985H1199ZM1198 -566C1198.55 -566 1199 -565.552 1199 -565H1201C1201 -566.657 1199.66 -568 1198 -568V-566ZM-286 -568C-287.657 -568 -289 -566.657 -289 -565H-287C-287 -565.552 -286.552 -566 -286 -566V-568Z" fill="black" fill-opacity="0.1"/>
<path d="M3.57721 2.46967C3.28431 2.17678 2.80944 2.17678 2.51654 2.46967C2.22365 2.76256 2.22365 3.23744 2.51654 3.53033L3.57721 2.46967ZM20.5165 21.5303C20.8094 21.8232 21.2843 21.8232 21.5772 21.5303C21.8701 21.2374 21.8701 20.7626 21.5772 20.4697L20.5165 21.5303ZM17.7754 18.75C18.1896 18.75 18.5254 18.4142 18.5254 18C18.5254 17.5858 18.1896 17.25 17.7754 17.25V18.75ZM18.2378 8.97519L17.4926 9.05977L18.2378 8.97519ZM18.685 12.9153L19.4302 12.8307V12.8307L18.685 12.9153ZM5.31151 12.9153L4.56629 12.8307V12.8307L5.31151 12.9153ZM5.75869 8.97519L6.50391 9.05977L5.75869 8.97519ZM4.44602 14.8721L3.87491 14.386L4.44602 14.8721ZM19.5504 14.8721L20.1216 14.386V14.386L19.5504 14.8721ZM14.2682 4.37366H13.5182C13.5182 4.69424 13.7219 4.97938 14.0252 5.08322L14.2682 4.37366ZM9.72828 4.37366L9.97123 5.08322C10.2745 4.97938 10.4783 4.69424 10.4783 4.37366H9.72828ZM19.247 15.9881C19.2685 16.4018 19.6214 16.7196 20.035 16.698C20.4487 16.6765 20.7665 16.3236 20.7449 15.91L19.247 15.9881ZM8.46623 4.1003C8.0988 4.29153 7.95596 4.74441 8.14718 5.11184C8.3384 5.47927 8.79128 5.62212 9.15872 5.43089L8.46623 4.1003ZM7.23032 7.11886C7.4624 6.77577 7.37241 6.3095 7.02932 6.07742C6.68623 5.84533 6.21996 5.93532 5.98788 6.27841L7.23032 7.11886ZM15.7005 20.2632C15.8459 19.8753 15.6493 19.4431 15.2614 19.2977C14.8736 19.1523 14.4413 19.3489 14.2959 19.7368L15.7005 20.2632ZM9.70053 19.7368C9.55517 19.3489 9.1229 19.1523 8.73503 19.2977C8.34716 19.4431 8.15057 19.8753 8.29593 20.2632L9.70053 19.7368ZM2.51654 3.53033L20.5165 21.5303L21.5772 20.4697L3.57721 2.46967L2.51654 3.53033ZM17.7754 17.25H6.22104V18.75H17.7754V17.25ZM17.4926 9.05977L17.9397 12.9998L19.4302 12.8307L18.983 8.89061L17.4926 9.05977ZM6.05672 12.9998L6.50391 9.05977L5.01348 8.89061L4.56629 12.8307L6.05672 12.9998ZM5.01712 15.3583C5.59444 14.6801 5.95851 13.8652 6.05672 12.9998L4.56629 12.8307C4.50342 13.3846 4.2689 13.9231 3.87491 14.386L5.01712 15.3583ZM17.9397 12.9998C18.0379 13.8652 18.402 14.6801 18.9793 15.3583L20.1216 14.386C19.7276 13.9231 19.493 13.3846 19.4302 12.8307L17.9397 12.9998ZM6.22104 17.25C5.566 17.25 5.10266 16.926 4.88879 16.5492C4.68232 16.1854 4.68537 15.748 5.01712 15.3583L3.87491 14.386C3.10964 15.285 3.086 16.4116 3.58421 17.2895C4.07502 18.1544 5.0477 18.75 6.22104 18.75V17.25ZM15.0182 4.37366V4.26995H13.5182V4.37366H15.0182ZM18.983 8.89061C18.7037 6.43026 16.8788 4.47476 14.5111 3.6641L14.0252 5.08322C15.9424 5.73962 17.2895 7.27101 17.4926 9.05977L18.983 8.89061ZM10.4783 4.37366V4.26995H8.97828V4.37366H10.4783ZM11.9982 2.75C12.8377 2.75 13.5182 3.4305 13.5182 4.26995H15.0182C15.0182 2.60208 13.6661 1.25 11.9982 1.25V2.75ZM11.9982 1.25C10.3304 1.25 8.97828 2.60208 8.97828 4.26995H10.4783C10.4783 3.4305 11.1588 2.75 11.9982 2.75V1.25ZM20.7449 15.91C20.7168 15.3717 20.5104 14.8428 20.1216 14.386L18.9793 15.3583C19.162 15.5729 19.2366 15.7901 19.247 15.9881L20.7449 15.91ZM9.15872 5.43089C9.41646 5.29676 9.68804 5.18018 9.97123 5.08322L9.48534 3.6641C9.13168 3.78519 8.791 3.93128 8.46623 4.1003L9.15872 5.43089ZM6.50391 9.05977C6.58362 8.35745 6.837 7.70031 7.23032 7.11886L5.98788 6.27841C5.46688 7.04862 5.12204 7.93412 5.01348 8.89061L6.50391 9.05977ZM14.2959 19.7368C13.9732 20.5979 13.0828 21.25 11.9982 21.25V22.75C13.6837 22.75 15.1499 21.7325 15.7005 20.2632L14.2959 19.7368ZM11.9982 21.25C10.9136 21.25 10.0232 20.5979 9.70053 19.7368L8.29593 20.2632C8.84658 21.7325 10.3128 22.75 11.9982 22.75V21.25Z" fill="#1A1A1A"/>
</svg>
