<svg width="24" height="24" viewBox="0 0 24 24" fill="none" xmlns="http://www.w3.org/2000/svg">
<rect width="24" height="24" fill="#A6A6A6"/>
<path d="M-980 -565C-980 -566.105 -979.105 -567 -978 -567H506C507.105 -567 508 -566.105 508 -565V985C508 986.105 507.105 987 506 987H-978C-979.105 987 -980 986.105 -980 985V-565Z" fill="white"/>
<path d="M-978 -566H506V-568H-978V-566ZM507 -565V985H509V-565H507ZM506 986H-978V988H506V986ZM-979 985V-565H-981V985H-979ZM-978 986C-978.552 986 -979 985.552 -979 985H-981C-981 986.657 -979.657 988 -978 988V986ZM507 985C507 985.552 506.552 986 506 986V988C507.657 988 509 986.657 509 985H507ZM506 -566C506.552 -566 507 -565.552 507 -565H509C509 -566.657 507.657 -568 506 -568V-566ZM-978 -568C-979.657 -568 -981 -566.657 -981 -565H-979C-979 -565.552 -978.552 -566 -978 -566V-568Z" fill="black" fill-opacity="0.1"/>
<path fill-rule="evenodd" clip-rule="evenodd" d="M18.685 12.9153L18.2378 8.97519C17.9966 6.85063 16.4106 5.10719 14.2682 4.37366V4.26995C14.2682 3.01629 13.2519 2 11.9982 2C10.7446 2 9.72828 3.01629 9.72828 4.26995V4.37366C9.40986 4.48269 9.10373 4.61402 8.81247 4.7656L19.9959 15.9491C19.9767 15.5809 19.8362 15.2078 19.5504 14.8721C19.0648 14.3016 18.7655 13.6249 18.685 12.9153ZM6.22104 18H16.9862L20.5165 21.5303C20.8094 21.8232 21.2843 21.8232 21.5772 21.5303C21.8701 21.2374 21.8701 20.7626 21.5772 20.4697L3.57721 2.46967C3.28431 2.17678 2.80944 2.17678 2.51654 2.46967C2.22365 2.76256 2.22365 3.23744 2.51654 3.53033L6.26694 7.28072C6.00212 7.80572 5.82678 8.37526 5.75869 8.97519L5.31151 12.9153C5.23097 13.6249 4.93167 14.3016 4.44602 14.8721C3.34899 16.1609 4.39266 18 6.22104 18ZM14.9721 20.0715C14.5147 21.1992 13.3565 22 12 22C10.6435 22 9.48526 21.1992 9.02789 20.0715C9.00883 20.0245 9 19.974 9 19.9233C9 19.6895 9.18951 19.5 9.42329 19.5H14.5767C14.8105 19.5 15 19.6895 15 19.9233C15 19.974 14.9912 20.0245 14.9721 20.0715Z" fill="#1A1A1A"/>
</svg>
