<svg width="24" height="24" viewBox="0 0 24 24" fill="none" xmlns="http://www.w3.org/2000/svg">
<rect width="24" height="24" fill="#A6A6A6"/>
<path d="M-462 -1256C-462 -1257.1 -461.105 -1258 -460 -1258H1024C1025.1 -1258 1026 -1257.1 1026 -1256V294C1026 295.105 1025.1 296 1024 296H-460C-461.105 296 -462 295.105 -462 294V-1256Z" fill="white"/>
<path d="M-460 -1257H1024V-1259H-460V-1257ZM1025 -1256V294H1027V-1256H1025ZM1024 295H-460V297H1024V295ZM-461 294V-1256H-463V294H-461ZM-460 295C-460.552 295 -461 294.552 -461 294H-463C-463 295.657 -461.657 297 -460 297V295ZM1025 294C1025 294.552 1024.55 295 1024 295V297C1025.66 297 1027 295.657 1027 294H1025ZM1024 -1257C1024.55 -1257 1025 -1256.55 1025 -1256H1027C1027 -1257.66 1025.66 -1259 1024 -1259V-1257ZM-460 -1259C-461.657 -1259 -463 -1257.66 -463 -1256H-461C-461 -1256.55 -460.552 -1257 -460 -1257V-1259Z" fill="black" fill-opacity="0.1"/>
<path d="M7 5H17" stroke="#1A1A1A" stroke-width="1.5" stroke-linecap="round"/>
<path d="M12 5V13" stroke="#1A1A1A" stroke-width="1.5" stroke-linecap="round"/>
<path d="M7 15L5 17M5 17L7 19M5 17L19 17M19 17L17 15M19 17L17 19" stroke="#1A1A1A" stroke-width="1.5" stroke-linecap="round" stroke-linejoin="round"/>
</svg>
