<svg width="24" height="24" viewBox="0 0 24 24" fill="none" xmlns="http://www.w3.org/2000/svg">
<rect width="24" height="24" fill="#A6A6A6"/>
<path d="M-230 -1256C-230 -1257.1 -229.105 -1258 -228 -1258H1256C1257.1 -1258 1258 -1257.1 1258 -1256V294C1258 295.105 1257.1 296 1256 296H-228C-229.105 296 -230 295.105 -230 294V-1256Z" fill="white"/>
<path d="M-228 -1257H1256V-1259H-228V-1257ZM1257 -1256V294H1259V-1256H1257ZM1256 295H-228V297H1256V295ZM-229 294V-1256H-231V294H-229ZM-228 295C-228.552 295 -229 294.552 -229 294H-231C-231 295.657 -229.657 297 -228 297V295ZM1257 294C1257 294.552 1256.55 295 1256 295V297C1257.66 297 1259 295.657 1259 294H1257ZM1256 -1257C1256.55 -1257 1257 -1256.55 1257 -1256H1259C1259 -1257.66 1257.66 -1259 1256 -1259V-1257ZM-228 -1259C-229.657 -1259 -231 -1257.66 -231 -1256H-229C-229 -1256.55 -228.552 -1257 -228 -1257V-1259Z" fill="black" fill-opacity="0.1"/>
<path d="M6 6H12" stroke="#1A1A1A" stroke-width="1.5" stroke-linecap="round"/>
<path d="M6 10H18" stroke="#1A1A1A" stroke-width="1.5" stroke-linecap="round"/>
<path d="M6 14H12" stroke="#1A1A1A" stroke-width="1.5" stroke-linecap="round"/>
<path d="M6 18H18" stroke="#1A1A1A" stroke-width="1.5" stroke-linecap="round"/>
</svg>
