<svg width="24" height="24" viewBox="0 0 24 24" fill="none" xmlns="http://www.w3.org/2000/svg">
<rect width="24" height="24" fill="#A6A6A6"/>
<path d="M-922 -1256C-922 -1257.1 -921.105 -1258 -920 -1258H564C565.105 -1258 566 -1257.1 566 -1256V294C566 295.105 565.105 296 564 296H-920C-921.105 296 -922 295.105 -922 294V-1256Z" fill="white"/>
<path d="M-920 -1257H564V-1259H-920V-1257ZM565 -1256V294H567V-1256H565ZM564 295H-920V297H564V295ZM-921 294V-1256H-923V294H-921ZM-920 295C-920.552 295 -921 294.552 -921 294H-923C-923 295.657 -921.657 297 -920 297V295ZM565 294C565 294.552 564.552 295 564 295V297C565.657 297 567 295.657 567 294H565ZM564 -1257C564.552 -1257 565 -1256.55 565 -1256H567C567 -1257.66 565.657 -1259 564 -1259V-1257ZM-920 -1259C-921.657 -1259 -923 -1257.66 -923 -1256H-921C-921 -1256.55 -920.552 -1257 -920 -1257V-1259Z" fill="black" fill-opacity="0.1"/>
<path fill-rule="evenodd" clip-rule="evenodd" d="M6 5.25C5.58579 5.25 5.25 5.58579 5.25 6C5.25 6.41421 5.58579 6.75 6 6.75H12C12.4142 6.75 12.75 6.41421 12.75 6C12.75 5.58579 12.4142 5.25 12 5.25H6ZM6 9.25C5.58579 9.25 5.25 9.58579 5.25 10C5.25 10.4142 5.58579 10.75 6 10.75H18C18.4142 10.75 18.75 10.4142 18.75 10C18.75 9.58579 18.4142 9.25 18 9.25H6ZM5.25 14C5.25 13.5858 5.58579 13.25 6 13.25H12C12.4142 13.25 12.75 13.5858 12.75 14C12.75 14.4142 12.4142 14.75 12 14.75H6C5.58579 14.75 5.25 14.4142 5.25 14ZM6 17.25C5.58579 17.25 5.25 17.5858 5.25 18C5.25 18.4142 5.58579 18.75 6 18.75H18C18.4142 18.75 18.75 18.4142 18.75 18C18.75 17.5858 18.4142 17.25 18 17.25H6Z" fill="#1A1A1A"/>
</svg>
