<svg width="24" height="24" viewBox="0 0 24 24" fill="none" xmlns="http://www.w3.org/2000/svg">
<rect width="24" height="24" fill="#A6A6A6"/>
<path d="M-578 -1304C-578 -1305.1 -577.105 -1306 -576 -1306H908C909.105 -1306 910 -1305.1 910 -1304V246C910 247.105 909.105 248 908 248H-576C-577.105 248 -578 247.105 -578 246V-1304Z" fill="white"/>
<path d="M-576 -1305H908V-1307H-576V-1305ZM909 -1304V246H911V-1304H909ZM908 247H-576V249H908V247ZM-577 246V-1304H-579V246H-577ZM-576 247C-576.552 247 -577 246.552 -577 246H-579C-579 247.657 -577.657 249 -576 249V247ZM909 246C909 246.552 908.552 247 908 247V249C909.657 249 911 247.657 911 246H909ZM908 -1305C908.552 -1305 909 -1304.55 909 -1304H911C911 -1305.66 909.657 -1307 908 -1307V-1305ZM-576 -1307C-577.657 -1307 -579 -1305.66 -579 -1304H-577C-577 -1304.55 -576.552 -1305 -576 -1305V-1307Z" fill="black" fill-opacity="0.1"/>
<path d="M12 3H17C19.2091 3 21 4.79086 21 7V8.82353M12 3H7C4.79086 3 3 4.79086 3 7V8.82353M12 3V21M12 21H7C4.79086 21 3 19.2091 3 17V15.1765M12 21H17C19.2091 21 21 19.2091 21 17V15.1765M3 15.1765H21M3 15.1765V11.4706V8.82353M21 15.1765V11.4706V8.82353M3 8.82353H21" stroke="#1A1A1A" stroke-width="1.5" stroke-linecap="round" stroke-linejoin="round"/>
</svg>
