<svg width="24" height="24" viewBox="0 0 24 24" fill="none" xmlns="http://www.w3.org/2000/svg">
<rect width="24" height="24" fill="#A6A6A6"/>
<path d="M-1270 -1304C-1270 -1305.1 -1269.1 -1306 -1268 -1306H216C217.105 -1306 218 -1305.1 218 -1304V246C218 247.105 217.105 248 216 248H-1268C-1269.1 248 -1270 247.105 -1270 246V-1304Z" fill="white"/>
<path d="M-1268 -1305H216V-1307H-1268V-1305ZM217 -1304V246H219V-1304H217ZM216 247H-1268V249H216V247ZM-1269 246V-1304H-1271V246H-1269ZM-1268 247C-1268.55 247 -1269 246.552 -1269 246H-1271C-1271 247.657 -1269.66 249 -1268 249V247ZM217 246C217 246.552 216.552 247 216 247V249C217.657 249 219 247.657 219 246H217ZM216 -1305C216.552 -1305 217 -1304.55 217 -1304H219C219 -1305.66 217.657 -1307 216 -1307V-1305ZM-1268 -1307C-1269.66 -1307 -1271 -1305.66 -1271 -1304H-1269C-1269 -1304.55 -1268.55 -1305 -1268 -1305V-1307Z" fill="black" fill-opacity="0.1"/>
<path fill-rule="evenodd" clip-rule="evenodd" d="M2.25 7C2.25 4.37665 4.37665 2.25 7 2.25H17C19.6234 2.25 21.75 4.37665 21.75 7V17C21.75 19.6234 19.6234 21.75 17 21.75H7C4.37665 21.75 2.25 19.6234 2.25 17V7ZM7 3.75C5.20507 3.75 3.75 5.20507 3.75 7V8.07353H11.25V3.75H7ZM12.75 3.75V8.07353H20.25V7C20.25 5.20507 18.7949 3.75 17 3.75H12.75ZM20.25 9.57353H12.75V14.4265H20.25V9.57353ZM20.25 15.9265H12.75V20.25H17C18.7949 20.25 20.25 18.7949 20.25 17V15.9265ZM11.25 20.25V15.9265H3.75V17C3.75 18.7949 5.20507 20.25 7 20.25H11.25ZM3.75 14.4265H11.25V9.57353H3.75V14.4265Z" fill="#1A1A1A"/>
</svg>
