<svg width="14" height="14" viewBox="0 0 14 14" fill="none" xmlns="http://www.w3.org/2000/svg">
<g id="Icon">
<path id="Vector" d="M1.75 4.08337H4.66667M11.0833 4.08337H12.25M11.0833 4.08337C11.0833 5.04987 10.2998 5.83337 9.33333 5.83337H8.16667C7.20017 5.83337 6.41667 5.04987 6.41667 4.08337C6.41667 3.11688 7.20017 2.33337 8.16667 2.33337L9.33333 2.33337C10.2998 2.33337 11.0833 3.11688 11.0833 4.08337ZM9.33333 9.91671H12.25M1.75 9.91671H2.91667M2.91667 9.91671C2.91667 10.8832 3.70017 11.6667 4.66667 11.6667H5.83333C6.79983 11.6667 7.58333 10.8832 7.58333 9.91671C7.58333 8.95021 6.79983 8.16671 5.83333 8.16671H4.66667C3.70017 8.16671 2.91667 8.95021 2.91667 9.91671Z" stroke="#7FACFF" stroke-width="1.5" stroke-linecap="round"/>
</g>
</svg>
