<svg width="24" height="24" viewBox="0 0 24 24" fill="none" xmlns="http://www.w3.org/2000/svg">
<rect width="24" height="24" fill="#A6A6A6"/>
<path d="M-288 -709C-288 -710.105 -287.105 -711 -286 -711H1198C1199.1 -711 1200 -710.105 1200 -709V841C1200 842.105 1199.1 843 1198 843H-286C-287.105 843 -288 842.105 -288 841V-709Z" fill="white"/>
<path d="M-286 -710H1198V-712H-286V-710ZM1199 -709V841H1201V-709H1199ZM1198 842H-286V844H1198V842ZM-287 841V-709H-289V841H-287ZM-286 842C-286.552 842 -287 841.552 -287 841H-289C-289 842.657 -287.657 844 -286 844V842ZM1199 841C1199 841.552 1198.55 842 1198 842V844C1199.66 844 1201 842.657 1201 841H1199ZM1198 -710C1198.55 -710 1199 -709.552 1199 -709H1201C1201 -710.657 1199.66 -712 1198 -712V-710ZM-286 -712C-287.657 -712 -289 -710.657 -289 -709H-287C-287 -709.552 -286.552 -710 -286 -710V-712Z" fill="black" fill-opacity="0.1"/>
<path d="M18 14L19.2929 12.7071C19.6834 12.3166 19.6834 11.6834 19.2929 11.2929L18 10" stroke="#1A1A1A" stroke-width="1.5" stroke-linecap="round" stroke-linejoin="round"/>
<path d="M19 12L13 12M4 17.2663V7.26633M16 17.2663C16 18.3709 15.1046 19.2663 14 19.2663H10M16 7.26633C16 6.16176 15.1046 5.26633 14 5.26633H10M4.8906 19.8601L6.8906 21.1934C8.21971 22.0795 10 21.1267 10 19.5293V5.00336C10 3.40597 8.21971 2.45319 6.8906 3.33926L4.8906 4.6726C4.3342 5.04353 4 5.66799 4 6.3367V18.196C4 18.8647 4.3342 19.4891 4.8906 19.8601Z" stroke="#1A1A1A" stroke-width="1.5" stroke-linecap="round"/>
</svg>
