<svg width="24" height="24" viewBox="0 0 24 24" fill="none" xmlns="http://www.w3.org/2000/svg">
<rect width="24" height="24" fill="#A6A6A6"/>
<path d="M-980 -709C-980 -710.105 -979.105 -711 -978 -711H506C507.105 -711 508 -710.105 508 -709V841C508 842.105 507.105 843 506 843H-978C-979.105 843 -980 842.105 -980 841V-709Z" fill="white"/>
<path d="M-978 -710H506V-712H-978V-710ZM507 -709V841H509V-709H507ZM506 842H-978V844H506V842ZM-979 841V-709H-981V841H-979ZM-978 842C-978.552 842 -979 841.552 -979 841H-981C-981 842.657 -979.657 844 -978 844V842ZM507 841C507 841.552 506.552 842 506 842V844C507.657 844 509 842.657 509 841H507ZM506 -710C506.552 -710 507 -709.552 507 -709H509C509 -710.657 507.657 -712 506 -712V-710ZM-978 -712C-979.657 -712 -981 -710.657 -981 -709H-979C-979 -709.552 -978.552 -710 -978 -710V-712Z" fill="black" fill-opacity="0.1"/>
<path fill-rule="evenodd" clip-rule="evenodd" d="M6.47458 2.71551C8.16252 1.59021 10.3797 2.62186 10.7085 4.51661H14C15.5188 4.51661 16.75 5.74783 16.75 7.26661C16.75 7.68083 16.4142 8.01661 16 8.01661C15.5858 8.01661 15.25 7.68083 15.25 7.26661C15.25 6.57626 14.6904 6.01661 14 6.01661H10.75V18.5166H14C14.6904 18.5166 15.25 17.957 15.25 17.2666C15.25 16.8524 15.5858 16.5166 16 16.5166C16.4142 16.5166 16.75 16.8524 16.75 17.2666C16.75 18.7854 15.5188 20.0166 14 20.0166H10.7085C10.3797 21.9114 8.16252 22.943 6.47458 21.8177L4.47457 20.4844C3.70953 19.9744 3.25 19.1157 3.25 18.1962V6.33698C3.25 5.41751 3.70953 4.55887 4.47457 4.04884L6.47458 2.71551ZM17.4697 14.5303C17.1768 14.2374 17.1768 13.7626 17.4697 13.4697L18.1893 12.75L13 12.75C12.5858 12.75 12.25 12.4142 12.25 12C12.25 11.5858 12.5858 11.25 13 11.25L18.1893 11.25L17.4697 10.5303C17.1768 10.2374 17.1768 9.76256 17.4697 9.46967C17.7626 9.17678 18.2374 9.17678 18.5303 9.46967L19.8232 10.7626C20.5066 11.446 20.5066 12.554 19.8232 13.2374L18.5303 14.5303C18.2374 14.8232 17.7626 14.8232 17.4697 14.5303Z" fill="#1A1A1A"/>
</svg>
