<svg width="24" height="24" viewBox="0 0 24 24" fill="none" xmlns="http://www.w3.org/2000/svg">
<rect width="24" height="24" fill="#A6A6A6"/>
<path d="M-578 -181C-578 -182.105 -577.105 -183 -576 -183H908C909.105 -183 910 -182.105 910 -181V1369C910 1370.1 909.105 1371 908 1371H-576C-577.105 1371 -578 1370.1 -578 1369V-181Z" fill="white"/>
<path d="M-576 -182H908V-184H-576V-182ZM909 -181V1369H911V-181H909ZM908 1370H-576V1372H908V1370ZM-577 1369V-181H-579V1369H-577ZM-576 1370C-576.552 1370 -577 1369.55 -577 1369H-579C-579 1370.66 -577.657 1372 -576 1372V1370ZM909 1369C909 1369.55 908.552 1370 908 1370V1372C909.657 1372 911 1370.66 911 1369H909ZM908 -182C908.552 -182 909 -181.552 909 -181H911C911 -182.657 909.657 -184 908 -184V-182ZM-576 -184C-577.657 -184 -579 -182.657 -579 -181H-577C-577 -181.552 -576.552 -182 -576 -182V-184Z" fill="black" fill-opacity="0.1"/>
<path d="M8.48521 15.5148L3 21M15.8288 15.3761L17.517 13.6879C17.8992 13.3057 18.4176 13.091 18.958 13.091C20.7736 13.091 21.6828 10.896 20.399 9.61217L14.3878 3.60096C13.104 2.31718 10.9089 3.22641 10.9089 5.04196C10.9089 5.58243 10.6942 6.10078 10.3121 6.48295L8.62383 8.17118C8.24165 8.55335 7.72331 8.76806 7.18283 8.76806C5.36728 8.76806 4.45804 10.9631 5.74183 12.2469L11.7531 18.2581C13.0368 19.5419 15.2319 18.6327 15.2319 16.8171C15.2319 16.2767 15.4466 15.7583 15.8288 15.3761Z" stroke="#1A1A1A" stroke-width="1.5" stroke-linecap="round"/>
</svg>
