<svg width="24" height="24" viewBox="0 0 24 24" fill="none" xmlns="http://www.w3.org/2000/svg">
<rect width="24" height="24" fill="#A6A6A6"/>
<path d="M-288 -38C-288 -39.1046 -287.105 -40 -286 -40H1198C1199.1 -40 1200 -39.1046 1200 -38V1512C1200 1513.1 1199.1 1514 1198 1514H-286C-287.105 1514 -288 1513.1 -288 1512V-38Z" fill="white"/>
<path d="M-286 -39H1198V-41H-286V-39ZM1199 -38V1512H1201V-38H1199ZM1198 1513H-286V1515H1198V1513ZM-287 1512V-38H-289V1512H-287ZM-286 1513C-286.552 1513 -287 1512.55 -287 1512H-289C-289 1513.66 -287.657 1515 -286 1515V1513ZM1199 1512C1199 1512.55 1198.55 1513 1198 1513V1515C1199.66 1515 1201 1513.66 1201 1512H1199ZM1198 -39C1198.55 -39 1199 -38.5523 1199 -38H1201C1201 -39.6569 1199.66 -41 1198 -41V-39ZM-286 -41C-287.657 -41 -289 -39.6569 -289 -38H-287C-287 -38.5523 -286.552 -39 -286 -39V-41Z" fill="black" fill-opacity="0.1"/>
<path fill-rule="evenodd" clip-rule="evenodd" d="M14.6523 3.57693C13.4199 2.34449 11.3126 3.21735 11.3126 4.96028C11.3126 5.47914 11.1065 5.97674 10.7396 6.34363L9.11887 7.96433C8.75198 8.33122 8.25438 8.53733 7.73552 8.53733C5.99259 8.53733 5.11972 10.6446 6.35216 11.877L8.72844 14.2533L3.21088 19.7709C2.92971 20.0521 2.92971 20.5079 3.21088 20.7891C3.49206 21.0703 3.94794 21.0703 4.22912 20.7891L9.74668 15.2716L12.1229 17.6478C13.3554 18.8802 15.4626 18.0074 15.4626 16.2645C15.4626 15.7456 15.6688 15.248 16.0357 14.8811L17.6564 13.2604C18.0232 12.8935 18.5209 12.6874 19.0397 12.6874C20.7826 12.6874 21.6555 10.5801 20.4231 9.34768L14.6523 3.57693Z" fill="#1A1A1A"/>
</svg>
