<svg width="24" height="24" viewBox="0 0 24 24" fill="none" xmlns="http://www.w3.org/2000/svg">
<rect width="24" height="24" fill="#A6A6A6"/>
<path d="M-230 -469C-230 -470.105 -229.105 -471 -228 -471H1256C1257.1 -471 1258 -470.105 1258 -469V1081C1258 1082.1 1257.1 1083 1256 1083H-228C-229.105 1083 -230 1082.1 -230 1081V-469Z" fill="white"/>
<path d="M-228 -470H1256V-472H-228V-470ZM1257 -469V1081H1259V-469H1257ZM1256 1082H-228V1084H1256V1082ZM-229 1081V-469H-231V1081H-229ZM-228 1082C-228.552 1082 -229 1081.55 -229 1081H-231C-231 1082.66 -229.657 1084 -228 1084V1082ZM1257 1081C1257 1081.55 1256.55 1082 1256 1082V1084C1257.66 1084 1259 1082.66 1259 1081H1257ZM1256 -470C1256.55 -470 1257 -469.552 1257 -469H1259C1259 -470.657 1257.66 -472 1256 -472V-470ZM-228 -472C-229.657 -472 -231 -470.657 -231 -469H-229C-229 -469.552 -228.552 -470 -228 -470V-472Z" fill="black" fill-opacity="0.1"/>
<path d="M22 14L19.061 11.8839C17.5338 10.7843 15.4467 10.898 14.0479 12.1569L9.95209 15.8431C8.55331 17.102 6.4662 17.2157 4.93901 16.1161L2 14M6 22H18C20.2091 22 22 20.2091 22 18V6C22 3.79086 20.2091 2 18 2H6C3.79086 2 2 3.79086 2 6V18C2 20.2091 3.79086 22 6 22ZM11 8.5C11 9.88071 9.88071 11 8.5 11C7.11929 11 6 9.88071 6 8.5C6 7.11929 7.11929 6 8.5 6C9.88071 6 11 7.11929 11 8.5Z" stroke="#1A1A1A" stroke-width="1.5" stroke-linecap="round"/>
</svg>
