<svg width="24" height="24" viewBox="0 0 24 24" fill="none" xmlns="http://www.w3.org/2000/svg">
<rect width="24" height="24" fill="#A6A6A6"/>
<path d="M-922 -469C-922 -470.105 -921.105 -471 -920 -471H564C565.105 -471 566 -470.105 566 -469V1081C566 1082.1 565.105 1083 564 1083H-920C-921.105 1083 -922 1082.1 -922 1081V-469Z" fill="white"/>
<path d="M-920 -470H564V-472H-920V-470ZM565 -469V1081H567V-469H565ZM564 1082H-920V1084H564V1082ZM-921 1081V-469H-923V1081H-921ZM-920 1082C-920.552 1082 -921 1081.55 -921 1081H-923C-923 1082.66 -921.657 1084 -920 1084V1082ZM565 1081C565 1081.55 564.552 1082 564 1082V1084C565.657 1084 567 1082.66 567 1081H565ZM564 -470C564.552 -470 565 -469.552 565 -469H567C567 -470.657 565.657 -472 564 -472V-470ZM-920 -472C-921.657 -472 -923 -470.657 -923 -469H-921C-921 -469.552 -920.552 -470 -920 -470V-472Z" fill="black" fill-opacity="0.1"/>
<path fill-rule="evenodd" clip-rule="evenodd" d="M2 6C2 3.79086 3.79086 2 6 2H18C20.2091 2 22 3.79086 22 6V12.449L19.7535 10.9786C18.019 9.84327 15.7486 9.96391 14.1442 11.2766L8.906 15.5624C7.80825 16.4606 6.25482 16.5431 5.06808 15.7663L2 13.7581V6ZM18.932 12.2336L22 14.2418V18C22 20.2091 20.2091 22 18 22H6C3.79086 22 2 20.2091 2 18V15.5509L4.24659 17.0214C5.98106 18.1567 8.25145 18.036 9.85585 16.7233L15.0941 12.4375C16.1918 11.5394 17.7452 11.4568 18.932 12.2336ZM8.5 11C9.88071 11 11 9.88071 11 8.5C11 7.11929 9.88071 6 8.5 6C7.11929 6 6 7.11929 6 8.5C6 9.88071 7.11929 11 8.5 11Z" fill="#1A1A1A"/>
</svg>
