<svg width="24" height="24" viewBox="0 0 24 24" fill="none" xmlns="http://www.w3.org/2000/svg">
<rect width="24" height="24" fill="#A6A6A6"/>
<path d="M-346 -757C-346 -758.105 -345.105 -759 -344 -759H1140C1141.1 -759 1142 -758.105 1142 -757V793C1142 794.105 1141.1 795 1140 795H-344C-345.105 795 -346 794.105 -346 793V-757Z" fill="white"/>
<path d="M-344 -758H1140V-760H-344V-758ZM1141 -757V793H1143V-757H1141ZM1140 794H-344V796H1140V794ZM-345 793V-757H-347V793H-345ZM-344 794C-344.552 794 -345 793.552 -345 793H-347C-347 794.657 -345.657 796 -344 796V794ZM1141 793C1141 793.552 1140.55 794 1140 794V796C1141.66 796 1143 794.657 1143 793H1141ZM1140 -758C1140.55 -758 1141 -757.552 1141 -757H1143C1143 -758.657 1141.66 -760 1140 -760V-758ZM-344 -760C-345.657 -760 -347 -758.657 -347 -757H-345C-345 -757.552 -344.552 -758 -344 -758V-760Z" fill="black" fill-opacity="0.1"/>
<path d="M11.5 7.5V15.5M15.5 11.5H7.5M22 22L18.5 18.5M21 11.5C21 16.7467 16.7467 21 11.5 21C6.25329 21 2 16.7467 2 11.5C2 6.25329 6.25329 2 11.5 2C16.7467 2 21 6.25329 21 11.5Z" stroke="#1A1A1A" stroke-width="1.5" stroke-linecap="round" stroke-linejoin="round"/>
</svg>
