<svg width="24" height="24" viewBox="0 0 24 24" fill="none" xmlns="http://www.w3.org/2000/svg">
<rect width="24" height="24" fill="#A6A6A6"/>
<path d="M-1038 -757C-1038 -758.105 -1037.1 -759 -1036 -759H448C449.105 -759 450 -758.105 450 -757V793C450 794.105 449.105 795 448 795H-1036C-1037.1 795 -1038 794.105 -1038 793V-757Z" fill="white"/>
<path d="M-1036 -758H448V-760H-1036V-758ZM449 -757V793H451V-757H449ZM448 794H-1036V796H448V794ZM-1037 793V-757H-1039V793H-1037ZM-1036 794C-1036.55 794 -1037 793.552 -1037 793H-1039C-1039 794.657 -1037.66 796 -1036 796V794ZM449 793C449 793.552 448.552 794 448 794V796C449.657 796 451 794.657 451 793H449ZM448 -758C448.552 -758 449 -757.552 449 -757H451C451 -758.657 449.657 -760 448 -760V-758ZM-1036 -760C-1037.66 -760 -1039 -758.657 -1039 -757H-1037C-1037 -757.552 -1036.55 -758 -1036 -758V-760Z" fill="black" fill-opacity="0.1"/>
<path fill-rule="evenodd" clip-rule="evenodd" d="M11.5 2.75C6.66751 2.75 2.75 6.66751 2.75 11.5C2.75 16.3325 6.66751 20.25 11.5 20.25C16.3325 20.25 20.25 16.3325 20.25 11.5C20.25 6.66751 16.3325 2.75 11.5 2.75ZM1.25 11.5C1.25 5.83908 5.83908 1.25 11.5 1.25C17.1609 1.25 21.75 5.83908 21.75 11.5C21.75 14.0605 20.8111 16.4017 19.2589 18.1982L22.5303 21.4697C22.8232 21.7626 22.8232 22.2374 22.5303 22.5303C22.2374 22.8232 21.7626 22.8232 21.4697 22.5303L18.1982 19.2589C16.4017 20.8111 14.0605 21.75 11.5 21.75C5.83908 21.75 1.25 17.1609 1.25 11.5ZM11.5 6.75C11.9142 6.75 12.25 7.08579 12.25 7.5V10.75H15.5C15.9142 10.75 16.25 11.0858 16.25 11.5C16.25 11.9142 15.9142 12.25 15.5 12.25H12.25V15.5C12.25 15.9142 11.9142 16.25 11.5 16.25C11.0858 16.25 10.75 15.9142 10.75 15.5V12.25H7.5C7.08579 12.25 6.75 11.9142 6.75 11.5C6.75 11.0858 7.08579 10.75 7.5 10.75H10.75V7.5C10.75 7.08579 11.0858 6.75 11.5 6.75Z" fill="#1A1A1A"/>
</svg>
