<svg width="24" height="24" viewBox="0 0 24 24" fill="none" xmlns="http://www.w3.org/2000/svg">
<rect width="24" height="24" fill="#A6A6A6"/>
<path d="M-980 -661C-980 -662.105 -979.105 -663 -978 -663H506C507.105 -663 508 -662.105 508 -661V889C508 890.105 507.105 891 506 891H-978C-979.105 891 -980 890.105 -980 889V-661Z" fill="white"/>
<path d="M-978 -662H506V-664H-978V-662ZM507 -661V889H509V-661H507ZM506 890H-978V892H506V890ZM-979 889V-661H-981V889H-979ZM-978 890C-978.552 890 -979 889.552 -979 889H-981C-981 890.657 -979.657 892 -978 892V890ZM507 889C507 889.552 506.552 890 506 890V892C507.657 892 509 890.657 509 889H507ZM506 -662C506.552 -662 507 -661.552 507 -661H509C509 -662.657 507.657 -664 506 -664V-662ZM-978 -664C-979.657 -664 -981 -662.657 -981 -661H-979C-979 -661.552 -978.552 -662 -978 -662V-664Z" fill="black" fill-opacity="0.1"/>
<path fill-rule="evenodd" clip-rule="evenodd" d="M4.94463 19.8165C6.03856 21.0471 7.96146 21.0471 9.05538 19.8165L10.5606 18.1231C10.8358 17.8135 10.8079 17.3395 10.4983 17.0643C10.1887 16.7891 9.71464 16.817 9.43945 17.1266L7.93427 18.8199C7.8774 18.8839 7.8156 18.9406 7.75 18.9899V5.00981C7.8156 5.05916 7.8774 5.11582 7.93427 5.1798L9.43945 6.87313C9.71464 7.18271 10.1887 7.2106 10.4983 6.93541C10.8079 6.66022 10.8358 6.18617 10.5606 5.87658L9.05538 4.18325C7.96146 2.95259 6.03856 2.95259 4.94463 4.18325L3.43945 5.87658C3.16426 6.18617 3.19215 6.66022 3.50174 6.93541C3.81132 7.2106 4.28538 7.18271 4.56056 6.87313L6.06575 5.1798C6.12261 5.11583 6.18441 5.05917 6.25 5.00983V18.9899C6.18441 18.9405 6.12261 18.8839 6.06575 18.8199L4.56056 17.1266C4.28538 16.817 3.81132 16.7891 3.50174 17.0643C3.19215 17.3395 3.16426 17.8135 3.43945 18.1231L4.94463 19.8165ZM14 7C14 5.34315 15.3431 4 17 4C18.6569 4 20 5.34315 20 7C20 8.65685 18.6569 10 17 10C15.3431 10 14 8.65685 14 7ZM14 17C14 15.3431 15.3431 14 17 14C18.6569 14 20 15.3431 20 17C20 18.6569 18.6569 20 17 20C15.3431 20 14 18.6569 14 17Z" fill="#1A1A1A"/>
</svg>
