<svg width="24" height="24" viewBox="0 0 24 24" fill="none" xmlns="http://www.w3.org/2000/svg">
<rect width="24" height="24" fill="#A6A6A6"/>
<path d="M-114 -661C-114 -662.105 -113.105 -663 -112 -663H1372C1373.1 -663 1374 -662.105 1374 -661V889C1374 890.105 1373.1 891 1372 891H-112C-113.105 891 -114 890.105 -114 889V-661Z" fill="white"/>
<path d="M-112 -662H1372V-664H-112V-662ZM1373 -661V889H1375V-661H1373ZM1372 890H-112V892H1372V890ZM-113 889V-661H-115V889H-113ZM-112 890C-112.552 890 -113 889.552 -113 889H-115C-115 890.657 -113.657 892 -112 892V890ZM1373 889C1373 889.552 1372.55 890 1372 890V892C1373.66 892 1375 890.657 1375 889H1373ZM1372 -662C1372.55 -662 1373 -661.552 1373 -661H1375C1375 -662.657 1373.66 -664 1372 -664V-662ZM-112 -664C-113.657 -664 -115 -662.657 -115 -661H-113C-113 -661.552 -112.552 -662 -112 -662V-664Z" fill="black" fill-opacity="0.1"/>
<path d="M12 17H21M12 11H18M12 5H15M3 14.625L4.50518 16.3183C5.30076 17.2134 6.69924 17.2134 7.49482 16.3183L9 14.625M6 17V5" stroke="#1A1A1A" stroke-width="1.5" stroke-linecap="round"/>
</svg>
