<svg width="24" height="24" viewBox="0 0 24 24" fill="none" xmlns="http://www.w3.org/2000/svg">
<rect width="24" height="24" fill="#A6A6A6"/>
<path d="M-806 -661C-806 -662.105 -805.105 -663 -804 -663H680C681.105 -663 682 -662.105 682 -661V889C682 890.105 681.105 891 680 891H-804C-805.105 891 -806 890.105 -806 889V-661Z" fill="white"/>
<path d="M-804 -662H680V-664H-804V-662ZM681 -661V889H683V-661H681ZM680 890H-804V892H680V890ZM-805 889V-661H-807V889H-805ZM-804 890C-804.552 890 -805 889.552 -805 889H-807C-807 890.657 -805.657 892 -804 892V890ZM681 889C681 889.552 680.552 890 680 890V892C681.657 892 683 890.657 683 889H681ZM680 -662C680.552 -662 681 -661.552 681 -661H683C683 -662.657 681.657 -664 680 -664V-662ZM-804 -664C-805.657 -664 -807 -662.657 -807 -661H-805C-805 -661.552 -804.552 -662 -804 -662V-664Z" fill="black" fill-opacity="0.1"/>
<path fill-rule="evenodd" clip-rule="evenodd" d="M6 17.75C6.05004 17.75 6.09894 17.7451 6.14624 17.7358C6.85087 17.6985 7.54378 17.3922 8.05538 16.8166L9.56056 15.1233C9.83575 14.8137 9.80787 14.3396 9.49828 14.0645C9.18869 13.7893 8.71464 13.8171 8.43945 14.1267L6.93427 15.8201C6.8774 15.884 6.8156 15.9407 6.75 15.99V5C6.75 4.58579 6.41421 4.25 6 4.25C5.58579 4.25 5.25 4.58579 5.25 5V15.99C5.18441 15.9407 5.12261 15.884 5.06575 15.8201L3.56056 14.1267C3.28538 13.8171 2.81132 13.7893 2.50174 14.0645C2.19215 14.3396 2.16426 14.8137 2.43945 15.1233L3.94463 16.8166C4.45623 17.3922 5.14913 17.6985 5.85376 17.7357C5.90106 17.7451 5.94996 17.75 6 17.75ZM11.25 5C11.25 4.58579 11.5858 4.25 12 4.25H15C15.4142 4.25 15.75 4.58579 15.75 5C15.75 5.41421 15.4142 5.75 15 5.75H12C11.5858 5.75 11.25 5.41421 11.25 5ZM12 11.75C11.5858 11.75 11.25 11.4142 11.25 11C11.25 10.5858 11.5858 10.25 12 10.25H18C18.4142 10.25 18.75 10.5858 18.75 11C18.75 11.4142 18.4142 11.75 18 11.75H12ZM12 17.75C11.5858 17.75 11.25 17.4142 11.25 17C11.25 16.5858 11.5858 16.25 12 16.25H21C21.4142 16.25 21.75 16.5858 21.75 17C21.75 17.4142 21.4142 17.75 21 17.75H12Z" fill="#1A1A1A"/>
</svg>
