<svg width="24" height="24" viewBox="0 0 24 24" fill="none" xmlns="http://www.w3.org/2000/svg">
<rect width="24" height="24" fill="#A6A6A6"/>
<path d="M-114 -229C-114 -230.105 -113.105 -231 -112 -231H1372C1373.1 -231 1374 -230.105 1374 -229V1321C1374 1322.1 1373.1 1323 1372 1323H-112C-113.105 1323 -114 1322.1 -114 1321V-229Z" fill="white"/>
<path d="M-112 -230H1372V-232H-112V-230ZM1373 -229V1321H1375V-229H1373ZM1372 1322H-112V1324H1372V1322ZM-113 1321V-229H-115V1321H-113ZM-112 1322C-112.552 1322 -113 1321.55 -113 1321H-115C-115 1322.66 -113.657 1324 -112 1324V1322ZM1373 1321C1373 1321.55 1372.55 1322 1372 1322V1324C1373.66 1324 1375 1322.66 1375 1321H1373ZM1372 -230C1372.55 -230 1373 -229.552 1373 -229H1375C1375 -230.657 1373.66 -232 1372 -232V-230ZM-112 -232C-113.657 -232 -115 -230.657 -115 -229H-113C-113 -229.552 -112.552 -230 -112 -230V-232Z" fill="black" fill-opacity="0.1"/>
<path d="M10.0328 3.27141C10.8375 1.5762 13.1625 1.57619 13.9672 3.27141L15.3579 6.20118C15.6774 6.87435 16.2951 7.34094 17.0096 7.44888L20.1193 7.91869C21.9187 8.19053 22.6371 10.4895 21.3351 11.8091L19.0849 14.0896C18.5679 14.6136 18.332 15.3685 18.454 16.1084L18.9852 19.3285C19.2926 21.1918 17.4116 22.6126 15.8022 21.7329L13.0208 20.2126C12.3817 19.8633 11.6183 19.8633 10.9792 20.2126L8.19776 21.7329C6.58839 22.6126 4.70742 21.1918 5.01479 19.3286L5.54599 16.1084C5.66804 15.3685 5.43211 14.6136 4.91508 14.0896L2.66488 11.8091C1.36287 10.4895 2.08133 8.19053 3.88066 7.91869L6.99037 7.44888C7.70489 7.34094 8.32257 6.87435 8.64211 6.20118L10.0328 3.27141Z" stroke="#1A1A1A" stroke-width="1.5" stroke-linejoin="round"/>
</svg>
