<svg width="24" height="24" viewBox="0 0 24 24" fill="none" xmlns="http://www.w3.org/2000/svg">
<rect width="24" height="24" fill="#A6A6A6"/>
<path d="M-806 -229C-806 -230.105 -805.105 -231 -804 -231H680C681.105 -231 682 -230.105 682 -229V1321C682 1322.1 681.105 1323 680 1323H-804C-805.105 1323 -806 1322.1 -806 1321V-229Z" fill="white"/>
<path d="M-804 -230H680V-232H-804V-230ZM681 -229V1321H683V-229H681ZM680 1322H-804V1324H680V1322ZM-805 1321V-229H-807V1321H-805ZM-804 1322C-804.552 1322 -805 1321.55 -805 1321H-807C-807 1322.66 -805.657 1324 -804 1324V1322ZM681 1321C681 1321.55 680.552 1322 680 1322V1324C681.657 1324 683 1322.66 683 1321H681ZM680 -230C680.552 -230 681 -229.552 681 -229H683C683 -230.657 681.657 -232 680 -232V-230ZM-804 -232C-805.657 -232 -807 -230.657 -807 -229H-805C-805 -229.552 -804.552 -230 -804 -230V-232Z" fill="black" fill-opacity="0.1"/>
<path d="M10.0328 3.27141C10.8375 1.5762 13.1625 1.5762 13.9672 3.27141L15.3579 6.20118C15.6774 6.87435 16.2951 7.34094 17.0096 7.44888L20.1193 7.91869C21.9187 8.19053 22.6371 10.4895 21.3351 11.8091L19.0849 14.0896C18.5679 14.6136 18.332 15.3685 18.454 16.1084L18.9852 19.3285C19.2926 21.1918 17.4116 22.6126 15.8022 21.7329L13.0208 20.2126C12.3817 19.8633 11.6183 19.8633 10.9792 20.2126L8.19776 21.7329C6.58839 22.6126 4.70742 21.1918 5.01479 19.3286L5.54599 16.1084C5.66804 15.3685 5.43211 14.6136 4.91508 14.0896L2.66488 11.8091C1.36287 10.4895 2.08133 8.19053 3.88066 7.91869L6.99037 7.44888C7.70489 7.34094 8.32257 6.87435 8.64211 6.20118L10.0328 3.27141Z" fill="#1A1A1A"/>
</svg>
