<svg width="24" height="24" viewBox="0 0 24 24" fill="none" xmlns="http://www.w3.org/2000/svg">
<rect width="24" height="24" fill="#A6A6A6"/>
<path d="M-346 -1304C-346 -1305.1 -345.105 -1306 -344 -1306H1140C1141.1 -1306 1142 -1305.1 1142 -1304V246C1142 247.105 1141.1 248 1140 248H-344C-345.105 248 -346 247.105 -346 246V-1304Z" fill="white"/>
<path d="M-344 -1305H1140V-1307H-344V-1305ZM1141 -1304V246H1143V-1304H1141ZM1140 247H-344V249H1140V247ZM-345 246V-1304H-347V246H-345ZM-344 247C-344.552 247 -345 246.552 -345 246H-347C-347 247.657 -345.657 249 -344 249V247ZM1141 246C1141 246.552 1140.55 247 1140 247V249C1141.66 249 1143 247.657 1143 246H1141ZM1140 -1305C1140.55 -1305 1141 -1304.55 1141 -1304H1143C1143 -1305.66 1141.66 -1307 1140 -1307V-1305ZM-344 -1307C-345.657 -1307 -347 -1305.66 -347 -1304H-345C-345 -1304.55 -344.552 -1305 -344 -1305V-1307Z" fill="black" fill-opacity="0.1"/>
<path d="M14.1211 9.87891L9.87845 14.1215" stroke="#1A1A1A" stroke-width="1.5" stroke-linecap="round"/>
<path d="M10.3359 7.00003L12.0026 5.33336C13.8435 3.49239 16.8283 3.49239 18.6693 5.33335V5.33335C20.5103 7.17431 20.5103 10.1591 18.6693 12.0001L17.0026 13.6667" stroke="#1A1A1A" stroke-width="1.5" stroke-linecap="round"/>
<path d="M13.6641 17L11.9974 18.6666C10.1565 20.5076 7.17167 20.5076 5.33071 18.6666V18.6666C3.48975 16.8257 3.48975 13.8409 5.33071 11.9999L6.99739 10.3333" stroke="#1A1A1A" stroke-width="1.5" stroke-linecap="round"/>
</svg>
