<svg width="24" height="24" viewBox="0 0 24 24" fill="none" xmlns="http://www.w3.org/2000/svg">
<rect width="24" height="24" fill="#A6A6A6"/>
<path d="M-1038 -1304C-1038 -1305.1 -1037.1 -1306 -1036 -1306H448C449.105 -1306 450 -1305.1 450 -1304V246C450 247.105 449.105 248 448 248H-1036C-1037.1 248 -1038 247.105 -1038 246V-1304Z" fill="white"/>
<path d="M-1036 -1305H448V-1307H-1036V-1305ZM449 -1304V246H451V-1304H449ZM448 247H-1036V249H448V247ZM-1037 246V-1304H-1039V246H-1037ZM-1036 247C-1036.55 247 -1037 246.552 -1037 246H-1039C-1039 247.657 -1037.66 249 -1036 249V247ZM449 246C449 246.552 448.552 247 448 247V249C449.657 249 451 247.657 451 246H449ZM448 -1305C448.552 -1305 449 -1304.55 449 -1304H451C451 -1305.66 449.657 -1307 448 -1307V-1305ZM-1036 -1307C-1037.66 -1307 -1039 -1305.66 -1039 -1304H-1037C-1037 -1304.55 -1036.55 -1305 -1036 -1305V-1307Z" fill="black" fill-opacity="0.1"/>
<path fill-rule="evenodd" clip-rule="evenodd" d="M18.1343 5.86369C16.5862 4.31562 14.0763 4.31562 12.5282 5.86369L10.8616 7.53036C10.5687 7.82326 10.0938 7.82326 9.8009 7.53036C9.50801 7.23747 9.50801 6.7626 9.8009 6.4697L11.4676 4.80303C13.6014 2.66917 17.0611 2.66917 19.1949 4.80303C21.3288 6.93688 21.3288 10.3965 19.1949 12.5304L17.5283 14.1971C17.2354 14.49 16.7605 14.49 16.4676 14.1971C16.1747 13.9042 16.1747 13.4293 16.4676 13.1364L18.1343 11.4697C19.6824 9.92167 19.6824 7.41175 18.1343 5.86369ZM14.6507 9.34858C14.9435 9.64147 14.9435 10.1163 14.6507 10.4092L10.408 14.6519C10.1151 14.9448 9.64025 14.9448 9.34735 14.6519C9.05446 14.359 9.05446 13.8841 9.34735 13.5912L13.59 9.34858C13.8829 9.05569 14.3578 9.05569 14.6507 9.34858ZM11.4702 18.1361C9.92216 19.6842 7.41224 19.6842 5.86418 18.1361C4.31611 16.588 4.31611 14.0781 5.86418 12.53L7.53085 10.8634C7.82375 10.5705 7.82374 10.0956 7.53085 9.80271C7.23796 9.50982 6.76309 9.50982 6.47019 9.80271L4.80352 11.4694C2.66966 13.6032 2.66966 17.0629 4.80352 19.1968C6.93737 21.3306 10.397 21.3306 12.5309 19.1968L14.1976 17.5301C14.4905 17.2372 14.4905 16.7623 14.1976 16.4694C13.9047 16.1765 13.4298 16.1765 13.1369 16.4694L11.4702 18.1361Z" fill="#1A1A1A"/>
</svg>
