<svg width="24" height="24" viewBox="0 0 24 24" fill="none" xmlns="http://www.w3.org/2000/svg">
<rect width="24" height="24" fill="#A6A6A6"/>
<path d="M-288 -421C-288 -422.105 -287.105 -423 -286 -423H1198C1199.1 -423 1200 -422.105 1200 -421V1129C1200 1130.1 1199.1 1131 1198 1131H-286C-287.105 1131 -288 1130.1 -288 1129V-421Z" fill="white"/>
<path d="M-286 -422H1198V-424H-286V-422ZM1199 -421V1129H1201V-421H1199ZM1198 1130H-286V1132H1198V1130ZM-287 1129V-421H-289V1129H-287ZM-286 1130C-286.552 1130 -287 1129.55 -287 1129H-289C-289 1130.66 -287.657 1132 -286 1132V1130ZM1199 1129C1199 1129.55 1198.55 1130 1198 1130V1132C1199.66 1132 1201 1130.66 1201 1129H1199ZM1198 -422C1198.55 -422 1199 -421.552 1199 -421H1201C1201 -422.657 1199.66 -424 1198 -424V-422ZM-286 -424C-287.657 -424 -289 -422.657 -289 -421H-287C-287 -421.552 -286.552 -422 -286 -422V-424Z" fill="black" fill-opacity="0.1"/>
<path d="M8 10H16M8 14H16M8 18H12M8 4C8 5.10457 8.89543 6 10 6H14C15.1046 6 16 5.10457 16 4M8 4C8 2.89543 8.89543 2 10 2H14C15.1046 2 16 2.89543 16 4M8 4H7C4.79086 4 3 5.79086 3 8V18C3 20.2091 4.79086 22 7 22H17C19.2091 22 21 20.2091 21 18V8C21 5.79086 19.2091 4 17 4H16" stroke="#1A1A1A" stroke-width="1.5" stroke-linecap="round"/>
</svg>
