<svg width="24" height="24" viewBox="0 0 24 24" fill="none" xmlns="http://www.w3.org/2000/svg">
<rect width="24" height="24" fill="#A6A6A6"/>
<path d="M-404 -181C-404 -182.105 -403.105 -183 -402 -183H1082C1083.1 -183 1084 -182.105 1084 -181V1369C1084 1370.1 1083.1 1371 1082 1371H-402C-403.105 1371 -404 1370.1 -404 1369V-181Z" fill="white"/>
<path d="M-402 -182H1082V-184H-402V-182ZM1083 -181V1369H1085V-181H1083ZM1082 1370H-402V1372H1082V1370ZM-403 1369V-181H-405V1369H-403ZM-402 1370C-402.552 1370 -403 1369.55 -403 1369H-405C-405 1370.66 -403.657 1372 -402 1372V1370ZM1083 1369C1083 1369.55 1082.55 1370 1082 1370V1372C1083.66 1372 1085 1370.66 1085 1369H1083ZM1082 -182C1082.55 -182 1083 -181.552 1083 -181H1085C1085 -182.657 1083.66 -184 1082 -184V-182ZM-402 -184C-403.657 -184 -405 -182.657 -405 -181H-403C-403 -181.552 -402.552 -182 -402 -182V-184Z" fill="black" fill-opacity="0.1"/>
<path d="M12 7V9M15 7.99963C16.2144 8.91184 17 10.3642 17 12C17 14.7614 14.7614 17 12 17C9.23858 17 7 14.7614 7 12C7 10.3642 7.78555 8.91184 9 7.99963M6 2H18C20.2091 2 22 3.79086 22 6V18C22 20.2091 20.2091 22 18 22H6C3.79086 22 2 20.2091 2 18V6C2 3.79086 3.79086 2 6 2Z" stroke="#1A1A1A" stroke-width="1.5" stroke-linecap="round"/>
</svg>
