<svg width="24" height="24" viewBox="0 0 24 24" fill="none" xmlns="http://www.w3.org/2000/svg">
<rect width="24" height="24" fill="#A6A6A6"/>
<path d="M-1096 -181C-1096 -182.105 -1095.1 -183 -1094 -183H390C391.105 -183 392 -182.105 392 -181V1369C392 1370.1 391.105 1371 390 1371H-1094C-1095.1 1371 -1096 1370.1 -1096 1369V-181Z" fill="white"/>
<path d="M-1094 -182H390V-184H-1094V-182ZM391 -181V1369H393V-181H391ZM390 1370H-1094V1372H390V1370ZM-1095 1369V-181H-1097V1369H-1095ZM-1094 1370C-1094.55 1370 -1095 1369.55 -1095 1369H-1097C-1097 1370.66 -1095.66 1372 -1094 1372V1370ZM391 1369C391 1369.55 390.552 1370 390 1370V1372C391.657 1372 393 1370.66 393 1369H391ZM390 -182C390.552 -182 391 -181.552 391 -181H393C393 -182.657 391.657 -184 390 -184V-182ZM-1094 -184C-1095.66 -184 -1097 -182.657 -1097 -181H-1095C-1095 -181.552 -1094.55 -182 -1094 -182V-184Z" fill="black" fill-opacity="0.1"/>
<path fill-rule="evenodd" clip-rule="evenodd" d="M18 2H6C3.79086 2 2 3.79086 2 6V18C2 20.2091 3.79086 22 6 22H18C20.2091 22 22 20.2091 22 18V6C22 3.79086 20.2091 2 18 2ZM12 6.25C12.4142 6.25 12.75 6.58579 12.75 7V9C12.75 9.41421 12.4142 9.75 12 9.75C11.5858 9.75 11.25 9.41421 11.25 9V7C11.25 6.58579 11.5858 6.25 12 6.25ZM9.45043 8.59935C9.78162 8.35058 9.84844 7.88044 9.59968 7.54924C9.35091 7.21805 8.88076 7.15124 8.54957 7.4C7.15464 8.44777 6.25 10.1184 6.25 12C6.25 15.1757 8.82436 17.75 12 17.75C15.1756 17.75 17.75 15.1757 17.75 12C17.75 10.1184 16.8454 8.44777 15.4504 7.4C15.1192 7.15124 14.6491 7.21805 14.4003 7.54924C14.1516 7.88044 14.2184 8.35058 14.5496 8.59935C15.5835 9.376 16.25 10.6101 16.25 12C16.25 14.3473 14.3472 16.25 12 16.25C9.65279 16.25 7.75 14.3473 7.75 12C7.75 10.6101 8.41646 9.376 9.45043 8.59935Z" fill="#1A1A1A"/>
</svg>
