<svg width="24" height="24" viewBox="0 0 24 24" fill="none" xmlns="http://www.w3.org/2000/svg">
<rect width="24" height="24" fill="#A6A6A6"/>
<path d="M-114 -565C-114 -566.105 -113.105 -567 -112 -567H1372C1373.1 -567 1374 -566.105 1374 -565V985C1374 986.105 1373.1 987 1372 987H-112C-113.105 987 -114 986.105 -114 985V-565Z" fill="white"/>
<path d="M-112 -566H1372V-568H-112V-566ZM1373 -565V985H1375V-565H1373ZM1372 986H-112V988H1372V986ZM-113 985V-565H-115V985H-113ZM-112 986C-112.552 986 -113 985.552 -113 985H-115C-115 986.657 -113.657 988 -112 988V986ZM1373 985C1373 985.552 1372.55 986 1372 986V988C1373.66 988 1375 986.657 1375 985H1373ZM1372 -566C1372.55 -566 1373 -565.552 1373 -565H1375C1375 -566.657 1373.66 -568 1372 -568V-566ZM-112 -568C-113.657 -568 -115 -566.657 -115 -565H-113C-113 -565.552 -112.552 -566 -112 -566V-568Z" fill="black" fill-opacity="0.1"/>
<path d="M11.0717 4.06949C8.26334 4.49348 6.01734 6.81294 5.67964 9.79403L5.33476 12.8385C5.24906 13.595 4.94246 14.3069 4.45549 14.88C3.42209 16.0964 4.26081 18 5.83014 18H18.1699C19.7392 18 20.5779 16.0964 19.5445 14.88C19.0575 14.3069 18.7509 13.595 18.6652 12.8385L18.4373 10.8267M15 20C14.5633 21.1652 13.385 22 12 22C10.615 22 9.43668 21.1652 9 20M20 5C20 6.65685 18.6569 8 17 8C15.3431 8 14 6.65685 14 5C14 3.34315 15.3431 2 17 2C18.6569 2 20 3.34315 20 5Z" stroke="#1A1A1A" stroke-width="1.5" stroke-linecap="round"/>
</svg>
