<svg width="24" height="24" viewBox="0 0 24 24" fill="none" xmlns="http://www.w3.org/2000/svg">
<rect width="24" height="24" fill="#A6A6A6"/>
<path d="M-806 -565C-806 -566.105 -805.105 -567 -804 -567H680C681.105 -567 682 -566.105 682 -565V985C682 986.105 681.105 987 680 987H-804C-805.105 987 -806 986.105 -806 985V-565Z" fill="white"/>
<path d="M-804 -566H680V-568H-804V-566ZM681 -565V985H683V-565H681ZM680 986H-804V988H680V986ZM-805 985V-565H-807V985H-805ZM-804 986C-804.552 986 -805 985.552 -805 985H-807C-807 986.657 -805.657 988 -804 988V986ZM681 985C681 985.552 680.552 986 680 986V988C681.657 988 683 986.657 683 985H681ZM680 -566C680.552 -566 681 -565.552 681 -565H683C683 -566.657 681.657 -568 680 -568V-566ZM-804 -568C-805.657 -568 -807 -566.657 -807 -565H-805C-805 -565.552 -804.552 -566 -804 -566V-568Z" fill="black" fill-opacity="0.1"/>
<path fill-rule="evenodd" clip-rule="evenodd" d="M20 5C20 6.65685 18.6569 8 17 8C15.3431 8 14 6.65685 14 5C14 3.34315 15.3431 2 17 2C18.6569 2 20 3.34315 20 5ZM18.3236 9.82292C17.902 9.93836 17.4582 10 17 10C14.2386 10 12 7.76142 12 5C12 4.65781 12.0344 4.32366 12.0999 4.00079C12.0666 4.00027 12.0333 4 12 4C8.77095 4 6.05382 6.49086 5.67964 9.79403L5.33476 12.8385C5.24906 13.595 4.94246 14.3069 4.45549 14.88C3.42209 16.0964 4.26081 18 5.83014 18H18.1699C19.7392 18 20.5779 16.0964 19.5445 14.88C19.0575 14.3069 18.7509 13.595 18.6652 12.8385L18.3236 9.82292ZM14.9721 20.0715C14.5147 21.1992 13.3565 22 12 22C10.6435 22 9.48526 21.1992 9.02789 20.0715C9.00883 20.0245 9 19.974 9 19.9233C9 19.6895 9.18951 19.5 9.42329 19.5H14.5767C14.8105 19.5 15 19.6895 15 19.9233C15 19.974 14.9912 20.0245 14.9721 20.0715Z" fill="#1A1A1A"/>
</svg>
