<svg width="24" height="24" viewBox="0 0 24 24" fill="none" xmlns="http://www.w3.org/2000/svg">
<rect width="24" height="24" fill="#A6A6A6"/>
<path d="M-922 -1208C-922 -1209.1 -921.105 -1210 -920 -1210H564C565.105 -1210 566 -1209.1 566 -1208V342C566 343.105 565.105 344 564 344H-920C-921.105 344 -922 343.105 -922 342V-1208Z" fill="white"/>
<path d="M-920 -1209H564V-1211H-920V-1209ZM565 -1208V342H567V-1208H565ZM564 343H-920V345H564V343ZM-921 342V-1208H-923V342H-921ZM-920 343C-920.552 343 -921 342.552 -921 342H-923C-923 343.657 -921.657 345 -920 345V343ZM565 342C565 342.552 564.552 343 564 343V345C565.657 345 567 343.657 567 342H565ZM564 -1209C564.552 -1209 565 -1208.55 565 -1208H567C567 -1209.66 565.657 -1211 564 -1211V-1209ZM-920 -1211C-921.657 -1211 -923 -1209.66 -923 -1208H-921C-921 -1208.55 -920.552 -1209 -920 -1209V-1211Z" fill="black" fill-opacity="0.1"/>
<path fill-rule="evenodd" clip-rule="evenodd" d="M9.0002 3.25C9.30297 3.25 9.57605 3.43205 9.6925 3.71154L14.6925 15.7115C14.8518 16.0939 14.671 16.533 14.2887 16.6923C13.9063 16.8516 13.4672 16.6708 13.3079 16.2885L11.8335 12.75H6.16686L4.6925 16.2885C4.53319 16.6708 4.09409 16.8516 3.71173 16.6923C3.32938 16.533 3.14858 16.0939 3.30789 15.7115L8.30789 3.71154C8.42434 3.43205 8.69742 3.25 9.0002 3.25ZM9.0002 5.95L11.2085 11.25H6.79186L9.0002 5.95ZM20.5454 14.515C20.8299 14.2138 20.8163 13.7392 20.5152 13.4547C20.214 13.1703 19.7393 13.1839 19.4549 13.485L14.4586 18.7753C14.3654 18.874 14.2105 18.8802 14.1096 18.7894L11.5019 16.4425C11.194 16.1654 10.7198 16.1904 10.4427 16.4983C10.1656 16.8062 10.1906 17.2804 10.4985 17.5575L13.1061 19.9044C13.8124 20.54 14.8967 20.496 15.5491 19.8052L20.5454 14.515Z" fill="#1A1A1A"/>
</svg>
