<svg width="24" height="24" viewBox="0 0 24 24" fill="none" xmlns="http://www.w3.org/2000/svg">
<rect width="24" height="24" fill="#A6A6A6"/>
<path d="M-404 -325C-404 -326.105 -403.105 -327 -402 -327H1082C1083.1 -327 1084 -326.105 1084 -325V1225C1084 1226.1 1083.1 1227 1082 1227H-402C-403.105 1227 -404 1226.1 -404 1225V-325Z" fill="white"/>
<path d="M-402 -326H1082V-328H-402V-326ZM1083 -325V1225H1085V-325H1083ZM1082 1226H-402V1228H1082V1226ZM-403 1225V-325H-405V1225H-403ZM-402 1226C-402.552 1226 -403 1225.55 -403 1225H-405C-405 1226.66 -403.657 1228 -402 1228V1226ZM1083 1225C1083 1225.55 1082.55 1226 1082 1226V1228C1083.66 1228 1085 1226.66 1085 1225H1083ZM1082 -326C1082.55 -326 1083 -325.552 1083 -325H1085C1085 -326.657 1083.66 -328 1082 -328V-326ZM-402 -328C-403.657 -328 -405 -326.657 -405 -325H-403C-403 -325.552 -402.552 -326 -402 -326V-328Z" fill="black" fill-opacity="0.1"/>
<path d="M8 12L10.5347 14.2812C10.9662 14.6696 11.6366 14.6101 11.993 14.1519L16 9M12 22C17.5228 22 22 17.5228 22 12C22 6.47715 17.5228 2 12 2C6.47715 2 2 6.47715 2 12C2 17.5228 6.47715 22 12 22Z" stroke="#1A1A1A" stroke-width="1.5" stroke-linecap="round" stroke-linejoin="round"/>
</svg>
