<svg width="24" height="24" viewBox="0 0 24 24" fill="none" xmlns="http://www.w3.org/2000/svg">
<rect width="24" height="24" fill="#A6A6A6"/>
<path d="M-1096 -325C-1096 -326.105 -1095.1 -327 -1094 -327H390C391.105 -327 392 -326.105 392 -325V1225C392 1226.1 391.105 1227 390 1227H-1094C-1095.1 1227 -1096 1226.1 -1096 1225V-325Z" fill="white"/>
<path d="M-1094 -326H390V-328H-1094V-326ZM391 -325V1225H393V-325H391ZM390 1226H-1094V1228H390V1226ZM-1095 1225V-325H-1097V1225H-1095ZM-1094 1226C-1094.55 1226 -1095 1225.55 -1095 1225H-1097C-1097 1226.66 -1095.66 1228 -1094 1228V1226ZM391 1225C391 1225.55 390.552 1226 390 1226V1228C391.657 1228 393 1226.66 393 1225H391ZM390 -326C390.552 -326 391 -325.552 391 -325H393C393 -326.657 391.657 -328 390 -328V-326ZM-1094 -328C-1095.66 -328 -1097 -326.657 -1097 -325H-1095C-1095 -325.552 -1094.55 -326 -1094 -326V-328Z" fill="black" fill-opacity="0.1"/>
<path fill-rule="evenodd" clip-rule="evenodd" d="M12 22C17.5228 22 22 17.5228 22 12C22 6.47715 17.5228 2 12 2C6.47715 2 2 6.47715 2 12C2 17.5228 6.47715 22 12 22ZM16.592 9.46049C16.8463 9.13353 16.7874 8.66232 16.4605 8.40802C16.1335 8.15372 15.6623 8.21262 15.408 8.53958L11.401 13.6914C11.3119 13.806 11.1443 13.8209 11.0364 13.7238L8.50173 11.4426C8.19385 11.1655 7.71963 11.1904 7.44254 11.4983C7.16544 11.8062 7.1904 12.2804 7.49828 12.5575L10.033 14.8387C10.7881 15.5183 11.9613 15.4143 12.585 14.6123L16.592 9.46049Z" fill="#1A1A1A"/>
</svg>
