<svg width="24" height="24" viewBox="0 0 24 24" fill="none" xmlns="http://www.w3.org/2000/svg">
<rect width="24" height="24" fill="#A6A6A6"/>
<path d="M-346 -469C-346 -470.105 -345.105 -471 -344 -471H1140C1141.1 -471 1142 -470.105 1142 -469V1081C1142 1082.1 1141.1 1083 1140 1083H-344C-345.105 1083 -346 1082.1 -346 1081V-469Z" fill="white"/>
<path d="M-344 -470H1140V-472H-344V-470ZM1141 -469V1081H1143V-469H1141ZM1140 1082H-344V1084H1140V1082ZM-345 1081V-469H-347V1081H-345ZM-344 1082C-344.552 1082 -345 1081.55 -345 1081H-347C-347 1082.66 -345.657 1084 -344 1084V1082ZM1141 1081C1141 1081.55 1140.55 1082 1140 1082V1084C1141.66 1084 1143 1082.66 1143 1081H1141ZM1140 -470C1140.55 -470 1141 -469.552 1141 -469H1143C1143 -470.657 1141.66 -472 1140 -472V-470ZM-344 -472C-345.657 -472 -347 -470.657 -347 -469H-345C-345 -469.552 -344.552 -470 -344 -470V-472Z" fill="black" fill-opacity="0.1"/>
<path d="M14.1263 3H16.9516C17.5589 3 18.1373 3.263 18.5408 3.72267L21.4629 7.05149C22.141 7.82402 22.1814 8.9755 21.559 9.79476L13.6854 20.1597C12.8342 21.2801 11.1658 21.2801 10.3146 20.1597L2.44095 9.79476C1.81861 8.9755 1.85896 7.82402 2.53709 7.05149L5.45918 3.72267C5.86269 3.263 6.44106 3 7.04842 3H10.1099M14.1263 3L16.2526 8.38285M14.1263 3H10.1099M16.2526 8.38285H21.5684M16.2526 8.38285L12 20.7634L7.74736 8.38285M16.2526 8.38285H7.74736M10.1099 3L7.74736 8.38285M2.43156 8.38285H7.74736" stroke="#1A1A1A" stroke-width="1.5" stroke-linecap="round" stroke-linejoin="round"/>
</svg>
