<svg width="24" height="24" viewBox="0 0 24 24" fill="none" xmlns="http://www.w3.org/2000/svg">
<rect width="24" height="24" fill="#A6A6A6"/>
<path d="M-1038 -469C-1038 -470.105 -1037.1 -471 -1036 -471H448C449.105 -471 450 -470.105 450 -469V1081C450 1082.1 449.105 1083 448 1083H-1036C-1037.1 1083 -1038 1082.1 -1038 1081V-469Z" fill="white"/>
<path d="M-1036 -470H448V-472H-1036V-470ZM449 -469V1081H451V-469H449ZM448 1082H-1036V1084H448V1082ZM-1037 1081V-469H-1039V1081H-1037ZM-1036 1082C-1036.55 1082 -1037 1081.55 -1037 1081H-1039C-1039 1082.66 -1037.66 1084 -1036 1084V1082ZM449 1081C449 1081.55 448.552 1082 448 1082V1084C449.657 1084 451 1082.66 451 1081H449ZM448 -470C448.552 -470 449 -469.552 449 -469H451C451 -470.657 449.657 -472 448 -472V-470ZM-1036 -472C-1037.66 -472 -1039 -470.657 -1039 -469H-1037C-1037 -469.552 -1036.55 -470 -1036 -470V-472Z" fill="black" fill-opacity="0.1"/>
<path d="M18.5408 3.72267L21.4629 7.05149C22.141 7.82402 22.1814 8.9755 21.559 9.79476L13.6854 20.1597C12.8342 21.2801 11.1658 21.2801 10.3146 20.1597L2.44095 9.79476C1.81861 8.9755 1.85896 7.82402 2.53709 7.05149L5.45918 3.72267C5.86269 3.263 6.44106 3 7.04842 3H10.1099H14.1263H16.9516C17.5589 3 18.1373 3.263 18.5408 3.72267Z" fill="#1A1A1A"/>
</svg>
