<svg width="24" height="24" viewBox="0 0 24 24" fill="none" xmlns="http://www.w3.org/2000/svg">
<rect width="24" height="24" fill="#A6A6A6"/>
<path d="M-578 -1160C-578 -1161.1 -577.105 -1162 -576 -1162H908C909.105 -1162 910 -1161.1 910 -1160V390C910 391.105 909.105 392 908 392H-576C-577.105 392 -578 391.105 -578 390V-1160Z" fill="white"/>
<path d="M-576 -1161H908V-1163H-576V-1161ZM909 -1160V390H911V-1160H909ZM908 391H-576V393H908V391ZM-577 390V-1160H-579V390H-577ZM-576 391C-576.552 391 -577 390.552 -577 390H-579C-579 391.657 -577.657 393 -576 393V391ZM909 390C909 390.552 908.552 391 908 391V393C909.657 393 911 391.657 911 390H909ZM908 -1161C908.552 -1161 909 -1160.55 909 -1160H911C911 -1161.66 909.657 -1163 908 -1163V-1161ZM-576 -1163C-577.657 -1163 -579 -1161.66 -579 -1160H-577C-577 -1160.55 -576.552 -1161 -576 -1161V-1163Z" fill="black" fill-opacity="0.1"/>
<path d="M9 15.5C9 17.433 10.7909 19 13 19C15.2091 19 17 17.433 17 15.5C17 13.567 15.2091 12 13 12" stroke="#1A1A1A" stroke-width="1.5" stroke-linecap="round"/>
<path d="M4 12H20" stroke="#1A1A1A" stroke-width="1.5" stroke-linecap="round"/>
<path fill-rule="evenodd" clip-rule="evenodd" d="M9.75 8.5C9.75 7.07216 11.1079 5.75 13 5.75C14.8921 5.75 16.25 7.07216 16.25 8.5C16.25 8.91421 16.5858 9.25 17 9.25C17.4142 9.25 17.75 8.91421 17.75 8.5C17.75 6.06185 15.5261 4.25 13 4.25C10.4739 4.25 8.25 6.06185 8.25 8.5C8.25 9.13236 8.39959 9.72259 8.66525 10.25H10.4974C10.024 9.76151 9.75 9.14142 9.75 8.5ZM13.7073 11.75H9.93864C10.7793 12.3802 11.8588 12.75 13 12.75C13.4142 12.75 13.75 12.4142 13.75 12C13.75 11.9123 13.735 11.8282 13.7073 11.75Z" fill="#1A1A1A"/>
</svg>
