<svg width="24" height="24" viewBox="0 0 24 24" fill="none" xmlns="http://www.w3.org/2000/svg">
<rect width="24" height="24" fill="#A6A6A6"/>
<path d="M-1270 -1160C-1270 -1161.1 -1269.1 -1162 -1268 -1162H216C217.105 -1162 218 -1161.1 218 -1160V390C218 391.105 217.105 392 216 392H-1268C-1269.1 392 -1270 391.105 -1270 390V-1160Z" fill="white"/>
<path d="M-1268 -1161H216V-1163H-1268V-1161ZM217 -1160V390H219V-1160H217ZM216 391H-1268V393H216V391ZM-1269 390V-1160H-1271V390H-1269ZM-1268 391C-1268.55 391 -1269 390.552 -1269 390H-1271C-1271 391.657 -1269.66 393 -1268 393V391ZM217 390C217 390.552 216.552 391 216 391V393C217.657 393 219 391.657 219 390H217ZM216 -1161C216.552 -1161 217 -1160.55 217 -1160H219C219 -1161.66 217.657 -1163 216 -1163V-1161ZM-1268 -1163C-1269.66 -1163 -1271 -1161.66 -1271 -1160H-1269C-1269 -1160.55 -1268.55 -1161 -1268 -1161V-1163Z" fill="black" fill-opacity="0.1"/>
<path fill-rule="evenodd" clip-rule="evenodd" d="M12.75 5.5C10.8579 5.5 9.5 6.82216 9.5 8.25C9.5 8.89142 9.77402 9.51151 10.2474 10H8.41525C8.14959 9.47259 8 8.88236 8 8.25C8 5.81185 10.2239 4 12.75 4C15.2761 4 17.5 5.81185 17.5 8.25C17.5 8.66421 17.1642 9 16.75 9C16.3358 9 16 8.66421 16 8.25C16 6.82216 14.6421 5.5 12.75 5.5ZM12.75 12.5H3.75C3.33579 12.5 3 12.1642 3 11.75C3 11.3358 3.33579 11 3.75 11H12.75H19.75C20.1642 11 20.5 11.3358 20.5 11.75C20.5 12.1642 20.1642 12.5 19.75 12.5H16.3755C17.0709 13.2288 17.5 14.179 17.5 15.25C17.5 17.6882 15.2761 19.5 12.75 19.5C10.2239 19.5 8 17.6882 8 15.25C8 14.8358 8.33579 14.5 8.75 14.5C9.16421 14.5 9.5 14.8358 9.5 15.25C9.5 16.6778 10.8579 18 12.75 18C14.6421 18 16 16.6778 16 15.25C16 13.8222 14.6421 12.5 12.75 12.5Z" fill="#1A1A1A"/>
</svg>
