<svg width="24" height="24" viewBox="0 0 24 24" fill="none" xmlns="http://www.w3.org/2000/svg">
<rect width="24" height="24" fill="#A6A6A6"/>
<path d="M-1096 -421C-1096 -422.105 -1095.1 -423 -1094 -423H390C391.105 -423 392 -422.105 392 -421V1129C392 1130.1 391.105 1131 390 1131H-1094C-1095.1 1131 -1096 1130.1 -1096 1129V-421Z" fill="white"/>
<path d="M-1094 -422H390V-424H-1094V-422ZM391 -421V1129H393V-421H391ZM390 1130H-1094V1132H390V1130ZM-1095 1129V-421H-1097V1129H-1095ZM-1094 1130C-1094.55 1130 -1095 1129.55 -1095 1129H-1097C-1097 1130.66 -1095.66 1132 -1094 1132V1130ZM391 1129C391 1129.55 390.552 1130 390 1130V1132C391.657 1132 393 1130.66 393 1129H391ZM390 -422C390.552 -422 391 -421.552 391 -421H393C393 -422.657 391.657 -424 390 -424V-422ZM-1094 -424C-1095.66 -424 -1097 -422.657 -1097 -421H-1095C-1095 -421.552 -1094.55 -422 -1094 -422V-424Z" fill="black" fill-opacity="0.1"/>
<path fill-rule="evenodd" clip-rule="evenodd" d="M6 2C3.79086 2 2 3.79086 2 6V18C2 20.2091 3.79086 22 6 22H18C20.2091 22 22 20.2091 22 18V6C22 3.79086 20.2091 2 18 2H6ZM12.75 7C12.75 6.58579 12.4142 6.25 12 6.25C11.5858 6.25 11.25 6.58579 11.25 7V12C11.25 12.3228 11.4566 12.6094 11.7628 12.7115L14.7628 13.7115C15.1558 13.8425 15.5805 13.6301 15.7115 13.2372C15.8425 12.8442 15.6301 12.4195 15.2372 12.2885L12.75 11.4594V7Z" fill="#1A1A1A"/>
</svg>
