<svg width="24" height="24" viewBox="0 0 24 24" fill="none" xmlns="http://www.w3.org/2000/svg">
<rect width="24" height="24" fill="#A6A6A6"/>
<path d="M-462 -661C-462 -662.105 -461.105 -663 -460 -663H1024C1025.1 -663 1026 -662.105 1026 -661V889C1026 890.105 1025.1 891 1024 891H-460C-461.105 891 -462 890.105 -462 889V-661Z" fill="white"/>
<path d="M-460 -662H1024V-664H-460V-662ZM1025 -661V889H1027V-661H1025ZM1024 890H-460V892H1024V890ZM-461 889V-661H-463V889H-461ZM-460 890C-460.552 890 -461 889.552 -461 889H-463C-463 890.657 -461.657 892 -460 892V890ZM1025 889C1025 889.552 1024.55 890 1024 890V892C1025.66 892 1027 890.657 1027 889H1025ZM1024 -662C1024.55 -662 1025 -661.552 1025 -661H1027C1027 -662.657 1025.66 -664 1024 -664V-662ZM-460 -664C-461.657 -664 -463 -662.657 -463 -661H-461C-461 -661.552 -460.552 -662 -460 -662V-664Z" fill="black" fill-opacity="0.1"/>
<path d="M5 21L5 14M5 14C6.10457 14 7 13.1046 7 12C7 10.8954 6.10457 10 5 10M5 14C3.89543 14 3 13.1046 3 12C3 10.8954 3.89543 10 5 10M12 21V12M12 5V3M12 5C13.1046 5 14 5.89543 14 7C14 8.10457 13.1046 9 12 9C10.8954 9 10 8.10457 10 7C10 5.89543 10.8954 5 12 5ZM5 10L5 3M19 12V3M19 21V19M19 19C20.1046 19 21 18.1046 21 17C21 15.8954 20.1046 15 19 15C17.8954 15 17 15.8954 17 17C17 18.1046 17.8954 19 19 19Z" stroke="#1A1A1A" stroke-width="1.5" stroke-linecap="round"/>
</svg>
