<svg width="24" height="24" viewBox="0 0 24 24" fill="none" xmlns="http://www.w3.org/2000/svg">
<rect width="24" height="24" fill="#A6A6A6"/>
<path d="M-1154 -661C-1154 -662.105 -1153.1 -663 -1152 -663H332C333.105 -663 334 -662.105 334 -661V889C334 890.105 333.105 891 332 891H-1152C-1153.1 891 -1154 890.105 -1154 889V-661Z" fill="white"/>
<path d="M-1152 -662H332V-664H-1152V-662ZM333 -661V889H335V-661H333ZM332 890H-1152V892H332V890ZM-1153 889V-661H-1155V889H-1153ZM-1152 890C-1152.55 890 -1153 889.552 -1153 889H-1155C-1155 890.657 -1153.66 892 -1152 892V890ZM333 889C333 889.552 332.552 890 332 890V892C333.657 892 335 890.657 335 889H333ZM332 -662C332.552 -662 333 -661.552 333 -661H335C335 -662.657 333.657 -664 332 -664V-662ZM-1152 -664C-1153.66 -664 -1155 -662.657 -1155 -661H-1153C-1153 -661.552 -1152.55 -662 -1152 -662V-664Z" fill="black" fill-opacity="0.1"/>
<path fill-rule="evenodd" clip-rule="evenodd" d="M2.25 12C2.25 10.7412 3.09575 9.67998 4.25 9.35352L4.25 3C4.25 2.58579 4.58579 2.25 5 2.25C5.41421 2.25 5.75 2.58579 5.75 3L5.75 9.35352C6.90425 9.67998 7.75 10.7412 7.75 12C7.75 13.2588 6.90425 14.32 5.75 14.6465L5.75 21C5.75 21.4142 5.41421 21.75 5 21.75C4.58579 21.75 4.25 21.4142 4.25 21L4.25 14.6465C3.09575 14.32 2.25 13.2588 2.25 12ZM12.75 4.35352V3C12.75 2.58579 12.4142 2.25 12 2.25C11.5858 2.25 11.25 2.58579 11.25 3V4.35352C10.0957 4.67998 9.25 5.74122 9.25 7C9.25 8.51878 10.4812 9.75 12 9.75C13.5188 9.75 14.75 8.51878 14.75 7C14.75 5.74122 13.9043 4.67998 12.75 4.35352ZM12 21.75C11.5858 21.75 11.25 21.4142 11.25 21V12C11.25 11.5858 11.5858 11.25 12 11.25C12.4142 11.25 12.75 11.5858 12.75 12V21C12.75 21.4142 12.4142 21.75 12 21.75ZM19 12.75C18.5858 12.75 18.25 12.4142 18.25 12V3C18.25 2.58579 18.5858 2.25 19 2.25C19.4142 2.25 19.75 2.58579 19.75 3V12C19.75 12.4142 19.4142 12.75 19 12.75ZM19 21.75C18.5858 21.75 18.25 21.4142 18.25 21V19.6465C17.0957 19.32 16.25 18.2588 16.25 17C16.25 15.4812 17.4812 14.25 19 14.25C20.5188 14.25 21.75 15.4812 21.75 17C21.75 18.2588 20.9043 19.32 19.75 19.6465V21C19.75 21.4142 19.4142 21.75 19 21.75Z" fill="#1A1A1A"/>
</svg>
