<svg width="24" height="24" viewBox="0 0 24 24" fill="none" xmlns="http://www.w3.org/2000/svg">
<rect width="24" height="24" fill="#A6A6A6"/>
<path d="M-520 -1208C-520 -1209.1 -519.105 -1210 -518 -1210H966C967.105 -1210 968 -1209.1 968 -1208V342C968 343.105 967.105 344 966 344H-518C-519.105 344 -520 343.105 -520 342V-1208Z" fill="white"/>
<path d="M-518 -1209H966V-1211H-518V-1209ZM967 -1208V342H969V-1208H967ZM966 343H-518V345H966V343ZM-519 342V-1208H-521V342H-519ZM-518 343C-518.552 343 -519 342.552 -519 342H-521C-521 343.657 -519.657 345 -518 345V343ZM967 342C967 342.552 966.552 343 966 343V345C967.657 345 969 343.657 969 342H967ZM966 -1209C966.552 -1209 967 -1208.55 967 -1208H969C969 -1209.66 967.657 -1211 966 -1211V-1209ZM-518 -1211C-519.657 -1211 -521 -1209.66 -521 -1208H-519C-519 -1208.55 -518.552 -1209 -518 -1209V-1211Z" fill="black" fill-opacity="0.1"/>
<path d="M22 14V7C22 4.79086 20.2091 3 18 3H6C3.79086 3 2 4.79086 2 7V17C2 19.2091 3.79086 21 6 21H15M22 14L15 21M22 14H19C16.7909 14 15 15.7909 15 18V21" stroke="#1A1A1A" stroke-width="1.5" stroke-linejoin="round"/>
<path d="M7 9H17" stroke="#1A1A1A" stroke-width="1.5" stroke-linecap="round"/>
<path d="M7 14L12 14" stroke="#1A1A1A" stroke-width="1.5" stroke-linecap="round"/>
</svg>
