<svg width="24" height="24" viewBox="0 0 24 24" fill="none" xmlns="http://www.w3.org/2000/svg">
<rect width="24" height="24" fill="#A6A6A6"/>
<path d="M-404 -853C-404 -854.105 -403.105 -855 -402 -855H1082C1083.1 -855 1084 -854.105 1084 -853V697C1084 698.105 1083.1 699 1082 699H-402C-403.105 699 -404 698.105 -404 697V-853Z" fill="white"/>
<path d="M-402 -854H1082V-856H-402V-854ZM1083 -853V697H1085V-853H1083ZM1082 698H-402V700H1082V698ZM-403 697V-853H-405V697H-403ZM-402 698C-402.552 698 -403 697.552 -403 697H-405C-405 698.657 -403.657 700 -402 700V698ZM1083 697C1083 697.552 1082.55 698 1082 698V700C1083.66 700 1085 698.657 1085 697H1083ZM1082 -854C1082.55 -854 1083 -853.552 1083 -853H1085C1085 -854.657 1083.66 -856 1082 -856V-854ZM-402 -856C-403.657 -856 -405 -854.657 -405 -853H-403C-403 -853.552 -402.552 -854 -402 -854V-856Z" fill="black" fill-opacity="0.1"/>
<circle cx="12" cy="17" r="1" fill="#1A1A1A"/>
<path d="M11.9999 8.99997V14M4.32789 21H19.6721C21.4445 21 22.5649 19.1433 21.7041 17.6324L14.032 4.16592C13.1464 2.61136 10.8536 2.61136 9.96798 4.16592L2.29587 17.6324C1.4351 19.1433 2.55546 21 4.32789 21Z" stroke="#1A1A1A" stroke-width="1.5" stroke-linecap="round" stroke-linejoin="round"/>
</svg>
