<svg width="24" height="24" viewBox="0 0 24 24" fill="none" xmlns="http://www.w3.org/2000/svg">
<rect width="24" height="24" fill="#A6A6A6"/>
<path d="M-1096 -853C-1096 -854.105 -1095.1 -855 -1094 -855H390C391.105 -855 392 -854.105 392 -853V697C392 698.105 391.105 699 390 699H-1094C-1095.1 699 -1096 698.105 -1096 697V-853Z" fill="white"/>
<path d="M-1094 -854H390V-856H-1094V-854ZM391 -853V697H393V-853H391ZM390 698H-1094V700H390V698ZM-1095 697V-853H-1097V697H-1095ZM-1094 698C-1094.55 698 -1095 697.552 -1095 697H-1097C-1097 698.657 -1095.66 700 -1094 700V698ZM391 697C391 697.552 390.552 698 390 698V700C391.657 700 393 698.657 393 697H391ZM390 -854C390.552 -854 391 -853.552 391 -853H393C393 -854.657 391.657 -856 390 -856V-854ZM-1094 -856C-1095.66 -856 -1097 -854.657 -1097 -853H-1095C-1095 -853.552 -1094.55 -854 -1094 -854V-856Z" fill="black" fill-opacity="0.1"/>
<path fill-rule="evenodd" clip-rule="evenodd" d="M9.96798 4.16592C10.8536 2.61136 13.1464 2.61136 14.032 4.16592L21.7041 17.6324C22.5649 19.1433 21.4445 21 19.6721 21H4.32789C2.55546 21 1.4351 19.1433 2.29587 17.6324L9.96798 4.16592ZM12.9999 17C12.9999 17.5523 12.5522 18 11.9999 18C11.4477 18 10.9999 17.5523 10.9999 17C10.9999 16.4477 11.4477 16 11.9999 16C12.5522 16 12.9999 16.4477 12.9999 17ZM12.7499 9C12.7499 8.58579 12.4142 8.25 11.9999 8.25C11.5857 8.25 11.2499 8.58579 11.2499 9V14C11.2499 14.4142 11.5857 14.75 11.9999 14.75C12.4142 14.75 12.7499 14.4142 12.7499 14V9Z" fill="#1A1A1A"/>
</svg>
