<svg width="24" height="24" viewBox="0 0 24 24" fill="none" xmlns="http://www.w3.org/2000/svg">
<rect width="24" height="24" fill="#A6A6A6"/>
<path d="M-1096 -901C-1096 -902.105 -1095.1 -903 -1094 -903H390C391.105 -903 392 -902.105 392 -901V649C392 650.105 391.105 651 390 651H-1094C-1095.1 651 -1096 650.105 -1096 649V-901Z" fill="white"/>
<path d="M-1094 -902H390V-904H-1094V-902ZM391 -901V649H393V-901H391ZM390 650H-1094V652H390V650ZM-1095 649V-901H-1097V649H-1095ZM-1094 650C-1094.55 650 -1095 649.552 -1095 649H-1097C-1097 650.657 -1095.66 652 -1094 652V650ZM391 649C391 649.552 390.552 650 390 650V652C391.657 652 393 650.657 393 649H391ZM390 -902C390.552 -902 391 -901.552 391 -901H393C393 -902.657 391.657 -904 390 -904V-902ZM-1094 -904C-1095.66 -904 -1097 -902.657 -1097 -901H-1095C-1095 -901.552 -1094.55 -902 -1094 -902V-904Z" fill="black" fill-opacity="0.1"/>
<path fill-rule="evenodd" clip-rule="evenodd" d="M6.75 4C6.75 3.30964 7.30964 2.75 8 2.75H20C20.6904 2.75 21.25 3.30964 21.25 4V10C21.25 10.6904 20.6904 11.25 20 11.25H19C18.5858 11.25 18.25 11.5858 18.25 12C18.25 12.4142 18.5858 12.75 19 12.75H20C21.5188 12.75 22.75 11.5188 22.75 10V4C22.75 2.48122 21.5188 1.25 20 1.25H8C6.48122 1.25 5.25 2.48122 5.25 4V5.5C5.25 5.91421 5.58579 6.25 6 6.25C6.41421 6.25 6.75 5.91421 6.75 5.5V4ZM7 10C7 11.1046 6.10457 12 5 12C3.89543 12 3 11.1046 3 10C3 8.89543 3.89543 8 5 8C6.10457 8 7 8.89543 7 10ZM17.6309 9.40566C17.8549 9.05723 17.754 8.5932 17.4056 8.36921C17.0572 8.14522 16.5931 8.2461 16.3691 8.59452L12.4784 14.6467C12.0794 14.5148 11.6261 14.5561 11.2428 14.8L8 16.5V16C8 14.3431 6.65685 13 5 13C3.34315 13 2 14.3431 2 16V22H8V19.68C8.2634 19.6407 8.52344 19.5478 8.76426 19.3973L12.7913 17.2554C13.2738 16.9539 13.5187 16.4145 13.4669 15.883L17.6309 9.40566ZM9.25 6C9.25 5.58579 9.58579 5.25 10 5.25H18C18.4142 5.25 18.75 5.58579 18.75 6C18.75 6.41421 18.4142 6.75 18 6.75H10C9.58579 6.75 9.25 6.41421 9.25 6ZM10 8.25C9.58579 8.25 9.25 8.58579 9.25 9C9.25 9.41421 9.58579 9.75 10 9.75H14C14.4142 9.75 14.75 9.41421 14.75 9C14.75 8.58579 14.4142 8.25 14 8.25H10Z" fill="#1A1A1A"/>
</svg>
