<svg width="24" height="24" viewBox="0 0 24 24" fill="none" xmlns="http://www.w3.org/2000/svg">
<rect width="24" height="24" fill="#A6A6A6"/>
<path d="M-346 -1160C-346 -1161.1 -345.105 -1162 -344 -1162H1140C1141.1 -1162 1142 -1161.1 1142 -1160V390C1142 391.105 1141.1 392 1140 392H-344C-345.105 392 -346 391.105 -346 390V-1160Z" fill="white"/>
<path d="M-344 -1161H1140V-1163H-344V-1161ZM1141 -1160V390H1143V-1160H1141ZM1140 391H-344V393H1140V391ZM-345 390V-1160H-347V390H-345ZM-344 391C-344.552 391 -345 390.552 -345 390H-347C-347 391.657 -345.657 393 -344 393V391ZM1141 390C1141 390.552 1140.55 391 1140 391V393C1141.66 393 1143 391.657 1143 390H1141ZM1140 -1161C1140.55 -1161 1141 -1160.55 1141 -1160H1143C1143 -1161.66 1141.66 -1163 1140 -1163V-1161ZM-344 -1163C-345.657 -1163 -347 -1161.66 -347 -1160H-345C-345 -1160.55 -344.552 -1161 -344 -1161V-1163Z" fill="black" fill-opacity="0.1"/>
<path d="M9 12H15" stroke="#1A1A1A" stroke-width="1.5" stroke-linecap="round"/>
<path d="M5 20H19" stroke="#1A1A1A" stroke-width="1.5" stroke-linecap="round"/>
<path d="M7 16L12 4L17 16" stroke="#1A1A1A" stroke-width="1.5" stroke-linecap="round" stroke-linejoin="round"/>
</svg>
