<svg width="24" height="24" viewBox="0 0 24 24" fill="none" xmlns="http://www.w3.org/2000/svg">
<rect width="24" height="24" fill="#A6A6A6"/>
<path d="M-1038 -1160C-1038 -1161.1 -1037.1 -1162 -1036 -1162H448C449.105 -1162 450 -1161.1 450 -1160V390C450 391.105 449.105 392 448 392H-1036C-1037.1 392 -1038 391.105 -1038 390V-1160Z" fill="white"/>
<path d="M-1036 -1161H448V-1163H-1036V-1161ZM449 -1160V390H451V-1160H449ZM448 391H-1036V393H448V391ZM-1037 390V-1160H-1039V390H-1037ZM-1036 391C-1036.55 391 -1037 390.552 -1037 390H-1039C-1039 391.657 -1037.66 393 -1036 393V391ZM449 390C449 390.552 448.552 391 448 391V393C449.657 393 451 391.657 451 390H449ZM448 -1161C448.552 -1161 449 -1160.55 449 -1160H451C451 -1161.66 449.657 -1163 448 -1163V-1161ZM-1036 -1163C-1037.66 -1163 -1039 -1161.66 -1039 -1160H-1037C-1037 -1160.55 -1036.55 -1161 -1036 -1161V-1163Z" fill="black" fill-opacity="0.1"/>
<path fill-rule="evenodd" clip-rule="evenodd" d="M12.6923 3.71154C12.5759 3.43205 12.3028 3.25 12 3.25C11.6972 3.25 11.4242 3.43205 11.3077 3.71154L6.3077 15.7115C6.14839 16.0939 6.3292 16.533 6.71155 16.6923C7.0939 16.8516 7.53301 16.6708 7.69232 16.2885L9.16668 12.75H14.8333L16.3077 16.2885C16.467 16.6708 16.9061 16.8516 17.2885 16.6923C17.6708 16.533 17.8516 16.0939 17.6923 15.7115L12.6923 3.71154ZM14.2083 11.25L12 5.95L9.79168 11.25H14.2083ZM4.25 20C4.25 19.5858 4.58579 19.25 5 19.25H19C19.4142 19.25 19.75 19.5858 19.75 20C19.75 20.4142 19.4142 20.75 19 20.75H5C4.58579 20.75 4.25 20.4142 4.25 20Z" fill="#1A1A1A"/>
</svg>
