<svg width="24" height="24" viewBox="0 0 24 24" fill="none" xmlns="http://www.w3.org/2000/svg">
<rect width="24" height="24" fill="#A6A6A6"/>
<path d="M-114 -853C-114 -854.105 -113.105 -855 -112 -855H1372C1373.1 -855 1374 -854.105 1374 -853V697C1374 698.105 1373.1 699 1372 699H-112C-113.105 699 -114 698.105 -114 697V-853Z" fill="white"/>
<path d="M-112 -854H1372V-856H-112V-854ZM1373 -853V697H1375V-853H1373ZM1372 698H-112V700H1372V698ZM-113 697V-853H-115V697H-113ZM-112 698C-112.552 698 -113 697.552 -113 697H-115C-115 698.657 -113.657 700 -112 700V698ZM1373 697C1373 697.552 1372.55 698 1372 698V700C1373.66 700 1375 698.657 1375 697H1373ZM1372 -854C1372.55 -854 1373 -853.552 1373 -853H1375C1375 -854.657 1373.66 -856 1372 -856V-854ZM-112 -856C-113.657 -856 -115 -854.657 -115 -853H-113C-113 -853.552 -112.552 -854 -112 -854V-856Z" fill="black" fill-opacity="0.1"/>
<path d="M2 13.25H1.25V14.75H2V13.25ZM22 14.75H22.75V13.25H22V14.75ZM9 21.25C8.58579 21.25 8.25 21.5858 8.25 22C8.25 22.4142 8.58579 22.75 9 22.75V21.25ZM15 22.75C15.4142 22.75 15.75 22.4142 15.75 22C15.75 21.5858 15.4142 21.25 15 21.25V22.75ZM12.75 18C12.75 17.5858 12.4142 17.25 12 17.25C11.5858 17.25 11.25 17.5858 11.25 18H12.75ZM5 2.75H19V1.25H5V2.75ZM21.25 5V15H22.75V5H21.25ZM19 17.25H5V18.75H19V17.25ZM2.75 15V5H1.25V15H2.75ZM5 17.25C3.75736 17.25 2.75 16.2426 2.75 15H1.25C1.25 17.0711 2.92893 18.75 5 18.75V17.25ZM21.25 15C21.25 16.2426 20.2426 17.25 19 17.25V18.75C21.0711 18.75 22.75 17.0711 22.75 15H21.25ZM19 2.75C20.2426 2.75 21.25 3.75736 21.25 5H22.75C22.75 2.92893 21.0711 1.25 19 1.25V2.75ZM5 1.25C2.92893 1.25 1.25 2.92893 1.25 5H2.75C2.75 3.75736 3.75736 2.75 5 2.75V1.25ZM2 14.75H22V13.25H2V14.75ZM9 22.75H12V21.25H9V22.75ZM12 22.75H15V21.25H12V22.75ZM12.75 22V18H11.25V22H12.75Z" fill="#1A1A1A"/>
</svg>
