<svg width="24" height="24" viewBox="0 0 24 24" fill="none" xmlns="http://www.w3.org/2000/svg">
<rect width="24" height="24" fill="#A6A6A6"/>
<path d="M-806 -853C-806 -854.105 -805.105 -855 -804 -855H680C681.105 -855 682 -854.105 682 -853V697C682 698.105 681.105 699 680 699H-804C-805.105 699 -806 698.105 -806 697V-853Z" fill="white"/>
<path d="M-804 -854H680V-856H-804V-854ZM681 -853V697H683V-853H681ZM680 698H-804V700H680V698ZM-805 697V-853H-807V697H-805ZM-804 698C-804.552 698 -805 697.552 -805 697H-807C-807 698.657 -805.657 700 -804 700V698ZM681 697C681 697.552 680.552 698 680 698V700C681.657 700 683 698.657 683 697H681ZM680 -854C680.552 -854 681 -853.552 681 -853H683C683 -854.657 681.657 -856 680 -856V-854ZM-804 -856C-805.657 -856 -807 -854.657 -807 -853H-805C-805 -853.552 -804.552 -854 -804 -854V-856Z" fill="black" fill-opacity="0.1"/>
<path fill-rule="evenodd" clip-rule="evenodd" d="M2 5C2 3.34315 3.34315 2 5 2H19C20.6569 2 22 3.34315 22 5V13.25H2V5ZM2 14.75H22V15C22 16.6569 20.6569 18 19 18H12.75V20.5H15C15.4142 20.5 15.75 20.8358 15.75 21.25C15.75 21.6642 15.4142 22 15 22H9C8.58579 22 8.25 21.6642 8.25 21.25C8.25 20.8358 8.58579 20.5 9 20.5H11.25V18H5C3.34315 18 2 16.6569 2 15V14.75Z" fill="#1A1A1A"/>
</svg>
