<svg width="24" height="24" viewBox="0 0 24 24" fill="none" xmlns="http://www.w3.org/2000/svg">
<rect width="24" height="24" fill="#A6A6A6"/>
<path d="M-462 -1208C-462 -1209.1 -461.105 -1210 -460 -1210H1024C1025.1 -1210 1026 -1209.1 1026 -1208V342C1026 343.105 1025.1 344 1024 344H-460C-461.105 344 -462 343.105 -462 342V-1208Z" fill="white"/>
<path d="M-460 -1209H1024V-1211H-460V-1209ZM1025 -1208V342H1027V-1208H1025ZM1024 343H-460V345H1024V343ZM-461 342V-1208H-463V342H-461ZM-460 343C-460.552 343 -461 342.552 -461 342H-463C-463 343.657 -461.657 345 -460 345V343ZM1025 342C1025 342.552 1024.55 343 1024 343V345C1025.66 345 1027 343.657 1027 342H1025ZM1024 -1209C1024.55 -1209 1025 -1208.55 1025 -1208H1027C1027 -1209.66 1025.66 -1211 1024 -1211V-1209ZM-460 -1211C-461.657 -1211 -463 -1209.66 -463 -1208H-461C-461 -1208.55 -460.552 -1209 -460 -1209V-1211Z" fill="black" fill-opacity="0.1"/>
<path d="M8 11L12 11" stroke="#1A1A1A" stroke-width="1.5" stroke-linecap="round"/>
<path d="M8 16H16" stroke="#1A1A1A" stroke-width="1.5" stroke-linecap="round"/>
<path d="M21 9V18C21 20.2091 19.2091 22 17 22H7C4.79086 22 3 20.2091 3 18V6C3 3.79086 4.79086 2 7 2H14M21 9L14 2M21 9H18C15.7909 9 14 7.20914 14 5V2" stroke="#1A1A1A" stroke-width="1.5" stroke-linejoin="round"/>
</svg>
