<svg width="24" height="24" viewBox="0 0 24 24" fill="none" xmlns="http://www.w3.org/2000/svg">
<rect width="24" height="24" fill="#A6A6A6"/>
<path d="M-1154 -1208C-1154 -1209.1 -1153.1 -1210 -1152 -1210H332C333.105 -1210 334 -1209.1 334 -1208V342C334 343.105 333.105 344 332 344H-1152C-1153.1 344 -1154 343.105 -1154 342V-1208Z" fill="white"/>
<path d="M-1152 -1209H332V-1211H-1152V-1209ZM333 -1208V342H335V-1208H333ZM332 343H-1152V345H332V343ZM-1153 342V-1208H-1155V342H-1153ZM-1152 343C-1152.55 343 -1153 342.552 -1153 342H-1155C-1155 343.657 -1153.66 345 -1152 345V343ZM333 342C333 342.552 332.552 343 332 343V345C333.657 345 335 343.657 335 342H333ZM332 -1209C332.552 -1209 333 -1208.55 333 -1208H335C335 -1209.66 333.657 -1211 332 -1211V-1209ZM-1152 -1211C-1153.66 -1211 -1155 -1209.66 -1155 -1208H-1153C-1153 -1208.55 -1152.55 -1209 -1152 -1209V-1211Z" fill="black" fill-opacity="0.1"/>
<path fill-rule="evenodd" clip-rule="evenodd" d="M12.25 3.10414V6C12.25 8.62335 14.3766 10.75 17 10.75H19.8959C19.9645 11.045 20 11.3491 20 11.6569V17C20 19.2091 18.2091 21 16 21H8C5.79086 21 4 19.2091 4 17V7C4 4.79086 5.79086 3 8 3H11.3431C11.6509 3 11.955 3.03547 12.25 3.10414ZM13.75 3.80513V6C13.75 7.79493 15.2051 9.25 17 9.25H19.1949C19.0833 9.10195 18.961 8.96101 18.8284 8.82843L14.1716 4.17157C14.039 4.03899 13.898 3.91667 13.75 3.80513ZM7.25 12C7.25 11.5858 7.58579 11.25 8 11.25H12C12.4142 11.25 12.75 11.5858 12.75 12C12.75 12.4142 12.4142 12.75 12 12.75H8C7.58579 12.75 7.25 12.4142 7.25 12ZM8 15.25C7.58579 15.25 7.25 15.5858 7.25 16C7.25 16.4142 7.58579 16.75 8 16.75H16C16.4142 16.75 16.75 16.4142 16.75 16C16.75 15.5858 16.4142 15.25 16 15.25H8Z" fill="#1A1A1A"/>
</svg>
