<svg width="24" height="24" viewBox="0 0 24 24" fill="none" xmlns="http://www.w3.org/2000/svg">
<rect width="24" height="24" fill="#A6A6A6"/>
<path d="M-346 -277C-346 -278.105 -345.105 -279 -344 -279H1140C1141.1 -279 1142 -278.105 1142 -277V1273C1142 1274.1 1141.1 1275 1140 1275H-344C-345.105 1275 -346 1274.1 -346 1273V-277Z" fill="white"/>
<path d="M-344 -278H1140V-280H-344V-278ZM1141 -277V1273H1143V-277H1141ZM1140 1274H-344V1276H1140V1274ZM-345 1273V-277H-347V1273H-345ZM-344 1274C-344.552 1274 -345 1273.55 -345 1273H-347C-347 1274.66 -345.657 1276 -344 1276V1274ZM1141 1273C1141 1273.55 1140.55 1274 1140 1274V1276C1141.66 1276 1143 1274.66 1143 1273H1141ZM1140 -278C1140.55 -278 1141 -277.552 1141 -277H1143C1143 -278.657 1141.66 -280 1140 -280V-278ZM-344 -280C-345.657 -280 -347 -278.657 -347 -277H-345C-345 -277.552 -344.552 -278 -344 -278V-280Z" fill="black" fill-opacity="0.1"/>
<path d="M9 15C9 15 10.125 16 12 16C13.875 16 15 15 15 15M18 2H6C3.79086 2 2 3.79086 2 6V18C2 20.2091 3.79086 22 6 22H18C20.2091 22 22 20.2091 22 18V6C22 3.79086 20.2091 2 18 2ZM17 10C17 10.5523 16.5523 11 16 11C15.4477 11 15 10.5523 15 10C15 9.44772 15.4477 9 16 9C16.5523 9 17 9.44772 17 10ZM9 10C9 10.5523 8.55228 11 8 11C7.44772 11 7 10.5523 7 10C7 9.44772 7.44772 9 8 9C8.55228 9 9 9.44772 9 10Z" stroke="#1A1A1A" stroke-width="1.5" stroke-linecap="round" stroke-linejoin="round"/>
</svg>
