<svg width="24" height="24" viewBox="0 0 24 24" fill="none" xmlns="http://www.w3.org/2000/svg">
<rect width="24" height="24" fill="#A6A6A6"/>
<path d="M-589 -38C-589 -39.1046 -588.105 -40 -587 -40H897C898.105 -40 899 -39.1046 899 -38V1512C899 1513.1 898.105 1514 897 1514H-587C-588.105 1514 -589 1513.1 -589 1512V-38Z" fill="white"/>
<path d="M-587 -39H897V-41H-587V-39ZM898 -38V1512H900V-38H898ZM897 1513H-587V1515H897V1513ZM-588 1512V-38H-590V1512H-588ZM-587 1513C-587.552 1513 -588 1512.55 -588 1512H-590C-590 1513.66 -588.657 1515 -587 1515V1513ZM898 1512C898 1512.55 897.552 1513 897 1513V1515C898.657 1515 900 1513.66 900 1512H898ZM897 -39C897.552 -39 898 -38.5523 898 -38H900C900 -39.6569 898.657 -41 897 -41V-39ZM-587 -41C-588.657 -41 -590 -39.6569 -590 -38H-588C-588 -38.5523 -587.552 -39 -587 -39V-41Z" fill="black" fill-opacity="0.1"/>
<path d="M4 20L20 4" stroke="#1A1A1A" stroke-width="1.5" stroke-linecap="round"/>
<path d="M4 4L20 20" stroke="#1A1A1A" stroke-width="1.5" stroke-linecap="round"/>
</svg>
