<svg width="24" height="24" viewBox="0 0 24 24" fill="none" xmlns="http://www.w3.org/2000/svg">
<rect width="24" height="24" fill="#A6A6A6"/>
<path d="M-1328 -757C-1328 -758.105 -1327.1 -759 -1326 -759H158C159.105 -759 160 -758.105 160 -757V793C160 794.105 159.105 795 158 795H-1326C-1327.1 795 -1328 794.105 -1328 793V-757Z" fill="white"/>
<path d="M-1326 -758H158V-760H-1326V-758ZM159 -757V793H161V-757H159ZM158 794H-1326V796H158V794ZM-1327 793V-757H-1329V793H-1327ZM-1326 794C-1326.55 794 -1327 793.552 -1327 793H-1329C-1329 794.657 -1327.66 796 -1326 796V794ZM159 793C159 793.552 158.552 794 158 794V796C159.657 796 161 794.657 161 793H159ZM158 -758C158.552 -758 159 -757.552 159 -757H161C161 -758.657 159.657 -760 158 -760V-758ZM-1326 -760C-1327.66 -760 -1329 -758.657 -1329 -757H-1327C-1327 -757.552 -1326.55 -758 -1326 -758V-760Z" fill="black" fill-opacity="0.1"/>
<path fill-rule="evenodd" clip-rule="evenodd" d="M15.7128 16.7729C16.0057 17.0658 16.4805 17.0658 16.7734 16.7729C17.0663 16.48 17.0663 16.0052 16.7734 15.7123L13.0611 12L16.7734 8.2877C17.0663 7.99481 17.0663 7.51993 16.7734 7.22704C16.4805 6.93415 16.0057 6.93415 15.7128 7.22704L12.0005 10.9393L8.28815 7.22699C7.99526 6.9341 7.52038 6.9341 7.22749 7.22699C6.9346 7.51989 6.9346 7.99476 7.22749 8.28765L10.9398 12L7.22748 15.7123C6.93459 16.0052 6.93459 16.4801 7.22748 16.773C7.52038 17.0659 7.99525 17.0659 8.28814 16.773L12.0005 13.0606L15.7128 16.7729Z" fill="#1A1A1A"/>
</svg>
