<svg width="24" height="24" viewBox="0 0 24 24" fill="none" xmlns="http://www.w3.org/2000/svg">
<rect width="24" height="24" fill="#A6A6A6"/>
<path d="M-462 -421C-462 -422.105 -461.105 -423 -460 -423H1024C1025.1 -423 1026 -422.105 1026 -421V1129C1026 1130.1 1025.1 1131 1024 1131H-460C-461.105 1131 -462 1130.1 -462 1129V-421Z" fill="white"/>
<path d="M-460 -422H1024V-424H-460V-422ZM1025 -421V1129H1027V-421H1025ZM1024 1130H-460V1132H1024V1130ZM-461 1129V-421H-463V1129H-461ZM-460 1130C-460.552 1130 -461 1129.55 -461 1129H-463C-463 1130.66 -461.657 1132 -460 1132V1130ZM1025 1129C1025 1129.55 1024.55 1130 1024 1130V1132C1025.66 1132 1027 1130.66 1027 1129H1025ZM1024 -422C1024.55 -422 1025 -421.552 1025 -421H1027C1027 -422.657 1025.66 -424 1024 -424V-422ZM-460 -424C-461.657 -424 -463 -422.657 -463 -421H-461C-461 -421.552 -460.552 -422 -460 -422V-424Z" fill="black" fill-opacity="0.1"/>
<path d="M12 12H11.25C11.25 12.3228 11.4566 12.6094 11.7628 12.7115L12 12ZM12.75 7C12.75 6.58579 12.4142 6.25 12 6.25C11.5858 6.25 11.25 6.58579 11.25 7H12.75ZM14.7628 13.7115C15.1558 13.8425 15.5805 13.6301 15.7115 13.2372C15.8425 12.8442 15.6301 12.4195 15.2372 12.2885L14.7628 13.7115ZM12.75 12V7H11.25V12H12.75ZM11.7628 12.7115L14.7628 13.7115L15.2372 12.2885L12.2372 11.2885L11.7628 12.7115ZM21.25 12C21.25 17.1086 17.1086 21.25 12 21.25V22.75C17.9371 22.75 22.75 17.9371 22.75 12H21.25ZM12 21.25C6.89137 21.25 2.75 17.1086 2.75 12H1.25C1.25 17.9371 6.06294 22.75 12 22.75V21.25ZM2.75 12C2.75 6.89137 6.89137 2.75 12 2.75V1.25C6.06294 1.25 1.25 6.06294 1.25 12H2.75ZM12 2.75C17.1086 2.75 21.25 6.89137 21.25 12H22.75C22.75 6.06294 17.9371 1.25 12 1.25V2.75Z" fill="#1A1A1A"/>
</svg>
