<svg width="24" height="24" viewBox="0 0 24 24" fill="none" xmlns="http://www.w3.org/2000/svg">
<rect width="24" height="24" fill="#A6A6A6"/>
<path d="M-1154 -421C-1154 -422.105 -1153.1 -423 -1152 -423H332C333.105 -423 334 -422.105 334 -421V1129C334 1130.1 333.105 1131 332 1131H-1152C-1153.1 1131 -1154 1130.1 -1154 1129V-421Z" fill="white"/>
<path d="M-1152 -422H332V-424H-1152V-422ZM333 -421V1129H335V-421H333ZM332 1130H-1152V1132H332V1130ZM-1153 1129V-421H-1155V1129H-1153ZM-1152 1130C-1152.55 1130 -1153 1129.55 -1153 1129H-1155C-1155 1130.66 -1153.66 1132 -1152 1132V1130ZM333 1129C333 1129.55 332.552 1130 332 1130V1132C333.657 1132 335 1130.66 335 1129H333ZM332 -422C332.552 -422 333 -421.552 333 -421H335C335 -422.657 333.657 -424 332 -424V-422ZM-1152 -424C-1153.66 -424 -1155 -422.657 -1155 -421H-1153C-1153 -421.552 -1152.55 -422 -1152 -422V-424Z" fill="black" fill-opacity="0.1"/>
<path fill-rule="evenodd" clip-rule="evenodd" d="M12 22C17.5228 22 22 17.5228 22 12C22 6.47715 17.5228 2 12 2C6.47715 2 2 6.47715 2 12C2 17.5228 6.47715 22 12 22ZM12.75 7C12.75 6.58579 12.4142 6.25 12 6.25C11.5858 6.25 11.25 6.58579 11.25 7V12C11.25 12.3228 11.4566 12.6094 11.7628 12.7115L14.7628 13.7115C15.1558 13.8425 15.5805 13.6301 15.7115 13.2372C15.8425 12.8442 15.6301 12.4195 15.2372 12.2885L12.75 11.4594V7Z" fill="#1A1A1A"/>
</svg>
