<svg width="24" height="24" viewBox="0 0 24 24" fill="none" xmlns="http://www.w3.org/2000/svg">
<rect width="24" height="24" fill="#A6A6A6"/>
<path d="M-288 -757C-288 -758.105 -287.105 -759 -286 -759H1198C1199.1 -759 1200 -758.105 1200 -757V793C1200 794.105 1199.1 795 1198 795H-286C-287.105 795 -288 794.105 -288 793V-757Z" fill="white"/>
<path d="M-286 -758H1198V-760H-286V-758ZM1199 -757V793H1201V-757H1199ZM1198 794H-286V796H1198V794ZM-287 793V-757H-289V793H-287ZM-286 794C-286.552 794 -287 793.552 -287 793H-289C-289 794.657 -287.657 796 -286 796V794ZM1199 793C1199 793.552 1198.55 794 1198 794V796C1199.66 796 1201 794.657 1201 793H1199ZM1198 -758C1198.55 -758 1199 -757.552 1199 -757H1201C1201 -758.657 1199.66 -760 1198 -760V-758ZM-286 -760C-287.657 -760 -289 -758.657 -289 -757H-287C-287 -757.552 -286.552 -758 -286 -758V-760Z" fill="black" fill-opacity="0.1"/>
<path d="M8.5 17C8.5 17.8284 7.82843 18.5 7 18.5C6.17157 18.5 5.5 17.8284 5.5 17C5.5 16.1716 6.17157 15.5 7 15.5C7.82843 15.5 8.5 16.1716 8.5 17Z" fill="#1A1A1A"/>
<path d="M6 11C9.651 11.4553 12.5447 14.349 13 18M6 6C12.6274 6 18 11.3726 18 18M6 22H18C20.2091 22 22 20.2091 22 18V6C22 3.79086 20.2091 2 18 2H6C3.79086 2 2 3.79086 2 6V18C2 20.2091 3.79086 22 6 22Z" stroke="#1A1A1A" stroke-width="1.5" stroke-linecap="round"/>
</svg>
