<svg width="24" height="24" viewBox="0 0 24 24" fill="none" xmlns="http://www.w3.org/2000/svg">
<rect width="24" height="24" fill="#A6A6A6"/>
<path d="M-404 -469C-404 -470.105 -403.105 -471 -402 -471H1082C1083.1 -471 1084 -470.105 1084 -469V1081C1084 1082.1 1083.1 1083 1082 1083H-402C-403.105 1083 -404 1082.1 -404 1081V-469Z" fill="white"/>
<path d="M-402 -470H1082V-472H-402V-470ZM1083 -469V1081H1085V-469H1083ZM1082 1082H-402V1084H1082V1082ZM-403 1081V-469H-405V1081H-403ZM-402 1082C-402.552 1082 -403 1081.55 -403 1081H-405C-405 1082.66 -403.657 1084 -402 1084V1082ZM1083 1081C1083 1081.55 1082.55 1082 1082 1082V1084C1083.66 1084 1085 1082.66 1085 1081H1083ZM1082 -470C1082.55 -470 1083 -469.552 1083 -469H1085C1085 -470.657 1083.66 -472 1082 -472V-470ZM-402 -472C-403.657 -472 -405 -470.657 -405 -469H-403C-403 -469.552 -402.552 -470 -402 -470V-472Z" fill="black" fill-opacity="0.1"/>
<path d="M12 6.05337V20.3025M5 8.25464C6.26578 8.45067 7.67778 8.77657 9 9.28788M5 12.2546C5.63949 12.3537 6.3163 12.4859 7 12.6584M3.99433 3.01127C6.21271 3.26195 9.19313 3.93632 11.3168 5.42445C11.725 5.71045 12.275 5.71045 12.6832 5.42445C14.8069 3.93632 17.7873 3.26195 20.0057 3.01127C21.1036 2.88721 22 3.80402 22 4.93518V16.2C22 17.3311 21.1036 18.2483 20.0057 18.3723C17.7873 18.623 14.8069 19.2974 12.6832 20.7855C12.275 21.0715 11.725 21.0715 11.3168 20.7855C9.19313 19.2974 6.21271 18.623 3.99433 18.3723C2.89642 18.2483 2 17.3311 2 16.2V4.93518C2 3.80402 2.89642 2.88721 3.99433 3.01127Z" stroke="#1A1A1A" stroke-width="1.5" stroke-linecap="round"/>
</svg>
