<svg width="24" height="24" viewBox="0 0 24 24" fill="none" xmlns="http://www.w3.org/2000/svg">
<rect width="24" height="24" fill="#A6A6A6"/>
<path d="M-1096 -469C-1096 -470.105 -1095.1 -471 -1094 -471H390C391.105 -471 392 -470.105 392 -469V1081C392 1082.1 391.105 1083 390 1083H-1094C-1095.1 1083 -1096 1082.1 -1096 1081V-469Z" fill="white"/>
<path d="M-1094 -470H390V-472H-1094V-470ZM391 -469V1081H393V-469H391ZM390 1082H-1094V1084H390V1082ZM-1095 1081V-469H-1097V1081H-1095ZM-1094 1082C-1094.55 1082 -1095 1081.55 -1095 1081H-1097C-1097 1082.66 -1095.66 1084 -1094 1084V1082ZM391 1081C391 1081.55 390.552 1082 390 1082V1084C391.657 1084 393 1082.66 393 1081H391ZM390 -470C390.552 -470 391 -469.552 391 -469H393C393 -470.657 391.657 -472 390 -472V-470ZM-1094 -472C-1095.66 -472 -1097 -470.657 -1097 -469H-1095C-1095 -469.552 -1094.55 -470 -1094 -470V-472Z" fill="black" fill-opacity="0.1"/>
<path fill-rule="evenodd" clip-rule="evenodd" d="M11.25 4.37808C9.13095 2.92228 6.18953 2.25933 3.99433 2.01127C2.89642 1.88721 2 2.80402 2 3.93518V15.2C2 16.3311 2.89642 17.2483 3.99433 17.3723C6.18953 17.6204 9.13095 18.2833 11.25 19.7391V4.37808ZM12.75 19.7391C14.869 18.2833 17.8105 17.6204 20.0057 17.3723C21.1036 17.2483 22 16.3311 22 15.2V3.93518C22 2.80402 21.1036 1.88721 20.0057 2.01127C17.8105 2.25933 14.869 2.92228 12.75 4.37808V19.7391ZM4.25882 7.13996C4.32221 6.73063 4.70543 6.45019 5.11477 6.51358C6.41754 6.71534 7.88469 7.05257 9.27049 7.58846C9.65682 7.73786 9.8489 8.17215 9.6995 8.55849C9.55011 8.94482 9.11581 9.1369 8.72948 8.9875C7.47083 8.50078 6.11398 8.18621 4.8852 7.99591C4.47587 7.93252 4.19543 7.5493 4.25882 7.13996ZM5.11477 10.5136C4.70543 10.4502 4.32221 10.7306 4.25882 11.14C4.19543 11.5493 4.47587 11.9325 4.8852 11.9959C5.50444 12.0918 6.15812 12.2196 6.81651 12.3857C7.21814 12.487 7.62587 12.2436 7.7272 11.8419C7.82853 11.4403 7.58509 11.0326 7.18346 10.9313C6.47445 10.7524 5.7745 10.6158 5.11477 10.5136Z" fill="#1A1A1A"/>
</svg>
