<svg width="24" height="24" viewBox="0 0 24 24" fill="none" xmlns="http://www.w3.org/2000/svg">
<rect width="24" height="24" fill="#A6A6A6"/>
<path d="M-230 -853C-230 -854.105 -229.105 -855 -228 -855H1256C1257.1 -855 1258 -854.105 1258 -853V697C1258 698.105 1257.1 699 1256 699H-228C-229.105 699 -230 698.105 -230 697V-853Z" fill="white"/>
<path d="M-228 -854H1256V-856H-228V-854ZM1257 -853V697H1259V-853H1257ZM1256 698H-228V700H1256V698ZM-229 697V-853H-231V697H-229ZM-228 698C-228.552 698 -229 697.552 -229 697H-231C-231 698.657 -229.657 700 -228 700V698ZM1257 697C1257 697.552 1256.55 698 1256 698V700C1257.66 700 1259 698.657 1259 697H1257ZM1256 -854C1256.55 -854 1257 -853.552 1257 -853H1259C1259 -854.657 1257.66 -856 1256 -856V-854ZM-228 -856C-229.657 -856 -231 -854.657 -231 -853H-229C-229 -853.552 -228.552 -854 -228 -854V-856Z" fill="black" fill-opacity="0.1"/>
<path d="M12 5V2M12 10V8M12 22C8.13401 22 5 18.866 5 15V9C5 6.79086 6.79086 5 9 5H15C17.2091 5 19 6.79086 19 9V15C19 18.866 15.866 22 12 22Z" stroke="#1A1A1A" stroke-width="1.5" stroke-linecap="round" stroke-linejoin="round"/>
</svg>
