<svg width="24" height="24" viewBox="0 0 24 24" fill="none" xmlns="http://www.w3.org/2000/svg">
<rect width="24" height="24" fill="#A6A6A6"/>
<path d="M-922 -853C-922 -854.105 -921.105 -855 -920 -855H564C565.105 -855 566 -854.105 566 -853V697C566 698.105 565.105 699 564 699H-920C-921.105 699 -922 698.105 -922 697V-853Z" fill="white"/>
<path d="M-920 -854H564V-856H-920V-854ZM565 -853V697H567V-853H565ZM564 698H-920V700H564V698ZM-921 697V-853H-923V697H-921ZM-920 698C-920.552 698 -921 697.552 -921 697H-923C-923 698.657 -921.657 700 -920 700V698ZM565 697C565 697.552 564.552 698 564 698V700C565.657 700 567 698.657 567 697H565ZM564 -854C564.552 -854 565 -853.552 565 -853H567C567 -854.657 565.657 -856 564 -856V-854ZM-920 -856C-921.657 -856 -923 -854.657 -923 -853H-921C-921 -853.552 -920.552 -854 -920 -854V-856Z" fill="black" fill-opacity="0.1"/>
<path fill-rule="evenodd" clip-rule="evenodd" d="M12.75 2.75C12.75 2.33579 12.4142 2 12 2C11.5858 2 11.25 2.33579 11.25 2.75V5H9C6.79086 5 5 6.79086 5 9V15C5 18.866 8.13401 22 12 22C15.866 22 19 18.866 19 15V9C19 6.79086 17.2091 5 15 5H12.75V2.75ZM12 7.25C12.4142 7.25 12.75 7.58579 12.75 8V10C12.75 10.4142 12.4142 10.75 12 10.75C11.5858 10.75 11.25 10.4142 11.25 10V8C11.25 7.58579 11.5858 7.25 12 7.25Z" fill="#1A1A1A"/>
</svg>
