<svg width="24" height="24" viewBox="0 0 24 24" fill="none" xmlns="http://www.w3.org/2000/svg">
<rect width="24" height="24" fill="#A6A6A6"/>
<path d="M-404 -229C-404 -230.105 -403.105 -231 -402 -231H1082C1083.1 -231 1084 -230.105 1084 -229V1321C1084 1322.1 1083.1 1323 1082 1323H-402C-403.105 1323 -404 1322.1 -404 1321V-229Z" fill="white"/>
<path d="M-402 -230H1082V-232H-402V-230ZM1083 -229V1321H1085V-229H1083ZM1082 1322H-402V1324H1082V1322ZM-403 1321V-229H-405V1321H-403ZM-402 1322C-402.552 1322 -403 1321.55 -403 1321H-405C-405 1322.66 -403.657 1324 -402 1324V1322ZM1083 1321C1083 1321.55 1082.55 1322 1082 1322V1324C1083.66 1324 1085 1322.66 1085 1321H1083ZM1082 -230C1082.55 -230 1083 -229.552 1083 -229H1085C1085 -230.657 1083.66 -232 1082 -232V-230ZM-402 -232C-403.657 -232 -405 -230.657 -405 -229H-403C-403 -229.552 -402.552 -230 -402 -230V-232Z" fill="black" fill-opacity="0.1"/>
<path d="M22 20L20.5 18.5M7 14H2M7 9H2M15 4H2M22 14C22 17.3137 19.3137 20 16 20C12.6863 20 10 17.3137 10 14C10 10.6863 12.6863 8 16 8C19.3137 8 22 10.6863 22 14Z" stroke="#1A1A1A" stroke-width="1.5" stroke-linecap="round"/>
</svg>
