<svg width="24" height="24" viewBox="0 0 24 24" fill="none" xmlns="http://www.w3.org/2000/svg">
<rect width="24" height="24" fill="#A6A6A6"/>
<path d="M-1096 -229C-1096 -230.105 -1095.1 -231 -1094 -231H390C391.105 -231 392 -230.105 392 -229V1321C392 1322.1 391.105 1323 390 1323H-1094C-1095.1 1323 -1096 1322.1 -1096 1321V-229Z" fill="white"/>
<path d="M-1094 -230H390V-232H-1094V-230ZM391 -229V1321H393V-229H391ZM390 1322H-1094V1324H390V1322ZM-1095 1321V-229H-1097V1321H-1095ZM-1094 1322C-1094.55 1322 -1095 1321.55 -1095 1321H-1097C-1097 1322.66 -1095.66 1324 -1094 1324V1322ZM391 1321C391 1321.55 390.552 1322 390 1322V1324C391.657 1324 393 1322.66 393 1321H391ZM390 -230C390.552 -230 391 -229.552 391 -229H393C393 -230.657 391.657 -232 390 -232V-230ZM-1094 -232C-1095.66 -232 -1097 -230.657 -1097 -229H-1095C-1095 -229.552 -1094.55 -230 -1094 -230V-232Z" fill="black" fill-opacity="0.1"/>
<path fill-rule="evenodd" clip-rule="evenodd" d="M2 3.25C1.58579 3.25 1.25 3.58579 1.25 4C1.25 4.41421 1.58579 4.75 2 4.75H15C15.4142 4.75 15.75 4.41421 15.75 4C15.75 3.58579 15.4142 3.25 15 3.25H2ZM16 8.75C13.1005 8.75 10.75 11.1005 10.75 14C10.75 16.8995 13.1005 19.25 16 19.25C18.8995 19.25 21.25 16.8995 21.25 14C21.25 11.1005 18.8995 8.75 16 8.75ZM9.25 14C9.25 10.2721 12.2721 7.25 16 7.25C19.7279 7.25 22.75 10.2721 22.75 14C22.75 15.5938 22.1976 17.0585 21.2739 18.2133L22.5303 19.4697C22.8232 19.7626 22.8232 20.2374 22.5303 20.5303C22.2374 20.8232 21.7626 20.8232 21.4697 20.5303L20.2133 19.2739C19.0585 20.1976 17.5938 20.75 16 20.75C12.2721 20.75 9.25 17.7279 9.25 14ZM2 13.25C1.58579 13.25 1.25 13.5858 1.25 14C1.25 14.4142 1.58579 14.75 2 14.75H7C7.41421 14.75 7.75 14.4142 7.75 14C7.75 13.5858 7.41421 13.25 7 13.25H2ZM1.25 9C1.25 8.58579 1.58579 8.25 2 8.25H7C7.41421 8.25 7.75 8.58579 7.75 9C7.75 9.41421 7.41421 9.75 7 9.75H2C1.58579 9.75 1.25 9.41421 1.25 9Z" fill="#1A1A1A"/>
</svg>
