<svg width="24" height="24" viewBox="0 0 24 24" fill="none" xmlns="http://www.w3.org/2000/svg">
<rect width="24" height="24" fill="#A6A6A6"/>
<path d="M-577 -373C-577 -374.105 -576.105 -375 -575 -375H909C910.105 -375 911 -374.105 911 -373V1177C911 1178.1 910.105 1179 909 1179H-575C-576.105 1179 -577 1178.1 -577 1177V-373Z" fill="white"/>
<path d="M-575 -374H909V-376H-575V-374ZM910 -373V1177H912V-373H910ZM909 1178H-575V1180H909V1178ZM-576 1177V-373H-578V1177H-576ZM-575 1178C-575.552 1178 -576 1177.55 -576 1177H-578C-578 1178.66 -576.657 1180 -575 1180V1178ZM910 1177C910 1177.55 909.552 1178 909 1178V1180C910.657 1180 912 1178.66 912 1177H910ZM909 -374C909.552 -374 910 -373.552 910 -373H912C912 -374.657 910.657 -376 909 -376V-374ZM-575 -376C-576.657 -376 -578 -374.657 -578 -373H-576C-576 -373.552 -575.552 -374 -575 -374V-376Z" fill="black" fill-opacity="0.1"/>
<path d="M13 14C14.1046 14 15 13.1046 15 12C15 10.8954 14.1046 10 13 10C11.8954 10 11 10.8954 11 12C11 13.1046 11.8954 14 13 14ZM13 14V22M8 6H18C19.1046 6 20 5.10457 20 4C20 2.89543 19.1046 2 18 2H8C6.89543 2 6 2.89543 6 4C6 5.10457 6.89543 6 8 6ZM7.99197 6H18.008L19.7221 11.3282C20.2189 12.5829 20.0429 13.9811 19.2476 15.0968L13.9519 21.526C13.5014 22.158 12.4986 22.158 12.0481 21.526L6.75238 15.0968C5.95707 13.9811 5.78105 12.5829 6.27795 11.3282L7.99197 6Z" stroke="#1A1A1A" stroke-width="1.5"/>
</svg>
