<svg width="24" height="24" viewBox="0 0 24 24" fill="none" xmlns="http://www.w3.org/2000/svg">
<rect width="24" height="24" fill="#A6A6A6"/>
<path d="M-1270 -373C-1270 -374.105 -1269.1 -375 -1268 -375H216C217.105 -375 218 -374.105 218 -373V1177C218 1178.1 217.105 1179 216 1179H-1268C-1269.1 1179 -1270 1178.1 -1270 1177V-373Z" fill="white"/>
<path d="M-1268 -374H216V-376H-1268V-374ZM217 -373V1177H219V-373H217ZM216 1178H-1268V1180H216V1178ZM-1269 1177V-373H-1271V1177H-1269ZM-1268 1178C-1268.55 1178 -1269 1177.55 -1269 1177H-1271C-1271 1178.66 -1269.66 1180 -1268 1180V1178ZM217 1177C217 1177.55 216.552 1178 216 1178V1180C217.657 1180 219 1178.66 219 1177H217ZM216 -374C216.552 -374 217 -373.552 217 -373H219C219 -374.657 217.657 -376 216 -376V-374ZM-1268 -376C-1269.66 -376 -1271 -374.657 -1271 -373H-1269C-1269 -373.552 -1268.55 -374 -1268 -374V-376Z" fill="black" fill-opacity="0.1"/>
<path fill-rule="evenodd" clip-rule="evenodd" d="M7 6H17C18.1046 6 19 5.10457 19 4C19 2.89543 18.1046 2 17 2H7C5.89543 2 5 2.89543 5 4C5 5.10457 5.89543 6 7 6ZM12.9519 21.526L18.2476 15.0968C19.0429 13.9811 19.2189 12.5829 18.7221 11.3282L17.4906 7.5H6.50944L5.27795 11.3282C4.78105 12.5829 4.95707 13.9811 5.75238 15.0968L11.0481 21.526C11.1069 21.6084 11.175 21.68 11.25 21.7409V13.8546C10.517 13.5579 10 12.8393 10 12C10 10.8954 10.8954 10 12 10C13.1046 10 14 10.8954 14 12C14 12.8393 13.483 13.5579 12.75 13.8546V21.7409C12.825 21.68 12.8931 21.6084 12.9519 21.526Z" fill="#1A1A1A"/>
</svg>
