<svg width="24" height="24" viewBox="0 0 24 24" fill="none" xmlns="http://www.w3.org/2000/svg">
<rect width="24" height="24" fill="#A6A6A6"/>
<path d="M-922 -565C-922 -566.105 -921.105 -567 -920 -567H564C565.105 -567 566 -566.105 566 -565V985C566 986.105 565.105 987 564 987H-920C-921.105 987 -922 986.105 -922 985V-565Z" fill="white"/>
<path d="M-920 -566H564V-568H-920V-566ZM565 -565V985H567V-565H565ZM564 986H-920V988H564V986ZM-921 985V-565H-923V985H-921ZM-920 986C-920.552 986 -921 985.552 -921 985H-923C-923 986.657 -921.657 988 -920 988V986ZM565 985C565 985.552 564.552 986 564 986V988C565.657 988 567 986.657 567 985H565ZM564 -566C564.552 -566 565 -565.552 565 -565H567C567 -566.657 565.657 -568 564 -568V-566ZM-920 -568C-921.657 -568 -923 -566.657 -923 -565H-921C-921 -565.552 -920.552 -566 -920 -566V-568Z" fill="black" fill-opacity="0.1"/>
<path fill-rule="evenodd" clip-rule="evenodd" d="M17.7772 18H6.22281C4.39443 18 3.35076 16.1609 4.44779 14.8721C4.93344 14.3016 5.23274 13.6249 5.31328 12.9153L5.76046 8.97519C6.0016 6.85063 7.58766 5.10719 9.73005 4.37366V4.26995C9.73005 3.01629 10.7463 2 12 2C13.2537 2 14.2699 3.01629 14.2699 4.26995V4.37366C16.4123 5.10719 17.9984 6.85063 18.2395 8.97519L18.6867 12.9153C18.7673 13.6249 19.0666 14.3016 19.5522 14.8721C20.6492 16.1609 19.6056 18 17.7772 18ZM14.9721 20.0715C14.5147 21.1992 13.3565 22 12 22C10.6435 22 9.48526 21.1992 9.02789 20.0715C9.00883 20.0245 9 19.974 9 19.9233C9 19.6895 9.18951 19.5 9.42329 19.5H14.5767C14.8105 19.5 15 19.6895 15 19.9233C15 19.974 14.9912 20.0245 14.9721 20.0715Z" fill="#1A1A1A"/>
</svg>
