<svg width="24" height="24" viewBox="0 0 24 24" fill="none" xmlns="http://www.w3.org/2000/svg">
<rect width="24" height="24" fill="#A6A6A6"/>
<path d="M-1038 -1072C-1038 -1073.1 -1037.1 -1074 -1036 -1074H448C449.105 -1074 450 -1073.1 450 -1072V478C450 479.105 449.105 480 448 480H-1036C-1037.1 480 -1038 479.105 -1038 478V-1072Z" fill="white"/>
<path d="M-1036 -1073H448V-1075H-1036V-1073ZM449 -1072V478H451V-1072H449ZM448 479H-1036V481H448V479ZM-1037 478V-1072H-1039V478H-1037ZM-1036 479C-1036.55 479 -1037 478.552 -1037 478H-1039C-1039 479.657 -1037.66 481 -1036 481V479ZM449 478C449 478.552 448.552 479 448 479V481C449.657 481 451 479.657 451 478H449ZM448 -1073C448.552 -1073 449 -1072.55 449 -1072H451C451 -1073.66 449.657 -1075 448 -1075V-1073ZM-1036 -1075C-1037.66 -1075 -1039 -1073.66 -1039 -1072H-1037C-1037 -1072.55 -1036.55 -1073 -1036 -1073V-1075Z" fill="black" fill-opacity="0.1"/>
<path fill-rule="evenodd" clip-rule="evenodd" d="M9 4C9 5.10457 8.10457 6 7 6C5.89543 6 5 5.10457 5 4C5 2.89543 5.89543 2 7 2C8.10457 2 9 2.89543 9 4ZM7 6C5.34315 6 4 6.89543 4 8C4 9.10457 5.34315 10 7 10C8.65685 10 10 9.10457 10 8C10 6.89543 8.65685 6 7 6ZM18 18C19.1046 18 20 17.1046 20 16C20 14.8954 19.1046 14 18 14C16.8954 14 16 14.8954 16 16C16 17.1046 16.8954 18 18 18ZM18 18C19.6569 18 21 18.8954 21 20C21 21.1046 19.6569 22 18 22C16.3431 22 15 21.1046 15 20C15 18.8954 16.3431 18 18 18ZM11.25 3C11.25 2.58579 11.5858 2.25 12 2.25C17.3848 2.25 21.75 6.61522 21.75 12C21.75 12.4142 21.4142 12.75 21 12.75C20.5858 12.75 20.25 12.4142 20.25 12C20.25 7.44365 16.5563 3.75 12 3.75C11.5858 3.75 11.25 3.41421 11.25 3ZM3 11.25C3.41421 11.25 3.75 11.5858 3.75 12C3.75 16.5563 7.44365 20.25 12 20.25C12.4142 20.25 12.75 20.5858 12.75 21C12.75 21.4142 12.4142 21.75 12 21.75C6.61522 21.75 2.25 17.3848 2.25 12C2.25 11.5858 2.58579 11.25 3 11.25Z" fill="#1A1A1A"/>
</svg>
