<svg width="24" height="24" viewBox="0 0 24 24" fill="none" xmlns="http://www.w3.org/2000/svg">
<rect width="24" height="24" fill="#A6A6A6"/>
<path d="M-1154 -853C-1154 -854.105 -1153.1 -855 -1152 -855H332C333.105 -855 334 -854.105 334 -853V697C334 698.105 333.105 699 332 699H-1152C-1153.1 699 -1154 698.105 -1154 697V-853Z" fill="white"/>
<path d="M-1152 -854H332V-856H-1152V-854ZM333 -853V697H335V-853H333ZM332 698H-1152V700H332V698ZM-1153 697V-853H-1155V697H-1153ZM-1152 698C-1152.55 698 -1153 697.552 -1153 697H-1155C-1155 698.657 -1153.66 700 -1152 700V698ZM333 697C333 697.552 332.552 698 332 698V700C333.657 700 335 698.657 335 697H333ZM332 -854C332.552 -854 333 -853.552 333 -853H335C335 -854.657 333.657 -856 332 -856V-854ZM-1152 -856C-1153.66 -856 -1155 -854.657 -1155 -853H-1153C-1153 -853.552 -1152.55 -854 -1152 -854V-856Z" fill="black" fill-opacity="0.1"/>
<path fill-rule="evenodd" clip-rule="evenodd" d="M22 12C22 17.5228 17.5228 22 12 22C6.47715 22 2 17.5228 2 12C2 6.47715 6.47715 2 12 2C17.5228 2 22 6.47715 22 12ZM12 7.75C11.3096 7.75 10.75 8.30964 10.75 9C10.75 9.41421 10.4142 9.75 10 9.75C9.58579 9.75 9.25 9.41421 9.25 9C9.25 7.48122 10.4812 6.25 12 6.25C13.5188 6.25 14.75 7.48122 14.75 9C14.75 9.54634 14.5899 10.0576 14.3138 10.4866C14.1409 10.7554 13.9387 11.0119 13.7523 11.2436L13.6518 11.3683C13.4971 11.5597 13.3551 11.7354 13.2239 11.9158C12.9003 12.3605 12.75 12.6947 12.75 13V13.5C12.75 13.9142 12.4142 14.25 12 14.25C11.5858 14.25 11.25 13.9142 11.25 13.5V13C11.25 12.2007 11.6424 11.5398 12.011 11.0333C12.1667 10.8192 12.3373 10.6081 12.4925 10.4162L12.5836 10.3033C12.7688 10.0731 12.9265 9.87065 13.0524 9.67495C13.1774 9.48068 13.25 9.24996 13.25 9C13.25 8.30964 12.6904 7.75 12 7.75ZM12.75 16C12.75 15.5858 12.4142 15.25 12 15.25C11.5858 15.25 11.25 15.5858 11.25 16V17C11.25 17.4142 11.5858 17.75 12 17.75C12.4142 17.75 12.75 17.4142 12.75 17V16Z" fill="#1A1A1A"/>
</svg>
