<svg width="68" height="68" viewBox="0 0 68 68" fill="none" xmlns="http://www.w3.org/2000/svg">
<path d="M40.1027 11.799H58.4104V58.4104H9.58984V9.58984L40.1027 40.6641V11.799ZM12.6411 55.3029H50.1385L12.6411 17.1156V55.3029ZM51.4258 52.1955L54.4771 55.3029H55.3591V14.9064H43.1539V18.0139H49.2565V21.1213H43.1539V24.2287H49.2565V27.3361H43.1539V30.4436H52.3078V33.551H43.1539V36.6584H49.2565V39.7658H43.1539V42.8732H49.2565V45.9807H45.3232L48.3745 49.0881H52.3078V52.1955H51.4258ZM18.7437 34.4492L33.1181 49.0881H18.7437V34.4492ZM21.795 41.975V45.9807H25.7283L21.795 41.975Z" fill="#4C8BFF"/>
</svg>
