<svg width="68" height="68" viewBox="0 0 68 68" fill="none" xmlns="http://www.w3.org/2000/svg">
<path d="M43.9647 60.1068H24.7853C16.0346 60.1068 11 54.9197 11 45.9038V21.203C11 12.1872 16.0346 7 24.7853 7H43.9647C52.7154 7 57.75 12.1872 57.75 21.203V45.9038C57.75 54.9197 52.7154 60.1068 43.9647 60.1068ZM24.7853 10.7051C17.9286 10.7051 14.5962 14.1385 14.5962 21.203V45.9038C14.5962 52.9683 17.9286 56.4017 24.7853 56.4017H43.9647C50.8214 56.4017 54.1538 52.9683 54.1538 45.9038V21.203C54.1538 14.1385 50.8214 10.7051 43.9647 10.7051H24.7853Z" fill="#4C8BFF"/>
<path d="M49.9542 26.7608H45.1594C41.5153 26.7608 38.5664 23.7226 38.5664 19.968V15.0279C38.5664 14.0151 39.3815 13.1753 40.3645 13.1753C41.3474 13.1753 42.1626 14.0151 42.1626 15.0279V19.968C42.1626 21.6724 43.5051 23.0556 45.1594 23.0556H49.9542C50.9372 23.0556 51.7523 23.8955 51.7523 24.9082C51.7523 25.9209 50.9372 26.7608 49.9542 26.7608Z" fill="#4C8BFF"/>
<path d="M29.5791 47.7581C29.1236 47.7581 28.6681 47.5852 28.3085 47.2147L23.5136 42.2746C22.8184 41.5582 22.8184 40.3724 23.5136 39.6561L28.3085 34.716C29.0038 33.9996 30.1545 33.9996 30.8498 34.716C31.545 35.4323 31.545 36.6181 30.8498 37.3344L27.3255 40.9653L30.8498 44.5963C31.545 45.3126 31.545 46.4984 30.8498 47.2147C30.4902 47.5852 30.0347 47.7581 29.5791 47.7581Z" fill="#4C8BFF"/>
<path d="M39.1671 47.7581C38.7116 47.7581 38.2561 47.5852 37.8964 47.2147C37.2012 46.4984 37.2012 45.3126 37.8964 44.5963L41.4207 40.9653L37.8964 37.3344C37.2012 36.6181 37.2012 35.4323 37.8964 34.716C38.5917 33.9996 39.7425 33.9996 40.4377 34.716L45.2326 39.6561C45.9278 40.3724 45.9278 41.5582 45.2326 42.2746L40.4377 47.2147C40.0781 47.5852 39.6226 47.7581 39.1671 47.7581Z" fill="#4C8BFF"/>
</svg>
