<svg width="84" height="72" viewBox="0 0 84 72" fill="none" xmlns="http://www.w3.org/2000/svg">
<rect width="84" height="72" fill="#A6A6A6"/>
<path d="M-363 -1256C-363 -1257.1 -362.105 -1258 -361 -1258H2188C2189.1 -1258 2190 -1257.1 2190 -1256V3475C2190 3476.1 2189.1 3477 2188 3477H-361C-362.105 3477 -363 3476.1 -363 3475V-1256Z" fill="#4C4C4C"/>
<path d="M-361 -1257H2188V-1259H-361V-1257ZM2189 -1256V3475H2191V-1256H2189ZM2188 3476H-361V3478H2188V3476ZM-362 3475V-1256H-364V3475H-362ZM-361 3476C-361.552 3476 -362 3475.55 -362 3475H-364C-364 3476.66 -362.657 3478 -361 3478V3476ZM2189 3475C2189 3475.55 2188.55 3476 2188 3476V3478C2189.66 3478 2191 3476.66 2191 3475H2189ZM2188 -1257C2188.55 -1257 2189 -1256.55 2189 -1256H2191C2191 -1257.66 2189.66 -1259 2188 -1259V-1257ZM-361 -1259C-362.657 -1259 -364 -1257.66 -364 -1256H-362C-362 -1256.55 -361.552 -1257 -361 -1257V-1259Z" fill="black" fill-opacity="0.1"/>
<g clip-path="url(#clip0_442_5509)">
<rect width="1440" height="4055" transform="translate(-210 -907)" fill="white"/>
<rect x="-19.25" y="-18.25" width="1058.5" height="108.5" rx="9.25" fill="#F5F8FF"/>
<rect x="-19.25" y="-18.25" width="1058.5" height="108.5" rx="9.25" stroke="#CCDEFF" stroke-width="1.5"/>
<circle cx="27.7328" cy="27.7328" r="27.2328" transform="matrix(0.978932 0.204187 0.312635 0.949873 0 7.19067)" fill="#E5EEFF" stroke="#1A1A1A"/>
<circle cx="27.7328" cy="27.7328" r="27.2328" transform="matrix(0.978932 0.204187 0.312635 0.949873 6.83398 0.798584)" fill="#E5EEFF" stroke="#1A1A1A"/>
<circle cx="20.5513" cy="20.5513" r="20.0513" transform="matrix(0.978932 0.204187 0.312635 0.949873 16.0996 9.18726)" fill="white" stroke="#1A1A1A"/>
<circle cx="14.3366" cy="14.3366" r="13.8366" transform="matrix(0.978932 0.204187 0.312635 0.949873 24.1113 16.3237)" fill="#E5EEFF" stroke="#1A1A1A"/>
<circle cx="8.95485" cy="8.95485" r="8.45485" transform="matrix(0.978932 0.204187 0.312635 0.949873 31.123 22.4587)" fill="white" stroke="#1A1A1A"/>
<path d="M75.7569 6.67811L75.7094 7.16043L76.19 7.22295L78.5231 7.52645L78.1082 7.85627L75.286 7.49697L75.5726 4.66648L75.9875 4.33665L75.7569 6.67811Z" fill="#669BFF" stroke="#1A1A1A"/>
<path d="M74.2842 7.84852L74.2367 8.33084L74.7173 8.39336L77.0505 8.69686L76.6355 9.02668L73.8133 8.66738L74.1 5.83689L74.5149 5.50706L74.2842 7.84852Z" fill="#669BFF" stroke="#1A1A1A"/>
<path d="M72.8116 9.01893L72.7641 9.50125L73.2447 9.56377L75.5778 9.86727L75.1629 10.1971L72.3407 9.83779L72.6273 7.0073L73.0422 6.67747L72.8116 9.01893Z" fill="#669BFF" stroke="#1A1A1A"/>
<rect x="77.6113" y="5.85271" width="41.429" height="0.347563" rx="0.173781" transform="rotate(141.519 77.6113 5.85271)" fill="#E5EEFF" stroke="#1A1A1A" stroke-width="0.347563"/>
<path d="M43.021 27.9773L42.4447 32.9612C42.4075 33.2829 42.6378 33.5735 42.9587 33.6097L47.9308 34.1711C48.5848 34.2449 49.2436 34.0539 49.759 33.6432C50.8299 32.7895 51.0136 31.2232 50.1629 30.15C49.7536 29.6337 49.1561 29.302 48.5023 29.2282L47.9187 29.1623C47.8973 29.1599 47.8819 29.1405 47.8844 29.119L47.952 28.534C48.0278 27.8786 47.8404 27.2201 47.4311 26.7038C46.5803 25.6306 45.0172 25.4567 43.9462 26.3104C43.4309 26.7212 43.0968 27.3217 43.021 27.9773Z" fill="#669BFF" stroke="#1A1A1A"/>
<path d="M42.9987 28.0847L42.6471 31.8142L43.2506 28.9923C43.7865 26.4867 47.3764 26.5575 47.8107 29.0821C47.8152 29.1086 47.8535 29.1075 47.8566 29.0808L47.9102 28.6175C47.986 27.9621 47.7963 27.3008 47.387 26.7845C46.5405 25.7165 44.9849 25.5326 43.9192 26.382C43.3942 26.8005 43.0618 27.4153 42.9987 28.0847Z" fill="#337AFF"/>
</g>
<defs>
<clipPath id="clip0_442_5509">
<rect width="1440" height="4055" fill="white" transform="translate(-210 -907)"/>
</clipPath>
</defs>
</svg>
