<svg width="108" height="28" viewBox="0 0 108 28" fill="none" xmlns="http://www.w3.org/2000/svg">
<g id="&#235;&#161;&#156;&#234;&#179;&#160;" clip-path="url(#clip0_442_6991)">
<g id="Layer 1">
<g id="Group">
<g id="Group_2">
<path id="Vector" opacity="0.5" d="M9.41602 0.0742188H27.8372V18.6404H9.34069C4.18756 18.6404 0 14.4961 0 9.39626C0 4.25236 4.21838 0.0742188 9.41602 0.0742188Z" fill="#0059FF"/>
<path id="Vector_2" opacity="0.5" d="M18.4952 27.9219L-0.00123024 27.9219L-0.00123024 9.35574L18.4199 9.35574C23.6176 9.35912 27.8359 13.5339 27.8359 18.6778C27.8359 23.781 23.6484 27.9219 18.4952 27.9219Z" fill="#0059FF"/>
</g>
<g id="Group_3">
<path id="Vector_3" opacity="0.5" d="M42.7133 0.0742188H31.9688V27.9217H42.7133V0.0742188Z" fill="#0059FF"/>
<path id="Vector_4" opacity="0.5" d="M59.7991 0.0742188H31.9688V8.24074H59.7991V0.0742188Z" fill="#0059FF"/>
<path id="Vector_5" opacity="0.5" d="M53.4612 11.3516H31.9688V19.3825H53.4612V11.3516Z" fill="#0059FF"/>
</g>
<g id="Group_4">
<path id="Vector_6" opacity="0.5" d="M55.54 27.9217H69.5305V0.0742188L55.54 27.9217Z" fill="#0059FF"/>
<path id="Vector_7" opacity="0.72" d="M69.5303 27.9217H83.5242L69.5303 0.0742188V27.9217Z" fill="#0059FF"/>
</g>
<g id="Group_5">
<path id="Vector_8" opacity="0.5" d="M87.8706 24.0793C90.4147 26.5021 93.8626 27.9965 97.6701 27.9965C101.752 27.9965 105.419 26.2751 108 23.5371L98.2077 13.8457L87.8672 24.0793H87.8706Z" fill="#0059FF"/>
<path id="Vector_9" opacity="0.5" d="M97.6708 0C93.9421 0 90.5591 1.44016 88.0322 3.7749L98.2118 13.8492L107.861 4.30013C105.286 1.65364 101.677 0 97.6742 0L97.6708 0Z" fill="#0059FF"/>
<path id="Vector_10" opacity="0.72" d="M88.0314 3.77487C85.2648 6.32988 83.5254 9.95907 83.5254 13.9983C83.5254 18.0375 85.1963 21.5345 87.8705 24.0794L98.2109 13.8458L88.0314 3.77148V3.77487Z" fill="#0059FF"/>
</g>
</g>
</g>
</g>
<defs>
<clipPath id="clip0_442_6991">
<rect width="108" height="28" fill="white"/>
</clipPath>
</defs>
</svg>
