<svg width="68" height="68" viewBox="0 0 68 68" fill="none" xmlns="http://www.w3.org/2000/svg">
<path d="M11.75 11.3208H35.25H58.75" stroke="#4C8BFF" stroke-width="4.40674" stroke-linecap="round"/>
<path d="M13.9531 32.3208C13.9531 29.563 14.5092 26.8323 15.5897 24.2844C16.6702 21.7366 18.2539 19.4216 20.2503 17.4716C22.2468 15.5215 24.6169 13.9747 27.2254 12.9193C29.8339 11.864 32.6297 11.3208 35.4531 11.3208C38.2765 11.3208 41.0723 11.864 43.6808 12.9193C46.2893 13.9747 48.6595 15.5215 50.6559 17.4716C52.6524 19.4216 54.2361 21.7366 55.3165 24.2844C56.397 26.8323 56.9531 29.563 56.9531 32.3208" stroke="#4C8BFF" stroke-width="4.40674" stroke-linecap="round" stroke-linejoin="round"/>
<rect x="8.07796" y="8.38314" width="5.93783" height="5.93783" fill="white" stroke="#4C8BFF" stroke-width="2.93783" stroke-linejoin="round"/>
<rect x="54.8201" y="8.38314" width="5.93783" height="5.93783" fill="white" stroke="#4C8BFF" stroke-width="2.93783" stroke-linejoin="round"/>
<circle cx="34.2852" cy="11.3521" r="2.96891" fill="white" stroke="#4C8BFF" stroke-width="2.93783"/>
<circle cx="13.9844" cy="31.6514" r="2.96891" fill="white" stroke="#4C8BFF" stroke-width="2.93783"/>
<circle cx="55.5859" cy="31.6514" r="2.96891" fill="white" stroke="#4C8BFF" stroke-width="2.93783"/>
<path d="M23.4922 37.9417L35.4922 20.8687L47.4922 37.9417C47.4922 37.9417 43.0727 41.8984 42.1232 44.4052C41.1737 46.912 41.133 50.8687 41.133 50.8687H29.4895C29.4895 50.8687 29.5525 46.8111 28.7481 44.4052C27.6763 41.1995 23.4922 37.9417 23.4922 37.9417Z" fill="white"/>
<path d="M35.4922 20.8687L23.4922 37.9417C23.4922 37.9417 27.6763 41.1995 28.7481 44.4052C29.5525 46.8111 29.4895 50.8687 29.4895 50.8687H41.133C41.133 50.8687 41.1737 46.912 42.1232 44.4052C43.0727 41.8984 47.4922 37.9417 47.4922 37.9417L35.4922 20.8687ZM35.4922 20.8687V32.2507" stroke="#4C8BFF" stroke-width="2.93783" stroke-linejoin="round"/>
<circle cx="35.3164" cy="34.6201" r="3" stroke="#4C8BFF" stroke-width="2.93783"/>
<path d="M23.5 56.7179C23.5 53.4729 26.1306 50.8423 29.3757 50.8423H41.6244C44.8694 50.8423 47.5 53.4729 47.5 56.7179V59.8423H23.5V56.7179Z" stroke="#4C8BFF" stroke-width="4.40674" stroke-linejoin="round"/>
</svg>
