<svg width="24" height="24" viewBox="0 0 24 24" fill="none" xmlns="http://www.w3.org/2000/svg">
<rect width="24" height="24" fill="#A6A6A6"/>
<path d="M-346 -613C-346 -614.105 -345.105 -615 -344 -615H1140C1141.1 -615 1142 -614.105 1142 -613V937C1142 938.105 1141.1 939 1140 939H-344C-345.105 939 -346 938.105 -346 937V-613Z" fill="white"/>
<path d="M-344 -614H1140V-616H-344V-614ZM1141 -613V937H1143V-613H1141ZM1140 938H-344V940H1140V938ZM-345 937V-613H-347V937H-345ZM-344 938C-344.552 938 -345 937.552 -345 937H-347C-347 938.657 -345.657 940 -344 940V938ZM1141 937C1141 937.552 1140.55 938 1140 938V940C1141.66 940 1143 938.657 1143 937H1141ZM1140 -614C1140.55 -614 1141 -613.552 1141 -613H1143C1143 -614.657 1141.66 -616 1140 -616V-614ZM-344 -616C-345.657 -616 -347 -614.657 -347 -613H-345C-345 -613.552 -344.552 -614 -344 -614V-616Z" fill="black" fill-opacity="0.1"/>
<path d="M10 6H16M10 14H16M10 10H22M10 18H22M3 10H5C5.55228 10 6 9.55228 6 9V7C6 6.44772 5.55228 6 5 6H3C2.44772 6 2 6.44772 2 7V9C2 9.55228 2.44772 10 3 10ZM3 18H5C5.55228 18 6 17.5523 6 17V15C6 14.4477 5.55228 14 5 14H3C2.44772 14 2 14.4477 2 15V17C2 17.5523 2.44772 18 3 18Z" stroke="#1A1A1A" stroke-width="1.5" stroke-linecap="round"/>
</svg>
