<svg width="24" height="24" viewBox="0 0 24 24" fill="none" xmlns="http://www.w3.org/2000/svg">
<rect width="24" height="24" fill="#A6A6A6"/>
<path d="M-1038 -613C-1038 -614.105 -1037.1 -615 -1036 -615H448C449.105 -615 450 -614.105 450 -613V937C450 938.105 449.105 939 448 939H-1036C-1037.1 939 -1038 938.105 -1038 937V-613Z" fill="white"/>
<path d="M-1036 -614H448V-616H-1036V-614ZM449 -613V937H451V-613H449ZM448 938H-1036V940H448V938ZM-1037 937V-613H-1039V937H-1037ZM-1036 938C-1036.55 938 -1037 937.552 -1037 937H-1039C-1039 938.657 -1037.66 940 -1036 940V938ZM449 937C449 937.552 448.552 938 448 938V940C449.657 940 451 938.657 451 937H449ZM448 -614C448.552 -614 449 -613.552 449 -613H451C451 -614.657 449.657 -616 448 -616V-614ZM-1036 -616C-1037.66 -616 -1039 -614.657 -1039 -613H-1037C-1037 -613.552 -1036.55 -614 -1036 -614V-616Z" fill="black" fill-opacity="0.1"/>
<path fill-rule="evenodd" clip-rule="evenodd" d="M3 5.25C2.0335 5.25 1.25 6.0335 1.25 7V9C1.25 9.9665 2.0335 10.75 3 10.75H5C5.9665 10.75 6.75 9.9665 6.75 9V7C6.75 6.0335 5.9665 5.25 5 5.25H3ZM3 13.25C2.0335 13.25 1.25 14.0335 1.25 15V17C1.25 17.9665 2.0335 18.75 3 18.75H5C5.9665 18.75 6.75 17.9665 6.75 17V15C6.75 14.0335 5.9665 13.25 5 13.25H3ZM9.25 6C9.25 5.58579 9.58579 5.25 10 5.25H16C16.4142 5.25 16.75 5.58579 16.75 6C16.75 6.41421 16.4142 6.75 16 6.75H10C9.58579 6.75 9.25 6.41421 9.25 6ZM10 13.25C9.58579 13.25 9.25 13.5858 9.25 14C9.25 14.4142 9.58579 14.75 10 14.75H16C16.4142 14.75 16.75 14.4142 16.75 14C16.75 13.5858 16.4142 13.25 16 13.25H10ZM9.25 10C9.25 9.58579 9.58579 9.25 10 9.25H22C22.4142 9.25 22.75 9.58579 22.75 10C22.75 10.4142 22.4142 10.75 22 10.75H10C9.58579 10.75 9.25 10.4142 9.25 10ZM10 17.25C9.58579 17.25 9.25 17.5858 9.25 18C9.25 18.4142 9.58579 18.75 10 18.75H22C22.4142 18.75 22.75 18.4142 22.75 18C22.75 17.5858 22.4142 17.25 22 17.25H10Z" fill="#1A1A1A"/>
</svg>
