<svg width="24" height="24" viewBox="0 0 24 24" fill="none" xmlns="http://www.w3.org/2000/svg">
<rect width="24" height="24" fill="#A6A6A6"/>
<path d="M-578 -325C-578 -326.105 -577.105 -327 -576 -327H908C909.105 -327 910 -326.105 910 -325V1225C910 1226.1 909.105 1227 908 1227H-576C-577.105 1227 -578 1226.1 -578 1225V-325Z" fill="white"/>
<path d="M-576 -326H908V-328H-576V-326ZM909 -325V1225H911V-325H909ZM908 1226H-576V1228H908V1226ZM-577 1225V-325H-579V1225H-577ZM-576 1226C-576.552 1226 -577 1225.55 -577 1225H-579C-579 1226.66 -577.657 1228 -576 1228V1226ZM909 1225C909 1225.55 908.552 1226 908 1226V1228C909.657 1228 911 1226.66 911 1225H909ZM908 -326C908.552 -326 909 -325.552 909 -325H911C911 -326.657 909.657 -328 908 -328V-326ZM-576 -328C-577.657 -328 -579 -326.657 -579 -325H-577C-577 -325.552 -576.552 -326 -576 -326V-328Z" fill="black" fill-opacity="0.1"/>
<path d="M16 12H8M12 22C17.5228 22 22 17.5228 22 12C22 6.47715 17.5228 2 12 2C6.47715 2 2 6.47715 2 12C2 17.5228 6.47715 22 12 22Z" stroke="#1A1A1A" stroke-width="1.5" stroke-linecap="round" stroke-linejoin="round"/>
</svg>
