<svg width="24" height="24" viewBox="0 0 24 24" fill="none" xmlns="http://www.w3.org/2000/svg">
<rect width="24" height="24" fill="#A6A6A6"/>
<path d="M-1270 -325C-1270 -326.105 -1269.1 -327 -1268 -327H216C217.105 -327 218 -326.105 218 -325V1225C218 1226.1 217.105 1227 216 1227H-1268C-1269.1 1227 -1270 1226.1 -1270 1225V-325Z" fill="white"/>
<path d="M-1268 -326H216V-328H-1268V-326ZM217 -325V1225H219V-325H217ZM216 1226H-1268V1228H216V1226ZM-1269 1225V-325H-1271V1225H-1269ZM-1268 1226C-1268.55 1226 -1269 1225.55 -1269 1225H-1271C-1271 1226.66 -1269.66 1228 -1268 1228V1226ZM217 1225C217 1225.55 216.552 1226 216 1226V1228C217.657 1228 219 1226.66 219 1225H217ZM216 -326C216.552 -326 217 -325.552 217 -325H219C219 -326.657 217.657 -328 216 -328V-326ZM-1268 -328C-1269.66 -328 -1271 -326.657 -1271 -325H-1269C-1269 -325.552 -1268.55 -326 -1268 -326V-328Z" fill="black" fill-opacity="0.1"/>
<path fill-rule="evenodd" clip-rule="evenodd" d="M12 22C17.5228 22 22 17.5228 22 12C22 6.47715 17.5228 2 12 2C6.47715 2 2 6.47715 2 12C2 17.5228 6.47715 22 12 22ZM16 12.75C16.4142 12.75 16.75 12.4142 16.75 12C16.75 11.5858 16.4142 11.25 16 11.25H8C7.58579 11.25 7.25 11.5858 7.25 12C7.25 12.4142 7.58579 12.75 8 12.75H16Z" fill="#1A1A1A"/>
</svg>
