<svg width="24" height="24" viewBox="0 0 24 24" fill="none" xmlns="http://www.w3.org/2000/svg">
<rect width="24" height="24" fill="#A6A6A6"/>
<path d="M-346 -805C-346 -806.105 -345.105 -807 -344 -807H1140C1141.1 -807 1142 -806.105 1142 -805V745C1142 746.105 1141.1 747 1140 747H-344C-345.105 747 -346 746.105 -346 745V-805Z" fill="white"/>
<path d="M-344 -806H1140V-808H-344V-806ZM1141 -805V745H1143V-805H1141ZM1140 746H-344V748H1140V746ZM-345 745V-805H-347V745H-345ZM-344 746C-344.552 746 -345 745.552 -345 745H-347C-347 746.657 -345.657 748 -344 748V746ZM1141 745C1141 745.552 1140.55 746 1140 746V748C1141.66 748 1143 746.657 1143 745H1141ZM1140 -806C1140.55 -806 1141 -805.552 1141 -805H1143C1143 -806.657 1141.66 -808 1140 -808V-806ZM-344 -808C-345.657 -808 -347 -806.657 -347 -805H-345C-345 -805.552 -344.552 -806 -344 -806V-808Z" fill="black" fill-opacity="0.1"/>
<path d="M22 12C22 17.5228 17.5228 22 12 22M22 12C22 6.47715 17.5228 2 12 2M22 12C22 10.3431 17.5228 9 12 9C6.47715 9 2 10.3431 2 12M22 12C22 13.6569 17.5228 15 12 15C6.47715 15 2 13.6569 2 12M12 22C6.47715 22 2 17.5228 2 12M12 22C14.2091 22 16 17.5228 16 12C16 6.47715 14.2091 2 12 2M12 22C9.79086 22 8 17.5228 8 12C8 6.47715 9.79086 2 12 2M2 12C2 6.47715 6.47715 2 12 2" stroke="#1A1A1A" stroke-width="1.5"/>
</svg>
