<svg width="24" height="24" viewBox="0 0 24 24" fill="none" xmlns="http://www.w3.org/2000/svg">
<rect width="24" height="24" fill="#A6A6A6"/>
<path d="M-636 -853C-636 -854.105 -635.105 -855 -634 -855H850C851.105 -855 852 -854.105 852 -853V697C852 698.105 851.105 699 850 699H-634C-635.105 699 -636 698.105 -636 697V-853Z" fill="white"/>
<path d="M-634 -854H850V-856H-634V-854ZM851 -853V697H853V-853H851ZM850 698H-634V700H850V698ZM-635 697V-853H-637V697H-635ZM-634 698C-634.552 698 -635 697.552 -635 697H-637C-637 698.657 -635.657 700 -634 700V698ZM851 697C851 697.552 850.552 698 850 698V700C851.657 700 853 698.657 853 697H851ZM850 -854C850.552 -854 851 -853.552 851 -853H853C853 -854.657 851.657 -856 850 -856V-854ZM-634 -856C-635.657 -856 -637 -854.657 -637 -853H-635C-635 -853.552 -634.552 -854 -634 -854V-856Z" fill="black" fill-opacity="0.1"/>
<circle cx="12" cy="17" r="1" transform="rotate(-180 12 17)" fill="#1A1A1A"/>
<path d="M12 14L12 7M5.33248 4.71069L10.3708 2.36419C11.4134 1.8786 12.6036 1.8786 13.6462 2.36419L18.6646 4.70139C20.1321 5.38485 21.0953 6.92095 20.9925 8.60032C20.5981 15.0419 18.8406 17.9539 14.0899 21.3322C12.8361 22.2238 11.1823 22.2216 9.92759 21.3315C5.1914 17.9715 3.36871 15.1001 3.00617 8.57773C2.91343 6.90939 3.87515 5.38942 5.33248 4.71069Z" stroke="#1A1A1A" stroke-width="1.5" stroke-linecap="round" stroke-linejoin="round"/>
</svg>
