<svg width="24" height="24" viewBox="0 0 24 24" fill="none" xmlns="http://www.w3.org/2000/svg">
<rect width="24" height="24" fill="#A6A6A6"/>
<path d="M-1328 -853C-1328 -854.105 -1327.1 -855 -1326 -855H158C159.105 -855 160 -854.105 160 -853V697C160 698.105 159.105 699 158 699H-1326C-1327.1 699 -1328 698.105 -1328 697V-853Z" fill="white"/>
<path d="M-1326 -854H158V-856H-1326V-854ZM159 -853V697H161V-853H159ZM158 698H-1326V700H158V698ZM-1327 697V-853H-1329V697H-1327ZM-1326 698C-1326.55 698 -1327 697.552 -1327 697H-1329C-1329 698.657 -1327.66 700 -1326 700V698ZM159 697C159 697.552 158.552 698 158 698V700C159.657 700 161 698.657 161 697H159ZM158 -854C158.552 -854 159 -853.552 159 -853H161C161 -854.657 159.657 -856 158 -856V-854ZM-1326 -856C-1327.66 -856 -1329 -854.657 -1329 -853H-1327C-1327 -853.552 -1326.55 -854 -1326 -854V-856Z" fill="black" fill-opacity="0.1"/>
<path fill-rule="evenodd" clip-rule="evenodd" d="M10.3708 2.36419L5.33248 4.71069C3.87515 5.38942 2.91343 6.90939 3.00617 8.57773C3.36871 15.1001 5.1914 17.9715 9.92759 21.3315C11.1823 22.2216 12.8361 22.2238 14.0899 21.3322C18.8406 17.9539 20.5981 15.0419 20.9925 8.60032C21.0953 6.92095 20.1321 5.38485 18.6646 4.70139L13.6462 2.36419C12.6036 1.8786 11.4134 1.8786 10.3708 2.36419ZM11 17C11 16.4477 11.4477 16 12 16C12.5523 16 13 16.4477 13 17C13 17.5523 12.5523 18 12 18C11.4477 18 11 17.5523 11 17ZM11.25 14C11.25 14.4142 11.5858 14.75 12 14.75C12.4142 14.75 12.75 14.4142 12.75 14L12.75 7C12.75 6.58579 12.4142 6.25 12 6.25C11.5858 6.25 11.25 6.58579 11.25 7L11.25 14Z" fill="#1A1A1A"/>
</svg>
