<svg width="24" height="24" viewBox="0 0 24 24" fill="none" xmlns="http://www.w3.org/2000/svg">
<rect width="24" height="24" fill="#A6A6A6"/>
<path d="M-578 -469C-578 -470.105 -577.105 -471 -576 -471H908C909.105 -471 910 -470.105 910 -469V1081C910 1082.1 909.105 1083 908 1083H-576C-577.105 1083 -578 1082.1 -578 1081V-469Z" fill="white"/>
<path d="M-576 -470H908V-472H-576V-470ZM909 -469V1081H911V-469H909ZM908 1082H-576V1084H908V1082ZM-577 1081V-469H-579V1081H-577ZM-576 1082C-576.552 1082 -577 1081.55 -577 1081H-579C-579 1082.66 -577.657 1084 -576 1084V1082ZM909 1081C909 1081.55 908.552 1082 908 1082V1084C909.657 1084 911 1082.66 911 1081H909ZM908 -470C908.552 -470 909 -469.552 909 -469H911C911 -470.657 909.657 -472 908 -472V-470ZM-576 -472C-577.657 -472 -579 -470.657 -579 -469H-577C-577 -469.552 -576.552 -470 -576 -470V-472Z" fill="black" fill-opacity="0.1"/>
<path d="M7 7H17M7 12H12M16 17L19 22M8 17L5 22M12 17V20M19 2L5 2C3.34315 2 2 3.34315 2 5L2 14C2 15.6569 3.34315 17 5 17L19 17C20.6569 17 22 15.6569 22 14L22 5C22 3.34315 20.6569 2 19 2Z" stroke="#1A1A1A" stroke-width="1.5" stroke-linecap="round" stroke-linejoin="round"/>
</svg>
