<svg width="24" height="24" viewBox="0 0 24 24" fill="none" xmlns="http://www.w3.org/2000/svg">
<rect width="24" height="24" fill="#A6A6A6"/>
<path d="M-1270 -469C-1270 -470.105 -1269.1 -471 -1268 -471H216C217.105 -471 218 -470.105 218 -469V1081C218 1082.1 217.105 1083 216 1083H-1268C-1269.1 1083 -1270 1082.1 -1270 1081V-469Z" fill="white"/>
<path d="M-1268 -470H216V-472H-1268V-470ZM217 -469V1081H219V-469H217ZM216 1082H-1268V1084H216V1082ZM-1269 1081V-469H-1271V1081H-1269ZM-1268 1082C-1268.55 1082 -1269 1081.55 -1269 1081H-1271C-1271 1082.66 -1269.66 1084 -1268 1084V1082ZM217 1081C217 1081.55 216.552 1082 216 1082V1084C217.657 1084 219 1082.66 219 1081H217ZM216 -470C216.552 -470 217 -469.552 217 -469H219C219 -470.657 217.657 -472 216 -472V-470ZM-1268 -472C-1269.66 -472 -1271 -470.657 -1271 -469H-1269C-1269 -469.552 -1268.55 -470 -1268 -470V-472Z" fill="black" fill-opacity="0.1"/>
<path fill-rule="evenodd" clip-rule="evenodd" d="M19 17C20.6569 17 22 15.6569 22 14L22 5C22 3.34315 20.6569 2 19 2H5C3.34315 2 2 3.34315 2 5V14C2 15.6569 3.34314 17 5 17H6.52542L4.35687 20.6142C4.14376 20.9694 4.25893 21.4301 4.61412 21.6432C4.9693 21.8563 5.43 21.7412 5.64311 21.386L8.2747 17L11.25 17V19.0001C11.25 19.4143 11.5858 19.7501 12 19.7501C12.4142 19.7501 12.75 19.4143 12.75 19.0001V17L15.7253 17L18.3569 21.386C18.57 21.7412 19.0307 21.8563 19.3859 21.6432C19.741 21.4301 19.8562 20.9694 19.6431 20.6142L17.4746 17H19ZM6.25 7C6.25 6.58579 6.58579 6.25 7 6.25H17C17.4142 6.25 17.75 6.58579 17.75 7C17.75 7.41421 17.4142 7.75 17 7.75H7C6.58579 7.75 6.25 7.41421 6.25 7ZM7 11.25C6.58579 11.25 6.25 11.5858 6.25 12C6.25 12.4142 6.58579 12.75 7 12.75H12C12.4142 12.75 12.75 12.4142 12.75 12C12.75 11.5858 12.4142 11.25 12 11.25H7Z" fill="#1A1A1A"/>
</svg>
