<svg width="24" height="24" viewBox="0 0 24 24" fill="none" xmlns="http://www.w3.org/2000/svg">
<rect width="24" height="24" fill="#A6A6A6"/>
<path d="M-462 -469C-462 -470.105 -461.105 -471 -460 -471H1024C1025.1 -471 1026 -470.105 1026 -469V1081C1026 1082.1 1025.1 1083 1024 1083H-460C-461.105 1083 -462 1082.1 -462 1081V-469Z" fill="white"/>
<path d="M-460 -470H1024V-472H-460V-470ZM1025 -469V1081H1027V-469H1025ZM1024 1082H-460V1084H1024V1082ZM-461 1081V-469H-463V1081H-461ZM-460 1082C-460.552 1082 -461 1081.55 -461 1081H-463C-463 1082.66 -461.657 1084 -460 1084V1082ZM1025 1081C1025 1081.55 1024.55 1082 1024 1082V1084C1025.66 1084 1027 1082.66 1027 1081H1025ZM1024 -470C1024.55 -470 1025 -469.552 1025 -469H1027C1027 -470.657 1025.66 -472 1024 -472V-470ZM-460 -472C-461.657 -472 -463 -470.657 -463 -469H-461C-461 -469.552 -460.552 -470 -460 -470V-472Z" fill="black" fill-opacity="0.1"/>
<path d="M10 4V2M14 4V2M14 20V22M10 20V22M20 10H22M20 14H22M4 10H2M4 14H2M8 20H16C18.2091 20 20 18.2091 20 16V8C20 5.79086 18.2091 4 16 4H8C5.79086 4 4 5.79086 4 8V16C4 18.2091 5.79086 20 8 20ZM11 15H13C14.1046 15 15 14.1046 15 13V11C15 9.89543 14.1046 9 13 9H11C9.89543 9 9 9.89543 9 11V13C9 14.1046 9.89543 15 11 15Z" stroke="#1A1A1A" stroke-width="1.5" stroke-linecap="round" stroke-linejoin="round"/>
</svg>
