<svg width="24" height="24" viewBox="0 0 24 24" fill="none" xmlns="http://www.w3.org/2000/svg">
<rect width="24" height="24" fill="#A6A6A6"/>
<path d="M-1154 -469C-1154 -470.105 -1153.1 -471 -1152 -471H332C333.105 -471 334 -470.105 334 -469V1081C334 1082.1 333.105 1083 332 1083H-1152C-1153.1 1083 -1154 1082.1 -1154 1081V-469Z" fill="white"/>
<path d="M-1152 -470H332V-472H-1152V-470ZM333 -469V1081H335V-469H333ZM332 1082H-1152V1084H332V1082ZM-1153 1081V-469H-1155V1081H-1153ZM-1152 1082C-1152.55 1082 -1153 1081.55 -1153 1081H-1155C-1155 1082.66 -1153.66 1084 -1152 1084V1082ZM333 1081C333 1081.55 332.552 1082 332 1082V1084C333.657 1084 335 1082.66 335 1081H333ZM332 -470C332.552 -470 333 -469.552 333 -469H335C335 -470.657 333.657 -472 332 -472V-470ZM-1152 -472C-1153.66 -472 -1155 -470.657 -1155 -469H-1153C-1153 -469.552 -1152.55 -470 -1152 -470V-472Z" fill="black" fill-opacity="0.1"/>
<path fill-rule="evenodd" clip-rule="evenodd" d="M10 1.25C10.4142 1.25 10.75 1.58579 10.75 2V4H13.25V2C13.25 1.58579 13.5858 1.25 14 1.25C14.4142 1.25 14.75 1.58579 14.75 2V4H16C18.2091 4 20 5.79086 20 8V9.25H22C22.4142 9.25 22.75 9.58579 22.75 10C22.75 10.4142 22.4142 10.75 22 10.75H20V13.25H22C22.4142 13.25 22.75 13.5858 22.75 14C22.75 14.4142 22.4142 14.75 22 14.75H20V16C20 18.2091 18.2091 20 16 20H14.75V22C14.75 22.4142 14.4142 22.75 14 22.75C13.5858 22.75 13.25 22.4142 13.25 22V20H10.75V22C10.75 22.4142 10.4142 22.75 10 22.75C9.58579 22.75 9.25 22.4142 9.25 22V20H8C5.79086 20 4 18.2091 4 16V14.75H2C1.58579 14.75 1.25 14.4142 1.25 14C1.25 13.5858 1.58579 13.25 2 13.25H4V10.75H2C1.58579 10.75 1.25 10.4142 1.25 10C1.25 9.58579 1.58579 9.25 2 9.25H4V8C4 5.79086 5.79086 4 8 4H9.25V2C9.25 1.58579 9.58579 1.25 10 1.25ZM11 9C9.89543 9 9 9.89543 9 11V13C9 14.1046 9.89543 15 11 15H13C14.1046 15 15 14.1046 15 13V11C15 9.89543 14.1046 9 13 9H11Z" fill="#1A1A1A"/>
</svg>
