<svg width="24" height="24" viewBox="0 0 24 24" fill="none" xmlns="http://www.w3.org/2000/svg">
<rect width="24" height="24" fill="#A6A6A6"/>
<path d="M-1154 -1024C-1154 -1025.1 -1153.1 -1026 -1152 -1026H332C333.105 -1026 334 -1025.1 334 -1024V526C334 527.105 333.105 528 332 528H-1152C-1153.1 528 -1154 527.105 -1154 526V-1024Z" fill="white"/>
<path d="M-1152 -1025H332V-1027H-1152V-1025ZM333 -1024V526H335V-1024H333ZM332 527H-1152V529H332V527ZM-1153 526V-1024H-1155V526H-1153ZM-1152 527C-1152.55 527 -1153 526.552 -1153 526H-1155C-1155 527.657 -1153.66 529 -1152 529V527ZM333 526C333 526.552 332.552 527 332 527V529C333.657 529 335 527.657 335 526H333ZM332 -1025C332.552 -1025 333 -1024.55 333 -1024H335C335 -1025.66 333.657 -1027 332 -1027V-1025ZM-1152 -1027C-1153.66 -1027 -1155 -1025.66 -1155 -1024H-1153C-1153 -1024.55 -1152.55 -1025 -1152 -1025V-1027Z" fill="black" fill-opacity="0.1"/>
<path fill-rule="evenodd" clip-rule="evenodd" d="M14 7C14 9.20914 12.2091 11 10 11C7.79086 11 6 9.20914 6 7C6 4.79086 7.79086 3 10 3C12.2091 3 14 4.79086 14 7ZM17 17C17 19.2091 13.866 21 10 21C6.13401 21 3 19.2091 3 17C3 14.7909 6.13401 13 10 13C13.866 13 17 14.7909 17 17ZM16.476 12.5846L20.5846 8.47602C20.8486 8.92266 21 9.44364 21 10C21 11.6569 19.6569 13 18 13C17.4436 13 16.9227 12.8486 16.476 12.5846ZM15 10C15 10.5564 15.1514 11.0773 15.4154 11.524L19.524 7.41536C19.0773 7.15145 18.5564 7 18 7C16.3431 7 15 8.34315 15 10Z" fill="#1A1A1A"/>
</svg>
