<svg width="24" height="24" viewBox="0 0 24 24" fill="none" xmlns="http://www.w3.org/2000/svg">
<rect width="24" height="24" fill="#A6A6A6"/>
<path d="M-114 -421C-114 -422.105 -113.105 -423 -112 -423H1372C1373.1 -423 1374 -422.105 1374 -421V1129C1374 1130.1 1373.1 1131 1372 1131H-112C-113.105 1131 -114 1130.1 -114 1129V-421Z" fill="white"/>
<path d="M-112 -422H1372V-424H-112V-422ZM1373 -421V1129H1375V-421H1373ZM1372 1130H-112V1132H1372V1130ZM-113 1129V-421H-115V1129H-113ZM-112 1130C-112.552 1130 -113 1129.55 -113 1129H-115C-115 1130.66 -113.657 1132 -112 1132V1130ZM1373 1129C1373 1129.55 1372.55 1130 1372 1130V1132C1373.66 1132 1375 1130.66 1375 1129H1373ZM1372 -422C1372.55 -422 1373 -421.552 1373 -421H1375C1375 -422.657 1373.66 -424 1372 -424V-422ZM-112 -424C-113.657 -424 -115 -422.657 -115 -421H-113C-113 -421.552 -112.552 -422 -112 -422V-424Z" fill="black" fill-opacity="0.1"/>
<path d="M3 9V18C3 20.2091 4.79086 22 7 22H17C19.2091 22 21 20.2091 21 18V9M3 9V7.5C3 5.29086 4.79086 3.5 7 3.5H17C19.2091 3.5 21 5.29086 21 7.5V9M3 9H21M16 2V5M8 2V5" stroke="#1A1A1A" stroke-width="1.5" stroke-linecap="round"/>
</svg>
