<svg width="24" height="24" viewBox="0 0 24 24" fill="none" xmlns="http://www.w3.org/2000/svg">
<rect width="24" height="24" fill="#A6A6A6"/>
<path d="M-806 -421C-806 -422.105 -805.105 -423 -804 -423H680C681.105 -423 682 -422.105 682 -421V1129C682 1130.1 681.105 1131 680 1131H-804C-805.105 1131 -806 1130.1 -806 1129V-421Z" fill="white"/>
<path d="M-804 -422H680V-424H-804V-422ZM681 -421V1129H683V-421H681ZM680 1130H-804V1132H680V1130ZM-805 1129V-421H-807V1129H-805ZM-804 1130C-804.552 1130 -805 1129.55 -805 1129H-807C-807 1130.66 -805.657 1132 -804 1132V1130ZM681 1129C681 1129.55 680.552 1130 680 1130V1132C681.657 1132 683 1130.66 683 1129H681ZM680 -422C680.552 -422 681 -421.552 681 -421H683C683 -422.657 681.657 -424 680 -424V-422ZM-804 -424C-805.657 -424 -807 -422.657 -807 -421H-805C-805 -421.552 -804.552 -422 -804 -422V-424Z" fill="black" fill-opacity="0.1"/>
<path fill-rule="evenodd" clip-rule="evenodd" d="M8.75 2C8.75 1.58579 8.41421 1.25 8 1.25C7.58579 1.25 7.25 1.58579 7.25 2V3.5H7C4.79086 3.5 3 5.29086 3 7.5V8.25H21V7.5C21 5.29086 19.2091 3.5 17 3.5H16.75V2C16.75 1.58579 16.4142 1.25 16 1.25C15.5858 1.25 15.25 1.58579 15.25 2V3.5H8.75V2ZM3 9.75H21V18C21 20.2091 19.2091 22 17 22H7C4.79086 22 3 20.2091 3 18V9.75Z" fill="#1A1A1A"/>
</svg>
