<svg width="24" height="24" viewBox="0 0 24 24" fill="none" xmlns="http://www.w3.org/2000/svg">
<rect width="24" height="24" fill="#A6A6A6"/>
<path d="M-288 -469C-288 -470.105 -287.105 -471 -286 -471H1198C1199.1 -471 1200 -470.105 1200 -469V1081C1200 1082.1 1199.1 1083 1198 1083H-286C-287.105 1083 -288 1082.1 -288 1081V-469Z" fill="white"/>
<path d="M-286 -470H1198V-472H-286V-470ZM1199 -469V1081H1201V-469H1199ZM1198 1082H-286V1084H1198V1082ZM-287 1081V-469H-289V1081H-287ZM-286 1082C-286.552 1082 -287 1081.55 -287 1081H-289C-289 1082.66 -287.657 1084 -286 1084V1082ZM1199 1081C1199 1081.55 1198.55 1082 1198 1082V1084C1199.66 1084 1201 1082.66 1201 1081H1199ZM1198 -470C1198.55 -470 1199 -469.552 1199 -469H1201C1201 -470.657 1199.66 -472 1198 -472V-470ZM-286 -472C-287.657 -472 -289 -470.657 -289 -469H-287C-287 -469.552 -286.552 -470 -286 -470V-472Z" fill="black" fill-opacity="0.1"/>
<path d="M21.8247 13.8738C21.9398 13.2668 22 12.6404 22 12C22 6.47715 17.5228 2 12 2C6.47715 2 2 6.47715 2 12C2 12.7452 2.08151 13.4713 2.23609 14.17M21.8247 13.8738C20.9476 18.501 16.8824 22 12 22C7.22233 22 3.2272 18.6495 2.23609 14.17M21.8247 13.8738L19.061 11.8839C17.5338 10.7843 15.4467 10.898 14.0479 12.1569L9.95209 15.8431C8.55331 17.102 6.4662 17.2157 4.93901 16.1161L2.23609 14.17M11 9C11 10.1046 10.1046 11 9 11C7.89543 11 7 10.1046 7 9C7 7.89543 7.89543 7 9 7C10.1046 7 11 7.89543 11 9Z" stroke="#1A1A1A" stroke-width="1.5"/>
</svg>
