<svg width="24" height="24" viewBox="0 0 24 24" fill="none" xmlns="http://www.w3.org/2000/svg">
<rect width="24" height="24" fill="#A6A6A6"/>
<path d="M-980 -469C-980 -470.105 -979.105 -471 -978 -471H506C507.105 -471 508 -470.105 508 -469V1081C508 1082.1 507.105 1083 506 1083H-978C-979.105 1083 -980 1082.1 -980 1081V-469Z" fill="white"/>
<path d="M-978 -470H506V-472H-978V-470ZM507 -469V1081H509V-469H507ZM506 1082H-978V1084H506V1082ZM-979 1081V-469H-981V1081H-979ZM-978 1082C-978.552 1082 -979 1081.55 -979 1081H-981C-981 1082.66 -979.657 1084 -978 1084V1082ZM507 1081C507 1081.55 506.552 1082 506 1082V1084C507.657 1084 509 1082.66 509 1081H507ZM506 -470C506.552 -470 507 -469.552 507 -469H509C509 -470.657 507.657 -472 506 -472V-470ZM-978 -472C-979.657 -472 -981 -470.657 -981 -469H-979C-979 -469.552 -978.552 -470 -978 -470V-472Z" fill="black" fill-opacity="0.1"/>
<path fill-rule="evenodd" clip-rule="evenodd" d="M12 2C6.47715 2 2 6.47715 2 12C2 12.6401 2.06013 13.2661 2.17506 13.8727L5.06808 15.7663C6.25482 16.5431 7.80825 16.4606 8.906 15.5624L14.1442 11.2766C15.7486 9.96391 18.019 9.84327 19.7535 10.9786L21.9904 12.4427C21.9968 12.296 22 12.1484 22 12C22 6.47715 17.5228 2 12 2ZM12 22C7.95176 22 4.46536 19.5945 2.89221 16.1349L4.24659 17.0214C5.98106 18.1567 8.25145 18.036 9.85585 16.7233L15.0941 12.4375C16.1918 11.5394 17.7452 11.4568 18.932 12.2336L21.7797 14.0976C20.8158 18.6133 16.8034 22 12 22ZM9 11C10.1046 11 11 10.1046 11 9C11 7.89543 10.1046 7 9 7C7.89543 7 7 7.89543 7 9C7 10.1046 7.89543 11 9 11Z" fill="#1A1A1A"/>
</svg>
