<svg width="24" height="24" viewBox="0 0 24 24" fill="none" xmlns="http://www.w3.org/2000/svg">
<rect width="24" height="24" fill="#A6A6A6"/>
<path d="M-230 -757C-230 -758.105 -229.105 -759 -228 -759H1256C1257.1 -759 1258 -758.105 1258 -757V793C1258 794.105 1257.1 795 1256 795H-228C-229.105 795 -230 794.105 -230 793V-757Z" fill="white"/>
<path d="M-228 -758H1256V-760H-228V-758ZM1257 -757V793H1259V-757H1257ZM1256 794H-228V796H1256V794ZM-229 793V-757H-231V793H-229ZM-228 794C-228.552 794 -229 793.552 -229 793H-231C-231 794.657 -229.657 796 -228 796V794ZM1257 793C1257 793.552 1256.55 794 1256 794V796C1257.66 796 1259 794.657 1259 793H1257ZM1256 -758C1256.55 -758 1257 -757.552 1257 -757H1259C1259 -758.657 1257.66 -760 1256 -760V-758ZM-228 -760C-229.657 -760 -231 -758.657 -231 -757H-229C-229 -757.552 -228.552 -758 -228 -758V-760Z" fill="black" fill-opacity="0.1"/>
<path d="M18 2V6M18 6V10M18 6H14M18 6H22M4 10H8C9.10457 10 10 9.10457 10 8V4C10 2.89543 9.10457 2 8 2H4C2.89543 2 2 2.89543 2 4V8C2 9.10457 2.89543 10 4 10ZM10 18C10 20.2091 8.20914 22 6 22C3.79086 22 2 20.2091 2 18C2 15.7909 3.79086 14 6 14C8.20914 14 10 15.7909 10 18ZM16 22H20C21.1046 22 22 21.1046 22 20V16C22 14.8954 21.1046 14 20 14H16C14.8954 14 14 14.8954 14 16V20C14 21.1046 14.8954 22 16 22Z" stroke="#1A1A1A" stroke-width="1.5" stroke-linecap="round"/>
</svg>
