<svg width="24" height="24" viewBox="0 0 24 24" fill="none" xmlns="http://www.w3.org/2000/svg">
<rect width="24" height="24" fill="#A6A6A6"/>
<path d="M-922 -757C-922 -758.105 -921.105 -759 -920 -759H564C565.105 -759 566 -758.105 566 -757V793C566 794.105 565.105 795 564 795H-920C-921.105 795 -922 794.105 -922 793V-757Z" fill="white"/>
<path d="M-920 -758H564V-760H-920V-758ZM565 -757V793H567V-757H565ZM564 794H-920V796H564V794ZM-921 793V-757H-923V793H-921ZM-920 794C-920.552 794 -921 793.552 -921 793H-923C-923 794.657 -921.657 796 -920 796V794ZM565 793C565 793.552 564.552 794 564 794V796C565.657 796 567 794.657 567 793H565ZM564 -758C564.552 -758 565 -757.552 565 -757H567C567 -758.657 565.657 -760 564 -760V-758ZM-920 -760C-921.657 -760 -923 -758.657 -923 -757H-921C-921 -757.552 -920.552 -758 -920 -758V-760Z" fill="black" fill-opacity="0.1"/>
<path fill-rule="evenodd" clip-rule="evenodd" d="M4 2C2.89543 2 2 2.89543 2 4V8C2 9.10457 2.89543 10 4 10H8C9.10457 10 10 9.10457 10 8V4C10 2.89543 9.10457 2 8 2H4ZM6 22C8.20914 22 10 20.2091 10 18C10 15.7909 8.20914 14 6 14C3.79086 14 2 15.7909 2 18C2 20.2091 3.79086 22 6 22ZM14 16C14 14.8954 14.8954 14 16 14H20C21.1046 14 22 14.8954 22 16V20C22 21.1046 21.1046 22 20 22H16C14.8954 22 14 21.1046 14 20V16ZM18.5 2.75C18.5 2.33579 18.1642 2 17.75 2C17.3358 2 17 2.33579 17 2.75V5.5H14.25C13.8358 5.5 13.5 5.83579 13.5 6.25C13.5 6.66421 13.8358 7 14.25 7H17V9.75C17 10.1642 17.3358 10.5 17.75 10.5C18.1642 10.5 18.5 10.1642 18.5 9.75V7H21.25C21.6642 7 22 6.66421 22 6.25C22 5.83579 21.6642 5.5 21.25 5.5H18.5V2.75Z" fill="#1A1A1A"/>
</svg>
