<svg width="24" height="24" viewBox="0 0 24 24" fill="none" xmlns="http://www.w3.org/2000/svg">
<rect width="24" height="24" fill="#A6A6A6"/>
<path d="M-172 -517C-172 -518.105 -171.105 -519 -170 -519H1314C1315.1 -519 1316 -518.105 1316 -517V1033C1316 1034.1 1315.1 1035 1314 1035H-170C-171.105 1035 -172 1034.1 -172 1033V-517Z" fill="white"/>
<path d="M-170 -518H1314V-520H-170V-518ZM1315 -517V1033H1317V-517H1315ZM1314 1034H-170V1036H1314V1034ZM-171 1033V-517H-173V1033H-171ZM-170 1034C-170.552 1034 -171 1033.55 -171 1033H-173C-173 1034.66 -171.657 1036 -170 1036V1034ZM1315 1033C1315 1033.55 1314.55 1034 1314 1034V1036C1315.66 1036 1317 1034.66 1317 1033H1315ZM1314 -518C1314.55 -518 1315 -517.552 1315 -517H1317C1317 -518.657 1315.66 -520 1314 -520V-518ZM-170 -520C-171.657 -520 -173 -518.657 -173 -517H-171C-171 -517.552 -170.552 -518 -170 -518V-520Z" fill="black" fill-opacity="0.1"/>
<path d="M2 8H22M2 6V18C2 20.2091 3.79086 22 6 22H18C20.2091 22 22 20.2091 22 18V6C22 3.79086 20.2091 2 18 2H6C3.79086 2 2 3.79086 2 6Z" stroke="#1A1A1A" stroke-width="1.5" stroke-linecap="round"/>
<circle cx="18" cy="5" r="1" fill="#1A1A1A"/>
<circle cx="14" cy="5" r="1" fill="#1A1A1A"/>
</svg>
