<svg width="24" height="24" viewBox="0 0 24 24" fill="none" xmlns="http://www.w3.org/2000/svg">
<rect width="24" height="24" fill="#A6A6A6"/>
<path d="M-864 -517C-864 -518.105 -863.105 -519 -862 -519H622C623.105 -519 624 -518.105 624 -517V1033C624 1034.1 623.105 1035 622 1035H-862C-863.105 1035 -864 1034.1 -864 1033V-517Z" fill="white"/>
<path d="M-862 -518H622V-520H-862V-518ZM623 -517V1033H625V-517H623ZM622 1034H-862V1036H622V1034ZM-863 1033V-517H-865V1033H-863ZM-862 1034C-862.552 1034 -863 1033.55 -863 1033H-865C-865 1034.66 -863.657 1036 -862 1036V1034ZM623 1033C623 1033.55 622.552 1034 622 1034V1036C623.657 1036 625 1034.66 625 1033H623ZM622 -518C622.552 -518 623 -517.552 623 -517H625C625 -518.657 623.657 -520 622 -520V-518ZM-862 -520C-863.657 -520 -865 -518.657 -865 -517H-863C-863 -517.552 -862.552 -518 -862 -518V-520Z" fill="black" fill-opacity="0.1"/>
<path fill-rule="evenodd" clip-rule="evenodd" d="M2 9.5V18C2 20.2091 3.79086 22 6 22H18C20.2091 22 22 20.2091 22 18V9.5H2ZM2 8H22V6C22 3.79086 20.2091 2 18 2H6C3.79086 2 2 3.79086 2 6V8ZM19 5C19 5.55228 18.5523 6 18 6C17.4477 6 17 5.55228 17 5C17 4.44772 17.4477 4 18 4C18.5523 4 19 4.44772 19 5ZM14 6C14.5523 6 15 5.55228 15 5C15 4.44772 14.5523 4 14 4C13.4477 4 13 4.44772 13 5C13 5.55228 13.4477 6 14 6Z" fill="#1A1A1A"/>
</svg>
