<svg width="24" height="24" viewBox="0 0 24 24" fill="none" xmlns="http://www.w3.org/2000/svg">
<rect width="24" height="24" fill="#A6A6A6"/>
<path d="M-346 -325C-346 -326.105 -345.105 -327 -344 -327H1140C1141.1 -327 1142 -326.105 1142 -325V1225C1142 1226.1 1141.1 1227 1140 1227H-344C-345.105 1227 -346 1226.1 -346 1225V-325Z" fill="white"/>
<path d="M-344 -326H1140V-328H-344V-326ZM1141 -325V1225H1143V-325H1141ZM1140 1226H-344V1228H1140V1226ZM-345 1225V-325H-347V1225H-345ZM-344 1226C-344.552 1226 -345 1225.55 -345 1225H-347C-347 1226.66 -345.657 1228 -344 1228V1226ZM1141 1225C1141 1225.55 1140.55 1226 1140 1226V1228C1141.66 1228 1143 1226.66 1143 1225H1141ZM1140 -326C1140.55 -326 1141 -325.552 1141 -325H1143C1143 -326.657 1141.66 -328 1140 -328V-326ZM-344 -328C-345.657 -328 -347 -326.657 -347 -325H-345C-345 -325.552 -344.552 -326 -344 -326V-328Z" fill="black" fill-opacity="0.1"/>
<path d="M12 8V9M12 11.5V16M18 2H6C3.79086 2 2 3.79086 2 6V18C2 20.2091 3.79086 22 6 22H18C20.2091 22 22 20.2091 22 18V6C22 3.79086 20.2091 2 18 2Z" stroke="#1A1A1A" stroke-width="1.5" stroke-linecap="round" stroke-linejoin="round"/>
</svg>
