<svg width="24" height="24" viewBox="0 0 24 24" fill="none" xmlns="http://www.w3.org/2000/svg">
<rect width="24" height="24" fill="#A6A6A6"/>
<path d="M-1038 -325C-1038 -326.105 -1037.1 -327 -1036 -327H448C449.105 -327 450 -326.105 450 -325V1225C450 1226.1 449.105 1227 448 1227H-1036C-1037.1 1227 -1038 1226.1 -1038 1225V-325Z" fill="white"/>
<path d="M-1036 -326H448V-328H-1036V-326ZM449 -325V1225H451V-325H449ZM448 1226H-1036V1228H448V1226ZM-1037 1225V-325H-1039V1225H-1037ZM-1036 1226C-1036.55 1226 -1037 1225.55 -1037 1225H-1039C-1039 1226.66 -1037.66 1228 -1036 1228V1226ZM449 1225C449 1225.55 448.552 1226 448 1226V1228C449.657 1228 451 1226.66 451 1225H449ZM448 -326C448.552 -326 449 -325.552 449 -325H451C451 -326.657 449.657 -328 448 -328V-326ZM-1036 -328C-1037.66 -328 -1039 -326.657 -1039 -325H-1037C-1037 -325.552 -1036.55 -326 -1036 -326V-328Z" fill="black" fill-opacity="0.1"/>
<path fill-rule="evenodd" clip-rule="evenodd" d="M18 2H6C3.79086 2 2 3.79086 2 6V18C2 20.2091 3.79086 22 6 22H18C20.2091 22 22 20.2091 22 18V6C22 3.79086 20.2091 2 18 2ZM12.75 8C12.75 7.58579 12.4142 7.25 12 7.25C11.5858 7.25 11.25 7.58579 11.25 8V9C11.25 9.41421 11.5858 9.75 12 9.75C12.4142 9.75 12.75 9.41421 12.75 9V8ZM12.75 11.5C12.75 11.0858 12.4142 10.75 12 10.75C11.5858 10.75 11.25 11.0858 11.25 11.5V16C11.25 16.4142 11.5858 16.75 12 16.75C12.4142 16.75 12.75 16.4142 12.75 16V11.5Z" fill="#1A1A1A"/>
</svg>
