<svg width="24" height="24" viewBox="0 0 24 24" fill="none" xmlns="http://www.w3.org/2000/svg">
<rect width="24" height="24" fill="#A6A6A6"/>
<path d="M-288 -1208C-288 -1209.1 -287.105 -1210 -286 -1210H1198C1199.1 -1210 1200 -1209.1 1200 -1208V342C1200 343.105 1199.1 344 1198 344H-286C-287.105 344 -288 343.105 -288 342V-1208Z" fill="white"/>
<path d="M-286 -1209H1198V-1211H-286V-1209ZM1199 -1208V342H1201V-1208H1199ZM1198 343H-286V345H1198V343ZM-287 342V-1208H-289V342H-287ZM-286 343C-286.552 343 -287 342.552 -287 342H-289C-289 343.657 -287.657 345 -286 345V343ZM1199 342C1199 342.552 1198.55 343 1198 343V345C1199.66 345 1201 343.657 1201 342H1199ZM1198 -1209C1198.55 -1209 1199 -1208.55 1199 -1208H1201C1201 -1209.66 1199.66 -1211 1198 -1211V-1209ZM-286 -1211C-287.657 -1211 -289 -1209.66 -289 -1208H-287C-287 -1208.55 -286.552 -1209 -286 -1209V-1211Z" fill="black" fill-opacity="0.1"/>
<path d="M9 11H15" stroke="#1A1A1A" stroke-width="1.5" stroke-linecap="round"/>
<path d="M7 15L12 3L17 15" stroke="#1A1A1A" stroke-width="1.5" stroke-linecap="round" stroke-linejoin="round"/>
<path d="M18 21L20 19M20 19L18 17M20 19L4 19" stroke="#1A1A1A" stroke-width="1.5" stroke-linecap="round" stroke-linejoin="round"/>
</svg>
