<svg width="24" height="24" viewBox="0 0 24 24" fill="none" xmlns="http://www.w3.org/2000/svg">
<rect width="24" height="24" fill="#A6A6A6"/>
<path d="M-980 -1208C-980 -1209.1 -979.105 -1210 -978 -1210H506C507.105 -1210 508 -1209.1 508 -1208V342C508 343.105 507.105 344 506 344H-978C-979.105 344 -980 343.105 -980 342V-1208Z" fill="white"/>
<path d="M-978 -1209H506V-1211H-978V-1209ZM507 -1208V342H509V-1208H507ZM506 343H-978V345H506V343ZM-979 342V-1208H-981V342H-979ZM-978 343C-978.552 343 -979 342.552 -979 342H-981C-981 343.657 -979.657 345 -978 345V343ZM507 342C507 342.552 506.552 343 506 343V345C507.657 345 509 343.657 509 342H507ZM506 -1209C506.552 -1209 507 -1208.55 507 -1208H509C509 -1209.66 507.657 -1211 506 -1211V-1209ZM-978 -1211C-979.657 -1211 -981 -1209.66 -981 -1208H-979C-979 -1208.55 -978.552 -1209 -978 -1209V-1211Z" fill="black" fill-opacity="0.1"/>
<path fill-rule="evenodd" clip-rule="evenodd" d="M11.75 2C12.0528 2 12.3259 2.18205 12.4423 2.46154L17.4423 14.4615C17.6016 14.8439 17.4208 15.283 17.0385 15.4423C16.6561 15.6016 16.217 15.4208 16.0577 15.0385L14.5833 11.5H8.91668L7.44232 15.0385C7.28301 15.4208 6.8439 15.6016 6.46155 15.4423C6.0792 15.283 5.89839 14.8439 6.0577 14.4615L11.0577 2.46154C11.1742 2.18205 11.4472 2 11.75 2ZM11.75 4.7L13.9583 10H9.54168L11.75 4.7ZM18.2803 16.2197L20.2803 18.2197C20.5732 18.5126 20.5732 18.9874 20.2803 19.2803L18.2803 21.2803C17.9874 21.5732 17.5126 21.5732 17.2197 21.2803C16.9268 20.9874 16.9268 20.5126 17.2197 20.2197L17.9393 19.5H3.75C3.33579 19.5 3 19.1642 3 18.75C3 18.3358 3.33579 18 3.75 18H17.9393L17.2197 17.2803C16.9268 16.9874 16.9268 16.5126 17.2197 16.2197C17.5126 15.9268 17.9874 15.9268 18.2803 16.2197Z" fill="#1A1A1A"/>
</svg>
