<svg width="24" height="24" viewBox="0 0 24 24" fill="none" xmlns="http://www.w3.org/2000/svg">
<rect width="24" height="24" fill="#A6A6A6"/>
<path d="M-636 -229C-636 -230.105 -635.105 -231 -634 -231H850C851.105 -231 852 -230.105 852 -229V1321C852 1322.1 851.105 1323 850 1323H-634C-635.105 1323 -636 1322.1 -636 1321V-229Z" fill="white"/>
<path d="M-634 -230H850V-232H-634V-230ZM851 -229V1321H853V-229H851ZM850 1322H-634V1324H850V1322ZM-635 1321V-229H-637V1321H-635ZM-634 1322C-634.552 1322 -635 1321.55 -635 1321H-637C-637 1322.66 -635.657 1324 -634 1324V1322ZM851 1321C851 1321.55 850.552 1322 850 1322V1324C851.657 1324 853 1322.66 853 1321H851ZM850 -230C850.552 -230 851 -229.552 851 -229H853C853 -230.657 851.657 -232 850 -232V-230ZM-634 -232C-635.657 -232 -637 -230.657 -637 -229H-635C-635 -229.552 -634.552 -230 -634 -230V-232Z" fill="black" fill-opacity="0.1"/>
<path d="M12 2V4M21 5L19.5 6.5M2.99997 5L4.49997 6.5M12 22C15.6042 22 18.8134 19.6545 20.8772 17.6789C22.3743 16.2458 22.3743 13.7542 20.8772 12.3211C18.8134 10.3455 15.6042 8 12 8C8.3958 8 5.18661 10.3455 3.12281 12.3211C1.62573 13.7542 1.62573 16.2458 3.12281 17.6789C5.18661 19.6545 8.3958 22 12 22ZM15 15C15 16.6569 13.6568 18 12 18C10.3431 18 8.99997 16.6569 8.99997 15C8.99997 13.3431 10.3431 12 12 12C13.6568 12 15 13.3431 15 15Z" stroke="#1A1A1A" stroke-width="1.5" stroke-linecap="round"/>
</svg>
