<svg width="24" height="24" viewBox="0 0 24 24" fill="none" xmlns="http://www.w3.org/2000/svg">
<rect width="24" height="24" fill="#A6A6A6"/>
<path d="M-578 -613C-578 -614.105 -577.105 -615 -576 -615H908C909.105 -615 910 -614.105 910 -613V937C910 938.105 909.105 939 908 939H-576C-577.105 939 -578 938.105 -578 937V-613Z" fill="white"/>
<path d="M-576 -614H908V-616H-576V-614ZM909 -613V937H911V-613H909ZM908 938H-576V940H908V938ZM-577 937V-613H-579V937H-577ZM-576 938C-576.552 938 -577 937.552 -577 937H-579C-579 938.657 -577.657 940 -576 940V938ZM909 937C909 937.552 908.552 938 908 938V940C909.657 940 911 938.657 911 937H909ZM908 -614C908.552 -614 909 -613.552 909 -613H911C911 -614.657 909.657 -616 908 -616V-614ZM-576 -616C-577.657 -616 -579 -614.657 -579 -613H-577C-577 -613.552 -576.552 -614 -576 -614V-616Z" fill="black" fill-opacity="0.1"/>
<path d="M12 6H21M12 12H18M12 18H15M3 15.625L4.50518 17.3183C5.30076 18.2134 6.69924 18.2134 7.49482 17.3183L9 15.625M6 18V6" stroke="#1A1A1A" stroke-width="1.5" stroke-linecap="round"/>
</svg>
