<svg width="24" height="24" viewBox="0 0 24 24" fill="none" xmlns="http://www.w3.org/2000/svg">
<rect width="24" height="24" fill="#A6A6A6"/>
<path d="M-230 -325C-230 -326.105 -229.105 -327 -228 -327H1256C1257.1 -327 1258 -326.105 1258 -325V1225C1258 1226.1 1257.1 1227 1256 1227H-228C-229.105 1227 -230 1226.1 -230 1225V-325Z" fill="white"/>
<path d="M-228 -326H1256V-328H-228V-326ZM1257 -325V1225H1259V-325H1257ZM1256 1226H-228V1228H1256V1226ZM-229 1225V-325H-231V1225H-229ZM-228 1226C-228.552 1226 -229 1225.55 -229 1225H-231C-231 1226.66 -229.657 1228 -228 1228V1226ZM1257 1225C1257 1225.55 1256.55 1226 1256 1226V1228C1257.66 1228 1259 1226.66 1259 1225H1257ZM1256 -326C1256.55 -326 1257 -325.552 1257 -325H1259C1259 -326.657 1257.66 -328 1256 -328V-326ZM-228 -328C-229.657 -328 -231 -326.657 -231 -325H-229C-229 -325.552 -228.552 -326 -228 -326V-328Z" fill="black" fill-opacity="0.1"/>
<path d="M14.8284 9.17157L9.17158 14.8284M14.8284 14.8284L9.17158 9.17158M18 2H6C3.79086 2 2 3.79086 2 6V18C2 20.2091 3.79086 22 6 22H18C20.2091 22 22 20.2091 22 18V6C22 3.79086 20.2091 2 18 2Z" stroke="#1A1A1A" stroke-width="1.5" stroke-linecap="round" stroke-linejoin="round"/>
</svg>
