<svg width="24" height="24" viewBox="0 0 24 24" fill="none" xmlns="http://www.w3.org/2000/svg">
<rect width="24" height="24" fill="#A6A6A6"/>
<path d="M-922 -325C-922 -326.105 -921.105 -327 -920 -327H564C565.105 -327 566 -326.105 566 -325V1225C566 1226.1 565.105 1227 564 1227H-920C-921.105 1227 -922 1226.1 -922 1225V-325Z" fill="white"/>
<path d="M-920 -326H564V-328H-920V-326ZM565 -325V1225H567V-325H565ZM564 1226H-920V1228H564V1226ZM-921 1225V-325H-923V1225H-921ZM-920 1226C-920.552 1226 -921 1225.55 -921 1225H-923C-923 1226.66 -921.657 1228 -920 1228V1226ZM565 1225C565 1225.55 564.552 1226 564 1226V1228C565.657 1228 567 1226.66 567 1225H565ZM564 -326C564.552 -326 565 -325.552 565 -325H567C567 -326.657 565.657 -328 564 -328V-326ZM-920 -328C-921.657 -328 -923 -326.657 -923 -325H-921C-921 -325.552 -920.552 -326 -920 -326V-328Z" fill="black" fill-opacity="0.1"/>
<path fill-rule="evenodd" clip-rule="evenodd" d="M6 2H18C20.2091 2 22 3.79086 22 6V18C22 20.2091 20.2091 22 18 22H6C3.79086 22 2 20.2091 2 18V6C2 3.79086 3.79086 2 6 2ZM15.3588 8.64129C15.6517 8.93419 15.6517 9.40906 15.3588 9.70195L13.0607 12L15.3588 14.298C15.6517 14.5909 15.6517 15.0658 15.3588 15.3587C15.0659 15.6516 14.591 15.6516 14.2981 15.3587L12.0001 13.0607L9.70191 15.3588C9.40901 15.6517 8.93414 15.6517 8.64125 15.3588C8.34835 15.0659 8.34835 14.591 8.64125 14.2981L10.9394 12L8.64125 9.70185C8.34836 9.40895 8.34836 8.93408 8.64125 8.64118C8.93415 8.34829 9.40902 8.34829 9.70191 8.64118L12.0001 10.9393L14.2981 8.64129C14.591 8.3484 15.0659 8.3484 15.3588 8.64129Z" fill="#1A1A1A"/>
</svg>
