<svg width="24" height="24" viewBox="0 0 24 24" fill="none" xmlns="http://www.w3.org/2000/svg">
<rect width="24" height="24" fill="#A6A6A6"/>
<path d="M-288 -613C-288 -614.105 -287.105 -615 -286 -615H1198C1199.1 -615 1200 -614.105 1200 -613V937C1200 938.105 1199.1 939 1198 939H-286C-287.105 939 -288 938.105 -288 937V-613Z" fill="white"/>
<path d="M-286 -614H1198V-616H-286V-614ZM1199 -613V937H1201V-613H1199ZM1198 938H-286V940H1198V938ZM-287 937V-613H-289V937H-287ZM-286 938C-286.552 938 -287 937.552 -287 937H-289C-289 938.657 -287.657 940 -286 940V938ZM1199 937C1199 937.552 1198.55 938 1198 938V940C1199.66 940 1201 938.657 1201 937H1199ZM1198 -614C1198.55 -614 1199 -613.552 1199 -613H1201C1201 -614.657 1199.66 -616 1198 -616V-614ZM-286 -616C-287.657 -616 -289 -614.657 -289 -613H-287C-287 -613.552 -286.552 -614 -286 -614V-616Z" fill="black" fill-opacity="0.1"/>
<path d="M10 6H16M10 14H16M10 10H22M10 18H22M4 10C2.89543 10 2 9.10457 2 8C2 6.89543 2.89543 6 4 6C5.10457 6 6 6.89543 6 8C6 9.10457 5.10457 10 4 10ZM4 18C2.89543 18 2 17.1046 2 16C2 14.8954 2.89543 14 4 14C5.10457 14 6 14.8954 6 16C6 17.1046 5.10457 18 4 18Z" stroke="#1A1A1A" stroke-width="1.5" stroke-linecap="round"/>
</svg>
