<svg width="24" height="24" viewBox="0 0 24 24" fill="none" xmlns="http://www.w3.org/2000/svg">
<rect width="24" height="24" fill="#A6A6A6"/>
<path d="M-980 -613C-980 -614.105 -979.105 -615 -978 -615H506C507.105 -615 508 -614.105 508 -613V937C508 938.105 507.105 939 506 939H-978C-979.105 939 -980 938.105 -980 937V-613Z" fill="white"/>
<path d="M-978 -614H506V-616H-978V-614ZM507 -613V937H509V-613H507ZM506 938H-978V940H506V938ZM-979 937V-613H-981V937H-979ZM-978 938C-978.552 938 -979 937.552 -979 937H-981C-981 938.657 -979.657 940 -978 940V938ZM507 937C507 937.552 506.552 938 506 938V940C507.657 940 509 938.657 509 937H507ZM506 -614C506.552 -614 507 -613.552 507 -613H509C509 -614.657 507.657 -616 506 -616V-614ZM-978 -616C-979.657 -616 -981 -614.657 -981 -613H-979C-979 -613.552 -978.552 -614 -978 -614V-616Z" fill="black" fill-opacity="0.1"/>
<path fill-rule="evenodd" clip-rule="evenodd" d="M6.75 8C6.75 6.48122 5.51878 5.25 4 5.25C2.48122 5.25 1.25 6.48122 1.25 8C1.25 9.51878 2.48122 10.75 4 10.75C5.51878 10.75 6.75 9.51878 6.75 8ZM6.75 16C6.75 14.4812 5.51878 13.25 4 13.25C2.48122 13.25 1.25 14.4812 1.25 16C1.25 17.5188 2.48122 18.75 4 18.75C5.51878 18.75 6.75 17.5188 6.75 16ZM9.25 6C9.25 5.58579 9.58579 5.25 10 5.25H16C16.4142 5.25 16.75 5.58579 16.75 6C16.75 6.41421 16.4142 6.75 16 6.75H10C9.58579 6.75 9.25 6.41421 9.25 6ZM10 13.25C9.58579 13.25 9.25 13.5858 9.25 14C9.25 14.4142 9.58579 14.75 10 14.75H16C16.4142 14.75 16.75 14.4142 16.75 14C16.75 13.5858 16.4142 13.25 16 13.25H10ZM9.25 10C9.25 9.58579 9.58579 9.25 10 9.25H22C22.4142 9.25 22.75 9.58579 22.75 10C22.75 10.4142 22.4142 10.75 22 10.75H10C9.58579 10.75 9.25 10.4142 9.25 10ZM10 17.25C9.58579 17.25 9.25 17.5858 9.25 18C9.25 18.4142 9.58579 18.75 10 18.75H22C22.4142 18.75 22.75 18.4142 22.75 18C22.75 17.5858 22.4142 17.25 22 17.25H10Z" fill="#1A1A1A"/>
</svg>
