<svg width="24" height="24" viewBox="0 0 24 24" fill="none" xmlns="http://www.w3.org/2000/svg">
<rect width="24" height="24" fill="#A6A6A6"/>
<path d="M-578 -853C-578 -854.105 -577.105 -855 -576 -855H908C909.105 -855 910 -854.105 910 -853V697C910 698.105 909.105 699 908 699H-576C-577.105 699 -578 698.105 -578 697V-853Z" fill="white"/>
<path d="M-576 -854H908V-856H-576V-854ZM909 -853V697H911V-853H909ZM908 698H-576V700H908V698ZM-577 697V-853H-579V697H-577ZM-576 698C-576.552 698 -577 697.552 -577 697H-579C-579 698.657 -577.657 700 -576 700V698ZM909 697C909 697.552 908.552 698 908 698V700C909.657 700 911 698.657 911 697H909ZM908 -854C908.552 -854 909 -853.552 909 -853H911C911 -854.657 909.657 -856 908 -856V-854ZM-576 -856C-577.657 -856 -579 -854.657 -579 -853H-577C-577 -853.552 -576.552 -854 -576 -854V-856Z" fill="black" fill-opacity="0.1"/>
<circle cx="12" cy="17" r="1" transform="rotate(-180 12 17)" fill="#1A1A1A"/>
<path d="M12 14L12 7M22 12C22 17.5228 17.5228 22 12 22C6.47715 22 2 17.5228 2 12C2 6.47715 6.47715 2 12 2C17.5228 2 22 6.47715 22 12Z" stroke="#1A1A1A" stroke-width="1.5" stroke-linecap="round" stroke-linejoin="round"/>
</svg>
