<svg width="24" height="24" viewBox="0 0 24 24" fill="none" xmlns="http://www.w3.org/2000/svg">
<rect width="24" height="24" fill="#A6A6A6"/>
<path d="M-1270 -853C-1270 -854.105 -1269.1 -855 -1268 -855H216C217.105 -855 218 -854.105 218 -853V697C218 698.105 217.105 699 216 699H-1268C-1269.1 699 -1270 698.105 -1270 697V-853Z" fill="white"/>
<path d="M-1268 -854H216V-856H-1268V-854ZM217 -853V697H219V-853H217ZM216 698H-1268V700H216V698ZM-1269 697V-853H-1271V697H-1269ZM-1268 698C-1268.55 698 -1269 697.552 -1269 697H-1271C-1271 698.657 -1269.66 700 -1268 700V698ZM217 697C217 697.552 216.552 698 216 698V700C217.657 700 219 698.657 219 697H217ZM216 -854C216.552 -854 217 -853.552 217 -853H219C219 -854.657 217.657 -856 216 -856V-854ZM-1268 -856C-1269.66 -856 -1271 -854.657 -1271 -853H-1269C-1269 -853.552 -1268.55 -854 -1268 -854V-856Z" fill="black" fill-opacity="0.1"/>
<path fill-rule="evenodd" clip-rule="evenodd" d="M22 12C22 17.5228 17.5228 22 12 22C6.47715 22 2 17.5228 2 12C2 6.47715 6.47715 2 12 2C17.5228 2 22 6.47715 22 12ZM11 17C11 16.4477 11.4477 16 12 16C12.5523 16 13 16.4477 13 17C13 17.5523 12.5523 18 12 18C11.4477 18 11 17.5523 11 17ZM11.25 14C11.25 14.4142 11.5858 14.75 12 14.75C12.4142 14.75 12.75 14.4142 12.75 14L12.75 7C12.75 6.58579 12.4142 6.25 12 6.25C11.5858 6.25 11.25 6.58579 11.25 7L11.25 14Z" fill="#1A1A1A"/>
</svg>
