<svg width="24" height="24" viewBox="0 0 24 24" fill="none" xmlns="http://www.w3.org/2000/svg">
<rect width="24" height="24" fill="#A6A6A6"/>
<path d="M-288 -517C-288 -518.105 -287.105 -519 -286 -519H1198C1199.1 -519 1200 -518.105 1200 -517V1033C1200 1034.1 1199.1 1035 1198 1035H-286C-287.105 1035 -288 1034.1 -288 1033V-517Z" fill="white"/>
<path d="M-286 -518H1198V-520H-286V-518ZM1199 -517V1033H1201V-517H1199ZM1198 1034H-286V1036H1198V1034ZM-287 1033V-517H-289V1033H-287ZM-286 1034C-286.552 1034 -287 1033.55 -287 1033H-289C-289 1034.66 -287.657 1036 -286 1036V1034ZM1199 1033C1199 1033.55 1198.55 1034 1198 1034V1036C1199.66 1036 1201 1034.66 1201 1033H1199ZM1198 -518C1198.55 -518 1199 -517.552 1199 -517H1201C1201 -518.657 1199.66 -520 1198 -520V-518ZM-286 -520C-287.657 -520 -289 -518.657 -289 -517H-287C-287 -517.552 -286.552 -518 -286 -518V-520Z" fill="black" fill-opacity="0.1"/>
<path d="M18.0019 15H20.0019C21.1065 15 22.0019 14.1046 22.0019 13V6C22.0019 4.89543 21.1065 4 20.0019 4H18.0019C16.8974 4 16.0019 4.89543 16.0019 6V13C16.0019 14.1046 16.8974 15 18.0019 15Z" stroke="#1A1A1A" stroke-width="1.5" stroke-linecap="round" stroke-linejoin="round"/>
<path d="M8.12504 3H11.7908C12.5805 3 13.3526 3.23375 14.0096 3.6718L15.5566 4.70313C15.8348 4.8886 16.0019 5.20083 16.0019 5.53518V13.7344C16.0019 13.9085 15.9565 14.0795 15.8702 14.2306L12.0019 21H10.6732C8.67649 21 7.48551 18.7746 8.5931 17.1133L10.0019 15H4.56349C3.26234 15 2.30763 13.7772 2.6232 12.5149L4.24447 6.02986C4.68964 4.24919 6.28957 3 8.12504 3Z" stroke="#1A1A1A" stroke-width="1.5" stroke-linecap="round" stroke-linejoin="round"/>
</svg>
