<svg width="24" height="24" viewBox="0 0 24 24" fill="none" xmlns="http://www.w3.org/2000/svg">
<rect width="24" height="24" fill="#A6A6A6"/>
<path d="M-980 -517C-980 -518.105 -979.105 -519 -978 -519H506C507.105 -519 508 -518.105 508 -517V1033C508 1034.1 507.105 1035 506 1035H-978C-979.105 1035 -980 1034.1 -980 1033V-517Z" fill="white"/>
<path d="M-978 -518H506V-520H-978V-518ZM507 -517V1033H509V-517H507ZM506 1034H-978V1036H506V1034ZM-979 1033V-517H-981V1033H-979ZM-978 1034C-978.552 1034 -979 1033.55 -979 1033H-981C-981 1034.66 -979.657 1036 -978 1036V1034ZM507 1033C507 1033.55 506.552 1034 506 1034V1036C507.657 1036 509 1034.66 509 1033H507ZM506 -518C506.552 -518 507 -517.552 507 -517H509C509 -518.657 507.657 -520 506 -520V-518ZM-978 -520C-979.657 -520 -981 -518.657 -981 -517H-979C-979 -517.552 -978.552 -518 -978 -518V-520Z" fill="black" fill-opacity="0.1"/>
<path fill-rule="evenodd" clip-rule="evenodd" d="M11.2908 3H8.12504C6.28957 3 4.68964 4.24919 4.24447 6.02986L2.6232 12.5149C2.30763 13.7772 3.26234 15 4.56349 15H9.50193L8.19508 17.2403C7.22287 18.907 8.42505 21 10.3545 21H11.5019L15.3702 14.2306C15.4565 14.0795 15.5019 13.9085 15.5019 13.7344V5.53518C15.5019 5.20083 15.3348 4.8886 15.0566 4.70313L13.5096 3.6718C12.8526 3.23375 12.0805 3 11.2908 3ZM20 15H19C17.8954 15 17 14.1046 17 13V6C17 4.89543 17.8954 4 19 4H20C21.1046 4 22 4.89543 22 6V13C22 14.1046 21.1046 15 20 15Z" fill="#1A1A1A"/>
</svg>
