<svg width="24" height="24" viewBox="0 0 24 24" fill="none" xmlns="http://www.w3.org/2000/svg">
<rect width="24" height="24" fill="#A6A6A6"/>
<path d="M-172 -469C-172 -470.105 -171.105 -471 -170 -471H1314C1315.1 -471 1316 -470.105 1316 -469V1081C1316 1082.1 1315.1 1083 1314 1083H-170C-171.105 1083 -172 1082.1 -172 1081V-469Z" fill="white"/>
<path d="M-170 -470H1314V-472H-170V-470ZM1315 -469V1081H1317V-469H1315ZM1314 1082H-170V1084H1314V1082ZM-171 1081V-469H-173V1081H-171ZM-170 1082C-170.552 1082 -171 1081.55 -171 1081H-173C-173 1082.66 -171.657 1084 -170 1084V1082ZM1315 1081C1315 1081.55 1314.55 1082 1314 1082V1084C1315.66 1084 1317 1082.66 1317 1081H1315ZM1314 -470C1314.55 -470 1315 -469.552 1315 -469H1317C1317 -470.657 1315.66 -472 1314 -472V-470ZM-170 -472C-171.657 -472 -173 -470.657 -173 -469H-171C-171 -469.552 -170.552 -470 -170 -470V-472Z" fill="black" fill-opacity="0.1"/>
<path d="M16.8696 12.1618L20 10.6127L12.9565 3.64167C12.0921 2.78611 10.6905 2.78611 9.82609 3.64167L2.78261 10.6127C2.35039 11.0405 2.13427 11.6012 2.13427 12.1618M16.8696 12.1618L10.6087 18.3583C9.74425 19.2139 8.34271 19.2139 7.47826 18.3583L2.78261 13.711C2.35039 13.2832 2.13427 12.7225 2.13427 12.1618M16.8696 12.1618L2.13427 12.1618M2.13427 12.1618L2 12.1618M21.9853 18.7353C21.9853 20.3921 20.9853 20.9853 19.9853 20.9853C18.9853 20.9853 17.9853 20.3921 17.9853 18.7353C17.9853 17.0784 19.9853 14.9853 19.9853 14.9853C19.9853 14.9853 21.9853 17.0784 21.9853 18.7353Z" stroke="#1A1A1A" stroke-width="1.5" stroke-linejoin="round"/>
</svg>
