<svg width="24" height="24" viewBox="0 0 24 24" fill="none" xmlns="http://www.w3.org/2000/svg">
<rect width="24" height="24" fill="#A6A6A6"/>
<path d="M-864 -469C-864 -470.105 -863.105 -471 -862 -471H622C623.105 -471 624 -470.105 624 -469V1081C624 1082.1 623.105 1083 622 1083H-862C-863.105 1083 -864 1082.1 -864 1081V-469Z" fill="white"/>
<path d="M-862 -470H622V-472H-862V-470ZM623 -469V1081H625V-469H623ZM622 1082H-862V1084H622V1082ZM-863 1081V-469H-865V1081H-863ZM-862 1082C-862.552 1082 -863 1081.55 -863 1081H-865C-865 1082.66 -863.657 1084 -862 1084V1082ZM623 1081C623 1081.55 622.552 1082 622 1082V1084C623.657 1084 625 1082.66 625 1081H623ZM622 -470C622.552 -470 623 -469.552 623 -469H625C625 -470.657 623.657 -472 622 -472V-470ZM-862 -472C-863.657 -472 -865 -470.657 -865 -469H-863C-863 -469.552 -862.552 -470 -862 -470V-472Z" fill="black" fill-opacity="0.1"/>
<path fill-rule="evenodd" clip-rule="evenodd" d="M13.4826 3.1086C12.3259 1.9638 10.4537 1.9638 9.29704 3.1086L2.25356 10.0797C1.6741 10.6532 1.38281 11.4079 1.38281 12.1618C1.38281 12.9158 1.6741 13.6705 2.25356 14.244L6.94922 18.8914C8.10592 20.0362 9.97812 20.0362 11.1348 18.8914L17.3095 12.7802L20.3312 11.2849C20.5484 11.1774 20.7002 10.9717 20.7389 10.7325C20.7776 10.4933 20.6983 10.2501 20.5261 10.0797L13.4826 3.1086ZM18.7241 10.4066L16.6927 11.4118L3.0962 11.4118C3.15486 11.3174 3.22568 11.228 3.30873 11.1458L10.3522 4.17473C10.9244 3.60842 11.8553 3.60842 12.4275 4.17473L18.7241 10.4066ZM19.9844 20.9854C20.9844 20.9854 21.9844 20.3922 21.9844 18.7354C21.9844 17.0785 19.9844 14.9854 19.9844 14.9854C19.9844 14.9854 17.9844 17.0785 17.9844 18.7354C17.9844 20.3922 18.9844 20.9854 19.9844 20.9854Z" fill="#1A1A1A"/>
</svg>
