<svg width="24" height="24" viewBox="0 0 24 24" fill="none" xmlns="http://www.w3.org/2000/svg">
<rect width="24" height="24" fill="#A6A6A6"/>
<path d="M-404 -373C-404 -374.105 -403.105 -375 -402 -375H1082C1083.1 -375 1084 -374.105 1084 -373V1177C1084 1178.1 1083.1 1179 1082 1179H-402C-403.105 1179 -404 1178.1 -404 1177V-373Z" fill="white"/>
<path d="M-402 -374H1082V-376H-402V-374ZM1083 -373V1177H1085V-373H1083ZM1082 1178H-402V1180H1082V1178ZM-403 1177V-373H-405V1177H-403ZM-402 1178C-402.552 1178 -403 1177.55 -403 1177H-405C-405 1178.66 -403.657 1180 -402 1180V1178ZM1083 1177C1083 1177.55 1082.55 1178 1082 1178V1180C1083.66 1180 1085 1178.66 1085 1177H1083ZM1082 -374C1082.55 -374 1083 -373.552 1083 -373H1085C1085 -374.657 1083.66 -376 1082 -376V-374ZM-402 -376C-403.657 -376 -405 -374.657 -405 -373H-403C-403 -373.552 -402.552 -374 -402 -374V-376Z" fill="black" fill-opacity="0.1"/>
<path d="M21 10.8889C21 15.7981 15.375 22 12 22C8.625 22 3 15.7981 3 10.8889C3 5.97969 7.02944 2 12 2C16.9706 2 21 5.97969 21 10.8889Z" stroke="#1A1A1A" stroke-width="1.5"/>
<path d="M15 11C15 12.6569 13.6569 14 12 14C10.3431 14 9 12.6569 9 11C9 9.34315 10.3431 8 12 8C13.6569 8 15 9.34315 15 11Z" stroke="#1A1A1A" stroke-width="1.5"/>
</svg>
