<svg width="24" height="24" viewBox="0 0 24 24" fill="none" xmlns="http://www.w3.org/2000/svg">
<rect width="24" height="24" fill="#A6A6A6"/>
<path d="M-1096 -373C-1096 -374.105 -1095.1 -375 -1094 -375H390C391.105 -375 392 -374.105 392 -373V1177C392 1178.1 391.105 1179 390 1179H-1094C-1095.1 1179 -1096 1178.1 -1096 1177V-373Z" fill="white"/>
<path d="M-1094 -374H390V-376H-1094V-374ZM391 -373V1177H393V-373H391ZM390 1178H-1094V1180H390V1178ZM-1095 1177V-373H-1097V1177H-1095ZM-1094 1178C-1094.55 1178 -1095 1177.55 -1095 1177H-1097C-1097 1178.66 -1095.66 1180 -1094 1180V1178ZM391 1177C391 1177.55 390.552 1178 390 1178V1180C391.657 1180 393 1178.66 393 1177H391ZM390 -374C390.552 -374 391 -373.552 391 -373H393C393 -374.657 391.657 -376 390 -376V-374ZM-1094 -376C-1095.66 -376 -1097 -374.657 -1097 -373H-1095C-1095 -373.552 -1094.55 -374 -1094 -374V-376Z" fill="black" fill-opacity="0.1"/>
<path fill-rule="evenodd" clip-rule="evenodd" d="M12 22C15.375 22 21 15.7981 21 10.8889C21 5.97969 16.9706 2 12 2C7.02944 2 3 5.97969 3 10.8889C3 15.7981 8.625 22 12 22ZM12 14C13.6569 14 15 12.6569 15 11C15 9.34315 13.6569 8 12 8C10.3431 8 9 9.34315 9 11C9 12.6569 10.3431 14 12 14Z" fill="#1A1A1A"/>
</svg>
