<svg width="24" height="24" viewBox="0 0 24 24" fill="none" xmlns="http://www.w3.org/2000/svg">
<rect width="24" height="24" fill="#A6A6A6"/>
<path d="M-404 -709C-404 -710.105 -403.105 -711 -402 -711H1082C1083.1 -711 1084 -710.105 1084 -709V841C1084 842.105 1083.1 843 1082 843H-402C-403.105 843 -404 842.105 -404 841V-709Z" fill="white"/>
<path d="M-402 -710H1082V-712H-402V-710ZM1083 -709V841H1085V-709H1083ZM1082 842H-402V844H1082V842ZM-403 841V-709H-405V841H-403ZM-402 842C-402.552 842 -403 841.552 -403 841H-405C-405 842.657 -403.657 844 -402 844V842ZM1083 841C1083 841.552 1082.55 842 1082 842V844C1083.66 844 1085 842.657 1085 841H1083ZM1082 -710C1082.55 -710 1083 -709.552 1083 -709H1085C1085 -710.657 1083.66 -712 1082 -712V-710ZM-402 -712C-403.657 -712 -405 -710.657 -405 -709H-403C-403 -709.552 -402.552 -710 -402 -710V-712Z" fill="black" fill-opacity="0.1"/>
<path d="M12 16V14M16 8H8C5.79086 8 4 9.79086 4 12V18C4 20.2091 5.79086 22 8 22H16C18.2091 22 20 20.2091 20 18V12C20 9.79086 18.2091 8 16 8ZM16 8L16 6C16 3.79086 14.2092 2 12 2C10.5195 2 9.22678 2.8044 8.53516 4" stroke="#1A1A1A" stroke-width="1.5" stroke-linecap="round" stroke-linejoin="round"/>
</svg>
