<svg width="24" height="24" viewBox="0 0 24 24" fill="none" xmlns="http://www.w3.org/2000/svg">
<rect width="24" height="24" fill="#A6A6A6"/>
<path d="M-1096 -709C-1096 -710.105 -1095.1 -711 -1094 -711H390C391.105 -711 392 -710.105 392 -709V841C392 842.105 391.105 843 390 843H-1094C-1095.1 843 -1096 842.105 -1096 841V-709Z" fill="white"/>
<path d="M-1094 -710H390V-712H-1094V-710ZM391 -709V841H393V-709H391ZM390 842H-1094V844H390V842ZM-1095 841V-709H-1097V841H-1095ZM-1094 842C-1094.55 842 -1095 841.552 -1095 841H-1097C-1097 842.657 -1095.66 844 -1094 844V842ZM391 841C391 841.552 390.552 842 390 842V844C391.657 844 393 842.657 393 841H391ZM390 -710C390.552 -710 391 -709.552 391 -709H393C393 -710.657 391.657 -712 390 -712V-710ZM-1094 -712C-1095.66 -712 -1097 -710.657 -1097 -709H-1095C-1095 -709.552 -1094.55 -710 -1094 -710V-712Z" fill="black" fill-opacity="0.1"/>
<path fill-rule="evenodd" clip-rule="evenodd" d="M9.18436 5.12554C9.74744 4.15216 10.798 3.5 12 3.5C13.795 3.5 15.25 4.95507 15.25 6.75V8H8C5.79086 8 4 9.79086 4 12V18C4 20.2091 5.79086 22 8 22H16C18.2091 22 20 20.2091 20 18V12C20 10.0472 18.6007 8.42127 16.75 8.0702V6.75C16.75 4.12665 14.6234 2 12 2C10.2409 2 8.70612 2.95663 7.88595 4.37446C7.67855 4.733 7.80107 5.1918 8.15961 5.3992C8.51816 5.60661 8.97696 5.48409 9.18436 5.12554ZM12 13.25C12.4142 13.25 12.75 13.5858 12.75 14V16C12.75 16.4142 12.4142 16.75 12 16.75C11.5858 16.75 11.25 16.4142 11.25 16V14C11.25 13.5858 11.5858 13.25 12 13.25Z" fill="#1A1A1A"/>
</svg>
