<svg width="24" height="24" viewBox="0 0 24 24" fill="none" xmlns="http://www.w3.org/2000/svg">
<rect width="24" height="24" fill="#A6A6A6"/>
<path d="M-288 -805C-288 -806.105 -287.105 -807 -286 -807H1198C1199.1 -807 1200 -806.105 1200 -805V745C1200 746.105 1199.1 747 1198 747H-286C-287.105 747 -288 746.105 -288 745V-805Z" fill="white"/>
<path d="M-286 -806H1198V-808H-286V-806ZM1199 -805V745H1201V-805H1199ZM1198 746H-286V748H1198V746ZM-287 745V-805H-289V745H-287ZM-286 746C-286.552 746 -287 745.552 -287 745H-289C-289 746.657 -287.657 748 -286 748V746ZM1199 745C1199 745.552 1198.55 746 1198 746V748C1199.66 748 1201 746.657 1201 745H1199ZM1198 -806C1198.55 -806 1199 -805.552 1199 -805H1201C1201 -806.657 1199.66 -808 1198 -808V-806ZM-286 -808C-287.657 -808 -289 -806.657 -289 -805H-287C-287 -805.552 -286.552 -806 -286 -806V-808Z" fill="black" fill-opacity="0.1"/>
<path d="M22 12C22 17.5228 17.5228 22 12 22M22 12C22 6.47715 17.5228 2 12 2M22 12H20M12 22C6.47715 22 2 17.5228 2 12M12 22V20M2 12C2 6.47715 6.47715 2 12 2M2 12H4M12 2V4M14.8612 8.04584L8.59084 10.1359C7.80305 10.3985 7.80305 11.5128 8.59084 11.7754L10.9063 12.5472C11.1643 12.6333 11.3667 12.8357 11.4528 13.0937L12.2246 15.4092C12.4872 16.1969 13.6015 16.1969 13.8641 15.4092L15.9542 9.13883C16.1793 8.46332 15.5367 7.82067 14.8612 8.04584Z" stroke="#1A1A1A" stroke-width="1.5" stroke-linecap="round" stroke-linejoin="round"/>
</svg>
