<svg width="24" height="24" viewBox="0 0 24 24" fill="none" xmlns="http://www.w3.org/2000/svg">
<rect width="24" height="24" fill="#A6A6A6"/>
<path d="M-980 -805C-980 -806.105 -979.105 -807 -978 -807H506C507.105 -807 508 -806.105 508 -805V745C508 746.105 507.105 747 506 747H-978C-979.105 747 -980 746.105 -980 745V-805Z" fill="white"/>
<path d="M-978 -806H506V-808H-978V-806ZM507 -805V745H509V-805H507ZM506 746H-978V748H506V746ZM-979 745V-805H-981V745H-979ZM-978 746C-978.552 746 -979 745.552 -979 745H-981C-981 746.657 -979.657 748 -978 748V746ZM507 745C507 745.552 506.552 746 506 746V748C507.657 748 509 746.657 509 745H507ZM506 -806C506.552 -806 507 -805.552 507 -805H509C509 -806.657 507.657 -808 506 -808V-806ZM-978 -808C-979.657 -808 -981 -806.657 -981 -805H-979C-979 -805.552 -978.552 -806 -978 -806V-808Z" fill="black" fill-opacity="0.1"/>
<path fill-rule="evenodd" clip-rule="evenodd" d="M12 22C17.5228 22 22 17.5228 22 12C22 6.47715 17.5228 2 12 2C6.47715 2 2 6.47715 2 12C2 17.5228 6.47715 22 12 22ZM14.8612 8.04584L8.59084 10.1359C7.80305 10.3985 7.80305 11.5128 8.59084 11.7754L10.9063 12.5472C11.1643 12.6333 11.3667 12.8357 11.4528 13.0937L12.2246 15.4092C12.4872 16.1969 13.6015 16.1969 13.8641 15.4092L15.9542 9.13883C16.1793 8.46332 15.5367 7.82067 14.8612 8.04584Z" fill="#1A1A1A"/>
</svg>
