<svg width="24" height="24" viewBox="0 0 24 24" fill="none" xmlns="http://www.w3.org/2000/svg">
<g id="Icon">
<path id="Union" fill-rule="evenodd" clip-rule="evenodd" d="M13.0936 17.0104L21.545 8.55894C22.1308 7.97315 22.1308 7.0234 21.545 6.43761C20.9592 5.85183 20.0095 5.85183 19.4237 6.43761L11.9998 13.8615L4.57571 6.43739C3.98993 5.8516 3.04018 5.8516 2.45439 6.43739C1.8686 7.02317 1.8686 7.97292 2.45439 8.55871L10.8994 17.0037C10.9121 17.0174 10.9251 17.0309 10.9384 17.0442C11.3013 17.4071 11.8038 17.5452 12.2729 17.4585C12.5616 17.4054 12.8377 17.2673 13.061 17.044C13.0721 17.0329 13.0829 17.0217 13.0936 17.0104Z" fill="#1A1A1A"/>
</g>
</svg>
