<svg width="24" height="24" viewBox="0 0 24 24" fill="none" xmlns="http://www.w3.org/2000/svg">
<path d="M21 7C21 8.65685 19.6569 10 18 10C16.3431 10 15 8.65685 15 7C15 5.34315 16.3431 4 18 4C19.6569 4 21 5.34315 21 7Z" fill="#0059FF"/>
<path d="M12 22.0002C13.3565 22.0002 14.5147 21.1995 14.9721 20.0718C14.9912 20.0247 15 19.9742 15 19.9235C15 19.6896 14.8104 19.5 14.5765 19.5H9.42349C9.1896 19.5 9 19.6896 9 19.9235C9 19.9742 9.00883 20.0247 9.02791 20.0718C9.48528 21.1995 10.6435 22.0002 12 22.0002Z" fill="#7FACFF"/>
<path fill-rule="evenodd" clip-rule="evenodd" d="M17.7772 18H6.22281C4.39443 18 3.35076 16.1609 4.44779 14.8721C4.93344 14.3016 5.23274 13.6249 5.31328 12.9153L5.76046 8.97519C6.0016 6.85063 7.58766 5.10719 9.73005 4.37366V4.26995C9.73005 3.01629 10.7463 2 12 2C13.2537 2 14.2699 3.01629 14.2699 4.26995V4.37366C14.2901 4.38056 14.3102 4.38755 14.3303 4.39463C13.8074 5.12982 13.4999 6.02889 13.4999 6.99976C13.4999 9.48504 15.5147 11.4998 17.9999 11.4998C18.1767 11.4998 18.3512 11.4896 18.5227 11.4697L18.6867 12.9153C18.7673 13.6249 19.0666 14.3016 19.5522 14.8721C20.6492 16.1609 19.6056 18 17.7772 18Z" fill="#7FACFF"/>
</svg>
