<svg width="333" height="277" viewBox="0 0 333 277" fill="none" xmlns="http://www.w3.org/2000/svg">
<circle cx="108.878" cy="108.878" r="108.378" transform="matrix(0.978932 0.204187 0.312635 0.949873 0 25.0957)" fill="#666666" stroke="black"/>
<circle cx="108.878" cy="108.878" r="108.378" transform="matrix(0.978932 0.204187 0.312635 0.949873 26.8262 0)" fill="#333333" stroke="black"/>
<circle cx="71.1881" cy="71.1881" r="70.6881" transform="matrix(0.978932 0.204187 0.312635 0.949873 75.4648 43.8926)" fill="#E5EEFF" stroke="black"/>
<circle cx="39.0789" cy="39.0789" r="38.5789" transform="matrix(0.978932 0.204187 0.312635 0.949873 116.883 80.8086)" fill="#B2CDFF" stroke="black"/>
<circle cx="12.648" cy="12.648" r="12.148" transform="matrix(0.978932 0.204187 0.312635 0.949873 151.258 111.012)" fill="#0059FF" stroke="black"/>
<path d="M318.724 38.3348L318.606 38.8048L319.072 38.9375L331.279 42.4132L325.95 45.49L313.233 41.9066L316.488 29.1019L321.817 26.0251L318.724 38.3348Z" fill="#99BDFF" stroke="black"/>
<path d="M312.327 42.0262L312.209 42.4962L312.675 42.6289L324.883 46.1046L319.554 49.1814L306.837 45.598L310.092 32.7933L315.421 29.7165L312.327 42.0262Z" fill="#99BDFF" stroke="black"/>
<path d="M305.931 45.7196L305.813 46.1896L306.279 46.3223L318.486 49.798L313.157 52.8747L300.44 49.2914L303.695 36.4866L309.024 33.4099L305.931 45.7196Z" fill="#99BDFF" stroke="black"/>
<rect x="325.229" y="35.9146" width="163.013" height="1.72903" rx="0.864516" transform="rotate(150 325.229 35.9146)" fill="#E5EEFF" stroke="black"/>
<path d="M175.004 104.058L169.941 122.83C169.614 124.042 170.334 125.29 171.548 125.613L190.336 130.614C192.808 131.272 195.451 130.916 197.666 129.638C202.267 126.981 203.871 121.082 201.214 116.481C199.936 114.267 197.829 112.653 195.358 111.995L193.152 111.408C193.071 111.386 193.023 111.303 193.045 111.222L193.64 109.019C194.305 106.55 193.961 103.918 192.683 101.704C190.026 97.1028 184.116 95.5424 179.515 98.1988C177.3 99.4776 175.67 101.589 175.004 104.058Z" fill="#4C8BFF" stroke="black"/>
<path d="M174.854 104.459L171.371 118.553L175.307 108.072C178.799 98.7766 192.554 101.113 192.78 111.04C192.782 111.144 192.93 111.162 192.957 111.062L193.428 109.316C194.094 106.847 193.744 104.205 192.465 101.991C189.82 97.409 183.947 95.8151 179.365 98.4606C177.108 99.7635 175.479 101.929 174.854 104.459Z" fill="#0059FF"/>
<path d="M175.004 104.058L169.941 122.83C169.614 124.042 170.334 125.29 171.548 125.613L190.336 130.614C192.808 131.272 195.451 130.916 197.666 129.638C202.267 126.981 203.871 121.082 201.214 116.481C199.936 114.267 197.829 112.653 195.358 111.995L193.152 111.408C193.071 111.386 193.023 111.303 193.045 111.222L193.64 109.019C194.305 106.55 193.961 103.918 192.683 101.704C190.026 97.1028 184.116 95.5424 179.515 98.1988C177.3 99.4776 175.67 101.589 175.004 104.058Z" stroke="black"/>
</svg>
