<svg width="12" height="12" viewBox="0 0 12 12" fill="none" xmlns="http://www.w3.org/2000/svg">
<g id="Icon">
<path id="Union" fill-rule="evenodd" clip-rule="evenodd" d="M7.32615 1.78846C6.70993 1.17224 5.65629 1.60868 5.65629 2.48014C5.65629 2.73957 5.55323 2.98837 5.36979 3.17182L4.55944 3.98217C4.37599 4.16561 4.12719 4.26867 3.86776 4.26867C2.99629 4.26867 2.55986 5.3223 3.17608 5.93852L4.36422 7.12666L1.60544 9.88544C1.46485 10.026 1.46485 10.254 1.60544 10.3946C1.74603 10.5351 1.97397 10.5351 2.11456 10.3946L4.87334 7.63578L6.06147 8.8239C6.67768 9.44012 7.73132 9.00369 7.73132 8.13223C7.73132 7.8728 7.83438 7.62399 8.01783 7.44055L8.82818 6.6302C9.01162 6.44675 9.26043 6.3437 9.51986 6.3437C10.3913 6.3437 10.8278 5.29006 10.2115 4.67384L7.32615 1.78846Z" fill="#4D4D4D"/>
</g>
</svg>
