<svg width="18" height="16" viewBox="0 0 18 16" fill="none" xmlns="http://www.w3.org/2000/svg">
<path d="M7.87231 0.621165C8.38211 0.250774 9.07243 0.250774 9.58223 0.621165L16.1724 5.40923C16.6822 5.77962 16.8956 6.43616 16.7008 7.03546L14.1836 14.7827C13.9889 15.382 13.4304 15.7878 12.8002 15.7878H4.6543C4.02415 15.7878 3.46567 15.382 3.27095 14.7827L0.753709 7.03546C0.558983 6.43616 0.772304 5.77962 1.2821 5.40923L7.87231 0.621165Z" fill="#4C8BFF"/>
<mask id="mask0_1706_66967" style="mask-type:alpha" maskUnits="userSpaceOnUse" x="0" y="0" width="17" height="16">
<path d="M7.87231 0.621165C8.38211 0.250774 9.07243 0.250774 9.58223 0.621165L16.1724 5.40923C16.6822 5.77962 16.8956 6.43616 16.7008 7.03546L14.1836 14.7827C13.9889 15.382 13.4304 15.7878 12.8002 15.7878H4.6543C4.02415 15.7878 3.46567 15.382 3.27095 14.7827L0.753709 7.03546C0.558983 6.43616 0.772304 5.77962 1.2821 5.40923L7.87231 0.621165Z" fill="#4C8BFF"/>
</mask>
<g mask="url(#mask0_1706_66967)">
<circle cx="2.18182" cy="2.18182" r="2.18182" transform="matrix(1 0 0 -1 6.54492 9.45703)" fill="#F5F8FF"/>
<path d="M4.36123 16.0011H13.0885C13.3393 16.0011 13.5828 15.9693 13.815 15.9096C13.7662 13.1402 11.506 10.9102 8.72487 10.9102C5.94378 10.9102 3.68355 13.1402 3.63477 15.9096C3.86697 15.9693 4.1104 16.0011 4.36123 16.0011Z" fill="#F5F8FF"/>
</g>
</svg>
