<svg width="24" height="24" viewBox="0 0 24 24" fill="none" xmlns="http://www.w3.org/2000/svg">
<rect width="24" height="24" fill="#A6A6A6"/>
<path d="M-1212 -373C-1212 -374.105 -1211.1 -375 -1210 -375H274C275.105 -375 276 -374.105 276 -373V1177C276 1178.1 275.105 1179 274 1179H-1210C-1211.1 1179 -1212 1178.1 -1212 1177V-373Z" fill="white"/>
<path d="M-1210 -374H274V-376H-1210V-374ZM275 -373V1177H277V-373H275ZM274 1178H-1210V1180H274V1178ZM-1211 1177V-373H-1213V1177H-1211ZM-1210 1178C-1210.55 1178 -1211 1177.55 -1211 1177H-1213C-1213 1178.66 -1211.66 1180 -1210 1180V1178ZM275 1177C275 1177.55 274.552 1178 274 1178V1180C275.657 1180 277 1178.66 277 1177H275ZM274 -374C274.552 -374 275 -373.552 275 -373H277C277 -374.657 275.657 -376 274 -376V-374ZM-1210 -376C-1211.66 -376 -1213 -374.657 -1213 -373H-1211C-1211 -373.552 -1210.55 -374 -1210 -374V-376Z" fill="black" fill-opacity="0.1"/>
<path fill-rule="evenodd" clip-rule="evenodd" d="M19.5 9.5C19.5 13.4274 14.625 19 12 19C9.375 19 4.5 13.0385 4.5 9.11111C4.5 5 8.13401 2 12 2C15.866 2 19.5 5 19.5 9.5ZM14.5 9C14.5 10.3807 13.3807 11.5 12 11.5C10.6193 11.5 9.5 10.3807 9.5 9C9.5 7.61929 10.6193 6.5 12 6.5C13.3807 6.5 14.5 7.61929 14.5 9ZM6 21.25C5.58579 21.25 5.25 21.5858 5.25 22C5.25 22.4142 5.58579 22.75 6 22.75H18C18.4142 22.75 18.75 22.4142 18.75 22C18.75 21.5858 18.4142 21.25 18 21.25H6Z" fill="#1A1A1A"/>
</svg>
