<svg width="24" height="24" viewBox="0 0 24 24" fill="none" xmlns="http://www.w3.org/2000/svg">
<rect width="24" height="24" fill="#A6A6A6"/>
<path d="M-520 -805C-520 -806.105 -519.105 -807 -518 -807H966C967.105 -807 968 -806.105 968 -805V745C968 746.105 967.105 747 966 747H-518C-519.105 747 -520 746.105 -520 745V-805Z" fill="white"/>
<path d="M-518 -806H966V-808H-518V-806ZM967 -805V745H969V-805H967ZM966 746H-518V748H966V746ZM-519 745V-805H-521V745H-519ZM-518 746C-518.552 746 -519 745.552 -519 745H-521C-521 746.657 -519.657 748 -518 748V746ZM967 745C967 745.552 966.552 746 966 746V748C967.657 748 969 746.657 969 745H967ZM966 -806C966.552 -806 967 -805.552 967 -805H969C969 -806.657 967.657 -808 966 -808V-806ZM-518 -808C-519.657 -808 -521 -806.657 -521 -805H-519C-519 -805.552 -518.552 -806 -518 -806V-808Z" fill="black" fill-opacity="0.1"/>
<path d="M8.63118 10.4344C8.05656 9.2874 6.87023 8.5 5.5 8.5C3.567 8.5 2 10.067 2 12C2 13.933 3.567 15.5 5.5 15.5C6.87023 15.5 8.05656 14.7126 8.63118 13.5656M8.63118 10.4344C8.86718 10.9055 9 11.4372 9 12C9 12.5628 8.86718 13.0945 8.63118 13.5656M8.63118 10.4344L15.3688 7.06559M8.63118 13.5656L15.3688 16.9344M15.3688 7.06559C15.9434 8.2126 17.1298 9 18.5 9C20.433 9 22 7.433 22 5.5C22 3.567 20.433 2 18.5 2C16.567 2 15 3.567 15 5.5C15 6.06276 15.1328 6.59451 15.3688 7.06559ZM15.3688 16.9344C15.1328 17.4055 15 17.9372 15 18.5C15 20.433 16.567 22 18.5 22C20.433 22 22 20.433 22 18.5C22 16.567 20.433 15 18.5 15C17.1298 15 15.9434 15.7874 15.3688 16.9344Z" stroke="#1A1A1A" stroke-width="1.5" stroke-linecap="round"/>
</svg>
