<svg width="24" height="24" viewBox="0 0 24 24" fill="none" xmlns="http://www.w3.org/2000/svg">
<rect width="24" height="24" fill="#A6A6A6"/>
<path d="M-172 -805C-172 -806.105 -171.105 -807 -170 -807H1314C1315.1 -807 1316 -806.105 1316 -805V745C1316 746.105 1315.1 747 1314 747H-170C-171.105 747 -172 746.105 -172 745V-805Z" fill="white"/>
<path d="M-170 -806H1314V-808H-170V-806ZM1315 -805V745H1317V-805H1315ZM1314 746H-170V748H1314V746ZM-171 745V-805H-173V745H-171ZM-170 746C-170.552 746 -171 745.552 -171 745H-173C-173 746.657 -171.657 748 -170 748V746ZM1315 745C1315 745.552 1314.55 746 1314 746V748C1315.66 748 1317 746.657 1317 745H1315ZM1314 -806C1314.55 -806 1315 -805.552 1315 -805H1317C1317 -806.657 1315.66 -808 1314 -808V-806ZM-170 -808C-171.657 -808 -173 -806.657 -173 -805H-171C-171 -805.552 -170.552 -806 -170 -806V-808Z" fill="black" fill-opacity="0.1"/>
<path d="M18 10C19.1046 10 20 10.8954 20 12C20 13.1046 19.1046 14 18 14L6 14C4.89543 14 4 13.1046 4 12C4 10.8954 4.89543 10 6 10L18 10Z" stroke="#1A1A1A" stroke-width="1.5" stroke-linejoin="round"/>
</svg>
