<svg width="24" height="24" viewBox="0 0 24 24" fill="none" xmlns="http://www.w3.org/2000/svg">
<rect width="24" height="24" fill="#A6A6A6"/>
<path d="M-864 -805C-864 -806.105 -863.105 -807 -862 -807H622C623.105 -807 624 -806.105 624 -805V745C624 746.105 623.105 747 622 747H-862C-863.105 747 -864 746.105 -864 745V-805Z" fill="white"/>
<path d="M-862 -806H622V-808H-862V-806ZM623 -805V745H625V-805H623ZM622 746H-862V748H622V746ZM-863 745V-805H-865V745H-863ZM-862 746C-862.552 746 -863 745.552 -863 745H-865C-865 746.657 -863.657 748 -862 748V746ZM623 745C623 745.552 622.552 746 622 746V748C623.657 748 625 746.657 625 745H623ZM622 -806C622.552 -806 623 -805.552 623 -805H625C625 -806.657 623.657 -808 622 -808V-806ZM-862 -808C-863.657 -808 -865 -806.657 -865 -805H-863C-863 -805.552 -862.552 -806 -862 -806V-808Z" fill="black" fill-opacity="0.1"/>
<path d="M18 10C19.1046 10 20 10.8954 20 12C20 13.1046 19.1046 14 18 14L6 14C4.89543 14 4 13.1046 4 12C4 10.8954 4.89543 10 6 10L18 10Z" fill="#1A1A1A"/>
</svg>
