<svg width="24" height="24" viewBox="0 0 24 24" fill="none" xmlns="http://www.w3.org/2000/svg">
<rect width="24" height="24" fill="#A6A6A6"/>
<path d="M-636 -277C-636 -278.105 -635.105 -279 -634 -279H850C851.105 -279 852 -278.105 852 -277V1273C852 1274.1 851.105 1275 850 1275H-634C-635.105 1275 -636 1274.1 -636 1273V-277Z" fill="white"/>
<path d="M-634 -278H850V-280H-634V-278ZM851 -277V1273H853V-277H851ZM850 1274H-634V1276H850V1274ZM-635 1273V-277H-637V1273H-635ZM-634 1274C-634.552 1274 -635 1273.55 -635 1273H-637C-637 1274.66 -635.657 1276 -634 1276V1274ZM851 1273C851 1273.55 850.552 1274 850 1274V1276C851.657 1276 853 1274.66 853 1273H851ZM850 -278C850.552 -278 851 -277.552 851 -277H853C853 -278.657 851.657 -280 850 -280V-278ZM-634 -280C-635.657 -280 -637 -278.657 -637 -277H-635C-635 -277.552 -634.552 -278 -634 -278V-280Z" fill="black" fill-opacity="0.1"/>
<path d="M12.0535 6.266C12.0183 6.50556 12 6.75065 12 7C12 9.76142 14.2386 12 17 12C17.2494 12 17.4944 11.9817 17.734 11.9465M12.0535 6.266C12.4085 3.85255 14.4879 2 17 2C19.7614 2 22 4.23858 22 7C22 9.51207 20.1474 11.5915 17.734 11.9465M12.0535 6.266C11.3982 6.09246 10.7099 6 10 6C5.58172 6 2 9.58172 2 14C2 18.4183 5.58172 22 10 22C14.4183 22 18 18.4183 18 14C18 13.2901 17.9075 12.6018 17.734 11.9465" stroke="#1A1A1A" stroke-width="1.5"/>
</svg>
