<svg width="24" height="24" viewBox="0 0 24 24" fill="none" xmlns="http://www.w3.org/2000/svg">
<rect width="24" height="24" fill="#A6A6A6"/>
<path d="M-1328 -277C-1328 -278.105 -1327.1 -279 -1326 -279H158C159.105 -279 160 -278.105 160 -277V1273C160 1274.1 159.105 1275 158 1275H-1326C-1327.1 1275 -1328 1274.1 -1328 1273V-277Z" fill="white"/>
<path d="M-1326 -278H158V-280H-1326V-278ZM159 -277V1273H161V-277H159ZM158 1274H-1326V1276H158V1274ZM-1327 1273V-277H-1329V1273H-1327ZM-1326 1274C-1326.55 1274 -1327 1273.55 -1327 1273H-1329C-1329 1274.66 -1327.66 1276 -1326 1276V1274ZM159 1273C159 1273.55 158.552 1274 158 1274V1276C159.657 1276 161 1274.66 161 1273H159ZM158 -278C158.552 -278 159 -277.552 159 -277H161C161 -278.657 159.657 -280 158 -280V-278ZM-1326 -280C-1327.66 -280 -1329 -278.657 -1329 -277H-1327C-1327 -277.552 -1326.55 -278 -1326 -278V-280Z" fill="black" fill-opacity="0.1"/>
<path fill-rule="evenodd" clip-rule="evenodd" d="M17.734 11.9465C20.1474 11.5915 22 9.51207 22 7C22 4.23858 19.7614 2 17 2C14.4879 2 12.4085 3.85255 12.0535 6.266C12.0183 6.50556 12 6.75065 12 7C12 9.76142 14.2386 12 17 12C17.2493 12 17.4944 11.9817 17.734 11.9465ZM10 6C10.2118 6 10.4217 6.00823 10.6294 6.02439C10.6245 6.05464 10.6198 6.08496 10.6153 6.11535C10.5695 6.42677 10.5458 6.74539 10.5458 7.06954C10.5458 10.6594 13.456 13.5695 17.0458 13.5695C17.3647 13.5695 17.6782 13.5466 17.9848 13.5022C17.9949 13.6669 18 13.8328 18 14C18 18.4183 14.4183 22 10 22C5.58172 22 2 18.4183 2 14C2 9.58172 5.58172 6 10 6Z" fill="#1A1A1A"/>
</svg>
