<svg width="24" height="24" viewBox="0 0 24 24" fill="none" xmlns="http://www.w3.org/2000/svg">
<rect width="24" height="24" fill="#A6A6A6"/>
<path d="M-172 -421C-172 -422.105 -171.105 -423 -170 -423H1314C1315.1 -423 1316 -422.105 1316 -421V1129C1316 1130.1 1315.1 1131 1314 1131H-170C-171.105 1131 -172 1130.1 -172 1129V-421Z" fill="white"/>
<path d="M-170 -422H1314V-424H-170V-422ZM1315 -421V1129H1317V-421H1315ZM1314 1130H-170V1132H1314V1130ZM-171 1129V-421H-173V1129H-171ZM-170 1130C-170.552 1130 -171 1129.55 -171 1129H-173C-173 1130.66 -171.657 1132 -170 1132V1130ZM1315 1129C1315 1129.55 1314.55 1130 1314 1130V1132C1315.66 1132 1317 1130.66 1317 1129H1315ZM1314 -422C1314.55 -422 1315 -421.552 1315 -421H1317C1317 -422.657 1315.66 -424 1314 -424V-422ZM-170 -424C-171.657 -424 -173 -422.657 -173 -421H-171C-171 -421.552 -170.552 -422 -170 -422V-424Z" fill="black" fill-opacity="0.1"/>
<path d="M4 11H20M4 11C2.89543 11 2 10.1046 2 9V8C2 6.89543 2.89543 6 4 6H20C21.1046 6 22 6.89543 22 8V9C22 10.1046 21.1046 11 20 11M4 11L4 20C4 21.1046 4.89543 22 6 22H18C19.1046 22 20 21.1046 20 20V11M12 6H16C17.1046 6 18 5.10457 18 4C18 2.89543 17.1046 2 16 2C13.7909 2 12 3.79086 12 6ZM12 6H8C6.89543 6 6 5.10457 6 4C6 2.89543 6.89543 2 8 2C10.2091 2 12 3.79086 12 6ZM12 6V22" stroke="#1A1A1A" stroke-width="1.5" stroke-linecap="round"/>
</svg>
