<svg width="24" height="24" viewBox="0 0 24 24" fill="none" xmlns="http://www.w3.org/2000/svg">
<rect width="24" height="24" fill="#A6A6A6"/>
<path d="M-288 -1072C-288 -1073.1 -287.105 -1074 -286 -1074H1198C1199.1 -1074 1200 -1073.1 1200 -1072V478C1200 479.105 1199.1 480 1198 480H-286C-287.105 480 -288 479.105 -288 478V-1072Z" fill="white"/>
<path d="M-286 -1073H1198V-1075H-286V-1073ZM1199 -1072V478H1201V-1072H1199ZM1198 479H-286V481H1198V479ZM-287 478V-1072H-289V478H-287ZM-286 479C-286.552 479 -287 478.552 -287 478H-289C-289 479.657 -287.657 481 -286 481V479ZM1199 478C1199 478.552 1198.55 479 1198 479V481C1199.66 481 1201 479.657 1201 478H1199ZM1198 -1073C1198.55 -1073 1199 -1072.55 1199 -1072H1201C1201 -1073.66 1199.66 -1075 1198 -1075V-1073ZM-286 -1075C-287.657 -1075 -289 -1073.66 -289 -1072H-287C-287 -1072.55 -286.552 -1073 -286 -1073V-1075Z" fill="black" fill-opacity="0.1"/>
<path d="M6.64062 15.1238C7.93189 14.4077 9.41779 14 10.9989 14C11.3369 14 11.6706 14.0186 11.9989 14.0549" stroke="#1A1A1A" stroke-width="1.5" stroke-linecap="round" stroke-linejoin="round"/>
<circle cx="3" cy="3" r="3" transform="matrix(1 0 0 -1 8 11)" stroke="#1A1A1A" stroke-width="1.5" stroke-linejoin="round"/>
<path d="M19.3953 14.2501C19.7858 13.242 20 12.146 20 11C20 6.02944 15.9706 2 11 2C6.02944 2 2 6.02944 2 11C2 15.9706 6.02944 20 11 20C12.146 20 13.242 19.7858 14.2501 19.3953M19.3953 14.2501C20.9164 14.8163 22 16.2816 22 18C22 20.2091 20.2091 22 18 22C16.2816 22 14.8163 20.9164 14.2501 19.3953M19.3953 14.2501C18.9609 14.0884 18.4907 14 18 14C15.7909 14 14 15.7909 14 18C14 18.4907 14.0884 18.9609 14.2501 19.3953" stroke="#1A1A1A" stroke-width="1.5" stroke-linejoin="round"/>
<path d="M20.5 15.5L15.5 20.5" stroke="#1A1A1A" stroke-width="1.5" stroke-linecap="round"/>
</svg>
