<svg width="24" height="24" viewBox="0 0 24 24" fill="none" xmlns="http://www.w3.org/2000/svg">
<rect width="24" height="24" fill="#A6A6A6"/>
<path d="M-980 -1072C-980 -1073.1 -979.105 -1074 -978 -1074H506C507.105 -1074 508 -1073.1 508 -1072V478C508 479.105 507.105 480 506 480H-978C-979.105 480 -980 479.105 -980 478V-1072Z" fill="white"/>
<path d="M-978 -1073H506V-1075H-978V-1073ZM507 -1072V478H509V-1072H507ZM506 479H-978V481H506V479ZM-979 478V-1072H-981V478H-979ZM-978 479C-978.552 479 -979 478.552 -979 478H-981C-981 479.657 -979.657 481 -978 481V479ZM507 478C507 478.552 506.552 479 506 479V481C507.657 481 509 479.657 509 478H507ZM506 -1073C506.552 -1073 507 -1072.55 507 -1072H509C509 -1073.66 507.657 -1075 506 -1075V-1073ZM-978 -1075C-979.657 -1075 -981 -1073.66 -981 -1072H-979C-979 -1072.55 -978.552 -1073 -978 -1073V-1075Z" fill="black" fill-opacity="0.1"/>
<path fill-rule="evenodd" clip-rule="evenodd" d="M12.5815 17.9185C12.5815 18.5781 12.6977 19.2107 12.9106 19.7968C12.2949 19.9299 11.6556 20 11 20C6.02944 20 2 15.9706 2 11C2 6.02944 6.02944 2 11 2C15.9706 2 20 6.02944 20 11C20 11.583 19.9446 12.153 19.8387 12.7051C19.2869 12.5192 18.696 12.4185 18.0815 12.4185C15.044 12.4185 12.5815 14.8809 12.5815 17.9185ZM11 13.75C9.54938 13.75 8.18828 14.1238 7.00546 14.7797C6.64321 14.9805 6.18671 14.8497 5.98584 14.4875C5.78496 14.1252 5.91578 13.6687 6.27802 13.4679C7.67773 12.6917 9.28842 12.25 11 12.25C11.3656 12.25 11.7268 12.2702 12.0824 12.3095C12.4941 12.355 12.791 12.7256 12.7455 13.1373C12.7 13.549 12.3293 13.8459 11.9176 13.8004C11.6166 13.7671 11.3104 13.75 11 13.75ZM11 5C12.6569 5 14 6.34315 14 8C14 9.65685 12.6569 11 11 11C9.34315 11 8 9.65685 8 8C8 6.34315 9.34315 5 11 5ZM18 14C18.8335 14 19.6075 14.255 20.2482 14.6911L14.6911 20.2482C14.255 19.6075 14 18.8335 14 18C14 15.7909 15.7909 14 18 14ZM15.7518 21.3089L21.3089 15.7518C21.7451 16.3925 22 17.1665 22 18C22 20.2091 20.2091 22 18 22C17.1665 22 16.3925 21.7451 15.7518 21.3089Z" fill="#1A1A1A"/>
</svg>
