<svg width="24" height="24" viewBox="0 0 24 24" fill="none" xmlns="http://www.w3.org/2000/svg">
<rect width="24" height="24" fill="#A6A6A6"/>
<path d="M-352 -38C-352 -39.1046 -351.105 -40 -350 -40H1134C1135.1 -40 1136 -39.1046 1136 -38V1512C1136 1513.1 1135.1 1514 1134 1514H-350C-351.105 1514 -352 1513.1 -352 1512V-38Z" fill="white"/>
<path d="M-350 -39H1134V-41H-350V-39ZM1135 -38V1512H1137V-38H1135ZM1134 1513H-350V1515H1134V1513ZM-351 1512V-38H-353V1512H-351ZM-350 1513C-350.552 1513 -351 1512.55 -351 1512H-353C-353 1513.66 -351.657 1515 -350 1515V1513ZM1135 1512C1135 1512.55 1134.55 1513 1134 1513V1515C1135.66 1515 1137 1513.66 1137 1512H1135ZM1134 -39C1134.55 -39 1135 -38.5523 1135 -38H1137C1137 -39.6569 1135.66 -41 1134 -41V-39ZM-350 -41C-351.657 -41 -353 -39.6569 -353 -38H-351C-351 -38.5523 -350.552 -39 -350 -39V-41Z" fill="black" fill-opacity="0.1"/>
<path d="M17 6.4998C18.1045 6.4998 19 7.39523 19 8.4998M12 5.70234L12.6851 4.99981C14.816 2.81452 18.2709 2.81452 20.4018 4.9998C22.4755 7.1264 22.5392 10.5536 20.5461 12.7597L14.8197 19.098C13.2984 20.7818 10.7015 20.7818 9.18026 19.098L3.45393 12.7598C1.46078 10.5536 1.5245 7.12643 3.5982 4.99982C5.72912 2.81453 9.18404 2.81453 11.315 4.99982L12 5.70234Z" stroke="#1A1A1A" stroke-width="1.5" stroke-linecap="round" stroke-linejoin="round"/>
</svg>
