<svg width="24" height="24" viewBox="0 0 24 24" fill="none" xmlns="http://www.w3.org/2000/svg">
<rect width="24" height="24" fill="#A6A6A6"/>
<path d="M-414 -38C-414 -39.1046 -413.105 -40 -412 -40H1072C1073.1 -40 1074 -39.1046 1074 -38V1512C1074 1513.1 1073.1 1514 1072 1514H-412C-413.105 1514 -414 1513.1 -414 1512V-38Z" fill="white"/>
<path d="M-412 -39H1072V-41H-412V-39ZM1073 -38V1512H1075V-38H1073ZM1072 1513H-412V1515H1072V1513ZM-413 1512V-38H-415V1512H-413ZM-412 1513C-412.552 1513 -413 1512.55 -413 1512H-415C-415 1513.66 -413.657 1515 -412 1515V1513ZM1073 1512C1073 1512.55 1072.55 1513 1072 1513V1515C1073.66 1515 1075 1513.66 1075 1512H1073ZM1072 -39C1072.55 -39 1073 -38.5523 1073 -38H1075C1075 -39.6569 1073.66 -41 1072 -41V-39ZM-412 -41C-413.657 -41 -415 -39.6569 -415 -38H-413C-413 -38.5523 -412.552 -39 -412 -39V-41Z" fill="black" fill-opacity="0.1"/>
<path fill-rule="evenodd" clip-rule="evenodd" d="M12 5.52422L12.765 4.70229C14.8777 2.43257 18.3029 2.43257 20.4155 4.70229C22.5282 6.972 22.5282 10.6519 20.4155 12.9217L13.5301 20.3191C12.685 21.227 11.3149 21.227 10.4699 20.3191L3.58447 12.9217C1.47184 10.6519 1.47184 6.972 3.58447 4.70229C5.69709 2.43257 9.12233 2.43257 11.235 4.70229L12 5.52422ZM17 5.25C16.5858 5.25 16.25 5.58579 16.25 6C16.25 6.41421 16.5858 6.75 17 6.75C17.6904 6.75 18.25 7.30964 18.25 8C18.25 8.41421 18.5858 8.75 19 8.75C19.4142 8.75 19.75 8.41421 19.75 8C19.75 6.48122 18.5188 5.25 17 5.25Z" fill="#1A1A1A"/>
</svg>
