<svg width="24" height="24" viewBox="0 0 24 24" fill="none" xmlns="http://www.w3.org/2000/svg">
<rect width="24" height="24" fill="#A6A6A6"/>
<path d="M-114 -181C-114 -182.105 -113.105 -183 -112 -183H1372C1373.1 -183 1374 -182.105 1374 -181V1369C1374 1370.1 1373.1 1371 1372 1371H-112C-113.105 1371 -114 1370.1 -114 1369V-181Z" fill="white"/>
<path d="M-112 -182H1372V-184H-112V-182ZM1373 -181V1369H1375V-181H1373ZM1372 1370H-112V1372H1372V1370ZM-113 1369V-181H-115V1369H-113ZM-112 1370C-112.552 1370 -113 1369.55 -113 1369H-115C-115 1370.66 -113.657 1372 -112 1372V1370ZM1373 1369C1373 1369.55 1372.55 1370 1372 1370V1372C1373.66 1372 1375 1370.66 1375 1369H1373ZM1372 -182C1372.55 -182 1373 -181.552 1373 -181H1375C1375 -182.657 1373.66 -184 1372 -184V-182ZM-112 -184C-113.657 -184 -115 -182.657 -115 -181H-113C-113 -181.552 -112.552 -182 -112 -182V-184Z" fill="black" fill-opacity="0.1"/>
<path d="M10.3741 2.7222L5.37624 4.94345C3.93062 5.58595 2.97663 7.02479 3.06862 8.60408C3.42825 14.7783 5.23629 17.4964 9.93442 20.6771C11.179 21.5197 12.8196 21.5218 14.0633 20.6778C18.7758 17.4798 20.5192 14.7233 20.9104 8.62547C21.0124 7.03574 20.0569 5.58162 18.6012 4.93464L13.6232 2.72219C12.5889 2.26252 11.4083 2.26252 10.3741 2.7222Z" stroke="#1A1A1A" stroke-width="1.5"/>
<path d="M14.9986 12.0002C14.9986 13.657 13.6555 15.0002 11.9986 15.0002C10.3418 15.0002 8.99861 13.657 8.99861 12.0002C8.99861 10.3433 10.3418 9.00017 11.9986 9.00017C13.6555 9.00017 14.9986 10.3433 14.9986 12.0002Z" stroke="#1A1A1A" stroke-width="1.5"/>
</svg>
