<svg width="24" height="24" viewBox="0 0 24 24" fill="none" xmlns="http://www.w3.org/2000/svg">
<rect width="24" height="24" fill="#A6A6A6"/>
<path d="M-806 -181C-806 -182.105 -805.105 -183 -804 -183H680C681.105 -183 682 -182.105 682 -181V1369C682 1370.1 681.105 1371 680 1371H-804C-805.105 1371 -806 1370.1 -806 1369V-181Z" fill="white"/>
<path d="M-804 -182H680V-184H-804V-182ZM681 -181V1369H683V-181H681ZM680 1370H-804V1372H680V1370ZM-805 1369V-181H-807V1369H-805ZM-804 1370C-804.552 1370 -805 1369.55 -805 1369H-807C-807 1370.66 -805.657 1372 -804 1372V1370ZM681 1369C681 1369.55 680.552 1370 680 1370V1372C681.657 1372 683 1370.66 683 1369H681ZM680 -182C680.552 -182 681 -181.552 681 -181H683C683 -182.657 681.657 -184 680 -184V-182ZM-804 -184C-805.657 -184 -807 -182.657 -807 -181H-805C-805 -181.552 -804.552 -182 -804 -182V-184Z" fill="black" fill-opacity="0.1"/>
<path fill-rule="evenodd" clip-rule="evenodd" d="M5.33248 4.71069L10.3708 2.36419C11.4134 1.8786 12.6036 1.8786 13.6462 2.36419L18.6646 4.70139C20.1321 5.38485 21.0953 6.92095 20.9925 8.60032C20.5981 15.0419 18.8406 17.9539 14.0899 21.3322C12.8361 22.2238 11.1823 22.2216 9.92759 21.3315C5.1914 17.9715 3.36871 15.1001 3.00617 8.57773C2.91343 6.90939 3.87515 5.38942 5.33248 4.71069ZM12 14C13.1046 14 14 13.1046 14 12C14 10.8954 13.1046 10 12 10C10.8954 10 10 10.8954 10 12C10 13.1046 10.8954 14 12 14Z" fill="#1A1A1A"/>
</svg>
