<svg width="24" height="24" viewBox="0 0 24 24" fill="none" xmlns="http://www.w3.org/2000/svg">
<rect width="24" height="24" fill="#A6A6A6"/>
<path d="M-288 -901C-288 -902.105 -287.105 -903 -286 -903H1198C1199.1 -903 1200 -902.105 1200 -901V649C1200 650.105 1199.1 651 1198 651H-286C-287.105 651 -288 650.105 -288 649V-901Z" fill="white"/>
<path d="M-286 -902H1198V-904H-286V-902ZM1199 -901V649H1201V-901H1199ZM1198 650H-286V652H1198V650ZM-287 649V-901H-289V649H-287ZM-286 650C-286.552 650 -287 649.552 -287 649H-289C-289 650.657 -287.657 652 -286 652V650ZM1199 649C1199 649.552 1198.55 650 1198 650V652C1199.66 652 1201 650.657 1201 649H1199ZM1198 -902C1198.55 -902 1199 -901.552 1199 -901H1201C1201 -902.657 1199.66 -904 1198 -904V-902ZM-286 -904C-287.657 -904 -289 -902.657 -289 -901H-287C-287 -901.552 -286.552 -902 -286 -902V-904Z" fill="black" fill-opacity="0.1"/>
<path d="M19 11V12C19 15.866 15.866 19 12 19M5 11V12C5 15.866 8.13401 19 12 19M12 19V22M12 22H15M12 22H9M12 16C9.79086 16 8 14.2091 8 12V6C8 3.79086 9.79086 2 12 2C14.2091 2 16 3.79086 16 6V12C16 14.2091 14.2091 16 12 16Z" stroke="#1A1A1A" stroke-width="1.5" stroke-linecap="round" stroke-linejoin="round"/>
</svg>
