<svg width="24" height="24" viewBox="0 0 24 24" fill="none" xmlns="http://www.w3.org/2000/svg">
<rect width="24" height="24" fill="#A6A6A6"/>
<path d="M-980 -901C-980 -902.105 -979.105 -903 -978 -903H506C507.105 -903 508 -902.105 508 -901V649C508 650.105 507.105 651 506 651H-978C-979.105 651 -980 650.105 -980 649V-901Z" fill="white"/>
<path d="M-978 -902H506V-904H-978V-902ZM507 -901V649H509V-901H507ZM506 650H-978V652H506V650ZM-979 649V-901H-981V649H-979ZM-978 650C-978.552 650 -979 649.552 -979 649H-981C-981 650.657 -979.657 652 -978 652V650ZM507 649C507 649.552 506.552 650 506 650V652C507.657 652 509 650.657 509 649H507ZM506 -902C506.552 -902 507 -901.552 507 -901H509C509 -902.657 507.657 -904 506 -904V-902ZM-978 -904C-979.657 -904 -981 -902.657 -981 -901H-979C-979 -901.552 -978.552 -902 -978 -902V-904Z" fill="black" fill-opacity="0.1"/>
<path fill-rule="evenodd" clip-rule="evenodd" d="M12 2C9.79086 2 8 3.79086 8 6V12C8 14.2091 9.79086 16 12 16C14.2091 16 16 14.2091 16 12V6C16 3.79086 14.2091 2 12 2ZM6 10.25C6.41421 10.25 6.75 10.5858 6.75 11V12C6.75 14.8995 9.10051 17.25 12 17.25C14.8995 17.25 17.25 14.8995 17.25 12V11C17.25 10.5858 17.5858 10.25 18 10.25C18.4142 10.25 18.75 10.5858 18.75 11V12C18.75 15.4744 16.125 18.3357 12.75 18.7088V20.5H15C15.4142 20.5 15.75 20.8358 15.75 21.25C15.75 21.6642 15.4142 22 15 22H9C8.58579 22 8.25 21.6642 8.25 21.25C8.25 20.8358 8.58579 20.5 9 20.5H11.25V18.7088C7.87504 18.3357 5.25 15.4744 5.25 12V11C5.25 10.5858 5.58579 10.25 6 10.25Z" fill="#1A1A1A"/>
</svg>
