<svg width="24" height="24" viewBox="0 0 24 24" fill="none" xmlns="http://www.w3.org/2000/svg">
<rect width="24" height="24" fill="#A6A6A6"/>
<path d="M-578 -277C-578 -278.105 -577.105 -279 -576 -279H908C909.105 -279 910 -278.105 910 -277V1273C910 1274.1 909.105 1275 908 1275H-576C-577.105 1275 -578 1274.1 -578 1273V-277Z" fill="white"/>
<path d="M-576 -278H908V-280H-576V-278ZM909 -277V1273H911V-277H909ZM908 1274H-576V1276H908V1274ZM-577 1273V-277H-579V1273H-577ZM-576 1274C-576.552 1274 -577 1273.55 -577 1273H-579C-579 1274.66 -577.657 1276 -576 1276V1274ZM909 1273C909 1273.55 908.552 1274 908 1274V1276C909.657 1276 911 1274.66 911 1273H909ZM908 -278C908.552 -278 909 -277.552 909 -277H911C911 -278.657 909.657 -280 908 -280V-278ZM-576 -280C-577.657 -280 -579 -278.657 -579 -277H-577C-577 -277.552 -576.552 -278 -576 -278V-280Z" fill="black" fill-opacity="0.1"/>
<path d="M18 11.9V18C18 20.2091 16.2091 22 14 22H6C3.79086 22 2 20.2091 2 18V10C2 7.79086 3.79086 6 6 6H12.1M18 11.9C20.2822 11.4367 22 9.41896 22 7C22 4.23858 19.7614 2 17 2C14.581 2 12.5633 3.71776 12.1 6M18 11.9C17.6769 11.9656 17.3425 12 17 12C14.2386 12 12 9.76142 12 7C12 6.65753 12.0344 6.32311 12.1 6" stroke="#1A1A1A" stroke-width="1.5" stroke-linejoin="round"/>
</svg>
