<svg width="24" height="24" viewBox="0 0 24 24" fill="none" xmlns="http://www.w3.org/2000/svg">
<rect width="24" height="24" fill="#A6A6A6"/>
<path d="M-1270 -277C-1270 -278.105 -1269.1 -279 -1268 -279H216C217.105 -279 218 -278.105 218 -277V1273C218 1274.1 217.105 1275 216 1275H-1268C-1269.1 1275 -1270 1274.1 -1270 1273V-277Z" fill="white"/>
<path d="M-1268 -278H216V-280H-1268V-278ZM217 -277V1273H219V-277H217ZM216 1274H-1268V1276H216V1274ZM-1269 1273V-277H-1271V1273H-1269ZM-1268 1274C-1268.55 1274 -1269 1273.55 -1269 1273H-1271C-1271 1274.66 -1269.66 1276 -1268 1276V1274ZM217 1273C217 1273.55 216.552 1274 216 1274V1276C217.657 1276 219 1274.66 219 1273H217ZM216 -278C216.552 -278 217 -277.552 217 -277H219C219 -278.657 217.657 -280 216 -280V-278ZM-1268 -280C-1269.66 -280 -1271 -278.657 -1271 -277H-1269C-1269 -277.552 -1268.55 -278 -1268 -278V-280Z" fill="black" fill-opacity="0.1"/>
<path fill-rule="evenodd" clip-rule="evenodd" d="M18 11.9C20.2822 11.4367 22 9.41896 22 7C22 4.23858 19.7614 2 17 2C14.581 2 12.5633 3.71776 12.1 6C12.0344 6.32311 12 6.65753 12 7C12 9.76142 14.2386 12 17 12C17.3425 12 17.6769 11.9656 18 11.9ZM6 6H10.5764C10.5261 6.32597 10.5 6.65994 10.5 7C10.5 10.5899 13.4101 13.5 17 13.5C17.3401 13.5 17.674 13.4739 18 13.4236V18C18 20.2091 16.2091 22 14 22H6C3.79086 22 2 20.2091 2 18V10C2 7.79086 3.79086 6 6 6Z" fill="#1A1A1A"/>
</svg>
