<svg width="18" height="18" viewBox="0 0 18 18" fill="none" xmlns="http://www.w3.org/2000/svg">
<path id="&#244;&#128;&#138;&#171;" d="M0 7.28028C0 6.27674 0.190379 5.33705 0.571136 4.46123C0.951894 3.57932 1.48004 2.80385 2.15558 2.13482C2.83112 1.46579 3.61105 0.942727 4.49539 0.565636C5.38588 0.188545 6.33777 0 7.35107 0C8.36438 0 9.3132 0.188545 10.1975 0.565636C11.088 0.942727 11.871 1.46579 12.5466 2.13482C13.2221 2.80385 13.7503 3.57932 14.131 4.46123C14.5118 5.33705 14.7021 6.27674 14.7021 7.28028C14.7021 8.11353 14.567 8.90421 14.2968 9.65231C14.0328 10.4004 13.6643 11.0786 13.1914 11.6868L17.696 16.1754C17.7943 16.2727 17.868 16.3852 17.9171 16.5129C17.9724 16.6406 18 16.7775 18 16.9235C18 17.1242 17.9539 17.3066 17.8618 17.4709C17.7758 17.6351 17.653 17.7628 17.4933 17.854C17.3337 17.9513 17.1494 18 16.9406 18C16.7932 18 16.652 17.9726 16.5169 17.9179C16.3879 17.8692 16.2682 17.7932 16.1576 17.6898L11.6254 13.1921C11.0235 13.6178 10.3603 13.9524 9.63562 14.1956C8.91095 14.4389 8.14944 14.5606 7.35107 14.5606C6.33777 14.5606 5.38588 14.372 4.49539 13.9949C3.61105 13.6178 2.83112 13.0948 2.15558 12.4257C1.48004 11.7567 0.951894 10.9843 0.571136 10.1085C0.190379 9.22656 0 8.28383 0 7.28028ZM1.57523 7.28028C1.57523 8.07096 1.72262 8.81298 2.0174 9.50634C2.31832 10.1936 2.73286 10.7988 3.261 11.3218C3.79529 11.8449 4.40942 12.2554 5.10338 12.5535C5.80348 12.8515 6.55271 13.0005 7.35107 13.0005C8.14944 13.0005 8.8956 12.8515 9.58956 12.5535C10.2897 12.2554 10.9038 11.8449 11.4319 11.3218C11.9601 10.7988 12.3746 10.1936 12.6755 9.50634C12.9765 8.81298 13.1269 8.07096 13.1269 7.28028C13.1269 6.48961 12.9765 5.75063 12.6755 5.06336C12.3746 4.37 11.9601 3.76178 11.4319 3.23872C10.9038 2.70958 10.2897 2.29904 9.58956 2.0071C8.8956 1.70907 8.14944 1.56006 7.35107 1.56006C6.55271 1.56006 5.80348 1.70907 5.10338 2.0071C4.40942 2.29904 3.79529 2.70958 3.261 3.23872C2.73286 3.76178 2.31832 4.37 2.0174 5.06336C1.72262 5.75063 1.57523 6.48961 1.57523 7.28028Z" fill="#666666"/>
</svg>
