<svg width="16" height="16" viewBox="0 0 16 16" fill="none" xmlns="http://www.w3.org/2000/svg">
<g id="Icon_Component">
<g id="Vector">
<path d="M14.0865 6.5689C14.8596 7.38228 14.8596 8.61805 14.0865 9.43143C12.7827 10.8033 10.5434 12.6668 7.99967 12.6668C5.456 12.6668 3.21667 10.8033 1.91281 9.43143C1.13974 8.61805 1.13974 7.38228 1.91281 6.5689C3.21667 5.19705 5.456 3.3335 7.99967 3.3335C10.5434 3.3335 12.7827 5.19705 14.0865 6.5689Z" stroke="#B3B3B3" stroke-width="1.5"/>
<path d="M9.99967 8.00016C9.99967 9.10473 9.10424 10.0002 7.99967 10.0002C6.89511 10.0002 5.99967 9.10473 5.99967 8.00016C5.99967 6.89559 6.89511 6.00016 7.99967 6.00016C9.10424 6.00016 9.99967 6.89559 9.99967 8.00016Z" stroke="#B3B3B3" stroke-width="1.5"/>
</g>
</g>
</svg>
