<svg width="current" height="current" viewBox="0 0 40 40" fill="none" xmlns="http://www.w3.org/2000/svg">
<g id="Icon_Component">
<path id="Subtract" fill="current" stroke="current" stroke-width="3" fill-rule="evenodd" clip-rule="evenodd" d="M20.4997 9.20704L21.7747 7.83715C25.2958 4.05429 31.0045 4.05429 34.5256 7.83715C38.0466 11.62 38.0466 17.7532 34.5256 21.5361L23.0498 33.8651C21.6414 35.3783 19.3579 35.3783 17.9495 33.8651L6.47379 21.5361C2.95275 17.7532 2.95275 11.62 6.47379 7.83714C9.99483 4.05428 15.7036 4.05429 19.2246 7.83715L20.4997 9.20704ZM28.833 8.75C28.1427 8.75 27.583 9.30964 27.583 10C27.583 10.6904 28.1427 11.25 28.833 11.25C29.9836 11.25 30.9163 12.1827 30.9163 13.3333C30.9163 14.0237 31.476 14.5833 32.1663 14.5833C32.8567 14.5833 33.4163 14.0237 33.4163 13.3333C33.4163 10.802 31.3643 8.75 28.833 8.75Z" />
</g>
</svg>
