<svg width="16" height="16" viewBox="0 0 16 16" fill="none" xmlns="http://www.w3.org/2000/svg">
<g id="Icon/message/outline">
<path id="&#244;&#128;&#140;&#178;"  fill="current" d="M4.46461 16C4.21295 16 4.01694 15.9154 3.87659 15.7463C3.74108 15.5819 3.67332 15.3596 3.67332 15.0793V13.1943H3.32486C2.60375 13.1943 1.99637 13.0662 1.50272 12.8101C1.00907 12.5491 0.633999 12.1721 0.377495 11.6791C0.125832 11.1861 0 10.5843 0 9.87385V4.32044C0 3.60996 0.125832 3.00822 0.377495 2.51522C0.633999 2.02223 1.00907 1.64766 1.50272 1.39149C1.99637 1.1305 2.60375 1 3.32486 1H12.6751C13.3962 1 14.0036 1.1305 14.4973 1.39149C14.9909 1.64766 15.3636 2.02223 15.6152 2.51522C15.8717 3.00822 16 3.60996 16 4.32044V9.87385C16 10.5843 15.8717 11.1861 15.6152 11.6791C15.3636 12.1721 14.9909 12.5491 14.4973 12.8101C14.0036 13.0662 13.3962 13.1943 12.6751 13.1943H8.01452L5.50998 15.42C5.2922 15.6133 5.10829 15.7583 4.95826 15.855C4.80823 15.9517 4.64368 16 4.46461 16ZM4.76225 14.6733L7.0853 12.3678C7.22081 12.2276 7.35148 12.1358 7.47731 12.0923C7.60315 12.0488 7.7677 12.0271 7.97096 12.0271H12.6751C13.4059 12.0271 13.948 11.8458 14.3013 11.4833C14.6546 11.116 14.8312 10.5771 14.8312 9.8666V4.32044C14.8312 3.61479 14.6546 3.08072 14.3013 2.71822C13.948 2.35089 13.4059 2.16723 12.6751 2.16723H3.32486C2.58923 2.16723 2.04477 2.35089 1.69147 2.71822C1.34301 3.08072 1.16878 3.61479 1.16878 4.32044V9.8666C1.16878 10.5771 1.34301 11.116 1.69147 11.4833C2.04477 11.8458 2.58923 12.0271 3.32486 12.0271H4.21779C4.41621 12.0271 4.55656 12.0681 4.63884 12.1503C4.72111 12.2325 4.76225 12.3726 4.76225 12.5708V14.6733ZM4.26134 5.09618C4.14035 5.09618 4.03872 5.0551 3.95644 4.97293C3.87901 4.89077 3.84029 4.79169 3.84029 4.67569C3.84029 4.55969 3.87901 4.46303 3.95644 4.38569C4.03872 4.30353 4.14035 4.26245 4.26134 4.26245H11.6443C11.7653 4.26245 11.8645 4.30353 11.9419 4.38569C12.0242 4.46303 12.0653 4.55969 12.0653 4.67569C12.0653 4.79169 12.0242 4.89077 11.9419 4.97293C11.8645 5.0551 11.7653 5.09618 11.6443 5.09618H4.26134ZM4.26134 7.45239C4.14035 7.45239 4.03872 7.41373 3.95644 7.33639C3.87901 7.25423 3.84029 7.15273 3.84029 7.0319C3.84029 6.92073 3.87901 6.82407 3.95644 6.7419C4.03872 6.65491 4.14035 6.61141 4.26134 6.61141H11.6443C11.7653 6.61141 11.8645 6.65491 11.9419 6.7419C12.0242 6.82407 12.0653 6.92073 12.0653 7.0319C12.0653 7.15273 12.0242 7.25423 11.9419 7.33639C11.8645 7.41373 11.7653 7.45239 11.6443 7.45239H4.26134ZM4.26134 9.81585C4.14035 9.81585 4.03872 9.77719 3.95644 9.69985C3.87901 9.61769 3.84029 9.51861 3.84029 9.40261C3.84029 9.28178 3.87901 9.18028 3.95644 9.09811C4.03872 9.01595 4.14035 8.97487 4.26134 8.97487H9.05989C9.17604 8.97487 9.27526 9.01595 9.35753 9.09811C9.43981 9.18028 9.48094 9.28178 9.48094 9.40261C9.48094 9.51861 9.43981 9.61769 9.35753 9.69985C9.27526 9.77719 9.17604 9.81585 9.05989 9.81585H4.26134Z"/>
</g>
</svg>
