<svg width="20" height="20" viewBox="0 0 20 20" fill="none" xmlns="http://www.w3.org/2000/svg">
<g id="icon" clip-path="url(#clip0_2031_6848)">
<path id="&#244;&#128;&#138;&#171;" d="M0 8.0892C0 6.97415 0.211532 5.93006 0.634596 4.95692C1.05766 3.97702 1.64449 3.11539 2.39509 2.37202C3.14568 1.62865 4.01228 1.04747 4.99488 0.628485C5.98431 0.209495 7.04197 0 8.16786 0C9.29376 0 10.348 0.209495 11.3306 0.628485C12.32 1.04747 13.19 1.62865 13.9406 2.37202C14.6912 3.11539 15.2781 3.97702 15.7011 4.95692C16.1242 5.93006 16.3357 6.97415 16.3357 8.0892C16.3357 9.01504 16.1856 9.89356 15.8854 10.7248C15.5919 11.556 15.1825 12.3095 14.6571 12.9853L19.6622 17.9726C19.7714 18.0808 19.8533 18.2058 19.9079 18.3477C19.9693 18.4896 20 18.6417 20 18.8039C20 19.0269 19.9488 19.2296 19.8465 19.4121C19.7509 19.5945 19.6145 19.7364 19.4371 19.8378C19.2596 19.9459 19.0549 20 18.8229 20C18.6592 20 18.5022 19.9696 18.3521 19.9088C18.2088 19.8547 18.0757 19.7702 17.9529 19.6553L12.9171 14.6579C12.2484 15.1309 11.5114 15.5026 10.7062 15.7729C9.90106 16.0433 9.05493 16.1784 8.16786 16.1784C7.04197 16.1784 5.98431 15.9689 4.99488 15.5499C4.01228 15.1309 3.14568 14.5498 2.39509 13.8064C1.64449 13.063 1.05766 12.2048 0.634596 11.2316C0.211532 10.2517 0 9.20426 0 8.0892ZM1.75026 8.0892C1.75026 8.96773 1.91402 9.79219 2.24156 10.5626C2.57591 11.3262 3.03651 11.9986 3.62334 12.5798C4.21699 13.161 4.89935 13.6172 5.67042 13.9483C6.44831 14.2794 7.28079 14.445 8.16786 14.445C9.05493 14.445 9.884 14.2794 10.6551 13.9483C11.433 13.6172 12.1153 13.161 12.7021 12.5798C13.289 11.9986 13.7496 11.3262 14.0839 10.5626C14.4183 9.79219 14.5855 8.96773 14.5855 8.0892C14.5855 7.21068 14.4183 6.38959 14.0839 5.62595C13.7496 4.85555 13.289 4.17976 12.7021 3.59858C12.1153 3.01064 11.433 2.55449 10.6551 2.23011C9.884 1.89897 9.05493 1.7334 8.16786 1.7334C7.28079 1.7334 6.44831 1.89897 5.67042 2.23011C4.89935 2.55449 4.21699 3.01064 3.62334 3.59858C3.03651 4.17976 2.57591 4.85555 2.24156 5.62595C1.91402 6.38959 1.75026 7.21068 1.75026 8.0892Z" fill="#4C8BFF"/>
</g>
<defs>
<clipPath id="clip0_2031_6848">
<rect width="20" height="20" fill="none"/>
</clipPath>
</defs>
</svg>
