<svg width="24" height="24" viewBox="0 0 24 24" fill="none" xmlns="http://www.w3.org/2000/svg">
<rect width="24" height="24" fill="#A6A6A6"/>
<path d="M-462 -901C-462 -902.105 -461.105 -903 -460 -903H1024C1025.1 -903 1026 -902.105 1026 -901V649C1026 650.105 1025.1 651 1024 651H-460C-461.105 651 -462 650.105 -462 649V-901Z" fill="white"/>
<path d="M-460 -902H1024V-904H-460V-902ZM1025 -901V649H1027V-901H1025ZM1024 650H-460V652H1024V650ZM-461 649V-901H-463V649H-461ZM-460 650C-460.552 650 -461 649.552 -461 649H-463C-463 650.657 -461.657 652 -460 652V650ZM1025 649C1025 649.552 1024.55 650 1024 650V652C1025.66 652 1027 650.657 1027 649H1025ZM1024 -902C1024.55 -902 1025 -901.552 1025 -901H1027C1027 -902.657 1025.66 -904 1024 -904V-902ZM-460 -904C-461.657 -904 -463 -902.657 -463 -901H-461C-461 -901.552 -460.552 -902 -460 -902V-904Z" fill="black" fill-opacity="0.1"/>
<path d="M20 11H4M20 11C21.1046 11 22 11.8954 22 13V17C22 19.2091 20.2091 21 18 21H6C3.79086 21 2 19.2091 2 17V13C2 11.8954 2.89543 11 4 11M20 11V9C20 7.89543 19.1046 7 18 7M4 11V9C4 7.89543 4.89543 7 6 7M18 7H6M18 7V5C18 3.89543 17.1046 3 16 3H8C6.89543 3 6 3.89543 6 5V7M10 14H14" stroke="#1A1A1A" stroke-width="1.5" stroke-linecap="round"/>
</svg>
