<svg width="24" height="24" viewBox="0 0 24 24" fill="none" xmlns="http://www.w3.org/2000/svg">
<rect width="24" height="24" fill="#A6A6A6"/>
<path d="M-1154 -901C-1154 -902.105 -1153.1 -903 -1152 -903H332C333.105 -903 334 -902.105 334 -901V649C334 650.105 333.105 651 332 651H-1152C-1153.1 651 -1154 650.105 -1154 649V-901Z" fill="white"/>
<path d="M-1152 -902H332V-904H-1152V-902ZM333 -901V649H335V-901H333ZM332 650H-1152V652H332V650ZM-1153 649V-901H-1155V649H-1153ZM-1152 650C-1152.55 650 -1153 649.552 -1153 649H-1155C-1155 650.657 -1153.66 652 -1152 652V650ZM333 649C333 649.552 332.552 650 332 650V652C333.657 652 335 650.657 335 649H333ZM332 -902C332.552 -902 333 -901.552 333 -901H335C335 -902.657 333.657 -904 332 -904V-902ZM-1152 -904C-1153.66 -904 -1155 -902.657 -1155 -901H-1153C-1153 -901.552 -1152.55 -902 -1152 -902V-904Z" fill="black" fill-opacity="0.1"/>
<path fill-rule="evenodd" clip-rule="evenodd" d="M6 5C6 3.89543 6.89543 3 8 3H16C17.1046 3 18 3.89543 18 5V6H6V5ZM4 9.5C4 8.39543 4.89543 7.5 6 7.5H18C19.1046 7.5 20 8.39543 20 9.5V10.5H4V9.5ZM2 14C2 12.8954 2.89543 12 4 12H20C21.1046 12 22 12.8954 22 14V17C22 19.2091 20.2091 21 18 21H6C3.79086 21 2 19.2091 2 17V14ZM9.25 15C9.25 14.5858 9.58579 14.25 10 14.25H14C14.4142 14.25 14.75 14.5858 14.75 15C14.75 15.4142 14.4142 15.75 14 15.75H10C9.58579 15.75 9.25 15.4142 9.25 15Z" fill="#1A1A1A"/>
</svg>
