<svg width="20" height="20" viewBox="0 0 20 20" fill="none" xmlns="http://www.w3.org/2000/svg">
<rect width="20" height="20" fill="#A6A6A6"/>
<path d="M-638 -905C-638 -906.105 -637.105 -907 -636 -907H848C849.105 -907 850 -906.105 850 -905V645C850 646.105 849.105 647 848 647H-636C-637.105 647 -638 646.105 -638 645V-905Z" fill="white"/>
<path d="M-636 -906H848V-908H-636V-906ZM849 -905V645H851V-905H849ZM848 646H-636V648H848V646ZM-637 645V-905H-639V645H-637ZM-636 646C-636.552 646 -637 645.552 -637 645H-639C-639 646.657 -637.657 648 -636 648V646ZM849 645C849 645.552 848.552 646 848 646V648C849.657 648 851 646.657 851 645H849ZM848 -906C848.552 -906 849 -905.552 849 -905H851C851 -906.657 849.657 -908 848 -908V-906ZM-636 -908C-637.657 -908 -639 -906.657 -639 -905H-637C-637 -905.552 -636.552 -906 -636 -906V-908Z" fill="black" fill-opacity="0.1"/>
<path d="M3.17953 19.9394C2.80861 19.9394 2.51929 19.8402 2.31157 19.6419C2.10386 19.4436 2 19.1647 2 18.8053V2.66788C2 1.78168 2.26335 1.11549 2.79006 0.669294C3.31677 0.223098 4.10312 0 5.14911 0H13.8509C14.8969 0 15.6832 0.223098 16.2099 0.669294C16.7366 1.11549 17 1.78168 17 2.66788V18.8053C17 19.1647 16.8961 19.4436 16.6884 19.6419C16.4807 19.8402 16.1914 19.9394 15.8205 19.9394C15.546 19.9394 15.2901 19.8619 15.0527 19.707C14.8227 19.5521 14.4555 19.2732 13.951 18.8704L9.60015 15.2915C9.53338 15.2295 9.46662 15.2295 9.39985 15.2915L5.04896 18.8704C4.54451 19.2794 4.17359 19.5583 3.9362 19.707C3.69881 19.8619 3.44659 19.9394 3.17953 19.9394ZM4.09199 17.4295L8.91024 13.5253C9.08828 13.3828 9.28487 13.3115 9.5 13.3115C9.71513 13.3115 9.91172 13.3828 10.0898 13.5253L14.908 17.4295C14.9896 17.4915 15.0638 17.5132 15.1306 17.4946C15.2047 17.4822 15.2418 17.4295 15.2418 17.3366V2.68647C15.2418 2.28365 15.1157 1.97999 14.8635 1.77549C14.6187 1.57098 14.2552 1.46873 13.773 1.46873H5.23813C4.74852 1.46873 4.3776 1.57098 4.12537 1.77549C3.88056 1.97999 3.75816 2.28365 3.75816 2.68647V17.3366C3.75816 17.4295 3.79154 17.4822 3.85831 17.4946C3.93249 17.5132 4.01039 17.4915 4.09199 17.4295Z" fill="#1A1A1A"/>
</svg>
