<svg width="24" height="24" viewBox="0 0 24 24" fill="none" xmlns="http://www.w3.org/2000/svg">
<rect width="24" height="24" fill="#A6A6A6"/>
<path d="M-980 -277C-980 -278.105 -979.105 -279 -978 -279H506C507.105 -279 508 -278.105 508 -277V1273C508 1274.1 507.105 1275 506 1275H-978C-979.105 1275 -980 1274.1 -980 1273V-277Z" fill="white"/>
<path d="M-978 -278H506V-280H-978V-278ZM507 -277V1273H509V-277H507ZM506 1274H-978V1276H506V1274ZM-979 1273V-277H-981V1273H-979ZM-978 1274C-978.552 1274 -979 1273.55 -979 1273H-981C-981 1274.66 -979.657 1276 -978 1276V1274ZM507 1273C507 1273.55 506.552 1274 506 1274V1276C507.657 1276 509 1274.66 509 1273H507ZM506 -278C506.552 -278 507 -277.552 507 -277H509C509 -278.657 507.657 -280 506 -280V-278ZM-978 -280C-979.657 -280 -981 -278.657 -981 -277H-979C-979 -277.552 -978.552 -278 -978 -278V-280Z" fill="black" fill-opacity="0.1"/>
<path fill-rule="evenodd" clip-rule="evenodd" d="M4 7.75V18C4 19.6481 5.88153 20.5889 7.2 19.6L10.8 16.9C11.5111 16.3667 12.4889 16.3667 13.2 16.9L16.8 19.6C18.1185 20.5889 20 19.6481 20 18V7.75H4ZM4 6.25H20V4C20 2.89543 19.1046 2 18 2H6C4.89543 2 4 2.89543 4 4V6.25Z" fill="#1A1A1A"/>
</svg>
