<svg width="24" height="24" viewBox="0 0 24 24" fill="none" xmlns="http://www.w3.org/2000/svg">
<rect width="24" height="24" fill="#A6A6A6"/>
<path d="M-520 -469C-520 -470.105 -519.105 -471 -518 -471H966C967.105 -471 968 -470.105 968 -469V1081C968 1082.1 967.105 1083 966 1083H-518C-519.105 1083 -520 1082.1 -520 1081V-469Z" fill="white"/>
<path d="M-518 -470H966V-472H-518V-470ZM967 -469V1081H969V-469H967ZM966 1082H-518V1084H966V1082ZM-519 1081V-469H-521V1081H-519ZM-518 1082C-518.552 1082 -519 1081.55 -519 1081H-521C-521 1082.66 -519.657 1084 -518 1084V1082ZM967 1081C967 1081.55 966.552 1082 966 1082V1084C967.657 1084 969 1082.66 969 1081H967ZM966 -470C966.552 -470 967 -469.552 967 -469H969C969 -470.657 967.657 -472 966 -472V-470ZM-518 -472C-519.657 -472 -521 -470.657 -521 -469H-519C-519 -469.552 -518.552 -470 -518 -470V-472Z" fill="black" fill-opacity="0.1"/>
<path d="M8 14L9.08225 12.1963C9.72077 11.132 11.2247 11.0309 12 12C12.7753 12.9691 14.2792 12.8679 14.9178 11.8037L16 10M12 18V22M4 6H20C21.1046 6 22 5.10457 22 4C22 2.89543 21.1046 2 20 2H4C2.89543 2 2 2.89543 2 4C2 5.10457 2.89543 6 4 6ZM3 6H21V16C21 17.1046 20.1046 18 19 18H5C3.89543 18 3 17.1046 3 16V6Z" stroke="#1A1A1A" stroke-width="1.5" stroke-linecap="round" stroke-linejoin="round"/>
</svg>
