<svg width="24" height="24" viewBox="0 0 24 24" fill="none" xmlns="http://www.w3.org/2000/svg">
<rect width="24" height="24" fill="#A6A6A6"/>
<path d="M-1212 -469C-1212 -470.105 -1211.1 -471 -1210 -471H274C275.105 -471 276 -470.105 276 -469V1081C276 1082.1 275.105 1083 274 1083H-1210C-1211.1 1083 -1212 1082.1 -1212 1081V-469Z" fill="white"/>
<path d="M-1210 -470H274V-472H-1210V-470ZM275 -469V1081H277V-469H275ZM274 1082H-1210V1084H274V1082ZM-1211 1081V-469H-1213V1081H-1211ZM-1210 1082C-1210.55 1082 -1211 1081.55 -1211 1081H-1213C-1213 1082.66 -1211.66 1084 -1210 1084V1082ZM275 1081C275 1081.55 274.552 1082 274 1082V1084C275.657 1084 277 1082.66 277 1081H275ZM274 -470C274.552 -470 275 -469.552 275 -469H277C277 -470.657 275.657 -472 274 -472V-470ZM-1210 -472C-1211.66 -472 -1213 -470.657 -1213 -469H-1211C-1211 -469.552 -1210.55 -470 -1210 -470V-472Z" fill="black" fill-opacity="0.1"/>
<path fill-rule="evenodd" clip-rule="evenodd" d="M3.5 2C2.67157 2 2 2.67157 2 3.5C2 4.32843 2.67157 5 3.5 5H20.5C21.3284 5 22 4.32843 22 3.5C22 2.67157 21.3284 2 20.5 2H3.5ZM21 6.5H3V16C3 17.1046 3.89543 18 5 18H11.25V22C11.25 22.4142 11.5858 22.75 12 22.75C12.4142 22.75 12.75 22.4142 12.75 22V18H19C20.1046 18 21 17.1046 21 16V6.5ZM16.6431 10.386C16.8562 10.0308 16.741 9.5701 16.3859 9.35699C16.0307 9.14388 15.57 9.25906 15.3569 9.61424L14.2746 11.418C13.905 12.034 13.0344 12.0926 12.5856 11.5316C11.4839 10.1544 9.34655 10.2981 8.43912 11.8105L7.35687 13.6142C7.14376 13.9694 7.25893 14.4301 7.61412 14.6432C7.9693 14.8563 8.43 14.7412 8.64311 14.386L9.72536 12.5822C10.095 11.9662 10.9656 11.9077 11.4143 12.4686C12.5161 13.8459 14.6534 13.7021 15.5609 12.1897L16.6431 10.386Z" fill="#1A1A1A"/>
</svg>
