<svg width="24" height="24" viewBox="0 0 24 24" fill="none" xmlns="http://www.w3.org/2000/svg">
<rect width="24" height="24" fill="#A6A6A6"/>
<path d="M-346 -1208C-346 -1209.1 -345.105 -1210 -344 -1210H1140C1141.1 -1210 1142 -1209.1 1142 -1208V342C1142 343.105 1141.1 344 1140 344H-344C-345.105 344 -346 343.105 -346 342V-1208Z" fill="white"/>
<path d="M-344 -1209H1140V-1211H-344V-1209ZM1141 -1208V342H1143V-1208H1141ZM1140 343H-344V345H1140V343ZM-345 342V-1208H-347V342H-345ZM-344 343C-344.552 343 -345 342.552 -345 342H-347C-347 343.657 -345.657 345 -344 345V343ZM1141 342C1141 342.552 1140.55 343 1140 343V345C1141.66 345 1143 343.657 1143 342H1141ZM1140 -1209C1140.55 -1209 1141 -1208.55 1141 -1208H1143C1143 -1209.66 1141.66 -1211 1140 -1211V-1209ZM-344 -1211C-345.657 -1211 -347 -1209.66 -347 -1208H-345C-345 -1208.55 -344.552 -1209 -344 -1209V-1211Z" fill="black" fill-opacity="0.1"/>
<path d="M12 13H18" stroke="#1A1A1A" stroke-width="1.5" stroke-linecap="round"/>
<path d="M4 18L6 20M6 20L8 18M6 20L6 4" stroke="#1A1A1A" stroke-width="1.5" stroke-linecap="round" stroke-linejoin="round"/>
<path d="M10 17L15 5L20 17" stroke="#1A1A1A" stroke-width="1.5" stroke-linecap="round" stroke-linejoin="round"/>
</svg>
