<svg width="24" height="24" viewBox="0 0 24 24" fill="none" xmlns="http://www.w3.org/2000/svg">
<rect width="24" height="24" fill="#A6A6A6"/>
<path d="M-1038 -1208C-1038 -1209.1 -1037.1 -1210 -1036 -1210H448C449.105 -1210 450 -1209.1 450 -1208V342C450 343.105 449.105 344 448 344H-1036C-1037.1 344 -1038 343.105 -1038 342V-1208Z" fill="white"/>
<path d="M-1036 -1209H448V-1211H-1036V-1209ZM449 -1208V342H451V-1208H449ZM448 343H-1036V345H448V343ZM-1037 342V-1208H-1039V342H-1037ZM-1036 343C-1036.55 343 -1037 342.552 -1037 342H-1039C-1039 343.657 -1037.66 345 -1036 345V343ZM449 342C449 342.552 448.552 343 448 343V345C449.657 345 451 343.657 451 342H449ZM448 -1209C448.552 -1209 449 -1208.55 449 -1208H451C451 -1209.66 449.657 -1211 448 -1211V-1209ZM-1036 -1211C-1037.66 -1211 -1039 -1209.66 -1039 -1208H-1037C-1037 -1208.55 -1036.55 -1209 -1036 -1209V-1211Z" fill="black" fill-opacity="0.1"/>
<path fill-rule="evenodd" clip-rule="evenodd" d="M6.53033 20.5303L8.53033 18.5303C8.82322 18.2374 8.82322 17.7626 8.53033 17.4697C8.23744 17.1768 7.76256 17.1768 7.46967 17.4697L6.75 18.1893V4C6.75 3.58579 6.41421 3.25 6 3.25C5.58579 3.25 5.25 3.58579 5.25 4V18.1893L4.53033 17.4697C4.23744 17.1768 3.76256 17.1768 3.46967 17.4697C3.17678 17.7626 3.17678 18.2374 3.46967 18.5303L5.46967 20.5303C5.76256 20.8232 6.23744 20.8232 6.53033 20.5303ZM12.1667 13.75L10.6923 17.2885C10.533 17.6708 10.0939 17.8516 9.71155 17.6923C9.3292 17.533 9.14839 17.0939 9.3077 16.7115L14.3077 4.71154C14.4242 4.43205 14.6972 4.25 15 4.25C15.3028 4.25 15.5759 4.43205 15.6923 4.71154L20.6923 16.7115C20.8516 17.0939 20.6708 17.533 20.2885 17.6923C19.9061 17.8516 19.467 17.6708 19.3077 17.2885L17.8333 13.75H12.1667ZM17.2083 12.25H12.7917L15 6.95L17.2083 12.25Z" fill="#1A1A1A"/>
</svg>
