<svg width="24" height="24" viewBox="0 0 24 24" fill="none" xmlns="http://www.w3.org/2000/svg">
<rect width="24" height="24" fill="#A6A6A6"/>
<path d="M-473 -38C-473 -39.1046 -472.105 -40 -471 -40H1013C1014.1 -40 1015 -39.1046 1015 -38V1512C1015 1513.1 1014.1 1514 1013 1514H-471C-472.105 1514 -473 1513.1 -473 1512V-38Z" fill="white"/>
<path d="M-471 -39H1013V-41H-471V-39ZM1014 -38V1512H1016V-38H1014ZM1013 1513H-471V1515H1013V1513ZM-472 1512V-38H-474V1512H-472ZM-471 1513C-471.552 1513 -472 1512.55 -472 1512H-474C-474 1513.66 -472.657 1515 -471 1515V1513ZM1014 1512C1014 1512.55 1013.55 1513 1013 1513V1515C1014.66 1515 1016 1513.66 1016 1512H1014ZM1013 -39C1013.55 -39 1014 -38.5523 1014 -38H1016C1016 -39.6569 1014.66 -41 1013 -41V-39ZM-471 -41C-472.657 -41 -474 -39.6569 -474 -38H-472C-472 -38.5523 -471.552 -39 -471 -39V-41Z" fill="black" fill-opacity="0.1"/>
<path d="M12 3V21M21 12L3 12" stroke="#1A1A1A" stroke-width="1.5" stroke-linecap="round" stroke-linejoin="round"/>
</svg>
