<svg width="24" height="24" viewBox="0 0 24 24" fill="none" xmlns="http://www.w3.org/2000/svg">
<rect width="24" height="24" fill="#A6A6A6"/>
<path d="M-1212 -757C-1212 -758.105 -1211.1 -759 -1210 -759H274C275.105 -759 276 -758.105 276 -757V793C276 794.105 275.105 795 274 795H-1210C-1211.1 795 -1212 794.105 -1212 793V-757Z" fill="white"/>
<path d="M-1210 -758H274V-760H-1210V-758ZM275 -757V793H277V-757H275ZM274 794H-1210V796H274V794ZM-1211 793V-757H-1213V793H-1211ZM-1210 794C-1210.55 794 -1211 793.552 -1211 793H-1213C-1213 794.657 -1211.66 796 -1210 796V794ZM275 793C275 793.552 274.552 794 274 794V796C275.657 796 277 794.657 277 793H275ZM274 -758C274.552 -758 275 -757.552 275 -757H277C277 -758.657 275.657 -760 274 -760V-758ZM-1210 -760C-1211.66 -760 -1213 -758.657 -1213 -757H-1211C-1211 -757.552 -1210.55 -758 -1210 -758V-760Z" fill="black" fill-opacity="0.1"/>
<path fill-rule="evenodd" clip-rule="evenodd" d="M12.75 6C12.75 5.58579 12.4142 5.25 12 5.25C11.5858 5.25 11.25 5.58579 11.25 6V11.25H6C5.58579 11.25 5.25 11.5858 5.25 12C5.25 12.4142 5.58579 12.75 6 12.75H11.25V18C11.25 18.4142 11.5858 18.75 12 18.75C12.4142 18.75 12.75 18.4142 12.75 18V12.75H18C18.4142 12.75 18.75 12.4142 18.75 12C18.75 11.5858 18.4142 11.25 18 11.25H12.75V6Z" fill="#1A1A1A"/>
</svg>
