<svg width="24" height="24" viewBox="0 0 24 24" fill="none" xmlns="http://www.w3.org/2000/svg">
<rect width="24" height="24" fill="#A6A6A6"/>
<path d="M-346 -1256C-346 -1257.1 -345.105 -1258 -344 -1258H1140C1141.1 -1258 1142 -1257.1 1142 -1256V294C1142 295.105 1141.1 296 1140 296H-344C-345.105 296 -346 295.105 -346 294V-1256Z" fill="white"/>
<path d="M-344 -1257H1140V-1259H-344V-1257ZM1141 -1256V294H1143V-1256H1141ZM1140 295H-344V297H1140V295ZM-345 294V-1256H-347V294H-345ZM-344 295C-344.552 295 -345 294.552 -345 294H-347C-347 295.657 -345.657 297 -344 297V295ZM1141 294C1141 294.552 1140.55 295 1140 295V297C1141.66 297 1143 295.657 1143 294H1141ZM1140 -1257C1140.55 -1257 1141 -1256.55 1141 -1256H1143C1143 -1257.66 1141.66 -1259 1140 -1259V-1257ZM-344 -1259C-345.657 -1259 -347 -1257.66 -347 -1256H-345C-345 -1256.55 -344.552 -1257 -344 -1257V-1259Z" fill="black" fill-opacity="0.1"/>
<path d="M12 6H18" stroke="#1A1A1A" stroke-width="1.5" stroke-linecap="round"/>
<path d="M6 10H18" stroke="#1A1A1A" stroke-width="1.5" stroke-linecap="round"/>
<path d="M12 14H18" stroke="#1A1A1A" stroke-width="1.5" stroke-linecap="round"/>
<path d="M6 18H18" stroke="#1A1A1A" stroke-width="1.5" stroke-linecap="round"/>
</svg>
