<svg width="24" height="24" viewBox="0 0 24 24" fill="none" xmlns="http://www.w3.org/2000/svg">
<rect width="24" height="24" fill="#A6A6A6"/>
<path d="M-1038 -1256C-1038 -1257.1 -1037.1 -1258 -1036 -1258H448C449.105 -1258 450 -1257.1 450 -1256V294C450 295.105 449.105 296 448 296H-1036C-1037.1 296 -1038 295.105 -1038 294V-1256Z" fill="white"/>
<path d="M-1036 -1257H448V-1259H-1036V-1257ZM449 -1256V294H451V-1256H449ZM448 295H-1036V297H448V295ZM-1037 294V-1256H-1039V294H-1037ZM-1036 295C-1036.55 295 -1037 294.552 -1037 294H-1039C-1039 295.657 -1037.66 297 -1036 297V295ZM449 294C449 294.552 448.552 295 448 295V297C449.657 297 451 295.657 451 294H449ZM448 -1257C448.552 -1257 449 -1256.55 449 -1256H451C451 -1257.66 449.657 -1259 448 -1259V-1257ZM-1036 -1259C-1037.66 -1259 -1039 -1257.66 -1039 -1256H-1037C-1037 -1256.55 -1036.55 -1257 -1036 -1257V-1259Z" fill="black" fill-opacity="0.1"/>
<path fill-rule="evenodd" clip-rule="evenodd" d="M12 5.25C11.5858 5.25 11.25 5.58579 11.25 6C11.25 6.41421 11.5858 6.75 12 6.75H18C18.4142 6.75 18.75 6.41421 18.75 6C18.75 5.58579 18.4142 5.25 18 5.25H12ZM6 9.25C5.58579 9.25 5.25 9.58579 5.25 10C5.25 10.4142 5.58579 10.75 6 10.75H18C18.4142 10.75 18.75 10.4142 18.75 10C18.75 9.58579 18.4142 9.25 18 9.25H6ZM11.25 14C11.25 13.5858 11.5858 13.25 12 13.25H18C18.4142 13.25 18.75 13.5858 18.75 14C18.75 14.4142 18.4142 14.75 18 14.75H12C11.5858 14.75 11.25 14.4142 11.25 14ZM6 17.25C5.58579 17.25 5.25 17.5858 5.25 18C5.25 18.4142 5.58579 18.75 6 18.75H18C18.4142 18.75 18.75 18.4142 18.75 18C18.75 17.5858 18.4142 17.25 18 17.25H6Z" fill="#1A1A1A"/>
</svg>
