<svg width="24" height="24" viewBox="0 0 24 24" fill="none" xmlns="http://www.w3.org/2000/svg">
<rect width="24" height="24" fill="#A6A6A6"/>
<path d="M-346 -181C-346 -182.105 -345.105 -183 -344 -183H1140C1141.1 -183 1142 -182.105 1142 -181V1369C1142 1370.1 1141.1 1371 1140 1371H-344C-345.105 1371 -346 1370.1 -346 1369V-181Z" fill="white"/>
<path d="M-344 -182H1140V-184H-344V-182ZM1141 -181V1369H1143V-181H1141ZM1140 1370H-344V1372H1140V1370ZM-345 1369V-181H-347V1369H-345ZM-344 1370C-344.552 1370 -345 1369.55 -345 1369H-347C-347 1370.66 -345.657 1372 -344 1372V1370ZM1141 1369C1141 1369.55 1140.55 1370 1140 1370V1372C1141.66 1372 1143 1370.66 1143 1369H1141ZM1140 -182C1140.55 -182 1141 -181.552 1141 -181H1143C1143 -182.657 1141.66 -184 1140 -184V-182ZM-344 -184C-345.657 -184 -347 -182.657 -347 -181H-345C-345 -181.552 -344.552 -182 -344 -182V-184Z" fill="black" fill-opacity="0.1"/>
<path d="M22 12V18C22 20.2091 20.2091 22 18 22H6C3.79086 22 2 20.2091 2 18V6C2 3.79086 3.79086 2 6 2H12M15.6864 4.02275C15.6864 4.02275 15.6864 5.45305 17.1167 6.88334C18.547 8.31364 19.9773 8.31364 19.9773 8.31364M9.15467 15.9896L12.1583 15.5605C12.5916 15.4986 12.9931 15.2978 13.3025 14.9884L21.4076 6.88334C22.1975 6.09341 22.1975 4.81268 21.4076 4.02275L19.9773 2.59245C19.1873 1.80252 17.9066 1.80252 17.1167 2.59245L9.01164 10.6975C8.70217 11.0069 8.50142 11.4084 8.43952 11.8417L8.01044 14.8453C7.91508 15.5128 8.4872 16.0849 9.15467 15.9896Z" stroke="#1A1A1A" stroke-width="1.5" stroke-linecap="round"/>
</svg>
