<svg width="24" height="24" viewBox="0 0 24 24" fill="none" xmlns="http://www.w3.org/2000/svg">
<rect width="24" height="24" fill="#A6A6A6"/>
<path d="M-114 -613C-114 -614.105 -113.105 -615 -112 -615H1372C1373.1 -615 1374 -614.105 1374 -613V937C1374 938.105 1373.1 939 1372 939H-112C-113.105 939 -114 938.105 -114 937V-613Z" fill="white"/>
<path d="M-112 -614H1372V-616H-112V-614ZM1373 -613V937H1375V-613H1373ZM1372 938H-112V940H1372V938ZM-113 937V-613H-115V937H-113ZM-112 938C-112.552 938 -113 937.552 -113 937H-115C-115 938.657 -113.657 940 -112 940V938ZM1373 937C1373 937.552 1372.55 938 1372 938V940C1373.66 940 1375 938.657 1375 937H1373ZM1372 -614C1372.55 -614 1373 -613.552 1373 -613H1375C1375 -614.657 1373.66 -616 1372 -616V-614ZM-112 -616C-113.657 -616 -115 -614.657 -115 -613H-113C-113 -613.552 -112.552 -614 -112 -614V-616Z" fill="black" fill-opacity="0.1"/>
<path d="M7 10L10.5264 12.8211C11.3537 13.483 12.5536 13.3848 13.2624 12.5973L21 4M22 9V18C22 20.2091 20.2091 22 18 22H6C3.79086 22 2 20.2091 2 18V6C2 3.79086 3.79086 2 6 2H17" stroke="#1A1A1A" stroke-width="1.5" stroke-linecap="round" stroke-linejoin="round"/>
</svg>
