<svg width="24" height="24" viewBox="0 0 24 24" fill="none" xmlns="http://www.w3.org/2000/svg">
<rect width="24" height="24" fill="#A6A6A6"/>
<path d="M-806 -613C-806 -614.105 -805.105 -615 -804 -615H680C681.105 -615 682 -614.105 682 -613V937C682 938.105 681.105 939 680 939H-804C-805.105 939 -806 938.105 -806 937V-613Z" fill="white"/>
<path d="M-804 -614H680V-616H-804V-614ZM681 -613V937H683V-613H681ZM680 938H-804V940H680V938ZM-805 937V-613H-807V937H-805ZM-804 938C-804.552 938 -805 937.552 -805 937H-807C-807 938.657 -805.657 940 -804 940V938ZM681 937C681 937.552 680.552 938 680 938V940C681.657 940 683 938.657 683 937H681ZM680 -614C680.552 -614 681 -613.552 681 -613H683C683 -614.657 681.657 -616 680 -616V-614ZM-804 -616C-805.657 -616 -807 -614.657 -807 -613H-805C-805 -613.552 -804.552 -614 -804 -614V-616Z" fill="black" fill-opacity="0.1"/>
<path fill-rule="evenodd" clip-rule="evenodd" d="M2.75 6C2.75 4.20507 4.20507 2.75 6 2.75H17C17.4142 2.75 17.75 2.41421 17.75 2C17.75 1.58579 17.4142 1.25 17 1.25H6C3.37665 1.25 1.25 3.37665 1.25 6V18C1.25 20.6234 3.37665 22.75 6 22.75H18C20.6234 22.75 22.75 20.6234 22.75 18V9C22.75 8.58579 22.4142 8.25 22 8.25C21.5858 8.25 21.25 8.58579 21.25 9V18C21.25 19.7949 19.7949 21.25 18 21.25H6C4.20507 21.25 2.75 19.7949 2.75 18V6ZM21.5575 4.50173C21.8346 4.19385 21.8096 3.71963 21.5018 3.44254C21.1939 3.16544 20.7197 3.1904 20.4426 3.49828L12.705 12.0956C12.262 12.5878 11.512 12.6492 10.995 12.2355L7.46855 9.41436C7.1451 9.1556 6.67313 9.20804 6.41438 9.53149C6.15562 9.85493 6.20806 10.3269 6.53151 10.5857L10.0579 13.4068C11.1955 14.3168 12.8454 14.1819 13.8199 13.0991L21.5575 4.50173Z" fill="#1A1A1A"/>
</svg>
