<svg width="24" height="24" viewBox="0 0 24 24" fill="none" xmlns="http://www.w3.org/2000/svg">
<rect width="24" height="24" fill="#A6A6A6"/>
<path d="M-520 -565C-520 -566.105 -519.105 -567 -518 -567H966C967.105 -567 968 -566.105 968 -565V985C968 986.105 967.105 987 966 987H-518C-519.105 987 -520 986.105 -520 985V-565Z" fill="white"/>
<path d="M-518 -566H966V-568H-518V-566ZM967 -565V985H969V-565H967ZM966 986H-518V988H966V986ZM-519 985V-565H-521V985H-519ZM-518 986C-518.552 986 -519 985.552 -519 985H-521C-521 986.657 -519.657 988 -518 988V986ZM967 985C967 985.552 966.552 986 966 986V988C967.657 988 969 986.657 969 985H967ZM966 -566C966.552 -566 967 -565.552 967 -565H969C969 -566.657 967.657 -568 966 -568V-566ZM-518 -568C-519.657 -568 -521 -566.657 -521 -565H-519C-519 -565.552 -518.552 -566 -518 -566V-568Z" fill="black" fill-opacity="0.1"/>
<path d="M5 13L8.52642 15.8211C9.35374 16.483 10.5536 16.3848 11.2624 15.5973L19 7" stroke="#1A1A1A" stroke-width="1.5" stroke-linecap="round" stroke-linejoin="round"/>
</svg>
