<svg width="24" height="24" viewBox="0 0 24 24" fill="none" xmlns="http://www.w3.org/2000/svg">
<rect width="24" height="24" fill="#A6A6A6"/>
<path d="M-1212 -565C-1212 -566.105 -1211.1 -567 -1210 -567H274C275.105 -567 276 -566.105 276 -565V985C276 986.105 275.105 987 274 987H-1210C-1211.1 987 -1212 986.105 -1212 985V-565Z" fill="white"/>
<path d="M-1210 -566H274V-568H-1210V-566ZM275 -565V985H277V-565H275ZM274 986H-1210V988H274V986ZM-1211 985V-565H-1213V985H-1211ZM-1210 986C-1210.55 986 -1211 985.552 -1211 985H-1213C-1213 986.657 -1211.66 988 -1210 988V986ZM275 985C275 985.552 274.552 986 274 986V988C275.657 988 277 986.657 277 985H275ZM274 -566C274.552 -566 275 -565.552 275 -565H277C277 -566.657 275.657 -568 274 -568V-566ZM-1210 -568C-1211.66 -568 -1213 -566.657 -1213 -565H-1211C-1211 -565.552 -1210.55 -566 -1210 -566V-568Z" fill="black" fill-opacity="0.1"/>
<path fill-rule="evenodd" clip-rule="evenodd" d="M19.5018 6.44254C19.8096 6.71963 19.8346 7.19385 19.5575 7.50173L11.8199 16.0991C10.8454 17.1819 9.19549 17.3168 8.05793 16.4068L4.53151 13.5857C4.20806 13.3269 4.15562 12.8549 4.41438 12.5315C4.67313 12.208 5.1451 12.1556 5.46855 12.4144L8.99497 15.2355C9.51204 15.6492 10.262 15.5878 10.705 15.0956L18.4426 6.49828C18.7197 6.1904 19.1939 6.16544 19.5018 6.44254Z" fill="#1A1A1A"/>
</svg>
