<svg width="24" height="24" viewBox="0 0 24 24" fill="none" xmlns="http://www.w3.org/2000/svg">
<rect width="24" height="24" fill="#A6A6A6"/>
<path d="M-578 -805C-578 -806.105 -577.105 -807 -576 -807H908C909.105 -807 910 -806.105 910 -805V745C910 746.105 909.105 747 908 747H-576C-577.105 747 -578 746.105 -578 745V-805Z" fill="white"/>
<path d="M-576 -806H908V-808H-576V-806ZM909 -805V745H911V-805H909ZM908 746H-576V748H908V746ZM-577 745V-805H-579V745H-577ZM-576 746C-576.552 746 -577 745.552 -577 745H-579C-579 746.657 -577.657 748 -576 748V746ZM909 745C909 745.552 908.552 746 908 746V748C909.657 748 911 746.657 911 745H909ZM908 -806C908.552 -806 909 -805.552 909 -805H911C911 -806.657 909.657 -808 908 -808V-806ZM-576 -808C-577.657 -808 -579 -806.657 -579 -805H-577C-577 -805.552 -576.552 -806 -576 -806V-808Z" fill="black" fill-opacity="0.1"/>
<path d="M8 16C8 12 12 10 16 10M16 10L14 13M16 10L13 8M6 22H18C20.2091 22 22 20.2091 22 18V6C22 3.79086 20.2091 2 18 2H6C3.79086 2 2 3.79086 2 6V18C2 20.2091 3.79086 22 6 22Z" stroke="#1A1A1A" stroke-width="1.5" stroke-linecap="round" stroke-linejoin="round"/>
</svg>
