<svg width="24" height="24" viewBox="0 0 24 24" fill="none" xmlns="http://www.w3.org/2000/svg">
<rect width="24" height="24" fill="#A6A6A6"/>
<path d="M-1270 -805C-1270 -806.105 -1269.1 -807 -1268 -807H216C217.105 -807 218 -806.105 218 -805V745C218 746.105 217.105 747 216 747H-1268C-1269.1 747 -1270 746.105 -1270 745V-805Z" fill="white"/>
<path d="M-1268 -806H216V-808H-1268V-806ZM217 -805V745H219V-805H217ZM216 746H-1268V748H216V746ZM-1269 745V-805H-1271V745H-1269ZM-1268 746C-1268.55 746 -1269 745.552 -1269 745H-1271C-1271 746.657 -1269.66 748 -1268 748V746ZM217 745C217 745.552 216.552 746 216 746V748C217.657 748 219 746.657 219 745H217ZM216 -806C216.552 -806 217 -805.552 217 -805H219C219 -806.657 217.657 -808 216 -808V-806ZM-1268 -808C-1269.66 -808 -1271 -806.657 -1271 -805H-1269C-1269 -805.552 -1268.55 -806 -1268 -806V-808Z" fill="black" fill-opacity="0.1"/>
<path fill-rule="evenodd" clip-rule="evenodd" d="M6 2C3.79086 2 2 3.79086 2 6V18C2 20.2091 3.79086 22 6 22H18C20.2091 22 22 20.2091 22 18V6C22 3.79086 20.2091 2 18 2H6ZM13.416 7.37604C13.0714 7.14628 12.6057 7.23941 12.376 7.58405C12.1462 7.9287 12.2393 8.39435 12.584 8.62412L13.8105 9.44181C12.455 9.6838 11.1621 10.1573 10.084 10.876C8.41112 11.9913 7.25 13.7092 7.25 16.0001C7.25 16.4143 7.58579 16.7501 8 16.7501C8.41421 16.7501 8.75 16.4143 8.75 16.0001C8.75 14.291 9.58888 13.0089 10.916 12.1241C11.9123 11.4599 13.1792 11.0275 14.5342 10.8467L13.376 12.5841C13.1462 12.9287 13.2393 13.3944 13.584 13.6241C13.9286 13.8539 14.3943 13.7608 14.624 13.4161L16.624 10.4161C16.8538 10.0715 16.7607 9.60581 16.416 9.37604L13.416 7.37604Z" fill="#1A1A1A"/>
</svg>
