<svg width="24" height="24" viewBox="0 0 24 24" fill="none" xmlns="http://www.w3.org/2000/svg">
<rect width="24" height="24" fill="#A6A6A6"/>
<path d="M-1212 -517C-1212 -518.105 -1211.1 -519 -1210 -519H274C275.105 -519 276 -518.105 276 -517V1033C276 1034.1 275.105 1035 274 1035H-1210C-1211.1 1035 -1212 1034.1 -1212 1033V-517Z" fill="white"/>
<path d="M-1210 -518H274V-520H-1210V-518ZM275 -517V1033H277V-517H275ZM274 1034H-1210V1036H274V1034ZM-1211 1033V-517H-1213V1033H-1211ZM-1210 1034C-1210.55 1034 -1211 1033.55 -1211 1033H-1213C-1213 1034.66 -1211.66 1036 -1210 1036V1034ZM275 1033C275 1033.55 274.552 1034 274 1034V1036C275.657 1036 277 1034.66 277 1033H275ZM274 -518C274.552 -518 275 -517.552 275 -517H277C277 -518.657 275.657 -520 274 -520V-518ZM-1210 -520C-1211.66 -520 -1213 -518.657 -1213 -517H-1211C-1211 -517.552 -1210.55 -518 -1210 -518V-520Z" fill="black" fill-opacity="0.1"/>
<path fill-rule="evenodd" clip-rule="evenodd" d="M12 3C8.77095 3 6.05382 5.49085 5.67964 8.79403L5.33476 11.8385C5.24906 12.595 4.94246 13.3069 4.45549 13.88C3.42209 15.0964 4.26081 17 5.83014 17H18.1699C19.7392 17 20.5779 15.0964 19.5445 13.88C19.0575 13.3069 18.7509 12.595 18.6652 11.8385L18.3204 8.79403C17.9462 5.49085 15.2291 3 12 3ZM14.9721 19.0715C14.5147 20.1992 13.3565 21 12 21C10.6435 21 9.48526 20.1992 9.02789 19.0715C9.00883 19.0245 9 18.974 9 18.9233C9 18.6895 9.18951 18.5 9.42329 18.5H14.5767C14.8105 18.5 15 18.6895 15 18.9233C15 18.974 14.9912 19.0245 14.9721 19.0715Z" fill="#1A1A1A"/>
</svg>
