<svg width="24" height="24" viewBox="0 0 24 24" fill="none" xmlns="http://www.w3.org/2000/svg">
<rect width="24" height="24" fill="#A6A6A6"/>
<path d="M-230 -517C-230 -518.105 -229.105 -519 -228 -519H1256C1257.1 -519 1258 -518.105 1258 -517V1033C1258 1034.1 1257.1 1035 1256 1035H-228C-229.105 1035 -230 1034.1 -230 1033V-517Z" fill="white"/>
<path d="M-228 -518H1256V-520H-228V-518ZM1257 -517V1033H1259V-517H1257ZM1256 1034H-228V1036H1256V1034ZM-229 1033V-517H-231V1033H-229ZM-228 1034C-228.552 1034 -229 1033.55 -229 1033H-231C-231 1034.66 -229.657 1036 -228 1036V1034ZM1257 1033C1257 1033.55 1256.55 1034 1256 1034V1036C1257.66 1036 1259 1034.66 1259 1033H1257ZM1256 -518C1256.55 -518 1257 -517.552 1257 -517H1259C1259 -518.657 1257.66 -520 1256 -520V-518ZM-228 -520C-229.657 -520 -231 -518.657 -231 -517H-229C-229 -517.552 -228.552 -518 -228 -518V-520Z" fill="black" fill-opacity="0.1"/>
<path d="M6 8H4C2.89543 8 2 8.89543 2 10V19C2 20.1046 2.89543 21 4 21H6C7.10457 21 8 20.1046 8 19V10C8 8.89543 7.10457 8 6 8Z" stroke="#1A1A1A" stroke-width="1.5" stroke-linecap="round" stroke-linejoin="round"/>
<path d="M15.8769 21H12.2111C11.4214 21 10.6494 20.7662 9.9923 20.3282L8.4453 19.2969C8.1671 19.1114 8 18.7992 8 18.4648V10.2656C8 10.0915 8.04541 9.92052 8.13176 9.76943L12 3H13.3287C15.3254 3 16.5164 5.22536 15.4088 6.88675L14 9H19.4384C20.7396 9 21.6943 10.2228 21.3787 11.4851L19.7575 17.9701C19.3123 19.7508 17.7124 21 15.8769 21Z" stroke="#1A1A1A" stroke-width="1.5" stroke-linecap="round" stroke-linejoin="round"/>
</svg>
