<svg width="24" height="24" viewBox="0 0 24 24" fill="none" xmlns="http://www.w3.org/2000/svg">
<rect width="24" height="24" fill="#A6A6A6"/>
<path d="M-922 -517C-922 -518.105 -921.105 -519 -920 -519H564C565.105 -519 566 -518.105 566 -517V1033C566 1034.1 565.105 1035 564 1035H-920C-921.105 1035 -922 1034.1 -922 1033V-517Z" fill="white"/>
<path d="M-920 -518H564V-520H-920V-518ZM565 -517V1033H567V-517H565ZM564 1034H-920V1036H564V1034ZM-921 1033V-517H-923V1033H-921ZM-920 1034C-920.552 1034 -921 1033.55 -921 1033H-923C-923 1034.66 -921.657 1036 -920 1036V1034ZM565 1033C565 1033.55 564.552 1034 564 1034V1036C565.657 1036 567 1034.66 567 1033H565ZM564 -518C564.552 -518 565 -517.552 565 -517H567C567 -518.657 565.657 -520 564 -520V-518ZM-920 -520C-921.657 -520 -923 -518.657 -923 -517H-921C-921 -517.552 -920.552 -518 -920 -518V-520Z" fill="black" fill-opacity="0.1"/>
<path fill-rule="evenodd" clip-rule="evenodd" d="M12.7092 21H15.875C17.7104 21 19.3104 19.7508 19.7555 17.9701L21.3768 11.4851C21.6924 10.2228 20.7377 9 19.4365 9H14.4981L15.8049 6.75968C16.7771 5.09303 15.575 3 13.6455 3H12.4981L8.62982 9.76943C8.54348 9.92052 8.49807 10.0915 8.49807 10.2656V18.4648C8.49807 18.7992 8.66517 19.1114 8.94337 19.2969L10.4904 20.3282C11.1474 20.7662 11.9195 21 12.7092 21ZM4 9H5C6.10457 9 7 9.89543 7 11V18C7 19.1046 6.10457 20 5 20H4C2.89543 20 2 19.1046 2 18V11C2 9.89543 2.89543 9 4 9Z" fill="#1A1A1A"/>
</svg>
