<svg width="24" height="24" viewBox="0 0 24 24" fill="none" xmlns="http://www.w3.org/2000/svg">
<rect width="24" height="24" fill="#A6A6A6"/>
<path d="M-462 -709C-462 -710.105 -461.105 -711 -460 -711H1024C1025.1 -711 1026 -710.105 1026 -709V841C1026 842.105 1025.1 843 1024 843H-460C-461.105 843 -462 842.105 -462 841V-709Z" fill="white"/>
<path d="M-460 -710H1024V-712H-460V-710ZM1025 -709V841H1027V-709H1025ZM1024 842H-460V844H1024V842ZM-461 841V-709H-463V841H-461ZM-460 842C-460.552 842 -461 841.552 -461 841H-463C-463 842.657 -461.657 844 -460 844V842ZM1025 841C1025 841.552 1024.55 842 1024 842V844C1025.66 844 1027 842.657 1027 841H1025ZM1024 -710C1024.55 -710 1025 -709.552 1025 -709H1027C1027 -710.657 1025.66 -712 1024 -712V-710ZM-460 -712C-461.657 -712 -463 -710.657 -463 -709H-461C-461 -709.552 -460.552 -710 -460 -710V-712Z" fill="black" fill-opacity="0.1"/>
<path d="M16 8H8M16 8C18.2091 8 20 9.79086 20 12V18C20 20.2091 18.2091 22 16 22H8C5.79086 22 4 20.2091 4 18V12C4 9.79086 5.79086 8 8 8M16 8V6C16 3.79086 14.2091 2 12 2C9.79086 2 8 3.79086 8 6V8M14 15C14 16.1046 13.1046 17 12 17C10.8954 17 10 16.1046 10 15C10 13.8954 10.8954 13 12 13C13.1046 13 14 13.8954 14 15Z" stroke="#1A1A1A" stroke-width="1.5" stroke-linecap="round" stroke-linejoin="round"/>
</svg>
