<svg width="24" height="24" viewBox="0 0 24 24" fill="none" xmlns="http://www.w3.org/2000/svg">
<rect width="24" height="24" fill="#A6A6A6"/>
<path d="M-1154 -709C-1154 -710.105 -1153.1 -711 -1152 -711H332C333.105 -711 334 -710.105 334 -709V841C334 842.105 333.105 843 332 843H-1152C-1153.1 843 -1154 842.105 -1154 841V-709Z" fill="white"/>
<path d="M-1152 -710H332V-712H-1152V-710ZM333 -709V841H335V-709H333ZM332 842H-1152V844H332V842ZM-1153 841V-709H-1155V841H-1153ZM-1152 842C-1152.55 842 -1153 841.552 -1153 841H-1155C-1155 842.657 -1153.66 844 -1152 844V842ZM333 841C333 841.552 332.552 842 332 842V844C333.657 844 335 842.657 335 841H333ZM332 -710C332.552 -710 333 -709.552 333 -709H335C335 -710.657 333.657 -712 332 -712V-710ZM-1152 -712C-1153.66 -712 -1155 -710.657 -1155 -709H-1153C-1153 -709.552 -1152.55 -710 -1152 -710V-712Z" fill="black" fill-opacity="0.1"/>
<path fill-rule="evenodd" clip-rule="evenodd" d="M8.75 6.75C8.75 4.95507 10.2051 3.5 12 3.5C13.7949 3.5 15.25 4.95507 15.25 6.75V8H8.75V6.75ZM7.25 8.0702V6.75C7.25 4.12665 9.37665 2 12 2C14.6234 2 16.75 4.12665 16.75 6.75V8.0702C18.6006 8.42125 20 10.0472 20 12V18C20 20.2091 18.2091 22 16 22H8C5.79086 22 4 20.2091 4 18V12C4 10.0472 5.39935 8.42125 7.25 8.0702ZM14 15C14 16.1046 13.1046 17 12 17C10.8954 17 10 16.1046 10 15C10 13.8954 10.8954 13 12 13C13.1046 13 14 13.8954 14 15Z" fill="#1A1A1A"/>
</svg>
