<svg width="24" height="24" viewBox="0 0 24 24" fill="none" xmlns="http://www.w3.org/2000/svg">
<rect width="24" height="24" fill="#A6A6A6"/>
<path d="M-346 -421C-346 -422.105 -345.105 -423 -344 -423H1140C1141.1 -423 1142 -422.105 1142 -421V1129C1142 1130.1 1141.1 1131 1140 1131H-344C-345.105 1131 -346 1130.1 -346 1129V-421Z" fill="white"/>
<path d="M-344 -422H1140V-424H-344V-422ZM1141 -421V1129H1143V-421H1141ZM1140 1130H-344V1132H1140V1130ZM-345 1129V-421H-347V1129H-345ZM-344 1130C-344.552 1130 -345 1129.55 -345 1129H-347C-347 1130.66 -345.657 1132 -344 1132V1130ZM1141 1129C1141 1129.55 1140.55 1130 1140 1130V1132C1141.66 1132 1143 1130.66 1143 1129H1141ZM1140 -422C1140.55 -422 1141 -421.552 1141 -421H1143C1143 -422.657 1141.66 -424 1140 -424V-422ZM-344 -424C-345.657 -424 -347 -422.657 -347 -421H-345C-345 -421.552 -344.552 -422 -344 -422V-424Z" fill="black" fill-opacity="0.1"/>
<path d="M12 8V13L15 15M16.8034 2C18.927 2.92861 20.7299 4.45412 22 6.36441M2 6.36441C3.27013 4.45412 5.07303 2.92861 7.19658 2M21 22L18.7571 19M3 22L5.24272 19M21 13C21 17.9706 16.9706 22 12 22C7.02944 22 3 17.9706 3 13C3 8.02944 7.02944 4 12 4C16.9706 4 21 8.02944 21 13Z" stroke="#1A1A1A" stroke-width="1.5" stroke-linecap="round" stroke-linejoin="round"/>
</svg>
