<svg width="24" height="24" viewBox="0 0 24 24" fill="none" xmlns="http://www.w3.org/2000/svg">
<rect width="24" height="24" fill="#A6A6A6"/>
<path d="M-1038 -421C-1038 -422.105 -1037.1 -423 -1036 -423H448C449.105 -423 450 -422.105 450 -421V1129C450 1130.1 449.105 1131 448 1131H-1036C-1037.1 1131 -1038 1130.1 -1038 1129V-421Z" fill="white"/>
<path d="M-1036 -422H448V-424H-1036V-422ZM449 -421V1129H451V-421H449ZM448 1130H-1036V1132H448V1130ZM-1037 1129V-421H-1039V1129H-1037ZM-1036 1130C-1036.55 1130 -1037 1129.55 -1037 1129H-1039C-1039 1130.66 -1037.66 1132 -1036 1132V1130ZM449 1129C449 1129.55 448.552 1130 448 1130V1132C449.657 1132 451 1130.66 451 1129H449ZM448 -422C448.552 -422 449 -421.552 449 -421H451C451 -422.657 449.657 -424 448 -424V-422ZM-1036 -424C-1037.66 -424 -1039 -422.657 -1039 -421H-1037C-1037 -421.552 -1036.55 -422 -1036 -422V-424Z" fill="black" fill-opacity="0.1"/>
<path fill-rule="evenodd" clip-rule="evenodd" d="M7.49715 2.68736C7.87667 2.5214 8.04979 2.07921 7.88383 1.6997C7.71787 1.32018 7.27568 1.14706 6.89617 1.31302C4.63941 2.29988 2.72454 3.92041 1.37553 5.94934C1.14619 6.29427 1.2399 6.75981 1.58482 6.98915C1.92975 7.21849 2.39529 7.12478 2.62463 6.77986C3.81588 4.98821 5.50681 3.55772 7.49715 2.68736ZM17.104 1.31302C16.7245 1.14706 16.2823 1.32018 16.1163 1.6997C15.9504 2.07921 16.1235 2.5214 16.503 2.68736C18.4934 3.55772 20.1843 4.98821 21.3755 6.77985C21.6049 7.12478 22.0704 7.21849 22.4153 6.98915C22.7603 6.75981 22.854 6.29427 22.6246 5.94934C21.2756 3.92041 19.3607 2.29988 17.104 1.31302ZM19.4493 18.8963C20.7333 17.2763 21.5001 15.2277 21.5001 13C21.5001 7.75329 17.2468 3.5 12.0001 3.5C6.75336 3.5 2.50006 7.75329 2.50006 13C2.50006 15.2276 3.26679 17.2762 4.55075 18.8962L2.41742 21.5277C2.15657 21.8495 2.20596 22.3218 2.52772 22.5826C2.84948 22.8435 3.32178 22.7941 3.58263 22.4723L5.58283 20.005C7.27326 21.5544 9.52623 22.5 12.0001 22.5C14.4738 22.5 16.7268 21.5545 18.4172 20.0051L20.4174 22.4723C20.6783 22.7941 21.1506 22.8435 21.4723 22.5826C21.7941 22.3218 21.8435 21.8495 21.5826 21.5277L19.4493 18.8963ZM12 7.25C12.4142 7.25 12.75 7.58579 12.75 8V12.5986L15.416 14.376C15.7607 14.6057 15.8538 15.0714 15.624 15.416C15.3943 15.7607 14.9286 15.8538 14.584 15.624L11.584 13.624C11.3753 13.4849 11.25 13.2508 11.25 13V8C11.25 7.58579 11.5858 7.25 12 7.25Z" fill="#1A1A1A"/>
</svg>
