<svg width="24" height="24" viewBox="0 0 24 24" fill="none" xmlns="http://www.w3.org/2000/svg">
<rect width="24" height="24" fill="#A6A6A6"/>
<path d="M-230 -1160C-230 -1161.1 -229.105 -1162 -228 -1162H1256C1257.1 -1162 1258 -1161.1 1258 -1160V390C1258 391.105 1257.1 392 1256 392H-228C-229.105 392 -230 391.105 -230 390V-1160Z" fill="white"/>
<path d="M-228 -1161H1256V-1163H-228V-1161ZM1257 -1160V390H1259V-1160H1257ZM1256 391H-228V393H1256V391ZM-229 390V-1160H-231V390H-229ZM-228 391C-228.552 391 -229 390.552 -229 390H-231C-231 391.657 -229.657 393 -228 393V391ZM1257 390C1257 390.552 1256.55 391 1256 391V393C1257.66 393 1259 391.657 1259 390H1257ZM1256 -1161C1256.55 -1161 1257 -1160.55 1257 -1160H1259C1259 -1161.66 1257.66 -1163 1256 -1163V-1161ZM-228 -1163C-229.657 -1163 -231 -1161.66 -231 -1160H-229C-229 -1160.55 -228.552 -1161 -228 -1161V-1163Z" fill="black" fill-opacity="0.1"/>
<path d="M6 12H18" stroke="#1A1A1A" stroke-width="1.5" stroke-linecap="round"/>
<path d="M6 5L6 19" stroke="#1A1A1A" stroke-width="1.5" stroke-linecap="round"/>
<path d="M18 5V19" stroke="#1A1A1A" stroke-width="1.5" stroke-linecap="round"/>
</svg>
