<svg width="24" height="24" viewBox="0 0 24 24" fill="none" xmlns="http://www.w3.org/2000/svg">
<rect width="24" height="24" fill="#A6A6A6"/>
<path d="M-922 -1160C-922 -1161.1 -921.105 -1162 -920 -1162H564C565.105 -1162 566 -1161.1 566 -1160V390C566 391.105 565.105 392 564 392H-920C-921.105 392 -922 391.105 -922 390V-1160Z" fill="white"/>
<path d="M-920 -1161H564V-1163H-920V-1161ZM565 -1160V390H567V-1160H565ZM564 391H-920V393H564V391ZM-921 390V-1160H-923V390H-921ZM-920 391C-920.552 391 -921 390.552 -921 390H-923C-923 391.657 -921.657 393 -920 393V391ZM565 390C565 390.552 564.552 391 564 391V393C565.657 393 567 391.657 567 390H565ZM564 -1161C564.552 -1161 565 -1160.55 565 -1160H567C567 -1161.66 565.657 -1163 564 -1163V-1161ZM-920 -1163C-921.657 -1163 -923 -1161.66 -923 -1160H-921C-921 -1160.55 -920.552 -1161 -920 -1161V-1163Z" fill="black" fill-opacity="0.1"/>
<path fill-rule="evenodd" clip-rule="evenodd" d="M6 4.25C6.41421 4.25 6.75 4.58579 6.75 5V11.25H17.25V5C17.25 4.58579 17.5858 4.25 18 4.25C18.4142 4.25 18.75 4.58579 18.75 5V12V19C18.75 19.4142 18.4142 19.75 18 19.75C17.5858 19.75 17.25 19.4142 17.25 19V12.75H6.75V19C6.75 19.4142 6.41421 19.75 6 19.75C5.58579 19.75 5.25 19.4142 5.25 19V12V5C5.25 4.58579 5.58579 4.25 6 4.25Z" fill="#1A1A1A"/>
</svg>
