<svg width="24" height="24" viewBox="0 0 24 24" fill="none" xmlns="http://www.w3.org/2000/svg">
<rect width="24" height="24" fill="#A6A6A6"/>
<path d="M-864 -853C-864 -854.105 -863.105 -855 -862 -855H622C623.105 -855 624 -854.105 624 -853V697C624 698.105 623.105 699 622 699H-862C-863.105 699 -864 698.105 -864 697V-853Z" fill="white"/>
<path d="M-862 -854H622V-856H-862V-854ZM623 -853V697H625V-853H623ZM622 698H-862V700H622V698ZM-863 697V-853H-865V697H-863ZM-862 698C-862.552 698 -863 697.552 -863 697H-865C-865 698.657 -863.657 700 -862 700V698ZM623 697C623 697.552 622.552 698 622 698V700C623.657 700 625 698.657 625 697H623ZM622 -854C622.552 -854 623 -853.552 623 -853H625C625 -854.657 623.657 -856 622 -856V-854ZM-862 -856C-863.657 -856 -865 -854.657 -865 -853H-863C-863 -853.552 -862.552 -854 -862 -854V-856Z" fill="black" fill-opacity="0.1"/>
<path fill-rule="evenodd" clip-rule="evenodd" d="M2 6C2 3.79086 3.79086 2 6 2H14.7876C15.8485 2 16.8659 2.42143 17.616 3.17157L20.8284 6.38398C21.5786 7.13413 22 8.15154 22 9.21241V18C22 20.2091 20.2091 22 18 22H6C3.79086 22 2 20.2091 2 18V6ZM15.75 7C15.75 7.41421 15.4142 7.75 15 7.75L9 7.75C8.58579 7.75 8.25 7.41421 8.25 7C8.25 6.58579 8.58579 6.25 9 6.25L15 6.25C15.4142 6.25 15.75 6.58579 15.75 7ZM7 19V15C7 14.4477 7.44772 14 8 14H16C16.5523 14 17 14.4477 17 15V19C17 19.5523 16.5523 20 16 20H8C7.44772 20 7 19.5523 7 19Z" fill="#1A1A1A"/>
</svg>
