<svg width="24" height="24" viewBox="0 0 24 24" fill="none" xmlns="http://www.w3.org/2000/svg">
<rect width="24" height="24" fill="#A6A6A6"/>
<path d="M-462 -277C-462 -278.105 -461.105 -279 -460 -279H1024C1025.1 -279 1026 -278.105 1026 -277V1273C1026 1274.1 1025.1 1275 1024 1275H-460C-461.105 1275 -462 1274.1 -462 1273V-277Z" fill="white"/>
<path d="M-460 -278H1024V-280H-460V-278ZM1025 -277V1273H1027V-277H1025ZM1024 1274H-460V1276H1024V1274ZM-461 1273V-277H-463V1273H-461ZM-460 1274C-460.552 1274 -461 1273.55 -461 1273H-463C-463 1274.66 -461.657 1276 -460 1276V1274ZM1025 1273C1025 1273.55 1024.55 1274 1024 1274V1276C1025.66 1276 1027 1274.66 1027 1273H1025ZM1024 -278C1024.55 -278 1025 -277.552 1025 -277H1027C1027 -278.657 1025.66 -280 1024 -280V-278ZM-460 -280C-461.657 -280 -463 -278.657 -463 -277H-461C-461 -277.552 -460.552 -278 -460 -278V-280Z" fill="black" fill-opacity="0.1"/>
<path d="M9 15C9 15 10.125 16 12 16C13.875 16 15 15 15 15M17 10C17 10.5523 16.5523 11 16 11C15.4477 11 15 10.5523 15 10C15 9.44772 15.4477 9 16 9C16.5523 9 17 9.44772 17 10ZM22 12C22 17.5228 17.5228 22 12 22C6.47715 22 2 17.5228 2 12C2 6.47715 6.47715 2 12 2C17.5228 2 22 6.47715 22 12ZM9 10C9 10.5523 8.55228 11 8 11C7.44772 11 7 10.5523 7 10C7 9.44772 7.44772 9 8 9C8.55228 9 9 9.44772 9 10Z" stroke="#1A1A1A" stroke-width="1.5" stroke-linecap="round" stroke-linejoin="round"/>
</svg>
