<svg width="24" height="24" viewBox="0 0 24 24" fill="none" xmlns="http://www.w3.org/2000/svg">
<rect width="24" height="24" fill="#A6A6A6"/>
<path d="M-1154 -277C-1154 -278.105 -1153.1 -279 -1152 -279H332C333.105 -279 334 -278.105 334 -277V1273C334 1274.1 333.105 1275 332 1275H-1152C-1153.1 1275 -1154 1274.1 -1154 1273V-277Z" fill="white"/>
<path d="M-1152 -278H332V-280H-1152V-278ZM333 -277V1273H335V-277H333ZM332 1274H-1152V1276H332V1274ZM-1153 1273V-277H-1155V1273H-1153ZM-1152 1274C-1152.55 1274 -1153 1273.55 -1153 1273H-1155C-1155 1274.66 -1153.66 1276 -1152 1276V1274ZM333 1273C333 1273.55 332.552 1274 332 1274V1276C333.657 1276 335 1274.66 335 1273H333ZM332 -278C332.552 -278 333 -277.552 333 -277H335C335 -278.657 333.657 -280 332 -280V-278ZM-1152 -280C-1153.66 -280 -1155 -278.657 -1155 -277H-1153C-1153 -277.552 -1152.55 -278 -1152 -278V-280Z" fill="black" fill-opacity="0.1"/>
<path fill-rule="evenodd" clip-rule="evenodd" d="M12 22C17.5228 22 22 17.5228 22 12C22 6.47715 17.5228 2 12 2C6.47715 2 2 6.47715 2 12C2 17.5228 6.47715 22 12 22ZM9.49455 14.4362C9.1849 14.1645 8.71354 14.1934 8.43945 14.5017C8.16426 14.8113 8.19215 15.2854 8.50174 15.5606L8.77679 15.7719C8.93912 15.8849 9.17203 16.0306 9.46968 16.1749C10.065 16.4635 10.9268 16.75 12 16.75C13.0733 16.75 13.935 16.4635 14.5303 16.1749C14.828 16.0306 15.0609 15.8849 15.2232 15.7719C15.3045 15.7154 15.3685 15.6668 15.4145 15.6302L15.4983 15.5606C15.8079 15.2854 15.8358 14.8113 15.5606 14.5017C15.2865 14.1934 14.8151 14.1645 14.5055 14.4362L14.3666 14.5406C14.2594 14.6152 14.0939 14.7195 13.8759 14.8251C13.44 15.0365 12.8018 15.25 12 15.25C11.1983 15.25 10.56 15.0365 10.1241 14.8251C9.90611 14.7195 9.74058 14.6152 9.63338 14.5406L9.49455 14.4362ZM17 10C17 10.5523 16.5523 11 16 11C15.4477 11 15 10.5523 15 10C15 9.44772 15.4477 9 16 9C16.5523 9 17 9.44772 17 10ZM8 11C8.55228 11 9 10.5523 9 10C9 9.44772 8.55228 9 8 9C7.44772 9 7 9.44772 7 10C7 10.5523 7.44772 11 8 11Z" fill="#1A1A1A"/>
</svg>
