<svg width="24" height="24" viewBox="0 0 24 24" fill="none" xmlns="http://www.w3.org/2000/svg">
<rect width="24" height="24" fill="#A6A6A6"/>
<path d="M-578 -661C-578 -662.105 -577.105 -663 -576 -663H908C909.105 -663 910 -662.105 910 -661V889C910 890.105 909.105 891 908 891H-576C-577.105 891 -578 890.105 -578 889V-661Z" fill="white"/>
<path d="M-576 -662H908V-664H-576V-662ZM909 -661V889H911V-661H909ZM908 890H-576V892H908V890ZM-577 889V-661H-579V889H-577ZM-576 890C-576.552 890 -577 889.552 -577 889H-579C-579 890.657 -577.657 892 -576 892V890ZM909 889C909 889.552 908.552 890 908 890V892C909.657 892 911 890.657 911 889H909ZM908 -662C908.552 -662 909 -661.552 909 -661H911C911 -662.657 909.657 -664 908 -664V-662ZM-576 -664C-577.657 -664 -579 -662.657 -579 -661H-577C-577 -661.552 -576.552 -662 -576 -662V-664Z" fill="black" fill-opacity="0.1"/>
<path d="M7 21L7 16M7 5V3M7 5C8.65685 5 10 6.34315 10 8V10C10 11.6569 8.65685 13 7 13C5.34315 13 4 11.6569 4 10V8C4 6.34315 5.34315 5 7 5ZM17 8V3M17 21V19M17 19C18.6569 19 20 17.6569 20 16V14C20 12.3431 18.6569 11 17 11C15.3431 11 14 12.3431 14 14V16C14 17.6569 15.3431 19 17 19Z" stroke="#1A1A1A" stroke-width="1.5" stroke-linecap="round"/>
</svg>
