<svg width="24" height="24" viewBox="0 0 24 24" fill="none" xmlns="http://www.w3.org/2000/svg">
<rect width="24" height="24" fill="#A6A6A6"/>
<path d="M-1270 -661C-1270 -662.105 -1269.1 -663 -1268 -663H216C217.105 -663 218 -662.105 218 -661V889C218 890.105 217.105 891 216 891H-1268C-1269.1 891 -1270 890.105 -1270 889V-661Z" fill="white"/>
<path d="M-1268 -662H216V-664H-1268V-662ZM217 -661V889H219V-661H217ZM216 890H-1268V892H216V890ZM-1269 889V-661H-1271V889H-1269ZM-1268 890C-1268.55 890 -1269 889.552 -1269 889H-1271C-1271 890.657 -1269.66 892 -1268 892V890ZM217 889C217 889.552 216.552 890 216 890V892C217.657 892 219 890.657 219 889H217ZM216 -662C216.552 -662 217 -661.552 217 -661H219C219 -662.657 217.657 -664 216 -664V-662ZM-1268 -664C-1269.66 -664 -1271 -662.657 -1271 -661H-1269C-1269 -661.552 -1268.55 -662 -1268 -662V-664Z" fill="black" fill-opacity="0.1"/>
<path fill-rule="evenodd" clip-rule="evenodd" d="M7.25 5.09451L7.25 3C7.25 2.58579 7.58579 2.25 8 2.25C8.41421 2.25 8.75 2.58579 8.75 3L8.75 5.09451C10.0439 5.42755 11 6.60212 11 8V10C11 11.6569 9.65685 13 8 13C6.34315 13 5 11.6569 5 10V8C5 6.60212 5.95608 5.42755 7.25 5.09451ZM15.25 8C15.25 8.41421 15.5858 8.75 16 8.75C16.4142 8.75 16.75 8.41421 16.75 8V3C16.75 2.58579 16.4142 2.25 16 2.25C15.5858 2.25 15.25 2.58579 15.25 3V8ZM7.25 21C7.25 21.4142 7.58579 21.75 8 21.75C8.41421 21.75 8.75 21.4142 8.75 21L8.75 16C8.75 15.5858 8.41421 15.25 8 15.25C7.58579 15.25 7.25 15.5858 7.25 16L7.25 21ZM13 14V16C13 17.3979 13.9561 18.5725 15.25 18.9055V21C15.25 21.4142 15.5858 21.75 16 21.75C16.4142 21.75 16.75 21.4142 16.75 21V18.9055C18.0439 18.5725 19 17.3979 19 16V14C19 12.3431 17.6569 11 16 11C14.3431 11 13 12.3431 13 14Z" fill="#1A1A1A"/>
</svg>
