<svg width="24" height="24" viewBox="0 0 24 24" fill="none" xmlns="http://www.w3.org/2000/svg">
<rect width="24" height="24" fill="#A6A6A6"/>
<path d="M-172 -133C-172 -134.105 -171.105 -135 -170 -135H1314C1315.1 -135 1316 -134.105 1316 -133V1417C1316 1418.1 1315.1 1419 1314 1419H-170C-171.105 1419 -172 1418.1 -172 1417V-133Z" fill="white"/>
<path d="M-170 -134H1314V-136H-170V-134ZM1315 -133V1417H1317V-133H1315ZM1314 1418H-170V1420H1314V1418ZM-171 1417V-133H-173V1417H-171ZM-170 1418C-170.552 1418 -171 1417.55 -171 1417H-173C-173 1418.66 -171.657 1420 -170 1420V1418ZM1315 1417C1315 1417.55 1314.55 1418 1314 1418V1420C1315.66 1420 1317 1418.66 1317 1417H1315ZM1314 -134C1314.55 -134 1315 -133.552 1315 -133H1317C1317 -134.657 1315.66 -136 1314 -136V-134ZM-170 -136C-171.657 -136 -173 -134.657 -173 -133H-171C-171 -133.552 -170.552 -134 -170 -134V-136Z" fill="black" fill-opacity="0.1"/>
<path d="M16 22V18C16 15.7909 14.2091 14 12 14C9.79086 14 8 15.7909 8 18V22M21 10.1503V17.9668C21 20.1943 19.2091 22 17 22H7C4.79086 22 3 20.1943 3 17.9668V10.1503C3 8.93937 3.53964 7.7925 4.46986 7.02652L9.46986 2.90935C10.9423 1.69689 13.0577 1.69688 14.5301 2.90935L19.5301 7.02652C20.4604 7.7925 21 8.93937 21 10.1503Z" stroke="#1A1A1A" stroke-width="1.5"/>
</svg>
