<svg width="24" height="24" viewBox="0 0 24 24" fill="none" xmlns="http://www.w3.org/2000/svg">
<rect width="24" height="24" fill="#A6A6A6"/>
<path d="M-864 -133C-864 -134.105 -863.105 -135 -862 -135H622C623.105 -135 624 -134.105 624 -133V1417C624 1418.1 623.105 1419 622 1419H-862C-863.105 1419 -864 1418.1 -864 1417V-133Z" fill="white"/>
<path d="M-862 -134H622V-136H-862V-134ZM623 -133V1417H625V-133H623ZM622 1418H-862V1420H622V1418ZM-863 1417V-133H-865V1417H-863ZM-862 1418C-862.552 1418 -863 1417.55 -863 1417H-865C-865 1418.66 -863.657 1420 -862 1420V1418ZM623 1417C623 1417.55 622.552 1418 622 1418V1420C623.657 1420 625 1418.66 625 1417H623ZM622 -134C622.552 -134 623 -133.552 623 -133H625C625 -134.657 623.657 -136 622 -136V-134ZM-862 -136C-863.657 -136 -865 -134.657 -865 -133H-863C-863 -133.552 -862.552 -134 -862 -134V-136Z" fill="black" fill-opacity="0.1"/>
<path fill-rule="evenodd" clip-rule="evenodd" d="M21 10.1503V17.9668C21 20.1943 19.2091 22 17 22H7C4.79086 22 3 20.1943 3 17.9668V10.1503C3 8.93937 3.53964 7.7925 4.46986 7.02652L9.46986 2.90935C10.9423 1.69689 13.0577 1.69688 14.5301 2.90935L19.5301 7.02652C20.4604 7.7925 21 8.93937 21 10.1503ZM15.25 17.25V19.5C15.25 20.0523 14.8023 20.5 14.25 20.5H9.75C9.19772 20.5 8.75 20.0523 8.75 19.5V17.25C8.75 15.4551 10.2051 14 12 14C13.7949 14 15.25 15.4551 15.25 17.25Z" fill="#1A1A1A"/>
</svg>
