<svg width="24" height="24" viewBox="0 0 24 24" fill="none" xmlns="http://www.w3.org/2000/svg">
<rect width="24" height="24" fill="#A6A6A6"/>
<path d="M-114 -133C-114 -134.105 -113.105 -135 -112 -135H1372C1373.1 -135 1374 -134.105 1374 -133V1417C1374 1418.1 1373.1 1419 1372 1419H-112C-113.105 1419 -114 1418.1 -114 1417V-133Z" fill="white"/>
<path d="M-112 -134H1372V-136H-112V-134ZM1373 -133V1417H1375V-133H1373ZM1372 1418H-112V1420H1372V1418ZM-113 1417V-133H-115V1417H-113ZM-112 1418C-112.552 1418 -113 1417.55 -113 1417H-115C-115 1418.66 -113.657 1420 -112 1420V1418ZM1373 1417C1373 1417.55 1372.55 1418 1372 1418V1420C1373.66 1420 1375 1418.66 1375 1417H1373ZM1372 -134C1372.55 -134 1373 -133.552 1373 -133H1375C1375 -134.657 1373.66 -136 1372 -136V-134ZM-112 -136C-113.657 -136 -115 -134.657 -115 -133H-113C-113 -133.552 -112.552 -134 -112 -134V-136Z" fill="black" fill-opacity="0.1"/>
<path d="M21 17.9668V10.1503C21 8.93937 20.4604 7.7925 19.5301 7.02652L14.5301 2.90935C13.0577 1.69688 10.9423 1.69689 9.46986 2.90935L4.46986 7.02652C3.53964 7.7925 3 8.93937 3 10.1503V17.9668C3 20.1943 4.79086 22 7 22H17C19.2091 22 21 20.1943 21 17.9668Z" stroke="#1A1A1A" stroke-width="1.5" stroke-linejoin="round"/>
<path d="M10 18H14" stroke="#1A1A1A" stroke-width="1.5" stroke-linecap="round"/>
</svg>
