<svg width="24" height="24" viewBox="0 0 24 24" fill="none" xmlns="http://www.w3.org/2000/svg">
<rect width="24" height="24" fill="#A6A6A6"/>
<path d="M-806 -133C-806 -134.105 -805.105 -135 -804 -135H680C681.105 -135 682 -134.105 682 -133V1417C682 1418.1 681.105 1419 680 1419H-804C-805.105 1419 -806 1418.1 -806 1417V-133Z" fill="white"/>
<path d="M-804 -134H680V-136H-804V-134ZM681 -133V1417H683V-133H681ZM680 1418H-804V1420H680V1418ZM-805 1417V-133H-807V1417H-805ZM-804 1418C-804.552 1418 -805 1417.55 -805 1417H-807C-807 1418.66 -805.657 1420 -804 1420V1418ZM681 1417C681 1417.55 680.552 1418 680 1418V1420C681.657 1420 683 1418.66 683 1417H681ZM680 -134C680.552 -134 681 -133.552 681 -133H683C683 -134.657 681.657 -136 680 -136V-134ZM-804 -136C-805.657 -136 -807 -134.657 -807 -133H-805C-805 -133.552 -804.552 -134 -804 -134V-136Z" fill="black" fill-opacity="0.1"/>
<path fill-rule="evenodd" clip-rule="evenodd" d="M21 10.1503V17.9668C21 20.1943 19.2091 22 17 22H7C4.79086 22 3 20.1943 3 17.9668V10.1503C3 8.93937 3.53964 7.7925 4.46986 7.02652L9.46986 2.90935C10.9423 1.69689 13.0577 1.69688 14.5301 2.90935L19.5301 7.02652C20.4604 7.7925 21 8.93937 21 10.1503ZM10 17.25C9.58579 17.25 9.25 17.5858 9.25 18C9.25 18.4142 9.58579 18.75 10 18.75H14C14.4142 18.75 14.75 18.4142 14.75 18C14.75 17.5858 14.4142 17.25 14 17.25H10Z" fill="#1A1A1A"/>
</svg>
