<svg width="24" height="24" viewBox="0 0 24 24" fill="none" xmlns="http://www.w3.org/2000/svg">
<rect width="24" height="24" fill="#A6A6A6"/>
<path d="M-404 -661C-404 -662.105 -403.105 -663 -402 -663H1082C1083.1 -663 1084 -662.105 1084 -661V889C1084 890.105 1083.1 891 1082 891H-402C-403.105 891 -404 890.105 -404 889V-661Z" fill="white"/>
<path d="M-402 -662H1082V-664H-402V-662ZM1083 -661V889H1085V-661H1083ZM1082 890H-402V892H1082V890ZM-403 889V-661H-405V889H-403ZM-402 890C-402.552 890 -403 889.552 -403 889H-405C-405 890.657 -403.657 892 -402 892V890ZM1083 889C1083 889.552 1082.55 890 1082 890V892C1083.66 892 1085 890.657 1085 889H1083ZM1082 -662C1082.55 -662 1083 -661.552 1083 -661H1085C1085 -662.657 1083.66 -664 1082 -664V-662ZM-402 -664C-403.657 -664 -405 -662.657 -405 -661H-403C-403 -661.552 -402.552 -662 -402 -662V-664Z" fill="black" fill-opacity="0.1"/>
<path d="M3 7H6M6 7C6 8.65685 7.34315 10 9 10C10.6569 10 12 8.65685 12 7C12 5.34315 10.6569 4 9 4C7.34315 4 6 5.34315 6 7ZM3 17H9M18 17H21M18 17C18 18.6569 16.6569 20 15 20C13.3431 20 12 18.6569 12 17C12 15.3431 13.3431 14 15 14C16.6569 14 18 15.3431 18 17ZM15 7H21" stroke="#1A1A1A" stroke-width="1.5" stroke-linecap="round"/>
</svg>
