<svg width="24" height="24" viewBox="0 0 24 24" fill="none" xmlns="http://www.w3.org/2000/svg">
<rect width="24" height="24" fill="#A6A6A6"/>
<path d="M-1096 -661C-1096 -662.105 -1095.1 -663 -1094 -663H390C391.105 -663 392 -662.105 392 -661V889C392 890.105 391.105 891 390 891H-1094C-1095.1 891 -1096 890.105 -1096 889V-661Z" fill="white"/>
<path d="M-1094 -662H390V-664H-1094V-662ZM391 -661V889H393V-661H391ZM390 890H-1094V892H390V890ZM-1095 889V-661H-1097V889H-1095ZM-1094 890C-1094.55 890 -1095 889.552 -1095 889H-1097C-1097 890.657 -1095.66 892 -1094 892V890ZM391 889C391 889.552 390.552 890 390 890V892C391.657 892 393 890.657 393 889H391ZM390 -662C390.552 -662 391 -661.552 391 -661H393C393 -662.657 391.657 -664 390 -664V-662ZM-1094 -664C-1095.66 -664 -1097 -662.657 -1097 -661H-1095C-1095 -661.552 -1094.55 -662 -1094 -662V-664Z" fill="black" fill-opacity="0.1"/>
<path fill-rule="evenodd" clip-rule="evenodd" d="M9 11C10.6569 11 12 9.65685 12 8C12 6.34315 10.6569 5 9 5C7.60212 5 6.42755 5.95608 6.09451 7.25H3C2.58579 7.25 2.25 7.58579 2.25 8C2.25 8.41421 2.58579 8.75 3 8.75H6.09451C6.42755 10.0439 7.60212 11 9 11ZM14.25 8C14.25 7.58579 14.5858 7.25 15 7.25H21C21.4142 7.25 21.75 7.58579 21.75 8C21.75 8.41421 21.4142 8.75 21 8.75H15C14.5858 8.75 14.25 8.41421 14.25 8ZM17.9055 16.75C17.5725 18.0439 16.3979 19 15 19C13.3431 19 12 17.6569 12 16C12 14.3431 13.3431 13 15 13C16.3979 13 17.5725 13.9561 17.9055 15.25H21C21.4142 15.25 21.75 15.5858 21.75 16C21.75 16.4142 21.4142 16.75 21 16.75H17.9055ZM2.25 16C2.25 15.5858 2.58579 15.25 3 15.25H9C9.41421 15.25 9.75 15.5858 9.75 16C9.75 16.4142 9.41421 16.75 9 16.75H3C2.58579 16.75 2.25 16.4142 2.25 16Z" fill="#1A1A1A"/>
</svg>
