<svg width="24" height="24" viewBox="0 0 24 24" fill="none" xmlns="http://www.w3.org/2000/svg">
<rect width="24" height="24" fill="#A6A6A6"/>
<path d="M-288 -1024C-288 -1025.1 -287.105 -1026 -286 -1026H1198C1199.1 -1026 1200 -1025.1 1200 -1024V526C1200 527.105 1199.1 528 1198 528H-286C-287.105 528 -288 527.105 -288 526V-1024Z" fill="white"/>
<path d="M-286 -1025H1198V-1027H-286V-1025ZM1199 -1024V526H1201V-1024H1199ZM1198 527H-286V529H1198V527ZM-287 526V-1024H-289V526H-287ZM-286 527C-286.552 527 -287 526.552 -287 526H-289C-289 527.657 -287.657 529 -286 529V527ZM1199 526C1199 526.552 1198.55 527 1198 527V529C1199.66 529 1201 527.657 1201 526H1199ZM1198 -1025C1198.55 -1025 1199 -1024.55 1199 -1024H1201C1201 -1025.66 1199.66 -1027 1198 -1027V-1025ZM-286 -1027C-287.657 -1027 -289 -1025.66 -289 -1024H-287C-287 -1024.55 -286.552 -1025 -286 -1025V-1027Z" fill="black" fill-opacity="0.1"/>
<ellipse cx="10" cy="17.5" rx="7" ry="3.5" stroke="#1A1A1A" stroke-width="1.5" stroke-linejoin="round"/>
<circle cx="10" cy="7" r="4" stroke="#1A1A1A" stroke-width="1.5" stroke-linejoin="round"/>
<path d="M17 13L19 11M21 9L19 11M19 11L21 13M19 11L17 9" stroke="#1A1A1A" stroke-width="1.5" stroke-linecap="round"/>
</svg>
