<svg width="24" height="24" viewBox="0 0 24 24" fill="none" xmlns="http://www.w3.org/2000/svg">
<rect width="24" height="24" fill="#A6A6A6"/>
<path d="M-980 -1024C-980 -1025.1 -979.105 -1026 -978 -1026H506C507.105 -1026 508 -1025.1 508 -1024V526C508 527.105 507.105 528 506 528H-978C-979.105 528 -980 527.105 -980 526V-1024Z" fill="white"/>
<path d="M-978 -1025H506V-1027H-978V-1025ZM507 -1024V526H509V-1024H507ZM506 527H-978V529H506V527ZM-979 526V-1024H-981V526H-979ZM-978 527C-978.552 527 -979 526.552 -979 526H-981C-981 527.657 -979.657 529 -978 529V527ZM507 526C507 526.552 506.552 527 506 527V529C507.657 529 509 527.657 509 526H507ZM506 -1025C506.552 -1025 507 -1024.55 507 -1024H509C509 -1025.66 507.657 -1027 506 -1027V-1025ZM-978 -1027C-979.657 -1027 -981 -1025.66 -981 -1024H-979C-979 -1024.55 -978.552 -1025 -978 -1025V-1027Z" fill="black" fill-opacity="0.1"/>
<path fill-rule="evenodd" clip-rule="evenodd" d="M14 7C14 9.20914 12.2091 11 10 11C7.79086 11 6 9.20914 6 7C6 4.79086 7.79086 3 10 3C12.2091 3 14 4.79086 14 7ZM17 17C17 19.2091 13.866 21 10 21C6.13401 21 3 19.2091 3 17C3 14.7909 6.13401 13 10 13C13.866 13 17 14.7909 17 17ZM16.5303 7.46967C16.2374 7.17678 15.7626 7.17678 15.4697 7.46967C15.1768 7.76256 15.1768 8.23744 15.4697 8.53033L16.9393 10L15.4697 11.4697C15.1768 11.7626 15.1768 12.2374 15.4697 12.5303C15.7626 12.8232 16.2374 12.8232 16.5303 12.5303L18 11.0607L19.4697 12.5303C19.7626 12.8232 20.2374 12.8232 20.5303 12.5303C20.8232 12.2374 20.8232 11.7626 20.5303 11.4697L19.0607 10L20.5303 8.53033C20.8232 8.23744 20.8232 7.76256 20.5303 7.46967C20.2374 7.17678 19.7626 7.17678 19.4697 7.46967L18 8.93934L16.5303 7.46967Z" fill="#1A1A1A"/>
</svg>
