<svg width="24" height="24" viewBox="0 0 24 24" fill="none" xmlns="http://www.w3.org/2000/svg">
<rect width="24" height="24" fill="#A6A6A6"/>
<path d="M-346 -1072C-346 -1073.1 -345.105 -1074 -344 -1074H1140C1141.1 -1074 1142 -1073.1 1142 -1072V478C1142 479.105 1141.1 480 1140 480H-344C-345.105 480 -346 479.105 -346 478V-1072Z" fill="white"/>
<path d="M-344 -1073H1140V-1075H-344V-1073ZM1141 -1072V478H1143V-1072H1141ZM1140 479H-344V481H1140V479ZM-345 478V-1072H-347V478H-345ZM-344 479C-344.552 479 -345 478.552 -345 478H-347C-347 479.657 -345.657 481 -344 481V479ZM1141 478C1141 478.552 1140.55 479 1140 479V481C1141.66 481 1143 479.657 1143 478H1141ZM1140 -1073C1140.55 -1073 1141 -1072.55 1141 -1072H1143C1143 -1073.66 1141.66 -1075 1140 -1075V-1073ZM-344 -1075C-345.657 -1075 -347 -1073.66 -347 -1072H-345C-345 -1072.55 -344.552 -1073 -344 -1073V-1075Z" fill="black" fill-opacity="0.1"/>
<circle cx="6" cy="4" r="2" stroke="#1A1A1A" stroke-width="1.5"/>
<ellipse cx="6" cy="8" rx="3" ry="2" stroke="#1A1A1A" stroke-width="1.5"/>
<circle cx="18" cy="16" r="2" stroke="#1A1A1A" stroke-width="1.5"/>
<path d="M22 12C22 6.47715 17.5228 2 12 2M12 22C6.47715 22 2 17.5228 2 12" stroke="#1A1A1A" stroke-width="1.5" stroke-linecap="round"/>
<ellipse cx="18" cy="20" rx="3" ry="2" stroke="#1A1A1A" stroke-width="1.5"/>
</svg>
