<svg width="24" height="24" viewBox="0 0 24 24" fill="none" xmlns="http://www.w3.org/2000/svg">
<rect width="24" height="24" fill="#A6A6A6"/>
<path d="M-404 -1160C-404 -1161.1 -403.105 -1162 -402 -1162H1082C1083.1 -1162 1084 -1161.1 1084 -1160V390C1084 391.105 1083.1 392 1082 392H-402C-403.105 392 -404 391.105 -404 390V-1160Z" fill="white"/>
<path d="M-402 -1161H1082V-1163H-402V-1161ZM1083 -1160V390H1085V-1160H1083ZM1082 391H-402V393H1082V391ZM-403 390V-1160H-405V390H-403ZM-402 391C-402.552 391 -403 390.552 -403 390H-405C-405 391.657 -403.657 393 -402 393V391ZM1083 390C1083 390.552 1082.55 391 1082 391V393C1083.66 393 1085 391.657 1085 390H1083ZM1082 -1161C1082.55 -1161 1083 -1160.55 1083 -1160H1085C1085 -1161.66 1083.66 -1163 1082 -1163V-1161ZM-402 -1163C-403.657 -1163 -405 -1161.66 -405 -1160H-403C-403 -1160.55 -402.552 -1161 -402 -1161V-1163Z" fill="black" fill-opacity="0.1"/>
<path d="M5 20H19" stroke="#1A1A1A" stroke-width="1.5" stroke-linecap="round"/>
<path d="M7 4V11C7 13.7614 9.23858 16 12 16V16C14.7614 16 17 13.7614 17 11V4" stroke="#1A1A1A" stroke-width="1.5" stroke-linecap="round"/>
</svg>
