<svg width="24" height="24" viewBox="0 0 24 24" fill="none" xmlns="http://www.w3.org/2000/svg">
<rect width="24" height="24" fill="#A6A6A6"/>
<path d="M-172 -325C-172 -326.105 -171.105 -327 -170 -327H1314C1315.1 -327 1316 -326.105 1316 -325V1225C1316 1226.1 1315.1 1227 1314 1227H-170C-171.105 1227 -172 1226.1 -172 1225V-325Z" fill="white"/>
<path d="M-170 -326H1314V-328H-170V-326ZM1315 -325V1225H1317V-325H1315ZM1314 1226H-170V1228H1314V1226ZM-171 1225V-325H-173V1225H-171ZM-170 1226C-170.552 1226 -171 1225.55 -171 1225H-173C-173 1226.66 -171.657 1228 -170 1228V1226ZM1315 1225C1315 1225.55 1314.55 1226 1314 1226V1228C1315.66 1228 1317 1226.66 1317 1225H1315ZM1314 -326C1314.55 -326 1315 -325.552 1315 -325H1317C1317 -326.657 1315.66 -328 1314 -328V-326ZM-170 -328C-171.657 -328 -173 -326.657 -173 -325H-171C-171 -325.552 -170.552 -326 -170 -326V-328Z" fill="black" fill-opacity="0.1"/>
<path d="M12 8V16M16 12H8M18 2H6C3.79086 2 2 3.79086 2 6V18C2 20.2091 3.79086 22 6 22H18C20.2091 22 22 20.2091 22 18V6C22 3.79086 20.2091 2 18 2Z" stroke="#1A1A1A" stroke-width="1.5" stroke-linecap="round" stroke-linejoin="round"/>
</svg>
