<svg width="24" height="24" viewBox="0 0 24 24" fill="none" xmlns="http://www.w3.org/2000/svg">
<rect width="24" height="24" fill="#A6A6A6"/>
<path d="M-864 -325C-864 -326.105 -863.105 -327 -862 -327H622C623.105 -327 624 -326.105 624 -325V1225C624 1226.1 623.105 1227 622 1227H-862C-863.105 1227 -864 1226.1 -864 1225V-325Z" fill="white"/>
<path d="M-862 -326H622V-328H-862V-326ZM623 -325V1225H625V-325H623ZM622 1226H-862V1228H622V1226ZM-863 1225V-325H-865V1225H-863ZM-862 1226C-862.552 1226 -863 1225.55 -863 1225H-865C-865 1226.66 -863.657 1228 -862 1228V1226ZM623 1225C623 1225.55 622.552 1226 622 1226V1228C623.657 1228 625 1226.66 625 1225H623ZM622 -326C622.552 -326 623 -325.552 623 -325H625C625 -326.657 623.657 -328 622 -328V-326ZM-862 -328C-863.657 -328 -865 -326.657 -865 -325H-863C-863 -325.552 -862.552 -326 -862 -326V-328Z" fill="black" fill-opacity="0.1"/>
<path fill-rule="evenodd" clip-rule="evenodd" d="M6 2H18C20.2091 2 22 3.79086 22 6V18C22 20.2091 20.2091 22 18 22H6C3.79086 22 2 20.2091 2 18V6C2 3.79086 3.79086 2 6 2ZM12 7.25C12.4142 7.25 12.75 7.58579 12.75 8V11.25H16C16.4142 11.25 16.75 11.5858 16.75 12C16.75 12.4142 16.4142 12.75 16 12.75H12.75V16C12.75 16.4142 12.4142 16.75 12 16.75C11.5858 16.75 11.25 16.4142 11.25 16V12.75H8C7.58579 12.75 7.25 12.4142 7.25 12C7.25 11.5858 7.58579 11.25 8 11.25H11.25V8C11.25 7.58579 11.5858 7.25 12 7.25Z" fill="#1A1A1A"/>
</svg>
