<svg width="24" height="24" viewBox="0 0 24 24" fill="none" xmlns="http://www.w3.org/2000/svg">
<rect width="24" height="24" fill="#A6A6A6"/>
<path d="M-578 -1208C-578 -1209.1 -577.105 -1210 -576 -1210H908C909.105 -1210 910 -1209.1 910 -1208V342C910 343.105 909.105 344 908 344H-576C-577.105 344 -578 343.105 -578 342V-1208Z" fill="white"/>
<path d="M-576 -1209H908V-1211H-576V-1209ZM909 -1208V342H911V-1208H909ZM908 343H-576V345H908V343ZM-577 342V-1208H-579V342H-577ZM-576 343C-576.552 343 -577 342.552 -577 342H-579C-579 343.657 -577.657 345 -576 345V343ZM909 342C909 342.552 908.552 343 908 343V345C909.657 345 911 343.657 911 342H909ZM908 -1209C908.552 -1209 909 -1208.55 909 -1208H911C911 -1209.66 909.657 -1211 908 -1211V-1209ZM-576 -1211C-577.657 -1211 -579 -1209.66 -579 -1208H-577C-577 -1208.55 -576.552 -1209 -576 -1209V-1211Z" fill="black" fill-opacity="0.1"/>
<path d="M3 6C3 3.79086 4.79086 2 7 2H17C19.2091 2 21 3.79086 21 6V18C21 20.2091 19.2091 22 17 22H7C4.79086 22 3 20.2091 3 18V6Z" stroke="#1A1A1A" stroke-width="1.5" stroke-linejoin="round"/>
<path d="M8 17H12" stroke="#1A1A1A" stroke-width="1.5" stroke-linecap="round"/>
<path d="M8 12H16" stroke="#1A1A1A" stroke-width="1.5" stroke-linecap="round"/>
<path d="M8 7H16" stroke="#1A1A1A" stroke-width="1.5" stroke-linecap="round"/>
</svg>
