<svg width="24" height="24" viewBox="0 0 24 24" fill="none" xmlns="http://www.w3.org/2000/svg">
<rect width="24" height="24" fill="#A6A6A6"/>
<path d="M-1270 -1208C-1270 -1209.1 -1269.1 -1210 -1268 -1210H216C217.105 -1210 218 -1209.1 218 -1208V342C218 343.105 217.105 344 216 344H-1268C-1269.1 344 -1270 343.105 -1270 342V-1208Z" fill="white"/>
<path d="M-1268 -1209H216V-1211H-1268V-1209ZM217 -1208V342H219V-1208H217ZM216 343H-1268V345H216V343ZM-1269 342V-1208H-1271V342H-1269ZM-1268 343C-1268.55 343 -1269 342.552 -1269 342H-1271C-1271 343.657 -1269.66 345 -1268 345V343ZM217 342C217 342.552 216.552 343 216 343V345C217.657 345 219 343.657 219 342H217ZM216 -1209C216.552 -1209 217 -1208.55 217 -1208H219C219 -1209.66 217.657 -1211 216 -1211V-1209ZM-1268 -1211C-1269.66 -1211 -1271 -1209.66 -1271 -1208H-1269C-1269 -1208.55 -1268.55 -1209 -1268 -1209V-1211Z" fill="black" fill-opacity="0.1"/>
<path fill-rule="evenodd" clip-rule="evenodd" d="M7 2C4.79086 2 3 3.79086 3 6V18C3 20.2091 4.79086 22 7 22H17C19.2091 22 21 20.2091 21 18V6C21 3.79086 19.2091 2 17 2H7ZM8 16.25C7.58579 16.25 7.25 16.5858 7.25 17C7.25 17.4142 7.58579 17.75 8 17.75H12C12.4142 17.75 12.75 17.4142 12.75 17C12.75 16.5858 12.4142 16.25 12 16.25H8ZM7.25 12C7.25 11.5858 7.58579 11.25 8 11.25H16C16.4142 11.25 16.75 11.5858 16.75 12C16.75 12.4142 16.4142 12.75 16 12.75H8C7.58579 12.75 7.25 12.4142 7.25 12ZM8 6.25C7.58579 6.25 7.25 6.58579 7.25 7C7.25 7.41421 7.58579 7.75 8 7.75H16C16.4142 7.75 16.75 7.41421 16.75 7C16.75 6.58579 16.4142 6.25 16 6.25H8Z" fill="#1A1A1A"/>
</svg>
