<svg width="24" height="24" viewBox="0 0 24 24" fill="none" xmlns="http://www.w3.org/2000/svg">
<rect width="24" height="24" fill="#A6A6A6"/>
<path d="M-172 -613C-172 -614.105 -171.105 -615 -170 -615H1314C1315.1 -615 1316 -614.105 1316 -613V937C1316 938.105 1315.1 939 1314 939H-170C-171.105 939 -172 938.105 -172 937V-613Z" fill="white"/>
<path d="M-170 -614H1314V-616H-170V-614ZM1315 -613V937H1317V-613H1315ZM1314 938H-170V940H1314V938ZM-171 937V-613H-173V937H-171ZM-170 938C-170.552 938 -171 937.552 -171 937H-173C-173 938.657 -171.657 940 -170 940V938ZM1315 937C1315 937.552 1314.55 938 1314 938V940C1315.66 940 1317 938.657 1317 937H1315ZM1314 -614C1314.55 -614 1315 -613.552 1315 -613H1317C1317 -614.657 1315.66 -616 1314 -616V-614ZM-170 -616C-171.657 -616 -173 -614.657 -173 -613H-171C-171 -613.552 -170.552 -614 -170 -614V-616Z" fill="black" fill-opacity="0.1"/>
<path d="M14 12C14 13.1046 13.1046 14 12 14C10.8954 14 10 13.1046 10 12C10 10.8954 10.8954 10 12 10C13.1046 10 14 10.8954 14 12Z" stroke="#1A1A1A" stroke-width="1.5"/>
<path d="M14 4C14 5.10457 13.1046 6 12 6C10.8954 6 10 5.10457 10 4C10 2.89543 10.8954 2 12 2C13.1046 2 14 2.89543 14 4Z" stroke="#1A1A1A" stroke-width="1.5"/>
<path d="M14 20C14 21.1046 13.1046 22 12 22C10.8954 22 10 21.1046 10 20C10 18.8954 10.8954 18 12 18C13.1046 18 14 18.8954 14 20Z" stroke="#1A1A1A" stroke-width="1.5"/>
</svg>
