<svg width="24" height="24" viewBox="0 0 24 24" fill="none" xmlns="http://www.w3.org/2000/svg">
<rect width="24" height="24" fill="#A6A6A6"/>
<path d="M-864 -613C-864 -614.105 -863.105 -615 -862 -615H622C623.105 -615 624 -614.105 624 -613V937C624 938.105 623.105 939 622 939H-862C-863.105 939 -864 938.105 -864 937V-613Z" fill="white"/>
<path d="M-862 -614H622V-616H-862V-614ZM623 -613V937H625V-613H623ZM622 938H-862V940H622V938ZM-863 937V-613H-865V937H-863ZM-862 938C-862.552 938 -863 937.552 -863 937H-865C-865 938.657 -863.657 940 -862 940V938ZM623 937C623 937.552 622.552 938 622 938V940C623.657 940 625 938.657 625 937H623ZM622 -614C622.552 -614 623 -613.552 623 -613H625C625 -614.657 623.657 -616 622 -616V-614ZM-862 -616C-863.657 -616 -865 -614.657 -865 -613H-863C-863 -613.552 -862.552 -614 -862 -614V-616Z" fill="black" fill-opacity="0.1"/>
<path fill-rule="evenodd" clip-rule="evenodd" d="M10 6.25C10 5.55964 10.5596 5 11.25 5C11.9404 5 12.5 5.55964 12.5 6.25C12.5 6.94036 11.9404 7.5 11.25 7.5C10.5596 7.5 10 6.94036 10 6.25ZM10 11.25C10 10.5596 10.5596 10 11.25 10C11.9404 10 12.5 10.5596 12.5 11.25C12.5 11.9404 11.9404 12.5 11.25 12.5C10.5596 12.5 10 11.9404 10 11.25ZM11.25 15C10.5596 15 10 15.5596 10 16.25C10 16.9404 10.5596 17.5 11.25 17.5C11.9404 17.5 12.5 16.9404 12.5 16.25C12.5 15.5596 11.9404 15 11.25 15Z" fill="#1A1A1A"/>
</svg>
