<svg width="24" height="24" viewBox="0 0 24 24" fill="none" xmlns="http://www.w3.org/2000/svg">
<rect width="24" height="24" fill="#A6A6A6"/>
<path d="M-922 -1072C-922 -1073.1 -921.105 -1074 -920 -1074H564C565.105 -1074 566 -1073.1 566 -1072V478C566 479.105 565.105 480 564 480H-920C-921.105 480 -922 479.105 -922 478V-1072Z" fill="white"/>
<path d="M-920 -1073H564V-1075H-920V-1073ZM565 -1072V478H567V-1072H565ZM564 479H-920V481H564V479ZM-921 478V-1072H-923V478H-921ZM-920 479C-920.552 479 -921 478.552 -921 478H-923C-923 479.657 -921.657 481 -920 481V479ZM565 478C565 478.552 564.552 479 564 479V481C565.657 481 567 479.657 567 478H565ZM564 -1073C564.552 -1073 565 -1072.55 565 -1072H567C567 -1073.66 565.657 -1075 564 -1075V-1073ZM-920 -1075C-921.657 -1075 -923 -1073.66 -923 -1072H-921C-921 -1072.55 -920.552 -1073 -920 -1073V-1075Z" fill="black" fill-opacity="0.1"/>
<path fill-rule="evenodd" clip-rule="evenodd" d="M12.5815 17.9185C12.5815 18.5781 12.6977 19.2107 12.9106 19.7968C12.2949 19.9299 11.6556 20 11 20C6.02944 20 2 15.9706 2 11C2 6.02944 6.02944 2 11 2C15.9706 2 20 6.02944 20 11C20 11.583 19.9446 12.153 19.8387 12.7051C19.2869 12.5192 18.696 12.4185 18.0815 12.4185C15.044 12.4185 12.5815 14.8809 12.5815 17.9185ZM11 13.75C9.54938 13.75 8.18828 14.1238 7.00546 14.7797C6.64321 14.9805 6.18671 14.8497 5.98584 14.4875C5.78496 14.1252 5.91578 13.6687 6.27802 13.4679C7.67773 12.6917 9.28842 12.25 11 12.25C11.3656 12.25 11.7268 12.2702 12.0824 12.3095C12.4941 12.355 12.791 12.7256 12.7455 13.1373C12.7 13.549 12.3293 13.8459 11.9176 13.8004C11.6166 13.7671 11.3104 13.75 11 13.75ZM11 5C12.6569 5 14 6.34315 14 8C14 9.65685 12.6569 11 11 11C9.34315 11 8 9.65685 8 8C8 6.34315 9.34315 5 11 5ZM22 18C22 20.2091 20.2091 22 18 22C15.7909 22 14 20.2091 14 18C14 15.7909 15.7909 14 18 14C20.2091 14 22 15.7909 22 18ZM18.8839 19.9445C19.1768 20.2373 19.6516 20.2373 19.9445 19.9445C20.2374 19.6516 20.2374 19.1767 19.9445 18.8838L19.0607 18L19.9445 17.1162C20.2374 16.8233 20.2374 16.3484 19.9445 16.0555C19.6516 15.7626 19.1767 15.7626 18.8839 16.0555L18.0001 16.9393L17.1161 16.0554C16.8232 15.7625 16.3483 15.7625 16.0554 16.0554C15.7625 16.3483 15.7625 16.8231 16.0554 17.116L16.9394 18L16.0554 18.884C15.7625 19.1769 15.7625 19.6517 16.0554 19.9446C16.3483 20.2375 16.8232 20.2375 17.1161 19.9446L18.0001 19.0606L18.8839 19.9445Z" fill="#1A1A1A"/>
</svg>
