<svg width="24" height="24" viewBox="0 0 24 24" fill="none" xmlns="http://www.w3.org/2000/svg">
<rect width="24" height="24" fill="#A6A6A6"/>
<path d="M-114 -1024C-114 -1025.1 -113.105 -1026 -112 -1026H1372C1373.1 -1026 1374 -1025.1 1374 -1024V526C1374 527.105 1373.1 528 1372 528H-112C-113.105 528 -114 527.105 -114 526V-1024Z" fill="white"/>
<path d="M-112 -1025H1372V-1027H-112V-1025ZM1373 -1024V526H1375V-1024H1373ZM1372 527H-112V529H1372V527ZM-113 526V-1024H-115V526H-113ZM-112 527C-112.552 527 -113 526.552 -113 526H-115C-115 527.657 -113.657 529 -112 529V527ZM1373 526C1373 526.552 1372.55 527 1372 527V529C1373.66 529 1375 527.657 1375 526H1373ZM1372 -1025C1372.55 -1025 1373 -1024.55 1373 -1024H1375C1375 -1025.66 1373.66 -1027 1372 -1027V-1025ZM-112 -1027C-113.657 -1027 -115 -1025.66 -115 -1024H-113C-113 -1024.55 -112.552 -1025 -112 -1025V-1027Z" fill="black" fill-opacity="0.1"/>
<ellipse cx="12" cy="17.5" rx="7" ry="3.5" stroke="#1A1A1A" stroke-width="1.5" stroke-linejoin="round"/>
<circle cx="12" cy="7" r="4" stroke="#1A1A1A" stroke-width="1.5" stroke-linejoin="round"/>
</svg>
