<svg width="24" height="24" viewBox="0 0 24 24" fill="none" xmlns="http://www.w3.org/2000/svg">
<rect width="24" height="24" fill="#A6A6A6"/>
<path d="M-806 -1024C-806 -1025.1 -805.105 -1026 -804 -1026H680C681.105 -1026 682 -1025.1 682 -1024V526C682 527.105 681.105 528 680 528H-804C-805.105 528 -806 527.105 -806 526V-1024Z" fill="white"/>
<path d="M-804 -1025H680V-1027H-804V-1025ZM681 -1024V526H683V-1024H681ZM680 527H-804V529H680V527ZM-805 526V-1024H-807V526H-805ZM-804 527C-804.552 527 -805 526.552 -805 526H-807C-807 527.657 -805.657 529 -804 529V527ZM681 526C681 526.552 680.552 527 680 527V529C681.657 529 683 527.657 683 526H681ZM680 -1025C680.552 -1025 681 -1024.55 681 -1024H683C683 -1025.66 681.657 -1027 680 -1027V-1025ZM-804 -1027C-805.657 -1027 -807 -1025.66 -807 -1024H-805C-805 -1024.55 -804.552 -1025 -804 -1025V-1027Z" fill="black" fill-opacity="0.1"/>
<path fill-rule="evenodd" clip-rule="evenodd" d="M12 11C14.2091 11 16 9.20914 16 7C16 4.79086 14.2091 3 12 3C9.79086 3 8 4.79086 8 7C8 9.20914 9.79086 11 12 11ZM12 21C15.866 21 19 19.2091 19 17C19 14.7909 15.866 13 12 13C8.13401 13 5 14.7909 5 17C5 19.2091 8.13401 21 12 21Z" fill="#1A1A1A"/>
</svg>
