<svg width="24" height="24" viewBox="0 0 24 24" fill="none" xmlns="http://www.w3.org/2000/svg">
<rect width="24" height="24" fill="#A6A6A6"/>
<path d="M-783 -38C-783 -39.1046 -782.105 -40 -781 -40H703C704.105 -40 705 -39.1046 705 -38V1512C705 1513.1 704.105 1514 703 1514H-781C-782.105 1514 -783 1513.1 -783 1512V-38Z" fill="white"/>
<path d="M-781 -39H703V-41H-781V-39ZM704 -38V1512H706V-38H704ZM703 1513H-781V1515H703V1513ZM-782 1512V-38H-784V1512H-782ZM-781 1513C-781.552 1513 -782 1512.55 -782 1512H-784C-784 1513.66 -782.657 1515 -781 1515V1513ZM704 1512C704 1512.55 703.552 1513 703 1513V1515C704.657 1515 706 1513.66 706 1512H704ZM703 -39C703.552 -39 704 -38.5523 704 -38H706C706 -39.6569 704.657 -41 703 -41V-39ZM-781 -41C-782.657 -41 -784 -39.6569 -784 -38H-782C-782 -38.5523 -781.552 -39 -781 -39V-41Z" fill="black" fill-opacity="0.1"/>
<path d="M7.5 11.5L16.5 2.5" stroke="#1A1A1A" stroke-width="1.5" stroke-linecap="round"/>
<path d="M7.5 11.5L16.5 20.5" stroke="#1A1A1A" stroke-width="1.5" stroke-linecap="round"/>
</svg>
