<svg width="24" height="24" viewBox="0 0 24 24" fill="none" xmlns="http://www.w3.org/2000/svg">
<rect width="24" height="24" fill="#A6A6A6"/>
<path d="M-172 -661C-172 -662.105 -171.105 -663 -170 -663H1314C1315.1 -663 1316 -662.105 1316 -661V889C1316 890.105 1315.1 891 1314 891H-170C-171.105 891 -172 890.105 -172 889V-661Z" fill="white"/>
<path d="M-170 -662H1314V-664H-170V-662ZM1315 -661V889H1317V-661H1315ZM1314 890H-170V892H1314V890ZM-171 889V-661H-173V889H-171ZM-170 890C-170.552 890 -171 889.552 -171 889H-173C-173 890.657 -171.657 892 -170 892V890ZM1315 889C1315 889.552 1314.55 890 1314 890V892C1315.66 892 1317 890.657 1317 889H1315ZM1314 -662C1314.55 -662 1315 -661.552 1315 -661H1317C1317 -662.657 1315.66 -664 1314 -664V-662ZM-170 -664C-171.657 -664 -173 -662.657 -173 -661H-171C-171 -661.552 -170.552 -662 -170 -662V-664Z" fill="black" fill-opacity="0.1"/>
<path d="M12 18H21M12 12H18M12 6H15M3 8.375L4.50518 6.68167C5.30076 5.78664 6.69924 5.78664 7.49482 6.68167L9 8.375M6 6V18" stroke="#1A1A1A" stroke-width="1.5" stroke-linecap="round"/>
</svg>
