<svg width="24" height="24" viewBox="0 0 24 24" fill="none" xmlns="http://www.w3.org/2000/svg">
<g id="Icon_Component">
<path id="&#244;&#128;&#140;&#178;" d="M7.58076 22C7.26618 22 7.02117 21.8929 6.84574 21.6786C6.67635 21.4704 6.59165 21.1888 6.59165 20.8337V18.4461H6.15608C5.25469 18.4461 4.49546 18.2839 3.8784 17.9594C3.26134 17.6288 2.7925 17.1513 2.47187 16.5268C2.15729 15.9024 2 15.1402 2 14.2402V7.2059C2 6.30594 2.15729 5.54374 2.47187 4.91928C2.7925 4.29483 3.26134 3.82036 3.8784 3.49589C4.49546 3.1653 5.25469 3 6.15608 3H17.8439C18.7453 3 19.5045 3.1653 20.1216 3.49589C20.7387 3.82036 21.2045 4.29483 21.5191 4.91928C21.8397 5.54374 22 6.30594 22 7.2059V14.2402C22 15.1402 21.8397 15.9024 21.5191 16.5268C21.2045 17.1513 20.7387 17.6288 20.1216 17.9594C19.5045 18.2839 18.7453 18.4461 17.8439 18.4461H12.0181L8.88748 21.2653C8.61524 21.5102 8.38536 21.6939 8.19782 21.8163C8.01028 21.9388 7.8046 22 7.58076 22ZM7.95281 20.3195L10.8566 17.3992C11.026 17.2217 11.1894 17.1054 11.3466 17.0503C11.5039 16.9952 11.7096 16.9676 11.9637 16.9676H17.8439C18.7574 16.9676 19.435 16.738 19.8766 16.2789C20.3182 15.8136 20.539 15.131 20.539 14.231V7.2059C20.539 6.31207 20.3182 5.63557 19.8766 5.17641C19.435 4.71113 18.7574 4.47849 17.8439 4.47849H6.15608C5.23654 4.47849 4.55596 4.71113 4.11434 5.17641C3.67877 5.63557 3.46098 6.31207 3.46098 7.2059V14.231C3.46098 15.131 3.67877 15.8136 4.11434 16.2789C4.55596 16.738 5.23654 16.9676 6.15608 16.9676H7.27223C7.52027 16.9676 7.6957 17.0197 7.79855 17.1237C7.90139 17.2278 7.95281 17.4053 7.95281 17.6564V20.3195ZM7.32668 8.1885C7.17544 8.1885 7.0484 8.13646 6.94555 8.03238C6.84876 7.92831 6.80036 7.8028 6.80036 7.65587C6.80036 7.50894 6.84876 7.3865 6.94555 7.28855C7.0484 7.18447 7.17544 7.13243 7.32668 7.13243H16.5554C16.7066 7.13243 16.8306 7.18447 16.9274 7.28855C17.0302 7.3865 17.0817 7.50894 17.0817 7.65587C17.0817 7.8028 17.0302 7.92831 16.9274 8.03238C16.8306 8.13646 16.7066 8.1885 16.5554 8.1885H7.32668ZM7.32668 11.173C7.17544 11.173 7.0484 11.1241 6.94555 11.0261C6.84876 10.922 6.80036 10.7935 6.80036 10.6404C6.80036 10.4996 6.84876 10.3772 6.94555 10.2731C7.0484 10.1629 7.17544 10.1078 7.32668 10.1078H16.5554C16.7066 10.1078 16.8306 10.1629 16.9274 10.2731C17.0302 10.3772 17.0817 10.4996 17.0817 10.6404C17.0817 10.7935 17.0302 10.922 16.9274 11.0261C16.8306 11.1241 16.7066 11.173 16.5554 11.173H7.32668ZM7.32668 14.1667C7.17544 14.1667 7.0484 14.1178 6.94555 14.0198C6.84876 13.9157 6.80036 13.7902 6.80036 13.6433C6.80036 13.4903 6.84876 13.3617 6.94555 13.2576C7.0484 13.1535 7.17544 13.1015 7.32668 13.1015H13.3249C13.4701 13.1015 13.5941 13.1535 13.6969 13.2576C13.7998 13.3617 13.8512 13.4903 13.8512 13.6433C13.8512 13.7902 13.7998 13.9157 13.6969 14.0198C13.5941 14.1178 13.4701 14.1667 13.3249 14.1667H7.32668Z" fill="#1A1A1A"/>
</g>
</svg>
