<svg width="24" height="24" viewBox="0 0 24 24" fill="none" xmlns="http://www.w3.org/2000/svg">
<rect width="24" height="24" fill="#A6A6A6"/>
<path d="M-636 -1024C-636 -1025.1 -635.105 -1026 -634 -1026H850C851.105 -1026 852 -1025.1 852 -1024V526C852 527.105 851.105 528 850 528H-634C-635.105 528 -636 527.105 -636 526V-1024Z" fill="white"/>
<path d="M-634 -1025H850V-1027H-634V-1025ZM851 -1024V526H853V-1024H851ZM850 527H-634V529H850V527ZM-635 526V-1024H-637V526H-635ZM-634 527C-634.552 527 -635 526.552 -635 526H-637C-637 527.657 -635.657 529 -634 529V527ZM851 526C851 526.552 850.552 527 850 527V529C851.657 529 853 527.657 853 526H851ZM850 -1025C850.552 -1025 851 -1024.55 851 -1024H853C853 -1025.66 851.657 -1027 850 -1027V-1025ZM-634 -1027C-635.657 -1027 -637 -1025.66 -637 -1024H-635C-635 -1024.55 -634.552 -1025 -634 -1025V-1027Z" fill="black" fill-opacity="0.1"/>
<path d="M18.5588 19.5488C17.5654 16.8918 15.0036 15 12 15C8.99638 15 6.4346 16.8918 5.44117 19.5488M18.5588 19.5488C20.6672 17.7154 22 15.0134 22 12C22 6.47715 17.5228 2 12 2C6.47715 2 2 6.47715 2 12C2 15.0134 3.33285 17.7154 5.44117 19.5488M18.5588 19.5488C16.8031 21.0756 14.5095 22 12 22C9.49052 22 7.19694 21.0756 5.44117 19.5488" stroke="#1A1A1A" stroke-width="1.5" stroke-linejoin="round"/>
<circle cx="3" cy="3" r="3" transform="matrix(1 0 0 -1 9 12)" stroke="#1A1A1A" stroke-width="1.5" stroke-linejoin="round"/>
</svg>
