<svg width="24" height="24" viewBox="0 0 24 24" fill="none" xmlns="http://www.w3.org/2000/svg">
<rect width="24" height="24" fill="#A6A6A6"/>
<path d="M-1328 -1024C-1328 -1025.1 -1327.1 -1026 -1326 -1026H158C159.105 -1026 160 -1025.1 160 -1024V526C160 527.105 159.105 528 158 528H-1326C-1327.1 528 -1328 527.105 -1328 526V-1024Z" fill="white"/>
<path d="M-1326 -1025H158V-1027H-1326V-1025ZM159 -1024V526H161V-1024H159ZM158 527H-1326V529H158V527ZM-1327 526V-1024H-1329V526H-1327ZM-1326 527C-1326.55 527 -1327 526.552 -1327 526H-1329C-1329 527.657 -1327.66 529 -1326 529V527ZM159 526C159 526.552 158.552 527 158 527V529C159.657 529 161 527.657 161 526H159ZM158 -1025C158.552 -1025 159 -1024.55 159 -1024H161C161 -1025.66 159.657 -1027 158 -1027V-1025ZM-1326 -1027C-1327.66 -1027 -1329 -1025.66 -1329 -1024H-1327C-1327 -1024.55 -1326.55 -1025 -1326 -1025V-1027Z" fill="black" fill-opacity="0.1"/>
<path fill-rule="evenodd" clip-rule="evenodd" d="M22 12C22 15.0134 20.6672 17.7154 18.5588 19.5488C16.8031 21.0756 14.5095 22 12 22C9.49052 22 7.19694 21.0756 5.44117 19.5488C3.33285 17.7154 2 15.0134 2 12C2 6.47715 6.47715 2 12 2C17.5228 2 22 6.47715 22 12ZM15 9C15 7.34315 13.6569 6 12 6C10.3431 6 9 7.34315 9 9C9 10.6569 10.3431 12 12 12C13.6569 12 15 10.6569 15 9ZM12 14C13.7127 14 14.839 14.9166 15.6332 15.9355C16.2257 16.6957 16.0218 17.8107 15.1622 18.2467C14.2124 18.7285 13.1379 19 12 19C10.8621 19 9.78761 18.7285 8.83779 18.2467C7.97822 17.8107 7.77427 16.6956 8.3668 15.9355C9.16096 14.9166 10.2873 14 12 14Z" fill="#1A1A1A"/>
</svg>
