<svg width="24" height="24" viewBox="0 0 24 24" fill="none" xmlns="http://www.w3.org/2000/svg">
<rect width="24" height="24" fill="#A6A6A6"/>
<path d="M-578 -229C-578 -230.105 -577.105 -231 -576 -231H908C909.105 -231 910 -230.105 910 -229V1321C910 1322.1 909.105 1323 908 1323H-576C-577.105 1323 -578 1322.1 -578 1321V-229Z" fill="white"/>
<path d="M-576 -230H908V-232H-576V-230ZM909 -229V1321H911V-229H909ZM908 1322H-576V1324H908V1322ZM-577 1321V-229H-579V1321H-577ZM-576 1322C-576.552 1322 -577 1321.55 -577 1321H-579C-579 1322.66 -577.657 1324 -576 1324V1322ZM909 1321C909 1321.55 908.552 1322 908 1322V1324C909.657 1324 911 1322.66 911 1321H909ZM908 -230C908.552 -230 909 -229.552 909 -229H911C911 -230.657 909.657 -232 908 -232V-230ZM-576 -232C-577.657 -232 -579 -230.657 -579 -229H-577C-577 -229.552 -576.552 -230 -576 -230V-232Z" fill="black" fill-opacity="0.1"/>
<path d="M21 20.75L3 2.75M7 6.75V13.75C7 16.5114 9.23858 18.75 12 18.75C13.8931 18.75 15.5404 17.6979 16.3893 16.1466M4 11.75V13.75C4 18.1683 7.58172 21.75 12 21.75C14.6397 21.75 16.9808 20.4715 18.4378 18.5M20 11.75V13.75C20 14.368 19.9299 14.9696 19.7973 15.5473M17 12.75V6.75C17 3.98858 14.7614 1.75 12 1.75C10.3643 1.75 8.91201 2.53546 7.99979 3.74979" stroke="#1A1A1A" stroke-width="1.5" stroke-linecap="round"/>
</svg>
