<svg width="24" height="24" viewBox="0 0 24 24" fill="none" xmlns="http://www.w3.org/2000/svg">
<rect width="24" height="24" fill="#A6A6A6"/>
<path d="M-520 -613C-520 -614.105 -519.105 -615 -518 -615H966C967.105 -615 968 -614.105 968 -613V937C968 938.105 967.105 939 966 939H-518C-519.105 939 -520 938.105 -520 937V-613Z" fill="white"/>
<path d="M-518 -614H966V-616H-518V-614ZM967 -613V937H969V-613H967ZM966 938H-518V940H966V938ZM-519 937V-613H-521V937H-519ZM-518 938C-518.552 938 -519 937.552 -519 937H-521C-521 938.657 -519.657 940 -518 940V938ZM967 937C967 937.552 966.552 938 966 938V940C967.657 940 969 938.657 969 937H967ZM966 -614C966.552 -614 967 -613.552 967 -613H969C969 -614.657 967.657 -616 966 -616V-614ZM-518 -616C-519.657 -616 -521 -614.657 -521 -613H-519C-519 -613.552 -518.552 -614 -518 -614V-616Z" fill="black" fill-opacity="0.1"/>
<path d="M22 22L20 20M2 11.5C2 6.25329 6.25329 2 11.5 2C16.7467 2 21 6.25329 21 11.5C21 16.7467 16.7467 21 11.5 21C6.25329 21 2 16.7467 2 11.5Z" stroke="#1A1A1A" stroke-width="1.5" stroke-linecap="round" stroke-linejoin="round"/>
</svg>
