<svg width="24" height="24" viewBox="0 0 24 24" fill="none" xmlns="http://www.w3.org/2000/svg">
<rect width="24" height="24" fill="#A6A6A6"/>
<path d="M-1212 -613C-1212 -614.105 -1211.1 -615 -1210 -615H274C275.105 -615 276 -614.105 276 -613V937C276 938.105 275.105 939 274 939H-1210C-1211.1 939 -1212 938.105 -1212 937V-613Z" fill="white"/>
<path d="M-1210 -614H274V-616H-1210V-614ZM275 -613V937H277V-613H275ZM274 938H-1210V940H274V938ZM-1211 937V-613H-1213V937H-1211ZM-1210 938C-1210.55 938 -1211 937.552 -1211 937H-1213C-1213 938.657 -1211.66 940 -1210 940V938ZM275 937C275 937.552 274.552 938 274 938V940C275.657 940 277 938.657 277 937H275ZM274 -614C274.552 -614 275 -613.552 275 -613H277C277 -614.657 275.657 -616 274 -616V-614ZM-1210 -616C-1211.66 -616 -1213 -614.657 -1213 -613H-1211C-1211 -613.552 -1210.55 -614 -1210 -614V-616Z" fill="black" fill-opacity="0.1"/>
<path fill-rule="evenodd" clip-rule="evenodd" d="M20.25 11.5C20.25 16.3325 16.3325 20.25 11.5 20.25C6.66751 20.25 2.75 16.3325 2.75 11.5C2.75 6.66751 6.66751 2.75 11.5 2.75C16.3325 2.75 20.25 6.66751 20.25 11.5ZM11.5 21.75C17.1609 21.75 21.75 17.1609 21.75 11.5C21.75 5.83908 17.1609 1.25 11.5 1.25C5.83908 1.25 1.25 5.83908 1.25 11.5C1.25 17.1609 5.83908 21.75 11.5 21.75ZM20.5303 19.4697C20.2374 19.1768 19.7626 19.1768 19.4697 19.4697C19.1768 19.7626 19.1768 20.2374 19.4697 20.5303L21.4696 22.5303C21.7625 22.8232 22.2374 22.8232 22.5303 22.5303C22.8232 22.2374 22.8232 21.7625 22.5303 21.4696L20.5303 19.4697Z" fill="#1A1A1A"/>
</svg>
