<svg width="24" height="24" viewBox="0 0 24 24" fill="none" xmlns="http://www.w3.org/2000/svg">
<rect width="24" height="24" fill="#A6A6A6"/>
<path d="M-346 -229C-346 -230.105 -345.105 -231 -344 -231H1140C1141.1 -231 1142 -230.105 1142 -229V1321C1142 1322.1 1141.1 1323 1140 1323H-344C-345.105 1323 -346 1322.1 -346 1321V-229Z" fill="white"/>
<path d="M-344 -230H1140V-232H-344V-230ZM1141 -229V1321H1143V-229H1141ZM1140 1322H-344V1324H1140V1322ZM-345 1321V-229H-347V1321H-345ZM-344 1322C-344.552 1322 -345 1321.55 -345 1321H-347C-347 1322.66 -345.657 1324 -344 1324V1322ZM1141 1321C1141 1321.55 1140.55 1322 1140 1322V1324C1141.66 1324 1143 1322.66 1143 1321H1141ZM1140 -230C1140.55 -230 1141 -229.552 1141 -229H1143C1143 -230.657 1141.66 -232 1140 -232V-230ZM-344 -232C-345.657 -232 -347 -230.657 -347 -229H-345C-345 -229.552 -344.552 -230 -344 -230V-232Z" fill="black" fill-opacity="0.1"/>
<path d="M21 21L19.5 19.5M8.625 21H7C4.79086 21 3 19.2091 3 17V7C3 4.79086 4.79086 3 7 3H17C19.2091 3 21 4.79086 21 7V8.0625M21 15C21 18.3137 18.3137 21 15 21C11.6863 21 9 18.3137 9 15C9 11.6863 11.6863 9 15 9C18.3137 9 21 11.6863 21 15Z" stroke="#1A1A1A" stroke-width="1.5" stroke-linecap="round"/>
</svg>
