<svg width="24" height="24" viewBox="0 0 24 24" fill="none" xmlns="http://www.w3.org/2000/svg">
<rect width="24" height="24" fill="#A6A6A6"/>
<path d="M-520 -661C-520 -662.105 -519.105 -663 -518 -663H966C967.105 -663 968 -662.105 968 -661V889C968 890.105 967.105 891 966 891H-518C-519.105 891 -520 890.105 -520 889V-661Z" fill="white"/>
<path d="M-518 -662H966V-664H-518V-662ZM967 -661V889H969V-661H967ZM966 890H-518V892H966V890ZM-519 889V-661H-521V889H-519ZM-518 890C-518.552 890 -519 889.552 -519 889H-521C-521 890.657 -519.657 892 -518 892V890ZM967 889C967 889.552 966.552 890 966 890V892C967.657 892 969 890.657 969 889H967ZM966 -662C966.552 -662 967 -661.552 967 -661H969C969 -662.657 967.657 -664 966 -664V-662ZM-518 -664C-519.657 -664 -521 -662.657 -521 -661H-519C-519 -661.552 -518.552 -662 -518 -662V-664Z" fill="black" fill-opacity="0.1"/>
<path d="M4 21V15M4 15C5.10457 15 6 14.1046 6 13V11C6 9.89543 5.10457 9 4 9M4 15C2.89543 15 2 14.1046 2 13V11C2 9.89543 2.89543 9 4 9M12 21V14M12 5V3M12 5C13.1046 5 14 5.89543 14 7V9C14 10.1046 13.1046 11 12 11C10.8954 11 10 10.1046 10 9V7C10 5.89543 10.8954 5 12 5ZM4 9L4 3M20 10V3M20 21V19M20 19C21.1046 19 22 18.1046 22 17V15C22 13.8954 21.1046 13 20 13C18.8954 13 18 13.8954 18 15V17C18 18.1046 18.8954 19 20 19Z" stroke="#1A1A1A" stroke-width="1.5" stroke-linecap="round"/>
</svg>
