<svg width="24" height="24" viewBox="0 0 24 24" fill="none" xmlns="http://www.w3.org/2000/svg">
<rect width="24" height="24" fill="#A6A6A6"/>
<path d="M-462 -757C-462 -758.105 -461.105 -759 -460 -759H1024C1025.1 -759 1026 -758.105 1026 -757V793C1026 794.105 1025.1 795 1024 795H-460C-461.105 795 -462 794.105 -462 793V-757Z" fill="white"/>
<path d="M-460 -758H1024V-760H-460V-758ZM1025 -757V793H1027V-757H1025ZM1024 794H-460V796H1024V794ZM-461 793V-757H-463V793H-461ZM-460 794C-460.552 794 -461 793.552 -461 793H-463C-463 794.657 -461.657 796 -460 796V794ZM1025 793C1025 793.552 1024.55 794 1024 794V796C1025.66 796 1027 794.657 1027 793H1025ZM1024 -758C1024.55 -758 1025 -757.552 1025 -757H1027C1027 -758.657 1025.66 -760 1024 -760V-758ZM-460 -760C-461.657 -760 -463 -758.657 -463 -757H-461C-461 -757.552 -460.552 -758 -460 -758V-760Z" fill="black" fill-opacity="0.1"/>
<path d="M14.3284 14.3284L11.5 11.5M11.5 11.5L8.67157 8.67157M11.5 11.5L8.67157 14.3284M11.5 11.5L14.3284 8.67157M22 22L18.5 18.5M21 11.5C21 16.7467 16.7467 21 11.5 21C6.25329 21 2 16.7467 2 11.5C2 6.25329 6.25329 2 11.5 2C16.7467 2 21 6.25329 21 11.5Z" stroke="#1A1A1A" stroke-width="1.5" stroke-linecap="round" stroke-linejoin="round"/>
</svg>
