<svg width="24" height="24" viewBox="0 0 24 24" fill="none" xmlns="http://www.w3.org/2000/svg">
<rect width="24" height="24" fill="#A6A6A6"/>
<path d="M-1154 -757C-1154 -758.105 -1153.1 -759 -1152 -759H332C333.105 -759 334 -758.105 334 -757V793C334 794.105 333.105 795 332 795H-1152C-1153.1 795 -1154 794.105 -1154 793V-757Z" fill="white"/>
<path d="M-1152 -758H332V-760H-1152V-758ZM333 -757V793H335V-757H333ZM332 794H-1152V796H332V794ZM-1153 793V-757H-1155V793H-1153ZM-1152 794C-1152.55 794 -1153 793.552 -1153 793H-1155C-1155 794.657 -1153.66 796 -1152 796V794ZM333 793C333 793.552 332.552 794 332 794V796C333.657 796 335 794.657 335 793H333ZM332 -758C332.552 -758 333 -757.552 333 -757H335C335 -758.657 333.657 -760 332 -760V-758ZM-1152 -760C-1153.66 -760 -1155 -758.657 -1155 -757H-1153C-1153 -757.552 -1152.55 -758 -1152 -758V-760Z" fill="black" fill-opacity="0.1"/>
<path fill-rule="evenodd" clip-rule="evenodd" d="M11.5 2.75C6.66751 2.75 2.75 6.66751 2.75 11.5C2.75 16.3325 6.66751 20.25 11.5 20.25C16.3325 20.25 20.25 16.3325 20.25 11.5C20.25 6.66751 16.3325 2.75 11.5 2.75ZM1.25 11.5C1.25 5.83908 5.83908 1.25 11.5 1.25C17.1609 1.25 21.75 5.83908 21.75 11.5C21.75 14.0605 20.8111 16.4017 19.2589 18.1982L22.5303 21.4697C22.8232 21.7626 22.8232 22.2374 22.5303 22.5303C22.2374 22.8232 21.7626 22.8232 21.4697 22.5303L18.1982 19.2589C16.4017 20.8111 14.0605 21.75 11.5 21.75C5.83908 21.75 1.25 17.1609 1.25 11.5ZM9.20221 8.14154C8.90931 7.84865 8.43444 7.84865 8.14154 8.14154C7.84865 8.43444 7.84865 8.90931 8.14154 9.20221L10.4396 11.5003L8.14155 13.7984C7.84865 14.0913 7.84865 14.5662 8.14155 14.8591C8.43444 15.152 8.90931 15.152 9.20221 14.8591L11.5003 12.561L13.7984 14.8591C14.0913 15.152 14.5662 15.152 14.8591 14.8591C15.152 14.5662 15.152 14.0913 14.8591 13.7984L12.561 11.5003L14.8591 9.20221C15.152 8.90931 15.152 8.43444 14.8591 8.14155C14.5662 7.84865 14.0913 7.84865 13.7984 8.14155L11.5003 10.4396L9.20221 8.14154Z" fill="#1A1A1A"/>
</svg>
