<svg width="24" height="24" viewBox="0 0 24 24" fill="none" xmlns="http://www.w3.org/2000/svg">
<rect width="24" height="24" fill="#A6A6A6"/>
<path d="M-1328 -1304C-1328 -1305.1 -1327.1 -1306 -1326 -1306H158C159.105 -1306 160 -1305.1 160 -1304V246C160 247.105 159.105 248 158 248H-1326C-1327.1 248 -1328 247.105 -1328 246V-1304Z" fill="white"/>
<path d="M-1326 -1305H158V-1307H-1326V-1305ZM159 -1304V246H161V-1304H159ZM158 247H-1326V249H158V247ZM-1327 246V-1304H-1329V246H-1327ZM-1326 247C-1326.55 247 -1327 246.552 -1327 246H-1329C-1329 247.657 -1327.66 249 -1326 249V247ZM159 246C159 246.552 158.552 247 158 247V249C159.657 249 161 247.657 161 246H159ZM158 -1305C158.552 -1305 159 -1304.55 159 -1304H161C161 -1305.66 159.657 -1307 158 -1307V-1305ZM-1326 -1307C-1327.66 -1307 -1329 -1305.66 -1329 -1304H-1327C-1327 -1304.55 -1326.55 -1305 -1326 -1305V-1307Z" fill="black" fill-opacity="0.1"/>
<path fill-rule="evenodd" clip-rule="evenodd" d="M2 3V6C2 6.55228 2.44772 7 3 7H3.75V17H3C2.44772 17 2 17.4477 2 18V21C2 21.5523 2.44772 22 3 22H6C6.55228 22 7 21.5523 7 21V20.25H17V21C17 21.5523 17.4477 22 18 22H21C21.5523 22 22 21.5523 22 21V18C22 17.4477 21.5523 17 21 17H20.25V7H21C21.5523 7 22 6.55228 22 6V3C22 2.44772 21.5523 2 21 2H18C17.4477 2 17 2.44772 17 3V3.75H7V3C7 2.44772 6.55228 2 6 2H3C2.44772 2 2 2.44772 2 3ZM5.25 17V7H6C6.55228 7 7 6.55228 7 6V5.25H17V6C17 6.55228 17.4477 7 18 7H18.75V17H18C17.4477 17 17 17.4477 17 18V18.75H7V18C7 17.4477 6.55228 17 6 17H5.25ZM12.0002 7.25C12.3002 7.25 12.5714 7.4288 12.6896 7.70456L15.6896 14.7046C15.8527 15.0853 15.6764 15.5262 15.2956 15.6894C14.9149 15.8525 14.474 15.6762 14.3108 15.2954L13.6485 13.75H10.3519L9.68955 15.2954C9.52638 15.6762 9.08547 15.8525 8.70475 15.6894C8.32403 15.5262 8.14767 15.0853 8.31083 14.7046L11.3108 7.70456C11.429 7.4288 11.7002 7.25 12.0002 7.25ZM12.0002 9.90394L13.0056 12.25H10.9947L12.0002 9.90394Z" fill="#1A1A1A"/>
</svg>
