<svg width="24" height="24" viewBox="0 0 24 24" fill="none" xmlns="http://www.w3.org/2000/svg">
<rect width="24" height="24" fill="#A6A6A6"/>
<path d="M-230 -709C-230 -710.105 -229.105 -711 -228 -711H1256C1257.1 -711 1258 -710.105 1258 -709V841C1258 842.105 1257.1 843 1256 843H-228C-229.105 843 -230 842.105 -230 841V-709Z" fill="white"/>
<path d="M-228 -710H1256V-712H-228V-710ZM1257 -709V841H1259V-709H1257ZM1256 842H-228V844H1256V842ZM-229 841V-709H-231V841H-229ZM-228 842C-228.552 842 -229 841.552 -229 841H-231C-231 842.657 -229.657 844 -228 844V842ZM1257 841C1257 841.552 1256.55 842 1256 842V844C1257.66 844 1259 842.657 1259 841H1257ZM1256 -710C1256.55 -710 1257 -709.552 1257 -709H1259C1259 -710.657 1257.66 -712 1256 -712V-710ZM-228 -712C-229.657 -712 -231 -710.657 -231 -709H-229C-229 -709.552 -228.552 -710 -228 -710V-712Z" fill="black" fill-opacity="0.1"/>
<path d="M15 10.2664L13.7071 11.5593C13.3166 11.9498 13.3166 12.5829 13.7071 12.9735L15 14.2664M14 12.2664L20 12.2664M4 17.2663V7.26633M16 17.2663C16 18.3709 15.1046 19.2663 14 19.2663H10M16 7.26633C16 6.16176 15.1046 5.26633 14 5.26633H10M4.8906 19.8601L6.8906 21.1934C8.21971 22.0795 10 21.1267 10 19.5293V5.00336C10 3.40597 8.21971 2.45319 6.8906 3.33926L4.8906 4.6726C4.3342 5.04353 4 5.66799 4 6.3367V18.196C4 18.8647 4.3342 19.4891 4.8906 19.8601Z" stroke="#1A1A1A" stroke-width="1.5" stroke-linecap="round"/>
</svg>
