<svg width="24" height="24" viewBox="0 0 24 24" fill="none" xmlns="http://www.w3.org/2000/svg">
<rect width="24" height="24" fill="#A6A6A6"/>
<path d="M-922 -709C-922 -710.105 -921.105 -711 -920 -711H564C565.105 -711 566 -710.105 566 -709V841C566 842.105 565.105 843 564 843H-920C-921.105 843 -922 842.105 -922 841V-709Z" fill="white"/>
<path d="M-920 -710H564V-712H-920V-710ZM565 -709V841H567V-709H565ZM564 842H-920V844H564V842ZM-921 841V-709H-923V841H-921ZM-920 842C-920.552 842 -921 841.552 -921 841H-923C-923 842.657 -921.657 844 -920 844V842ZM565 841C565 841.552 564.552 842 564 842V844C565.657 844 567 842.657 567 841H565ZM564 -710C564.552 -710 565 -709.552 565 -709H567C567 -710.657 565.657 -712 564 -712V-710ZM-920 -712C-921.657 -712 -923 -710.657 -923 -709H-921C-921 -709.552 -920.552 -710 -920 -710V-712Z" fill="black" fill-opacity="0.1"/>
<path fill-rule="evenodd" clip-rule="evenodd" d="M6.47458 2.71551C8.16252 1.59021 10.3797 2.62186 10.7085 4.51661H14C15.5188 4.51661 16.75 5.74783 16.75 7.26661C16.75 7.68083 16.4142 8.01661 16 8.01661C15.5858 8.01661 15.25 7.68083 15.25 7.26661C15.25 6.57626 14.6904 6.01661 14 6.01661H10.75V18.5166H14C14.6904 18.5166 15.25 17.957 15.25 17.2666C15.25 16.8524 15.5858 16.5166 16 16.5166C16.4142 16.5166 16.75 16.8524 16.75 17.2666C16.75 18.7854 15.5188 20.0166 14 20.0166H10.7085C10.3797 21.9114 8.16252 22.943 6.47458 21.8177L4.47457 20.4844C3.70953 19.9744 3.25 19.1157 3.25 18.1962V6.33698C3.25 5.41751 3.70953 4.55887 4.47457 4.04884L6.47458 2.71551ZM15.5302 9.73627C15.8231 10.0292 15.8231 10.504 15.5302 10.7969L14.8105 11.5166L19.9998 11.5166C20.4141 11.5166 20.7499 11.8524 20.7499 12.2666C20.7499 12.6808 20.4141 13.0166 19.9998 13.0166L14.8105 13.0166L15.5302 13.7363C15.8231 14.0292 15.8231 14.504 15.5302 14.7969C15.2373 15.0898 14.7624 15.0898 14.4695 14.7969L13.1766 13.504C12.4932 12.8206 12.4932 11.7126 13.1766 11.0292L14.4695 9.73627C14.7624 9.44338 15.2373 9.44338 15.5302 9.73627Z" fill="#1A1A1A"/>
</svg>
