<svg width="24" height="24" viewBox="0 0 24 24" fill="none" xmlns="http://www.w3.org/2000/svg">
<rect width="24" height="24" fill="#A6A6A6"/>
<path d="M-864 -1256C-864 -1257.1 -863.105 -1258 -862 -1258H622C623.105 -1258 624 -1257.1 624 -1256V294C624 295.105 623.105 296 622 296H-862C-863.105 296 -864 295.105 -864 294V-1256Z" fill="white"/>
<path d="M-862 -1257H622V-1259H-862V-1257ZM623 -1256V294H625V-1256H623ZM622 295H-862V297H622V295ZM-863 294V-1256H-865V294H-863ZM-862 295C-862.552 295 -863 294.552 -863 294H-865C-865 295.657 -863.657 297 -862 297V295ZM623 294C623 294.552 622.552 295 622 295V297C623.657 297 625 295.657 625 294H623ZM622 -1257C622.552 -1257 623 -1256.55 623 -1256H625C625 -1257.66 623.657 -1259 622 -1259V-1257ZM-862 -1259C-863.657 -1259 -865 -1257.66 -865 -1256H-863C-863 -1256.55 -862.552 -1257 -862 -1257V-1259Z" fill="black" fill-opacity="0.1"/>
<path fill-rule="evenodd" clip-rule="evenodd" d="M6 5.25C5.58579 5.25 5.25 5.58579 5.25 6C5.25 6.41421 5.58579 6.75 6 6.75H18C18.4142 6.75 18.75 6.41421 18.75 6C18.75 5.58579 18.4142 5.25 18 5.25H6ZM6 9.25C5.58579 9.25 5.25 9.58579 5.25 10C5.25 10.4142 5.58579 10.75 6 10.75H18C18.4142 10.75 18.75 10.4142 18.75 10C18.75 9.58579 18.4142 9.25 18 9.25H6ZM5.25 14C5.25 13.5858 5.58579 13.25 6 13.25H18C18.4142 13.25 18.75 13.5858 18.75 14C18.75 14.4142 18.4142 14.75 18 14.75H6C5.58579 14.75 5.25 14.4142 5.25 14ZM6 17.25C5.58579 17.25 5.25 17.5858 5.25 18C5.25 18.4142 5.58579 18.75 6 18.75H18C18.4142 18.75 18.75 18.4142 18.75 18C18.75 17.5858 18.4142 17.25 18 17.25H6Z" fill="#1A1A1A"/>
</svg>
