<svg width="24" height="24" viewBox="0 0 24 24" fill="none" xmlns="http://www.w3.org/2000/svg">
<rect width="24" height="24" fill="#A6A6A6"/>
<path d="M-864 -1304C-864 -1305.1 -863.105 -1306 -862 -1306H622C623.105 -1306 624 -1305.1 624 -1304V246C624 247.105 623.105 248 622 248H-862C-863.105 248 -864 247.105 -864 246V-1304Z" fill="white"/>
<path d="M-862 -1305H622V-1307H-862V-1305ZM623 -1304V246H625V-1304H623ZM622 247H-862V249H622V247ZM-863 246V-1304H-865V246H-863ZM-862 247C-862.552 247 -863 246.552 -863 246H-865C-865 247.657 -863.657 249 -862 249V247ZM623 246C623 246.552 622.552 247 622 247V249C623.657 249 625 247.657 625 246H623ZM622 -1305C622.552 -1305 623 -1304.55 623 -1304H625C625 -1305.66 623.657 -1307 622 -1307V-1305ZM-862 -1307C-863.657 -1307 -865 -1305.66 -865 -1304H-863C-863 -1304.55 -862.552 -1305 -862 -1305V-1307Z" fill="black" fill-opacity="0.1"/>
<path fill-rule="evenodd" clip-rule="evenodd" d="M5.25 6C5.25 5.58579 5.58579 5.25 6 5.25H18C18.4142 5.25 18.75 5.58579 18.75 6C18.75 6.41421 18.4142 6.75 18 6.75H6C5.58579 6.75 5.25 6.41421 5.25 6ZM5.46967 14.5303C5.17678 14.2374 5.17678 13.7626 5.46967 13.4697L6.93934 12L5.46967 10.5303C5.17678 10.2374 5.17678 9.76256 5.46967 9.46967C5.76256 9.17678 6.23744 9.17678 6.53033 9.46967L8.53033 11.4697C8.82322 11.7626 8.82322 12.2374 8.53033 12.5303L6.53033 14.5303C6.23744 14.8232 5.76256 14.8232 5.46967 14.5303ZM11 9.25C10.5858 9.25 10.25 9.58579 10.25 10C10.25 10.4142 10.5858 10.75 11 10.75H18C18.4142 10.75 18.75 10.4142 18.75 10C18.75 9.58579 18.4142 9.25 18 9.25H11ZM11 13.25H18C18.4142 13.25 18.75 13.5858 18.75 14C18.75 14.4142 18.4142 14.75 18 14.75H11C10.5858 14.75 10.25 14.4142 10.25 14C10.25 13.5858 10.5858 13.25 11 13.25ZM6 17.25C5.58579 17.25 5.25 17.5858 5.25 18C5.25 18.4142 5.58579 18.75 6 18.75H18C18.4142 18.75 18.75 18.4142 18.75 18C18.75 17.5858 18.4142 17.25 18 17.25H6Z" fill="#1A1A1A"/>
</svg>
