<svg width="24" height="24" viewBox="0 0 24 24" fill="none" xmlns="http://www.w3.org/2000/svg">
<rect width="24" height="24" fill="#A6A6A6"/>
<path d="M-462 -181C-462 -182.105 -461.105 -183 -460 -183H1024C1025.1 -183 1026 -182.105 1026 -181V1369C1026 1370.1 1025.1 1371 1024 1371H-460C-461.105 1371 -462 1370.1 -462 1369V-181Z" fill="white"/>
<path d="M-460 -182H1024V-184H-460V-182ZM1025 -181V1369H1027V-181H1025ZM1024 1370H-460V1372H1024V1370ZM-461 1369V-181H-463V1369H-461ZM-460 1370C-460.552 1370 -461 1369.55 -461 1369H-463C-463 1370.66 -461.657 1372 -460 1372V1370ZM1025 1369C1025 1369.55 1024.55 1370 1024 1370V1372C1025.66 1372 1027 1370.66 1027 1369H1025ZM1024 -182C1024.55 -182 1025 -181.552 1025 -181H1027C1027 -182.657 1025.66 -184 1024 -184V-182ZM-460 -184C-461.657 -184 -463 -182.657 -463 -181H-461C-461 -181.552 -460.552 -182 -460 -182V-184Z" fill="black" fill-opacity="0.1"/>
<path d="M12 7V9M15 7.99963C16.2144 8.91184 17 10.3642 17 12C17 14.7614 14.7614 17 12 17C9.23858 17 7 14.7614 7 12C7 10.3642 7.78555 8.91184 9 7.99963M22 12C22 17.5228 17.5228 22 12 22C6.47715 22 2 17.5228 2 12C2 6.47715 6.47715 2 12 2C17.5228 2 22 6.47715 22 12Z" stroke="#1A1A1A" stroke-width="1.5" stroke-linecap="round"/>
</svg>
