<svg width="24" height="24" viewBox="0 0 24 24" fill="none" xmlns="http://www.w3.org/2000/svg">
<rect width="24" height="24" fill="#A6A6A6"/>
<path d="M-1154 -181C-1154 -182.105 -1153.1 -183 -1152 -183H332C333.105 -183 334 -182.105 334 -181V1369C334 1370.1 333.105 1371 332 1371H-1152C-1153.1 1371 -1154 1370.1 -1154 1369V-181Z" fill="white"/>
<path d="M-1152 -182H332V-184H-1152V-182ZM333 -181V1369H335V-181H333ZM332 1370H-1152V1372H332V1370ZM-1153 1369V-181H-1155V1369H-1153ZM-1152 1370C-1152.55 1370 -1153 1369.55 -1153 1369H-1155C-1155 1370.66 -1153.66 1372 -1152 1372V1370ZM333 1369C333 1369.55 332.552 1370 332 1370V1372C333.657 1372 335 1370.66 335 1369H333ZM332 -182C332.552 -182 333 -181.552 333 -181H335C335 -182.657 333.657 -184 332 -184V-182ZM-1152 -184C-1153.66 -184 -1155 -182.657 -1155 -181H-1153C-1153 -181.552 -1152.55 -182 -1152 -182V-184Z" fill="black" fill-opacity="0.1"/>
<path fill-rule="evenodd" clip-rule="evenodd" d="M22 12C22 17.5228 17.5228 22 12 22C6.47715 22 2 17.5228 2 12C2 6.47715 6.47715 2 12 2C17.5228 2 22 6.47715 22 12ZM12 6.25C12.4142 6.25 12.75 6.58579 12.75 7V9C12.75 9.41421 12.4142 9.75 12 9.75C11.5858 9.75 11.25 9.41421 11.25 9V7C11.25 6.58579 11.5858 6.25 12 6.25ZM9.45043 8.59935C9.78162 8.35058 9.84844 7.88044 9.59968 7.54924C9.35091 7.21805 8.88076 7.15124 8.54957 7.4C7.15464 8.44777 6.25 10.1184 6.25 12C6.25 15.1757 8.82436 17.75 12 17.75C15.1756 17.75 17.75 15.1757 17.75 12C17.75 10.1184 16.8454 8.44777 15.4504 7.4C15.1192 7.15124 14.6491 7.21805 14.4003 7.54924C14.1516 7.88044 14.2184 8.35058 14.5496 8.59935C15.5835 9.376 16.25 10.6101 16.25 12C16.25 14.3473 14.3472 16.25 12 16.25C9.65279 16.25 7.75 14.3473 7.75 12C7.75 10.6101 8.41646 9.376 9.45043 8.59935Z" fill="#1A1A1A"/>
</svg>
