<svg width="24" height="24" viewBox="0 0 24 24" fill="none" xmlns="http://www.w3.org/2000/svg">
<rect width="24" height="24" fill="#A6A6A6"/>
<path d="M-835 -38C-835 -39.1046 -834.105 -40 -833 -40H651C652.105 -40 653 -39.1046 653 -38V1512C653 1513.1 652.105 1514 651 1514H-833C-834.105 1514 -835 1513.1 -835 1512V-38Z" fill="white"/>
<path d="M-833 -39H651V-41H-833V-39ZM652 -38V1512H654V-38H652ZM651 1513H-833V1515H651V1513ZM-834 1512V-38H-836V1512H-834ZM-833 1513C-833.552 1513 -834 1512.55 -834 1512H-836C-836 1513.66 -834.657 1515 -833 1515V1513ZM652 1512C652 1512.55 651.552 1513 651 1513V1515C652.657 1515 654 1513.66 654 1512H652ZM651 -39C651.552 -39 652 -38.5523 652 -38H654C654 -39.6569 652.657 -41 651 -41V-39ZM-833 -41C-834.657 -41 -836 -39.6569 -836 -38H-834C-834 -38.5523 -833.552 -39 -833 -39V-41Z" fill="black" fill-opacity="0.1"/>
<path d="M3 7H8M19 7H21M19 7C19 8.65685 17.6569 10 16 10H14C12.3431 10 11 8.65685 11 7C11 5.34315 12.3431 4 14 4L16 4C17.6569 4 19 5.34315 19 7ZM16 17H21M3 17H5M5 17C5 18.6569 6.34315 20 8 20H10C11.6569 20 13 18.6569 13 17C13 15.3431 11.6569 14 10 14H8C6.34315 14 5 15.3431 5 17Z" stroke="#1A1A1A" stroke-width="1.5" stroke-linecap="round"/>
</svg>
