<svg width="24" height="24" viewBox="0 0 24 24" fill="none" xmlns="http://www.w3.org/2000/svg">
<rect width="24" height="24" fill="#A6A6A6"/>
<path d="M-1328 -661C-1328 -662.105 -1327.1 -663 -1326 -663H158C159.105 -663 160 -662.105 160 -661V889C160 890.105 159.105 891 158 891H-1326C-1327.1 891 -1328 890.105 -1328 889V-661Z" fill="white"/>
<path d="M-1326 -662H158V-664H-1326V-662ZM159 -661V889H161V-661H159ZM158 890H-1326V892H158V890ZM-1327 889V-661H-1329V889H-1327ZM-1326 890C-1326.55 890 -1327 889.552 -1327 889H-1329C-1329 890.657 -1327.66 892 -1326 892V890ZM159 889C159 889.552 158.552 890 158 890V892C159.657 892 161 890.657 161 889H159ZM158 -662C158.552 -662 159 -661.552 159 -661H161C161 -662.657 159.657 -664 158 -664V-662ZM-1326 -664C-1327.66 -664 -1329 -662.657 -1329 -661H-1327C-1327 -661.552 -1326.55 -662 -1326 -662V-664Z" fill="black" fill-opacity="0.1"/>
<path fill-rule="evenodd" clip-rule="evenodd" d="M14 5H16C17.3979 5 18.5725 5.95608 18.9055 7.25H21C21.4142 7.25 21.75 7.58579 21.75 8C21.75 8.41421 21.4142 8.75 21 8.75H18.9055C18.5725 10.0439 17.3979 11 16 11H14C12.3431 11 11 9.65685 11 8C11 6.34315 12.3431 5 14 5ZM3 7.25C2.58579 7.25 2.25 7.58579 2.25 8C2.25 8.41421 2.58579 8.75 3 8.75H8C8.41421 8.75 8.75 8.41421 8.75 8C8.75 7.58579 8.41421 7.25 8 7.25H3ZM16 15.25C15.5858 15.25 15.25 15.5858 15.25 16C15.25 16.4142 15.5858 16.75 16 16.75H21C21.4142 16.75 21.75 16.4142 21.75 16C21.75 15.5858 21.4142 15.25 21 15.25H16ZM10 13H8C6.60212 13 5.42755 13.9561 5.09451 15.25H3C2.58579 15.25 2.25 15.5858 2.25 16C2.25 16.4142 2.58579 16.75 3 16.75H5.09451C5.42755 18.0439 6.60212 19 8 19H10C11.6569 19 13 17.6569 13 16C13 14.3431 11.6569 13 10 13Z" fill="#1A1A1A"/>
</svg>
