<svg width="24" height="24" viewBox="0 0 24 24" fill="none" xmlns="http://www.w3.org/2000/svg">
<rect width="24" height="24" fill="#A6A6A6"/>
<path d="M-636 -709C-636 -710.105 -635.105 -711 -634 -711H850C851.105 -711 852 -710.105 852 -709V841C852 842.105 851.105 843 850 843H-634C-635.105 843 -636 842.105 -636 841V-709Z" fill="white"/>
<path d="M-634 -710H850V-712H-634V-710ZM851 -709V841H853V-709H851ZM850 842H-634V844H850V842ZM-635 841V-709H-637V841H-635ZM-634 842C-634.552 842 -635 841.552 -635 841H-637C-637 842.657 -635.657 844 -634 844V842ZM851 841C851 841.552 850.552 842 850 842V844C851.657 844 853 842.657 853 841H851ZM850 -710C850.552 -710 851 -709.552 851 -709H853C853 -710.657 851.657 -712 850 -712V-710ZM-634 -712C-635.657 -712 -637 -710.657 -637 -709H-635C-635 -709.552 -634.552 -710 -634 -710V-712Z" fill="black" fill-opacity="0.1"/>
<path d="M19 9L18.2841 18.3068C18.1238 20.3908 16.386 22 14.2959 22H9.70412C7.61398 22 5.87621 20.3908 5.71591 18.3068L5 9M21 7C18.4021 5.73398 15.3137 5 12 5C8.68635 5 5.59792 5.73398 3 7M10 5V4C10 2.89543 10.8954 2 12 2C13.1046 2 14 2.89543 14 4V5M10 11V17M14 11V17" stroke="#1A1A1A" stroke-width="1.5" stroke-linecap="round"/>
</svg>
