<svg width="24" height="24" viewBox="0 0 24 24" fill="none" xmlns="http://www.w3.org/2000/svg">
<rect width="24" height="24" fill="#A6A6A6"/>
<path d="M-1330 -707C-1330 -708.105 -1329.1 -709 -1328 -709H156C157.105 -709 158 -708.105 158 -707V843C158 844.105 157.105 845 156 845H-1328C-1329.1 845 -1330 844.105 -1330 843V-707Z" fill="white"/>
<path d="M-1328 -708H156V-710H-1328V-708ZM157 -707V843H159V-707H157ZM156 844H-1328V846H156V844ZM-1329 843V-707H-1331V843H-1329ZM-1328 844C-1328.55 844 -1329 843.552 -1329 843H-1331C-1331 844.657 -1329.66 846 -1328 846V844ZM157 843C157 843.552 156.552 844 156 844V846C157.657 846 159 844.657 159 843H157ZM156 -708C156.552 -708 157 -707.552 157 -707H159C159 -708.657 157.657 -710 156 -710V-708ZM-1328 -710C-1329.66 -710 -1331 -708.657 -1331 -707H-1329C-1329 -707.552 -1328.55 -708 -1328 -708V-710Z" fill="black" fill-opacity="0.1"/>
<path fill-rule="evenodd" clip-rule="evenodd" d="M9.25018 4.75C9.25018 3.23122 10.4814 2 12.0002 2C13.519 2 14.7502 3.23122 14.7502 4.75V4.91565C17.1352 5.2059 19.3632 5.86798 21.3287 6.8258C21.7011 7.00725 21.8558 7.4562 21.6744 7.82855C21.4929 8.20091 21.044 8.35566 20.6716 8.1742C18.18 6.95998 15.2044 6.25 12.0002 6.25C8.79591 6.25 5.82036 6.95998 3.32872 8.1742C2.95637 8.35566 2.50742 8.20091 2.32597 7.82855C2.14451 7.4562 2.29926 7.00725 2.67162 6.8258C4.6371 5.86797 6.8652 5.2059 9.25018 4.91565V4.75ZM18.2658 18.283C18.1163 20.3763 16.3745 21.998 14.276 21.998H9.72493C7.62638 21.998 5.88461 20.3763 5.7351 18.283L5.04688 8.6479C7.1642 7.90959 9.51919 7.49805 12.0005 7.49805C14.4817 7.49805 16.8367 7.90959 18.954 8.6479L18.2658 18.283ZM10.7505 10.998C10.7505 10.5838 10.4147 10.248 10.0005 10.248C9.58624 10.248 9.25046 10.5838 9.25046 10.998V16.998C9.25046 17.4123 9.58624 17.748 10.0005 17.748C10.4147 17.748 10.7505 17.4123 10.7505 16.998V10.998ZM14.0005 10.248C14.4147 10.248 14.7505 10.5838 14.7505 10.998V16.998C14.7505 17.4123 14.4147 17.748 14.0005 17.748C13.5862 17.748 13.2505 17.4123 13.2505 16.998V10.998C13.2505 10.5838 13.5862 10.248 14.0005 10.248Z" fill="#1A1A1A"/>
</svg>
