<svg width="24" height="24" viewBox="0 0 24 24" fill="none" xmlns="http://www.w3.org/2000/svg">
<rect width="24" height="24" fill="#A6A6A6"/>
<path d="M-520 -181C-520 -182.105 -519.105 -183 -518 -183H966C967.105 -183 968 -182.105 968 -181V1369C968 1370.1 967.105 1371 966 1371H-518C-519.105 1371 -520 1370.1 -520 1369V-181Z" fill="white"/>
<path d="M-518 -182H966V-184H-518V-182ZM967 -181V1369H969V-181H967ZM966 1370H-518V1372H966V1370ZM-519 1369V-181H-521V1369H-519ZM-518 1370C-518.552 1370 -519 1369.55 -519 1369H-521C-521 1370.66 -519.657 1372 -518 1372V1370ZM967 1369C967 1369.55 966.552 1370 966 1370V1372C967.657 1372 969 1370.66 969 1369H967ZM966 -182C966.552 -182 967 -181.552 967 -181H969C969 -182.657 967.657 -184 966 -184V-182ZM-518 -184C-519.657 -184 -521 -182.657 -521 -181H-519C-519 -181.552 -518.552 -182 -518 -182V-184Z" fill="black" fill-opacity="0.1"/>
<path d="M3 22V14M3 14V3M3 14H7M3 3V2M3 3H15C16.1046 3 17 3.89543 17 5V7M17 7H19C20.1046 7 21 7.89543 21 9V17C21 18.1046 20.1046 19 19 19H9C7.89543 19 7 18.1046 7 17V14M17 7V12C17 13.1046 16.1046 14 15 14H7" stroke="#1A1A1A" stroke-width="1.5" stroke-linecap="round" stroke-linejoin="round"/>
</svg>
