<svg width="24" height="24" viewBox="0 0 24 24" fill="none" xmlns="http://www.w3.org/2000/svg">
<rect width="24" height="24" fill="#A6A6A6"/>
<path d="M-1212 -181C-1212 -182.105 -1211.1 -183 -1210 -183H274C275.105 -183 276 -182.105 276 -181V1369C276 1370.1 275.105 1371 274 1371H-1210C-1211.1 1371 -1212 1370.1 -1212 1369V-181Z" fill="white"/>
<path d="M-1210 -182H274V-184H-1210V-182ZM275 -181V1369H277V-181H275ZM274 1370H-1210V1372H274V1370ZM-1211 1369V-181H-1213V1369H-1211ZM-1210 1370C-1210.55 1370 -1211 1369.55 -1211 1369H-1213C-1213 1370.66 -1211.66 1372 -1210 1372V1370ZM275 1369C275 1369.55 274.552 1370 274 1370V1372C275.657 1372 277 1370.66 277 1369H275ZM274 -182C274.552 -182 275 -181.552 275 -181H277C277 -182.657 275.657 -184 274 -184V-182ZM-1210 -184C-1211.66 -184 -1213 -182.657 -1213 -181H-1211C-1211 -181.552 -1210.55 -182 -1210 -182V-184Z" fill="black" fill-opacity="0.1"/>
<path fill-rule="evenodd" clip-rule="evenodd" d="M3.75 2C4.16421 2 4.5 2.33579 4.5 2.75V3H15C16.1046 3 17 3.89543 17 5V7V12V12.75C17 13.4404 16.4404 14 15.75 14H15H7H4.5V21.25C4.5 21.6642 4.16421 22 3.75 22C3.33579 22 3 21.6642 3 21.25V14V3V2.75C3 2.33579 3.33579 2 3.75 2ZM7 16V15.5H15.75C17.2688 15.5 18.5 14.2688 18.5 12.75V7H19C20.1046 7 21 7.89543 21 9V16C21 17.1046 20.1046 18 19 18H9C7.89543 18 7 17.1046 7 16Z" fill="#1A1A1A"/>
</svg>
