<svg width="24" height="24" viewBox="0 0 24 24" fill="none" xmlns="http://www.w3.org/2000/svg">
<rect width="24" height="24" fill="#A6A6A6"/>
<path d="M-636 -1256C-636 -1257.1 -635.105 -1258 -634 -1258H850C851.105 -1258 852 -1257.1 852 -1256V294C852 295.105 851.105 296 850 296H-634C-635.105 296 -636 295.105 -636 294V-1256Z" fill="white"/>
<path d="M-634 -1257H850V-1259H-634V-1257ZM851 -1256V294H853V-1256H851ZM850 295H-634V297H850V295ZM-635 294V-1256H-637V294H-635ZM-634 295C-634.552 295 -635 294.552 -635 294H-637C-637 295.657 -635.657 297 -634 297V295ZM851 294C851 294.552 850.552 295 850 295V297C851.657 297 853 295.657 853 294H851ZM850 -1257C850.552 -1257 851 -1256.55 851 -1256H853C853 -1257.66 851.657 -1259 850 -1259V-1257ZM-634 -1259C-635.657 -1259 -637 -1257.66 -637 -1256H-635C-635 -1256.55 -634.552 -1257 -634 -1257V-1259Z" fill="black" fill-opacity="0.1"/>
<path d="M12 17L16 17C17.6569 17 19 15.6569 19 14V14C19 12.3431 17.6569 11 16 11L5 11M12 17L14 15M12 17L14 19" stroke="#1A1A1A" stroke-width="1.5" stroke-linecap="round" stroke-linejoin="round"/>
<path d="M5 17H9" stroke="#1A1A1A" stroke-width="1.5" stroke-linecap="round"/>
<path d="M5 5H19" stroke="#1A1A1A" stroke-width="1.5" stroke-linecap="round"/>
</svg>
