<svg width="24" height="24" viewBox="0 0 24 24" fill="none" xmlns="http://www.w3.org/2000/svg">
<rect width="24" height="24" fill="#A6A6A6"/>
<path d="M-346 -133C-346 -134.105 -345.105 -135 -344 -135H1140C1141.1 -135 1142 -134.105 1142 -133V1417C1142 1418.1 1141.1 1419 1140 1419H-344C-345.105 1419 -346 1418.1 -346 1417V-133Z" fill="white"/>
<path d="M-344 -134H1140V-136H-344V-134ZM1141 -133V1417H1143V-133H1141ZM1140 1418H-344V1420H1140V1418ZM-345 1417V-133H-347V1417H-345ZM-344 1418C-344.552 1418 -345 1417.55 -345 1417H-347C-347 1418.66 -345.657 1420 -344 1420V1418ZM1141 1417C1141 1417.55 1140.55 1418 1140 1418V1420C1141.66 1420 1143 1418.66 1143 1417H1141ZM1140 -134C1140.55 -134 1141 -133.552 1141 -133H1143C1143 -134.657 1141.66 -136 1140 -136V-134ZM-344 -136C-345.657 -136 -347 -134.657 -347 -133H-345C-345 -133.552 -344.552 -134 -344 -134V-136Z" fill="black" fill-opacity="0.1"/>
<path d="M5 8V18C5 20.2091 6.79086 22 9 22H15C17.2091 22 19 20.2091 19 18V8M14 11V17M10 11L10 17M16 5L14.5937 2.8906C14.2228 2.3342 13.5983 2 12.9296 2H11.0704C10.4017 2 9.7772 2.3342 9.40627 2.8906L8 5M16 5H8M16 5H21M8 5H3" stroke="#1A1A1A" stroke-width="1.5" stroke-linecap="round" stroke-linejoin="round"/>
</svg>
