<svg width="24" height="24" viewBox="0 0 24 24" fill="none" xmlns="http://www.w3.org/2000/svg">
<rect width="24" height="24" fill="#A6A6A6"/>
<path d="M-1038 -133C-1038 -134.105 -1037.1 -135 -1036 -135H448C449.105 -135 450 -134.105 450 -133V1417C450 1418.1 449.105 1419 448 1419H-1036C-1037.1 1419 -1038 1418.1 -1038 1417V-133Z" fill="white"/>
<path d="M-1036 -134H448V-136H-1036V-134ZM449 -133V1417H451V-133H449ZM448 1418H-1036V1420H448V1418ZM-1037 1417V-133H-1039V1417H-1037ZM-1036 1418C-1036.55 1418 -1037 1417.55 -1037 1417H-1039C-1039 1418.66 -1037.66 1420 -1036 1420V1418ZM449 1417C449 1417.55 448.552 1418 448 1418V1420C449.657 1420 451 1418.66 451 1417H449ZM448 -134C448.552 -134 449 -133.552 449 -133H451C451 -134.657 449.657 -136 448 -136V-134ZM-1036 -136C-1037.66 -136 -1039 -134.657 -1039 -133H-1037C-1037 -133.552 -1036.55 -134 -1036 -134V-136Z" fill="black" fill-opacity="0.1"/>
<path fill-rule="evenodd" clip-rule="evenodd" d="M9.40627 2.8906C9.7772 2.3342 10.4017 2 11.0704 2H12.9296C13.5983 2 14.2228 2.3342 14.5937 2.8906L15.5 4.25H19.25C19.6642 4.25 20 4.58579 20 5C20 5.41421 19.6642 5.75 19.25 5.75H4.75C4.33579 5.75 4 5.41421 4 5C4 4.58579 4.33579 4.25 4.75 4.25H8.5L9.40627 2.8906ZM15 22H9C6.79086 22 5 20.2091 5 18V7H19V18C19 20.2091 17.2091 22 15 22ZM10 10.25C10.4142 10.25 10.75 10.5858 10.75 11V18C10.75 18.4142 10.4142 18.75 10 18.75C9.58579 18.75 9.25 18.4142 9.25 18L9.25 11C9.25 10.5858 9.58579 10.25 10 10.25ZM14 10.25C14.4142 10.25 14.75 10.5858 14.75 11V18C14.75 18.4142 14.4142 18.75 14 18.75C13.5858 18.75 13.25 18.4142 13.25 18V11C13.25 10.5858 13.5858 10.25 14 10.25Z" fill="#1A1A1A"/>
</svg>
