<svg width="24" height="24" viewBox="0 0 24 24" fill="none" xmlns="http://www.w3.org/2000/svg">
<rect width="24" height="24" fill="#A6A6A6"/>
<path d="M-230 -661C-230 -662.105 -229.105 -663 -228 -663H1256C1257.1 -663 1258 -662.105 1258 -661V889C1258 890.105 1257.1 891 1256 891H-228C-229.105 891 -230 890.105 -230 889V-661Z" fill="white"/>
<path d="M-228 -662H1256V-664H-228V-662ZM1257 -661V889H1259V-661H1257ZM1256 890H-228V892H1256V890ZM-229 889V-661H-231V889H-229ZM-228 890C-228.552 890 -229 889.552 -229 889H-231C-231 890.657 -229.657 892 -228 892V890ZM1257 889C1257 889.552 1256.55 890 1256 890V892C1257.66 892 1259 890.657 1259 889H1257ZM1256 -662C1256.55 -662 1257 -661.552 1257 -661H1259C1259 -662.657 1257.66 -664 1256 -664V-662ZM-228 -664C-229.657 -664 -231 -662.657 -231 -661H-229C-229 -661.552 -228.552 -662 -228 -662V-664Z" fill="black" fill-opacity="0.1"/>
<path d="M3.43944 5.87673C3.16425 6.18631 3.19214 6.66037 3.50173 6.93556C3.81131 7.21075 4.28537 7.18286 4.56056 6.87327L3.43944 5.87673ZM5.50518 4.68167L4.94462 4.1834L4.94462 4.1834L5.50518 4.68167ZM8.49482 4.68167L9.05538 4.1834V4.1834L8.49482 4.68167ZM8.49482 19.3183L9.05538 19.8166L8.49482 19.3183ZM10.5606 18.1233C10.8357 17.8137 10.8079 17.3396 10.4983 17.0644C10.1887 16.7893 9.71463 16.8171 9.43944 17.1267L10.5606 18.1233ZM5.50518 19.3183L4.94462 19.8166L5.50518 19.3183ZM4.56056 17.1267C4.28537 16.8171 3.81131 16.7893 3.50173 17.0644C3.19214 17.3396 3.16425 17.8137 3.43944 18.1233L4.56056 17.1267ZM4.56056 6.87327L6.06574 5.17994L4.94462 4.1834L3.43944 5.87673L4.56056 6.87327ZM7.93426 5.17994L9.43944 6.87327L10.5606 5.87673L9.05538 4.1834L7.93426 5.17994ZM9.05538 19.8166L10.5606 18.1233L9.43944 17.1267L7.93426 18.8201L9.05538 19.8166ZM6.06574 18.8201L4.56056 17.1267L3.43944 18.1233L4.94462 19.8166L6.06574 18.8201ZM7.93426 18.8201C7.43702 19.3794 6.56298 19.3794 6.06574 18.8201L4.94462 19.8166C6.03855 21.0473 7.96145 21.0473 9.05538 19.8166L7.93426 18.8201ZM6.06574 5.17994C6.56298 4.62055 7.43702 4.62055 7.93426 5.17994L9.05538 4.1834C7.96145 2.95273 6.03855 2.95273 4.94462 4.1834L6.06574 5.17994ZM16 4.75H18V3.25H16V4.75ZM19.25 6V8H20.75V6H19.25ZM18 9.25H16V10.75H18V9.25ZM14.75 8V6H13.25V8H14.75ZM16 9.25C15.3096 9.25 14.75 8.69036 14.75 8H13.25C13.25 9.51878 14.4812 10.75 16 10.75V9.25ZM19.25 8C19.25 8.69036 18.6904 9.25 18 9.25V10.75C19.5188 10.75 20.75 9.51878 20.75 8H19.25ZM18 4.75C18.6904 4.75 19.25 5.30964 19.25 6H20.75C20.75 4.48122 19.5188 3.25 18 3.25V4.75ZM16 3.25C14.4812 3.25 13.25 4.48122 13.25 6H14.75C14.75 5.30964 15.3096 4.75 16 4.75V3.25ZM16 14.75H18V13.25H16V14.75ZM19.25 16V18H20.75V16H19.25ZM18 19.25H16V20.75H18V19.25ZM14.75 18V16H13.25V18H14.75ZM16 19.25C15.3096 19.25 14.75 18.6904 14.75 18H13.25C13.25 19.5188 14.4812 20.75 16 20.75V19.25ZM19.25 18C19.25 18.6904 18.6904 19.25 18 19.25V20.75C19.5188 20.75 20.75 19.5188 20.75 18H19.25ZM18 14.75C18.6904 14.75 19.25 15.3096 19.25 16H20.75C20.75 14.4812 19.5188 13.25 18 13.25V14.75ZM16 13.25C14.4812 13.25 13.25 14.4812 13.25 16H14.75C14.75 15.3096 15.3096 14.75 16 14.75V13.25ZM6.25 4V20H7.75V4H6.25Z" fill="#1A1A1A"/>
</svg>
