<svg width="24" height="24" viewBox="0 0 24 24" fill="none" xmlns="http://www.w3.org/2000/svg">
<rect width="24" height="24" fill="#A6A6A6"/>
<path d="M-922 -661C-922 -662.105 -921.105 -663 -920 -663H564C565.105 -663 566 -662.105 566 -661V889C566 890.105 565.105 891 564 891H-920C-921.105 891 -922 890.105 -922 889V-661Z" fill="white"/>
<path d="M-920 -662H564V-664H-920V-662ZM565 -661V889H567V-661H565ZM564 890H-920V892H564V890ZM-921 889V-661H-923V889H-921ZM-920 890C-920.552 890 -921 889.552 -921 889H-923C-923 890.657 -921.657 892 -920 892V890ZM565 889C565 889.552 564.552 890 564 890V892C565.657 892 567 890.657 567 889H565ZM564 -662C564.552 -662 565 -661.552 565 -661H567C567 -662.657 565.657 -664 564 -664V-662ZM-920 -664C-921.657 -664 -923 -662.657 -923 -661H-921C-921 -661.552 -920.552 -662 -920 -662V-664Z" fill="black" fill-opacity="0.1"/>
<path fill-rule="evenodd" clip-rule="evenodd" d="M4.94463 19.8165C6.03856 21.0471 7.96146 21.0471 9.05538 19.8165L10.5606 18.1231C10.8358 17.8135 10.8079 17.3395 10.4983 17.0643C10.1887 16.7891 9.71464 16.817 9.43945 17.1266L7.93427 18.8199C7.8774 18.8839 7.8156 18.9406 7.75 18.9899V5.00981C7.8156 5.05916 7.8774 5.11582 7.93427 5.1798L9.43945 6.87313C9.71464 7.18271 10.1887 7.2106 10.4983 6.93541C10.8079 6.66022 10.8358 6.18617 10.5606 5.87658L9.05538 4.18325C7.96146 2.95259 6.03856 2.95259 4.94463 4.18325L3.43945 5.87658C3.16426 6.18617 3.19215 6.66022 3.50174 6.93541C3.81132 7.2106 4.28538 7.18271 4.56056 6.87313L6.06575 5.1798C6.12261 5.11583 6.18441 5.05917 6.25 5.00983V18.9899C6.18441 18.9405 6.12261 18.8839 6.06575 18.8199L4.56056 17.1266C4.28538 16.817 3.81132 16.7891 3.50174 17.0643C3.19215 17.3395 3.16426 17.8135 3.43945 18.1231L4.94463 19.8165ZM14 6C14 4.89543 14.8954 4 16 4H18C19.1046 4 20 4.89543 20 6V8C20 9.10457 19.1046 10 18 10H16C14.8954 10 14 9.10457 14 8V6ZM14 16C14 14.8954 14.8954 14 16 14H18C19.1046 14 20 14.8954 20 16V18C20 19.1046 19.1046 20 18 20H16C14.8954 20 14 19.1046 14 18V16Z" fill="#1A1A1A"/>
</svg>
