<svg width="24" height="24" viewBox="0 0 24 24" fill="none" xmlns="http://www.w3.org/2000/svg">
<rect width="24" height="24" fill="#A6A6A6"/>
<path d="M-346 -853C-346 -854.105 -345.105 -855 -344 -855H1140C1141.1 -855 1142 -854.105 1142 -853V697C1142 698.105 1141.1 699 1140 699H-344C-345.105 699 -346 698.105 -346 697V-853Z" fill="white"/>
<path d="M-344 -854H1140V-856H-344V-854ZM1141 -853V697H1143V-853H1141ZM1140 698H-344V700H1140V698ZM-345 697V-853H-347V697H-345ZM-344 698C-344.552 698 -345 697.552 -345 697H-347C-347 698.657 -345.657 700 -344 700V698ZM1141 697C1141 697.552 1140.55 698 1140 698V700C1141.66 700 1143 698.657 1143 697H1141ZM1140 -854C1140.55 -854 1141 -853.552 1141 -853H1143C1143 -854.657 1141.66 -856 1140 -856V-854ZM-344 -856C-345.657 -856 -347 -854.657 -347 -853H-345C-345 -853.552 -344.552 -854 -344 -854V-856Z" fill="black" fill-opacity="0.1"/>
<path d="M13.9988 4C13.9988 5.10457 13.1034 6 11.9988 6C10.8942 6 9.9988 5.10457 9.9988 4C9.9988 2.89543 10.8942 2 11.9988 2C13.1034 2 13.9988 2.89543 13.9988 4Z" stroke="#1A1A1A" stroke-width="1.5"/>
<path d="M13.9988 20C13.9988 21.1046 13.1034 22 11.9988 22C10.8942 22 9.9988 21.1046 9.9988 20C9.9988 18.8954 10.8942 18 11.9988 18C13.1034 18 13.9988 18.8954 13.9988 20Z" stroke="#1A1A1A" stroke-width="1.5"/>
<path d="M19.927 9.73205C18.9704 10.2843 17.7473 9.95658 17.195 9C16.6427 8.04341 16.9704 6.82023 17.927 6.26794C18.8836 5.71566 20.1068 6.04341 20.6591 7C21.2114 7.95658 20.8836 9.17976 19.927 9.73205Z" stroke="#1A1A1A" stroke-width="1.5"/>
<path d="M6.07065 17.732C5.11406 18.2843 3.89088 17.9566 3.3386 17C2.78631 16.0434 3.11406 14.8202 4.07065 14.2679C5.02723 13.7157 6.25041 14.0434 6.8027 15C7.35498 15.9566 7.02723 17.1798 6.07065 17.732Z" stroke="#1A1A1A" stroke-width="1.5"/>
<path d="M17.927 17.732C16.9704 17.1798 16.6427 15.9566 17.195 15C17.7473 14.0434 18.9704 13.7157 19.927 14.2679C20.8836 14.8202 21.2114 16.0434 20.6591 17C20.1068 17.9566 18.8836 18.2843 17.927 17.732Z" stroke="#1A1A1A" stroke-width="1.5"/>
<path d="M4.07065 9.73208C3.11406 9.17979 2.78631 7.95661 3.3386 7.00003C3.89088 6.04344 5.11406 5.71569 6.07065 6.26797C7.02723 6.82026 7.35498 8.04344 6.8027 9.00003C6.25041 9.95661 5.02723 10.2844 4.07065 9.73208Z" stroke="#1A1A1A" stroke-width="1.5"/>
</svg>
