<svg width="24" height="24" viewBox="0 0 24 24" fill="none" xmlns="http://www.w3.org/2000/svg">
<rect width="24" height="24" fill="#A6A6A6"/>
<path d="M-1038 -853C-1038 -854.105 -1037.1 -855 -1036 -855H448C449.105 -855 450 -854.105 450 -853V697C450 698.105 449.105 699 448 699H-1036C-1037.1 699 -1038 698.105 -1038 697V-853Z" fill="white"/>
<path d="M-1036 -854H448V-856H-1036V-854ZM449 -853V697H451V-853H449ZM448 698H-1036V700H448V698ZM-1037 697V-853H-1039V697H-1037ZM-1036 698C-1036.55 698 -1037 697.552 -1037 697H-1039C-1039 698.657 -1037.66 700 -1036 700V698ZM449 697C449 697.552 448.552 698 448 698V700C449.657 700 451 698.657 451 697H449ZM448 -854C448.552 -854 449 -853.552 449 -853H451C451 -854.657 449.657 -856 448 -856V-854ZM-1036 -856C-1037.66 -856 -1039 -854.657 -1039 -853H-1037C-1037 -853.552 -1036.55 -854 -1036 -854V-856Z" fill="black" fill-opacity="0.1"/>
<path fill-rule="evenodd" clip-rule="evenodd" d="M12 6C13.1045 6 14 5.10457 14 4C14 2.89543 13.1045 2 12 2C10.8954 2 9.99996 2.89543 9.99996 4C9.99996 5.10457 10.8954 6 12 6ZM12 22C13.1045 22 14 21.1046 14 20C14 18.8954 13.1045 18 12 18C10.8954 18 9.99996 18.8954 9.99996 20C9.99996 21.1046 10.8954 22 12 22ZM19.9242 9.73217C18.9676 10.2845 17.7444 9.9567 17.1921 9.00012C16.6398 8.04353 16.9676 6.82035 17.9242 6.26807C18.8807 5.71578 20.1039 6.04353 20.6562 7.00012C21.2085 7.9567 20.8807 9.17988 19.9242 9.73217ZM3.33664 17.0001C3.88893 17.9567 5.11211 18.2845 6.06869 17.7322C7.02528 17.1799 7.35303 15.9567 6.80074 15.0001C6.24846 14.0435 5.02528 13.7158 4.06869 14.2681C3.11211 14.8204 2.78436 16.0435 3.33664 17.0001ZM17.9242 17.7317C16.9676 17.1794 16.6398 15.9562 17.1921 14.9996C17.7444 14.043 18.9676 13.7153 19.9242 14.2676C20.8807 14.8199 21.2085 16.043 20.6562 16.9996C20.1039 17.9562 18.8807 18.284 17.9242 17.7317ZM3.33664 7.00012C2.78436 7.9567 3.11211 9.17988 4.06869 9.73217C5.02528 10.2845 6.24846 9.9567 6.80074 9.00012C7.35303 8.04353 7.02528 6.82035 6.06869 6.26807C5.11211 5.71578 3.88893 6.04353 3.33664 7.00012Z" fill="#1A1A1A"/>
</svg>
