<svg width="24" height="24" viewBox="0 0 24 24" fill="none" xmlns="http://www.w3.org/2000/svg">
<rect width="24" height="24" fill="#A6A6A6"/>
<path d="M-166 -38C-166 -39.1046 -165.105 -40 -164 -40H1320C1321.1 -40 1322 -39.1046 1322 -38V1512C1322 1513.1 1321.1 1514 1320 1514H-164C-165.105 1514 -166 1513.1 -166 1512V-38Z" fill="white"/>
<path d="M-164 -39H1320V-41H-164V-39ZM1321 -38V1512H1323V-38H1321ZM1320 1513H-164V1515H1320V1513ZM-165 1512V-38H-167V1512H-165ZM-164 1513C-164.552 1513 -165 1512.55 -165 1512H-167C-167 1513.66 -165.657 1515 -164 1515V1513ZM1321 1512C1321 1512.55 1320.55 1513 1320 1513V1515C1321.66 1515 1323 1513.66 1323 1512H1321ZM1320 -39C1320.55 -39 1321 -38.5523 1321 -38H1323C1323 -39.6569 1321.66 -41 1320 -41V-39ZM-164 -41C-165.657 -41 -167 -39.6569 -167 -38H-165C-165 -38.5523 -164.552 -39 -164 -39V-41Z" fill="black" fill-opacity="0.1"/>
<path d="M21.1303 9.8531C22.2899 11.0732 22.2899 12.9268 21.1303 14.1469C19.1745 16.2047 15.8155 19 12 19C8.18448 19 4.82549 16.2047 2.86971 14.1469C1.7101 12.9268 1.7101 11.0732 2.86971 9.8531C4.82549 7.79533 8.18448 5 12 5C15.8155 5 19.1745 7.79533 21.1303 9.8531Z" stroke="#1A1A1A" stroke-width="1.5"/>
<path d="M15 12C15 13.6569 13.6569 15 12 15C10.3431 15 9 13.6569 9 12C9 10.3431 10.3431 9 12 9C13.6569 9 15 10.3431 15 12Z" stroke="#1A1A1A" stroke-width="1.5"/>
</svg>
