<svg width="24" height="24" viewBox="0 0 24 24" fill="none" xmlns="http://www.w3.org/2000/svg">
<rect width="24" height="24" fill="#A6A6A6"/>
<path d="M-806 -277C-806 -278.105 -805.105 -279 -804 -279H680C681.105 -279 682 -278.105 682 -277V1273C682 1274.1 681.105 1275 680 1275H-804C-805.105 1275 -806 1274.1 -806 1273V-277Z" fill="white"/>
<path d="M-804 -278H680V-280H-804V-278ZM681 -277V1273H683V-277H681ZM680 1274H-804V1276H680V1274ZM-805 1273V-277H-807V1273H-805ZM-804 1274C-804.552 1274 -805 1273.55 -805 1273H-807C-807 1274.66 -805.657 1276 -804 1276V1274ZM681 1273C681 1273.55 680.552 1274 680 1274V1276C681.657 1276 683 1274.66 683 1273H681ZM680 -278C680.552 -278 681 -277.552 681 -277H683C683 -278.657 681.657 -280 680 -280V-278ZM-804 -280C-805.657 -280 -807 -278.657 -807 -277H-805C-805 -277.552 -804.552 -278 -804 -278V-280Z" fill="black" fill-opacity="0.1"/>
<path fill-rule="evenodd" clip-rule="evenodd" d="M21.1303 14.1469C22.2899 12.9268 22.2899 11.0732 21.1303 9.8531C19.1745 7.79533 15.8155 5 12 5C8.18448 5 4.82549 7.79533 2.86971 9.8531C1.7101 11.0732 1.7101 12.9268 2.86971 14.1469C4.82549 16.2047 8.18448 19 12 19C15.8155 19 19.1745 16.2047 21.1303 14.1469ZM12 15C13.6569 15 15 13.6569 15 12C15 10.3431 13.6569 9 12 9C10.3431 9 9 10.3431 9 12C9 13.6569 10.3431 15 12 15Z" fill="#1A1A1A"/>
</svg>
