<svg width="24" height="24" viewBox="0 0 24 24" fill="none" xmlns="http://www.w3.org/2000/svg">
<rect width="24" height="24" fill="#A6A6A6"/>
<path d="M-224 -38C-224 -39.1046 -223.105 -40 -222 -40H1262C1263.1 -40 1264 -39.1046 1264 -38V1512C1264 1513.1 1263.1 1514 1262 1514H-222C-223.105 1514 -224 1513.1 -224 1512V-38Z" fill="white"/>
<path d="M-222 -39H1262V-41H-222V-39ZM1263 -38V1512H1265V-38H1263ZM1262 1513H-222V1515H1262V1513ZM-223 1512V-38H-225V1512H-223ZM-222 1513C-222.552 1513 -223 1512.55 -223 1512H-225C-225 1513.66 -223.657 1515 -222 1515V1513ZM1263 1512C1263 1512.55 1262.55 1513 1262 1513V1515C1263.66 1515 1265 1513.66 1265 1512H1263ZM1262 -39C1262.55 -39 1263 -38.5523 1263 -38H1265C1265 -39.6569 1263.66 -41 1262 -41V-39ZM-222 -41C-223.657 -41 -225 -39.6569 -225 -38H-223C-223 -38.5523 -222.552 -39 -222 -39V-41Z" fill="black" fill-opacity="0.1"/>
<path d="M4 4L20 20M14 14.2361C13.4692 14.7111 12.7684 15 12 15C10.3431 15 9 13.6569 9 12C9 11.2316 9.28885 10.5308 9.76389 10M19.6078 15.6077C20.1791 15.1103 20.6902 14.6099 21.1303 14.1469C22.2899 12.9268 22.2899 11.0732 21.1303 9.8531C19.1745 7.79533 15.8155 5 12 5C11.1086 5 10.2422 5.15256 9.4127 5.41264M6.5 6.80338C5.04144 7.73444 3.79764 8.87678 2.86971 9.8531C1.7101 11.0732 1.7101 12.9268 2.86971 14.1469C4.82549 16.2047 8.18448 19 12 19C13.8681 19 15.6267 18.3299 17.1648 17.4044" stroke="#1A1A1A" stroke-width="1.5" stroke-linecap="round"/>
</svg>
