<svg width="24" height="24" viewBox="0 0 24 24" fill="none" xmlns="http://www.w3.org/2000/svg">
<rect width="24" height="24" fill="#A6A6A6"/>
<path d="M-864 -277C-864 -278.105 -863.105 -279 -862 -279H622C623.105 -279 624 -278.105 624 -277V1273C624 1274.1 623.105 1275 622 1275H-862C-863.105 1275 -864 1274.1 -864 1273V-277Z" fill="white"/>
<path d="M-862 -278H622V-280H-862V-278ZM623 -277V1273H625V-277H623ZM622 1274H-862V1276H622V1274ZM-863 1273V-277H-865V1273H-863ZM-862 1274C-862.552 1274 -863 1273.55 -863 1273H-865C-865 1274.66 -863.657 1276 -862 1276V1274ZM623 1273C623 1273.55 622.552 1274 622 1274V1276C623.657 1276 625 1274.66 625 1273H623ZM622 -278C622.552 -278 623 -277.552 623 -277H625C625 -278.657 623.657 -280 622 -280V-278ZM-862 -280C-863.657 -280 -865 -278.657 -865 -277H-863C-863 -277.552 -862.552 -278 -862 -278V-280Z" fill="black" fill-opacity="0.1"/>
<path fill-rule="evenodd" clip-rule="evenodd" d="M3.46967 4.53033C3.17678 4.23744 3.17678 3.76256 3.46967 3.46967C3.76256 3.17678 4.23744 3.17678 4.53033 3.46967L20.5303 19.4697C20.8232 19.7626 20.8232 20.2374 20.5303 20.5303C20.2374 20.8232 19.7626 20.8232 19.4697 20.5303L16.6429 17.7036C15.2337 18.4709 13.66 19 12 19C8.18448 19 4.82549 16.2047 2.86971 14.1469C1.7101 12.9268 1.7101 11.0732 2.86971 9.8531C3.69953 8.98001 4.78196 7.97414 6.04468 7.10534L3.46967 4.53033ZM9.41536 10.476C9.15145 10.9227 9 11.4436 9 12C9 13.6569 10.3431 15 12 15C12.5564 15 13.0773 14.8486 13.524 14.5846L9.41536 10.476ZM12 5C15.8155 5 19.1745 7.79533 21.1303 9.8531C22.2899 11.0732 22.2899 12.9268 21.1303 14.1469C20.6902 14.6099 20.1791 15.1103 19.6078 15.6077L9.4127 5.41264C10.2422 5.15256 11.1086 5 12 5Z" fill="#1A1A1A"/>
</svg>
