<svg width="24" height="24" viewBox="0 0 24 24" fill="none" xmlns="http://www.w3.org/2000/svg">
<rect width="24" height="24" fill="#A6A6A6"/>
<path d="M-577 -902C-577 -903.105 -576.105 -904 -575 -904H909C910.105 -904 911 -903.105 911 -902V648C911 649.105 910.105 650 909 650H-575C-576.105 650 -577 649.105 -577 648V-902Z" fill="white"/>
<path d="M-575 -903H909V-905H-575V-903ZM910 -902V648H912V-902H910ZM909 649H-575V651H909V649ZM-576 648V-902H-578V648H-576ZM-575 649C-575.552 649 -576 648.552 -576 648H-578C-578 649.657 -576.657 651 -575 651V649ZM910 648C910 648.552 909.552 649 909 649V651C910.657 651 912 649.657 912 648H910ZM909 -903C909.552 -903 910 -902.552 910 -902H912C912 -903.657 910.657 -905 909 -905V-903ZM-575 -905C-576.657 -905 -578 -903.657 -578 -902H-576C-576 -902.552 -575.552 -903 -575 -903V-905Z" fill="black" fill-opacity="0.1"/>
<g clip-path="url(#clip0_442_5509)">
<path fill-rule="evenodd" clip-rule="evenodd" d="M12.7064 15.7069C12.5188 15.8943 12.2645 15.9996 11.9994 15.9996C11.7342 15.9996 11.4799 15.8943 11.2924 15.7069L5.63537 10.0499C5.53986 9.95761 5.46367 9.84726 5.41126 9.72526C5.35886 9.60326 5.33127 9.47204 5.33012 9.33926C5.32896 9.20648 5.35426 9.0748 5.40454 8.9519C5.45483 8.829 5.52908 8.71735 5.62297 8.62346C5.71686 8.52957 5.82852 8.45531 5.95141 8.40503C6.07431 8.35475 6.20599 8.32945 6.33877 8.3306C6.47155 8.33176 6.60277 8.35934 6.72477 8.41175C6.84677 8.46416 6.95712 8.54034 7.04937 8.63585L11.9994 13.5859L16.9494 8.63585C17.138 8.4537 17.3906 8.3529 17.6528 8.35518C17.915 8.35746 18.1658 8.46263 18.3512 8.64804C18.5366 8.83344 18.6418 9.08426 18.644 9.34645C18.6463 9.60865 18.5455 9.86125 18.3634 10.0499L12.7064 15.7069Z" fill="#1A1A1A"/>
</g>
<defs>
<clipPath id="clip0_442_5509">
<rect width="24" height="24" fill="white"/>
</clipPath>
</defs>
</svg>
