<svg width="24" height="24" viewBox="0 0 24 24" fill="none" xmlns="http://www.w3.org/2000/svg">
<rect width="24" height="24" fill="#A6A6A6"/>
<path d="M-346 -1024C-346 -1025.1 -345.105 -1026 -344 -1026H1140C1141.1 -1026 1142 -1025.1 1142 -1024V526C1142 527.105 1141.1 528 1140 528H-344C-345.105 528 -346 527.105 -346 526V-1024Z" fill="white"/>
<path d="M-344 -1025H1140V-1027H-344V-1025ZM1141 -1024V526H1143V-1024H1141ZM1140 527H-344V529H1140V527ZM-345 526V-1024H-347V526H-345ZM-344 527C-344.552 527 -345 526.552 -345 526H-347C-347 527.657 -345.657 529 -344 529V527ZM1141 526C1141 526.552 1140.55 527 1140 527V529C1141.66 529 1143 527.657 1143 526H1141ZM1140 -1025C1140.55 -1025 1141 -1024.55 1141 -1024H1143C1143 -1025.66 1141.66 -1027 1140 -1027V-1025ZM-344 -1027C-345.657 -1027 -347 -1025.66 -347 -1024H-345C-345 -1024.55 -344.552 -1025 -344 -1025V-1027Z" fill="black" fill-opacity="0.1"/>
<ellipse cx="10" cy="17.5" rx="7" ry="3.5" stroke="#1A1A1A" stroke-width="1.5" stroke-linejoin="round"/>
<circle cx="10" cy="7" r="4" stroke="#1A1A1A" stroke-width="1.5" stroke-linejoin="round"/>
<path d="M21 11H17" stroke="#1A1A1A" stroke-width="1.5" stroke-linecap="round"/>
</svg>
