<svg width="24" height="24" viewBox="0 0 24 24" fill="none" xmlns="http://www.w3.org/2000/svg">
<rect width="24" height="24" fill="#A6A6A6"/>
<path d="M-1038 -1024C-1038 -1025.1 -1037.1 -1026 -1036 -1026H448C449.105 -1026 450 -1025.1 450 -1024V526C450 527.105 449.105 528 448 528H-1036C-1037.1 528 -1038 527.105 -1038 526V-1024Z" fill="white"/>
<path d="M-1036 -1025H448V-1027H-1036V-1025ZM449 -1024V526H451V-1024H449ZM448 527H-1036V529H448V527ZM-1037 526V-1024H-1039V526H-1037ZM-1036 527C-1036.55 527 -1037 526.552 -1037 526H-1039C-1039 527.657 -1037.66 529 -1036 529V527ZM449 526C449 526.552 448.552 527 448 527V529C449.657 529 451 527.657 451 526H449ZM448 -1025C448.552 -1025 449 -1024.55 449 -1024H451C451 -1025.66 449.657 -1027 448 -1027V-1025ZM-1036 -1027C-1037.66 -1027 -1039 -1025.66 -1039 -1024H-1037C-1037 -1024.55 -1036.55 -1025 -1036 -1025V-1027Z" fill="black" fill-opacity="0.1"/>
<path fill-rule="evenodd" clip-rule="evenodd" d="M14 7C14 9.20914 12.2091 11 10 11C7.79086 11 6 9.20914 6 7C6 4.79086 7.79086 3 10 3C12.2091 3 14 4.79086 14 7ZM17 17C17 19.2091 13.866 21 10 21C6.13401 21 3 19.2091 3 17C3 14.7909 6.13401 13 10 13C13.866 13 17 14.7909 17 17ZM16 9.25C15.5858 9.25 15.25 9.58579 15.25 10C15.25 10.4142 15.5858 10.75 16 10.75H20C20.4142 10.75 20.75 10.4142 20.75 10C20.75 9.58579 20.4142 9.25 20 9.25H16Z" fill="#1A1A1A"/>
</svg>
