<svg width="24" height="24" viewBox="0 0 24 24" fill="none" xmlns="http://www.w3.org/2000/svg">
<rect width="24" height="24" fill="#A6A6A6"/>
<path d="M-288 -1304C-288 -1305.1 -287.105 -1306 -286 -1306H1198C1199.1 -1306 1200 -1305.1 1200 -1304V246C1200 247.105 1199.1 248 1198 248H-286C-287.105 248 -288 247.105 -288 246V-1304Z" fill="white"/>
<path d="M-286 -1305H1198V-1307H-286V-1305ZM1199 -1304V246H1201V-1304H1199ZM1198 247H-286V249H1198V247ZM-287 246V-1304H-289V246H-287ZM-286 247C-286.552 247 -287 246.552 -287 246H-289C-289 247.657 -287.657 249 -286 249V247ZM1199 246C1199 246.552 1198.55 247 1198 247V249C1199.66 249 1201 247.657 1201 246H1199ZM1198 -1305C1198.55 -1305 1199 -1304.55 1199 -1304H1201C1201 -1305.66 1199.66 -1307 1198 -1307V-1305ZM-286 -1307C-287.657 -1307 -289 -1305.66 -289 -1304H-287C-287 -1304.55 -286.552 -1305 -286 -1305V-1307Z" fill="black" fill-opacity="0.1"/>
<path d="M17 20.333V16.9997H20.3334" stroke="#1A1A1A" stroke-width="1.5" stroke-linecap="round" stroke-linejoin="round"/>
<path d="M3.66406 7L6.99742 7L6.99742 3.66665" stroke="#1A1A1A" stroke-width="1.5" stroke-linecap="round" stroke-linejoin="round"/>
<path d="M14.5 9.5L9.49997 14.5" stroke="#1A1A1A" stroke-width="1.5" stroke-linecap="round"/>
<path d="M10.3359 7.00003L12.0026 5.33336C13.8435 3.49239 16.8283 3.49239 18.6693 5.33335V5.33335C20.5103 7.17431 20.5103 10.1591 18.6693 12.0001L17.0026 13.6667" stroke="#1A1A1A" stroke-width="1.5" stroke-linecap="round"/>
<path d="M13.6641 17L11.9974 18.6666C10.1565 20.5076 7.17167 20.5076 5.33071 18.6666V18.6666C3.48975 16.8257 3.48975 13.8409 5.33071 11.9999L6.99739 10.3333" stroke="#1A1A1A" stroke-width="1.5" stroke-linecap="round"/>
</svg>
