<svg width="24" height="24" viewBox="0 0 24 24" fill="none" xmlns="http://www.w3.org/2000/svg">
<rect width="24" height="24" fill="#A6A6A6"/>
<path d="M-980 -1304C-980 -1305.1 -979.105 -1306 -978 -1306H506C507.105 -1306 508 -1305.1 508 -1304V246C508 247.105 507.105 248 506 248H-978C-979.105 248 -980 247.105 -980 246V-1304Z" fill="white"/>
<path d="M-978 -1305H506V-1307H-978V-1305ZM507 -1304V246H509V-1304H507ZM506 247H-978V249H506V247ZM-979 246V-1304H-981V246H-979ZM-978 247C-978.552 247 -979 246.552 -979 246H-981C-981 247.657 -979.657 249 -978 249V247ZM507 246C507 246.552 506.552 247 506 247V249C507.657 249 509 247.657 509 246H507ZM506 -1305C506.552 -1305 507 -1304.55 507 -1304H509C509 -1305.66 507.657 -1307 506 -1307V-1305ZM-978 -1307C-979.657 -1307 -981 -1305.66 -981 -1304H-979C-979 -1304.55 -978.552 -1305 -978 -1305V-1307Z" fill="black" fill-opacity="0.1"/>
<path fill-rule="evenodd" clip-rule="evenodd" d="M2.91211 6.99888C2.91211 6.58467 3.2479 6.24888 3.66211 6.24888H6.24546L6.24546 3.66553C6.24546 3.25131 6.58125 2.91553 6.99546 2.91553C7.40968 2.91553 7.74546 3.25131 7.74546 3.66553V6.99888C7.74546 7.41309 7.40968 7.74888 6.99546 7.74888L3.66211 7.74888C3.2479 7.74888 2.91211 7.41309 2.91211 6.99888ZM16.9999 21.0828C17.4141 21.0828 17.7499 20.747 17.7499 20.3328V17.7494H20.3332C20.7475 17.7494 21.0832 17.4136 21.0832 16.9994C21.0832 16.5852 20.7475 16.2494 20.3332 16.2494H16.9999C16.5857 16.2494 16.2499 16.5852 16.2499 16.9994V20.3328C16.2499 20.747 16.5857 21.0828 16.9999 21.0828ZM15.0302 10.0303C15.3231 9.73741 15.3231 9.26253 15.0302 8.96964C14.7373 8.67675 14.2624 8.67675 13.9696 8.96964L8.96953 13.9697C8.67663 14.2626 8.67663 14.7374 8.96953 15.0303C9.26242 15.3232 9.73729 15.3232 10.0302 15.0303L15.0302 10.0303ZM18.131 5.86365C16.583 4.31559 14.0731 4.31559 12.525 5.86366L10.8583 7.53033C10.5654 7.82323 10.0905 7.82323 9.79765 7.53033C9.50476 7.23744 9.50476 6.76256 9.79765 6.46967L11.4643 4.803C13.5982 2.66914 17.0578 2.66914 19.1917 4.80299C21.3255 6.93685 21.3255 10.3965 19.1917 12.5304L17.525 14.197C17.2321 14.4899 16.7573 14.4899 16.4644 14.197C16.1715 13.9041 16.1715 13.4293 16.4644 13.1364L18.131 11.4697C19.6791 9.92164 19.6791 7.41172 18.131 5.86365ZM11.467 18.1361C9.91891 19.6841 7.40899 19.6841 5.86093 18.1361C4.31286 16.588 4.31286 14.0781 5.86093 12.53L7.5276 10.8633C7.8205 10.5704 7.8205 10.0956 7.5276 9.80268C7.23471 9.50978 6.75984 9.50978 6.46694 9.80268L4.80027 11.4694C2.66641 13.6032 2.66641 17.0629 4.80027 19.1967C6.93412 21.3306 10.3938 21.3306 12.5276 19.1967L14.1943 17.53C14.4872 17.2372 14.4872 16.7623 14.1943 16.4694C13.9014 16.1765 13.4265 16.1765 13.1336 16.4694L11.467 18.1361Z" fill="#1A1A1A"/>
</svg>
