<svg width="24" height="24" viewBox="0 0 24 24" fill="none" xmlns="http://www.w3.org/2000/svg">
<rect width="24" height="24" fill="#A6A6A6"/>
<path d="M-1270 -1256C-1270 -1257.1 -1269.1 -1258 -1268 -1258H216C217.105 -1258 218 -1257.1 218 -1256V294C218 295.105 217.105 296 216 296H-1268C-1269.1 296 -1270 295.105 -1270 294V-1256Z" fill="white"/>
<path d="M-1268 -1257H216V-1259H-1268V-1257ZM217 -1256V294H219V-1256H217ZM216 295H-1268V297H216V295ZM-1269 294V-1256H-1271V294H-1269ZM-1268 295C-1268.55 295 -1269 294.552 -1269 294H-1271C-1271 295.657 -1269.66 297 -1268 297V295ZM217 294C217 294.552 216.552 295 216 295V297C217.657 297 219 295.657 219 294H217ZM216 -1257C216.552 -1257 217 -1256.55 217 -1256H219C219 -1257.66 217.657 -1259 216 -1259V-1257ZM-1268 -1259C-1269.66 -1259 -1271 -1257.66 -1271 -1256H-1269C-1269 -1256.55 -1268.55 -1257 -1268 -1257V-1259Z" fill="black" fill-opacity="0.1"/>
<path fill-rule="evenodd" clip-rule="evenodd" d="M5 5.75C4.58579 5.75 4.25 5.41421 4.25 5C4.25 4.58579 4.58579 4.25 5 4.25H19C19.4142 4.25 19.75 4.58579 19.75 5C19.75 5.41421 19.4142 5.75 19 5.75H5ZM8 19.75C7.58579 19.75 7.25 19.4142 7.25 19L7.25 10.8107L6.53033 11.5303C6.23744 11.8232 5.76256 11.8232 5.46967 11.5303C5.17678 11.2374 5.17678 10.7626 5.46967 10.4697L7.46967 8.46967C7.76256 8.17678 8.23744 8.17678 8.53033 8.46967L10.5303 10.4697C10.8232 10.7626 10.8232 11.2374 10.5303 11.5303C10.2374 11.8232 9.76256 11.8232 9.46967 11.5303L8.75 10.8107L8.75 19C8.75 19.4142 8.41421 19.75 8 19.75ZM16 19.75C15.5858 19.75 15.25 19.4142 15.25 19L15.25 10.8107L14.5303 11.5303C14.2374 11.8232 13.7626 11.8232 13.4697 11.5303C13.1768 11.2374 13.1768 10.7626 13.4697 10.4697L15.4697 8.46967C15.7626 8.17678 16.2374 8.17678 16.5303 8.46967L18.5303 10.4697C18.8232 10.7626 18.8232 11.2374 18.5303 11.5303C18.2374 11.8232 17.7626 11.8232 17.4697 11.5303L16.75 10.8107L16.75 19C16.75 19.4142 16.4142 19.75 16 19.75Z" fill="#1A1A1A"/>
</svg>
