<svg width="24" height="24" viewBox="0 0 24 24" fill="none" xmlns="http://www.w3.org/2000/svg">
<rect width="24" height="24" fill="#A6A6A6"/>
<path d="M-636 -133C-636 -134.105 -635.105 -135 -634 -135H850C851.105 -135 852 -134.105 852 -133V1417C852 1418.1 851.105 1419 850 1419H-634C-635.105 1419 -636 1418.1 -636 1417V-133Z" fill="white"/>
<path d="M-634 -134H850V-136H-634V-134ZM851 -133V1417H853V-133H851ZM850 1418H-634V1420H850V1418ZM-635 1417V-133H-637V1417H-635ZM-634 1418C-634.552 1418 -635 1417.55 -635 1417H-637C-637 1418.66 -635.657 1420 -634 1420V1418ZM851 1417C851 1417.55 850.552 1418 850 1418V1420C851.657 1420 853 1418.66 853 1417H851ZM850 -134C850.552 -134 851 -133.552 851 -133H853C853 -134.657 851.657 -136 850 -136V-134ZM-634 -136C-635.657 -136 -637 -134.657 -637 -133H-635C-635 -133.552 -634.552 -134 -634 -134V-136Z" fill="black" fill-opacity="0.1"/>
<path d="M20 3H8C6.89543 3 6 3.89543 6 5V8C6 8.55228 5.55228 9 5 9C3.34315 9 2 10.3431 2 12C2 13.6569 3.34315 15 5 15C5.55228 15 6 15.4477 6 16V19C6 20.1046 6.89543 21 8 21H10C10.5523 21 11 20.5523 11 20C11 18.3431 12.3431 17 14 17C15.6569 17 17 18.3431 17 20C17 20.5523 17.4477 21 18 21H20C21.1046 21 22 20.1046 22 19V16C22 15.4477 21.5523 15 21 15C19.3431 15 18 13.6569 18 12C18 10.3431 19.3431 9 21 9C21.5523 9 22 8.55228 22 8V5C22 3.89543 21.1046 3 20 3Z" stroke="#1A1A1A" stroke-width="1.5" stroke-linejoin="round"/>
</svg>
