<svg width="24" height="24" viewBox="0 0 24 24" fill="none" xmlns="http://www.w3.org/2000/svg">
<rect width="24" height="24" fill="#A6A6A6"/>
<path d="M-1328 -133C-1328 -134.105 -1327.1 -135 -1326 -135H158C159.105 -135 160 -134.105 160 -133V1417C160 1418.1 159.105 1419 158 1419H-1326C-1327.1 1419 -1328 1418.1 -1328 1417V-133Z" fill="white"/>
<path d="M-1326 -134H158V-136H-1326V-134ZM159 -133V1417H161V-133H159ZM158 1418H-1326V1420H158V1418ZM-1327 1417V-133H-1329V1417H-1327ZM-1326 1418C-1326.55 1418 -1327 1417.55 -1327 1417H-1329C-1329 1418.66 -1327.66 1420 -1326 1420V1418ZM159 1417C159 1417.55 158.552 1418 158 1418V1420C159.657 1420 161 1418.66 161 1417H159ZM158 -134C158.552 -134 159 -133.552 159 -133H161C161 -134.657 159.657 -136 158 -136V-134ZM-1326 -136C-1327.66 -136 -1329 -134.657 -1329 -133H-1327C-1327 -133.552 -1326.55 -134 -1326 -134V-136Z" fill="black" fill-opacity="0.1"/>
<path d="M20 3H8C6.89543 3 6 3.89543 6 5V8C6 8.55228 5.55228 9 5 9C3.34315 9 2 10.3431 2 12C2 13.6569 3.34315 15 5 15C5.55228 15 6 15.4477 6 16V19C6 20.1046 6.89543 21 8 21H10C10.5523 21 11 20.5523 11 20C11 18.3431 12.3431 17 14 17C15.6569 17 17 18.3431 17 20C17 20.5523 17.4477 21 18 21H20C21.1046 21 22 20.1046 22 19V16C22 15.4477 21.5523 15 21 15C19.3431 15 18 13.6569 18 12C18 10.3431 19.3431 9 21 9C21.5523 9 22 8.55228 22 8V5C22 3.89543 21.1046 3 20 3Z" fill="#1A1A1A"/>
</svg>
