<svg width="24" height="24" viewBox="0 0 24 24" fill="none" xmlns="http://www.w3.org/2000/svg">
<rect width="24" height="24" fill="#A6A6A6"/>
<path d="M-1212 -1256C-1212 -1257.1 -1211.1 -1258 -1210 -1258H274C275.105 -1258 276 -1257.1 276 -1256V294C276 295.105 275.105 296 274 296H-1210C-1211.1 296 -1212 295.105 -1212 294V-1256Z" fill="white"/>
<path d="M-1210 -1257H274V-1259H-1210V-1257ZM275 -1256V294H277V-1256H275ZM274 295H-1210V297H274V295ZM-1211 294V-1256H-1213V294H-1211ZM-1210 295C-1210.55 295 -1211 294.552 -1211 294H-1213C-1213 295.657 -1211.66 297 -1210 297V295ZM275 294C275 294.552 274.552 295 274 295V297C275.657 297 277 295.657 277 294H275ZM274 -1257C274.552 -1257 275 -1256.55 275 -1256H277C277 -1257.66 275.657 -1259 274 -1259V-1257ZM-1210 -1259C-1211.66 -1259 -1213 -1257.66 -1213 -1256H-1211C-1211 -1256.55 -1210.55 -1257 -1210 -1257V-1259Z" fill="black" fill-opacity="0.1"/>
<path fill-rule="evenodd" clip-rule="evenodd" d="M8 4.25C7.58579 4.25 7.25 4.58579 7.25 5L7.25 13.1893L6.53033 12.4697C6.23744 12.1768 5.76256 12.1768 5.46967 12.4697C5.17678 12.7626 5.17678 13.2374 5.46967 13.5303L7.46967 15.5303C7.76256 15.8232 8.23744 15.8232 8.53033 15.5303L10.5303 13.5303C10.8232 13.2374 10.8232 12.7626 10.5303 12.4697C10.2374 12.1768 9.76256 12.1768 9.46967 12.4697L8.75 13.1893L8.75 5C8.75 4.58579 8.41421 4.25 8 4.25ZM16 4.25C15.5858 4.25 15.25 4.58579 15.25 5L15.25 13.1893L14.5303 12.4697C14.2374 12.1768 13.7626 12.1768 13.4697 12.4697C13.1768 12.7626 13.1768 13.2374 13.4697 13.5303L15.4697 15.5303C15.7626 15.8232 16.2374 15.8232 16.5303 15.5303L18.5303 13.5303C18.8232 13.2374 18.8232 12.7626 18.5303 12.4697C18.2374 12.1768 17.7626 12.1768 17.4697 12.4697L16.75 13.1893L16.75 5C16.75 4.58579 16.4142 4.25 16 4.25ZM5 18.25C4.58579 18.25 4.25 18.5858 4.25 19C4.25 19.4142 4.58579 19.75 5 19.75H19C19.4142 19.75 19.75 19.4142 19.75 19C19.75 18.5858 19.4142 18.25 19 18.25H5Z" fill="#1A1A1A"/>
</svg>
