<svg width="24" height="24" viewBox="0 0 24 24" fill="none" xmlns="http://www.w3.org/2000/svg">
<rect width="24" height="24" fill="#A6A6A6"/>
<path d="M-404 -277C-404 -278.105 -403.105 -279 -402 -279H1082C1083.1 -279 1084 -278.105 1084 -277V1273C1084 1274.1 1083.1 1275 1082 1275H-402C-403.105 1275 -404 1274.1 -404 1273V-277Z" fill="white"/>
<path d="M-402 -278H1082V-280H-402V-278ZM1083 -277V1273H1085V-277H1083ZM1082 1274H-402V1276H1082V1274ZM-403 1273V-277H-405V1273H-403ZM-402 1274C-402.552 1274 -403 1273.55 -403 1273H-405C-405 1274.66 -403.657 1276 -402 1276V1274ZM1083 1273C1083 1273.55 1082.55 1274 1082 1274V1276C1083.66 1276 1085 1274.66 1085 1273H1083ZM1082 -278C1082.55 -278 1083 -277.552 1083 -277H1085C1085 -278.657 1083.66 -280 1082 -280V-278ZM-402 -280C-403.657 -280 -405 -278.657 -405 -277H-403C-403 -277.552 -402.552 -278 -402 -278V-280Z" fill="black" fill-opacity="0.1"/>
<path d="M15 16C15 16 13.875 15 12 15C10.125 15 9 16 9 16M18 2H6C3.79086 2 2 3.79086 2 6V18C2 20.2091 3.79086 22 6 22H18C20.2091 22 22 20.2091 22 18V6C22 3.79086 20.2091 2 18 2ZM17 10C17 10.5523 16.5523 11 16 11C15.4477 11 15 10.5523 15 10C15 9.44772 15.4477 9 16 9C16.5523 9 17 9.44772 17 10ZM9 10C9 10.5523 8.55228 11 8 11C7.44772 11 7 10.5523 7 10C7 9.44772 7.44772 9 8 9C8.55228 9 9 9.44772 9 10Z" stroke="#1A1A1A" stroke-width="1.5" stroke-linecap="round" stroke-linejoin="round"/>
</svg>
