<svg width="24" height="24" viewBox="0 0 24 24" fill="none" xmlns="http://www.w3.org/2000/svg">
<rect width="24" height="24" fill="#A6A6A6"/>
<path d="M-230 -229C-230 -230.105 -229.105 -231 -228 -231H1256C1257.1 -231 1258 -230.105 1258 -229V1321C1258 1322.1 1257.1 1323 1256 1323H-228C-229.105 1323 -230 1322.1 -230 1321V-229Z" fill="white"/>
<path d="M-228 -230H1256V-232H-228V-230ZM1257 -229V1321H1259V-229H1257ZM1256 1322H-228V1324H1256V1322ZM-229 1321V-229H-231V1321H-229ZM-228 1322C-228.552 1322 -229 1321.55 -229 1321H-231C-231 1322.66 -229.657 1324 -228 1324V1322ZM1257 1321C1257 1321.55 1256.55 1322 1256 1322V1324C1257.66 1324 1259 1322.66 1259 1321H1257ZM1256 -230C1256.55 -230 1257 -229.552 1257 -229H1259C1259 -230.657 1257.66 -232 1256 -232V-230ZM-228 -232C-229.657 -232 -231 -230.657 -231 -229H-229C-229 -229.552 -228.552 -230 -228 -230V-232Z" fill="black" fill-opacity="0.1"/>
<path d="M21 21L19.5 19.5M15 13V17M17 15H13M8.625 21H7C4.79086 21 3 19.2091 3 17V7C3 4.79086 4.79086 3 7 3H17C19.2091 3 21 4.79086 21 7V8.625M21 15C21 18.3137 18.3137 21 15 21C11.6863 21 9 18.3137 9 15C9 11.6863 11.6863 9 15 9C18.3137 9 21 11.6863 21 15Z" stroke="#1A1A1A" stroke-width="1.5" stroke-linecap="round"/>
</svg>
