<svg width="24" height="24" viewBox="0 0 24 24" fill="none" xmlns="http://www.w3.org/2000/svg">
<rect width="24" height="24" fill="#A6A6A6"/>
<path d="M-172 -565C-172 -566.105 -171.105 -567 -170 -567H1314C1315.1 -567 1316 -566.105 1316 -565V985C1316 986.105 1315.1 987 1314 987H-170C-171.105 987 -172 986.105 -172 985V-565Z" fill="white"/>
<path d="M-170 -566H1314V-568H-170V-566ZM1315 -565V985H1317V-565H1315ZM1314 986H-170V988H1314V986ZM-171 985V-565H-173V985H-171ZM-170 986C-170.552 986 -171 985.552 -171 985H-173C-173 986.657 -171.657 988 -170 988V986ZM1315 985C1315 985.552 1314.55 986 1314 986V988C1315.66 988 1317 986.657 1317 985H1315ZM1314 -566C1314.55 -566 1315 -565.552 1315 -565H1317C1317 -566.657 1315.66 -568 1314 -568V-566ZM-170 -568C-171.657 -568 -173 -566.657 -173 -565H-171C-171 -565.552 -170.552 -566 -170 -566V-568Z" fill="black" fill-opacity="0.1"/>
<path d="M5.76103 7.18366L5.70025 6.43613L5.76103 7.18366ZM7.82636 6.3618L8.29363 6.94846L7.82636 6.3618ZM17.2524 15.7879L17.8391 16.2551V16.2551L17.2524 15.7879ZM16.4306 17.8532L17.1781 17.914L16.4306 17.8532ZM4.52691 10.3618L5.05724 9.83149L4.52691 10.3618ZM13.2524 19.0873L12.7221 19.6177L13.2524 19.0873ZM19.1613 13.3913L18.5747 12.924L19.1613 13.3913ZM10.223 4.45291L9.75572 3.86625V3.86625L10.223 4.45291ZM12.0286 21.0641C12.4056 20.8927 12.5723 20.448 12.4008 20.0709C12.2293 19.6939 11.7847 19.5272 11.4076 19.6987L12.0286 21.0641ZM8.15816 16.4493C8.32964 16.0722 8.16299 15.6276 7.78594 15.4561C7.40888 15.2846 6.96421 15.4512 6.79274 15.8283L8.15816 16.4493ZM13.7827 18.557L5.05724 9.83149L3.99658 10.8922L12.7221 19.6177L13.7827 18.557ZM18.5747 12.924L16.6658 15.3206L17.8391 16.2551L19.748 13.8585L18.5747 12.924ZM8.29363 6.94846L10.6903 5.03956L9.75572 3.86625L7.35909 5.77515L8.29363 6.94846ZM5.82181 7.9312C6.72184 7.85801 7.58312 7.51437 8.29363 6.94846L7.35909 5.77515C6.87857 6.15788 6.29949 6.3874 5.70025 6.43613L5.82181 7.9312ZM16.6658 15.3206C16.0999 16.0311 15.7562 16.8924 15.683 17.7924L17.1781 17.914C17.2268 17.3147 17.4564 16.7357 17.8391 16.2551L16.6658 15.3206ZM5.05724 9.83149C4.43019 9.20443 4.8246 8.01228 5.82181 7.9312L5.70025 6.43613C3.51584 6.61375 2.40428 9.29985 3.99658 10.8922L5.05724 9.83149ZM12.7221 19.6177C14.3144 21.21 17.0005 20.0984 17.1781 17.914L15.683 17.7924C15.602 18.7896 14.4098 19.1841 13.7827 18.557L12.7221 19.6177ZM19.748 13.8585C22.0459 10.9735 21.8848 6.86005 19.3195 4.29475L18.2588 5.35541C20.2601 7.35668 20.419 10.6084 18.5747 12.924L19.748 13.8585ZM10.6903 5.03956C13.0058 3.19524 16.2576 3.35413 18.2588 5.35541L19.3195 4.29475C16.7542 1.72945 12.6407 1.56835 9.75572 3.86625L10.6903 5.03956ZM11.4076 19.6987C10.5705 20.0794 9.4798 19.9109 8.71289 19.144L7.65223 20.2047C8.84404 21.3965 10.6003 21.7137 12.0286 21.0641L11.4076 19.6987ZM8.71289 19.144C7.94597 18.3771 7.77747 17.2864 8.15816 16.4493L6.79274 15.8283C6.14316 17.2566 6.46041 19.0128 7.65223 20.2047L8.71289 19.144Z" fill="#1A1A1A"/>
</svg>
