<svg width="24" height="24" viewBox="0 0 24 24" fill="none" xmlns="http://www.w3.org/2000/svg">
<rect width="24" height="24" fill="#A6A6A6"/>
<path d="M-864 -565C-864 -566.105 -863.105 -567 -862 -567H622C623.105 -567 624 -566.105 624 -565V985C624 986.105 623.105 987 622 987H-862C-863.105 987 -864 986.105 -864 985V-565Z" fill="white"/>
<path d="M-862 -566H622V-568H-862V-566ZM623 -565V985H625V-565H623ZM622 986H-862V988H622V986ZM-863 985V-565H-865V985H-863ZM-862 986C-862.552 986 -863 985.552 -863 985H-865C-865 986.657 -863.657 988 -862 988V986ZM623 985C623 985.552 622.552 986 622 986V988C623.657 988 625 986.657 625 985H623ZM622 -566C622.552 -566 623 -565.552 623 -565H625C625 -566.657 623.657 -568 622 -568V-566ZM-862 -568C-863.657 -568 -865 -566.657 -865 -565H-863C-863 -565.552 -862.552 -566 -862 -566V-568Z" fill="black" fill-opacity="0.1"/>
<path fill-rule="evenodd" clip-rule="evenodd" d="M18.7892 4.82508C16.5059 2.54179 12.8233 2.3818 10.223 4.45291L7.82636 6.3618C7.23085 6.83612 6.51067 7.12271 5.76103 7.18366C4.17022 7.31302 3.41723 9.25214 4.52691 10.3618L13.2524 19.0873C14.3621 20.197 16.3012 19.444 16.4306 17.8532C16.4915 17.1036 16.7781 16.3834 17.2524 15.7879L19.1613 13.3913C21.2324 10.791 21.0724 7.10837 18.7892 4.82508ZM11.6381 20.4157C10.5188 20.8848 9.13821 20.6309 8.18145 19.6741C7.2242 18.7169 6.97056 17.3353 7.44061 16.2158C7.46225 16.1642 7.49231 16.1167 7.52777 16.0735C7.77621 15.771 8.23522 15.7592 8.49887 16.0486L11.7931 19.6646C11.964 19.8522 11.9573 20.141 11.7779 20.3204C11.7376 20.3606 11.6906 20.3937 11.6381 20.4157Z" fill="#1A1A1A"/>
</svg>
