<svg width="24" height="24" viewBox="0 0 24 24" fill="none" xmlns="http://www.w3.org/2000/svg">
<rect width="24" height="24" fill="#A6A6A6"/>
<path d="M-404 -1024C-404 -1025.1 -403.105 -1026 -402 -1026H1082C1083.1 -1026 1084 -1025.1 1084 -1024V526C1084 527.105 1083.1 528 1082 528H-402C-403.105 528 -404 527.105 -404 526V-1024Z" fill="white"/>
<path d="M-402 -1025H1082V-1027H-402V-1025ZM1083 -1024V526H1085V-1024H1083ZM1082 527H-402V529H1082V527ZM-403 526V-1024H-405V526H-403ZM-402 527C-402.552 527 -403 526.552 -403 526H-405C-405 527.657 -403.657 529 -402 529V527ZM1083 526C1083 526.552 1082.55 527 1082 527V529C1083.66 529 1085 527.657 1085 526H1083ZM1082 -1025C1082.55 -1025 1083 -1024.55 1083 -1024H1085C1085 -1025.66 1083.66 -1027 1082 -1027V-1025ZM-402 -1027C-403.657 -1027 -405 -1025.66 -405 -1024H-403C-403 -1024.55 -402.552 -1025 -402 -1025V-1027Z" fill="black" fill-opacity="0.1"/>
<ellipse cx="10" cy="17.5" rx="7" ry="3.5" stroke="#1A1A1A" stroke-width="1.5" stroke-linejoin="round"/>
<circle cx="10" cy="7" r="4" stroke="#1A1A1A" stroke-width="1.5" stroke-linejoin="round"/>
<path d="M21 11H17" stroke="#1A1A1A" stroke-width="1.5" stroke-linecap="round"/>
<path d="M19 9L19 13" stroke="#1A1A1A" stroke-width="1.5" stroke-linecap="round"/>
</svg>
