<svg width="24" height="24" viewBox="0 0 24 24" fill="none" xmlns="http://www.w3.org/2000/svg">
<rect width="24" height="24" fill="#A6A6A6"/>
<path d="M-1096 -1024C-1096 -1025.1 -1095.1 -1026 -1094 -1026H390C391.105 -1026 392 -1025.1 392 -1024V526C392 527.105 391.105 528 390 528H-1094C-1095.1 528 -1096 527.105 -1096 526V-1024Z" fill="white"/>
<path d="M-1094 -1025H390V-1027H-1094V-1025ZM391 -1024V526H393V-1024H391ZM390 527H-1094V529H390V527ZM-1095 526V-1024H-1097V526H-1095ZM-1094 527C-1094.55 527 -1095 526.552 -1095 526H-1097C-1097 527.657 -1095.66 529 -1094 529V527ZM391 526C391 526.552 390.552 527 390 527V529C391.657 529 393 527.657 393 526H391ZM390 -1025C390.552 -1025 391 -1024.55 391 -1024H393C393 -1025.66 391.657 -1027 390 -1027V-1025ZM-1094 -1027C-1095.66 -1027 -1097 -1025.66 -1097 -1024H-1095C-1095 -1024.55 -1094.55 -1025 -1094 -1025V-1027Z" fill="black" fill-opacity="0.1"/>
<path fill-rule="evenodd" clip-rule="evenodd" d="M14 7C14 9.20914 12.2091 11 10 11C7.79086 11 6 9.20914 6 7C6 4.79086 7.79086 3 10 3C12.2091 3 14 4.79086 14 7ZM17 17C17 19.2091 13.866 21 10 21C6.13401 21 3 19.2091 3 17C3 14.7909 6.13401 13 10 13C13.866 13 17 14.7909 17 17ZM18 12.75C17.5858 12.75 17.25 12.4142 17.25 12V10.75H16C15.5858 10.75 15.25 10.4142 15.25 10C15.25 9.58579 15.5858 9.25 16 9.25H17.25V8C17.25 7.58579 17.5858 7.25 18 7.25C18.4142 7.25 18.75 7.58579 18.75 8V9.25H20C20.4142 9.25 20.75 9.58579 20.75 10C20.75 10.4142 20.4142 10.75 20 10.75H18.75V12C18.75 12.4142 18.4142 12.75 18 12.75Z" fill="#1A1A1A"/>
</svg>
