<svg width="24" height="24" viewBox="0 0 24 24" fill="none" xmlns="http://www.w3.org/2000/svg">
<rect width="24" height="24" fill="#A6A6A6"/>
<path d="M-520 -133C-520 -134.105 -519.105 -135 -518 -135H966C967.105 -135 968 -134.105 968 -133V1417C968 1418.1 967.105 1419 966 1419H-518C-519.105 1419 -520 1418.1 -520 1417V-133Z" fill="white"/>
<path d="M-518 -134H966V-136H-518V-134ZM967 -133V1417H969V-133H967ZM966 1418H-518V1420H966V1418ZM-519 1417V-133H-521V1417H-519ZM-518 1418C-518.552 1418 -519 1417.55 -519 1417H-521C-521 1418.66 -519.657 1420 -518 1420V1418ZM967 1417C967 1417.55 966.552 1418 966 1418V1420C967.657 1420 969 1418.66 969 1417H967ZM966 -134C966.552 -134 967 -133.552 967 -133H969C969 -134.657 967.657 -136 966 -136V-134ZM-518 -136C-519.657 -136 -521 -134.657 -521 -133H-519C-519 -133.552 -518.552 -134 -518 -134V-136Z" fill="black" fill-opacity="0.1"/>
<path d="M8 8V6C8 3.79086 9.79086 2 12 2L18 2C20.2091 2 22 3.79086 22 6V12C22 14.2091 20.2091 16 18 16H16M8 8H6C3.79086 8 2 9.79086 2 12V18C2 20.2091 3.79086 22 6 22H12C14.2091 22 16 20.2091 16 18V16M8 8H12C14.2091 8 16 9.79086 16 12V16" stroke="#1A1A1A" stroke-width="1.5" stroke-linejoin="round"/>
</svg>
