<svg width="24" height="24" viewBox="0 0 24 24" fill="none" xmlns="http://www.w3.org/2000/svg">
<rect width="24" height="24" fill="#A6A6A6"/>
<path d="M-1212 -133C-1212 -134.105 -1211.1 -135 -1210 -135H274C275.105 -135 276 -134.105 276 -133V1417C276 1418.1 275.105 1419 274 1419H-1210C-1211.1 1419 -1212 1418.1 -1212 1417V-133Z" fill="white"/>
<path d="M-1210 -134H274V-136H-1210V-134ZM275 -133V1417H277V-133H275ZM274 1418H-1210V1420H274V1418ZM-1211 1417V-133H-1213V1417H-1211ZM-1210 1418C-1210.55 1418 -1211 1417.55 -1211 1417H-1213C-1213 1418.66 -1211.66 1420 -1210 1420V1418ZM275 1417C275 1417.55 274.552 1418 274 1418V1420C275.657 1420 277 1418.66 277 1417H275ZM274 -134C274.552 -134 275 -133.552 275 -133H277C277 -134.657 275.657 -136 274 -136V-134ZM-1210 -136C-1211.66 -136 -1213 -134.657 -1213 -133H-1211C-1211 -133.552 -1210.55 -134 -1210 -134V-136Z" fill="black" fill-opacity="0.1"/>
<path fill-rule="evenodd" clip-rule="evenodd" d="M12.6429 6.5H8V6C8 3.79086 9.79086 2 12 2H18C20.2091 2 22 3.79086 22 6V12C22 14.2091 20.2091 16 18 16H17.5V11.3571C17.5 8.67462 15.3254 6.5 12.6429 6.5ZM12 22H6C3.79086 22 2 20.2091 2 18V12C2 9.79086 3.79086 8 6 8H12C14.2091 8 16 9.79086 16 12V18C16 20.2091 14.2091 22 12 22Z" fill="#1A1A1A"/>
</svg>
