<svg width="24" height="24" viewBox="0 0 24 24" fill="none" xmlns="http://www.w3.org/2000/svg">
<rect width="24" height="24" fill="#A6A6A6"/>
<path d="M-922 -1024C-922 -1025.1 -921.105 -1026 -920 -1026H564C565.105 -1026 566 -1025.1 566 -1024V526C566 527.105 565.105 528 564 528H-920C-921.105 528 -922 527.105 -922 526V-1024Z" fill="white"/>
<path d="M-920 -1025H564V-1027H-920V-1025ZM565 -1024V526H567V-1024H565ZM564 527H-920V529H564V527ZM-921 526V-1024H-923V526H-921ZM-920 527C-920.552 527 -921 526.552 -921 526H-923C-923 527.657 -921.657 529 -920 529V527ZM565 526C565 526.552 564.552 527 564 527V529C565.657 529 567 527.657 567 526H565ZM564 -1025C564.552 -1025 565 -1024.55 565 -1024H567C567 -1025.66 565.657 -1027 564 -1027V-1025ZM-920 -1027C-921.657 -1027 -923 -1025.66 -923 -1024H-921C-921 -1024.55 -920.552 -1025 -920 -1025V-1027Z" fill="black" fill-opacity="0.1"/>
<path fill-rule="evenodd" clip-rule="evenodd" d="M12 11C13.6569 11 15 9.65685 15 8C15 6.34315 13.6569 5 12 5C10.3431 5 9 6.34315 9 8C9 9.65685 10.3431 11 12 11ZM12 19C15.3137 19 18 17.6569 18 16C18 14.3431 15.3137 13 12 13C8.68629 13 6 14.3431 6 16C6 17.6569 8.68629 19 12 19ZM6.38165 13.019C3.91199 13.1713 2 14.2241 2 15.5001C2 16.5521 3.29949 17.4523 5.13963 17.8213C4.72843 17.2645 4.5 16.6483 4.5 16.0001C4.5 14.8567 5.21076 13.8129 6.38165 13.019ZM19.4988 16.0001C19.4988 16.6483 19.2704 17.2645 18.8592 17.8213C20.6994 17.4523 21.9988 16.5521 21.9988 15.5001C21.9988 14.2241 20.0869 13.1713 17.6172 13.019C18.7881 13.8129 19.4988 14.8567 19.4988 16.0001ZM15.7188 10.5354C16.212 9.8134 16.5005 8.94039 16.5005 8C16.5005 7.68794 16.4687 7.3833 16.4082 7.08914C16.5954 7.0312 16.7943 7 17.0005 7C18.105 7 19.0005 7.89543 19.0005 9C19.0005 10.1046 18.105 11 17.0005 11C16.5128 11 16.0658 10.8254 15.7188 10.5354ZM7 7C7.20619 7 7.40509 7.0312 7.59223 7.08914C7.53176 7.3833 7.5 7.68794 7.5 8C7.5 8.94039 7.78845 9.8134 8.28171 10.5354C7.93462 10.8254 7.4877 11 7 11C5.89543 11 5 10.1046 5 9C5 7.89543 5.89543 7 7 7Z" fill="#1A1A1A"/>
</svg>
