<svg width="24" height="24" viewBox="0 0 24 24" fill="none" xmlns="http://www.w3.org/2000/svg">
<rect width="24" height="24" fill="#A6A6A6"/>
<path d="M-404 -517C-404 -518.105 -403.105 -519 -402 -519H1082C1083.1 -519 1084 -518.105 1084 -517V1033C1084 1034.1 1083.1 1035 1082 1035H-402C-403.105 1035 -404 1034.1 -404 1033V-517Z" fill="white"/>
<path d="M-402 -518H1082V-520H-402V-518ZM1083 -517V1033H1085V-517H1083ZM1082 1034H-402V1036H1082V1034ZM-403 1033V-517H-405V1033H-403ZM-402 1034C-402.552 1034 -403 1033.55 -403 1033H-405C-405 1034.66 -403.657 1036 -402 1036V1034ZM1083 1033C1083 1033.55 1082.55 1034 1082 1034V1036C1083.66 1036 1085 1034.66 1085 1033H1083ZM1082 -518C1082.55 -518 1083 -517.552 1083 -517H1085C1085 -518.657 1083.66 -520 1082 -520V-518ZM-402 -520C-403.657 -520 -405 -518.657 -405 -517H-403C-403 -517.552 -402.552 -518 -402 -518V-520Z" fill="black" fill-opacity="0.1"/>
<path d="M16.0018 6C16.0018 3.79086 14.211 2 12.0018 2C9.79268 2 8.00182 3.79086 8.00182 6M6.82153 22H17.1821C19.6867 22 21.5752 19.7245 21.1136 17.2628L19.6136 9.26285C19.2589 7.37095 17.607 6 15.6821 6H8.32153C6.39667 6 4.74477 7.37096 4.39004 9.26285L2.89004 17.2628C2.42848 19.7245 4.31698 22 6.82153 22Z" stroke="#1A1A1A" stroke-width="1.5" stroke-linejoin="round"/>
</svg>
