<svg width="24" height="24" viewBox="0 0 24 24" fill="none" xmlns="http://www.w3.org/2000/svg">
<rect width="24" height="24" fill="#A6A6A6"/>
<path d="M-1096 -517C-1096 -518.105 -1095.1 -519 -1094 -519H390C391.105 -519 392 -518.105 392 -517V1033C392 1034.1 391.105 1035 390 1035H-1094C-1095.1 1035 -1096 1034.1 -1096 1033V-517Z" fill="white"/>
<path d="M-1094 -518H390V-520H-1094V-518ZM391 -517V1033H393V-517H391ZM390 1034H-1094V1036H390V1034ZM-1095 1033V-517H-1097V1033H-1095ZM-1094 1034C-1094.55 1034 -1095 1033.55 -1095 1033H-1097C-1097 1034.66 -1095.66 1036 -1094 1036V1034ZM391 1033C391 1033.55 390.552 1034 390 1034V1036C391.657 1036 393 1034.66 393 1033H391ZM390 -518C390.552 -518 391 -517.552 391 -517H393C393 -518.657 391.657 -520 390 -520V-518ZM-1094 -520C-1095.66 -520 -1097 -518.657 -1097 -517H-1095C-1095 -517.552 -1094.55 -518 -1094 -518V-520Z" fill="black" fill-opacity="0.1"/>
<path fill-rule="evenodd" clip-rule="evenodd" d="M12.0018 1.25C9.93076 1.25 8.25182 2.92893 8.25182 5V6.0006C6.35691 6.03323 4.74048 7.39383 4.39004 9.26285L2.89004 17.2628C2.42848 19.7245 4.31698 22 6.82153 22H17.1821C19.6867 22 21.5752 19.7245 21.1136 17.2628L19.6136 9.26285C19.2632 7.39383 17.6467 6.03323 15.7518 6.0006V5C15.7518 2.92893 14.0729 1.25 12.0018 1.25ZM14.2518 6V5C14.2518 3.75736 13.2445 2.75 12.0018 2.75C10.7592 2.75 9.75182 3.75736 9.75182 5V6H14.2518Z" fill="#1A1A1A"/>
</svg>
