<svg width="24" height="24" viewBox="0 0 24 24" fill="none" xmlns="http://www.w3.org/2000/svg">
<rect width="24" height="24" fill="#A6A6A6"/>
<path d="M-172 -373C-172 -374.105 -171.105 -375 -170 -375H1314C1315.1 -375 1316 -374.105 1316 -373V1177C1316 1178.1 1315.1 1179 1314 1179H-170C-171.105 1179 -172 1178.1 -172 1177V-373Z" fill="white"/>
<path d="M-170 -374H1314V-376H-170V-374ZM1315 -373V1177H1317V-373H1315ZM1314 1178H-170V1180H1314V1178ZM-171 1177V-373H-173V1177H-171ZM-170 1178C-170.552 1178 -171 1177.55 -171 1177H-173C-173 1178.66 -171.657 1180 -170 1180V1178ZM1315 1177C1315 1177.55 1314.55 1178 1314 1178V1180C1315.66 1180 1317 1178.66 1317 1177H1315ZM1314 -374C1314.55 -374 1315 -373.552 1315 -373H1317C1317 -374.657 1315.66 -376 1314 -376V-374ZM-170 -376C-171.657 -376 -173 -374.657 -173 -373H-171C-171 -373.552 -170.552 -374 -170 -374V-376Z" fill="black" fill-opacity="0.1"/>
<path d="M16.4444 2H18C20.2091 2 22 3.79086 22 6V7.55556M7.55556 2H6C3.79086 2 2 3.79086 2 6V7.55556M22 16.4444V18C22 20.2091 20.2091 22 18 22H16.4444M7.55556 22H6C3.79086 22 2 20.2091 2 18V16.4444M17 12C17 14.7614 14.7614 17 12 17C9.23858 17 7 14.7614 7 12C7 9.23858 9.23858 7 12 7C14.7614 7 17 9.23858 17 12Z" stroke="#1A1A1A" stroke-width="1.5" stroke-linecap="round"/>
</svg>
