<svg width="24" height="24" viewBox="0 0 24 24" fill="none" xmlns="http://www.w3.org/2000/svg">
<rect width="24" height="24" fill="#A6A6A6"/>
<path d="M-404 -133C-404 -134.105 -403.105 -135 -402 -135H1082C1083.1 -135 1084 -134.105 1084 -133V1417C1084 1418.1 1083.1 1419 1082 1419H-402C-403.105 1419 -404 1418.1 -404 1417V-133Z" fill="white"/>
<path d="M-402 -134H1082V-136H-402V-134ZM1083 -133V1417H1085V-133H1083ZM1082 1418H-402V1420H1082V1418ZM-403 1417V-133H-405V1417H-403ZM-402 1418C-402.552 1418 -403 1417.55 -403 1417H-405C-405 1418.66 -403.657 1420 -402 1420V1418ZM1083 1417C1083 1417.55 1082.55 1418 1082 1418V1420C1083.66 1420 1085 1418.66 1085 1417H1083ZM1082 -134C1082.55 -134 1083 -133.552 1083 -133H1085C1085 -134.657 1083.66 -136 1082 -136V-134ZM-402 -136C-403.657 -136 -405 -134.657 -405 -133H-403C-403 -133.552 -402.552 -134 -402 -134V-136Z" fill="black" fill-opacity="0.1"/>
<path d="M12.0001 2V3M12.0001 21V22M20.6603 7L19.7943 7.5M4.20587 16.5L3.33985 17M3.33984 7L4.20587 7.5M19.7943 16.5L20.6603 17M18.0001 12C18.0001 15.3137 15.3138 18 12.0001 18C8.68641 18 6.00012 15.3137 6.00012 12C6.00012 8.68629 8.68641 6 12.0001 6C15.3138 6 18.0001 8.68629 18.0001 12Z" stroke="#1A1A1A" stroke-width="1.5" stroke-linecap="round"/>
</svg>
