<svg width="24" height="24" viewBox="0 0 24 24" fill="none" xmlns="http://www.w3.org/2000/svg">
<rect width="24" height="24" fill="#A6A6A6"/>
<path d="M-1096 -133C-1096 -134.105 -1095.1 -135 -1094 -135H390C391.105 -135 392 -134.105 392 -133V1417C392 1418.1 391.105 1419 390 1419H-1094C-1095.1 1419 -1096 1418.1 -1096 1417V-133Z" fill="white"/>
<path d="M-1094 -134H390V-136H-1094V-134ZM391 -133V1417H393V-133H391ZM390 1418H-1094V1420H390V1418ZM-1095 1417V-133H-1097V1417H-1095ZM-1094 1418C-1094.55 1418 -1095 1417.55 -1095 1417H-1097C-1097 1418.66 -1095.66 1420 -1094 1420V1418ZM391 1417C391 1417.55 390.552 1418 390 1418V1420C391.657 1420 393 1418.66 393 1417H391ZM390 -134C390.552 -134 391 -133.552 391 -133H393C393 -134.657 391.657 -136 390 -136V-134ZM-1094 -136C-1095.66 -136 -1097 -134.657 -1097 -133H-1095C-1095 -133.552 -1094.55 -134 -1094 -134V-136Z" fill="black" fill-opacity="0.1"/>
<path fill-rule="evenodd" clip-rule="evenodd" d="M12 2C12.4142 2 12.75 2.33579 12.75 2.75V3.75C12.75 4.16421 12.4142 4.5 12 4.5C11.5858 4.5 11.25 4.16421 11.25 3.75V2.75C11.25 2.33579 11.5858 2 12 2ZM18 12C18 15.3137 15.3137 18 12 18C8.68629 18 6 15.3137 6 12C6 8.68629 8.68629 6 12 6C15.3137 6 18 8.68629 18 12ZM12.75 20.25C12.75 19.8358 12.4142 19.5 12 19.5C11.5858 19.5 11.25 19.8358 11.25 20.25V21.25C11.25 21.6642 11.5858 22 12 22C12.4142 22 12.75 21.6642 12.75 21.25V20.25ZM3.33984 6.9999C3.54695 6.64118 4.00564 6.51827 4.36436 6.72538L5.23039 7.22538C5.58911 7.43248 5.71201 7.89118 5.50491 8.2499C5.2978 8.60861 4.83911 8.73152 4.48039 8.52441L3.61436 8.02441C3.25564 7.81731 3.13274 7.35861 3.33984 6.9999ZM19.5206 15.4754C19.1619 15.2683 18.7032 15.3912 18.4961 15.7499C18.289 16.1086 18.4119 16.5673 18.7706 16.7744L19.6366 17.2744C19.9954 17.4815 20.4541 17.3586 20.6612 16.9999C20.8683 16.6412 20.7454 16.1825 20.3866 15.9754L19.5206 15.4754ZM20.6602 7.0001C20.8673 7.35882 20.7444 7.81752 20.3856 8.02462L19.5196 8.52462C19.1609 8.73173 18.7022 8.60882 18.4951 8.2501C18.288 7.89139 18.4109 7.43269 18.7696 7.22559L19.6356 6.72559C19.9944 6.51848 20.453 6.64139 20.6602 7.0001ZM5.22943 16.7745C5.58815 16.5674 5.71106 16.1087 5.50395 15.75C5.29684 15.3913 4.83815 15.2684 4.47943 15.4755L3.61341 15.9755C3.25469 16.1826 3.13178 16.6413 3.33889 17C3.54599 17.3587 4.00469 17.4816 4.36341 17.2745L5.22943 16.7745Z" fill="#1A1A1A"/>
</svg>
