<svg width="24" height="24" viewBox="0 0 24 24" fill="none" xmlns="http://www.w3.org/2000/svg">
<rect width="24" height="24" fill="#A6A6A6"/>
<path d="M-520 -1304C-520 -1305.1 -519.105 -1306 -518 -1306H966C967.105 -1306 968 -1305.1 968 -1304V246C968 247.105 967.105 248 966 248H-518C-519.105 248 -520 247.105 -520 246V-1304Z" fill="white"/>
<path d="M-518 -1305H966V-1307H-518V-1305ZM967 -1304V246H969V-1304H967ZM966 247H-518V249H966V247ZM-519 246V-1304H-521V246H-519ZM-518 247C-518.552 247 -519 246.552 -519 246H-521C-521 247.657 -519.657 249 -518 249V247ZM967 246C967 246.552 966.552 247 966 247V249C967.657 249 969 247.657 969 246H967ZM966 -1305C966.552 -1305 967 -1304.55 967 -1304H969C969 -1305.66 967.657 -1307 966 -1307V-1305ZM-518 -1307C-519.657 -1307 -521 -1305.66 -521 -1304H-519C-519 -1304.55 -518.552 -1305 -518 -1305V-1307Z" fill="black" fill-opacity="0.1"/>
<path d="M10 6V12M10 6H9C7.34315 6 6 7.34315 6 9V9C6 10.6569 7.34315 12 9 12H10M10 6H14M10 18V12M18 6H14M14 6V18" stroke="#1A1A1A" stroke-width="1.5" stroke-linecap="round" stroke-linejoin="round"/>
</svg>
