<svg width="24" height="24" viewBox="0 0 24 24" fill="none" xmlns="http://www.w3.org/2000/svg">
<rect width="24" height="24" fill="#A6A6A6"/>
<path d="M-1212 -1304C-1212 -1305.1 -1211.1 -1306 -1210 -1306H274C275.105 -1306 276 -1305.1 276 -1304V246C276 247.105 275.105 248 274 248H-1210C-1211.1 248 -1212 247.105 -1212 246V-1304Z" fill="white"/>
<path d="M-1210 -1305H274V-1307H-1210V-1305ZM275 -1304V246H277V-1304H275ZM274 247H-1210V249H274V247ZM-1211 246V-1304H-1213V246H-1211ZM-1210 247C-1210.55 247 -1211 246.552 -1211 246H-1213C-1213 247.657 -1211.66 249 -1210 249V247ZM275 246C275 246.552 274.552 247 274 247V249C275.657 249 277 247.657 277 246H275ZM274 -1305C274.552 -1305 275 -1304.55 275 -1304H277C277 -1305.66 275.657 -1307 274 -1307V-1305ZM-1210 -1307C-1211.66 -1307 -1213 -1305.66 -1213 -1304H-1211C-1211 -1304.55 -1210.55 -1305 -1210 -1305V-1307Z" fill="black" fill-opacity="0.1"/>
<path fill-rule="evenodd" clip-rule="evenodd" d="M9 6.75C7.75736 6.75 6.75 7.75736 6.75 9C6.75 10.2426 7.75736 11.25 9 11.25H9.25V6.75H9ZM10.75 6.75V18C10.75 18.4142 10.4142 18.75 10 18.75C9.58579 18.75 9.25 18.4142 9.25 18V12.75H9C6.92893 12.75 5.25 11.0711 5.25 9C5.25 6.92893 6.92893 5.25 9 5.25H18C18.4142 5.25 18.75 5.58579 18.75 6C18.75 6.41421 18.4142 6.75 18 6.75H14.75V18C14.75 18.4142 14.4142 18.75 14 18.75C13.5858 18.75 13.25 18.4142 13.25 18V6.75H10.75Z" fill="#1A1A1A"/>
</svg>
