<svg width="24" height="24" viewBox="0 0 24 24" fill="none" xmlns="http://www.w3.org/2000/svg">
<rect width="24" height="24" fill="#A6A6A6"/>
<path d="M-1213 -902C-1213 -903.105 -1212.1 -904 -1211 -904H273C274.105 -904 275 -903.105 275 -902V648C275 649.105 274.105 650 273 650H-1211C-1212.1 650 -1213 649.105 -1213 648V-902Z" fill="white"/>
<path d="M-1211 -903H273V-905H-1211V-903ZM274 -902V648H276V-902H274ZM273 649H-1211V651H273V649ZM-1212 648V-902H-1214V648H-1212ZM-1211 649C-1211.55 649 -1212 648.552 -1212 648H-1214C-1214 649.657 -1212.66 651 -1211 651V649ZM274 648C274 648.552 273.552 649 273 649V651C274.657 651 276 649.657 276 648H274ZM273 -903C273.552 -903 274 -902.552 274 -902H276C276 -903.657 274.657 -905 273 -905V-903ZM-1211 -905C-1212.66 -905 -1214 -903.657 -1214 -902H-1212C-1212 -902.552 -1211.55 -903 -1211 -903V-905Z" fill="black" fill-opacity="0.1"/>
<g clip-path="url(#clip0_442_5509)">
<path fill-rule="evenodd" clip-rule="evenodd" d="M13.0609 16.0599C12.7796 16.3408 12.3984 16.4986 12.0009 16.4986C11.6034 16.4986 11.2221 16.3408 10.9409 16.0599L5.28288 10.4039C5.00161 10.1225 4.84366 9.74089 4.84375 9.34304C4.84384 8.94518 5.00198 8.56365 5.28338 8.28239C5.56477 8.00113 5.94637 7.84317 6.34423 7.84326C6.74209 7.84336 7.12361 8.00149 7.40488 8.28289L12.0009 12.8789L16.5969 8.28289C16.8797 8.00952 17.2585 7.85814 17.6518 7.86137C18.0451 7.8646 18.4214 8.02218 18.6996 8.30016C18.9779 8.57815 19.1358 8.95429 19.1394 9.34759C19.143 9.74088 18.992 10.1199 18.7189 10.4029L13.0619 16.0609L13.0609 16.0599Z" fill="#1A1A1A"/>
</g>
<defs>
<clipPath id="clip0_442_5509">
<rect width="24" height="24" fill="white"/>
</clipPath>
</defs>
</svg>
