<svg width="24" height="24" viewBox="0 0 24 24" fill="none" xmlns="http://www.w3.org/2000/svg">
<rect width="24" height="24" fill="#A6A6A6"/>
<path d="M-172 -709C-172 -710.105 -171.105 -711 -170 -711H1314C1315.1 -711 1316 -710.105 1316 -709V841C1316 842.105 1315.1 843 1314 843H-170C-171.105 843 -172 842.105 -172 841V-709Z" fill="white"/>
<path d="M-170 -710H1314V-712H-170V-710ZM1315 -709V841H1317V-709H1315ZM1314 842H-170V844H1314V842ZM-171 841V-709H-173V841H-171ZM-170 842C-170.552 842 -171 841.552 -171 841H-173C-173 842.657 -171.657 844 -170 844V842ZM1315 841C1315 841.552 1314.55 842 1314 842V844C1315.66 844 1317 842.657 1317 841H1315ZM1314 -710C1314.55 -710 1315 -709.552 1315 -709H1317C1317 -710.657 1315.66 -712 1314 -712V-710ZM-170 -712C-171.657 -712 -173 -710.657 -173 -709H-171C-171 -709.552 -170.552 -710 -170 -710V-712Z" fill="black" fill-opacity="0.1"/>
<path d="M20 14L21.2929 12.7071C21.6834 12.3166 21.6834 11.6834 21.2929 11.2929L20 10" stroke="#1A1A1A" stroke-width="1.5" stroke-linecap="round" stroke-linejoin="round"/>
<path d="M21 12H13M6 20C3.79086 20 2 18.2091 2 16V8C2 5.79086 3.79086 4 6 4M6 20C8.20914 20 10 18.2091 10 16V8C10 5.79086 8.20914 4 6 4M6 20H14C16.2091 20 18 18.2091 18 16M6 4H14C16.2091 4 18 5.79086 18 8" stroke="#1A1A1A" stroke-width="1.5" stroke-linecap="round"/>
</svg>
