<svg width="24" height="24" viewBox="0 0 24 24" fill="none" xmlns="http://www.w3.org/2000/svg">
<rect width="24" height="24" fill="#A6A6A6"/>
<path d="M-864 -709C-864 -710.105 -863.105 -711 -862 -711H622C623.105 -711 624 -710.105 624 -709V841C624 842.105 623.105 843 622 843H-862C-863.105 843 -864 842.105 -864 841V-709Z" fill="white"/>
<path d="M-862 -710H622V-712H-862V-710ZM623 -709V841H625V-709H623ZM622 842H-862V844H622V842ZM-863 841V-709H-865V841H-863ZM-862 842C-862.552 842 -863 841.552 -863 841H-865C-865 842.657 -863.657 844 -862 844V842ZM623 841C623 841.552 622.552 842 622 842V844C623.657 844 625 842.657 625 841H623ZM622 -710C622.552 -710 623 -709.552 623 -709H625C625 -710.657 623.657 -712 622 -712V-710ZM-862 -712C-863.657 -712 -865 -710.657 -865 -709H-863C-863 -709.552 -862.552 -710 -862 -710V-712Z" fill="black" fill-opacity="0.1"/>
<path fill-rule="evenodd" clip-rule="evenodd" d="M6.75 3.25C4.12665 3.25 2 5.37665 2 8V16C2 18.6234 4.12665 20.75 6.75 20.75H14C16.6234 20.75 18.75 18.6234 18.75 16C18.75 15.5858 18.4142 15.25 18 15.25C17.5858 15.25 17.25 15.5858 17.25 16C17.25 17.7949 15.7949 19.25 14 19.25H9.46412C10.2616 18.4003 10.75 17.2572 10.75 16V8C10.75 6.74279 10.2616 5.59965 9.46412 4.75H14C15.7949 4.75 17.25 6.20507 17.25 8C17.25 8.41421 17.5858 8.75 18 8.75C18.4142 8.75 18.75 8.41421 18.75 8C18.75 5.37665 16.6234 3.25 14 3.25H6.75ZM19.1464 14.5303C18.8536 14.2374 18.8536 13.7626 19.1464 13.4697L19.8661 12.75H13.75C13.3358 12.75 13 12.4142 13 12C13 11.5858 13.3358 11.25 13.75 11.25H19.8661L19.1464 10.5303C18.8536 10.2374 18.8536 9.76256 19.1464 9.46967C19.4393 9.17678 19.9142 9.17678 20.2071 9.46967L21.5 10.7626C22.1834 11.446 22.1834 12.554 21.5 13.2374L20.2071 14.5303C19.9142 14.8232 19.4393 14.8232 19.1464 14.5303Z" fill="#1A1A1A"/>
</svg>
