<svg width="24" height="24" viewBox="0 0 24 24" fill="none" xmlns="http://www.w3.org/2000/svg">
<rect width="24" height="24" fill="#A6A6A6"/>
<path d="M-636 -613C-636 -614.105 -635.105 -615 -634 -615H850C851.105 -615 852 -614.105 852 -613V937C852 938.105 851.105 939 850 939H-634C-635.105 939 -636 938.105 -636 937V-613Z" fill="white"/>
<path d="M-634 -614H850V-616H-634V-614ZM851 -613V937H853V-613H851ZM850 938H-634V940H850V938ZM-635 937V-613H-637V937H-635ZM-634 938C-634.552 938 -635 937.552 -635 937H-637C-637 938.657 -635.657 940 -634 940V938ZM851 937C851 937.552 850.552 938 850 938V940C851.657 940 853 938.657 853 937H851ZM850 -614C850.552 -614 851 -613.552 851 -613H853C853 -614.657 851.657 -616 850 -616V-614ZM-634 -616C-635.657 -616 -637 -614.657 -637 -613H-635C-635 -613.552 -634.552 -614 -634 -614V-616Z" fill="black" fill-opacity="0.1"/>
<path d="M12 6H21M12 12H18M12 18H15M3 8.375L4.50518 6.68167C5.30076 5.78664 6.69924 5.78664 7.49482 6.68167L9 8.375M6 6V18" stroke="#1A1A1A" stroke-width="1.5" stroke-linecap="round"/>
</svg>
