<svg width="24" height="24" viewBox="0 0 24 24" fill="none" xmlns="http://www.w3.org/2000/svg">
<rect width="24" height="24" fill="#A6A6A6"/>
<path d="M-1328 -613C-1328 -614.105 -1327.1 -615 -1326 -615H158C159.105 -615 160 -614.105 160 -613V937C160 938.105 159.105 939 158 939H-1326C-1327.1 939 -1328 938.105 -1328 937V-613Z" fill="white"/>
<path d="M-1326 -614H158V-616H-1326V-614ZM159 -613V937H161V-613H159ZM158 938H-1326V940H158V938ZM-1327 937V-613H-1329V937H-1327ZM-1326 938C-1326.55 938 -1327 937.552 -1327 937H-1329C-1329 938.657 -1327.66 940 -1326 940V938ZM159 937C159 937.552 158.552 938 158 938V940C159.657 940 161 938.657 161 937H159ZM158 -614C158.552 -614 159 -613.552 159 -613H161C161 -614.657 159.657 -616 158 -616V-614ZM-1326 -616C-1327.66 -616 -1329 -614.657 -1329 -613H-1327C-1327 -613.552 -1326.55 -614 -1326 -614V-616Z" fill="black" fill-opacity="0.1"/>
<path fill-rule="evenodd" clip-rule="evenodd" d="M6 5.25C6.05004 5.25 6.09894 5.2549 6.14624 5.26425C6.85087 5.30146 7.54378 5.60784 8.05538 6.18339L9.56056 7.87672C9.83575 8.18631 9.80787 8.66036 9.49828 8.93555C9.18869 9.21074 8.71464 9.18285 8.43945 8.87326L6.93427 7.17994C6.8774 7.11596 6.8156 7.0593 6.75 7.00995V18C6.75 18.4142 6.41421 18.75 6 18.75C5.58579 18.75 5.25 18.4142 5.25 18V7.00996C5.18441 7.05931 5.12261 7.11596 5.06575 7.17994L3.56056 8.87326C3.28538 9.18285 2.81132 9.21074 2.50174 8.93555C2.19215 8.66036 2.16426 8.18631 2.43945 7.87672L3.94463 6.18339C4.45623 5.60785 5.14913 5.30147 5.85375 5.26425C5.90106 5.2549 5.94996 5.25 6 5.25ZM12 5.25C11.5858 5.25 11.25 5.58579 11.25 6C11.25 6.41421 11.5858 6.75 12 6.75H21C21.4142 6.75 21.75 6.41421 21.75 6C21.75 5.58579 21.4142 5.25 21 5.25H12ZM12 11.25C11.5858 11.25 11.25 11.5858 11.25 12C11.25 12.4142 11.5858 12.75 12 12.75H18C18.4142 12.75 18.75 12.4142 18.75 12C18.75 11.5858 18.4142 11.25 18 11.25H12ZM11.25 18C11.25 17.5858 11.5858 17.25 12 17.25H15C15.4142 17.25 15.75 17.5858 15.75 18C15.75 18.4142 15.4142 18.75 15 18.75H12C11.5858 18.75 11.25 18.4142 11.25 18Z" fill="#1A1A1A"/>
</svg>
