<svg width="24" height="24" viewBox="0 0 24 24" fill="none" xmlns="http://www.w3.org/2000/svg">
<rect width="24" height="24" fill="#A6A6A6"/>
<path d="M-1038 -565C-1038 -566.105 -1037.1 -567 -1036 -567H448C449.105 -567 450 -566.105 450 -565V985C450 986.105 449.105 987 448 987H-1036C-1037.1 987 -1038 986.105 -1038 985V-565Z" fill="white"/>
<path d="M-1036 -566H448V-568H-1036V-566ZM449 -565V985H451V-565H449ZM448 986H-1036V988H448V986ZM-1037 985V-565H-1039V985H-1037ZM-1036 986C-1036.55 986 -1037 985.552 -1037 985H-1039C-1039 986.657 -1037.66 988 -1036 988V986ZM449 985C449 985.552 448.552 986 448 986V988C449.657 988 451 986.657 451 985H449ZM448 -566C448.552 -566 449 -565.552 449 -565H451C451 -566.657 449.657 -568 448 -568V-566ZM-1036 -568C-1037.66 -568 -1039 -566.657 -1039 -565H-1037C-1037 -565.552 -1036.55 -566 -1036 -566V-568Z" fill="black" fill-opacity="0.1"/>
<path fill-rule="evenodd" clip-rule="evenodd" d="M7.46366 2.00013C7.84824 1.8463 8.28472 2.03336 8.43856 2.41795C8.59239 2.80253 8.40533 3.23901 8.02074 3.39285L7.85352 3.45974C6.54767 3.98208 5.506 5.00653 4.96197 6.3035L4.88517 6.48659C4.72495 6.86857 4.28542 7.04833 3.90345 6.88811C3.52148 6.72789 3.34171 6.28835 3.50193 5.90638L3.57873 5.72329C4.27819 4.05576 5.61748 2.7386 7.29643 2.06702L7.46366 2.00013ZM16.5368 2.04408C16.1522 1.89024 15.7157 2.0773 15.5619 2.46189C15.408 2.84648 15.5951 3.28296 15.9797 3.43679L16.1469 3.50368C17.4528 4.02602 18.4944 5.05048 19.0384 6.34745L19.1152 6.53054C19.2755 6.91251 19.715 7.09228 20.097 6.93205C20.4789 6.77183 20.6587 6.3323 20.4985 5.95033L20.4217 5.76723C19.7222 4.0997 18.3829 2.78255 16.704 2.11097L16.5368 2.04408ZM17.7774 18C19.6058 18 20.6495 16.1609 19.5524 14.8721C19.0668 14.3016 18.7675 13.6249 18.6869 12.9153L18.2397 8.97519C17.9986 6.85063 16.4126 5.10719 14.2702 4.37366V4.26995C14.2702 3.01629 13.2539 2 12.0002 2C10.7466 2 9.73027 3.01629 9.73027 4.26995V4.37366C7.58787 5.10719 6.00181 6.85063 5.76068 8.97519L5.31349 12.9153C5.23295 13.6249 4.93365 14.3016 4.448 14.8721C3.35097 16.1609 4.39465 18 6.22303 18H17.7774ZM14.9723 20.0718C14.5149 21.1995 13.3567 22.0002 12.0002 22.0002C10.6437 22.0002 9.48549 21.1995 9.02812 20.0718C9.00904 20.0247 9.00021 19.9742 9.00021 19.9235C9.00021 19.6896 9.18982 19.5 9.4237 19.5H14.5767C14.8106 19.5 15.0002 19.6896 15.0002 19.9235C15.0002 19.9742 14.9914 20.0247 14.9723 20.0718Z" fill="#1A1A1A"/>
</svg>
