<svg width="24" height="24" viewBox="0 0 24 24" fill="none" xmlns="http://www.w3.org/2000/svg">
<rect width="24" height="24" fill="#A6A6A6"/>
<path d="M-114 -709C-114 -710.105 -113.105 -711 -112 -711H1372C1373.1 -711 1374 -710.105 1374 -709V841C1374 842.105 1373.1 843 1372 843H-112C-113.105 843 -114 842.105 -114 841V-709Z" fill="white"/>
<path d="M-112 -710H1372V-712H-112V-710ZM1373 -709V841H1375V-709H1373ZM1372 842H-112V844H1372V842ZM-113 841V-709H-115V841H-113ZM-112 842C-112.552 842 -113 841.552 -113 841H-115C-115 842.657 -113.657 844 -112 844V842ZM1373 841C1373 841.552 1372.55 842 1372 842V844C1373.66 844 1375 842.657 1375 841H1373ZM1372 -710C1372.55 -710 1373 -709.552 1373 -709H1375C1375 -710.657 1373.66 -712 1372 -712V-710ZM-112 -712C-113.657 -712 -115 -710.657 -115 -709H-113C-113 -709.552 -112.552 -710 -112 -710V-712Z" fill="black" fill-opacity="0.1"/>
<path d="M15 10L13.7071 11.2929C13.3166 11.6834 13.3166 12.3166 13.7071 12.7071L15 14M14 12L22 12M6 20C3.79086 20 2 18.2091 2 16V8C2 5.79086 3.79086 4 6 4M6 20C8.20914 20 10 18.2091 10 16V8C10 5.79086 8.20914 4 6 4M6 20H14C16.2091 20 18 18.2091 18 16M6 4H14C16.2091 4 18 5.79086 18 8" stroke="#1A1A1A" stroke-width="1.5" stroke-linecap="round"/>
</svg>
