<svg width="24" height="24" viewBox="0 0 24 24" fill="none" xmlns="http://www.w3.org/2000/svg">
<rect width="24" height="24" fill="#A6A6A6"/>
<path d="M-520 -325C-520 -326.105 -519.105 -327 -518 -327H966C967.105 -327 968 -326.105 968 -325V1225C968 1226.1 967.105 1227 966 1227H-518C-519.105 1227 -520 1226.1 -520 1225V-325Z" fill="white"/>
<path d="M-518 -326H966V-328H-518V-326ZM967 -325V1225H969V-325H967ZM966 1226H-518V1228H966V1226ZM-519 1225V-325H-521V1225H-519ZM-518 1226C-518.552 1226 -519 1225.55 -519 1225H-521C-521 1226.66 -519.657 1228 -518 1228V1226ZM967 1225C967 1225.55 966.552 1226 966 1226V1228C967.657 1228 969 1226.66 969 1225H967ZM966 -326C966.552 -326 967 -325.552 967 -325H969C969 -326.657 967.657 -328 966 -328V-326ZM-518 -328C-519.657 -328 -521 -326.657 -521 -325H-519C-519 -325.552 -518.552 -326 -518 -326V-328Z" fill="black" fill-opacity="0.1"/>
<path d="M14.8284 14.8284L9.17158 9.17158M9.17157 14.8284L14.8284 9.17158M12 22C17.5228 22 22 17.5228 22 12C22 6.47715 17.5228 2 12 2C6.47715 2 2 6.47715 2 12C2 17.5228 6.47715 22 12 22Z" stroke="#1A1A1A" stroke-width="1.5" stroke-linecap="round" stroke-linejoin="round"/>
</svg>
