<svg width="24" height="24" viewBox="0 0 24 24" fill="none" xmlns="http://www.w3.org/2000/svg">
<rect width="24" height="24" fill="#A6A6A6"/>
<path d="M-1212 -325C-1212 -326.105 -1211.1 -327 -1210 -327H274C275.105 -327 276 -326.105 276 -325V1225C276 1226.1 275.105 1227 274 1227H-1210C-1211.1 1227 -1212 1226.1 -1212 1225V-325Z" fill="white"/>
<path d="M-1210 -326H274V-328H-1210V-326ZM275 -325V1225H277V-325H275ZM274 1226H-1210V1228H274V1226ZM-1211 1225V-325H-1213V1225H-1211ZM-1210 1226C-1210.55 1226 -1211 1225.55 -1211 1225H-1213C-1213 1226.66 -1211.66 1228 -1210 1228V1226ZM275 1225C275 1225.55 274.552 1226 274 1226V1228C275.657 1228 277 1226.66 277 1225H275ZM274 -326C274.552 -326 275 -325.552 275 -325H277C277 -326.657 275.657 -328 274 -328V-326ZM-1210 -328C-1211.66 -328 -1213 -326.657 -1213 -325H-1211C-1211 -325.552 -1210.55 -326 -1210 -326V-328Z" fill="black" fill-opacity="0.1"/>
<path fill-rule="evenodd" clip-rule="evenodd" d="M22 12C22 17.5228 17.5228 22 12 22C6.47715 22 2 17.5228 2 12C2 6.47715 6.47715 2 12 2C17.5228 2 22 6.47715 22 12ZM15.3588 15.3587C15.0659 15.6516 14.591 15.6516 14.2981 15.3587L12 13.0606L9.7019 15.3587C9.40901 15.6516 8.93413 15.6516 8.64124 15.3587C8.34835 15.0658 8.34835 14.5909 8.64124 14.298L10.9393 11.9999L8.64125 9.70184C8.34836 9.40895 8.34836 8.93408 8.64125 8.64118C8.93415 8.34829 9.40902 8.34829 9.70191 8.64118L12 10.9393L14.2981 8.64119C14.591 8.3483 15.0659 8.3483 15.3588 8.64119C15.6516 8.93409 15.6516 9.40896 15.3588 9.70185L13.0607 11.9999L15.3588 14.298C15.6517 14.5909 15.6517 15.0658 15.3588 15.3587Z" fill="#1A1A1A"/>
</svg>
