<svg width="24" height="24" viewBox="0 0 24 24" fill="none" xmlns="http://www.w3.org/2000/svg">
<rect width="24" height="24" fill="#A6A6A6"/>
<path d="M-520 -709C-520 -710.105 -519.105 -711 -518 -711H966C967.105 -711 968 -710.105 968 -709V841C968 842.105 967.105 843 966 843H-518C-519.105 843 -520 842.105 -520 841V-709Z" fill="white"/>
<path d="M-518 -710H966V-712H-518V-710ZM967 -709V841H969V-709H967ZM966 842H-518V844H966V842ZM-519 841V-709H-521V841H-519ZM-518 842C-518.552 842 -519 841.552 -519 841H-521C-521 842.657 -519.657 844 -518 844V842ZM967 841C967 841.552 966.552 842 966 842V844C967.657 844 969 842.657 969 841H967ZM966 -710C966.552 -710 967 -709.552 967 -709H969C969 -710.657 967.657 -712 966 -712V-710ZM-518 -712C-519.657 -712 -521 -710.657 -521 -709H-519C-519 -709.552 -518.552 -710 -518 -710V-712Z" fill="black" fill-opacity="0.1"/>
<path d="M16 8H8C5.79086 8 4 9.79086 4 12V18C4 20.2091 5.79086 22 8 22H16C18.2091 22 20 20.2091 20 18V12C20 9.79086 18.2091 8 16 8ZM16 8L16 6C16 3.79086 14.2092 2 12 2C10.5195 2 9.22678 2.8044 8.53516 4M14 15C14 16.1046 13.1046 17 12 17C10.8954 17 10 16.1046 10 15C10 13.8954 10.8954 13 12 13C13.1046 13 14 13.8954 14 15Z" stroke="#1A1A1A" stroke-width="1.5" stroke-linecap="round" stroke-linejoin="round"/>
</svg>
