<svg width="24" height="24" viewBox="0 0 24 24" fill="none" xmlns="http://www.w3.org/2000/svg">
<rect width="24" height="24" fill="#A6A6A6"/>
<path d="M-1212 -709C-1212 -710.105 -1211.1 -711 -1210 -711H274C275.105 -711 276 -710.105 276 -709V841C276 842.105 275.105 843 274 843H-1210C-1211.1 843 -1212 842.105 -1212 841V-709Z" fill="white"/>
<path d="M-1210 -710H274V-712H-1210V-710ZM275 -709V841H277V-709H275ZM274 842H-1210V844H274V842ZM-1211 841V-709H-1213V841H-1211ZM-1210 842C-1210.55 842 -1211 841.552 -1211 841H-1213C-1213 842.657 -1211.66 844 -1210 844V842ZM275 841C275 841.552 274.552 842 274 842V844C275.657 844 277 842.657 277 841H275ZM274 -710C274.552 -710 275 -709.552 275 -709H277C277 -710.657 275.657 -712 274 -712V-710ZM-1210 -712C-1211.66 -712 -1213 -710.657 -1213 -709H-1211C-1211 -709.552 -1210.55 -710 -1210 -710V-712Z" fill="black" fill-opacity="0.1"/>
<path fill-rule="evenodd" clip-rule="evenodd" d="M9.18436 5.12554C9.74744 4.15216 10.798 3.5 12 3.5C13.795 3.5 15.25 4.95507 15.25 6.75V8H8C5.79086 8 4 9.79086 4 12V18C4 20.2091 5.79086 22 8 22H16C18.2091 22 20 20.2091 20 18V12C20 10.0472 18.6007 8.42127 16.75 8.0702V6.75C16.75 4.12665 14.6234 2 12 2C10.2409 2 8.70612 2.95663 7.88595 4.37446C7.67855 4.733 7.80107 5.1918 8.15961 5.3992C8.51816 5.60661 8.97696 5.48409 9.18436 5.12554ZM14 15C14 16.1046 13.1046 17 12 17C10.8954 17 10 16.1046 10 15C10 13.8954 10.8954 13 12 13C13.1046 13 14 13.8954 14 15Z" fill="#1A1A1A"/>
</svg>
