<svg width="24" height="24" viewBox="0 0 24 24" fill="none" xmlns="http://www.w3.org/2000/svg">
<rect width="24" height="24" fill="#A6A6A6"/>
<path d="M-114 -805C-114 -806.105 -113.105 -807 -112 -807H1372C1373.1 -807 1374 -806.105 1374 -805V745C1374 746.105 1373.1 747 1372 747H-112C-113.105 747 -114 746.105 -114 745V-805Z" fill="white"/>
<path d="M-112 -806H1372V-808H-112V-806ZM1373 -805V745H1375V-805H1373ZM1372 746H-112V748H1372V746ZM-113 745V-805H-115V745H-113ZM-112 746C-112.552 746 -113 745.552 -113 745H-115C-115 746.657 -113.657 748 -112 748V746ZM1373 745C1373 745.552 1372.55 746 1372 746V748C1373.66 748 1375 746.657 1375 745H1373ZM1372 -806C1372.55 -806 1373 -805.552 1373 -805H1375C1375 -806.657 1373.66 -808 1372 -808V-806ZM-112 -808C-113.657 -808 -115 -806.657 -115 -805H-113C-113 -805.552 -112.552 -806 -112 -806V-808Z" fill="black" fill-opacity="0.1"/>
<path d="M10 18C10 19.1046 10.8954 20 12 20C13.1046 20 14 19.1046 14 18V14H18C19.1046 14 20 13.1046 20 12C20 10.8954 19.1046 10 18 10H14V6C14 4.89543 13.1046 4 12 4C10.8954 4 10 4.89543 10 6V10L6 10C4.89543 10 4 10.8954 4 12C4 13.1046 4.89543 14 6 14L10 14V18Z" stroke="#1A1A1A" stroke-width="1.5" stroke-linejoin="round"/>
</svg>
