<svg width="24" height="24" viewBox="0 0 24 24" fill="none" xmlns="http://www.w3.org/2000/svg">
<rect width="24" height="24" fill="#A6A6A6"/>
<path d="M-806 -805C-806 -806.105 -805.105 -807 -804 -807H680C681.105 -807 682 -806.105 682 -805V745C682 746.105 681.105 747 680 747H-804C-805.105 747 -806 746.105 -806 745V-805Z" fill="white"/>
<path d="M-804 -806H680V-808H-804V-806ZM681 -805V745H683V-805H681ZM680 746H-804V748H680V746ZM-805 745V-805H-807V745H-805ZM-804 746C-804.552 746 -805 745.552 -805 745H-807C-807 746.657 -805.657 748 -804 748V746ZM681 745C681 745.552 680.552 746 680 746V748C681.657 748 683 746.657 683 745H681ZM680 -806C680.552 -806 681 -805.552 681 -805H683C683 -806.657 681.657 -808 680 -808V-806ZM-804 -808C-805.657 -808 -807 -806.657 -807 -805H-805C-805 -805.552 -804.552 -806 -804 -806V-808Z" fill="black" fill-opacity="0.1"/>
<path d="M10 18C10 19.1046 10.8954 20 12 20C13.1046 20 14 19.1046 14 18V14H18C19.1046 14 20 13.1046 20 12C20 10.8954 19.1046 10 18 10H14V6C14 4.89543 13.1046 4 12 4C10.8954 4 10 4.89543 10 6V10L6 10C4.89543 10 4 10.8954 4 12C4 13.1046 4.89543 14 6 14L10 14V18Z" fill="#1A1A1A"/>
</svg>
