<svg width="24" height="24" viewBox="0 0 24 24" fill="none" xmlns="http://www.w3.org/2000/svg">
<rect width="24" height="24" fill="#A6A6A6"/>
<path d="M-346 -517C-346 -518.105 -345.105 -519 -344 -519H1140C1141.1 -519 1142 -518.105 1142 -517V1033C1142 1034.1 1141.1 1035 1140 1035H-344C-345.105 1035 -346 1034.1 -346 1033V-517Z" fill="white"/>
<path d="M-344 -518H1140V-520H-344V-518ZM1141 -517V1033H1143V-517H1141ZM1140 1034H-344V1036H1140V1034ZM-345 1033V-517H-347V1033H-345ZM-344 1034C-344.552 1034 -345 1033.55 -345 1033H-347C-347 1034.66 -345.657 1036 -344 1036V1034ZM1141 1033C1141 1033.55 1140.55 1034 1140 1034V1036C1141.66 1036 1143 1034.66 1143 1033H1141ZM1140 -518C1140.55 -518 1141 -517.552 1141 -517H1143C1143 -518.657 1141.66 -520 1140 -520V-518ZM-344 -520C-345.657 -520 -347 -518.657 -347 -517H-345C-345 -517.552 -344.552 -518 -344 -518V-520Z" fill="black" fill-opacity="0.1"/>
<path d="M2.58683 10H21.4132M8 14H16M9 18H15M9 2L6 6M15 2L18 6M18.0351 6L5.96486 6C3.45403 6 1.57594 8.32624 2.08312 10.808L3.71804 18.808C4.09787 20.6666 5.71942 22 7.59978 22H16.4002C18.2806 22 19.9021 20.6666 20.282 18.808L21.9169 10.808C22.4241 8.32624 20.546 6 18.0351 6Z" stroke="#1A1A1A" stroke-width="1.5" stroke-linecap="round" stroke-linejoin="round"/>
</svg>
