<svg width="24" height="24" viewBox="0 0 24 24" fill="none" xmlns="http://www.w3.org/2000/svg">
<rect width="24" height="24" fill="#A6A6A6"/>
<path d="M-1038 -517C-1038 -518.105 -1037.1 -519 -1036 -519H448C449.105 -519 450 -518.105 450 -517V1033C450 1034.1 449.105 1035 448 1035H-1036C-1037.1 1035 -1038 1034.1 -1038 1033V-517Z" fill="white"/>
<path d="M-1036 -518H448V-520H-1036V-518ZM449 -517V1033H451V-517H449ZM448 1034H-1036V1036H448V1034ZM-1037 1033V-517H-1039V1033H-1037ZM-1036 1034C-1036.55 1034 -1037 1033.55 -1037 1033H-1039C-1039 1034.66 -1037.66 1036 -1036 1036V1034ZM449 1033C449 1033.55 448.552 1034 448 1034V1036C449.657 1036 451 1034.66 451 1033H449ZM448 -518C448.552 -518 449 -517.552 449 -517H451C451 -518.657 449.657 -520 448 -520V-518ZM-1036 -520C-1037.66 -520 -1039 -518.657 -1039 -517H-1037C-1037 -517.552 -1036.55 -518 -1036 -518V-520Z" fill="black" fill-opacity="0.1"/>
<path fill-rule="evenodd" clip-rule="evenodd" d="M14.4027 2.45004L16.3152 5L7.69024 5L9.6027 2.45004C9.85123 2.11867 9.78408 1.64857 9.4527 1.40004C9.12133 1.15152 8.65123 1.21867 8.4027 1.55004L5.81288 5.00314C3.98332 5.07757 2.51664 6.46706 2.11315 8.25H21.8922C21.4887 6.46708 20.0221 5.07759 18.1925 5.00314L15.6027 1.55004C15.3542 1.21867 14.8841 1.15152 14.5527 1.40004C14.2213 1.64857 14.1542 2.11867 14.4027 2.45004ZM21.9741 9.75H2.03125C2.04461 9.86901 2.06275 9.98858 2.08581 10.1085L3.72073 18.6085C4.10056 20.5832 5.72211 22 7.60246 22H16.4029C18.2833 22 19.9048 20.5832 20.2847 18.6085L21.9196 10.1085C21.9426 9.98858 21.9608 9.86901 21.9741 9.75ZM7.25269 14C7.25269 13.5858 7.58847 13.25 8.00269 13.25H16.0027C16.4169 13.25 16.7527 13.5858 16.7527 14C16.7527 14.4142 16.4169 14.75 16.0027 14.75H8.00269C7.58847 14.75 7.25269 14.4142 7.25269 14ZM9.00269 17.25C8.58847 17.25 8.25269 17.5858 8.25269 18C8.25269 18.4142 8.58847 18.75 9.00269 18.75H15.0027C15.4169 18.75 15.7527 18.4142 15.7527 18C15.7527 17.5858 15.4169 17.25 15.0027 17.25H9.00269Z" fill="#1A1A1A"/>
</svg>
