<svg width="24" height="24" viewBox="0 0 24 24" fill="none" xmlns="http://www.w3.org/2000/svg">
<rect width="24" height="24" fill="#A6A6A6"/>
<path d="M-172 -1160C-172 -1161.1 -171.105 -1162 -170 -1162H1314C1315.1 -1162 1316 -1161.1 1316 -1160V390C1316 391.105 1315.1 392 1314 392H-170C-171.105 392 -172 391.105 -172 390V-1160Z" fill="white"/>
<path d="M-170 -1161H1314V-1163H-170V-1161ZM1315 -1160V390H1317V-1160H1315ZM1314 391H-170V393H1314V391ZM-171 390V-1160H-173V390H-171ZM-170 391C-170.552 391 -171 390.552 -171 390H-173C-173 391.657 -171.657 393 -170 393V391ZM1315 390C1315 390.552 1314.55 391 1314 391V393C1315.66 393 1317 391.657 1317 390H1315ZM1314 -1161C1314.55 -1161 1315 -1160.55 1315 -1160H1317C1317 -1161.66 1315.66 -1163 1314 -1163V-1161ZM-170 -1163C-171.657 -1163 -173 -1161.66 -173 -1160H-171C-171 -1160.55 -170.552 -1161 -170 -1161V-1163Z" fill="black" fill-opacity="0.1"/>
<path d="M12 5H16" stroke="#1A1A1A" stroke-width="1.5" stroke-linecap="round"/>
<path d="M14 5L10 19" stroke="#1A1A1A" stroke-width="1.5" stroke-linecap="round"/>
<path d="M8 19H12" stroke="#1A1A1A" stroke-width="1.5" stroke-linecap="round"/>
</svg>
