<svg width="24" height="24" viewBox="0 0 24 24" fill="none" xmlns="http://www.w3.org/2000/svg">
<rect width="24" height="24" fill="#A6A6A6"/>
<path d="M-864 -1160C-864 -1161.1 -863.105 -1162 -862 -1162H622C623.105 -1162 624 -1161.1 624 -1160V390C624 391.105 623.105 392 622 392H-862C-863.105 392 -864 391.105 -864 390V-1160Z" fill="white"/>
<path d="M-862 -1161H622V-1163H-862V-1161ZM623 -1160V390H625V-1160H623ZM622 391H-862V393H622V391ZM-863 390V-1160H-865V390H-863ZM-862 391C-862.552 391 -863 390.552 -863 390H-865C-865 391.657 -863.657 393 -862 393V391ZM623 390C623 390.552 622.552 391 622 391V393C623.657 393 625 391.657 625 390H623ZM622 -1161C622.552 -1161 623 -1160.55 623 -1160H625C625 -1161.66 623.657 -1163 622 -1163V-1161ZM-862 -1163C-863.657 -1163 -865 -1161.66 -865 -1160H-863C-863 -1160.55 -862.552 -1161 -862 -1161V-1163Z" fill="black" fill-opacity="0.1"/>
<path fill-rule="evenodd" clip-rule="evenodd" d="M16 4.25024H14.0187C14.0059 4.24992 13.9932 4.24992 13.9806 4.25024H12C11.5858 4.25024 11.25 4.58603 11.25 5.00024C11.25 5.41446 11.5858 5.75024 12 5.75024H13.0057L9.43425 18.2502H8C7.58579 18.2502 7.25 18.586 7.25 19.0002C7.25 19.4145 7.58579 19.7502 8 19.7502H9.98585C9.99555 19.7504 10.0052 19.7504 10.0149 19.7502H12C12.4142 19.7502 12.75 19.4145 12.75 19.0002C12.75 18.586 12.4142 18.2502 12 18.2502H10.9943L14.5657 5.75024H16C16.4142 5.75024 16.75 5.41446 16.75 5.00024C16.75 4.58603 16.4142 4.25024 16 4.25024Z" fill="#1A1A1A"/>
</svg>
