<svg width="24" height="24" viewBox="0 0 24 24" fill="none" xmlns="http://www.w3.org/2000/svg">
<rect width="24" height="24" fill="#A6A6A6"/>
<path d="M-230 -133C-230 -134.105 -229.105 -135 -228 -135H1256C1257.1 -135 1258 -134.105 1258 -133V1417C1258 1418.1 1257.1 1419 1256 1419H-228C-229.105 1419 -230 1418.1 -230 1417V-133Z" fill="white"/>
<path d="M-228 -134H1256V-136H-228V-134ZM1257 -133V1417H1259V-133H1257ZM1256 1418H-228V1420H1256V1418ZM-229 1417V-133H-231V1417H-229ZM-228 1418C-228.552 1418 -229 1417.55 -229 1417H-231C-231 1418.66 -229.657 1420 -228 1420V1418ZM1257 1417C1257 1417.55 1256.55 1418 1256 1418V1420C1257.66 1420 1259 1418.66 1259 1417H1257ZM1256 -134C1256.55 -134 1257 -133.552 1257 -133H1259C1259 -134.657 1257.66 -136 1256 -136V-134ZM-228 -136C-229.657 -136 -231 -134.657 -231 -133H-229C-229 -133.552 -228.552 -134 -228 -134V-136Z" fill="black" fill-opacity="0.1"/>
<path d="M10 18H14M16.1804 22H7.81965C5.5109 22 3.6393 20.214 3.6393 18.0108V13.133C3.6393 12.4248 3.34447 11.7456 2.81969 11.2448C1.60381 10.0845 1.76187 8.16205 3.15251 7.19692L9.54124 2.763C11.0071 1.74567 12.9929 1.74567 14.4588 2.763L20.8475 7.19691C22.2381 8.16205 22.3962 10.0845 21.1803 11.2448C20.6555 11.7456 20.3607 12.4248 20.3607 13.133V18.0108C20.3607 20.214 18.4891 22 16.1804 22Z" stroke="#1A1A1A" stroke-width="1.5" stroke-linecap="round"/>
</svg>
