<svg width="24" height="24" viewBox="0 0 24 24" fill="none" xmlns="http://www.w3.org/2000/svg">
<rect width="24" height="24" fill="#A6A6A6"/>
<path d="M-922 -133C-922 -134.105 -921.105 -135 -920 -135H564C565.105 -135 566 -134.105 566 -133V1417C566 1418.1 565.105 1419 564 1419H-920C-921.105 1419 -922 1418.1 -922 1417V-133Z" fill="white"/>
<path d="M-920 -134H564V-136H-920V-134ZM565 -133V1417H567V-133H565ZM564 1418H-920V1420H564V1418ZM-921 1417V-133H-923V1417H-921ZM-920 1418C-920.552 1418 -921 1417.55 -921 1417H-923C-923 1418.66 -921.657 1420 -920 1420V1418ZM565 1417C565 1417.55 564.552 1418 564 1418V1420C565.657 1420 567 1418.66 567 1417H565ZM564 -134C564.552 -134 565 -133.552 565 -133H567C567 -134.657 565.657 -136 564 -136V-134ZM-920 -136C-921.657 -136 -923 -134.657 -923 -133H-921C-921 -133.552 -920.552 -134 -920 -134V-136Z" fill="black" fill-opacity="0.1"/>
<path fill-rule="evenodd" clip-rule="evenodd" d="M16.1804 22H7.81965C5.5109 22 3.6393 20.214 3.6393 18.0108V13.133C3.6393 12.4248 3.34447 11.7456 2.81969 11.2448C1.60381 10.0845 1.76187 8.16205 3.15251 7.19692L9.54124 2.763C11.0071 1.74567 12.9929 1.74567 14.4588 2.763L20.8475 7.19691C22.2381 8.16205 22.3962 10.0845 21.1803 11.2448C20.6555 11.7456 20.3607 12.4248 20.3607 13.133V18.0108C20.3607 20.214 18.4891 22 16.1804 22ZM10 17.25C9.58579 17.25 9.25 17.5858 9.25 18C9.25 18.4142 9.58579 18.75 10 18.75H14C14.4142 18.75 14.75 18.4142 14.75 18C14.75 17.5858 14.4142 17.25 14 17.25H10Z" fill="#1A1A1A"/>
</svg>
