<svg width="24" height="24" viewBox="0 0 24 24" fill="none" xmlns="http://www.w3.org/2000/svg">
<rect width="24" height="24" fill="#A6A6A6"/>
<path d="M-806 -1256C-806 -1257.1 -805.105 -1258 -804 -1258H680C681.105 -1258 682 -1257.1 682 -1256V294C682 295.105 681.105 296 680 296H-804C-805.105 296 -806 295.105 -806 294V-1256Z" fill="white"/>
<path d="M-804 -1257H680V-1259H-804V-1257ZM681 -1256V294H683V-1256H681ZM680 295H-804V297H680V295ZM-805 294V-1256H-807V294H-805ZM-804 295C-804.552 295 -805 294.552 -805 294H-807C-807 295.657 -805.657 297 -804 297V295ZM681 294C681 294.552 680.552 295 680 295V297C681.657 297 683 295.657 683 294H681ZM680 -1257C680.552 -1257 681 -1256.55 681 -1256H683C683 -1257.66 681.657 -1259 680 -1259V-1257ZM-804 -1259C-805.657 -1259 -807 -1257.66 -807 -1256H-805C-805 -1256.55 -804.552 -1257 -804 -1257V-1259Z" fill="black" fill-opacity="0.1"/>
<path fill-rule="evenodd" clip-rule="evenodd" d="M6 5.25C5.58579 5.25 5.25 5.58579 5.25 6C5.25 6.41421 5.58579 6.75 6 6.75H18C18.4142 6.75 18.75 6.41421 18.75 6C18.75 5.58579 18.4142 5.25 18 5.25H6ZM6 9.25C5.58579 9.25 5.25 9.58579 5.25 10C5.25 10.4142 5.58579 10.75 6 10.75H18C18.4142 10.75 18.75 10.4142 18.75 10C18.75 9.58579 18.4142 9.25 18 9.25H6ZM5.25 14C5.25 13.5858 5.58579 13.25 6 13.25H18C18.4142 13.25 18.75 13.5858 18.75 14C18.75 14.4142 18.4142 14.75 18 14.75H6C5.58579 14.75 5.25 14.4142 5.25 14ZM6 17.25C5.58579 17.25 5.25 17.5858 5.25 18C5.25 18.4142 5.58579 18.75 6 18.75H12C12.4142 18.75 12.75 18.4142 12.75 18C12.75 17.5858 12.4142 17.25 12 17.25H6Z" fill="#1A1A1A"/>
</svg>
