<svg width="24" height="24" viewBox="0 0 24 24" fill="none" xmlns="http://www.w3.org/2000/svg">
<rect width="24" height="24" fill="#A6A6A6"/>
<path d="M-520 -853C-520 -854.105 -519.105 -855 -518 -855H966C967.105 -855 968 -854.105 968 -853V697C968 698.105 967.105 699 966 699H-518C-519.105 699 -520 698.105 -520 697V-853Z" fill="white"/>
<path d="M-518 -854H966V-856H-518V-854ZM967 -853V697H969V-853H967ZM966 698H-518V700H966V698ZM-519 697V-853H-521V697H-519ZM-518 698C-518.552 698 -519 697.552 -519 697H-521C-521 698.657 -519.657 700 -518 700V698ZM967 697C967 697.552 966.552 698 966 698V700C967.657 700 969 698.657 969 697H967ZM966 -854C966.552 -854 967 -853.552 967 -853H969C969 -854.657 967.657 -856 966 -856V-854ZM-518 -856C-519.657 -856 -521 -854.657 -521 -853H-519C-519 -853.552 -518.552 -854 -518 -854V-856Z" fill="black" fill-opacity="0.1"/>
<circle cx="12" cy="7" r="1" fill="#1A1A1A"/>
<path d="M11 10H12V17M22 12C22 17.5228 17.5228 22 12 22C6.47715 22 2 17.5228 2 12C2 6.47715 6.47715 2 12 2C17.5228 2 22 6.47715 22 12Z" stroke="#1A1A1A" stroke-width="1.5" stroke-linecap="round" stroke-linejoin="round"/>
</svg>
