<svg width="24" height="24" viewBox="0 0 24 24" fill="none" xmlns="http://www.w3.org/2000/svg">
<rect width="24" height="24" fill="#A6A6A6"/>
<path d="M-1212 -853C-1212 -854.105 -1211.1 -855 -1210 -855H274C275.105 -855 276 -854.105 276 -853V697C276 698.105 275.105 699 274 699H-1210C-1211.1 699 -1212 698.105 -1212 697V-853Z" fill="white"/>
<path d="M-1210 -854H274V-856H-1210V-854ZM275 -853V697H277V-853H275ZM274 698H-1210V700H274V698ZM-1211 697V-853H-1213V697H-1211ZM-1210 698C-1210.55 698 -1211 697.552 -1211 697H-1213C-1213 698.657 -1211.66 700 -1210 700V698ZM275 697C275 697.552 274.552 698 274 698V700C275.657 700 277 698.657 277 697H275ZM274 -854C274.552 -854 275 -853.552 275 -853H277C277 -854.657 275.657 -856 274 -856V-854ZM-1210 -856C-1211.66 -856 -1213 -854.657 -1213 -853H-1211C-1211 -853.552 -1210.55 -854 -1210 -854V-856Z" fill="black" fill-opacity="0.1"/>
<path fill-rule="evenodd" clip-rule="evenodd" d="M22 12C22 17.5228 17.5228 22 12 22C6.47715 22 2 17.5228 2 12C2 6.47715 6.47715 2 12 2C17.5228 2 22 6.47715 22 12ZM13 7C13 7.55228 12.5523 8 12 8C11.4477 8 11 7.55228 11 7C11 6.44772 11.4477 6 12 6C12.5523 6 13 6.44772 13 7ZM11 9.25C10.5858 9.25 10.25 9.58579 10.25 10C10.25 10.4142 10.5858 10.75 11 10.75H11.25V17C11.25 17.4142 11.5858 17.75 12 17.75C12.4142 17.75 12.75 17.4142 12.75 17V10C12.75 9.58579 12.4142 9.25 12 9.25H11Z" fill="#1A1A1A"/>
</svg>
