<svg width="24" height="24" viewBox="0 0 24 24" fill="none" xmlns="http://www.w3.org/2000/svg">
<rect width="24" height="24" fill="#A6A6A6"/>
<path d="M-1212 -1160C-1212 -1161.1 -1211.1 -1162 -1210 -1162H274C275.105 -1162 276 -1161.1 276 -1160V390C276 391.105 275.105 392 274 392H-1210C-1211.1 392 -1212 391.105 -1212 390V-1160Z" fill="white"/>
<path d="M-1210 -1161H274V-1163H-1210V-1161ZM275 -1160V390H277V-1160H275ZM274 391H-1210V393H274V391ZM-1211 390V-1160H-1213V390H-1211ZM-1210 391C-1210.55 391 -1211 390.552 -1211 390H-1213C-1213 391.657 -1211.66 393 -1210 393V391ZM275 390C275 390.552 274.552 391 274 391V393C275.657 393 277 391.657 277 390H275ZM274 -1161C274.552 -1161 275 -1160.55 275 -1160H277C277 -1161.66 275.657 -1163 274 -1163V-1161ZM-1210 -1163C-1211.66 -1163 -1213 -1161.66 -1213 -1160H-1211C-1211 -1160.55 -1210.55 -1161 -1210 -1161V-1163Z" fill="black" fill-opacity="0.1"/>
<path fill-rule="evenodd" clip-rule="evenodd" d="M4 4.25C3.58579 4.25 3.25 4.58579 3.25 5C3.25 5.41421 3.58579 5.75 4 5.75H9.25V19C9.25 19.4142 9.58579 19.75 10 19.75C10.4142 19.75 10.75 19.4142 10.75 19V5.75H16C16.4142 5.75 16.75 5.41421 16.75 5C16.75 4.58579 16.4142 4.25 16 4.25H10H4ZM14 11.25C13.5858 11.25 13.25 11.5858 13.25 12C13.25 12.4142 13.5858 12.75 14 12.75H16.25V19C16.25 19.4142 16.5858 19.75 17 19.75C17.4142 19.75 17.75 19.4142 17.75 19V12.75H20C20.4142 12.75 20.75 12.4142 20.75 12C20.75 11.5858 20.4142 11.25 20 11.25H17H14Z" fill="#1A1A1A"/>
</svg>
