<svg width="24" height="24" viewBox="0 0 24 24" fill="none" xmlns="http://www.w3.org/2000/svg">
<rect width="24" height="24" fill="#A6A6A6"/>
<path d="M-1212 -1208C-1212 -1209.1 -1211.1 -1210 -1210 -1210H274C275.105 -1210 276 -1209.1 276 -1208V342C276 343.105 275.105 344 274 344H-1210C-1211.1 344 -1212 343.105 -1212 342V-1208Z" fill="white"/>
<path d="M-1210 -1209H274V-1211H-1210V-1209ZM275 -1208V342H277V-1208H275ZM274 343H-1210V345H274V343ZM-1211 342V-1208H-1213V342H-1211ZM-1210 343C-1210.55 343 -1211 342.552 -1211 342H-1213C-1213 343.657 -1211.66 345 -1210 345V343ZM275 342C275 342.552 274.552 343 274 343V345C275.657 345 277 343.657 277 342H275ZM274 -1209C274.552 -1209 275 -1208.55 275 -1208H277C277 -1209.66 275.657 -1211 274 -1211V-1209ZM-1210 -1211C-1211.66 -1211 -1213 -1209.66 -1213 -1208H-1211C-1211 -1208.55 -1210.55 -1209 -1210 -1209V-1211Z" fill="black" fill-opacity="0.1"/>
<path fill-rule="evenodd" clip-rule="evenodd" d="M6 21C3.79086 21 2 19.2091 2 17V7C2 4.79086 3.79086 3 6 3H18C20.2091 3 22 4.79086 22 7V12.3431C22 12.6509 21.9645 12.955 21.8959 13.25H19C16.3766 13.25 14.25 15.3766 14.25 18V20.8959C13.955 20.9645 13.6509 21 13.3431 21H6ZM15.75 20.1949C15.8981 20.0833 16.039 19.961 16.1716 19.8284L20.8284 15.1716C20.961 15.039 21.0833 14.898 21.1949 14.75H19C17.2051 14.75 15.75 16.2051 15.75 18V20.1949ZM6.25 9C6.25 8.58579 6.58579 8.25 7 8.25H17C17.4142 8.25 17.75 8.58579 17.75 9C17.75 9.41421 17.4142 9.75 17 9.75H7C6.58579 9.75 6.25 9.41421 6.25 9ZM7 13.25C6.58579 13.25 6.25 13.5858 6.25 14C6.25 14.4142 6.58579 14.75 7 14.75H12C12.4142 14.75 12.75 14.4142 12.75 14C12.75 13.5858 12.4142 13.25 12 13.25H7Z" fill="#1A1A1A"/>
</svg>
