<svg width="24" height="24" viewBox="0 0 24 24" fill="none" xmlns="http://www.w3.org/2000/svg">
<rect width="24" height="24" fill="#A6A6A6"/>
<path d="M-172 -181C-172 -182.105 -171.105 -183 -170 -183H1314C1315.1 -183 1316 -182.105 1316 -181V1369C1316 1370.1 1315.1 1371 1314 1371H-170C-171.105 1371 -172 1370.1 -172 1369V-181Z" fill="white"/>
<path d="M-170 -182H1314V-184H-170V-182ZM1315 -181V1369H1317V-181H1315ZM1314 1370H-170V1372H1314V1370ZM-171 1369V-181H-173V1369H-171ZM-170 1370C-170.552 1370 -171 1369.55 -171 1369H-173C-173 1370.66 -171.657 1372 -170 1372V1370ZM1315 1369C1315 1369.55 1314.55 1370 1314 1370V1372C1315.66 1372 1317 1370.66 1317 1369H1315ZM1314 -182C1314.55 -182 1315 -181.552 1315 -181H1317C1317 -182.657 1315.66 -184 1314 -184V-182ZM-170 -184C-171.657 -184 -173 -182.657 -173 -181H-171C-171 -181.552 -170.552 -182 -170 -182V-184Z" fill="black" fill-opacity="0.1"/>
<path d="M8.99861 12.0002L10.7514 13.4024C11.1693 13.7367 11.7763 13.6828 12.1287 13.2801L14.9986 10.0002M5.37624 4.94345L10.3741 2.7222C11.4083 2.26252 12.5889 2.26252 13.6232 2.72219L18.6012 4.93464C20.0569 5.58162 21.0124 7.03574 20.9104 8.62547C20.5192 14.7233 18.7758 17.4798 14.0633 20.6778C12.8196 21.5218 11.179 21.5197 9.93442 20.6771C5.23629 17.4964 3.42825 14.7783 3.06862 8.60408C2.97663 7.02479 3.93062 5.58595 5.37624 4.94345Z" stroke="#1A1A1A" stroke-width="1.5" stroke-linecap="round" stroke-linejoin="round"/>
</svg>
