<svg width="24" height="24" viewBox="0 0 24 24" fill="none" xmlns="http://www.w3.org/2000/svg">
<rect width="24" height="24" fill="#A6A6A6"/>
<path d="M-864 -181C-864 -182.105 -863.105 -183 -862 -183H622C623.105 -183 624 -182.105 624 -181V1369C624 1370.1 623.105 1371 622 1371H-862C-863.105 1371 -864 1370.1 -864 1369V-181Z" fill="white"/>
<path d="M-862 -182H622V-184H-862V-182ZM623 -181V1369H625V-181H623ZM622 1370H-862V1372H622V1370ZM-863 1369V-181H-865V1369H-863ZM-862 1370C-862.552 1370 -863 1369.55 -863 1369H-865C-865 1370.66 -863.657 1372 -862 1372V1370ZM623 1369C623 1369.55 622.552 1370 622 1370V1372C623.657 1372 625 1370.66 625 1369H623ZM622 -182C622.552 -182 623 -181.552 623 -181H625C625 -182.657 623.657 -184 622 -184V-182ZM-862 -184C-863.657 -184 -865 -182.657 -865 -181H-863C-863 -181.552 -862.552 -182 -862 -182V-184Z" fill="black" fill-opacity="0.1"/>
<path fill-rule="evenodd" clip-rule="evenodd" d="M5.33248 4.71069L10.3708 2.36419C11.4134 1.8786 12.6036 1.8786 13.6462 2.36419L18.6646 4.70139C20.1321 5.38485 21.0953 6.92095 20.9925 8.60032C20.5981 15.0419 18.8406 17.9539 14.0899 21.3322C12.8361 22.2238 11.1823 22.2216 9.92759 21.3315C5.1914 17.9715 3.36871 15.1001 3.00617 8.57773C2.91343 6.90939 3.87515 5.38942 5.33248 4.71069ZM15.5644 10.4939C15.8372 10.1822 15.8056 9.70834 15.4938 9.43558C15.1821 9.16282 14.7083 9.1944 14.4355 9.50613L11.5656 12.786C11.4775 12.8867 11.3258 12.9002 11.2213 12.8166L9.46849 11.4144C9.14504 11.1556 8.67307 11.208 8.41431 11.5315C8.15556 11.8549 8.208 12.3269 8.53145 12.5857L10.2843 13.9879C11.0156 14.5729 12.0778 14.4786 12.6945 13.7738L15.5644 10.4939Z" fill="#1A1A1A"/>
</svg>
