<svg width="24" height="24" viewBox="0 0 24 24" fill="none" xmlns="http://www.w3.org/2000/svg">
<rect width="24" height="24" fill="#A6A6A6"/>
<path d="M-172 -1024C-172 -1025.1 -171.105 -1026 -170 -1026H1314C1315.1 -1026 1316 -1025.1 1316 -1024V526C1316 527.105 1315.1 528 1314 528H-170C-171.105 528 -172 527.105 -172 526V-1024Z" fill="white"/>
<path d="M-170 -1025H1314V-1027H-170V-1025ZM1315 -1024V526H1317V-1024H1315ZM1314 527H-170V529H1314V527ZM-171 526V-1024H-173V526H-171ZM-170 527C-170.552 527 -171 526.552 -171 526H-173C-173 527.657 -171.657 529 -170 529V527ZM1315 526C1315 526.552 1314.55 527 1314 527V529C1315.66 529 1317 527.657 1317 526H1315ZM1314 -1025C1314.55 -1025 1315 -1024.55 1315 -1024H1317C1317 -1025.66 1315.66 -1027 1314 -1027V-1025ZM-170 -1027C-171.657 -1027 -173 -1025.66 -173 -1024H-171C-171 -1024.55 -170.552 -1025 -170 -1025V-1027Z" fill="black" fill-opacity="0.1"/>
<ellipse cx="10" cy="17.5" rx="7" ry="3.5" stroke="#1A1A1A" stroke-width="1.5" stroke-linejoin="round"/>
<circle cx="10" cy="7" r="4" stroke="#1A1A1A" stroke-width="1.5" stroke-linejoin="round"/>
<path fill-rule="evenodd" clip-rule="evenodd" d="M15.0443 10.2498C14.7223 10.7487 14.3283 11.1968 13.877 11.5793C14.2314 11.6904 14.6085 11.7502 14.9996 11.7502C17.0707 11.7502 18.7496 10.0713 18.7496 8.00024C18.7496 6.04446 17.2524 4.43838 15.3416 4.26563C15.6078 4.78459 15.8006 5.34742 15.9063 5.94039C16.6974 6.28911 17.2496 7.08019 17.2496 8.00024C17.2496 9.22794 16.2663 10.226 15.0443 10.2498Z" fill="#1A1A1A"/>
<path fill-rule="evenodd" clip-rule="evenodd" d="M19.0001 17.5565C18.9901 18.1707 18.8152 18.7608 18.5014 19.3111C18.8698 19.2097 19.2149 19.0923 19.5317 18.9603C20.1289 18.7115 20.6611 18.3961 21.0554 18.0076C21.4525 17.6165 21.7506 17.1066 21.7506 16.5002C21.7506 15.8938 21.4525 15.3839 21.0554 14.9928C20.6611 14.6043 20.1289 14.2889 19.5317 14.0401C18.5091 13.614 17.1912 13.3396 15.75 13.2686C16.7522 13.7776 17.5707 14.4172 18.1356 15.1445C18.4334 15.2277 18.7077 15.3218 18.9548 15.4247C19.4434 15.6283 19.7899 15.8517 20.0028 16.0614C20.213 16.2685 20.2506 16.4163 20.2506 16.5002C20.2506 16.5841 20.213 16.7319 20.0028 16.939C19.7966 17.1421 19.4649 17.3581 19.0001 17.5565Z" fill="#1A1A1A"/>
</svg>
