<svg width="24" height="24" viewBox="0 0 24 24" fill="none" xmlns="http://www.w3.org/2000/svg">
<rect width="24" height="24" fill="#A6A6A6"/>
<path d="M-864 -1024C-864 -1025.1 -863.105 -1026 -862 -1026H622C623.105 -1026 624 -1025.1 624 -1024V526C624 527.105 623.105 528 622 528H-862C-863.105 528 -864 527.105 -864 526V-1024Z" fill="white"/>
<path d="M-862 -1025H622V-1027H-862V-1025ZM623 -1024V526H625V-1024H623ZM622 527H-862V529H622V527ZM-863 526V-1024H-865V526H-863ZM-862 527C-862.552 527 -863 526.552 -863 526H-865C-865 527.657 -863.657 529 -862 529V527ZM623 526C623 526.552 622.552 527 622 527V529C623.657 529 625 527.657 625 526H623ZM622 -1025C622.552 -1025 623 -1024.55 623 -1024H625C625 -1025.66 623.657 -1027 622 -1027V-1025ZM-862 -1027C-863.657 -1027 -865 -1025.66 -865 -1024H-863C-863 -1024.55 -862.552 -1025 -862 -1025V-1027Z" fill="black" fill-opacity="0.1"/>
<path fill-rule="evenodd" clip-rule="evenodd" d="M10 11C12.2091 11 14 9.20914 14 7C14 4.79086 12.2091 3 10 3C7.79086 3 6 4.79086 6 7C6 9.20914 7.79086 11 10 11ZM10 21C13.866 21 17 19.2091 17 17C17 14.7909 13.866 13 10 13C6.13401 13 3 14.7909 3 17C3 19.2091 6.13401 21 10 21ZM13.9609 10.8157C14.9136 9.82677 15.4995 8.48196 15.4995 7.00033C15.4995 6.29573 15.367 5.62208 15.1256 5.00293C16.7239 5.06904 17.9994 6.38573 17.9994 8.00033C17.9994 9.65718 16.6563 11.0003 14.9994 11.0003C14.6344 11.0003 14.2845 10.9351 13.9609 10.8157ZM18.4999 16.9997C18.4999 17.5385 18.3802 18.0592 18.157 18.5513C19.8634 18.0223 20.9999 17.0774 20.9999 15.9997C20.9999 14.4935 18.7799 13.2465 15.8867 13.0322C17.4974 14.0331 18.4999 15.4406 18.4999 16.9997Z" fill="#1A1A1A"/>
</svg>
