<svg width="24" height="24" viewBox="0 0 24 24" fill="none" xmlns="http://www.w3.org/2000/svg">
<rect width="24" height="24" fill="#A6A6A6"/>
<path d="M-531 -38C-531 -39.1046 -530.105 -40 -529 -40H955C956.105 -40 957 -39.1046 957 -38V1512C957 1513.1 956.105 1514 955 1514H-529C-530.105 1514 -531 1513.1 -531 1512V-38Z" fill="white"/>
<path d="M-529 -39H955V-41H-529V-39ZM956 -38V1512H958V-38H956ZM955 1513H-529V1515H955V1513ZM-530 1512V-38H-532V1512H-530ZM-529 1513C-529.552 1513 -530 1512.55 -530 1512H-532C-532 1513.66 -530.657 1515 -529 1515V1513ZM956 1512C956 1512.55 955.552 1513 955 1513V1515C956.657 1515 958 1513.66 958 1512H956ZM955 -39C955.552 -39 956 -38.5523 956 -38H958C958 -39.6569 956.657 -41 955 -41V-39ZM-529 -41C-530.657 -41 -532 -39.6569 -532 -38H-530C-530 -38.5523 -529.552 -39 -529 -39V-41Z" fill="black" fill-opacity="0.1"/>
<path d="M21 12L3 12" stroke="#1A1A1A" stroke-width="1.5" stroke-linecap="round" stroke-linejoin="round"/>
</svg>
