<svg width="24" height="24" viewBox="0 0 24 24" fill="none" xmlns="http://www.w3.org/2000/svg">
<rect width="24" height="24" fill="#A6A6A6"/>
<path d="M-1270 -757C-1270 -758.105 -1269.1 -759 -1268 -759H216C217.105 -759 218 -758.105 218 -757V793C218 794.105 217.105 795 216 795H-1268C-1269.1 795 -1270 794.105 -1270 793V-757Z" fill="white"/>
<path d="M-1268 -758H216V-760H-1268V-758ZM217 -757V793H219V-757H217ZM216 794H-1268V796H216V794ZM-1269 793V-757H-1271V793H-1269ZM-1268 794C-1268.55 794 -1269 793.552 -1269 793H-1271C-1271 794.657 -1269.66 796 -1268 796V794ZM217 793C217 793.552 216.552 794 216 794V796C217.657 796 219 794.657 219 793H217ZM216 -758C216.552 -758 217 -757.552 217 -757H219C219 -758.657 217.657 -760 216 -760V-758ZM-1268 -760C-1269.66 -760 -1271 -758.657 -1271 -757H-1269C-1269 -757.552 -1268.55 -758 -1268 -758V-760Z" fill="black" fill-opacity="0.1"/>
<path fill-rule="evenodd" clip-rule="evenodd" d="M18.75 12C18.75 12.4142 18.4142 12.75 18 12.75L6 12.75C5.58579 12.75 5.25 12.4142 5.25 12C5.25 11.5858 5.58579 11.25 6 11.25L18 11.25C18.4142 11.25 18.75 11.5858 18.75 12Z" fill="#1A1A1A"/>
</svg>
