<svg width="24" height="24" viewBox="0 0 24 24" fill="none" xmlns="http://www.w3.org/2000/svg">
<rect width="24" height="24" fill="#A6A6A6"/>
<path d="M-636 -1208C-636 -1209.1 -635.105 -1210 -634 -1210H850C851.105 -1210 852 -1209.1 852 -1208V342C852 343.105 851.105 344 850 344H-634C-635.105 344 -636 343.105 -636 342V-1208Z" fill="white"/>
<path d="M-634 -1209H850V-1211H-634V-1209ZM851 -1208V342H853V-1208H851ZM850 343H-634V345H850V343ZM-635 342V-1208H-637V342H-635ZM-634 343C-634.552 343 -635 342.552 -635 342H-637C-637 343.657 -635.657 345 -634 345V343ZM851 342C851 342.552 850.552 343 850 343V345C851.657 345 853 343.657 853 342H851ZM850 -1209C850.552 -1209 851 -1208.55 851 -1208H853C853 -1209.66 851.657 -1211 850 -1211V-1209ZM-634 -1211C-635.657 -1211 -637 -1209.66 -637 -1208H-635C-635 -1208.55 -634.552 -1209 -634 -1209V-1211Z" fill="black" fill-opacity="0.1"/>
<path d="M21 9.36111V18C21 20.2091 19.2091 22 17 22H7C4.79086 22 3 20.2091 3 18V6C3 3.79086 4.79086 2 7 2H13.4464" stroke="#1A1A1A" stroke-width="1.5" stroke-linecap="round" stroke-linejoin="round"/>
<path d="M8 7H12" stroke="#1A1A1A" stroke-width="1.5" stroke-linecap="round"/>
<path d="M8 12H16" stroke="#1A1A1A" stroke-width="1.5" stroke-linecap="round"/>
<path d="M8 17H16" stroke="#1A1A1A" stroke-width="1.5" stroke-linecap="round"/>
<path d="M18 2V8" stroke="#1A1A1A" stroke-width="1.5" stroke-linecap="round"/>
<path d="M21 5L15 5" stroke="#1A1A1A" stroke-width="1.5" stroke-linecap="round"/>
</svg>
