<svg width="24" height="24" viewBox="0 0 24 24" fill="none" xmlns="http://www.w3.org/2000/svg">
<rect width="24" height="24" fill="#A6A6A6"/>
<path d="M-1328 -1208C-1328 -1209.1 -1327.1 -1210 -1326 -1210H158C159.105 -1210 160 -1209.1 160 -1208V342C160 343.105 159.105 344 158 344H-1326C-1327.1 344 -1328 343.105 -1328 342V-1208Z" fill="white"/>
<path d="M-1326 -1209H158V-1211H-1326V-1209ZM159 -1208V342H161V-1208H159ZM158 343H-1326V345H158V343ZM-1327 342V-1208H-1329V342H-1327ZM-1326 343C-1326.55 343 -1327 342.552 -1327 342H-1329C-1329 343.657 -1327.66 345 -1326 345V343ZM159 342C159 342.552 158.552 343 158 343V345C159.657 345 161 343.657 161 342H159ZM158 -1209C158.552 -1209 159 -1208.55 159 -1208H161C161 -1209.66 159.657 -1211 158 -1211V-1209ZM-1326 -1211C-1327.66 -1211 -1329 -1209.66 -1329 -1208H-1327C-1327 -1208.55 -1326.55 -1209 -1326 -1209V-1211Z" fill="black" fill-opacity="0.1"/>
<path fill-rule="evenodd" clip-rule="evenodd" d="M18 1.25C18.4142 1.25 18.75 1.58579 18.75 2V4.25H21C21.4142 4.25 21.75 4.58579 21.75 5C21.75 5.41421 21.4142 5.75 21 5.75H18.75V8C18.75 8.41421 18.4142 8.75 18 8.75C17.5858 8.75 17.25 8.41421 17.25 8V5.75H15C14.5858 5.75 14.25 5.41421 14.25 5C14.25 4.58579 14.5858 4.25 15 4.25H17.25V2C17.25 1.58579 17.5858 1.25 18 1.25ZM21 18V11C21 10.4477 20.5523 10 20 10H17C14.7909 10 13 8.20914 13 6V3C13 2.44772 12.5523 2 12 2H7C4.79086 2 3 3.79086 3 6V18C3 20.2091 4.79086 22 7 22H17C19.2091 22 21 20.2091 21 18ZM7.25 7C7.25 6.58579 7.58579 6.25 8 6.25H11C11.4142 6.25 11.75 6.58579 11.75 7C11.75 7.41421 11.4142 7.75 11 7.75H8C7.58579 7.75 7.25 7.41421 7.25 7ZM8 11.25C7.58579 11.25 7.25 11.5858 7.25 12C7.25 12.4142 7.58579 12.75 8 12.75H16C16.4142 12.75 16.75 12.4142 16.75 12C16.75 11.5858 16.4142 11.25 16 11.25H8ZM7.25 17C7.25 16.5858 7.58579 16.25 8 16.25H16C16.4142 16.25 16.75 16.5858 16.75 17C16.75 17.4142 16.4142 17.75 16 17.75H8C7.58579 17.75 7.25 17.4142 7.25 17Z" fill="#1A1A1A"/>
</svg>
