<svg width="24" height="24" viewBox="0 0 24 24" fill="none" xmlns="http://www.w3.org/2000/svg">
<rect width="24" height="24" fill="#A6A6A6"/>
<path d="M-114 -373C-114 -374.105 -113.105 -375 -112 -375H1372C1373.1 -375 1374 -374.105 1374 -373V1177C1374 1178.1 1373.1 1179 1372 1179H-112C-113.105 1179 -114 1178.1 -114 1177V-373Z" fill="white"/>
<path d="M-112 -374H1372V-376H-112V-374ZM1373 -373V1177H1375V-373H1373ZM1372 1178H-112V1180H1372V1178ZM-113 1177V-373H-115V1177H-113ZM-112 1178C-112.552 1178 -113 1177.55 -113 1177H-115C-115 1178.66 -113.657 1180 -112 1180V1178ZM1373 1177C1373 1177.55 1372.55 1178 1372 1178V1180C1373.66 1180 1375 1178.66 1375 1177H1373ZM1372 -374C1372.55 -374 1373 -373.552 1373 -373H1375C1375 -374.657 1373.66 -376 1372 -376V-374ZM-112 -376C-113.657 -376 -115 -374.657 -115 -373H-113C-113 -373.552 -112.552 -374 -112 -374V-376Z" fill="black" fill-opacity="0.1"/>
<path d="M20 8.32624C20 9.97193 16.4183 11.306 12 11.306C7.58172 11.306 4 9.97193 4 8.32624M20 8.32624C20 12.0778 17.9318 15.2897 15 16.6158V19.0176C15 19.7701 14.572 20.458 13.8944 20.7945L11.8944 21.7877C10.5646 22.4481 9 21.4877 9 20.0109V16.6158C6.06817 15.2897 4 12.0778 4 8.32624M20 8.32624C20 7.38522 18.8289 6.54609 17 6M4 8.32624C4 7.38522 5.17107 6.54609 7 6M14 5V7M10 7V8M10 2V4" stroke="#1A1A1A" stroke-width="1.5" stroke-linecap="round" stroke-linejoin="round"/>
</svg>
