<svg width="24" height="24" viewBox="0 0 24 24" fill="none" xmlns="http://www.w3.org/2000/svg">
<rect width="24" height="24" fill="#A6A6A6"/>
<path d="M-806 -373C-806 -374.105 -805.105 -375 -804 -375H680C681.105 -375 682 -374.105 682 -373V1177C682 1178.1 681.105 1179 680 1179H-804C-805.105 1179 -806 1178.1 -806 1177V-373Z" fill="white"/>
<path d="M-804 -374H680V-376H-804V-374ZM681 -373V1177H683V-373H681ZM680 1178H-804V1180H680V1178ZM-805 1177V-373H-807V1177H-805ZM-804 1178C-804.552 1178 -805 1177.55 -805 1177H-807C-807 1178.66 -805.657 1180 -804 1180V1178ZM681 1177C681 1177.55 680.552 1178 680 1178V1180C681.657 1180 683 1178.66 683 1177H681ZM680 -374C680.552 -374 681 -373.552 681 -373H683C683 -374.657 681.657 -376 680 -376V-374ZM-804 -376C-805.657 -376 -807 -374.657 -807 -373H-805C-805 -373.552 -804.552 -374 -804 -374V-376Z" fill="black" fill-opacity="0.1"/>
<path fill-rule="evenodd" clip-rule="evenodd" d="M10.75 2C10.75 1.58579 10.4142 1.25 10 1.25C9.58579 1.25 9.25 1.58579 9.25 2V4C9.25 4.41421 9.58579 4.75 10 4.75C10.4142 4.75 10.75 4.41421 10.75 4V2ZM14.75 5C14.75 4.58579 14.4142 4.25 14 4.25C13.5858 4.25 13.25 4.58579 13.25 5V7C13.25 7.41421 13.5858 7.75 14 7.75C14.4142 7.75 14.75 7.41421 14.75 7V5ZM7.21458 6.71885C7.61148 6.60034 7.83716 6.18252 7.71865 5.78562C7.60014 5.38872 7.18232 5.16304 6.78542 5.28155C5.82265 5.56902 4.97974 5.94804 4.36076 6.41778C3.75193 6.87981 3.25 7.51974 3.25 8.32643C3.25 12.1601 5.2668 15.5166 8.25 17.084V20.0111C8.25 22.0528 10.4071 23.364 12.228 22.4596L14.228 21.4664C15.1589 21.0041 15.75 20.0571 15.75 19.0178V17.084C18.7332 15.5166 20.75 12.1601 20.75 8.32643C20.75 7.51974 20.2481 6.87981 19.6392 6.41778C19.0203 5.94804 18.1774 5.56902 17.2146 5.28155C16.8177 5.16304 16.3999 5.38872 16.2814 5.78562C16.1628 6.18252 16.3885 6.60034 16.7854 6.71885C17.6516 6.97747 18.3087 7.29106 18.7325 7.61266C19.1664 7.94197 19.25 8.19211 19.25 8.32643C19.25 8.44432 19.1885 8.64796 18.8757 8.92344C18.564 9.19787 18.07 9.47922 17.3951 9.73063C16.0508 10.2313 14.1435 10.5562 12 10.5562C9.8565 10.5562 7.94921 10.2313 6.60493 9.73063C5.92995 9.47922 5.43598 9.19787 5.12435 8.92344C4.81152 8.64796 4.75 8.44432 4.75 8.32643C4.75 8.19211 4.83361 7.94197 5.26754 7.61266C5.69133 7.29106 6.34842 6.97747 7.21458 6.71885ZM10 6.25C10.4142 6.25 10.75 6.58579 10.75 7V8C10.75 8.41421 10.4142 8.75 10 8.75C9.58579 8.75 9.25 8.41421 9.25 8V7C9.25 6.58579 9.58579 6.25 10 6.25Z" fill="#1A1A1A"/>
</svg>
