<svg width="24" height="24" viewBox="0 0 24 24" fill="none" xmlns="http://www.w3.org/2000/svg">
<rect width="24" height="24" fill="#A6A6A6"/>
<path d="M-636 -421C-636 -422.105 -635.105 -423 -634 -423H850C851.105 -423 852 -422.105 852 -421V1129C852 1130.1 851.105 1131 850 1131H-634C-635.105 1131 -636 1130.1 -636 1129V-421Z" fill="white"/>
<path d="M-634 -422H850V-424H-634V-422ZM851 -421V1129H853V-421H851ZM850 1130H-634V1132H850V1130ZM-635 1129V-421H-637V1129H-635ZM-634 1130C-634.552 1130 -635 1129.55 -635 1129H-637C-637 1130.66 -635.657 1132 -634 1132V1130ZM851 1129C851 1129.55 850.552 1130 850 1130V1132C851.657 1132 853 1130.66 853 1129H851ZM850 -422C850.552 -422 851 -421.552 851 -421H853C853 -422.657 851.657 -424 850 -424V-422ZM-634 -424C-635.657 -424 -637 -422.657 -637 -421H-635C-635 -421.552 -634.552 -422 -634 -422V-424Z" fill="black" fill-opacity="0.1"/>
<path d="M10 8V6M10 18V16M10 13V11M6 21C3.79086 21 2 19.2091 2 17V16C2 15.4477 2.46 15.0163 2.98189 14.8356C4.15653 14.4289 5 13.313 5 12C5 10.687 4.15653 9.57105 2.98189 9.16437C2.46 8.98368 2 8.55228 2 8V7C2 4.79086 3.79086 3 6 3H18C20.2091 3 22 4.79086 22 7V8C22 8.55228 21.54 8.98368 21.0181 9.16437C19.8435 9.57105 19 10.687 19 12C19 13.313 19.8435 14.4289 21.0181 14.8356C21.54 15.0163 22 15.4477 22 16V17C22 19.2091 20.2091 21 18 21H6Z" stroke="#1A1A1A" stroke-width="1.5" stroke-linecap="round" stroke-linejoin="round"/>
</svg>
