<svg width="24" height="24" viewBox="0 0 24 24" fill="none" xmlns="http://www.w3.org/2000/svg">
<rect width="24" height="24" fill="#A6A6A6"/>
<path d="M-1328 -421C-1328 -422.105 -1327.1 -423 -1326 -423H158C159.105 -423 160 -422.105 160 -421V1129C160 1130.1 159.105 1131 158 1131H-1326C-1327.1 1131 -1328 1130.1 -1328 1129V-421Z" fill="white"/>
<path d="M-1326 -422H158V-424H-1326V-422ZM159 -421V1129H161V-421H159ZM158 1130H-1326V1132H158V1130ZM-1327 1129V-421H-1329V1129H-1327ZM-1326 1130C-1326.55 1130 -1327 1129.55 -1327 1129H-1329C-1329 1130.66 -1327.66 1132 -1326 1132V1130ZM159 1129C159 1129.55 158.552 1130 158 1130V1132C159.657 1132 161 1130.66 161 1129H159ZM158 -422C158.552 -422 159 -421.552 159 -421H161C161 -422.657 159.657 -424 158 -424V-422ZM-1326 -424C-1327.66 -424 -1329 -422.657 -1329 -421H-1327C-1327 -421.552 -1326.55 -422 -1326 -422V-424Z" fill="black" fill-opacity="0.1"/>
<path fill-rule="evenodd" clip-rule="evenodd" d="M6 21C3.79086 21 2 19.2091 2 17V16C2 15.4477 2.46 15.0163 2.98189 14.8356C4.15653 14.4289 5 13.313 5 12C5 10.687 4.15653 9.57105 2.98189 9.16437C2.46 8.98368 2 8.55228 2 8V7C2 4.79086 3.79086 3 6 3H10H18C20.2091 3 22 4.79086 22 7V8C22 8.55228 21.54 8.98368 21.0181 9.16437C19.8435 9.57105 19 10.687 19 12C19 13.313 19.8435 14.4289 21.0181 14.8356C21.54 15.0163 22 15.4477 22 16V17C22 19.2091 20.2091 21 18 21H10H6ZM10.75 6C10.75 5.58579 10.4142 5.25 10 5.25C9.58579 5.25 9.25 5.58579 9.25 6V8C9.25 8.41421 9.58579 8.75 10 8.75C10.4142 8.75 10.75 8.41421 10.75 8V6ZM10 15.25C10.4142 15.25 10.75 15.5858 10.75 16V18C10.75 18.4142 10.4142 18.75 10 18.75C9.58579 18.75 9.25 18.4142 9.25 18V16C9.25 15.5858 9.58579 15.25 10 15.25ZM10.75 11C10.75 10.5858 10.4142 10.25 10 10.25C9.58579 10.25 9.25 10.5858 9.25 11V13C9.25 13.4142 9.58579 13.75 10 13.75C10.4142 13.75 10.75 13.4142 10.75 13V11Z" fill="#1A1A1A"/>
</svg>
