<svg width="24" height="24" viewBox="0 0 24 24" fill="none" xmlns="http://www.w3.org/2000/svg">
<rect width="24" height="24" fill="#A6A6A6"/>
<path d="M-114 -901C-114 -902.105 -113.105 -903 -112 -903H1372C1373.1 -903 1374 -902.105 1374 -901V649C1374 650.105 1373.1 651 1372 651H-112C-113.105 651 -114 650.105 -114 649V-901Z" fill="white"/>
<path d="M-112 -902H1372V-904H-112V-902ZM1373 -901V649H1375V-901H1373ZM1372 650H-112V652H1372V650ZM-113 649V-901H-115V649H-113ZM-112 650C-112.552 650 -113 649.552 -113 649H-115C-115 650.657 -113.657 652 -112 652V650ZM1373 649C1373 649.552 1372.55 650 1372 650V652C1373.66 652 1375 650.657 1375 649H1373ZM1372 -902C1372.55 -902 1373 -901.552 1373 -901H1375C1375 -902.657 1373.66 -904 1372 -904V-902ZM-112 -904C-113.657 -904 -115 -902.657 -115 -901H-113C-113 -901.552 -112.552 -902 -112 -902V-904Z" fill="black" fill-opacity="0.1"/>
<path d="M10 8.99997C10 7.8954 10.8954 6.99997 12 6.99997C13.1046 6.99997 14 7.8954 14 8.99997C14 9.39812 13.8837 9.7691 13.6831 10.0808C13.0854 11.0096 12 11.8954 12 13V13.5M12 16V17M3 9.13192V14.8681C3 16.3914 3.7923 17.799 5.07846 18.5607L9.92154 21.4288C11.2077 22.1904 12.7923 22.1904 14.0785 21.4288L18.9215 18.5607C20.2077 17.799 21 16.3914 21 14.8681V9.13192C21 7.6086 20.2077 6.20099 18.9215 5.43932L14.0785 2.57125C12.7923 1.80958 11.2077 1.80958 9.92154 2.57125L5.07846 5.43932C3.7923 6.20099 3 7.6086 3 9.13192Z" stroke="#1A1A1A" stroke-width="1.5" stroke-linecap="round"/>
</svg>
