<svg width="24" height="24" viewBox="0 0 24 24" fill="none" xmlns="http://www.w3.org/2000/svg">
<rect width="24" height="24" fill="#A6A6A6"/>
<path d="M-806 -901C-806 -902.105 -805.105 -903 -804 -903H680C681.105 -903 682 -902.105 682 -901V649C682 650.105 681.105 651 680 651H-804C-805.105 651 -806 650.105 -806 649V-901Z" fill="white"/>
<path d="M-804 -902H680V-904H-804V-902ZM681 -901V649H683V-901H681ZM680 650H-804V652H680V650ZM-805 649V-901H-807V649H-805ZM-804 650C-804.552 650 -805 649.552 -805 649H-807C-807 650.657 -805.657 652 -804 652V650ZM681 649C681 649.552 680.552 650 680 650V652C681.657 652 683 650.657 683 649H681ZM680 -902C680.552 -902 681 -901.552 681 -901H683C683 -902.657 681.657 -904 680 -904V-902ZM-804 -904C-805.657 -904 -807 -902.657 -807 -901H-805C-805 -901.552 -804.552 -902 -804 -902V-904Z" fill="black" fill-opacity="0.1"/>
<path fill-rule="evenodd" clip-rule="evenodd" d="M9.92154 2.57125C11.2077 1.80958 12.7923 1.80958 14.0785 2.57125L18.9215 5.43932C20.2077 6.20099 21 7.6086 21 9.13192V14.8681C21 16.3914 20.2077 17.799 18.9215 18.5607L14.0785 21.4288C12.7923 22.1904 11.2077 22.1904 9.92154 21.4288L5.07846 18.5607C3.7923 17.799 3 16.3914 3 14.8681V9.13192C3 7.6086 3.7923 6.20099 5.07846 5.43932L9.92154 2.57125ZM12 7.75C11.3096 7.75 10.75 8.30964 10.75 9C10.75 9.41421 10.4142 9.75 10 9.75C9.58579 9.75 9.25 9.41421 9.25 9C9.25 7.48122 10.4812 6.25 12 6.25C13.5188 6.25 14.75 7.48122 14.75 9C14.75 9.54634 14.5899 10.0576 14.3138 10.4866C14.1409 10.7554 13.9387 11.0119 13.7523 11.2436L13.6518 11.3683C13.4971 11.5597 13.3551 11.7354 13.2239 11.9158C12.9003 12.3605 12.75 12.6947 12.75 13V13.5C12.75 13.9142 12.4142 14.25 12 14.25C11.5858 14.25 11.25 13.9142 11.25 13.5V13C11.25 12.2007 11.6424 11.5398 12.011 11.0333C12.1667 10.8192 12.3373 10.6081 12.4925 10.4162L12.5836 10.3033C12.7688 10.0731 12.9265 9.87065 13.0524 9.67495C13.1774 9.48068 13.25 9.24996 13.25 9C13.25 8.30964 12.6904 7.75 12 7.75ZM12.75 16C12.75 15.5858 12.4142 15.25 12 15.25C11.5858 15.25 11.25 15.5858 11.25 16V17C11.25 17.4142 11.5858 17.75 12 17.75C12.4142 17.75 12.75 17.4142 12.75 17V16Z" fill="#1A1A1A"/>
</svg>
