<svg width="24" height="24" viewBox="0 0 24 24" fill="none" xmlns="http://www.w3.org/2000/svg">
<rect width="24" height="24" fill="#A6A6A6"/>
<path d="M-701 -38C-701 -39.1046 -700.105 -40 -699 -40H785C786.105 -40 787 -39.1046 787 -38V1512C787 1513.1 786.105 1514 785 1514H-699C-700.105 1514 -701 1513.1 -701 1512V-38Z" fill="white"/>
<path d="M-699 -39H785V-41H-699V-39ZM786 -38V1512H788V-38H786ZM785 1513H-699V1515H785V1513ZM-700 1512V-38H-702V1512H-700ZM-699 1513C-699.552 1513 -700 1512.55 -700 1512H-702C-702 1513.66 -700.657 1515 -699 1515V1513ZM786 1512C786 1512.55 785.552 1513 785 1513V1515C786.657 1515 788 1513.66 788 1512H786ZM785 -39C785.552 -39 786 -38.5523 786 -38H788C788 -39.6569 786.657 -41 785 -41V-39ZM-699 -41C-700.657 -41 -702 -39.6569 -702 -38H-700C-700 -38.5523 -699.552 -39 -699 -39V-41Z" fill="black" fill-opacity="0.1"/>
<path d="M12 16L3 7" stroke="#1A1A1A" stroke-width="1.5" stroke-linecap="round"/>
<path d="M12 16L21 7" stroke="#1A1A1A" stroke-width="1.5" stroke-linecap="round"/>
</svg>
