<svg width="24" height="24" viewBox="0 0 24 24" fill="none" xmlns="http://www.w3.org/2000/svg">
<rect width="24" height="24" fill="#A6A6A6"/>
<path d="M-1328 -469C-1328 -470.105 -1327.1 -471 -1326 -471H158C159.105 -471 160 -470.105 160 -469V1081C160 1082.1 159.105 1083 158 1083H-1326C-1327.1 1083 -1328 1082.1 -1328 1081V-469Z" fill="white"/>
<path d="M-1326 -470H158V-472H-1326V-470ZM159 -469V1081H161V-469H159ZM158 1082H-1326V1084H158V1082ZM-1327 1081V-469H-1329V1081H-1327ZM-1326 1082C-1326.55 1082 -1327 1081.55 -1327 1081H-1329C-1329 1082.66 -1327.66 1084 -1326 1084V1082ZM159 1081C159 1081.55 158.552 1082 158 1082V1084C159.657 1084 161 1082.66 161 1081H159ZM158 -470C158.552 -470 159 -469.552 159 -469H161C161 -470.657 159.657 -472 158 -472V-470ZM-1326 -472C-1327.66 -472 -1329 -470.657 -1329 -469H-1327C-1327 -469.552 -1326.55 -470 -1326 -470V-472Z" fill="black" fill-opacity="0.1"/>
<path fill-rule="evenodd" clip-rule="evenodd" d="M8.40627 3.8906L7 6H6C3.79086 6 2 7.79086 2 10V17C2 19.2091 3.79086 21 6 21H18C20.2091 21 22 19.2091 22 17V10C22 7.79086 20.2091 6 18 6H17L15.5937 3.8906C15.2228 3.3342 14.5983 3 13.9296 3H10.0704C9.40166 3 8.7772 3.3342 8.40627 3.8906ZM15 13.5C15 15.1569 13.6569 16.5 12 16.5C10.3431 16.5 9 15.1569 9 13.5C9 11.8431 10.3431 10.5 12 10.5C13.6569 10.5 15 11.8431 15 13.5ZM12 7C12.5523 7 13 6.55228 13 6C13 5.44772 12.5523 5 12 5C11.4477 5 11 5.44772 11 6C11 6.55228 11.4477 7 12 7Z" fill="#1A1A1A"/>
</svg>
