<svg width="24" height="24" viewBox="0 0 24 24" fill="none" xmlns="http://www.w3.org/2000/svg">
<rect width="24" height="24" fill="#A6A6A6"/>
<path d="M-922 -1304C-922 -1305.1 -921.105 -1306 -920 -1306H564C565.105 -1306 566 -1305.1 566 -1304V246C566 247.105 565.105 248 564 248H-920C-921.105 248 -922 247.105 -922 246V-1304Z" fill="white"/>
<path d="M-920 -1305H564V-1307H-920V-1305ZM565 -1304V246H567V-1304H565ZM564 247H-920V249H564V247ZM-921 246V-1304H-923V246H-921ZM-920 247C-920.552 247 -921 246.552 -921 246H-923C-923 247.657 -921.657 249 -920 249V247ZM565 246C565 246.552 564.552 247 564 247V249C565.657 249 567 247.657 567 246H565ZM564 -1305C564.552 -1305 565 -1304.55 565 -1304H567C567 -1305.66 565.657 -1307 564 -1307V-1305ZM-920 -1307C-921.657 -1307 -923 -1305.66 -923 -1304H-921C-921 -1304.55 -920.552 -1305 -920 -1305V-1307Z" fill="black" fill-opacity="0.1"/>
<path fill-rule="evenodd" clip-rule="evenodd" d="M5.25 6C5.25 5.58579 5.58579 5.25 6 5.25H18C18.4142 5.25 18.75 5.58579 18.75 6C18.75 6.41421 18.4142 6.75 18 6.75H6C5.58579 6.75 5.25 6.41421 5.25 6ZM8.53033 14.5303C8.82322 14.2374 8.82322 13.7626 8.53033 13.4697L7.06066 12L8.53033 10.5303C8.82322 10.2374 8.82322 9.76256 8.53033 9.46967C8.23744 9.17678 7.76256 9.17678 7.46967 9.46967L5.46967 11.4697C5.17678 11.7626 5.17678 12.2374 5.46967 12.5303L7.46967 14.5303C7.76256 14.8232 8.23744 14.8232 8.53033 14.5303ZM11 9.25C10.5858 9.25 10.25 9.58579 10.25 10C10.25 10.4142 10.5858 10.75 11 10.75H18C18.4142 10.75 18.75 10.4142 18.75 10C18.75 9.58579 18.4142 9.25 18 9.25H11ZM11 13.25H18C18.4142 13.25 18.75 13.5858 18.75 14C18.75 14.4142 18.4142 14.75 18 14.75H11C10.5858 14.75 10.25 14.4142 10.25 14C10.25 13.5858 10.5858 13.25 11 13.25ZM18 17.25H6C5.58579 17.25 5.25 17.5858 5.25 18C5.25 18.4142 5.58579 18.75 6 18.75H18C18.4142 18.75 18.75 18.4142 18.75 18C18.75 17.5858 18.4142 17.25 18 17.25Z" fill="#1A1A1A"/>
</svg>
