<svg width="24" height="24" viewBox="0 0 24 24" fill="none" xmlns="http://www.w3.org/2000/svg">
<rect width="24" height="24" fill="#A6A6A6"/>
<path d="M-230 -613C-230 -614.105 -229.105 -615 -228 -615H1256C1257.1 -615 1258 -614.105 1258 -613V937C1258 938.105 1257.1 939 1256 939H-228C-229.105 939 -230 938.105 -230 937V-613Z" fill="white"/>
<path d="M-228 -614H1256V-616H-228V-614ZM1257 -613V937H1259V-613H1257ZM1256 938H-228V940H1256V938ZM-229 937V-613H-231V937H-229ZM-228 938C-228.552 938 -229 937.552 -229 937H-231C-231 938.657 -229.657 940 -228 940V938ZM1257 937C1257 937.552 1256.55 938 1256 938V940C1257.66 940 1259 938.657 1259 937H1257ZM1256 -614C1256.55 -614 1257 -613.552 1257 -613H1259C1259 -614.657 1257.66 -616 1256 -616V-614ZM-228 -616C-229.657 -616 -231 -614.657 -231 -613H-229C-229 -613.552 -228.552 -614 -228 -614V-616Z" fill="black" fill-opacity="0.1"/>
<path d="M12 14C10.8954 14 10 13.1046 10 12C10 10.8954 10.8954 10 12 10C13.1046 10 14 10.8954 14 12C14 13.1046 13.1046 14 12 14Z" stroke="#1A1A1A" stroke-width="1.5"/>
<path d="M20 14C18.8954 14 18 13.1046 18 12C18 10.8954 18.8954 10 20 10C21.1046 10 22 10.8954 22 12C22 13.1046 21.1046 14 20 14Z" stroke="#1A1A1A" stroke-width="1.5"/>
<path d="M4 14C2.89543 14 2 13.1046 2 12C2 10.8954 2.89543 10 4 10C5.10457 10 6 10.8954 6 12C6 13.1046 5.10457 14 4 14Z" stroke="#1A1A1A" stroke-width="1.5"/>
</svg>
