<svg width="24" height="24" viewBox="0 0 24 24" fill="none" xmlns="http://www.w3.org/2000/svg">
<rect width="24" height="24" fill="#A6A6A6"/>
<path d="M-922 -613C-922 -614.105 -921.105 -615 -920 -615H564C565.105 -615 566 -614.105 566 -613V937C566 938.105 565.105 939 564 939H-920C-921.105 939 -922 938.105 -922 937V-613Z" fill="white"/>
<path d="M-920 -614H564V-616H-920V-614ZM565 -613V937H567V-613H565ZM564 938H-920V940H564V938ZM-921 937V-613H-923V937H-921ZM-920 938C-920.552 938 -921 937.552 -921 937H-923C-923 938.657 -921.657 940 -920 940V938ZM565 937C565 937.552 564.552 938 564 938V940C565.657 940 567 938.657 567 937H565ZM564 -614C564.552 -614 565 -613.552 565 -613H567C567 -614.657 565.657 -616 564 -616V-614ZM-920 -616C-921.657 -616 -923 -614.657 -923 -613H-921C-921 -613.552 -920.552 -614 -920 -614V-616Z" fill="black" fill-opacity="0.1"/>
<path fill-rule="evenodd" clip-rule="evenodd" d="M6.5 11.25C6.5 11.9404 7.05964 12.5 7.75 12.5C8.44036 12.5 9 11.9404 9 11.25C9 10.5596 8.44036 10 7.75 10C7.05964 10 6.5 10.5596 6.5 11.25ZM12.75 12.5C12.0596 12.5 11.5 11.9404 11.5 11.25C11.5 10.5596 12.0596 10 12.75 10C13.4404 10 14 10.5596 14 11.25C14 11.9404 13.4404 12.5 12.75 12.5ZM17.75 12.5C17.0596 12.5 16.5 11.9404 16.5 11.25C16.5 10.5596 17.0596 10 17.75 10C18.4404 10 19 10.5596 19 11.25C19 11.9404 18.4404 12.5 17.75 12.5Z" fill="#1A1A1A"/>
</svg>
