<svg width="24" height="24" viewBox="0 0 24 24" fill="none" xmlns="http://www.w3.org/2000/svg">
<rect width="24" height="24" fill="#A6A6A6"/>
<path d="M-462 -613C-462 -614.105 -461.105 -615 -460 -615H1024C1025.1 -615 1026 -614.105 1026 -613V937C1026 938.105 1025.1 939 1024 939H-460C-461.105 939 -462 938.105 -462 937V-613Z" fill="white"/>
<path d="M-460 -614H1024V-616H-460V-614ZM1025 -613V937H1027V-613H1025ZM1024 938H-460V940H1024V938ZM-461 937V-613H-463V937H-461ZM-460 938C-460.552 938 -461 937.552 -461 937H-463C-463 938.657 -461.657 940 -460 940V938ZM1025 937C1025 937.552 1024.55 938 1024 938V940C1025.66 940 1027 938.657 1027 937H1025ZM1024 -614C1024.55 -614 1025 -613.552 1025 -613H1027C1027 -614.657 1025.66 -616 1024 -616V-614ZM-460 -616C-461.657 -616 -463 -614.657 -463 -613H-461C-461 -613.552 -460.552 -614 -460 -614V-616Z" fill="black" fill-opacity="0.1"/>
<path d="M18.5 18.5L22 22M21 11.5C21 6.25329 16.7467 2 11.5 2C6.25329 2 2 6.25329 2 11.5C2 16.7467 6.25329 21 11.5 21C16.7467 21 21 16.7467 21 11.5Z" stroke="#1A1A1A" stroke-width="1.5" stroke-linecap="round" stroke-linejoin="round"/>
</svg>
