<svg width="24" height="24" viewBox="0 0 24 24" fill="none" xmlns="http://www.w3.org/2000/svg">
<rect width="24" height="24" fill="#A6A6A6"/>
<path d="M-1154 -613C-1154 -614.105 -1153.1 -615 -1152 -615H332C333.105 -615 334 -614.105 334 -613V937C334 938.105 333.105 939 332 939H-1152C-1153.1 939 -1154 938.105 -1154 937V-613Z" fill="white"/>
<path d="M-1152 -614H332V-616H-1152V-614ZM333 -613V937H335V-613H333ZM332 938H-1152V940H332V938ZM-1153 937V-613H-1155V937H-1153ZM-1152 938C-1152.55 938 -1153 937.552 -1153 937H-1155C-1155 938.657 -1153.66 940 -1152 940V938ZM333 937C333 937.552 332.552 938 332 938V940C333.657 940 335 938.657 335 937H333ZM332 -614C332.552 -614 333 -613.552 333 -613H335C335 -614.657 333.657 -616 332 -616V-614ZM-1152 -616C-1153.66 -616 -1155 -614.657 -1155 -613H-1153C-1153 -613.552 -1152.55 -614 -1152 -614V-616Z" fill="black" fill-opacity="0.1"/>
<path fill-rule="evenodd" clip-rule="evenodd" d="M2.75 11.5C2.75 16.3325 6.66751 20.25 11.5 20.25C16.3325 20.25 20.25 16.3325 20.25 11.5C20.25 6.66751 16.3325 2.75 11.5 2.75C6.66751 2.75 2.75 6.66751 2.75 11.5ZM11.5 21.75C5.83908 21.75 1.25 17.1609 1.25 11.5C1.25 5.83908 5.83908 1.25 11.5 1.25C17.1609 1.25 21.75 5.83908 21.75 11.5C21.75 14.0605 20.8111 16.4017 19.2589 18.1982L22.5303 21.4697C22.8232 21.7626 22.8232 22.2374 22.5303 22.5303C22.2374 22.8232 21.7626 22.8232 21.4697 22.5303L18.1982 19.2589C16.4017 20.8111 14.0605 21.75 11.5 21.75Z" fill="#1A1A1A"/>
</svg>
