<svg width="24" height="24" viewBox="0 0 24 24" fill="none" xmlns="http://www.w3.org/2000/svg">
<rect width="24" height="24" fill="#A6A6A6"/>
<path d="M-404 -757C-404 -758.105 -403.105 -759 -402 -759H1082C1083.1 -759 1084 -758.105 1084 -757V793C1084 794.105 1083.1 795 1082 795H-402C-403.105 795 -404 794.105 -404 793V-757Z" fill="white"/>
<path d="M-402 -758H1082V-760H-402V-758ZM1083 -757V793H1085V-757H1083ZM1082 794H-402V796H1082V794ZM-403 793V-757H-405V793H-403ZM-402 794C-402.552 794 -403 793.552 -403 793H-405C-405 794.657 -403.657 796 -402 796V794ZM1083 793C1083 793.552 1082.55 794 1082 794V796C1083.66 796 1085 794.657 1085 793H1083ZM1082 -758C1082.55 -758 1083 -757.552 1083 -757H1085C1085 -758.657 1083.66 -760 1082 -760V-758ZM-402 -760C-403.657 -760 -405 -758.657 -405 -757H-403C-403 -757.552 -402.552 -758 -402 -758V-760Z" fill="black" fill-opacity="0.1"/>
<path d="M15.5 11.5H7.5M22 22L18.5 18.5M21 11.5C21 16.7467 16.7467 21 11.5 21C6.25329 21 2 16.7467 2 11.5C2 6.25329 6.25329 2 11.5 2C16.7467 2 21 6.25329 21 11.5Z" stroke="#1A1A1A" stroke-width="1.5" stroke-linecap="round" stroke-linejoin="round"/>
</svg>
