<svg width="24" height="24" viewBox="0 0 24 24" fill="none" xmlns="http://www.w3.org/2000/svg">
<rect width="24" height="24" fill="#A6A6A6"/>
<path d="M-1096 -757C-1096 -758.105 -1095.1 -759 -1094 -759H390C391.105 -759 392 -758.105 392 -757V793C392 794.105 391.105 795 390 795H-1094C-1095.1 795 -1096 794.105 -1096 793V-757Z" fill="white"/>
<path d="M-1094 -758H390V-760H-1094V-758ZM391 -757V793H393V-757H391ZM390 794H-1094V796H390V794ZM-1095 793V-757H-1097V793H-1095ZM-1094 794C-1094.55 794 -1095 793.552 -1095 793H-1097C-1097 794.657 -1095.66 796 -1094 796V794ZM391 793C391 793.552 390.552 794 390 794V796C391.657 796 393 794.657 393 793H391ZM390 -758C390.552 -758 391 -757.552 391 -757H393C393 -758.657 391.657 -760 390 -760V-758ZM-1094 -760C-1095.66 -760 -1097 -758.657 -1097 -757H-1095C-1095 -757.552 -1094.55 -758 -1094 -758V-760Z" fill="black" fill-opacity="0.1"/>
<path fill-rule="evenodd" clip-rule="evenodd" d="M11.5 2.75C6.66751 2.75 2.75 6.66751 2.75 11.5C2.75 16.3325 6.66751 20.25 11.5 20.25C16.3325 20.25 20.25 16.3325 20.25 11.5C20.25 6.66751 16.3325 2.75 11.5 2.75ZM1.25 11.5C1.25 5.83908 5.83908 1.25 11.5 1.25C17.1609 1.25 21.75 5.83908 21.75 11.5C21.75 14.0605 20.8111 16.4017 19.2589 18.1982L22.5303 21.4697C22.8232 21.7626 22.8232 22.2374 22.5303 22.5303C22.2374 22.8232 21.7626 22.8232 21.4697 22.5303L18.1982 19.2589C16.4017 20.8111 14.0605 21.75 11.5 21.75C5.83908 21.75 1.25 17.1609 1.25 11.5ZM15.5 12.25C15.9142 12.25 16.25 11.9142 16.25 11.5C16.25 11.0858 15.9142 10.75 15.5 10.75H7.5C7.08579 10.75 6.75 11.0858 6.75 11.5C6.75 11.9142 7.08579 12.25 7.5 12.25H15.5Z" fill="#1A1A1A"/>
</svg>
