<svg width="24" height="24" viewBox="0 0 24 24" fill="none" xmlns="http://www.w3.org/2000/svg">
<rect width="24" height="24" fill="#A6A6A6"/>
<path d="M-653 -38C-653 -39.1046 -652.105 -40 -651 -40H833C834.105 -40 835 -39.1046 835 -38V1512C835 1513.1 834.105 1514 833 1514H-651C-652.105 1514 -653 1513.1 -653 1512V-38Z" fill="white"/>
<path d="M-651 -39H833V-41H-651V-39ZM834 -38V1512H836V-38H834ZM833 1513H-651V1515H833V1513ZM-652 1512V-38H-654V1512H-652ZM-651 1513C-651.552 1513 -652 1512.55 -652 1512H-654C-654 1513.66 -652.657 1515 -651 1515V1513ZM834 1512C834 1512.55 833.552 1513 833 1513V1515C834.657 1515 836 1513.66 836 1512H834ZM833 -39C833.552 -39 834 -38.5523 834 -38H836C836 -39.6569 834.657 -41 833 -41V-39ZM-651 -41C-652.657 -41 -654 -39.6569 -654 -38H-652C-652 -38.5523 -651.552 -39 -651 -39V-41Z" fill="black" fill-opacity="0.1"/>
<path d="M12 7L3 16" stroke="#1A1A1A" stroke-width="1.5" stroke-linecap="round"/>
<path d="M12 7L21 16" stroke="#1A1A1A" stroke-width="1.5" stroke-linecap="round"/>
</svg>
