<svg width="24" height="24" viewBox="0 0 24 24" fill="none" xmlns="http://www.w3.org/2000/svg">
<rect width="24" height="24" fill="#A6A6A6"/>
<path d="M-806 -517C-806 -518.105 -805.105 -519 -804 -519H680C681.105 -519 682 -518.105 682 -517V1033C682 1034.1 681.105 1035 680 1035H-804C-805.105 1035 -806 1034.1 -806 1033V-517Z" fill="white"/>
<path d="M-804 -518H680V-520H-804V-518ZM681 -517V1033H683V-517H681ZM680 1034H-804V1036H680V1034ZM-805 1033V-517H-807V1033H-805ZM-804 1034C-804.552 1034 -805 1033.55 -805 1033H-807C-807 1034.66 -805.657 1036 -804 1036V1034ZM681 1033C681 1033.55 680.552 1034 680 1034V1036C681.657 1036 683 1034.66 683 1033H681ZM680 -518C680.552 -518 681 -517.552 681 -517H683C683 -518.657 681.657 -520 680 -520V-518ZM-804 -520C-805.657 -520 -807 -518.657 -807 -517H-805C-805 -517.552 -804.552 -518 -804 -518V-520Z" fill="black" fill-opacity="0.1"/>
<path fill-rule="evenodd" clip-rule="evenodd" d="M1.46967 2.53033C1.17678 2.23744 1.17678 1.76256 1.46967 1.46967C1.76256 1.17678 2.23744 1.17678 2.53033 1.46967L22.5303 21.4697C22.8232 21.7626 22.8232 22.2374 22.5303 22.5303C22.2374 22.8232 21.7626 22.8232 21.4697 22.5303L19.6045 20.6652C19.1134 20.8805 18.5706 21 18 21H6C3.79086 21 2 19.2091 2 17V10C2 8.11738 3.30059 6.53854 5.05228 6.11294L1.46967 2.53033ZM10.1097 11.1704C9.43263 11.7204 9 12.5597 9 13.5C9 15.1569 10.3431 16.5 12 16.5C12.9403 16.5 13.7796 16.0674 14.3297 15.3903L10.1097 11.1704ZM10.0704 3H13.9296C14.5983 3 15.2228 3.3342 15.5937 3.8906L17 6H18C20.2091 6 22 7.79086 22 10V17C22 17.309 21.965 17.6098 21.8987 17.8987L8.2 4.2L8.40627 3.8906C8.7772 3.3342 9.40166 3 10.0704 3ZM12 7C12.5523 7 13 6.55228 13 6C13 5.44772 12.5523 5 12 5C11.4477 5 11 5.44772 11 6C11 6.55228 11.4477 7 12 7Z" fill="#1A1A1A"/>
</svg>
