<svg width="24" height="24" viewBox="0 0 24 24" fill="none" xmlns="http://www.w3.org/2000/svg">
<rect width="24" height="24" fill="#A6A6A6"/>
<path d="M-404 -1304C-404 -1305.1 -403.105 -1306 -402 -1306H1082C1083.1 -1306 1084 -1305.1 1084 -1304V246C1084 247.105 1083.1 248 1082 248H-402C-403.105 248 -404 247.105 -404 246V-1304Z" fill="white"/>
<path d="M-402 -1305H1082V-1307H-402V-1305ZM1083 -1304V246H1085V-1304H1083ZM1082 247H-402V249H1082V247ZM-403 246V-1304H-405V246H-403ZM-402 247C-402.552 247 -403 246.552 -403 246H-405C-405 247.657 -403.657 249 -402 249V247ZM1083 246C1083 246.552 1082.55 247 1082 247V249C1083.66 249 1085 247.657 1085 246H1083ZM1082 -1305C1082.55 -1305 1083 -1304.55 1083 -1304H1085C1085 -1305.66 1083.66 -1307 1082 -1307V-1305ZM-402 -1307C-403.657 -1307 -405 -1305.66 -405 -1304H-403C-403 -1304.55 -402.552 -1305 -402 -1305V-1307Z" fill="black" fill-opacity="0.1"/>
<path d="M8.5 7H6.5C5.39543 7 4.5 7.89543 4.5 9V11C4.5 12.1046 5.39543 13 6.5 13H7.5L6.47082 15.0584C6.02479 15.9504 6.67347 17 7.67082 17C8.179 17 8.64356 16.7129 8.87082 16.2584L10.2889 13.4223C10.4277 13.1446 10.5 12.8384 10.5 12.5279V9C10.5 7.89543 9.60457 7 8.5 7Z" stroke="#1A1A1A" stroke-width="1.5" stroke-linecap="round" stroke-linejoin="round"/>
<path d="M17.5 7H15.5C14.3954 7 13.5 7.89543 13.5 9V11C13.5 12.1046 14.3954 13 15.5 13H16.5L15.4708 15.0584C15.0248 15.9504 15.6735 17 16.6708 17C17.179 17 17.6436 16.7129 17.8708 16.2584L19.2889 13.4223C19.4277 13.1446 19.5 12.8384 19.5 12.5279V9C19.5 7.89543 18.6046 7 17.5 7Z" stroke="#1A1A1A" stroke-width="1.5" stroke-linecap="round" stroke-linejoin="round"/>
</svg>
