<svg width="24" height="24" viewBox="0 0 24 24" fill="none" xmlns="http://www.w3.org/2000/svg">
<rect width="24" height="24" fill="#A6A6A6"/>
<path d="M-1096 -1304C-1096 -1305.1 -1095.1 -1306 -1094 -1306H390C391.105 -1306 392 -1305.1 392 -1304V246C392 247.105 391.105 248 390 248H-1094C-1095.1 248 -1096 247.105 -1096 246V-1304Z" fill="white"/>
<path d="M-1094 -1305H390V-1307H-1094V-1305ZM391 -1304V246H393V-1304H391ZM390 247H-1094V249H390V247ZM-1095 246V-1304H-1097V246H-1095ZM-1094 247C-1094.55 247 -1095 246.552 -1095 246H-1097C-1097 247.657 -1095.66 249 -1094 249V247ZM391 246C391 246.552 390.552 247 390 247V249C391.657 249 393 247.657 393 246H391ZM390 -1305C390.552 -1305 391 -1304.55 391 -1304H393C393 -1305.66 391.657 -1307 390 -1307V-1305ZM-1094 -1307C-1095.66 -1307 -1097 -1305.66 -1097 -1304H-1095C-1095 -1304.55 -1094.55 -1305 -1094 -1305V-1307Z" fill="black" fill-opacity="0.1"/>
<path fill-rule="evenodd" clip-rule="evenodd" d="M6.5 7H8.5C9.60457 7 10.5 7.89543 10.5 9V12.5279C10.5 12.8384 10.4277 13.1446 10.2889 13.4223L8.87082 16.2584C8.64356 16.7129 8.179 17 7.67082 17C6.67347 17 6.02479 15.9504 6.47082 15.0584L7.5 13H6.5C5.39543 13 4.5 12.1046 4.5 11V9C4.5 7.89543 5.39543 7 6.5 7ZM15.5 7H17.5C18.6046 7 19.5 7.89543 19.5 9V12.5279C19.5 12.8384 19.4277 13.1446 19.2889 13.4223L17.8708 16.2584C17.6436 16.7129 17.179 17 16.6708 17C15.6735 17 15.0248 15.9504 15.4708 15.0584L16.5 13H15.5C14.3954 13 13.5 12.1046 13.5 11V9C13.5 7.89543 14.3954 7 15.5 7Z" fill="#1A1A1A"/>
</svg>
