<svg width="24" height="24" viewBox="0 0 24 24" fill="none" xmlns="http://www.w3.org/2000/svg">
<rect width="24" height="24" fill="#A6A6A6"/>
<path d="M-636 -325C-636 -326.105 -635.105 -327 -634 -327H850C851.105 -327 852 -326.105 852 -325V1225C852 1226.1 851.105 1227 850 1227H-634C-635.105 1227 -636 1226.1 -636 1225V-325Z" fill="white"/>
<path d="M-634 -326H850V-328H-634V-326ZM851 -325V1225H853V-325H851ZM850 1226H-634V1228H850V1226ZM-635 1225V-325H-637V1225H-635ZM-634 1226C-634.552 1226 -635 1225.55 -635 1225H-637C-637 1226.66 -635.657 1228 -634 1228V1226ZM851 1225C851 1225.55 850.552 1226 850 1226V1228C851.657 1228 853 1226.66 853 1225H851ZM850 -326C850.552 -326 851 -325.552 851 -325H853C853 -326.657 851.657 -328 850 -328V-326ZM-634 -328C-635.657 -328 -637 -326.657 -637 -325H-635C-635 -325.552 -634.552 -326 -634 -326V-328Z" fill="black" fill-opacity="0.1"/>
<path d="M12 8V9M12 11.5V16M12 22C17.5228 22 22 17.5228 22 12C22 6.47715 17.5228 2 12 2C6.47715 2 2 6.47715 2 12C2 17.5228 6.47715 22 12 22Z" stroke="#1A1A1A" stroke-width="1.5" stroke-linecap="round" stroke-linejoin="round"/>
</svg>
