<svg width="24" height="24" viewBox="0 0 24 24" fill="none" xmlns="http://www.w3.org/2000/svg">
<rect width="24" height="24" fill="#A6A6A6"/>
<path d="M-1328 -325C-1328 -326.105 -1327.1 -327 -1326 -327H158C159.105 -327 160 -326.105 160 -325V1225C160 1226.1 159.105 1227 158 1227H-1326C-1327.1 1227 -1328 1226.1 -1328 1225V-325Z" fill="white"/>
<path d="M-1326 -326H158V-328H-1326V-326ZM159 -325V1225H161V-325H159ZM158 1226H-1326V1228H158V1226ZM-1327 1225V-325H-1329V1225H-1327ZM-1326 1226C-1326.55 1226 -1327 1225.55 -1327 1225H-1329C-1329 1226.66 -1327.66 1228 -1326 1228V1226ZM159 1225C159 1225.55 158.552 1226 158 1226V1228C159.657 1228 161 1226.66 161 1225H159ZM158 -326C158.552 -326 159 -325.552 159 -325H161C161 -326.657 159.657 -328 158 -328V-326ZM-1326 -328C-1327.66 -328 -1329 -326.657 -1329 -325H-1327C-1327 -325.552 -1326.55 -326 -1326 -326V-328Z" fill="black" fill-opacity="0.1"/>
<path fill-rule="evenodd" clip-rule="evenodd" d="M12 22C17.5228 22 22 17.5228 22 12C22 6.47715 17.5228 2 12 2C6.47715 2 2 6.47715 2 12C2 17.5228 6.47715 22 12 22ZM12.75 8C12.75 7.58579 12.4142 7.25 12 7.25C11.5858 7.25 11.25 7.58579 11.25 8V9C11.25 9.41421 11.5858 9.75 12 9.75C12.4142 9.75 12.75 9.41421 12.75 9V8ZM12.75 11.5C12.75 11.0858 12.4142 10.75 12 10.75C11.5858 10.75 11.25 11.0858 11.25 11.5V16C11.25 16.4142 11.5858 16.75 12 16.75C12.4142 16.75 12.75 16.4142 12.75 16V11.5Z" fill="#1A1A1A"/>
</svg>
