<svg width="24" height="24" viewBox="0 0 24 24" fill="none" xmlns="http://www.w3.org/2000/svg">
<rect width="24" height="24" fill="#A6A6A6"/>
<path d="M-288 -325C-288 -326.105 -287.105 -327 -286 -327H1198C1199.1 -327 1200 -326.105 1200 -325V1225C1200 1226.1 1199.1 1227 1198 1227H-286C-287.105 1227 -288 1226.1 -288 1225V-325Z" fill="white"/>
<path d="M-286 -326H1198V-328H-286V-326ZM1199 -325V1225H1201V-325H1199ZM1198 1226H-286V1228H1198V1226ZM-287 1225V-325H-289V1225H-287ZM-286 1226C-286.552 1226 -287 1225.55 -287 1225H-289C-289 1226.66 -287.657 1228 -286 1228V1226ZM1199 1225C1199 1225.55 1198.55 1226 1198 1226V1228C1199.66 1228 1201 1226.66 1201 1225H1199ZM1198 -326C1198.55 -326 1199 -325.552 1199 -325H1201C1201 -326.657 1199.66 -328 1198 -328V-326ZM-286 -328C-287.657 -328 -289 -326.657 -289 -325H-287C-287 -325.552 -286.552 -326 -286 -326V-328Z" fill="black" fill-opacity="0.1"/>
<path d="M16 12H8M18 2H6C3.79086 2 2 3.79086 2 6V18C2 20.2091 3.79086 22 6 22H18C20.2091 22 22 20.2091 22 18V6C22 3.79086 20.2091 2 18 2Z" stroke="#1A1A1A" stroke-width="1.5" stroke-linecap="round" stroke-linejoin="round"/>
</svg>
