<svg width="24" height="24" viewBox="0 0 24 24" fill="none" xmlns="http://www.w3.org/2000/svg">
<rect width="24" height="24" fill="#A6A6A6"/>
<path d="M-980 -325C-980 -326.105 -979.105 -327 -978 -327H506C507.105 -327 508 -326.105 508 -325V1225C508 1226.1 507.105 1227 506 1227H-978C-979.105 1227 -980 1226.1 -980 1225V-325Z" fill="white"/>
<path d="M-978 -326H506V-328H-978V-326ZM507 -325V1225H509V-325H507ZM506 1226H-978V1228H506V1226ZM-979 1225V-325H-981V1225H-979ZM-978 1226C-978.552 1226 -979 1225.55 -979 1225H-981C-981 1226.66 -979.657 1228 -978 1228V1226ZM507 1225C507 1225.55 506.552 1226 506 1226V1228C507.657 1228 509 1226.66 509 1225H507ZM506 -326C506.552 -326 507 -325.552 507 -325H509C509 -326.657 507.657 -328 506 -328V-326ZM-978 -328C-979.657 -328 -981 -326.657 -981 -325H-979C-979 -325.552 -978.552 -326 -978 -326V-328Z" fill="black" fill-opacity="0.1"/>
<path fill-rule="evenodd" clip-rule="evenodd" d="M18 2H6C3.79086 2 2 3.79086 2 6V18C2 20.2091 3.79086 22 6 22H18C20.2091 22 22 20.2091 22 18V6C22 3.79086 20.2091 2 18 2ZM16 12.75C16.4142 12.75 16.75 12.4142 16.75 12C16.75 11.5858 16.4142 11.25 16 11.25H8C7.58579 11.25 7.25 11.5858 7.25 12C7.25 12.4142 7.58579 12.75 8 12.75H16Z" fill="#1A1A1A"/>
</svg>
