<svg width="24" height="24" viewBox="0 0 24 24" fill="none" xmlns="http://www.w3.org/2000/svg">
<rect width="24" height="24" fill="#A6A6A6"/>
<path d="M-520 -1024C-520 -1025.1 -519.105 -1026 -518 -1026H966C967.105 -1026 968 -1025.1 968 -1024V526C968 527.105 967.105 528 966 528H-518C-519.105 528 -520 527.105 -520 526V-1024Z" fill="white"/>
<path d="M-518 -1025H966V-1027H-518V-1025ZM967 -1024V526H969V-1024H967ZM966 527H-518V529H966V527ZM-519 526V-1024H-521V526H-519ZM-518 527C-518.552 527 -519 526.552 -519 526H-521C-521 527.657 -519.657 529 -518 529V527ZM967 526C967 526.552 966.552 527 966 527V529C967.657 529 969 527.657 969 526H967ZM966 -1025C966.552 -1025 967 -1024.55 967 -1024H969C969 -1025.66 967.657 -1027 966 -1027V-1025ZM-518 -1027C-519.657 -1027 -521 -1025.66 -521 -1024H-519C-519 -1024.55 -518.552 -1025 -518 -1025V-1027Z" fill="black" fill-opacity="0.1"/>
<path d="M18.301 18.9281L18.9215 18.5607C20.2077 17.799 21 16.3914 21 14.8681V9.13192C21 7.6086 20.2077 6.20099 18.9215 5.43932L14.0785 2.57125C12.7923 1.80958 11.2077 1.80958 9.92154 2.57125L5.07846 5.43932C3.7923 6.20099 3 7.6086 3 9.13192V14.8681C3 16.3914 3.7923 17.799 5.07846 18.5607L5.69896 18.9281M18.301 18.9281L14.0785 21.4288C12.7923 22.1904 11.2077 22.1904 9.92154 21.4288L5.69896 18.9281M18.301 18.9281C17.0431 16.6982 14.6924 15.1979 12 15.1979C9.30762 15.1979 6.95686 16.6982 5.69896 18.9281" stroke="#1A1A1A" stroke-width="1.5" stroke-linejoin="round"/>
<circle cx="3" cy="3" r="3" transform="matrix(1 0 0 -1 9 12)" stroke="#1A1A1A" stroke-width="1.5" stroke-linejoin="round"/>
</svg>
