<svg width="24" height="24" viewBox="0 0 24 24" fill="none" xmlns="http://www.w3.org/2000/svg">
<rect width="24" height="24" fill="#A6A6A6"/>
<path d="M-1212 -1024C-1212 -1025.1 -1211.1 -1026 -1210 -1026H274C275.105 -1026 276 -1025.1 276 -1024V526C276 527.105 275.105 528 274 528H-1210C-1211.1 528 -1212 527.105 -1212 526V-1024Z" fill="white"/>
<path d="M-1210 -1025H274V-1027H-1210V-1025ZM275 -1024V526H277V-1024H275ZM274 527H-1210V529H274V527ZM-1211 526V-1024H-1213V526H-1211ZM-1210 527C-1210.55 527 -1211 526.552 -1211 526H-1213C-1213 527.657 -1211.66 529 -1210 529V527ZM275 526C275 526.552 274.552 527 274 527V529C275.657 529 277 527.657 277 526H275ZM274 -1025C274.552 -1025 275 -1024.55 275 -1024H277C277 -1025.66 275.657 -1027 274 -1027V-1025ZM-1210 -1027C-1211.66 -1027 -1213 -1025.66 -1213 -1024H-1211C-1211 -1024.55 -1210.55 -1025 -1210 -1025V-1027Z" fill="black" fill-opacity="0.1"/>
<path fill-rule="evenodd" clip-rule="evenodd" d="M9.92154 2.57125C11.2077 1.80958 12.7923 1.80958 14.0785 2.57125L18.9215 5.43932C20.2077 6.20099 21 7.6086 21 9.13192V14.8681C21 16.3914 20.2077 17.799 18.9215 18.5607L18.301 18.9281L14.0785 21.4288C12.7923 22.1904 11.2077 22.1904 9.92154 21.4288L5.69896 18.9281L5.07846 18.5607C3.7923 17.799 3 16.3914 3 14.8681V9.13192C3 7.6086 3.7923 6.20099 5.07846 5.43932L9.92154 2.57125ZM16.0952 15.2041C15.023 14.4572 13.5831 14 12 14C10.4169 14 8.97703 14.4572 7.90484 15.2041C7.39026 15.5626 7.49802 16.2988 8.03578 16.6215L11.4855 18.6913C11.8022 18.8813 12.1978 18.8813 12.5145 18.6913L15.9642 16.6215C16.502 16.2988 16.6097 15.5626 16.0952 15.2041ZM12 6C13.6569 6 15 7.34315 15 9C15 10.6569 13.6569 12 12 12C10.3431 12 9 10.6569 9 9C9 7.34315 10.3431 6 12 6Z" fill="#1A1A1A"/>
</svg>
