<svg width="24" height="24" viewBox="0 0 24 24" fill="none" xmlns="http://www.w3.org/2000/svg">
<rect width="24" height="24" fill="#A6A6A6"/>
<path d="M-172 -757C-172 -758.105 -171.105 -759 -170 -759H1314C1315.1 -759 1316 -758.105 1316 -757V793C1316 794.105 1315.1 795 1314 795H-170C-171.105 795 -172 794.105 -172 793V-757Z" fill="white"/>
<path d="M-170 -758H1314V-760H-170V-758ZM1315 -757V793H1317V-757H1315ZM1314 794H-170V796H1314V794ZM-171 793V-757H-173V793H-171ZM-170 794C-170.552 794 -171 793.552 -171 793H-173C-173 794.657 -171.657 796 -170 796V794ZM1315 793C1315 793.552 1314.55 794 1314 794V796C1315.66 796 1317 794.657 1317 793H1315ZM1314 -758C1314.55 -758 1315 -757.552 1315 -757H1317C1317 -758.657 1315.66 -760 1314 -760V-758ZM-170 -760C-171.657 -760 -173 -758.657 -173 -757H-171C-171 -757.552 -170.552 -758 -170 -758V-760Z" fill="black" fill-opacity="0.1"/>
<path d="M14 6H22M4 10H8C9.10457 10 10 9.10457 10 8V4C10 2.89543 9.10457 2 8 2H4C2.89543 2 2 2.89543 2 4V8C2 9.10457 2.89543 10 4 10ZM16 22H20C21.1046 22 22 21.1046 22 20V16C22 14.8954 21.1046 14 20 14H16C14.8954 14 14 14.8954 14 16V20C14 21.1046 14.8954 22 16 22ZM10 18C10 20.2091 8.20914 22 6 22C3.79086 22 2 20.2091 2 18C2 15.7909 3.79086 14 6 14C8.20914 14 10 15.7909 10 18Z" stroke="#1A1A1A" stroke-width="1.5" stroke-linecap="round"/>
</svg>
