<svg width="24" height="24" viewBox="0 0 24 24" fill="none" xmlns="http://www.w3.org/2000/svg">
<rect width="24" height="24" fill="#A6A6A6"/>
<path d="M-864 -757C-864 -758.105 -863.105 -759 -862 -759H622C623.105 -759 624 -758.105 624 -757V793C624 794.105 623.105 795 622 795H-862C-863.105 795 -864 794.105 -864 793V-757Z" fill="white"/>
<path d="M-862 -758H622V-760H-862V-758ZM623 -757V793H625V-757H623ZM622 794H-862V796H622V794ZM-863 793V-757H-865V793H-863ZM-862 794C-862.552 794 -863 793.552 -863 793H-865C-865 794.657 -863.657 796 -862 796V794ZM623 793C623 793.552 622.552 794 622 794V796C623.657 796 625 794.657 625 793H623ZM622 -758C622.552 -758 623 -757.552 623 -757H625C625 -758.657 623.657 -760 622 -760V-758ZM-862 -760C-863.657 -760 -865 -758.657 -865 -757H-863C-863 -757.552 -862.552 -758 -862 -758V-760Z" fill="black" fill-opacity="0.1"/>
<path fill-rule="evenodd" clip-rule="evenodd" d="M4 2C2.89543 2 2 2.89543 2 4V8C2 9.10457 2.89543 10 4 10H8C9.10457 10 10 9.10457 10 8V4C10 2.89543 9.10457 2 8 2H4ZM16 14C14.8954 14 14 14.8954 14 16V20C14 21.1046 14.8954 22 16 22H20C21.1046 22 22 21.1046 22 20V16C22 14.8954 21.1046 14 20 14H16ZM10 18C10 20.2091 8.20914 22 6 22C3.79086 22 2 20.2091 2 18C2 15.7909 3.79086 14 6 14C8.20914 14 10 15.7909 10 18ZM14.25 5.25C13.8358 5.25 13.5 5.58579 13.5 6C13.5 6.41421 13.8358 6.75 14.25 6.75H21.25C21.6642 6.75 22 6.41421 22 6C22 5.58579 21.6642 5.25 21.25 5.25H14.25Z" fill="#1A1A1A"/>
</svg>
