<svg width="24" height="24" viewBox="0 0 24 24" fill="none" xmlns="http://www.w3.org/2000/svg">
<rect width="24" height="24" fill="#A6A6A6"/>
<path d="M-114 -757C-114 -758.105 -113.105 -759 -112 -759H1372C1373.1 -759 1374 -758.105 1374 -757V793C1374 794.105 1373.1 795 1372 795H-112C-113.105 795 -114 794.105 -114 793V-757Z" fill="white"/>
<path d="M-112 -758H1372V-760H-112V-758ZM1373 -757V793H1375V-757H1373ZM1372 794H-112V796H1372V794ZM-113 793V-757H-115V793H-113ZM-112 794C-112.552 794 -113 793.552 -113 793H-115C-115 794.657 -113.657 796 -112 796V794ZM1373 793C1373 793.552 1372.55 794 1372 794V796C1373.66 796 1375 794.657 1375 793H1373ZM1372 -758C1372.55 -758 1373 -757.552 1373 -757H1375C1375 -758.657 1373.66 -760 1372 -760V-758ZM-112 -760C-113.657 -760 -115 -758.657 -115 -757H-113C-113 -757.552 -112.552 -758 -112 -758V-760Z" fill="black" fill-opacity="0.1"/>
<path d="M2 4C2 2.89543 2.89543 2 4 2H8C9.10457 2 10 2.89543 10 4V8C10 9.10457 9.10457 10 8 10H4C2.89543 10 2 9.10457 2 8V4Z" stroke="#1A1A1A" stroke-width="1.5"/>
<path d="M22 6C22 8.20914 20.2091 10 18 10C15.7909 10 14 8.20914 14 6C14 3.79086 15.7909 2 18 2C20.2091 2 22 3.79086 22 6Z" stroke="#1A1A1A" stroke-width="1.5"/>
<path d="M10 18C10 20.2091 8.20914 22 6 22C3.79086 22 2 20.2091 2 18C2 15.7909 3.79086 14 6 14C8.20914 14 10 15.7909 10 18Z" stroke="#1A1A1A" stroke-width="1.5"/>
<path d="M14 16C14 14.8954 14.8954 14 16 14H20C21.1046 14 22 14.8954 22 16V20C22 21.1046 21.1046 22 20 22H16C14.8954 22 14 21.1046 14 20V16Z" stroke="#1A1A1A" stroke-width="1.5"/>
</svg>
