<svg width="24" height="24" viewBox="0 0 24 24" fill="none" xmlns="http://www.w3.org/2000/svg">
<rect width="24" height="24" fill="#A6A6A6"/>
<path d="M-806 -757C-806 -758.105 -805.105 -759 -804 -759H680C681.105 -759 682 -758.105 682 -757V793C682 794.105 681.105 795 680 795H-804C-805.105 795 -806 794.105 -806 793V-757Z" fill="white"/>
<path d="M-804 -758H680V-760H-804V-758ZM681 -757V793H683V-757H681ZM680 794H-804V796H680V794ZM-805 793V-757H-807V793H-805ZM-804 794C-804.552 794 -805 793.552 -805 793H-807C-807 794.657 -805.657 796 -804 796V794ZM681 793C681 793.552 680.552 794 680 794V796C681.657 796 683 794.657 683 793H681ZM680 -758C680.552 -758 681 -757.552 681 -757H683C683 -758.657 681.657 -760 680 -760V-758ZM-804 -760C-805.657 -760 -807 -758.657 -807 -757H-805C-805 -757.552 -804.552 -758 -804 -758V-760Z" fill="black" fill-opacity="0.1"/>
<path fill-rule="evenodd" clip-rule="evenodd" d="M4 2C2.89543 2 2 2.89543 2 4V8C2 9.10457 2.89543 10 4 10H8C9.10457 10 10 9.10457 10 8V4C10 2.89543 9.10457 2 8 2H4ZM18 10C20.2091 10 22 8.20914 22 6C22 3.79086 20.2091 2 18 2C15.7909 2 14 3.79086 14 6C14 8.20914 15.7909 10 18 10ZM10 18C10 20.2091 8.20914 22 6 22C3.79086 22 2 20.2091 2 18C2 15.7909 3.79086 14 6 14C8.20914 14 10 15.7909 10 18ZM16 14C14.8954 14 14 14.8954 14 16V20C14 21.1046 14.8954 22 16 22H20C21.1046 22 22 21.1046 22 20V16C22 14.8954 21.1046 14 20 14H16Z" fill="#1A1A1A"/>
</svg>
