<svg width="24" height="24" viewBox="0 0 24 24" fill="none" xmlns="http://www.w3.org/2000/svg">
<rect width="24" height="24" fill="#A6A6A6"/>
<path d="M-636 -565C-636 -566.105 -635.105 -567 -634 -567H850C851.105 -567 852 -566.105 852 -565V985C852 986.105 851.105 987 850 987H-634C-635.105 987 -636 986.105 -636 985V-565Z" fill="white"/>
<path d="M-634 -566H850V-568H-634V-566ZM851 -565V985H853V-565H851ZM850 986H-634V988H850V986ZM-635 985V-565H-637V985H-635ZM-634 986C-634.552 986 -635 985.552 -635 985H-637C-637 986.657 -635.657 988 -634 988V986ZM851 985C851 985.552 850.552 986 850 986V988C851.657 988 853 986.657 853 985H851ZM850 -566C850.552 -566 851 -565.552 851 -565H853C853 -566.657 851.657 -568 850 -568V-566ZM-634 -568C-635.657 -568 -637 -566.657 -637 -565H-635C-635 -565.552 -634.552 -566 -634 -566V-568Z" fill="black" fill-opacity="0.1"/>
<path d="M17 3.33782C15.5291 2.48697 13.8214 2 12 2C6.47715 2 2 6.47715 2 12C2 17.5228 6.47715 22 12 22C17.5228 22 22 17.5228 22 12C22 10.7687 21.7775 9.58934 21.3704 8.5M7 10L10.5264 12.8211C11.3537 13.483 12.5536 13.3848 13.2624 12.5973L21 4" stroke="#1A1A1A" stroke-width="1.5" stroke-linecap="round"/>
</svg>
