<svg width="24" height="24" viewBox="0 0 24 24" fill="none" xmlns="http://www.w3.org/2000/svg">
<rect width="24" height="24" fill="#A6A6A6"/>
<path d="M-114 -1160C-114 -1161.1 -113.105 -1162 -112 -1162H1372C1373.1 -1162 1374 -1161.1 1374 -1160V390C1374 391.105 1373.1 392 1372 392H-112C-113.105 392 -114 391.105 -114 390V-1160Z" fill="white"/>
<path d="M-112 -1161H1372V-1163H-112V-1161ZM1373 -1160V390H1375V-1160H1373ZM1372 391H-112V393H1372V391ZM-113 390V-1160H-115V390H-113ZM-112 391C-112.552 391 -113 390.552 -113 390H-115C-115 391.657 -113.657 393 -112 393V391ZM1373 390C1373 390.552 1372.55 391 1372 391V393C1373.66 393 1375 391.657 1375 390H1373ZM1372 -1161C1372.55 -1161 1373 -1160.55 1373 -1160H1375C1375 -1161.66 1373.66 -1163 1372 -1163V-1161ZM-112 -1163C-113.657 -1163 -115 -1161.66 -115 -1160H-113C-113 -1160.55 -112.552 -1161 -112 -1161V-1163Z" fill="black" fill-opacity="0.1"/>
<path d="M7 5H11.5C13.433 5 15 6.567 15 8.5V8.5C15 10.433 13.433 12 11.5 12H7V5Z" stroke="#1A1A1A" stroke-width="1.5" stroke-linejoin="round"/>
<path d="M7 12H13.5C15.433 12 17 13.567 17 15.5V15.5C17 17.433 15.433 19 13.5 19H7V12Z" stroke="#1A1A1A" stroke-width="1.5" stroke-linejoin="round"/>
</svg>
