<svg width="24" height="24" viewBox="0 0 24 24" fill="none" xmlns="http://www.w3.org/2000/svg">
<rect width="24" height="24" fill="#A6A6A6"/>
<path d="M-806 -1160C-806 -1161.1 -805.105 -1162 -804 -1162H680C681.105 -1162 682 -1161.1 682 -1160V390C682 391.105 681.105 392 680 392H-804C-805.105 392 -806 391.105 -806 390V-1160Z" fill="white"/>
<path d="M-804 -1161H680V-1163H-804V-1161ZM681 -1160V390H683V-1160H681ZM680 391H-804V393H680V391ZM-805 390V-1160H-807V390H-805ZM-804 391C-804.552 391 -805 390.552 -805 390H-807C-807 391.657 -805.657 393 -804 393V391ZM681 390C681 390.552 680.552 391 680 391V393C681.657 393 683 391.657 683 390H681ZM680 -1161C680.552 -1161 681 -1160.55 681 -1160H683C683 -1161.66 681.657 -1163 680 -1163V-1161ZM-804 -1163C-805.657 -1163 -807 -1161.66 -807 -1160H-805C-805 -1160.55 -804.552 -1161 -804 -1161V-1163Z" fill="black" fill-opacity="0.1"/>
<path fill-rule="evenodd" clip-rule="evenodd" d="M7 4.25C6.58579 4.25 6.25 4.58579 6.25 5V12V19C6.25 19.4142 6.58579 19.75 7 19.75H13.5C15.8472 19.75 17.75 17.8472 17.75 15.5C17.75 13.5369 16.419 11.8846 14.6102 11.3965C15.3173 10.6374 15.75 9.61925 15.75 8.5C15.75 6.15279 13.8472 4.25 11.5 4.25H7ZM11.5 11.25C13.0188 11.25 14.25 10.0188 14.25 8.5C14.25 6.98122 13.0188 5.75 11.5 5.75H7.75V11.25H11.5ZM7.75 12.75V18.25H13.5C15.0188 18.25 16.25 17.0188 16.25 15.5C16.25 13.9812 15.0188 12.75 13.5 12.75H11.5H7.75Z" fill="#1A1A1A"/>
</svg>
